<svg xmlns="http://www.w3.org/2000/svg" width="1001" height="364" viewBox="0 0 1001 364">
  <g id="Grupo_1016003" data-name="Grupo 1016003" transform="translate(-285 -23892)">
    <g id="Trazado_737950" data-name="Trazado 737950" transform="translate(285 24040)" fill="#fff">
      <path d="M 180 66.5 L 10 66.5 C 5.313075065612793 66.5 1.5 62.68692398071289 1.5 58 L 1.5 10 C 1.5 5.313075065612793 5.313075065612793 1.5 10 1.5 L 180 1.5 C 184.6869201660156 1.5 188.5 5.313075065612793 188.5 10 L 188.5 58 C 188.5 62.68692398071289 184.6869201660156 66.5 180 66.5 Z" stroke="none"/>
      <path d="M 10 3 C 6.140182495117188 3 3 6.140182495117188 3 10 L 3 58 C 3 61.85981750488281 6.140182495117188 65 10 65 L 180 65 C 183.8598175048828 65 187 61.85981750488281 187 58 L 187 10 C 187 6.140182495117188 183.8598175048828 3 180 3 L 10 3 M 10 0 L 180 0 C 185.5228424072266 0 190 4.477157592773438 190 10 L 190 58 C 190 63.52284240722656 185.5228424072266 68 180 68 L 10 68 C 4.477157592773438 68 0 63.52284240722656 0 58 L 0 10 C 0 4.477157592773438 4.477157592773438 0 10 0 Z" stroke="none" fill="#4db1f0"/>
    </g>
    <g id="Trazado_737951" data-name="Trazado 737951" transform="translate(515 23960)" fill="#fff">
      <path d="M 180 67 L 10 67 C 5.037374973297119 67 1 62.96262359619141 1 58 L 1 10 C 1 5.037374973297119 5.037374973297119 1 10 1 L 180 1 C 184.9626312255859 1 189 5.037374973297119 189 10 L 189 58 C 189 62.96262359619141 184.9626312255859 67 180 67 Z" stroke="none"/>
      <path d="M 10 2 C 5.588775634765625 2 2 5.588775634765625 2 10 L 2 58 C 2 62.41122436523438 5.588775634765625 66 10 66 L 180 66 C 184.4112243652344 66 188 62.41122436523438 188 58 L 188 10 C 188 5.588775634765625 184.4112243652344 2 180 2 L 10 2 M 10 0 L 180 0 C 185.5228576660156 0 190 4.477149963378906 190 10 L 190 58 C 190 63.52285003662109 185.5228576660156 68 180 68 L 10 68 C 4.477157592773438 68 0 63.52285003662109 0 58 L 0 10 C 0 4.477149963378906 4.477157592773438 0 10 0 Z" stroke="none" fill="#4db1f0"/>
    </g>
    <g id="Trazado_737952" data-name="Trazado 737952" transform="translate(749 23892)" fill="#fff">
      <path d="M 180 67 L 10 67 C 5.037374973297119 67 1 62.96262359619141 1 58 L 1 10 C 1 5.037374973297119 5.037374973297119 1 10 1 L 180 1 C 184.9626312255859 1 189 5.037374973297119 189 10 L 189 58 C 189 62.96262359619141 184.9626312255859 67 180 67 Z" stroke="none"/>
      <path d="M 10 2 C 5.588775634765625 2 2 5.588775634765625 2 10 L 2 58 C 2 62.41122436523438 5.588775634765625 66 10 66 L 180 66 C 184.4112243652344 66 188 62.41122436523438 188 58 L 188 10 C 188 5.588775634765625 184.4112243652344 2 180 2 L 10 2 M 10 0 L 180 0 C 185.5228576660156 0 190 4.477149963378906 190 10 L 190 58 C 190 63.52285003662109 185.5228576660156 68 180 68 L 10 68 C 4.477157592773438 68 0 63.52285003662109 0 58 L 0 10 C 0 4.477149963378906 4.477157592773438 0 10 0 Z" stroke="none" fill="#4db1f0"/>
    </g>
    <g id="Trazado_737953" data-name="Trazado 737953" transform="translate(749 23988)" fill="#fff">
      <path d="M 180 67 L 10 67 C 5.037374973297119 67 1 62.96262359619141 1 58 L 1 10 C 1 5.037374973297119 5.037374973297119 1 10 1 L 180 1 C 184.9626312255859 1 189 5.037374973297119 189 10 L 189 58 C 189 62.96262359619141 184.9626312255859 67 180 67 Z" stroke="none"/>
      <path d="M 10 2 C 5.588775634765625 2 2 5.588775634765625 2 10 L 2 58 C 2 62.41122436523438 5.588775634765625 66 10 66 L 180 66 C 184.4112243652344 66 188 62.41122436523438 188 58 L 188 10 C 188 5.588775634765625 184.4112243652344 2 180 2 L 10 2 M 10 0 L 180 0 C 185.5228576660156 0 190 4.477149963378906 190 10 L 190 58 C 190 63.52285003662109 185.5228576660156 68 180 68 L 10 68 C 4.477157592773438 68 0 63.52285003662109 0 58 L 0 10 C 0 4.477149963378906 4.477157592773438 0 10 0 Z" stroke="none" fill="#4db1f0"/>
    </g>
    <g id="Trazado_737954" data-name="Trazado 737954" transform="translate(1079 23945)" fill="#fff">
      <path d="M 180 67 L 10 67 C 5.037374973297119 67 1 62.96262359619141 1 58 L 1 10 C 1 5.037374973297119 5.037374973297119 1 10 1 L 180 1 C 184.9626312255859 1 189 5.037374973297119 189 10 L 189 58 C 189 62.96262359619141 184.9626312255859 67 180 67 Z" stroke="none"/>
      <path d="M 10 2 C 5.588775634765625 2 2 5.588775634765625 2 10 L 2 58 C 2 62.41122436523438 5.588775634765625 66 10 66 L 180 66 C 184.4112243652344 66 188 62.41122436523438 188 58 L 188 10 C 188 5.588775634765625 184.4112243652344 2 180 2 L 10 2 M 10 0 L 180 0 C 185.5228576660156 0 190 4.477149963378906 190 10 L 190 58 C 190 63.52285003662109 185.5228576660156 68 180 68 L 10 68 C 4.477157592773438 68 0 63.52285003662109 0 58 L 0 10 C 0 4.477149963378906 4.477157592773438 0 10 0 Z" stroke="none" fill="#4db1f0"/>
    </g>
    <g id="Trazado_737955" data-name="Trazado 737955" transform="translate(458 24178)" fill="#fff">
      <path d="M 98 67 L 10 67 C 5.037385940551758 67 1 62.96261596679688 1 58 L 1 10 C 1 5.037385940551758 5.037385940551758 1 10 1 L 98 1 C 102.9626159667969 1 107 5.037385940551758 107 10 L 107 58 C 107 62.96261596679688 102.9626159667969 67 98 67 Z" stroke="none"/>
      <path d="M 10 2 C 5.588783264160156 2 2 5.588783264160156 2 10 L 2 58 C 2 62.41121673583984 5.588783264160156 66 10 66 L 98 66 C 102.4112167358398 66 106 62.41121673583984 106 58 L 106 10 C 106 5.588783264160156 102.4112167358398 2 98 2 L 10 2 M 10 0 L 98 0 C 103.5228424072266 0 108 4.477153778076172 108 10 L 108 58 C 108 63.52284622192383 103.5228424072266 68 98 68 L 10 68 C 4.477157592773438 68 0 63.52284622192383 0 58 L 0 10 C 0 4.477153778076172 4.477157592773438 0 10 0 Z" stroke="none" fill="#4db1f0"/>
    </g>
    <g id="Trazado_737956" data-name="Trazado 737956" transform="translate(609 24175.332)" fill="#fff">
      <path d="M 171 77 L 10 77 C 5.037381172180176 77 1 72.96261596679688 1 68 L 1 10 C 1 5.037381172180176 5.037381172180176 1 10 1 L 171 1 C 175.9626159667969 1 180 5.037381172180176 180 10 L 180 68 C 180 72.96261596679688 175.9626159667969 77 171 77 Z" stroke="none"/>
      <path d="M 10 2 C 5.588790893554688 2 2 5.588783264160156 2 10 L 2 68 C 2 72.41121673583984 5.588790893554688 76 10 76 L 171 76 C 175.4112091064453 76 179 72.41121673583984 179 68 L 179 10 C 179 5.588783264160156 175.4112091064453 2 171 2 L 10 2 M 10 0 L 171 0 C 176.5228271484375 0 181 4.477142333984375 181 10 L 181 68 C 181 73.52285766601562 176.5228271484375 78 171 78 L 10 78 C 4.477142333984375 78 0 73.52285766601562 0 68 L 0 10 C 0 4.477142333984375 4.477142333984375 0 10 0 Z" stroke="none" fill="#4db1f0"/>
    </g>
    <g id="Trazado_737957" data-name="Trazado 737957" transform="translate(848 24178)" fill="#fff">
      <path d="M 171 77 L 10 77 C 5.037381172180176 77 1 72.96261596679688 1 68 L 1 10 C 1 5.037381172180176 5.037381172180176 1 10 1 L 171 1 C 175.9626159667969 1 180 5.037381172180176 180 10 L 180 68 C 180 72.96261596679688 175.9626159667969 77 171 77 Z" stroke="none"/>
      <path d="M 10 2 C 5.588790893554688 2 2 5.588783264160156 2 10 L 2 68 C 2 72.41121673583984 5.588790893554688 76 10 76 L 171 76 C 175.4112091064453 76 179 72.41121673583984 179 68 L 179 10 C 179 5.588783264160156 175.4112091064453 2 171 2 L 10 2 M 10 0 L 171 0 C 176.5228271484375 0 181 4.477142333984375 181 10 L 181 68 C 181 73.52285766601562 176.5228271484375 78 171 78 L 10 78 C 4.477142333984375 78 0 73.52285766601562 0 68 L 0 10 C 0 4.477142333984375 4.477142333984375 0 10 0 Z" stroke="none" fill="#4db1f0"/>
    </g>
    <g id="Trazado_737958" data-name="Trazado 737958" transform="translate(1105 24178)" fill="#fff">
      <path d="M 171 77 L 10 77 C 5.037381172180176 77 1 72.96261596679688 1 68 L 1 10 C 1 5.037381172180176 5.037381172180176 1 10 1 L 171 1 C 175.9626159667969 1 180 5.037381172180176 180 10 L 180 68 C 180 72.96261596679688 175.9626159667969 77 171 77 Z" stroke="none"/>
      <path d="M 10 2 C 5.588790893554688 2 2 5.588783264160156 2 10 L 2 68 C 2 72.41121673583984 5.588790893554688 76 10 76 L 171 76 C 175.4112091064453 76 179 72.41121673583984 179 68 L 179 10 C 179 5.588783264160156 175.4112091064453 2 171 2 L 10 2 M 10 0 L 171 0 C 176.5228271484375 0 181 4.477142333984375 181 10 L 181 68 C 181 73.52285766601562 176.5228271484375 78 171 78 L 10 78 C 4.477142333984375 78 0 73.52285766601562 0 68 L 0 10 C 0 4.477142333984375 4.477142333984375 0 10 0 Z" stroke="none" fill="#4db1f0"/>
    </g>
    <g id="Trazado_737959" data-name="Trazado 737959" transform="translate(944 24069)" fill="#3076b6">
      <path d="M 171 77 L 10 77 C 5.037381172180176 77 1 72.96261596679688 1 68 L 1 10 C 1 5.037381172180176 5.037381172180176 1 10 1 L 171 1 C 175.9626159667969 1 180 5.037381172180176 180 10 L 180 68 C 180 72.96261596679688 175.9626159667969 77 171 77 Z" stroke="none"/>
      <path d="M 10 2 C 5.588790893554688 2 2 5.588783264160156 2 10 L 2 68 C 2 72.41121673583984 5.588790893554688 76 10 76 L 171 76 C 175.4112091064453 76 179 72.41121673583984 179 68 L 179 10 C 179 5.588783264160156 175.4112091064453 2 171 2 L 10 2 M 10 0 L 171 0 C 176.5228271484375 0 181 4.477142333984375 181 10 L 181 68 C 181 73.52285766601562 176.5228271484375 78 171 78 L 10 78 C 4.477142333984375 78 0 73.52285766601562 0 68 L 0 10 C 0 4.477142333984375 4.477142333984375 0 10 0 Z" stroke="none" fill="#3076b6"/>
    </g>
    <path id="Trazado_737960" data-name="Trazado 737960" d="M8.235-2.391H4.008L3.27,0h-3.3L4.667-12.8h2.9L12.3,0H8.982ZM4.746-4.772H7.5L6.117-9.211Zm8-.053a6.421,6.421,0,0,1,.475-2.549,3.821,3.821,0,0,1,1.362-1.709,3.591,3.591,0,0,1,2.065-.6,2.855,2.855,0,0,1,2.32,1l.105-.826h2.689V-.36a4.009,4.009,0,0,1-.584,2.184,3.75,3.75,0,0,1-1.692,1.424,6.219,6.219,0,0,1-2.566.5,5.365,5.365,0,0,1-2.026-.4,3.657,3.657,0,0,1-1.5-1.028L14.634.58a2.716,2.716,0,0,0,2.18.976A1.764,1.764,0,0,0,18.782-.466v-.3a2.781,2.781,0,0,1-2.153.94,3.437,3.437,0,0,1-2.812-1.332A5.517,5.517,0,0,1,12.744-4.72Zm2.971.185a3.383,3.383,0,0,0,.439,1.85,1.386,1.386,0,0,0,1.23.681,1.573,1.573,0,0,0,1.4-.642v-4A1.534,1.534,0,0,0,17.4-7.4a1.4,1.4,0,0,0-1.239.708A3.858,3.858,0,0,0,15.715-4.641ZM29.109-1.028a3.054,3.054,0,0,1-2.54,1.2A3,3,0,0,1,24.2-.734a3.826,3.826,0,0,1-.8-2.615V-9.51h2.962v6.179a1.065,1.065,0,0,0,1.187,1.222A1.548,1.548,0,0,0,29-2.839V-9.51h2.979V0H29.2ZM38.953,0a3.344,3.344,0,0,1-.281-.853A2.754,2.754,0,0,1,36.387.176,3.374,3.374,0,0,1,34.1-.637a2.588,2.588,0,0,1-.94-2.043A2.66,2.66,0,0,1,34.3-5.019a5.821,5.821,0,0,1,3.322-.791h.914v-.5q0-1.316-1.134-1.316a.927.927,0,0,0-1.055,1.042H33.39a2.655,2.655,0,0,1,1.173-2.239,4.931,4.931,0,0,1,2.993-.86A4.323,4.323,0,0,1,40.43-8.8a3.086,3.086,0,0,1,1.081,2.435v4.21a4.311,4.311,0,0,0,.4,2V0ZM37.1-1.934a1.652,1.652,0,0,0,.918-.237,1.487,1.487,0,0,0,.523-.536V-4.228h-.861q-1.547,0-1.547,1.389a.848.848,0,0,0,.272.655A.986.986,0,0,0,37.1-1.934Zm16.286-4.9-.976-.07a1.752,1.752,0,0,0-1.793.879V0H47.654V-9.51h2.777l.1,1.222a2.294,2.294,0,0,1,2.083-1.4,2.888,2.888,0,0,1,.826.105Zm5.5,7a4.889,4.889,0,0,1-3.542-1.305,4.507,4.507,0,0,1-1.354-3.4v-.246a5.84,5.84,0,0,1,.541-2.575,3.955,3.955,0,0,1,1.578-1.727,4.763,4.763,0,0,1,2.461-.611,4.117,4.117,0,0,1,3.164,1.244,4.887,4.887,0,0,1,1.16,3.467v1.151H57.006A2.135,2.135,0,0,0,57.7-2.566a2.066,2.066,0,0,0,1.389.457,2.662,2.662,0,0,0,2.2-.984l1.354,1.6A3.784,3.784,0,0,1,61.071-.277,5.3,5.3,0,0,1,58.887.176ZM58.553-7.4q-1.3,0-1.547,1.723h2.988v-.229a1.467,1.467,0,0,0-.36-1.1A1.434,1.434,0,0,0,58.553-7.4ZM69.064-2.672a.684.684,0,0,0-.4-.606,6.016,6.016,0,0,0-1.5-.475A6.853,6.853,0,0,1,65.338-4.4a3.062,3.062,0,0,1-1.1-.971,2.319,2.319,0,0,1-.378-1.31,2.628,2.628,0,0,1,1.081-2.158,4.453,4.453,0,0,1,2.83-.848,4.934,4.934,0,0,1,3.023.853,2.666,2.666,0,0,1,1.143,2.241H68.968q0-1.143-1.2-1.143a1.194,1.194,0,0,0-.782.259.8.8,0,0,0-.316.646.737.737,0,0,0,.387.642,3.654,3.654,0,0,0,1.235.4,10.671,10.671,0,0,1,1.49.378A2.706,2.706,0,0,1,71.921-2.76,2.491,2.491,0,0,1,70.765-.642a5.068,5.068,0,0,1-2.993.817,5.172,5.172,0,0,1-2.18-.439,3.645,3.645,0,0,1-1.494-1.2,2.707,2.707,0,0,1-.536-1.591h2.769a1.145,1.145,0,0,0,.439.962,1.808,1.808,0,0,0,1.081.3,1.422,1.422,0,0,0,.91-.246A.787.787,0,0,0,69.064-2.672ZM76.43,0H73.459V-9.51H76.43ZM73.283-11.971a1.334,1.334,0,0,1,.457-1.043,1.718,1.718,0,0,1,1.187-.407,1.718,1.718,0,0,1,1.187.407,1.334,1.334,0,0,1,.457,1.043,1.334,1.334,0,0,1-.457,1.043,1.718,1.718,0,0,1-1.187.407,1.718,1.718,0,0,1-1.187-.407A1.334,1.334,0,0,1,73.283-11.971Zm4.6,7.146a5.809,5.809,0,0,1,.976-3.56,3.211,3.211,0,0,1,2.725-1.3,2.731,2.731,0,0,1,2.145,1V-13.5H86.7V0H84.032l-.149-1.02a2.8,2.8,0,0,1-2.32,1.2,3.205,3.205,0,0,1-2.689-1.3A5.993,5.993,0,0,1,77.88-4.825Zm2.962.185q0,2.531,1.477,2.531a1.458,1.458,0,0,0,1.406-.826V-6.557A1.419,1.419,0,0,0,82.336-7.4q-1.371,0-1.485,2.215Zm13.2,3.612A3.054,3.054,0,0,1,91.5.176a3,3,0,0,1-2.369-.91,3.826,3.826,0,0,1-.8-2.615V-9.51h2.962v6.179a1.065,1.065,0,0,0,1.187,1.222,1.548,1.548,0,0,0,1.45-.729V-9.51h2.979V0H94.131ZM103.887,0a3.344,3.344,0,0,1-.281-.853A2.754,2.754,0,0,1,101.32.176a3.374,3.374,0,0,1-2.285-.813,2.588,2.588,0,0,1-.94-2.043,2.66,2.66,0,0,1,1.143-2.338,5.821,5.821,0,0,1,3.322-.791h.914v-.5q0-1.316-1.134-1.316a.927.927,0,0,0-1.055,1.042H98.323A2.655,2.655,0,0,1,99.5-8.825a4.931,4.931,0,0,1,2.993-.86,4.323,4.323,0,0,1,2.874.888,3.086,3.086,0,0,1,1.081,2.435v4.21a4.311,4.311,0,0,0,.4,2V0Zm-1.854-1.934a1.652,1.652,0,0,0,.918-.237,1.487,1.487,0,0,0,.523-.536V-4.228h-.861q-1.547,0-1.547,1.389a.848.848,0,0,0,.272.655A.986.986,0,0,0,102.032-1.934ZM111.208,0h-2.971V-13.5h2.971Z" transform="translate(324 24080)" fill="#12263f"/>
    <path id="Trazado_737961" data-name="Trazado 737961" d="M8.235-2.391H4.008L3.27,0h-3.3L4.667-12.8h2.9L12.3,0H8.982ZM4.746-4.772H7.5L6.117-9.211ZM16.216,0H13.245V-13.5h2.971Zm5.845-2.109a1.317,1.317,0,0,0,.967-.338,1.241,1.241,0,0,0,.334-.945h2.777A3.288,3.288,0,0,1,25.018-.826a4.168,4.168,0,0,1-2.887,1,4.22,4.22,0,0,1-3.27-1.3,5.125,5.125,0,0,1-1.2-3.6v-.123A5.792,5.792,0,0,1,18.2-7.4a3.872,3.872,0,0,1,1.534-1.7A4.573,4.573,0,0,1,22.1-9.686a4.116,4.116,0,0,1,2.944,1.028,3.647,3.647,0,0,1,1.09,2.786H23.361A1.626,1.626,0,0,0,23-7a1.244,1.244,0,0,0-.967-.4q-1.151,0-1.345,1.468a10.357,10.357,0,0,0-.062,1.283,4.068,4.068,0,0,0,.343,1.986A1.187,1.187,0,0,0,22.061-2.109ZM32.748,0a3.344,3.344,0,0,1-.281-.853A2.754,2.754,0,0,1,30.182.176,3.374,3.374,0,0,1,27.9-.637a2.588,2.588,0,0,1-.94-2.043A2.66,2.66,0,0,1,28.1-5.019a5.821,5.821,0,0,1,3.322-.791h.914v-.5q0-1.316-1.134-1.316a.927.927,0,0,0-1.055,1.042H27.185a2.655,2.655,0,0,1,1.173-2.239,4.931,4.931,0,0,1,2.993-.86,4.323,4.323,0,0,1,2.874.888,3.086,3.086,0,0,1,1.081,2.435v4.21a4.311,4.311,0,0,0,.4,2V0ZM30.894-1.934a1.652,1.652,0,0,0,.918-.237,1.487,1.487,0,0,0,.523-.536V-4.228h-.861q-1.547,0-1.547,1.389a.848.848,0,0,0,.272.655A.986.986,0,0,0,30.894-1.934ZM39.665-9.51l.1,1.116a3.225,3.225,0,0,1,2.716-1.292A2.713,2.713,0,0,1,44.7-8.8a4.226,4.226,0,0,1,.76,2.672V0H42.486V-6a1.6,1.6,0,0,0-.29-1.059A1.342,1.342,0,0,0,41.142-7.4a1.413,1.413,0,0,0-1.292.686V0H36.888V-9.51Zm10.881-2.364V-9.51H52.11v2.057H50.546V-3.1a1.111,1.111,0,0,0,.193.747,1.037,1.037,0,0,0,.765.211,4.345,4.345,0,0,0,.738-.053V-.079a5.466,5.466,0,0,1-1.67.255,3.1,3.1,0,0,1-2.259-.721,2.954,2.954,0,0,1-.729-2.188v-4.72H46.371V-9.51h1.213v-2.364ZM58.632,0a3.344,3.344,0,0,1-.281-.853A2.754,2.754,0,0,1,56.065.176,3.374,3.374,0,0,1,53.78-.637a2.588,2.588,0,0,1-.94-2.043,2.66,2.66,0,0,1,1.143-2.338A5.821,5.821,0,0,1,57.3-5.81h.914v-.5q0-1.316-1.134-1.316A.927.927,0,0,0,56.03-6.587H53.068a2.655,2.655,0,0,1,1.173-2.239,4.931,4.931,0,0,1,2.993-.86,4.323,4.323,0,0,1,2.874.888,3.086,3.086,0,0,1,1.081,2.435v4.21a4.311,4.311,0,0,0,.4,2V0ZM56.777-1.934a1.652,1.652,0,0,0,.918-.237,1.487,1.487,0,0,0,.523-.536V-4.228h-.861q-1.547,0-1.547,1.389a.848.848,0,0,0,.272.655A.986.986,0,0,0,56.777-1.934Zm11.8-4.9-.976-.07a1.752,1.752,0,0,0-1.793.879V0H62.851V-9.51h2.777l.1,1.222a2.294,2.294,0,0,1,2.083-1.4,2.888,2.888,0,0,1,.826.105ZM72.773,0H69.8V-9.51h2.971ZM69.627-11.971a1.334,1.334,0,0,1,.457-1.043,1.718,1.718,0,0,1,1.187-.407,1.718,1.718,0,0,1,1.187.407,1.334,1.334,0,0,1,.457,1.043,1.334,1.334,0,0,1-.457,1.043,1.718,1.718,0,0,1-1.187.407,1.718,1.718,0,0,1-1.187-.407A1.334,1.334,0,0,1,69.627-11.971ZM77.722,0H74.751V-13.5h2.971ZM82.67,0H79.7V-13.5H82.67Zm7.181,0a3.344,3.344,0,0,1-.281-.853A2.754,2.754,0,0,1,87.284.176,3.374,3.374,0,0,1,85-.637a2.588,2.588,0,0,1-.94-2.043A2.66,2.66,0,0,1,85.2-5.019a5.821,5.821,0,0,1,3.322-.791h.914v-.5q0-1.316-1.134-1.316a.927.927,0,0,0-1.055,1.042H84.287A2.655,2.655,0,0,1,85.46-8.825a4.931,4.931,0,0,1,2.993-.86,4.323,4.323,0,0,1,2.874.888,3.086,3.086,0,0,1,1.081,2.435v4.21a4.311,4.311,0,0,0,.4,2V0ZM88-1.934a1.652,1.652,0,0,0,.918-.237,1.487,1.487,0,0,0,.523-.536V-4.228h-.861q-1.547,0-1.547,1.389a.848.848,0,0,0,.272.655A.986.986,0,0,0,88-1.934Zm5.678-2.892a5.809,5.809,0,0,1,.976-3.56,3.211,3.211,0,0,1,2.725-1.3,2.731,2.731,0,0,1,2.145,1V-13.5h2.971V0H99.826l-.149-1.02a2.8,2.8,0,0,1-2.32,1.2,3.205,3.205,0,0,1-2.689-1.3A5.993,5.993,0,0,1,93.674-4.825Zm2.962.185q0,2.531,1.477,2.531a1.458,1.458,0,0,0,1.406-.826V-6.557A1.419,1.419,0,0,0,98.13-7.4q-1.371,0-1.485,2.215Zm7.163-.2a5.613,5.613,0,0,1,.554-2.536,3.96,3.96,0,0,1,1.591-1.709,4.791,4.791,0,0,1,2.435-.6,4.373,4.373,0,0,1,3.366,1.323,5.076,5.076,0,0,1,1.23,3.6v.105a4.925,4.925,0,0,1-1.235,3.529A4.384,4.384,0,0,1,108.4.176a4.434,4.434,0,0,1-3.261-1.217,4.761,4.761,0,0,1-1.327-3.3Zm2.962.185a3.538,3.538,0,0,0,.413,1.934,1.376,1.376,0,0,0,1.222.615q1.582,0,1.617-2.435v-.3q0-2.558-1.635-2.558-1.485,0-1.608,2.206Z" transform="translate(554 24000)" fill="#12263f"/>
    <path id="Trazado_737962" data-name="Trazado 737962" d="M-40.961,0h-3.076V-12.8h3.076Zm4.808-9.51.1,1.116a3.27,3.27,0,0,1,2.716-1.292,2.407,2.407,0,0,1,2.435,1.433,3.165,3.165,0,0,1,2.795-1.433q2.892,0,2.971,3.5V0h-2.971V-6a1.813,1.813,0,0,0-.246-1.063,1.048,1.048,0,0,0-.9-.334,1.4,1.4,0,0,0-1.31.782l.009.123V0h-2.971V-5.985a1.906,1.906,0,0,0-.237-1.081,1.045,1.045,0,0,0-.905-.334,1.42,1.42,0,0,0-1.3.782V0h-2.962V-9.51Zm21.533,4.825a5.735,5.735,0,0,1-1,3.538A3.2,3.2,0,0,1-18.312.176a2.742,2.742,0,0,1-2.153-.958V3.656h-2.962V-9.51h2.769l.088.879A2.742,2.742,0,0,1-18.33-9.686a3.224,3.224,0,0,1,2.733,1.3,5.805,5.805,0,0,1,.976,3.564Zm-2.962-.185q0-2.531-1.477-2.531a1.394,1.394,0,0,0-1.406.756V-2.9a1.439,1.439,0,0,0,1.424.791q1.415,0,1.459-2.443ZM-7.958,0A3.344,3.344,0,0,1-8.24-.853,2.754,2.754,0,0,1-10.525.176,3.374,3.374,0,0,1-12.81-.637a2.588,2.588,0,0,1-.94-2.043,2.66,2.66,0,0,1,1.143-2.338A5.821,5.821,0,0,1-9.286-5.81h.914v-.5q0-1.316-1.134-1.316A.927.927,0,0,0-10.56-6.587h-2.962a2.655,2.655,0,0,1,1.173-2.239,4.931,4.931,0,0,1,2.993-.86A4.323,4.323,0,0,1-6.482-8.8,3.086,3.086,0,0,1-5.4-6.363v4.21a4.311,4.311,0,0,0,.4,2V0ZM-9.813-1.934a1.652,1.652,0,0,0,.918-.237,1.487,1.487,0,0,0,.523-.536V-4.228h-.861q-1.547,0-1.547,1.389a.848.848,0,0,0,.272.655A.986.986,0,0,0-9.813-1.934ZM.259-2.109a1.317,1.317,0,0,0,.967-.338,1.241,1.241,0,0,0,.334-.945H4.337A3.288,3.288,0,0,1,3.217-.826,4.168,4.168,0,0,1,.33.176a4.22,4.22,0,0,1-3.27-1.3,5.125,5.125,0,0,1-1.2-3.6v-.123A5.792,5.792,0,0,1-3.6-7.4a3.872,3.872,0,0,1,1.534-1.7A4.573,4.573,0,0,1,.3-9.686,4.116,4.116,0,0,1,3.248-8.657a3.647,3.647,0,0,1,1.09,2.786H1.56A1.626,1.626,0,0,0,1.2-7a1.244,1.244,0,0,0-.967-.4q-1.151,0-1.345,1.468a10.357,10.357,0,0,0-.062,1.283A4.068,4.068,0,0,0-.831-2.663,1.187,1.187,0,0,0,.259-2.109Zm8.78-9.765V-9.51H10.6v2.057H9.04V-3.1a1.111,1.111,0,0,0,.193.747A1.037,1.037,0,0,0,10-2.145a4.345,4.345,0,0,0,.738-.053V-.079a5.466,5.466,0,0,1-1.67.255A3.1,3.1,0,0,1,6.807-.545a2.954,2.954,0,0,1-.729-2.188v-4.72H4.865V-9.51H6.078v-2.364Zm2.092,7.031a5.613,5.613,0,0,1,.554-2.536,3.96,3.96,0,0,1,1.591-1.709,4.791,4.791,0,0,1,2.435-.6,4.373,4.373,0,0,1,3.366,1.323,5.076,5.076,0,0,1,1.23,3.6v.105a4.925,4.925,0,0,1-1.235,3.529A4.384,4.384,0,0,1,15.728.176a4.434,4.434,0,0,1-3.261-1.217,4.761,4.761,0,0,1-1.327-3.3Zm2.962.185a3.538,3.538,0,0,0,.413,1.934,1.376,1.376,0,0,0,1.222.615q1.582,0,1.617-2.435v-.3q0-2.558-1.635-2.558-1.485,0-1.608,2.206ZM30.7.176a4.889,4.889,0,0,1-3.542-1.305,4.507,4.507,0,0,1-1.354-3.4v-.246a5.84,5.84,0,0,1,.541-2.575,3.955,3.955,0,0,1,1.578-1.727,4.763,4.763,0,0,1,2.461-.611,4.117,4.117,0,0,1,3.164,1.244A4.887,4.887,0,0,1,34.7-4.975v1.151H28.815a2.135,2.135,0,0,0,.694,1.257,2.066,2.066,0,0,0,1.389.457,2.662,2.662,0,0,0,2.2-.984l1.354,1.6A3.784,3.784,0,0,1,32.88-.277,5.3,5.3,0,0,1,30.7.176ZM30.362-7.4q-1.3,0-1.547,1.723H31.8v-.229a1.467,1.467,0,0,0-.36-1.1A1.434,1.434,0,0,0,30.362-7.4ZM38.615-9.51l.1,1.116a3.225,3.225,0,0,1,2.716-1.292,2.713,2.713,0,0,1,2.219.888,4.226,4.226,0,0,1,.76,2.672V0H41.436V-6a1.6,1.6,0,0,0-.29-1.059A1.342,1.342,0,0,0,40.091-7.4a1.413,1.413,0,0,0-1.292.686V0H35.837V-9.51ZM-48.041,22.328a.684.684,0,0,0-.4-.606,6.016,6.016,0,0,0-1.5-.475,6.853,6.853,0,0,1-1.828-.646,3.062,3.062,0,0,1-1.1-.971,2.319,2.319,0,0,1-.378-1.31,2.628,2.628,0,0,1,1.081-2.158,4.453,4.453,0,0,1,2.83-.848,4.934,4.934,0,0,1,3.023.853,2.666,2.666,0,0,1,1.143,2.241h-2.971q0-1.143-1.2-1.143a1.194,1.194,0,0,0-.782.259.8.8,0,0,0-.316.646.737.737,0,0,0,.387.642,3.654,3.654,0,0,0,1.235.4,10.671,10.671,0,0,1,1.49.378,2.706,2.706,0,0,1,2.145,2.646,2.491,2.491,0,0,1-1.156,2.118,5.068,5.068,0,0,1-2.993.817,5.172,5.172,0,0,1-2.18-.439,3.645,3.645,0,0,1-1.494-1.2,2.707,2.707,0,0,1-.536-1.591h2.769a1.145,1.145,0,0,0,.439.962,1.808,1.808,0,0,0,1.081.3,1.422,1.422,0,0,0,.91-.246A.787.787,0,0,0-48.041,22.328Zm9.6,2.672a3.344,3.344,0,0,1-.281-.853,2.754,2.754,0,0,1-2.285,1.028,3.374,3.374,0,0,1-2.285-.813,2.588,2.588,0,0,1-.94-2.043,2.66,2.66,0,0,1,1.143-2.338,5.821,5.821,0,0,1,3.322-.791h.914v-.5q0-1.316-1.134-1.316a.927.927,0,0,0-1.055,1.042h-2.962a2.655,2.655,0,0,1,1.173-2.239,4.931,4.931,0,0,1,2.993-.86,4.323,4.323,0,0,1,2.874.888,3.086,3.086,0,0,1,1.081,2.435v4.21a4.311,4.311,0,0,0,.4,2V25ZM-40.3,23.066a1.652,1.652,0,0,0,.918-.237,1.487,1.487,0,0,0,.523-.536V20.772h-.861q-1.547,0-1.547,1.389a.848.848,0,0,0,.272.655A.986.986,0,0,0-40.3,23.066ZM-31.122,25h-2.971V11.5h2.971Zm7.488-1.028a3.054,3.054,0,0,1-2.54,1.2,3,3,0,0,1-2.369-.91,3.826,3.826,0,0,1-.8-2.615V15.49h2.962v6.179A1.065,1.065,0,0,0-25.2,22.891a1.548,1.548,0,0,0,1.45-.729V15.49h2.979V25h-2.777Zm4.113-3.8a5.809,5.809,0,0,1,.976-3.56,3.211,3.211,0,0,1,2.725-1.3,2.731,2.731,0,0,1,2.145,1V11.5h2.971V25h-2.663l-.149-1.02a2.8,2.8,0,0,1-2.32,1.2,3.205,3.205,0,0,1-2.689-1.3A5.993,5.993,0,0,1-19.521,20.175Zm2.962.185q0,2.531,1.477,2.531a1.458,1.458,0,0,0,1.406-.826V18.443a1.419,1.419,0,0,0-1.389-.844q-1.371,0-1.485,2.215Zm20.848-.044a5.735,5.735,0,0,1-1,3.538A3.2,3.2,0,0,1,.6,25.176a2.742,2.742,0,0,1-2.153-.958v4.438H-4.518V15.49h2.769l.088.879A2.742,2.742,0,0,1,.58,15.314a3.224,3.224,0,0,1,2.733,1.3,5.805,5.805,0,0,1,.976,3.564Zm-2.962-.185q0-2.531-1.477-2.531a1.394,1.394,0,0,0-1.406.756V22.1a1.439,1.439,0,0,0,1.424.791q1.415,0,1.459-2.443Zm9.932,3.841a3.054,3.054,0,0,1-2.54,1.2,3,3,0,0,1-2.369-.91,3.826,3.826,0,0,1-.8-2.615V15.49H8.508v6.179a1.065,1.065,0,0,0,1.187,1.222,1.548,1.548,0,0,0,1.45-.729V15.49h2.979V25H11.347ZM10.2,11.5h3.129L10.89,14.26l-2.417,0Zm14.37,8.824a5.8,5.8,0,0,1-.967,3.595,3.238,3.238,0,0,1-2.725,1.257,2.81,2.81,0,0,1-2.338-1.151L18.422,25H15.768V11.5h2.962v4.755a2.711,2.711,0,0,1,2.136-.94,3.239,3.239,0,0,1,2.742,1.274,5.826,5.826,0,0,1,.967,3.586ZM21.6,20.135a3.866,3.866,0,0,0-.365-1.952,1.229,1.229,0,0,0-1.121-.584,1.418,1.418,0,0,0-1.389.763v3.773a1.426,1.426,0,0,0,1.406.755,1.258,1.258,0,0,0,1.327-1.018A7.309,7.309,0,0,0,21.6,20.135ZM29,25H26.033V11.5H29Zm4.948,0H30.981V15.49h2.971ZM30.806,13.029a1.334,1.334,0,0,1,.457-1.043,1.934,1.934,0,0,1,2.373,0,1.42,1.42,0,0,1,0,2.087,1.934,1.934,0,0,1-2.373,0A1.334,1.334,0,0,1,30.806,13.029ZM39.8,22.891a1.317,1.317,0,0,0,.967-.338,1.241,1.241,0,0,0,.334-.945h2.777a3.288,3.288,0,0,1-1.121,2.566,4.168,4.168,0,0,1-2.887,1,4.22,4.22,0,0,1-3.27-1.3,5.125,5.125,0,0,1-1.2-3.6v-.123a5.792,5.792,0,0,1,.532-2.544,3.872,3.872,0,0,1,1.534-1.7,4.573,4.573,0,0,1,2.373-.593,4.116,4.116,0,0,1,2.944,1.028,3.647,3.647,0,0,1,1.09,2.786H41.1A1.626,1.626,0,0,0,40.737,18a1.244,1.244,0,0,0-.967-.4q-1.151,0-1.345,1.468a10.357,10.357,0,0,0-.062,1.283,4.068,4.068,0,0,0,.343,1.986A1.187,1.187,0,0,0,39.8,22.891ZM50.484,25a3.344,3.344,0,0,1-.281-.853,2.754,2.754,0,0,1-2.285,1.028,3.374,3.374,0,0,1-2.285-.813,2.588,2.588,0,0,1-.94-2.043,2.66,2.66,0,0,1,1.143-2.338,5.821,5.821,0,0,1,3.322-.791h.914v-.5q0-1.316-1.134-1.316a.927.927,0,0,0-1.055,1.042H44.921a2.655,2.655,0,0,1,1.173-2.239,4.931,4.931,0,0,1,2.993-.86,4.323,4.323,0,0,1,2.874.888,3.086,3.086,0,0,1,1.081,2.435v4.21a4.311,4.311,0,0,0,.4,2V25ZM48.63,23.066a1.652,1.652,0,0,0,.918-.237,1.487,1.487,0,0,0,.523-.536V20.772H49.21q-1.547,0-1.547,1.389a.848.848,0,0,0,.272.655A.986.986,0,0,0,48.63,23.066Z" transform="translate(842 23920)" fill="#12263f"/>
    <path id="Trazado_737963" data-name="Trazado 737963" d="M-40.961,0h-3.076V-12.8h3.076Zm4.808-9.51.1,1.116a3.27,3.27,0,0,1,2.716-1.292,2.407,2.407,0,0,1,2.435,1.433,3.165,3.165,0,0,1,2.795-1.433q2.892,0,2.971,3.5V0h-2.971V-6a1.813,1.813,0,0,0-.246-1.063,1.048,1.048,0,0,0-.9-.334,1.4,1.4,0,0,0-1.31.782l.009.123V0h-2.971V-5.985a1.906,1.906,0,0,0-.237-1.081,1.045,1.045,0,0,0-.905-.334,1.42,1.42,0,0,0-1.3.782V0h-2.962V-9.51Zm21.533,4.825a5.735,5.735,0,0,1-1,3.538A3.2,3.2,0,0,1-18.312.176a2.742,2.742,0,0,1-2.153-.958V3.656h-2.962V-9.51h2.769l.088.879A2.742,2.742,0,0,1-18.33-9.686a3.224,3.224,0,0,1,2.733,1.3,5.805,5.805,0,0,1,.976,3.564Zm-2.962-.185q0-2.531-1.477-2.531a1.394,1.394,0,0,0-1.406.756V-2.9a1.439,1.439,0,0,0,1.424.791q1.415,0,1.459-2.443ZM-7.958,0A3.344,3.344,0,0,1-8.24-.853,2.754,2.754,0,0,1-10.525.176,3.374,3.374,0,0,1-12.81-.637a2.588,2.588,0,0,1-.94-2.043,2.66,2.66,0,0,1,1.143-2.338A5.821,5.821,0,0,1-9.286-5.81h.914v-.5q0-1.316-1.134-1.316A.927.927,0,0,0-10.56-6.587h-2.962a2.655,2.655,0,0,1,1.173-2.239,4.931,4.931,0,0,1,2.993-.86A4.323,4.323,0,0,1-6.482-8.8,3.086,3.086,0,0,1-5.4-6.363v4.21a4.311,4.311,0,0,0,.4,2V0ZM-9.813-1.934a1.652,1.652,0,0,0,.918-.237,1.487,1.487,0,0,0,.523-.536V-4.228h-.861q-1.547,0-1.547,1.389a.848.848,0,0,0,.272.655A.986.986,0,0,0-9.813-1.934ZM.259-2.109a1.317,1.317,0,0,0,.967-.338,1.241,1.241,0,0,0,.334-.945H4.337A3.288,3.288,0,0,1,3.217-.826,4.168,4.168,0,0,1,.33.176a4.22,4.22,0,0,1-3.27-1.3,5.125,5.125,0,0,1-1.2-3.6v-.123A5.792,5.792,0,0,1-3.6-7.4a3.872,3.872,0,0,1,1.534-1.7A4.573,4.573,0,0,1,.3-9.686,4.116,4.116,0,0,1,3.248-8.657a3.647,3.647,0,0,1,1.09,2.786H1.56A1.626,1.626,0,0,0,1.2-7a1.244,1.244,0,0,0-.967-.4q-1.151,0-1.345,1.468a10.357,10.357,0,0,0-.062,1.283A4.068,4.068,0,0,0-.831-2.663,1.187,1.187,0,0,0,.259-2.109Zm8.78-9.765V-9.51H10.6v2.057H9.04V-3.1a1.111,1.111,0,0,0,.193.747A1.037,1.037,0,0,0,10-2.145a4.345,4.345,0,0,0,.738-.053V-.079a5.466,5.466,0,0,1-1.67.255A3.1,3.1,0,0,1,6.807-.545a2.954,2.954,0,0,1-.729-2.188v-4.72H4.865V-9.51H6.078v-2.364Zm2.092,7.031a5.613,5.613,0,0,1,.554-2.536,3.96,3.96,0,0,1,1.591-1.709,4.791,4.791,0,0,1,2.435-.6,4.373,4.373,0,0,1,3.366,1.323,5.076,5.076,0,0,1,1.23,3.6v.105a4.925,4.925,0,0,1-1.235,3.529A4.384,4.384,0,0,1,15.728.176a4.434,4.434,0,0,1-3.261-1.217,4.761,4.761,0,0,1-1.327-3.3Zm2.962.185a3.538,3.538,0,0,0,.413,1.934,1.376,1.376,0,0,0,1.222.615q1.582,0,1.617-2.435v-.3q0-2.558-1.635-2.558-1.485,0-1.608,2.206ZM30.7.176a4.889,4.889,0,0,1-3.542-1.305,4.507,4.507,0,0,1-1.354-3.4v-.246a5.84,5.84,0,0,1,.541-2.575,3.955,3.955,0,0,1,1.578-1.727,4.763,4.763,0,0,1,2.461-.611,4.117,4.117,0,0,1,3.164,1.244A4.887,4.887,0,0,1,34.7-4.975v1.151H28.815a2.135,2.135,0,0,0,.694,1.257,2.066,2.066,0,0,0,1.389.457,2.662,2.662,0,0,0,2.2-.984l1.354,1.6A3.784,3.784,0,0,1,32.88-.277,5.3,5.3,0,0,1,30.7.176ZM30.362-7.4q-1.3,0-1.547,1.723H31.8v-.229a1.467,1.467,0,0,0-.36-1.1A1.434,1.434,0,0,0,30.362-7.4ZM38.615-9.51l.1,1.116a3.225,3.225,0,0,1,2.716-1.292,2.713,2.713,0,0,1,2.219.888,4.226,4.226,0,0,1,.76,2.672V0H41.436V-6a1.6,1.6,0,0,0-.29-1.059A1.342,1.342,0,0,0,40.091-7.4a1.413,1.413,0,0,0-1.292.686V0H35.837V-9.51ZM-87.236,25V17.547h-1.38V15.49h1.38v-.756a3.286,3.286,0,0,1,.958-2.522,3.785,3.785,0,0,1,2.689-.9A5.89,5.89,0,0,1-82.2,11.5l.009,2.18a2.706,2.706,0,0,0-.729-.079q-1.345,0-1.345,1.16v.729h1.854v2.057h-1.854V25ZM-75.7,23.972a3.054,3.054,0,0,1-2.54,1.2,3,3,0,0,1-2.369-.91,3.826,3.826,0,0,1-.8-2.615V15.49h2.962v6.179a1.065,1.065,0,0,0,1.187,1.222,1.548,1.548,0,0,0,1.45-.729V15.49h2.979V25h-2.777ZM-68.5,15.49l.1,1.116a3.225,3.225,0,0,1,2.716-1.292,2.713,2.713,0,0,1,2.219.888,4.226,4.226,0,0,1,.76,2.672V25h-2.971V19a1.6,1.6,0,0,0-.29-1.059,1.342,1.342,0,0,0-1.055-.338,1.413,1.413,0,0,0-1.292.686V25h-2.962V15.49Zm11.452,7.4a1.317,1.317,0,0,0,.967-.338,1.241,1.241,0,0,0,.334-.945h2.777a3.288,3.288,0,0,1-1.121,2.566,4.168,4.168,0,0,1-2.887,1,4.22,4.22,0,0,1-3.27-1.3,5.125,5.125,0,0,1-1.2-3.6v-.123a5.792,5.792,0,0,1,.532-2.544,3.872,3.872,0,0,1,1.534-1.7A4.573,4.573,0,0,1-57,15.314a4.116,4.116,0,0,1,2.944,1.028,3.647,3.647,0,0,1,1.09,2.786h-2.777A1.626,1.626,0,0,0-56.1,18a1.244,1.244,0,0,0-.967-.4q-1.151,0-1.345,1.468a10.357,10.357,0,0,0-.062,1.283,4.068,4.068,0,0,0,.343,1.986A1.187,1.187,0,0,0-57.045,22.891ZM-48.59,25h-2.971V15.49h2.971Zm-3.146-11.971a1.334,1.334,0,0,1,.457-1.043,1.718,1.718,0,0,1,1.187-.407,1.718,1.718,0,0,1,1.187.407,1.334,1.334,0,0,1,.457,1.043,1.334,1.334,0,0,1-.457,1.043,1.718,1.718,0,0,1-1.187.407,1.718,1.718,0,0,1-1.187-.407A1.334,1.334,0,0,1-51.737,13.029Zm4.6,7.128a5.613,5.613,0,0,1,.554-2.536A3.96,3.96,0,0,1-45,15.912a4.791,4.791,0,0,1,2.435-.6,4.373,4.373,0,0,1,3.366,1.323,5.076,5.076,0,0,1,1.23,3.6v.105A4.925,4.925,0,0,1-39.2,23.871a4.384,4.384,0,0,1-3.344,1.305A4.434,4.434,0,0,1-45.8,23.958a4.761,4.761,0,0,1-1.327-3.3Zm2.962.185a3.538,3.538,0,0,0,.413,1.934,1.376,1.376,0,0,0,1.222.615q1.582,0,1.617-2.435v-.3q0-2.558-1.635-2.558-1.485,0-1.608,2.206Zm10.239-4.852.1,1.116a3.225,3.225,0,0,1,2.716-1.292,2.713,2.713,0,0,1,2.219.888,4.226,4.226,0,0,1,.76,2.672V25h-2.971V19a1.6,1.6,0,0,0-.29-1.059,1.342,1.342,0,0,0-1.055-.338,1.413,1.413,0,0,0-1.292.686V25h-2.962V15.49ZM-21.151,25a3.344,3.344,0,0,1-.281-.853,2.754,2.754,0,0,1-2.285,1.028A3.374,3.374,0,0,1-26,24.363a2.588,2.588,0,0,1-.94-2.043A2.66,2.66,0,0,1-25.8,19.981a5.821,5.821,0,0,1,3.322-.791h.914v-.5q0-1.316-1.134-1.316a.927.927,0,0,0-1.055,1.042h-2.962a2.655,2.655,0,0,1,1.173-2.239,4.931,4.931,0,0,1,2.993-.86,4.323,4.323,0,0,1,2.874.888,3.086,3.086,0,0,1,1.081,2.435v4.21a4.311,4.311,0,0,0,.4,2V25Zm-1.854-1.934a1.652,1.652,0,0,0,.918-.237,1.487,1.487,0,0,0,.523-.536V20.772h-.861q-1.547,0-1.547,1.389a.848.848,0,0,0,.272.655A.986.986,0,0,0-23.005,23.066Zm8.851-7.576.1,1.116a3.27,3.27,0,0,1,2.716-1.292,2.407,2.407,0,0,1,2.435,1.433,3.165,3.165,0,0,1,2.795-1.433q2.892,0,2.971,3.5V25H-6.113V19a1.813,1.813,0,0,0-.246-1.063,1.048,1.048,0,0,0-.9-.334,1.4,1.4,0,0,0-1.31.782l.009.123V25h-2.971V19.015a1.906,1.906,0,0,0-.237-1.081,1.045,1.045,0,0,0-.905-.334,1.42,1.42,0,0,0-1.3.782V25h-2.962V15.49ZM1.674,25H-1.3V15.49H1.674ZM-1.472,13.029a1.334,1.334,0,0,1,.457-1.043,1.718,1.718,0,0,1,1.187-.407,1.718,1.718,0,0,1,1.187.407,1.42,1.42,0,0,1,0,2.087,1.718,1.718,0,0,1-1.187.407,1.718,1.718,0,0,1-1.187-.407A1.334,1.334,0,0,1-1.472,13.029ZM8.1,25.176a4.889,4.889,0,0,1-3.542-1.305,4.507,4.507,0,0,1-1.354-3.4v-.246a5.84,5.84,0,0,1,.541-2.575,3.955,3.955,0,0,1,1.578-1.727,4.763,4.763,0,0,1,2.461-.611,4.117,4.117,0,0,1,3.164,1.244,4.887,4.887,0,0,1,1.16,3.467v1.151H6.218a2.135,2.135,0,0,0,.694,1.257,2.066,2.066,0,0,0,1.389.457,2.662,2.662,0,0,0,2.2-.984l1.354,1.6a3.784,3.784,0,0,1-1.569,1.217A5.3,5.3,0,0,1,8.1,25.176ZM7.765,17.6q-1.3,0-1.547,1.723H9.207v-.229a1.467,1.467,0,0,0-.36-1.1A1.434,1.434,0,0,0,7.765,17.6Zm8.253-2.109.1,1.116a3.225,3.225,0,0,1,2.716-1.292,2.713,2.713,0,0,1,2.219.888,4.226,4.226,0,0,1,.76,2.672V25H18.839V19a1.6,1.6,0,0,0-.29-1.059,1.342,1.342,0,0,0-1.055-.338,1.413,1.413,0,0,0-1.292.686V25H13.241V15.49ZM26.9,13.126V15.49h1.564v2.057H26.9V21.9a1.111,1.111,0,0,0,.193.747,1.037,1.037,0,0,0,.765.211A4.345,4.345,0,0,0,28.6,22.8v2.118a5.466,5.466,0,0,1-1.67.255,3.1,3.1,0,0,1-2.259-.721,2.954,2.954,0,0,1-.729-2.188v-4.72H22.724V15.49h1.213V13.126Zm2.092,7.031a5.613,5.613,0,0,1,.554-2.536,3.96,3.96,0,0,1,1.591-1.709,4.791,4.791,0,0,1,2.435-.6,4.373,4.373,0,0,1,3.366,1.323,5.076,5.076,0,0,1,1.23,3.6v.105a4.925,4.925,0,0,1-1.235,3.529,4.384,4.384,0,0,1-3.344,1.305,4.434,4.434,0,0,1-3.261-1.217A4.761,4.761,0,0,1,29,20.658Zm2.962.185a3.538,3.538,0,0,0,.413,1.934,1.376,1.376,0,0,0,1.222.615q1.582,0,1.617-2.435v-.3q0-2.558-1.635-2.558-1.485,0-1.608,2.206Zm17.754-2.171-.976-.07a1.752,1.752,0,0,0-1.793.879V25H43.976V15.49h2.777l.1,1.222a2.294,2.294,0,0,1,2.083-1.4,2.888,2.888,0,0,1,.826.105Zm5.5,7a4.889,4.889,0,0,1-3.542-1.305,4.507,4.507,0,0,1-1.354-3.4v-.246a5.84,5.84,0,0,1,.541-2.575,3.955,3.955,0,0,1,1.578-1.727,4.763,4.763,0,0,1,2.461-.611,4.117,4.117,0,0,1,3.164,1.244,4.887,4.887,0,0,1,1.16,3.467v1.151H53.328a2.135,2.135,0,0,0,.694,1.257,2.066,2.066,0,0,0,1.389.457,2.662,2.662,0,0,0,2.2-.984l1.354,1.6a3.784,3.784,0,0,1-1.569,1.217A5.3,5.3,0,0,1,55.208,25.176ZM54.875,17.6q-1.3,0-1.547,1.723h2.988v-.229a1.467,1.467,0,0,0-.36-1.1A1.434,1.434,0,0,0,54.875,17.6Zm5.159,2.575a5.809,5.809,0,0,1,.976-3.56,3.211,3.211,0,0,1,2.725-1.3,2.731,2.731,0,0,1,2.145,1V11.5h2.971V25H66.186l-.149-1.02a2.8,2.8,0,0,1-2.32,1.2,3.205,3.205,0,0,1-2.689-1.3A5.993,5.993,0,0,1,60.034,20.175ZM63,20.359q0,2.531,1.477,2.531a1.458,1.458,0,0,0,1.406-.826V18.443A1.419,1.419,0,0,0,64.49,17.6q-1.371,0-1.485,2.215Zm12.138,4.816a4.889,4.889,0,0,1-3.542-1.305,4.507,4.507,0,0,1-1.354-3.4v-.246a5.84,5.84,0,0,1,.541-2.575,3.955,3.955,0,0,1,1.578-1.727,4.763,4.763,0,0,1,2.461-.611,4.117,4.117,0,0,1,3.164,1.244,4.887,4.887,0,0,1,1.16,3.467v1.151H73.252a2.135,2.135,0,0,0,.694,1.257,2.066,2.066,0,0,0,1.389.457,2.662,2.662,0,0,0,2.2-.984l1.354,1.6a3.784,3.784,0,0,1-1.569,1.217A5.3,5.3,0,0,1,75.133,25.176ZM74.8,17.6q-1.3,0-1.547,1.723h2.988v-.229a1.467,1.467,0,0,0-.36-1.1A1.434,1.434,0,0,0,74.8,17.6Zm10.512,4.729a.684.684,0,0,0-.4-.606,6.016,6.016,0,0,0-1.5-.475,6.853,6.853,0,0,1-1.828-.646,3.062,3.062,0,0,1-1.1-.971,2.319,2.319,0,0,1-.378-1.31,2.628,2.628,0,0,1,1.081-2.158,4.453,4.453,0,0,1,2.83-.848,4.934,4.934,0,0,1,3.023.853,2.666,2.666,0,0,1,1.143,2.241H85.214q0-1.143-1.2-1.143a1.194,1.194,0,0,0-.782.259.8.8,0,0,0-.316.646.737.737,0,0,0,.387.642,3.654,3.654,0,0,0,1.235.4,10.671,10.671,0,0,1,1.49.378,2.706,2.706,0,0,1,2.145,2.646,2.491,2.491,0,0,1-1.156,2.118,5.068,5.068,0,0,1-2.993.817,5.172,5.172,0,0,1-2.18-.439,3.645,3.645,0,0,1-1.494-1.2,2.707,2.707,0,0,1-.536-1.591h2.769a1.145,1.145,0,0,0,.439.962,1.808,1.808,0,0,0,1.081.3,1.422,1.422,0,0,0,.91-.246A.787.787,0,0,0,85.311,22.328Z" transform="translate(842 24016)" fill="#12263f"/>
    <path id="Trazado_737964" data-name="Trazado 737964" d="M-49.939-4.333a4.673,4.673,0,0,1-.721,2.36A4.35,4.35,0,0,1-52.51-.387a6.3,6.3,0,0,1-2.72.563A5.025,5.025,0,0,1-59.2-1.468a6.786,6.786,0,0,1-1.45-4.641v-.633A7.746,7.746,0,0,1-60-10.033a4.961,4.961,0,0,1,1.885-2.18,5.26,5.26,0,0,1,2.848-.769,5.516,5.516,0,0,1,3.744,1.226,4.844,4.844,0,0,1,1.608,3.379h-3.076a2.292,2.292,0,0,0-.589-1.679,2.422,2.422,0,0,0-1.687-.51,1.843,1.843,0,0,0-1.687.861,5.536,5.536,0,0,0-.562,2.751v.905A6.126,6.126,0,0,0-57-3.12a1.882,1.882,0,0,0,1.771.879,2.369,2.369,0,0,0,1.626-.5,2.126,2.126,0,0,0,.6-1.591Zm.949-.51a5.613,5.613,0,0,1,.554-2.536,3.96,3.96,0,0,1,1.591-1.709,4.791,4.791,0,0,1,2.435-.6,4.373,4.373,0,0,1,3.366,1.323,5.076,5.076,0,0,1,1.23,3.6v.105a4.925,4.925,0,0,1-1.235,3.529A4.384,4.384,0,0,1-44.394.176a4.434,4.434,0,0,1-3.261-1.217,4.761,4.761,0,0,1-1.327-3.3Zm2.962.185a3.538,3.538,0,0,0,.413,1.934,1.376,1.376,0,0,0,1.222.615q1.582,0,1.617-2.435v-.3q0-2.558-1.635-2.558-1.485,0-1.608,2.206ZM-35.789-9.51l.1,1.116a3.225,3.225,0,0,1,2.716-1.292,2.713,2.713,0,0,1,2.219.888A4.226,4.226,0,0,1-30-6.126V0h-2.971V-6a1.6,1.6,0,0,0-.29-1.059A1.342,1.342,0,0,0-34.312-7.4a1.413,1.413,0,0,0-1.292.686V0h-2.962V-9.51Zm10.881-2.364V-9.51h1.564v2.057h-1.564V-3.1a1.111,1.111,0,0,0,.193.747,1.037,1.037,0,0,0,.765.211,4.345,4.345,0,0,0,.738-.053V-.079a5.466,5.466,0,0,1-1.67.255,3.1,3.1,0,0,1-2.259-.721,2.954,2.954,0,0,1-.729-2.188v-4.72h-1.213V-9.51h1.213v-2.364ZM-16.822,0A3.344,3.344,0,0,1-17.1-.853,2.754,2.754,0,0,1-19.389.176a3.374,3.374,0,0,1-2.285-.813,2.588,2.588,0,0,1-.94-2.043,2.66,2.66,0,0,1,1.143-2.338,5.821,5.821,0,0,1,3.322-.791h.914v-.5q0-1.316-1.134-1.316a.927.927,0,0,0-1.055,1.042h-2.962a2.655,2.655,0,0,1,1.173-2.239,4.931,4.931,0,0,1,2.993-.86,4.323,4.323,0,0,1,2.874.888,3.086,3.086,0,0,1,1.081,2.435v4.21a4.311,4.311,0,0,0,.4,2V0Zm-1.854-1.934a1.652,1.652,0,0,0,.918-.237,1.487,1.487,0,0,0,.523-.536V-4.228H-18.1q-1.547,0-1.547,1.389a.848.848,0,0,0,.272.655A.986.986,0,0,0-18.677-1.934ZM-9.826-9.51l.1,1.116A3.27,3.27,0,0,1-7.014-9.686,2.407,2.407,0,0,1-4.579-8.253,3.165,3.165,0,0,1-1.784-9.686q2.892,0,2.971,3.5V0H-1.784V-6A1.813,1.813,0,0,0-2.03-7.066a1.048,1.048,0,0,0-.9-.334,1.4,1.4,0,0,0-1.31.782l.009.123V0H-7.2V-5.985a1.906,1.906,0,0,0-.237-1.081A1.045,1.045,0,0,0-8.341-7.4a1.42,1.42,0,0,0-1.3.782V0H-12.6V-9.51ZM6,0H3.032V-9.51H6ZM2.856-11.971a1.334,1.334,0,0,1,.457-1.043A1.718,1.718,0,0,1,4.5-13.421a1.718,1.718,0,0,1,1.187.407,1.334,1.334,0,0,1,.457,1.043,1.334,1.334,0,0,1-.457,1.043,1.718,1.718,0,0,1-1.187.407,1.718,1.718,0,0,1-1.187-.407A1.334,1.334,0,0,1,2.856-11.971Zm7.69,2.461.1,1.116a3.225,3.225,0,0,1,2.716-1.292,2.713,2.713,0,0,1,2.219.888,4.226,4.226,0,0,1,.76,2.672V0H13.368V-6a1.6,1.6,0,0,0-.29-1.059A1.342,1.342,0,0,0,12.023-7.4a1.413,1.413,0,0,0-1.292.686V0H7.77V-9.51ZM23.335,0a3.344,3.344,0,0,1-.281-.853A2.754,2.754,0,0,1,20.769.176a3.374,3.374,0,0,1-2.285-.813,2.588,2.588,0,0,1-.94-2.043,2.66,2.66,0,0,1,1.143-2.338,5.821,5.821,0,0,1,3.322-.791h.914v-.5q0-1.316-1.134-1.316a.927.927,0,0,0-1.055,1.042H17.771a2.655,2.655,0,0,1,1.173-2.239,4.931,4.931,0,0,1,2.993-.86,4.323,4.323,0,0,1,2.874.888,3.086,3.086,0,0,1,1.081,2.435v4.21a4.311,4.311,0,0,0,.4,2V0ZM21.48-1.934a1.652,1.652,0,0,0,.918-.237,1.487,1.487,0,0,0,.523-.536V-4.228h-.861q-1.547,0-1.547,1.389a.848.848,0,0,0,.272.655A.986.986,0,0,0,21.48-1.934Zm10.072-.176a1.317,1.317,0,0,0,.967-.338,1.241,1.241,0,0,0,.334-.945h2.777A3.288,3.288,0,0,1,34.51-.826a4.168,4.168,0,0,1-2.887,1,4.22,4.22,0,0,1-3.27-1.3,5.125,5.125,0,0,1-1.2-3.6v-.123A5.792,5.792,0,0,1,27.69-7.4a3.872,3.872,0,0,1,1.534-1.7A4.573,4.573,0,0,1,31.6-9.686a4.116,4.116,0,0,1,2.944,1.028,3.647,3.647,0,0,1,1.09,2.786H32.854A1.626,1.626,0,0,0,32.493-7a1.244,1.244,0,0,0-.967-.4q-1.151,0-1.345,1.468a10.357,10.357,0,0,0-.062,1.283,4.068,4.068,0,0,0,.343,1.986A1.187,1.187,0,0,0,31.553-2.109ZM40.008,0H37.037V-9.51h2.971ZM36.861-11.971a1.334,1.334,0,0,1,.457-1.043,1.718,1.718,0,0,1,1.187-.407,1.718,1.718,0,0,1,1.187.407,1.334,1.334,0,0,1,.457,1.043,1.334,1.334,0,0,1-.457,1.043,1.718,1.718,0,0,1-1.187.407,1.718,1.718,0,0,1-1.187-.407A1.334,1.334,0,0,1,36.861-11.971Zm4.6,7.128a5.613,5.613,0,0,1,.554-2.536A3.96,3.96,0,0,1,43.6-9.088a4.791,4.791,0,0,1,2.435-.6A4.373,4.373,0,0,1,49.4-8.363a5.076,5.076,0,0,1,1.23,3.6v.105A4.925,4.925,0,0,1,49.4-1.129,4.384,4.384,0,0,1,46.055.176a4.434,4.434,0,0,1-3.261-1.217,4.761,4.761,0,0,1-1.327-3.3Zm2.962.185a3.538,3.538,0,0,0,.413,1.934,1.376,1.376,0,0,0,1.222.615q1.582,0,1.617-2.435v-.3q0-2.558-1.635-2.558-1.485,0-1.608,2.206ZM46.441-13.5H49.57l-2.443,2.76-2.417,0Zm8.218,3.99.1,1.116a3.225,3.225,0,0,1,2.716-1.292,2.713,2.713,0,0,1,2.219.888,4.226,4.226,0,0,1,.76,2.672V0H57.48V-6a1.6,1.6,0,0,0-.29-1.059A1.342,1.342,0,0,0,56.136-7.4a1.413,1.413,0,0,0-1.292.686V0H51.882V-9.51ZM-61.787,20.175a5.809,5.809,0,0,1,.976-3.56,3.211,3.211,0,0,1,2.725-1.3,2.731,2.731,0,0,1,2.145,1V11.5h2.971V25h-2.663l-.149-1.02a2.8,2.8,0,0,1-2.32,1.2,3.205,3.205,0,0,1-2.689-1.3A5.993,5.993,0,0,1-61.787,20.175Zm2.962.185q0,2.531,1.477,2.531a1.458,1.458,0,0,0,1.406-.826V18.443a1.419,1.419,0,0,0-1.389-.844q-1.371,0-1.485,2.215Zm12.138,4.816a4.889,4.889,0,0,1-3.542-1.305,4.507,4.507,0,0,1-1.354-3.4v-.246a5.84,5.84,0,0,1,.541-2.575,3.955,3.955,0,0,1,1.578-1.727A4.763,4.763,0,0,1-47,15.314a4.117,4.117,0,0,1,3.164,1.244,4.887,4.887,0,0,1,1.16,3.467v1.151h-5.889a2.135,2.135,0,0,0,.694,1.257,2.066,2.066,0,0,0,1.389.457,2.662,2.662,0,0,0,2.2-.984l1.354,1.6A3.784,3.784,0,0,1-44.5,24.723,5.3,5.3,0,0,1-46.687,25.176Zm-.334-7.576q-1.3,0-1.547,1.723h2.988v-.229a1.467,1.467,0,0,0-.36-1.1A1.434,1.434,0,0,0-47.021,17.6Zm13.14,7.4h-2.971V11.5h2.971Zm1.45-4.843a5.613,5.613,0,0,1,.554-2.536,3.96,3.96,0,0,1,1.591-1.709,4.791,4.791,0,0,1,2.435-.6,4.373,4.373,0,0,1,3.366,1.323,5.076,5.076,0,0,1,1.23,3.6v.105a4.925,4.925,0,0,1-1.235,3.529,4.384,4.384,0,0,1-3.344,1.305A4.434,4.434,0,0,1-31.1,23.958a4.761,4.761,0,0,1-1.327-3.3Zm2.962.185a3.538,3.538,0,0,0,.413,1.934,1.376,1.376,0,0,0,1.222.615q1.582,0,1.617-2.435v-.3q0-2.558-1.635-2.558-1.485,0-1.608,2.206Zm12.5,1.986a.684.684,0,0,0-.4-.606,6.016,6.016,0,0,0-1.5-.475A6.853,6.853,0,0,1-20.7,20.6a3.062,3.062,0,0,1-1.1-.971,2.319,2.319,0,0,1-.378-1.31,2.628,2.628,0,0,1,1.081-2.158,4.453,4.453,0,0,1,2.83-.848,4.934,4.934,0,0,1,3.023.853A2.666,2.666,0,0,1-14.1,18.408h-2.971q0-1.143-1.2-1.143a1.194,1.194,0,0,0-.782.259.8.8,0,0,0-.316.646.737.737,0,0,0,.387.642,3.654,3.654,0,0,0,1.235.4,10.671,10.671,0,0,1,1.49.378,2.706,2.706,0,0,1,2.145,2.646,2.491,2.491,0,0,1-1.156,2.118,5.068,5.068,0,0,1-2.993.817,5.172,5.172,0,0,1-2.18-.439,3.645,3.645,0,0,1-1.494-1.2,2.707,2.707,0,0,1-.536-1.591h2.769a1.145,1.145,0,0,0,.439.962,1.808,1.808,0,0,0,1.081.3,1.422,1.422,0,0,0,.91-.246A.787.787,0,0,0-16.972,22.328ZM-2.5,18.171l-.976-.07a1.752,1.752,0,0,0-1.793.879V25H-8.227V15.49h2.777l.1,1.222a2.294,2.294,0,0,1,2.083-1.4,2.888,2.888,0,0,1,.826.105Zm5.5,7A4.889,4.889,0,0,1-.536,23.871a4.507,4.507,0,0,1-1.354-3.4v-.246a5.84,5.84,0,0,1,.541-2.575A3.955,3.955,0,0,1,.229,15.925a4.763,4.763,0,0,1,2.461-.611,4.117,4.117,0,0,1,3.164,1.244,4.887,4.887,0,0,1,1.16,3.467v1.151H1.125a2.135,2.135,0,0,0,.694,1.257,2.066,2.066,0,0,0,1.389.457,2.662,2.662,0,0,0,2.2-.984l1.354,1.6A3.784,3.784,0,0,1,5.19,24.723,5.3,5.3,0,0,1,3.006,25.176ZM2.672,17.6q-1.3,0-1.547,1.723H4.113v-.229a1.467,1.467,0,0,0-.36-1.1A1.434,1.434,0,0,0,2.672,17.6Zm9.554,5.291a1.317,1.317,0,0,0,.967-.338,1.241,1.241,0,0,0,.334-.945H16.3a3.288,3.288,0,0,1-1.121,2.566,4.168,4.168,0,0,1-2.887,1,4.22,4.22,0,0,1-3.27-1.3,5.125,5.125,0,0,1-1.2-3.6v-.123A5.792,5.792,0,0,1,8.363,17.6a3.872,3.872,0,0,1,1.534-1.7,4.573,4.573,0,0,1,2.373-.593,4.116,4.116,0,0,1,2.944,1.028,3.647,3.647,0,0,1,1.09,2.786H13.526A1.626,1.626,0,0,0,13.166,18a1.244,1.244,0,0,0-.967-.4q-1.151,0-1.345,1.468a10.357,10.357,0,0,0-.062,1.283,4.068,4.068,0,0,0,.343,1.986A1.187,1.187,0,0,0,12.226,22.891Zm11,1.081a3.054,3.054,0,0,1-2.54,1.2,3,3,0,0,1-2.369-.91,3.826,3.826,0,0,1-.8-2.615V15.49H20.47v6.179a1.065,1.065,0,0,0,1.187,1.222,1.548,1.548,0,0,0,1.45-.729V15.49h2.979V25H23.309Zm10.239-5.8-.976-.07a1.752,1.752,0,0,0-1.793.879V25H27.729V15.49h2.777l.1,1.222a2.294,2.294,0,0,1,2.083-1.4,2.888,2.888,0,0,1,.826.105Zm6.047,4.157a.684.684,0,0,0-.4-.606,6.016,6.016,0,0,0-1.5-.475A6.853,6.853,0,0,1,35.78,20.6a3.062,3.062,0,0,1-1.1-.971,2.319,2.319,0,0,1-.378-1.31,2.628,2.628,0,0,1,1.081-2.158,4.453,4.453,0,0,1,2.83-.848,4.934,4.934,0,0,1,3.023.853,2.666,2.666,0,0,1,1.143,2.241H39.41q0-1.143-1.2-1.143a1.194,1.194,0,0,0-.782.259.8.8,0,0,0-.316.646.737.737,0,0,0,.387.642,3.654,3.654,0,0,0,1.235.4,10.671,10.671,0,0,1,1.49.378,2.706,2.706,0,0,1,2.145,2.646,2.491,2.491,0,0,1-1.156,2.118,5.068,5.068,0,0,1-2.993.817,5.172,5.172,0,0,1-2.18-.439,3.645,3.645,0,0,1-1.494-1.2A2.707,2.707,0,0,1,34,21.95h2.769a1.145,1.145,0,0,0,.439.962,1.808,1.808,0,0,0,1.081.3,1.422,1.422,0,0,0,.91-.246A.787.787,0,0,0,39.507,22.328Zm3.867-2.171a5.613,5.613,0,0,1,.554-2.536,3.96,3.96,0,0,1,1.591-1.709,4.791,4.791,0,0,1,2.435-.6,4.373,4.373,0,0,1,3.366,1.323,5.076,5.076,0,0,1,1.23,3.6v.105a4.925,4.925,0,0,1-1.235,3.529,4.384,4.384,0,0,1-3.344,1.305,4.434,4.434,0,0,1-3.261-1.217,4.761,4.761,0,0,1-1.327-3.3Zm2.962.185a3.538,3.538,0,0,0,.413,1.934,1.376,1.376,0,0,0,1.222.615q1.582,0,1.617-2.435v-.3q0-2.558-1.635-2.558-1.485,0-1.608,2.206Zm12.5,1.986a.684.684,0,0,0-.4-.606,6.016,6.016,0,0,0-1.5-.475,6.853,6.853,0,0,1-1.828-.646,3.062,3.062,0,0,1-1.1-.971,2.319,2.319,0,0,1-.378-1.31,2.628,2.628,0,0,1,1.081-2.158,4.453,4.453,0,0,1,2.83-.848,4.934,4.934,0,0,1,3.023.853,2.666,2.666,0,0,1,1.143,2.241H58.737q0-1.143-1.2-1.143a1.194,1.194,0,0,0-.782.259.8.8,0,0,0-.316.646.737.737,0,0,0,.387.642,3.654,3.654,0,0,0,1.235.4,10.671,10.671,0,0,1,1.49.378A2.706,2.706,0,0,1,61.69,22.24a2.491,2.491,0,0,1-1.156,2.118,5.068,5.068,0,0,1-2.993.817,5.172,5.172,0,0,1-2.18-.439,3.645,3.645,0,0,1-1.494-1.2,2.707,2.707,0,0,1-.536-1.591H56.1a1.145,1.145,0,0,0,.439.962,1.808,1.808,0,0,0,1.081.3,1.422,1.422,0,0,0,.91-.246A.787.787,0,0,0,58.834,22.328Z" transform="translate(1172 23973)" fill="#12263f"/>
    <path id="Trazado_737965" data-name="Trazado 737965" d="M4.052-4.342V0H.967V-12.8H6.073a5.948,5.948,0,0,1,2.6.541,4.074,4.074,0,0,1,1.749,1.538,4.2,4.2,0,0,1,.62,2.263A3.7,3.7,0,0,1,9.7-5.462,5.561,5.561,0,0,1,6.021-4.342Zm0-2.382H6.073A1.906,1.906,0,0,0,7.44-7.172a1.665,1.665,0,0,0,.47-1.266A2.059,2.059,0,0,0,7.427-9.87a1.712,1.712,0,0,0-1.318-.545H4.052Zm18.677-3.691H18.888V0H15.8V-10.415H12.032V-12.8h10.7Zm7.515,8.024H26.016L25.277,0h-3.3l4.693-12.8h2.9L34.3,0H30.99ZM26.754-4.772H29.5l-1.38-4.438Zm13.236.246H38.32V0H35.235V-12.8h5.036a5.621,5.621,0,0,1,3.56,1.01,3.421,3.421,0,0,1,1.283,2.853,4.155,4.155,0,0,1-.541,2.213A3.837,3.837,0,0,1,42.882-5.3L45.554-.132V0h-3.3ZM38.32-6.9h1.951a1.751,1.751,0,0,0,1.323-.463,1.788,1.788,0,0,0,.444-1.291,1.809,1.809,0,0,0-.448-1.3,1.735,1.735,0,0,0-1.318-.471H38.32Z" transform="translate(489 24218.332)" fill="#12263f"/>
    <path id="Trazado_737966" data-name="Trazado 737966" d="M-58.131,0h-3.076V-12.8h3.076Zm4.808-9.51.1,1.116a3.27,3.27,0,0,1,2.716-1.292,2.407,2.407,0,0,1,2.435,1.433,3.165,3.165,0,0,1,2.795-1.433q2.892,0,2.971,3.5V0h-2.971V-6a1.813,1.813,0,0,0-.246-1.063,1.048,1.048,0,0,0-.9-.334,1.4,1.4,0,0,0-1.31.782l.009.123V0H-50.7V-5.985a1.906,1.906,0,0,0-.237-1.081,1.045,1.045,0,0,0-.905-.334,1.42,1.42,0,0,0-1.3.782V0H-56.1V-9.51ZM-31.79-4.685a5.735,5.735,0,0,1-1,3.538A3.2,3.2,0,0,1-35.481.176a2.742,2.742,0,0,1-2.153-.958V3.656H-40.6V-9.51h2.769l.088.879A2.742,2.742,0,0,1-35.5-9.686a3.224,3.224,0,0,1,2.733,1.3,5.805,5.805,0,0,1,.976,3.564Zm-2.962-.185q0-2.531-1.477-2.531a1.394,1.394,0,0,0-1.406.756V-2.9a1.439,1.439,0,0,0,1.424.791q1.415,0,1.459-2.443ZM-25.128,0a3.344,3.344,0,0,1-.281-.853A2.754,2.754,0,0,1-27.694.176a3.374,3.374,0,0,1-2.285-.813,2.588,2.588,0,0,1-.94-2.043,2.66,2.66,0,0,1,1.143-2.338,5.821,5.821,0,0,1,3.322-.791h.914v-.5q0-1.316-1.134-1.316a.927.927,0,0,0-1.055,1.042h-2.962a2.655,2.655,0,0,1,1.173-2.239,4.931,4.931,0,0,1,2.993-.86,4.323,4.323,0,0,1,2.874.888A3.086,3.086,0,0,1-22.57-6.363v4.21a4.311,4.311,0,0,0,.4,2V0Zm-1.854-1.934a1.652,1.652,0,0,0,.918-.237,1.487,1.487,0,0,0,.523-.536V-4.228H-26.4q-1.547,0-1.547,1.389a.848.848,0,0,0,.272.655A.986.986,0,0,0-26.982-1.934Zm10.072-.176a1.317,1.317,0,0,0,.967-.338,1.241,1.241,0,0,0,.334-.945h2.777A3.288,3.288,0,0,1-13.953-.826a4.168,4.168,0,0,1-2.887,1,4.22,4.22,0,0,1-3.27-1.3,5.125,5.125,0,0,1-1.2-3.6v-.123A5.792,5.792,0,0,1-20.773-7.4a3.872,3.872,0,0,1,1.534-1.7,4.573,4.573,0,0,1,2.373-.593,4.116,4.116,0,0,1,2.944,1.028,3.647,3.647,0,0,1,1.09,2.786h-2.777A1.626,1.626,0,0,0-15.97-7a1.244,1.244,0,0,0-.967-.4q-1.151,0-1.345,1.468a10.357,10.357,0,0,0-.062,1.283A4.068,4.068,0,0,0-18-2.663,1.187,1.187,0,0,0-16.91-2.109Zm8.78-9.765V-9.51h1.564v2.057H-8.13V-3.1a1.111,1.111,0,0,0,.193.747,1.037,1.037,0,0,0,.765.211A4.345,4.345,0,0,0-6.434-2.2V-.079A5.466,5.466,0,0,1-8.1.176a3.1,3.1,0,0,1-2.259-.721,2.954,2.954,0,0,1-.729-2.188v-4.72H-12.3V-9.51h1.213v-2.364Zm2.092,7.031a5.613,5.613,0,0,1,.554-2.536A3.96,3.96,0,0,1-3.894-9.088a4.791,4.791,0,0,1,2.435-.6A4.373,4.373,0,0,1,1.907-8.363a5.076,5.076,0,0,1,1.23,3.6v.105A4.925,4.925,0,0,1,1.9-1.129,4.384,4.384,0,0,1-1.441.176,4.434,4.434,0,0,1-4.7-1.042a4.761,4.761,0,0,1-1.327-3.3Zm2.962.185a3.538,3.538,0,0,0,.413,1.934,1.376,1.376,0,0,0,1.222.615q1.582,0,1.617-2.435v-.3Q.176-7.4-1.459-7.4q-1.485,0-1.608,2.206Zm12.5,1.986a.684.684,0,0,0-.4-.606,6.016,6.016,0,0,0-1.5-.475A6.853,6.853,0,0,1,5.7-4.4,3.062,3.062,0,0,1,4.6-5.37a2.319,2.319,0,0,1-.378-1.31A2.628,2.628,0,0,1,5.3-8.837a4.453,4.453,0,0,1,2.83-.848,4.934,4.934,0,0,1,3.023.853A2.666,2.666,0,0,1,12.3-6.592H9.325q0-1.143-1.2-1.143a1.194,1.194,0,0,0-.782.259.8.8,0,0,0-.316.646.737.737,0,0,0,.387.642,3.654,3.654,0,0,0,1.235.4,10.671,10.671,0,0,1,1.49.378A2.706,2.706,0,0,1,12.278-2.76,2.491,2.491,0,0,1,11.123-.642,5.068,5.068,0,0,1,8.13.176,5.172,5.172,0,0,1,5.95-.264a3.645,3.645,0,0,1-1.494-1.2A2.707,2.707,0,0,1,3.92-3.05H6.688a1.145,1.145,0,0,0,.439.962,1.808,1.808,0,0,0,1.081.3,1.422,1.422,0,0,0,.91-.246A.787.787,0,0,0,9.422-2.672Zm12.744.563a1.317,1.317,0,0,0,.967-.338,1.241,1.241,0,0,0,.334-.945h2.777A3.288,3.288,0,0,1,25.124-.826a4.168,4.168,0,0,1-2.887,1,4.22,4.22,0,0,1-3.27-1.3,5.125,5.125,0,0,1-1.2-3.6v-.123A5.792,5.792,0,0,1,18.3-7.4a3.872,3.872,0,0,1,1.534-1.7,4.573,4.573,0,0,1,2.373-.593,4.116,4.116,0,0,1,2.944,1.028,3.647,3.647,0,0,1,1.09,2.786H23.467A1.626,1.626,0,0,0,23.106-7a1.244,1.244,0,0,0-.967-.4q-1.151,0-1.345,1.468a10.357,10.357,0,0,0-.062,1.283,4.068,4.068,0,0,0,.343,1.986A1.187,1.187,0,0,0,22.166-2.109Zm4.957-2.733a5.613,5.613,0,0,1,.554-2.536,3.96,3.96,0,0,1,1.591-1.709,4.791,4.791,0,0,1,2.435-.6,4.373,4.373,0,0,1,3.366,1.323,5.076,5.076,0,0,1,1.23,3.6v.105a4.925,4.925,0,0,1-1.235,3.529A4.384,4.384,0,0,1,31.72.176a4.434,4.434,0,0,1-3.261-1.217,4.761,4.761,0,0,1-1.327-3.3Zm2.962.185A3.538,3.538,0,0,0,30.5-2.725a1.376,1.376,0,0,0,1.222.615q1.582,0,1.617-2.435v-.3Q33.337-7.4,31.7-7.4q-1.485,0-1.608,2.206ZM40.4-9.51l.1,1.116a3.27,3.27,0,0,1,2.716-1.292A2.407,2.407,0,0,1,45.65-8.253a3.165,3.165,0,0,1,2.795-1.433q2.892,0,2.971,3.5V0H48.445V-6A1.813,1.813,0,0,0,48.2-7.066a1.048,1.048,0,0,0-.9-.334,1.4,1.4,0,0,0-1.31.782L46-6.5V0H43.031V-5.985a1.906,1.906,0,0,0-.237-1.081,1.045,1.045,0,0,0-.905-.334,1.42,1.42,0,0,0-1.3.782V0H37.626V-9.51ZM52.734-4.843a5.613,5.613,0,0,1,.554-2.536,3.96,3.96,0,0,1,1.591-1.709,4.791,4.791,0,0,1,2.435-.6A4.373,4.373,0,0,1,60.68-8.363a5.076,5.076,0,0,1,1.23,3.6v.105a4.925,4.925,0,0,1-1.235,3.529A4.384,4.384,0,0,1,57.331.176,4.434,4.434,0,0,1,54.07-1.042a4.761,4.761,0,0,1-1.327-3.3Zm2.962.185a3.538,3.538,0,0,0,.413,1.934,1.376,1.376,0,0,0,1.222.615q1.582,0,1.617-2.435v-.3q0-2.558-1.635-2.558-1.485,0-1.608,2.206Zm-110,24.815a5.613,5.613,0,0,1,.554-2.536,3.96,3.96,0,0,1,1.591-1.709,4.791,4.791,0,0,1,2.435-.6,4.373,4.373,0,0,1,3.366,1.323,5.076,5.076,0,0,1,1.23,3.6v.105a4.925,4.925,0,0,1-1.235,3.529,4.384,4.384,0,0,1-3.344,1.305,4.434,4.434,0,0,1-3.261-1.217,4.761,4.761,0,0,1-1.327-3.3Zm2.962.185a3.538,3.538,0,0,0,.413,1.934,1.376,1.376,0,0,0,1.222.615q1.582,0,1.617-2.435v-.3q0-2.558-1.635-2.558-1.485,0-1.608,2.206ZM-40.7,25h-2.971V11.5H-40.7Zm1.45-4.843a5.613,5.613,0,0,1,.554-2.536,3.96,3.96,0,0,1,1.591-1.709,4.791,4.791,0,0,1,2.435-.6,4.373,4.373,0,0,1,3.366,1.323,5.076,5.076,0,0,1,1.23,3.6v.105a4.925,4.925,0,0,1-1.235,3.529,4.384,4.384,0,0,1-3.344,1.305,4.434,4.434,0,0,1-3.261-1.217,4.761,4.761,0,0,1-1.327-3.3Zm2.962.185a3.538,3.538,0,0,0,.413,1.934,1.376,1.376,0,0,0,1.222.615q1.582,0,1.617-2.435v-.3q0-2.558-1.635-2.558-1.485,0-1.608,2.206Zm13.271-2.171-.976-.07a1.752,1.752,0,0,0-1.793.879V25h-2.962V15.49h2.777l.1,1.222a2.294,2.294,0,0,1,2.083-1.4,2.888,2.888,0,0,1,.826.105Zm5.5,7a4.889,4.889,0,0,1-3.542-1.305,4.507,4.507,0,0,1-1.354-3.4v-.246a5.84,5.84,0,0,1,.541-2.575,3.955,3.955,0,0,1,1.578-1.727,4.763,4.763,0,0,1,2.461-.611,4.117,4.117,0,0,1,3.164,1.244,4.887,4.887,0,0,1,1.16,3.467v1.151H-19.4a2.135,2.135,0,0,0,.694,1.257,2.066,2.066,0,0,0,1.389.457,2.662,2.662,0,0,0,2.2-.984l1.354,1.6a3.784,3.784,0,0,1-1.569,1.217A5.3,5.3,0,0,1-17.517,25.176Zm-.334-7.576q-1.3,0-1.547,1.723h2.988v-.229a1.467,1.467,0,0,0-.36-1.1A1.434,1.434,0,0,0-17.851,17.6Zm10.512,4.729a.684.684,0,0,0-.4-.606,6.016,6.016,0,0,0-1.5-.475,6.853,6.853,0,0,1-1.828-.646,3.062,3.062,0,0,1-1.1-.971,2.319,2.319,0,0,1-.378-1.31,2.628,2.628,0,0,1,1.081-2.158,4.453,4.453,0,0,1,2.83-.848,4.934,4.934,0,0,1,3.023.853,2.666,2.666,0,0,1,1.143,2.241H-7.436q0-1.143-1.2-1.143a1.194,1.194,0,0,0-.782.259.8.8,0,0,0-.316.646.737.737,0,0,0,.387.642,3.654,3.654,0,0,0,1.235.4,10.671,10.671,0,0,1,1.49.378A2.706,2.706,0,0,1-4.482,22.24a2.491,2.491,0,0,1-1.156,2.118,5.068,5.068,0,0,1-2.993.817,5.172,5.172,0,0,1-2.18-.439,3.645,3.645,0,0,1-1.494-1.2,2.707,2.707,0,0,1-.536-1.591h2.769a1.145,1.145,0,0,0,.439.962,1.808,1.808,0,0,0,1.081.3,1.422,1.422,0,0,0,.91-.246A.787.787,0,0,0-7.339,22.328Zm5.282,6.117-1.494-.7.3-.6a4.874,4.874,0,0,0,.642-2.18v-2.2H-.237l-.009,1.907a4.767,4.767,0,0,1-.519,2.057A5.226,5.226,0,0,1-2.057,28.445ZM9.36,25H6.39V11.5H9.36Zm1.45-4.843a5.613,5.613,0,0,1,.554-2.536,3.96,3.96,0,0,1,1.591-1.709,4.791,4.791,0,0,1,2.435-.6,4.373,4.373,0,0,1,3.366,1.323,5.076,5.076,0,0,1,1.23,3.6v.105a4.925,4.925,0,0,1-1.235,3.529,4.384,4.384,0,0,1-3.344,1.305,4.434,4.434,0,0,1-3.261-1.217,4.761,4.761,0,0,1-1.327-3.3Zm2.962.185a3.538,3.538,0,0,0,.413,1.934,1.376,1.376,0,0,0,1.222.615q1.582,0,1.617-2.435v-.3q0-2.558-1.635-2.558-1.485,0-1.608,2.206Zm7.146-.167a5.809,5.809,0,0,1,.976-3.56,3.211,3.211,0,0,1,2.725-1.3,2.731,2.731,0,0,1,2.145,1V11.5h2.971V25H27.07l-.149-1.02a2.8,2.8,0,0,1-2.32,1.2,3.205,3.205,0,0,1-2.689-1.3A5.993,5.993,0,0,1,20.918,20.175Zm2.962.185q0,2.531,1.477,2.531a1.458,1.458,0,0,0,1.406-.826V18.443a1.419,1.419,0,0,0-1.389-.844q-1.371,0-1.485,2.215Zm7.163-.2a5.613,5.613,0,0,1,.554-2.536,3.96,3.96,0,0,1,1.591-1.709,4.791,4.791,0,0,1,2.435-.6,4.373,4.373,0,0,1,3.366,1.323,5.076,5.076,0,0,1,1.23,3.6v.105a4.925,4.925,0,0,1-1.235,3.529,4.384,4.384,0,0,1-3.344,1.305,4.434,4.434,0,0,1-3.261-1.217,4.761,4.761,0,0,1-1.327-3.3ZM34,20.342a3.538,3.538,0,0,0,.413,1.934,1.376,1.376,0,0,0,1.222.615q1.582,0,1.617-2.435v-.3q0-2.558-1.635-2.558-1.485,0-1.608,2.206Zm12.5,1.986a.684.684,0,0,0-.4-.606,6.016,6.016,0,0,0-1.5-.475,6.853,6.853,0,0,1-1.828-.646,3.062,3.062,0,0,1-1.1-.971,2.319,2.319,0,0,1-.378-1.31,2.628,2.628,0,0,1,1.081-2.158,4.453,4.453,0,0,1,2.83-.848,4.934,4.934,0,0,1,3.023.853,2.666,2.666,0,0,1,1.143,2.241H46.406q0-1.143-1.2-1.143a1.194,1.194,0,0,0-.782.259.8.8,0,0,0-.316.646.737.737,0,0,0,.387.642,3.654,3.654,0,0,0,1.235.4,10.671,10.671,0,0,1,1.49.378,2.706,2.706,0,0,1,2.145,2.646A2.491,2.491,0,0,1,48.2,24.358a5.068,5.068,0,0,1-2.993.817,5.172,5.172,0,0,1-2.18-.439,3.645,3.645,0,0,1-1.494-1.2A2.707,2.707,0,0,1,41,21.95H43.77a1.145,1.145,0,0,0,.439.962,1.808,1.808,0,0,0,1.081.3,1.422,1.422,0,0,0,.91-.246A.787.787,0,0,0,46.5,22.328Zm5.282,6.117-1.494-.7.3-.6a4.874,4.874,0,0,0,.642-2.18v-2.2H53.6L53.6,24.675a4.767,4.767,0,0,1-.519,2.057A5.226,5.226,0,0,1,51.785,28.445Zm-82.178,18.03,1.5-5.985h3.12l-3.1,9.51H-31.9L-35,40.49h3.129Zm9.993,3.7a4.889,4.889,0,0,1-3.542-1.305,4.507,4.507,0,0,1-1.354-3.4v-.246a5.84,5.84,0,0,1,.541-2.575,3.955,3.955,0,0,1,1.578-1.727,4.763,4.763,0,0,1,2.461-.611,4.117,4.117,0,0,1,3.164,1.244,4.887,4.887,0,0,1,1.16,3.467v1.151H-22.28a2.135,2.135,0,0,0,.694,1.257,2.066,2.066,0,0,0,1.389.457,2.662,2.662,0,0,0,2.2-.984l1.354,1.6a3.784,3.784,0,0,1-1.569,1.217A5.3,5.3,0,0,1-20.4,50.176Zm-.334-7.576q-1.3,0-1.547,1.723h2.988v-.229a1.467,1.467,0,0,0-.36-1.1A1.434,1.434,0,0,0-20.733,42.6Zm9.554,5.291a1.317,1.317,0,0,0,.967-.338,1.241,1.241,0,0,0,.334-.945H-7.1a3.288,3.288,0,0,1-1.121,2.566,4.168,4.168,0,0,1-2.887,1,4.22,4.22,0,0,1-3.27-1.3,5.125,5.125,0,0,1-1.2-3.6v-.123a5.792,5.792,0,0,1,.532-2.544,3.872,3.872,0,0,1,1.534-1.7,4.573,4.573,0,0,1,2.373-.593,4.116,4.116,0,0,1,2.944,1.028A3.647,3.647,0,0,1-7.1,44.129H-9.879A1.626,1.626,0,0,0-10.239,43a1.244,1.244,0,0,0-.967-.4q-1.151,0-1.345,1.468a10.357,10.357,0,0,0-.062,1.283,4.068,4.068,0,0,0,.343,1.986A1.187,1.187,0,0,0-11.18,47.891Zm8.78-9.765V40.49H-.835v2.057H-2.4V46.9a1.111,1.111,0,0,0,.193.747,1.037,1.037,0,0,0,.765.211A4.345,4.345,0,0,0-.7,47.8v2.118a5.466,5.466,0,0,1-1.67.255,3.1,3.1,0,0,1-2.259-.721,2.954,2.954,0,0,1-.729-2.188v-4.72H-6.574V40.49h1.213V38.126Zm2.092,7.031a5.613,5.613,0,0,1,.554-2.536,3.96,3.96,0,0,1,1.591-1.709,4.791,4.791,0,0,1,2.435-.6,4.373,4.373,0,0,1,3.366,1.323,5.076,5.076,0,0,1,1.23,3.6v.105a4.925,4.925,0,0,1-1.235,3.529,4.384,4.384,0,0,1-3.344,1.305,4.434,4.434,0,0,1-3.261-1.217A4.761,4.761,0,0,1-.3,45.658Zm2.962.185a3.538,3.538,0,0,0,.413,1.934,1.376,1.376,0,0,0,1.222.615q1.582,0,1.617-2.435v-.3q0-2.558-1.635-2.558-1.485,0-1.608,2.206Zm13.271-2.171-.976-.07a1.752,1.752,0,0,0-1.793.879V50H10.2V40.49h2.777l.1,1.222a2.294,2.294,0,0,1,2.083-1.4,2.888,2.888,0,0,1,.826.105Zm5.5,7a4.889,4.889,0,0,1-3.542-1.305,4.507,4.507,0,0,1-1.354-3.4v-.246a5.84,5.84,0,0,1,.541-2.575,3.955,3.955,0,0,1,1.578-1.727,4.763,4.763,0,0,1,2.461-.611,4.117,4.117,0,0,1,3.164,1.244,4.887,4.887,0,0,1,1.16,3.467v1.151H19.547a2.135,2.135,0,0,0,.694,1.257,2.066,2.066,0,0,0,1.389.457,2.662,2.662,0,0,0,2.2-.984l1.354,1.6a3.784,3.784,0,0,1-1.569,1.217A5.3,5.3,0,0,1,21.428,50.176ZM21.094,42.6q-1.3,0-1.547,1.723h2.988v-.229a1.467,1.467,0,0,0-.36-1.1A1.434,1.434,0,0,0,21.094,42.6Zm10.512,4.729a.684.684,0,0,0-.4-.606,6.016,6.016,0,0,0-1.5-.475,6.853,6.853,0,0,1-1.828-.646,3.062,3.062,0,0,1-1.1-.971,2.319,2.319,0,0,1-.378-1.31,2.628,2.628,0,0,1,1.081-2.158,4.453,4.453,0,0,1,2.83-.848,4.934,4.934,0,0,1,3.023.853,2.666,2.666,0,0,1,1.143,2.241H31.509q0-1.143-1.2-1.143a1.194,1.194,0,0,0-.782.259.8.8,0,0,0-.316.646.737.737,0,0,0,.387.642,3.654,3.654,0,0,0,1.235.4,10.671,10.671,0,0,1,1.49.378,2.706,2.706,0,0,1,2.145,2.646,2.491,2.491,0,0,1-1.156,2.118,5.068,5.068,0,0,1-2.993.817,5.172,5.172,0,0,1-2.18-.439,3.645,3.645,0,0,1-1.494-1.2A2.707,2.707,0,0,1,26.1,46.95h2.769a1.145,1.145,0,0,0,.439.962,1.808,1.808,0,0,0,1.081.3,1.422,1.422,0,0,0,.91-.246A.787.787,0,0,0,31.605,47.328Z" transform="translate(700 24195.332)" fill="#12263f"/>
    <path id="Trazado_737967" data-name="Trazado 737967" d="M-23.361-4.333a4.673,4.673,0,0,1-.721,2.36,4.35,4.35,0,0,1-1.85,1.586,6.3,6.3,0,0,1-2.72.563,5.025,5.025,0,0,1-3.973-1.644,6.786,6.786,0,0,1-1.45-4.641v-.633a7.746,7.746,0,0,1,.655-3.292,4.961,4.961,0,0,1,1.885-2.18,5.26,5.26,0,0,1,2.848-.769,5.516,5.516,0,0,1,3.744,1.226,4.844,4.844,0,0,1,1.608,3.379h-3.076A2.292,2.292,0,0,0-27-10.055a2.422,2.422,0,0,0-1.687-.51,1.843,1.843,0,0,0-1.687.861,5.536,5.536,0,0,0-.562,2.751v.905a6.126,6.126,0,0,0,.514,2.927,1.882,1.882,0,0,0,1.771.879,2.369,2.369,0,0,0,1.626-.5,2.126,2.126,0,0,0,.6-1.591Zm.949-.51a5.613,5.613,0,0,1,.554-2.536,3.96,3.96,0,0,1,1.591-1.709,4.791,4.791,0,0,1,2.435-.6,4.373,4.373,0,0,1,3.366,1.323,5.076,5.076,0,0,1,1.23,3.6v.105a4.925,4.925,0,0,1-1.235,3.529A4.384,4.384,0,0,1-17.815.176a4.434,4.434,0,0,1-3.261-1.217,4.761,4.761,0,0,1-1.327-3.3Zm2.962.185a3.538,3.538,0,0,0,.413,1.934,1.376,1.376,0,0,0,1.222.615q1.582,0,1.617-2.435v-.3q0-2.558-1.635-2.558-1.485,0-1.608,2.206ZM-9.211-9.51l.1,1.116A3.225,3.225,0,0,1-6.4-9.686,2.713,2.713,0,0,1-4.179-8.8a4.226,4.226,0,0,1,.76,2.672V0H-6.39V-6a1.6,1.6,0,0,0-.29-1.059A1.342,1.342,0,0,0-7.734-7.4a1.413,1.413,0,0,0-1.292.686V0h-2.962V-9.51ZM1.67-11.874V-9.51H3.234v2.057H1.67V-3.1a1.111,1.111,0,0,0,.193.747,1.037,1.037,0,0,0,.765.211A4.345,4.345,0,0,0,3.366-2.2V-.079A5.466,5.466,0,0,1,1.7.176,3.1,3.1,0,0,1-.562-.545a2.954,2.954,0,0,1-.729-2.188v-4.72H-2.5V-9.51h1.213v-2.364Zm8.481,5.045L9.176-6.9a1.752,1.752,0,0,0-1.793.879V0H4.421V-9.51H7.2l.1,1.222a2.294,2.294,0,0,1,2.083-1.4,2.888,2.888,0,0,1,.826.105Zm.378,1.986a5.613,5.613,0,0,1,.554-2.536,3.96,3.96,0,0,1,1.591-1.709,4.791,4.791,0,0,1,2.435-.6,4.373,4.373,0,0,1,3.366,1.323,5.076,5.076,0,0,1,1.23,3.6v.105A4.925,4.925,0,0,1,18.47-1.129,4.384,4.384,0,0,1,15.126.176a4.434,4.434,0,0,1-3.261-1.217,4.761,4.761,0,0,1-1.327-3.3Zm2.962.185A3.538,3.538,0,0,0,13.9-2.725a1.376,1.376,0,0,0,1.222.615q1.582,0,1.617-2.435v-.3q0-2.558-1.635-2.558-1.485,0-1.608,2.206ZM24.135,0H21.164V-13.5h2.971Zm7.181,0a3.344,3.344,0,0,1-.281-.853A2.754,2.754,0,0,1,28.749.176a3.374,3.374,0,0,1-2.285-.813,2.588,2.588,0,0,1-.94-2.043,2.66,2.66,0,0,1,1.143-2.338,5.821,5.821,0,0,1,3.322-.791H30.9v-.5q0-1.316-1.134-1.316a.927.927,0,0,0-1.055,1.042H25.752a2.655,2.655,0,0,1,1.173-2.239,4.931,4.931,0,0,1,2.993-.86,4.323,4.323,0,0,1,2.874.888,3.086,3.086,0,0,1,1.081,2.435v4.21a4.311,4.311,0,0,0,.4,2V0ZM29.461-1.934a1.652,1.652,0,0,0,.918-.237,1.487,1.487,0,0,0,.523-.536V-4.228h-.861q-1.547,0-1.547,1.389a.848.848,0,0,0,.272.655A.986.986,0,0,0,29.461-1.934Zm-66.4,27.109a4.889,4.889,0,0,1-3.542-1.305,4.507,4.507,0,0,1-1.354-3.4v-.246a5.84,5.84,0,0,1,.541-2.575,3.955,3.955,0,0,1,1.578-1.727,4.763,4.763,0,0,1,2.461-.611,4.117,4.117,0,0,1,3.164,1.244,4.887,4.887,0,0,1,1.16,3.467v1.151h-5.889a2.135,2.135,0,0,0,.694,1.257,2.066,2.066,0,0,0,1.389.457,2.662,2.662,0,0,0,2.2-.984l1.354,1.6a3.784,3.784,0,0,1-1.569,1.217A5.3,5.3,0,0,1-36.94,25.176Zm-.334-7.576q-1.3,0-1.547,1.723h2.988v-.229a1.467,1.467,0,0,0-.36-1.1A1.434,1.434,0,0,0-37.274,17.6Zm8.657,7.4h-2.971V11.5h2.971Zm9.431,0h-2.971V15.49h2.971Zm-3.146-11.971a1.334,1.334,0,0,1,.457-1.043,1.718,1.718,0,0,1,1.187-.407,1.718,1.718,0,0,1,1.187.407,1.334,1.334,0,0,1,.457,1.043,1.334,1.334,0,0,1-.457,1.043,1.718,1.718,0,0,1-1.187.407,1.718,1.718,0,0,1-1.187-.407A1.334,1.334,0,0,1-22.333,13.029Zm7.77,2.461.1,1.116a3.27,3.27,0,0,1,2.716-1.292,2.407,2.407,0,0,1,2.435,1.433,3.165,3.165,0,0,1,2.795-1.433q2.892,0,2.971,3.5V25H-6.521V19a1.813,1.813,0,0,0-.246-1.063,1.048,1.048,0,0,0-.9-.334,1.4,1.4,0,0,0-1.31.782l.009.123V25h-2.971V19.015a1.906,1.906,0,0,0-.237-1.081,1.045,1.045,0,0,0-.905-.334,1.42,1.42,0,0,0-1.3.782V25h-2.962V15.49ZM6.97,20.315a5.735,5.735,0,0,1-1,3.538,3.2,3.2,0,0,1-2.694,1.323,2.742,2.742,0,0,1-2.153-.958v4.438H-1.837V15.49H.932l.088.879a2.742,2.742,0,0,1,2.241-1.055,3.224,3.224,0,0,1,2.733,1.3,5.805,5.805,0,0,1,.976,3.564Zm-2.962-.185q0-2.531-1.477-2.531a1.394,1.394,0,0,0-1.406.756V22.1a1.439,1.439,0,0,0,1.424.791q1.415,0,1.459-2.443ZM13.632,25a3.344,3.344,0,0,1-.281-.853,2.754,2.754,0,0,1-2.285,1.028,3.374,3.374,0,0,1-2.285-.813,2.588,2.588,0,0,1-.94-2.043,2.66,2.66,0,0,1,1.143-2.338A5.821,5.821,0,0,1,12.3,19.19h.914v-.5q0-1.316-1.134-1.316a.927.927,0,0,0-1.055,1.042H8.068a2.655,2.655,0,0,1,1.173-2.239,4.931,4.931,0,0,1,2.993-.86,4.323,4.323,0,0,1,2.874.888,3.086,3.086,0,0,1,1.081,2.435v4.21a4.311,4.311,0,0,0,.4,2V25Zm-1.854-1.934a1.652,1.652,0,0,0,.918-.237,1.487,1.487,0,0,0,.523-.536V20.772h-.861q-1.547,0-1.547,1.389a.848.848,0,0,0,.272.655A.986.986,0,0,0,11.777,23.066Zm10.072-.176a1.317,1.317,0,0,0,.967-.338,1.241,1.241,0,0,0,.334-.945h2.777a3.288,3.288,0,0,1-1.121,2.566,4.168,4.168,0,0,1-2.887,1,4.22,4.22,0,0,1-3.27-1.3,5.125,5.125,0,0,1-1.2-3.6v-.123a5.792,5.792,0,0,1,.532-2.544,3.872,3.872,0,0,1,1.534-1.7,4.573,4.573,0,0,1,2.373-.593,4.116,4.116,0,0,1,2.944,1.028,3.647,3.647,0,0,1,1.09,2.786H23.15A1.626,1.626,0,0,0,22.79,18a1.244,1.244,0,0,0-.967-.4q-1.151,0-1.345,1.468a10.357,10.357,0,0,0-.062,1.283,4.068,4.068,0,0,0,.343,1.986A1.187,1.187,0,0,0,21.85,22.891Zm8.78-9.765V15.49h1.564v2.057H30.63V21.9a1.111,1.111,0,0,0,.193.747,1.037,1.037,0,0,0,.765.211,4.345,4.345,0,0,0,.738-.053v2.118a5.466,5.466,0,0,1-1.67.255,3.1,3.1,0,0,1-2.259-.721,2.954,2.954,0,0,1-.729-2.188v-4.72H26.455V15.49h1.213V13.126Zm2.092,7.031a5.613,5.613,0,0,1,.554-2.536,3.96,3.96,0,0,1,1.591-1.709,4.791,4.791,0,0,1,2.435-.6,4.373,4.373,0,0,1,3.366,1.323,5.076,5.076,0,0,1,1.23,3.6v.105a4.925,4.925,0,0,1-1.235,3.529,4.384,4.384,0,0,1-3.344,1.305,4.434,4.434,0,0,1-3.261-1.217,4.761,4.761,0,0,1-1.327-3.3Zm2.962.185a3.538,3.538,0,0,0,.413,1.934,1.376,1.376,0,0,0,1.222.615q1.582,0,1.617-2.435v-.3q0-2.558-1.635-2.558-1.485,0-1.608,2.206Z" transform="translate(939 24211)" fill="#12263f"/>
    <path id="Trazado_737968" data-name="Trazado 737968" d="M-48.489-2.391h-4.228L-53.455,0h-3.3l4.693-12.8h2.9L-44.429,0h-3.313Zm-3.489-2.382h2.751l-1.38-4.438ZM-40.509,0h-2.971V-13.5h2.971Zm5.845-2.109a1.317,1.317,0,0,0,.967-.338,1.241,1.241,0,0,0,.334-.945h2.777A3.288,3.288,0,0,1-31.707-.826a4.168,4.168,0,0,1-2.887,1,4.22,4.22,0,0,1-3.27-1.3,5.125,5.125,0,0,1-1.2-3.6v-.123A5.792,5.792,0,0,1-38.527-7.4a3.872,3.872,0,0,1,1.534-1.7,4.573,4.573,0,0,1,2.373-.593,4.116,4.116,0,0,1,2.944,1.028,3.647,3.647,0,0,1,1.09,2.786h-2.777A1.626,1.626,0,0,0-33.724-7a1.244,1.244,0,0,0-.967-.4q-1.151,0-1.345,1.468A10.357,10.357,0,0,0-36.1-4.649a4.068,4.068,0,0,0,.343,1.986A1.187,1.187,0,0,0-34.664-2.109ZM-23.977,0a3.344,3.344,0,0,1-.281-.853A2.754,2.754,0,0,1-26.543.176a3.374,3.374,0,0,1-2.285-.813,2.588,2.588,0,0,1-.94-2.043,2.66,2.66,0,0,1,1.143-2.338A5.821,5.821,0,0,1-25.3-5.81h.914v-.5q0-1.316-1.134-1.316a.927.927,0,0,0-1.055,1.042H-29.54a2.655,2.655,0,0,1,1.173-2.239,4.931,4.931,0,0,1,2.993-.86A4.323,4.323,0,0,1-22.5-8.8a3.086,3.086,0,0,1,1.081,2.435v4.21a4.311,4.311,0,0,0,.4,2V0Zm-1.854-1.934a1.652,1.652,0,0,0,.918-.237,1.487,1.487,0,0,0,.523-.536V-4.228h-.861q-1.547,0-1.547,1.389a.848.848,0,0,0,.272.655A.986.986,0,0,0-25.831-1.934ZM-17.06-9.51l.1,1.116a3.225,3.225,0,0,1,2.716-1.292,2.713,2.713,0,0,1,2.219.888,4.226,4.226,0,0,1,.76,2.672V0h-2.971V-6a1.6,1.6,0,0,0-.29-1.059A1.342,1.342,0,0,0-15.583-7.4a1.413,1.413,0,0,0-1.292.686V0h-2.962V-9.51Zm10.881-2.364V-9.51h1.564v2.057H-6.179V-3.1a1.111,1.111,0,0,0,.193.747,1.037,1.037,0,0,0,.765.211A4.345,4.345,0,0,0-4.482-2.2V-.079a5.466,5.466,0,0,1-1.67.255A3.1,3.1,0,0,1-8.411-.545a2.954,2.954,0,0,1-.729-2.188v-4.72h-1.213V-9.51h1.213v-2.364ZM1.907,0a3.344,3.344,0,0,1-.281-.853A2.754,2.754,0,0,1-.659.176,3.374,3.374,0,0,1-2.944-.637a2.588,2.588,0,0,1-.94-2.043A2.66,2.66,0,0,1-2.742-5.019,5.821,5.821,0,0,1,.58-5.81h.914v-.5q0-1.316-1.134-1.316A.927.927,0,0,0-.694-6.587H-3.656A2.655,2.655,0,0,1-2.483-8.825,4.931,4.931,0,0,1,.51-9.686,4.323,4.323,0,0,1,3.384-8.8,3.086,3.086,0,0,1,4.465-6.363v4.21a4.311,4.311,0,0,0,.4,2V0ZM.053-1.934a1.652,1.652,0,0,0,.918-.237,1.487,1.487,0,0,0,.523-.536V-4.228H.633q-1.547,0-1.547,1.389a.848.848,0,0,0,.272.655A.986.986,0,0,0,.053-1.934Zm11.8-4.9-.976-.07a1.752,1.752,0,0,0-1.793.879V0H6.126V-9.51H8.9L9-8.288a2.294,2.294,0,0,1,2.083-1.4,2.888,2.888,0,0,1,.826.105ZM16.049,0H13.078V-9.51h2.971ZM12.9-11.971a1.334,1.334,0,0,1,.457-1.043,1.718,1.718,0,0,1,1.187-.407,1.718,1.718,0,0,1,1.187.407,1.334,1.334,0,0,1,.457,1.043,1.334,1.334,0,0,1-.457,1.043,1.718,1.718,0,0,1-1.187.407,1.718,1.718,0,0,1-1.187-.407A1.334,1.334,0,0,1,12.9-11.971ZM21,0H18.026V-13.5H21Zm4.948,0H22.975V-13.5h2.971Zm7.181,0a3.344,3.344,0,0,1-.281-.853A2.754,2.754,0,0,1,30.56.176a3.374,3.374,0,0,1-2.285-.813,2.588,2.588,0,0,1-.94-2.043,2.66,2.66,0,0,1,1.143-2.338A5.821,5.821,0,0,1,31.8-5.81h.914v-.5q0-1.316-1.134-1.316a.927.927,0,0,0-1.055,1.042H27.563a2.655,2.655,0,0,1,1.173-2.239,4.931,4.931,0,0,1,2.993-.86A4.323,4.323,0,0,1,34.6-8.8a3.086,3.086,0,0,1,1.081,2.435v4.21a4.311,4.311,0,0,0,.4,2V0ZM31.271-1.934a1.652,1.652,0,0,0,.918-.237,1.487,1.487,0,0,0,.523-.536V-4.228h-.861q-1.547,0-1.547,1.389a.848.848,0,0,0,.272.655A.986.986,0,0,0,31.271-1.934Zm5.678-2.892a5.809,5.809,0,0,1,.976-3.56,3.211,3.211,0,0,1,2.725-1.3,2.731,2.731,0,0,1,2.145,1V-13.5h2.971V0H43.1l-.149-1.02a2.8,2.8,0,0,1-2.32,1.2,3.205,3.205,0,0,1-2.689-1.3A5.993,5.993,0,0,1,36.949-4.825Zm2.962.185q0,2.531,1.477,2.531a1.458,1.458,0,0,0,1.406-.826V-6.557A1.419,1.419,0,0,0,41.405-7.4q-1.371,0-1.485,2.215Zm7.163-.2a5.613,5.613,0,0,1,.554-2.536,3.96,3.96,0,0,1,1.591-1.709,4.791,4.791,0,0,1,2.435-.6A4.373,4.373,0,0,1,55.02-8.363a5.076,5.076,0,0,1,1.23,3.6v.105a4.925,4.925,0,0,1-1.235,3.529A4.384,4.384,0,0,1,51.671.176,4.434,4.434,0,0,1,48.41-1.042a4.761,4.761,0,0,1-1.327-3.3Zm2.962.185a3.538,3.538,0,0,0,.413,1.934,1.376,1.376,0,0,0,1.222.615q1.582,0,1.617-2.435v-.3q0-2.558-1.635-2.558-1.485,0-1.608,2.206Z" transform="translate(1196 24223)" fill="#12263f"/>
    <path id="Trazado_737969" data-name="Trazado 737969" d="M-52.343-4.333a4.673,4.673,0,0,1-.721,2.36,4.35,4.35,0,0,1-1.85,1.586,6.3,6.3,0,0,1-2.72.563,5.025,5.025,0,0,1-3.973-1.644,6.786,6.786,0,0,1-1.45-4.641v-.633a7.746,7.746,0,0,1,.655-3.292,4.961,4.961,0,0,1,1.885-2.18,5.26,5.26,0,0,1,2.848-.769,5.516,5.516,0,0,1,3.744,1.226,4.844,4.844,0,0,1,1.608,3.379h-3.076a2.292,2.292,0,0,0-.589-1.679,2.422,2.422,0,0,0-1.687-.51,1.843,1.843,0,0,0-1.687.861,5.536,5.536,0,0,0-.562,2.751v.905a6.126,6.126,0,0,0,.514,2.927,1.882,1.882,0,0,0,1.771.879,2.369,2.369,0,0,0,1.626-.5,2.126,2.126,0,0,0,.6-1.591Zm6.987,3.3A3.054,3.054,0,0,1-47.9.176a3,3,0,0,1-2.369-.91,3.826,3.826,0,0,1-.8-2.615V-9.51h2.962v6.179A1.065,1.065,0,0,0-46.92-2.109a1.548,1.548,0,0,0,1.45-.729V-9.51h2.979V0h-2.777Zm9.088,1.2A4.889,4.889,0,0,1-39.81-1.129a4.507,4.507,0,0,1-1.354-3.4v-.246a5.84,5.84,0,0,1,.541-2.575,3.955,3.955,0,0,1,1.578-1.727,4.763,4.763,0,0,1,2.461-.611A4.117,4.117,0,0,1-33.42-8.442a4.887,4.887,0,0,1,1.16,3.467v1.151h-5.889a2.135,2.135,0,0,0,.694,1.257,2.066,2.066,0,0,0,1.389.457,2.662,2.662,0,0,0,2.2-.984l1.354,1.6A3.784,3.784,0,0,1-34.084-.277,5.3,5.3,0,0,1-36.268.176ZM-36.6-7.4q-1.3,0-1.547,1.723h2.988v-.229a1.467,1.467,0,0,0-.36-1.1A1.434,1.434,0,0,0-36.6-7.4Zm11.285.571-.976-.07a1.752,1.752,0,0,0-1.793.879V0h-2.962V-9.51h2.777l.1,1.222a2.294,2.294,0,0,1,2.083-1.4,2.888,2.888,0,0,1,.826.105Zm9.9,2.145a5.735,5.735,0,0,1-1,3.538A3.2,3.2,0,0,1-19.112.176a2.742,2.742,0,0,1-2.153-.958V3.656h-2.962V-9.51h2.769l.088.879a2.742,2.742,0,0,1,2.241-1.055,3.224,3.224,0,0,1,2.733,1.3,5.805,5.805,0,0,1,.976,3.564Zm-2.962-.185q0-2.531-1.477-2.531a1.394,1.394,0,0,0-1.406.756V-2.9a1.439,1.439,0,0,0,1.424.791q1.415,0,1.459-2.443Zm3.894.026a5.613,5.613,0,0,1,.554-2.536,3.96,3.96,0,0,1,1.591-1.709,4.791,4.791,0,0,1,2.435-.6A4.373,4.373,0,0,1-6.543-8.363a5.076,5.076,0,0,1,1.23,3.6v.105A4.925,4.925,0,0,1-6.548-1.129,4.384,4.384,0,0,1-9.892.176a4.434,4.434,0,0,1-3.261-1.217,4.761,4.761,0,0,1-1.327-3.3Zm2.962.185a3.538,3.538,0,0,0,.413,1.934,1.376,1.376,0,0,0,1.222.615q1.582,0,1.617-2.435v-.3Q-8.275-7.4-9.91-7.4q-1.485,0-1.608,2.206ZM.1-4.825a5.809,5.809,0,0,1,.976-3.56A3.211,3.211,0,0,1,3.8-9.686a2.731,2.731,0,0,1,2.145,1V-13.5H8.917V0H6.253L6.1-1.02a2.8,2.8,0,0,1-2.32,1.2,3.205,3.205,0,0,1-2.689-1.3A5.993,5.993,0,0,1,.1-4.825Zm2.962.185q0,2.531,1.477,2.531a1.458,1.458,0,0,0,1.406-.826V-6.557A1.419,1.419,0,0,0,4.557-7.4q-1.371,0-1.485,2.215ZM15.2.176a4.889,4.889,0,0,1-3.542-1.305,4.507,4.507,0,0,1-1.354-3.4v-.246a5.84,5.84,0,0,1,.541-2.575,3.955,3.955,0,0,1,1.578-1.727,4.763,4.763,0,0,1,2.461-.611,4.117,4.117,0,0,1,3.164,1.244,4.887,4.887,0,0,1,1.16,3.467v1.151H13.32a2.135,2.135,0,0,0,.694,1.257,2.066,2.066,0,0,0,1.389.457,2.662,2.662,0,0,0,2.2-.984l1.354,1.6A3.784,3.784,0,0,1,17.385-.277,5.3,5.3,0,0,1,15.2.176ZM14.867-7.4q-1.3,0-1.547,1.723h2.988v-.229a1.467,1.467,0,0,0-.36-1.1A1.434,1.434,0,0,0,14.867-7.4ZM30.239,0a3.344,3.344,0,0,1-.281-.853A2.754,2.754,0,0,1,27.672.176a3.374,3.374,0,0,1-2.285-.813,2.588,2.588,0,0,1-.94-2.043,2.66,2.66,0,0,1,1.143-2.338,5.821,5.821,0,0,1,3.322-.791h.914v-.5q0-1.316-1.134-1.316a.927.927,0,0,0-1.055,1.042H24.675a2.655,2.655,0,0,1,1.173-2.239,4.931,4.931,0,0,1,2.993-.86,4.323,4.323,0,0,1,2.874.888A3.086,3.086,0,0,1,32.8-6.363v4.21a4.311,4.311,0,0,0,.4,2V0ZM28.384-1.934a1.652,1.652,0,0,0,.918-.237,1.487,1.487,0,0,0,.523-.536V-4.228h-.861q-1.547,0-1.547,1.389a.848.848,0,0,0,.272.655A.986.986,0,0,0,28.384-1.934Zm5.7-2.892a6.421,6.421,0,0,1,.475-2.549,3.821,3.821,0,0,1,1.362-1.709,3.591,3.591,0,0,1,2.065-.6,2.855,2.855,0,0,1,2.32,1l.105-.826h2.689V-.36a4.009,4.009,0,0,1-.584,2.184A3.75,3.75,0,0,1,40.83,3.248a6.219,6.219,0,0,1-2.566.5,5.365,5.365,0,0,1-2.026-.4,3.657,3.657,0,0,1-1.5-1.028L35.978.58a2.716,2.716,0,0,0,2.18.976A1.764,1.764,0,0,0,40.126-.466v-.3a2.781,2.781,0,0,1-2.153.94,3.437,3.437,0,0,1-2.812-1.332A5.517,5.517,0,0,1,34.088-4.72Zm2.971.185a3.383,3.383,0,0,0,.439,1.85,1.386,1.386,0,0,0,1.23.681,1.573,1.573,0,0,0,1.4-.642v-4a1.534,1.534,0,0,0-1.38-.65,1.4,1.4,0,0,0-1.239.708A3.858,3.858,0,0,0,37.059-4.641ZM50.454-1.028a3.054,3.054,0,0,1-2.54,1.2,3,3,0,0,1-2.369-.91,3.826,3.826,0,0,1-.8-2.615V-9.51H47.7v6.179a1.065,1.065,0,0,0,1.187,1.222,1.548,1.548,0,0,0,1.45-.729V-9.51h2.979V0H50.542ZM60.3,0a3.344,3.344,0,0,1-.281-.853A2.754,2.754,0,0,1,57.731.176a3.374,3.374,0,0,1-2.285-.813,2.588,2.588,0,0,1-.94-2.043,2.66,2.66,0,0,1,1.143-2.338A5.821,5.821,0,0,1,58.97-5.81h.914v-.5q0-1.316-1.134-1.316A.927.927,0,0,0,57.7-6.587H54.734a2.655,2.655,0,0,1,1.173-2.239,4.931,4.931,0,0,1,2.993-.86,4.323,4.323,0,0,1,2.874.888,3.086,3.086,0,0,1,1.081,2.435v4.21a4.311,4.311,0,0,0,.4,2V0ZM58.443-1.934a1.652,1.652,0,0,0,.918-.237,1.487,1.487,0,0,0,.523-.536V-4.228h-.861q-1.547,0-1.547,1.389a.848.848,0,0,0,.272.655A.986.986,0,0,0,58.443-1.934Z" transform="translate(1035 24114)" fill="#fff"/>
    <path id="Trazado_737814" data-name="Trazado 737814" d="M-8491,12425h210v36.644h259.187" transform="translate(8966 11649)" fill="none" stroke="#ffa031" stroke-width="2"/>
    <path id="Trazado_737815" data-name="Trazado 737815" d="M-8596,12391v-43.507h136.061" transform="translate(8976 11649)" fill="none" stroke="#ffa031" stroke-width="2"/>
    <path id="Trazado_737970" data-name="Trazado 737970" d="M7,0l7,12H0Z" transform="translate(516 23989) rotate(90)" fill="#ffa031"/>
    <path id="Trazado_737971" data-name="Trazado 737971" d="M7,0l7,12H0Z" transform="translate(458 24202) rotate(90)" fill="#ffa031"/>
    <path id="Trazado_737972" data-name="Trazado 737972" d="M7,0l7,12H0Z" transform="translate(609 24205) rotate(90)" fill="#ffa031"/>
    <path id="Trazado_737973" data-name="Trazado 737973" d="M7,0l7,12H0Z" transform="translate(848 24205) rotate(90)" fill="#ffa031"/>
    <path id="Trazado_737974" data-name="Trazado 737974" d="M7,0l7,12H0Z" transform="translate(742.293 23917.807) rotate(45)" fill="#ffa031"/>
    <path id="Trazado_737975" data-name="Trazado 737975" d="M7,0l7,12H0Z" transform="translate(752.192 24023.291) rotate(135)" fill="#ffa031"/>
    <path id="Trazado_737976" data-name="Trazado 737976" d="M7,0l7,12H0Z" transform="translate(1105 24205) rotate(90)" fill="#ffa031"/>
    <path id="Trazado_737977" data-name="Trazado 737977" d="M7,0l7,12H0Z" transform="translate(979 24147)" fill="#ffa031"/>
    <path id="Trazado_737978" data-name="Trazado 737978" d="M7,0l7,12H0Z" transform="translate(1079 23975.836) rotate(90)" fill="#ffa031"/>
    <path id="Trazado_737979" data-name="Trazado 737979" d="M7,0l7,12H0Z" transform="translate(1051.607 24069) rotate(180)" fill="#ffa031"/>
    <path id="Trazado_737980" data-name="Trazado 737980" d="M7,0l7,12H0Z" transform="matrix(0.602, -0.799, 0.799, 0.602, 1069.995, 24151.777)" fill="#ffa031"/>
    <path id="Trazado_737981" data-name="Trazado 737981" d="M7,0l7,12H0Z" transform="translate(475 24081) rotate(-90)" fill="#ffa031"/>
    <path id="Trazado_737816" data-name="Trazado 737816" d="M-8586,12459v100.5h77.5" transform="translate(8966 11649)" fill="none" stroke="#ffa031" stroke-width="2"/>
    <path id="Trazado_737817" data-name="Trazado 737817" d="M-8554.333,12559.5H-8519" transform="translate(9119 11653)" fill="none" stroke="#ffa031" stroke-width="2"/>
    <path id="Trazado_737818" data-name="Trazado 737818" d="M-8554.333,12559.5h46" transform="translate(9344.333 11653)" fill="none" stroke="#ffa031" stroke-width="2"/>
    <path id="Trazado_737822" data-name="Trazado 737822" d="M-8554.333,12554.938l34.8-44.424" transform="translate(9259.333 11421)" fill="none" stroke="#ffa031" stroke-width="2"/>
    <path id="Trazado_737823" data-name="Trazado 737823" d="M-8554.333,12539.687l34.8,34.348" transform="translate(9259.333 11446)" fill="none" stroke="#ffa031" stroke-width="2"/>
    <path id="Trazado_737819" data-name="Trazado 737819" d="M-8554.334,12559.5h63.934" transform="translate(9584.333 11653)" fill="none" stroke="#ffa031" stroke-width="2"/>
    <path id="Trazado_737820" data-name="Trazado 737820" d="M-8509.806,12559.5h19.405" transform="translate(-11573 15667.666) rotate(-90)" fill="none" stroke="#ffa031" stroke-width="2"/>
    <path id="Trazado_737825" data-name="Trazado 737825" d="M-8509.806,12559.5h41.27" transform="translate(9536.473 11423.834)" fill="none" stroke="#ffa031" stroke-width="2"/>
    <path id="Trazado_737821" data-name="Trazado 737821" d="M-8510.152,12653.742l23.945-64.549" transform="translate(-11505.5 15667.666) rotate(-90)" fill="none" stroke="#ffa031" stroke-width="2"/>
    <path id="Trazado_737824" data-name="Trazado 737824" d="M-8027,12268.807s43.5-6.307,85.5,59.193c27,56.5,19,91.5,19,91.5" transform="translate(8966 11649)" fill="none" stroke="#ffa031" stroke-width="2"/>
    <path id="Trazado_737826" data-name="Trazado 737826" d="M-8027.333,12369.667s39-1.666,68,4,37.667,35.333,37.667,35.333" transform="translate(8966 11649)" fill="none" stroke="#ffa031" stroke-width="2"/>
  </g>
</svg>
