<svg xmlns="http://www.w3.org/2000/svg" width="610" height="493.654" viewBox="0 0 610 493.654">
  <g id="Grupo_1015992" data-name="Grupo 1015992" transform="translate(-495 -7768.673)">
    <g id="Grupo_1013610" data-name="Grupo 1013610" transform="translate(382.098 7703.224)">
      <rect id="Rectángulo_350161" data-name="Rectángulo 350161" width="12.257" height="176.579" rx="5" transform="translate(406.361 378.193)" fill="#d5d5ed"/>
      <rect id="Rectángulo_350162" data-name="Rectángulo 350162" width="12.257" height="176.579" rx="5" transform="translate(485.421 400.038) rotate(-25.734)" fill="#d5d5ed"/>
      <rect id="Rectángulo_350163" data-name="Rectángulo 350163" width="12.257" height="176.579" rx="5" transform="translate(264.204 559.104) rotate(-154.266)" fill="#d5d5ed"/>
      <path id="Trazado_732196" data-name="Trazado 732196" d="M582.464,95.232q91.029-.064,182.059-.127c6.669-.005,13.34-.06,20.008.023,7.081.087,9.248,1.741,9.3,7.412.116,12.828.059,25.657.059,38.485q-.008,127.206-.021,254.413c0,9.473-1.1,10.3-13.6,10.309q-92.029.088-184.061.168-99.689,0-199.378-.163-100.027-.045-200.054-.008c-11.463,0-12.862-1-12.864-9.319q-.01-145.948.009-291.9c0-8.473,1.309-9.442,12.658-9.436q99.365.054,198.729.136Z" transform="translate(-71)" fill="#0076a1"/>
      <path id="Trazado_732197" data-name="Trazado 732197" d="M482.611,95.232l-140.271,0c.909-7.128.217-14.285.4-21.427.167-6.568,1.822-8.337,8.3-8.34q61.424-.025,122.845,0c6.48,0,8.126,1.778,8.293,8.346C482.364,80.949,481.646,88.108,482.611,95.232Z" fill="#02528a"/>
    </g>
    <path id="Trazado_737827" data-name="Trazado 737827" d="M10.9,12.939a4.708,4.708,0,0,1-1.5,3.133,4.911,4.911,0,0,1-3.353,1.1A4.509,4.509,0,0,1,2.413,15.55,6.542,6.542,0,0,1,1.046,11.2V9.969a7.291,7.291,0,0,1,.637-3.138A4.76,4.76,0,0,1,3.489,4.752,5.029,5.029,0,0,1,6.2,4.027a4.624,4.624,0,0,1,3.27,1.138A4.765,4.765,0,0,1,10.9,8.316H9.2a3.677,3.677,0,0,0-.954-2.222A2.885,2.885,0,0,0,6.2,5.407,3.019,3.019,0,0,0,3.661,6.6a5.492,5.492,0,0,0-.918,3.4v1.24a5.645,5.645,0,0,0,.87,3.316A2.812,2.812,0,0,0,6.047,15.8,3.247,3.247,0,0,0,8.2,15.159a3.536,3.536,0,0,0,1-2.219ZM18.817,17a3.416,3.416,0,0,1-.229-1,3.628,3.628,0,0,1-2.707,1.178,3.357,3.357,0,0,1-2.307-.8,2.573,2.573,0,0,1-.9-2.017A2.688,2.688,0,0,1,13.8,12.056a5.325,5.325,0,0,1,3.177-.822h1.582v-.747a1.826,1.826,0,0,0-.51-1.358,2.049,2.049,0,0,0-1.5-.505,2.371,2.371,0,0,0-1.459.439,1.3,1.3,0,0,0-.589,1.063H12.867a2.244,2.244,0,0,1,.505-1.375A3.449,3.449,0,0,1,14.744,7.7a4.613,4.613,0,0,1,1.9-.387,3.759,3.759,0,0,1,2.575.822,2.964,2.964,0,0,1,.967,2.263v4.377a5.351,5.351,0,0,0,.334,2.083V17Zm-2.7-1.239a2.858,2.858,0,0,0,1.45-.4,2.392,2.392,0,0,0,.993-1.028V12.386H17.288q-2.988,0-2.988,1.749a1.48,1.48,0,0,0,.51,1.2A1.959,1.959,0,0,0,16.119,15.761Zm12.489.3a3.454,3.454,0,0,1-2.786,1.116,2.956,2.956,0,0,1-2.316-.883,3.823,3.823,0,0,1-.8-2.615V7.49h1.626v6.144q0,2.162,1.758,2.162a2.434,2.434,0,0,0,2.479-1.389V7.49H30.19V17H28.644Zm3.656-3.894A5.571,5.571,0,0,1,33.3,8.646a3.529,3.529,0,0,1,5.361-.189V3.5h1.626V17H38.795l-.079-1.02A3.311,3.311,0,0,1,36,17.176a3.248,3.248,0,0,1-2.694-1.354,5.634,5.634,0,0,1-1.042-3.533Zm1.626.185a4.218,4.218,0,0,0,.668,2.531A2.159,2.159,0,0,0,36.4,15.8a2.372,2.372,0,0,0,2.259-1.389V10.039a2.39,2.39,0,0,0-2.241-1.345,2.17,2.17,0,0,0-1.863.923A4.644,4.644,0,0,0,33.891,12.351ZM48.683,17a3.416,3.416,0,0,1-.229-1,3.628,3.628,0,0,1-2.707,1.178,3.357,3.357,0,0,1-2.307-.8,2.573,2.573,0,0,1-.9-2.017,2.688,2.688,0,0,1,1.129-2.307,5.325,5.325,0,0,1,3.177-.822h1.582v-.747a1.826,1.826,0,0,0-.51-1.358,2.049,2.049,0,0,0-1.5-.505,2.371,2.371,0,0,0-1.459.439,1.3,1.3,0,0,0-.589,1.063H42.732a2.244,2.244,0,0,1,.505-1.375A3.449,3.449,0,0,1,44.609,7.7a4.613,4.613,0,0,1,1.9-.387,3.759,3.759,0,0,1,2.575.822,2.964,2.964,0,0,1,.967,2.263v4.377a5.351,5.351,0,0,0,.334,2.083V17Zm-2.7-1.239a2.858,2.858,0,0,0,1.45-.4,2.392,2.392,0,0,0,.993-1.028V12.386H47.153q-2.988,0-2.988,1.749a1.48,1.48,0,0,0,.51,1.2A1.959,1.959,0,0,0,45.984,15.761ZM54.369,17H52.743V3.5h1.626Zm10.2-2.206,2.355-7.3h1.661L65.171,17H63.932L60.486,7.49h1.661Zm5.019-2.637a5.617,5.617,0,0,1,.549-2.514,4.1,4.1,0,0,1,1.529-1.723A4.163,4.163,0,0,1,73.9,7.314a4.01,4.01,0,0,1,3.142,1.345,5.174,5.174,0,0,1,1.2,3.577v.114a5.666,5.666,0,0,1-.532,2.492,4.038,4.038,0,0,1-1.521,1.718,4.211,4.211,0,0,1-2.272.615,4,4,0,0,1-3.133-1.345,5.147,5.147,0,0,1-1.2-3.56Zm1.635.193a4.068,4.068,0,0,0,.734,2.54,2.487,2.487,0,0,0,3.933-.013,4.449,4.449,0,0,0,.729-2.72,4.061,4.061,0,0,0-.743-2.536A2.361,2.361,0,0,0,73.9,8.65a2.335,2.335,0,0,0-1.942.958A4.416,4.416,0,0,0,71.218,12.351ZM82.046,17H80.42V3.5h1.626Zm8.473-.94a3.454,3.454,0,0,1-2.786,1.116,2.956,2.956,0,0,1-2.316-.883,3.823,3.823,0,0,1-.8-2.615V7.49h1.626v6.144Q86.238,15.8,88,15.8a2.434,2.434,0,0,0,2.479-1.389V7.49H92.1V17H90.554ZM96.1,7.49l.044,1.055a3.512,3.512,0,0,1,2.821-1.23,2.719,2.719,0,0,1,2.716,1.529,3.6,3.6,0,0,1,1.235-1.107,3.647,3.647,0,0,1,1.8-.422q3.129,0,3.182,3.313V17h-1.626V10.725A2.184,2.184,0,0,0,105.8,9.2a2.051,2.051,0,0,0-1.564-.505,2.156,2.156,0,0,0-1.5.541,2.193,2.193,0,0,0-.694,1.455V17h-1.635V10.769a1.814,1.814,0,0,0-2.03-2.074,2.175,2.175,0,0,0-2.188,1.362V17H94.562V7.49Zm18.193,9.686a4.155,4.155,0,0,1-3.146-1.27,4.714,4.714,0,0,1-1.213-3.4v-.3a5.707,5.707,0,0,1,.541-2.527,4.217,4.217,0,0,1,1.512-1.74,3.8,3.8,0,0,1,2.1-.628,3.562,3.562,0,0,1,2.883,1.222,5.289,5.289,0,0,1,1.028,3.5v.677H111.56a3.38,3.38,0,0,0,.822,2.272,2.583,2.583,0,0,0,2,.866,2.832,2.832,0,0,0,1.459-.352,3.666,3.666,0,0,0,1.046-.932l.993.773A3.993,3.993,0,0,1,114.293,17.176Zm-.2-8.525a2.169,2.169,0,0,0-1.652.716,3.482,3.482,0,0,0-.826,2.008h4.764v-.123a3.1,3.1,0,0,0-.668-1.92A2.042,2.042,0,0,0,114.091,8.65Zm.791-5.133h1.969L114.5,6.1l-1.31,0Zm7.207,1.67v2.3h1.775V8.747h-1.775v5.9a1.32,1.32,0,0,0,.237.858,1,1,0,0,0,.809.286,3.937,3.937,0,0,0,.773-.105V17a4.742,4.742,0,0,1-1.248.175,2.025,2.025,0,0,1-1.644-.659,2.832,2.832,0,0,1-.554-1.872v-5.9h-1.731V7.49h1.731v-2.3Zm8.271,3.762a4.873,4.873,0,0,0-.8-.062,2.143,2.143,0,0,0-2.171,1.362V17h-1.626V7.49h1.582l.026,1.1a2.532,2.532,0,0,1,2.268-1.274,1.661,1.661,0,0,1,.721.123ZM133.62,17h-1.626V7.49h1.626ZM131.862,4.968A.971.971,0,0,1,132.1,4.3a.907.907,0,0,1,.716-.272.922.922,0,0,1,.721.272.96.96,0,0,1,.246.668.929.929,0,0,1-.246.659.938.938,0,0,1-.721.264.924.924,0,0,1-.716-.264A.938.938,0,0,1,131.862,4.968Zm8.174,10.881a2.342,2.342,0,0,0,1.521-.527A1.855,1.855,0,0,0,142.277,14h1.538a2.949,2.949,0,0,1-.562,1.556,3.7,3.7,0,0,1-1.384,1.178,3.994,3.994,0,0,1-1.833.439,3.918,3.918,0,0,1-3.089-1.3,5.163,5.163,0,0,1-1.147-3.546v-.272a5.725,5.725,0,0,1,.51-2.47,3.883,3.883,0,0,1,1.463-1.679,4.157,4.157,0,0,1,2.254-.6,3.814,3.814,0,0,1,2.659.958,3.424,3.424,0,0,1,1.129,2.487h-1.538a2.241,2.241,0,0,0-.7-1.516,2.174,2.174,0,0,0-1.551-.593,2.276,2.276,0,0,0-1.92.892,4.19,4.19,0,0,0-.681,2.58v.308a4.106,4.106,0,0,0,.677,2.531A2.287,2.287,0,0,0,140.036,15.849Zm5.177-3.691a5.617,5.617,0,0,1,.549-2.514,4.1,4.1,0,0,1,1.529-1.723,4.163,4.163,0,0,1,2.237-.606,4.01,4.01,0,0,1,3.142,1.345,5.174,5.174,0,0,1,1.2,3.577v.114a5.666,5.666,0,0,1-.532,2.492,4.038,4.038,0,0,1-1.521,1.718,4.211,4.211,0,0,1-2.272.615,4,4,0,0,1-3.133-1.345,5.147,5.147,0,0,1-1.2-3.56Zm1.635.193a4.068,4.068,0,0,0,.734,2.54,2.487,2.487,0,0,0,3.933-.013,4.449,4.449,0,0,0,.729-2.72,4.061,4.061,0,0,0-.743-2.536,2.361,2.361,0,0,0-1.973-.971,2.335,2.335,0,0,0-1.942.958A4.416,4.416,0,0,0,146.848,12.351Zm13.456-.545a13.589,13.589,0,0,1,.532-3.814,11.081,11.081,0,0,1,1.586-3.322A6.749,6.749,0,0,1,164.61,2.56l.334,1.072a7,7,0,0,0-2.1,3.006,13.031,13.031,0,0,0-.9,4.526l-.009.747a13.1,13.1,0,0,0,1.239,5.889,7.033,7.033,0,0,0,1.775,2.338l-.334.993a6.966,6.966,0,0,1-2.232-2.18A12.217,12.217,0,0,1,160.3,11.806Zm16.242-.791a7.9,7.9,0,0,1-.589,3.195,4.937,4.937,0,0,1-1.652,2.1L176.59,18.1l-1.151,1.063-2.7-2.145a5.49,5.49,0,0,1-1.336.158,4.774,4.774,0,0,1-4.5-2.861,7.6,7.6,0,0,1-.664-3.186v-.923a7.822,7.822,0,0,1,.642-3.261,4.745,4.745,0,0,1,4.5-2.918,4.955,4.955,0,0,1,2.72.747,4.819,4.819,0,0,1,1.806,2.149,7.893,7.893,0,0,1,.633,3.274Zm-1.687-.826a5.808,5.808,0,0,0-.9-3.485,3.251,3.251,0,0,0-5.08-.009,5.62,5.62,0,0,0-.945,3.379v.94a5.791,5.791,0,0,0,.918,3.463,3.246,3.246,0,0,0,5.084.075,5.714,5.714,0,0,0,.923-3.415Zm7.787,1.705a13.6,13.6,0,0,1-.514,3.757,11.11,11.11,0,0,1-1.573,3.318,6.893,6.893,0,0,1-2.219,2.162L178,20.138a7.066,7.066,0,0,0,2.175-3.221,13.935,13.935,0,0,0,.839-4.847v-.281a14.469,14.469,0,0,0-.387-3.432,11.583,11.583,0,0,0-1.077-2.843A6.567,6.567,0,0,0,178,3.553l.343-.993a6.866,6.866,0,0,1,2.21,2.145,11.134,11.134,0,0,1,1.573,3.313A13.909,13.909,0,0,1,182.646,11.894Zm9.94-2.048h-7.33V8.431h7.33Zm0,3.647h-7.33V12.087h7.33Z" transform="translate(550 7868.5)" fill="#fff"/>
    <path id="Trazado_737834" data-name="Trazado 737834" d="M10.9,12.939a4.708,4.708,0,0,1-1.5,3.133,4.911,4.911,0,0,1-3.353,1.1A4.509,4.509,0,0,1,2.413,15.55,6.542,6.542,0,0,1,1.046,11.2V9.969a7.291,7.291,0,0,1,.637-3.138A4.76,4.76,0,0,1,3.489,4.752,5.029,5.029,0,0,1,6.2,4.027a4.624,4.624,0,0,1,3.27,1.138A4.765,4.765,0,0,1,10.9,8.316H9.2a3.677,3.677,0,0,0-.954-2.222A2.885,2.885,0,0,0,6.2,5.407,3.019,3.019,0,0,0,3.661,6.6a5.492,5.492,0,0,0-.918,3.4v1.24a5.645,5.645,0,0,0,.87,3.316A2.812,2.812,0,0,0,6.047,15.8,3.247,3.247,0,0,0,8.2,15.159a3.536,3.536,0,0,0,1-2.219ZM18.817,17a3.416,3.416,0,0,1-.229-1,3.628,3.628,0,0,1-2.707,1.178,3.357,3.357,0,0,1-2.307-.8,2.573,2.573,0,0,1-.9-2.017A2.688,2.688,0,0,1,13.8,12.056a5.325,5.325,0,0,1,3.177-.822h1.582v-.747a1.826,1.826,0,0,0-.51-1.358,2.049,2.049,0,0,0-1.5-.505,2.371,2.371,0,0,0-1.459.439,1.3,1.3,0,0,0-.589,1.063H12.867a2.244,2.244,0,0,1,.505-1.375A3.449,3.449,0,0,1,14.744,7.7a4.613,4.613,0,0,1,1.9-.387,3.759,3.759,0,0,1,2.575.822,2.964,2.964,0,0,1,.967,2.263v4.377a5.351,5.351,0,0,0,.334,2.083V17Zm-2.7-1.239a2.858,2.858,0,0,0,1.45-.4,2.392,2.392,0,0,0,.993-1.028V12.386H17.288q-2.988,0-2.988,1.749a1.48,1.48,0,0,0,.51,1.2A1.959,1.959,0,0,0,16.119,15.761Zm12.489.3a3.454,3.454,0,0,1-2.786,1.116,2.956,2.956,0,0,1-2.316-.883,3.823,3.823,0,0,1-.8-2.615V7.49h1.626v6.144q0,2.162,1.758,2.162a2.434,2.434,0,0,0,2.479-1.389V7.49H30.19V17H28.644Zm3.656-3.894A5.571,5.571,0,0,1,33.3,8.646a3.529,3.529,0,0,1,5.361-.189V3.5h1.626V17H38.795l-.079-1.02A3.311,3.311,0,0,1,36,17.176a3.248,3.248,0,0,1-2.694-1.354,5.634,5.634,0,0,1-1.042-3.533Zm1.626.185a4.218,4.218,0,0,0,.668,2.531A2.159,2.159,0,0,0,36.4,15.8a2.372,2.372,0,0,0,2.259-1.389V10.039a2.39,2.39,0,0,0-2.241-1.345,2.17,2.17,0,0,0-1.863.923A4.644,4.644,0,0,0,33.891,12.351ZM48.683,17a3.416,3.416,0,0,1-.229-1,3.628,3.628,0,0,1-2.707,1.178,3.357,3.357,0,0,1-2.307-.8,2.573,2.573,0,0,1-.9-2.017,2.688,2.688,0,0,1,1.129-2.307,5.325,5.325,0,0,1,3.177-.822h1.582v-.747a1.826,1.826,0,0,0-.51-1.358,2.049,2.049,0,0,0-1.5-.505,2.371,2.371,0,0,0-1.459.439,1.3,1.3,0,0,0-.589,1.063H42.732a2.244,2.244,0,0,1,.505-1.375A3.449,3.449,0,0,1,44.609,7.7a4.613,4.613,0,0,1,1.9-.387,3.759,3.759,0,0,1,2.575.822,2.964,2.964,0,0,1,.967,2.263v4.377a5.351,5.351,0,0,0,.334,2.083V17Zm-2.7-1.239a2.858,2.858,0,0,0,1.45-.4,2.392,2.392,0,0,0,.993-1.028V12.386H47.153q-2.988,0-2.988,1.749a1.48,1.48,0,0,0,.51,1.2A1.959,1.959,0,0,0,45.984,15.761ZM54.369,17H52.743V3.5h1.626Zm10.2-2.206,2.355-7.3h1.661L65.171,17H63.932L60.486,7.49h1.661Zm5.019-2.637a5.617,5.617,0,0,1,.549-2.514,4.1,4.1,0,0,1,1.529-1.723A4.163,4.163,0,0,1,73.9,7.314a4.01,4.01,0,0,1,3.142,1.345,5.174,5.174,0,0,1,1.2,3.577v.114a5.666,5.666,0,0,1-.532,2.492,4.038,4.038,0,0,1-1.521,1.718,4.211,4.211,0,0,1-2.272.615,4,4,0,0,1-3.133-1.345,5.147,5.147,0,0,1-1.2-3.56Zm1.635.193a4.068,4.068,0,0,0,.734,2.54,2.487,2.487,0,0,0,3.933-.013,4.449,4.449,0,0,0,.729-2.72,4.061,4.061,0,0,0-.743-2.536A2.361,2.361,0,0,0,73.9,8.65a2.335,2.335,0,0,0-1.942.958A4.416,4.416,0,0,0,71.218,12.351ZM82.046,17H80.42V3.5h1.626Zm8.473-.94a3.454,3.454,0,0,1-2.786,1.116,2.956,2.956,0,0,1-2.316-.883,3.823,3.823,0,0,1-.8-2.615V7.49h1.626v6.144Q86.238,15.8,88,15.8a2.434,2.434,0,0,0,2.479-1.389V7.49H92.1V17H90.554ZM96.1,7.49l.044,1.055a3.512,3.512,0,0,1,2.821-1.23,2.719,2.719,0,0,1,2.716,1.529,3.6,3.6,0,0,1,1.235-1.107,3.647,3.647,0,0,1,1.8-.422q3.129,0,3.182,3.313V17h-1.626V10.725A2.184,2.184,0,0,0,105.8,9.2a2.051,2.051,0,0,0-1.564-.505,2.156,2.156,0,0,0-1.5.541,2.193,2.193,0,0,0-.694,1.455V17h-1.635V10.769a1.814,1.814,0,0,0-2.03-2.074,2.175,2.175,0,0,0-2.188,1.362V17H94.562V7.49Zm18.193,9.686a4.155,4.155,0,0,1-3.146-1.27,4.714,4.714,0,0,1-1.213-3.4v-.3a5.707,5.707,0,0,1,.541-2.527,4.217,4.217,0,0,1,1.512-1.74,3.8,3.8,0,0,1,2.1-.628,3.562,3.562,0,0,1,2.883,1.222,5.289,5.289,0,0,1,1.028,3.5v.677H111.56a3.38,3.38,0,0,0,.822,2.272,2.583,2.583,0,0,0,2,.866,2.832,2.832,0,0,0,1.459-.352,3.666,3.666,0,0,0,1.046-.932l.993.773A3.993,3.993,0,0,1,114.293,17.176Zm-.2-8.525a2.169,2.169,0,0,0-1.652.716,3.482,3.482,0,0,0-.826,2.008h4.764v-.123a3.1,3.1,0,0,0-.668-1.92A2.042,2.042,0,0,0,114.091,8.65Zm.791-5.133h1.969L114.5,6.1l-1.31,0Zm7.207,1.67v2.3h1.775V8.747h-1.775v5.9a1.32,1.32,0,0,0,.237.858,1,1,0,0,0,.809.286,3.937,3.937,0,0,0,.773-.105V17a4.742,4.742,0,0,1-1.248.175,2.025,2.025,0,0,1-1.644-.659,2.832,2.832,0,0,1-.554-1.872v-5.9h-1.731V7.49h1.731v-2.3Zm8.271,3.762a4.873,4.873,0,0,0-.8-.062,2.143,2.143,0,0,0-2.171,1.362V17h-1.626V7.49h1.582l.026,1.1a2.532,2.532,0,0,1,2.268-1.274,1.661,1.661,0,0,1,.721.123ZM133.62,17h-1.626V7.49h1.626ZM131.862,4.968A.971.971,0,0,1,132.1,4.3a.907.907,0,0,1,.716-.272.922.922,0,0,1,.721.272.96.96,0,0,1,.246.668.929.929,0,0,1-.246.659.938.938,0,0,1-.721.264.924.924,0,0,1-.716-.264A.938.938,0,0,1,131.862,4.968Zm8.174,10.881a2.342,2.342,0,0,0,1.521-.527A1.855,1.855,0,0,0,142.277,14h1.538a2.949,2.949,0,0,1-.562,1.556,3.7,3.7,0,0,1-1.384,1.178,3.994,3.994,0,0,1-1.833.439,3.918,3.918,0,0,1-3.089-1.3,5.163,5.163,0,0,1-1.147-3.546v-.272a5.725,5.725,0,0,1,.51-2.47,3.883,3.883,0,0,1,1.463-1.679,4.157,4.157,0,0,1,2.254-.6,3.814,3.814,0,0,1,2.659.958,3.424,3.424,0,0,1,1.129,2.487h-1.538a2.241,2.241,0,0,0-.7-1.516,2.174,2.174,0,0,0-1.551-.593,2.276,2.276,0,0,0-1.92.892,4.19,4.19,0,0,0-.681,2.58v.308a4.106,4.106,0,0,0,.677,2.531A2.287,2.287,0,0,0,140.036,15.849Zm5.177-3.691a5.617,5.617,0,0,1,.549-2.514,4.1,4.1,0,0,1,1.529-1.723,4.163,4.163,0,0,1,2.237-.606,4.01,4.01,0,0,1,3.142,1.345,5.174,5.174,0,0,1,1.2,3.577v.114a5.666,5.666,0,0,1-.532,2.492,4.038,4.038,0,0,1-1.521,1.718,4.211,4.211,0,0,1-2.272.615,4,4,0,0,1-3.133-1.345,5.147,5.147,0,0,1-1.2-3.56Zm1.635.193a4.068,4.068,0,0,0,.734,2.54,2.487,2.487,0,0,0,3.933-.013,4.449,4.449,0,0,0,.729-2.72,4.061,4.061,0,0,0-.743-2.536,2.361,2.361,0,0,0-1.973-.971,2.335,2.335,0,0,0-1.942.958A4.416,4.416,0,0,0,146.848,12.351Zm13.456-.545a13.589,13.589,0,0,1,.532-3.814,11.081,11.081,0,0,1,1.586-3.322A6.749,6.749,0,0,1,164.61,2.56l.334,1.072a7,7,0,0,0-2.1,3.006,13.031,13.031,0,0,0-.9,4.526l-.009.747a13.1,13.1,0,0,0,1.239,5.889,7.033,7.033,0,0,0,1.775,2.338l-.334.993a6.966,6.966,0,0,1-2.232-2.18A12.217,12.217,0,0,1,160.3,11.806Zm16.242-.791a7.9,7.9,0,0,1-.589,3.195,4.937,4.937,0,0,1-1.652,2.1L176.59,18.1l-1.151,1.063-2.7-2.145a5.49,5.49,0,0,1-1.336.158,4.774,4.774,0,0,1-4.5-2.861,7.6,7.6,0,0,1-.664-3.186v-.923a7.822,7.822,0,0,1,.642-3.261,4.745,4.745,0,0,1,4.5-2.918,4.955,4.955,0,0,1,2.72.747,4.819,4.819,0,0,1,1.806,2.149,7.893,7.893,0,0,1,.633,3.274Zm-1.687-.826a5.808,5.808,0,0,0-.9-3.485,3.251,3.251,0,0,0-5.08-.009,5.62,5.62,0,0,0-.945,3.379v.94a5.791,5.791,0,0,0,.918,3.463,3.246,3.246,0,0,0,5.084.075,5.714,5.714,0,0,0,.923-3.415Zm7.787,1.705a13.6,13.6,0,0,1-.514,3.757,11.11,11.11,0,0,1-1.573,3.318,6.893,6.893,0,0,1-2.219,2.162L178,20.138a7.066,7.066,0,0,0,2.175-3.221,13.935,13.935,0,0,0,.839-4.847v-.281a14.469,14.469,0,0,0-.387-3.432,11.583,11.583,0,0,0-1.077-2.843A6.567,6.567,0,0,0,178,3.553l.343-.993a6.866,6.866,0,0,1,2.21,2.145,11.134,11.134,0,0,1,1.573,3.313A13.909,13.909,0,0,1,182.646,11.894Zm9.94-2.048h-7.33V8.431h7.33Zm0,3.647h-7.33V12.087h7.33Z" transform="translate(550 7947)" fill="#fff"/>
    <path id="Trazado_737835" data-name="Trazado 737835" d="M4.421,10.962,6.53,7.49h1.9l-3.111,4.7L8.525,17H6.645l-2.2-3.56L2.25,17H.36l3.208-4.808L.457,7.49H2.338Z" transform="translate(851 7947)" fill="#fff"/>
    <path id="Trazado_737836" data-name="Trazado 737836" d="M4.421,10.962,6.53,7.49h1.9l-3.111,4.7L8.525,17H6.645l-2.2-3.56L2.25,17H.36l3.208-4.808L.457,7.49H2.338Z" transform="translate(960 7947)" fill="#fff"/>
    <path id="Trazado_737845" data-name="Trazado 737845" d="M10.9,12.939a4.708,4.708,0,0,1-1.5,3.133,4.911,4.911,0,0,1-3.353,1.1A4.509,4.509,0,0,1,2.413,15.55,6.542,6.542,0,0,1,1.046,11.2V9.969a7.291,7.291,0,0,1,.637-3.138A4.76,4.76,0,0,1,3.489,4.752,5.029,5.029,0,0,1,6.2,4.027a4.624,4.624,0,0,1,3.27,1.138A4.765,4.765,0,0,1,10.9,8.316H9.2a3.677,3.677,0,0,0-.954-2.222A2.885,2.885,0,0,0,6.2,5.407,3.019,3.019,0,0,0,3.661,6.6a5.492,5.492,0,0,0-.918,3.4v1.24a5.645,5.645,0,0,0,.87,3.316A2.812,2.812,0,0,0,6.047,15.8,3.247,3.247,0,0,0,8.2,15.159a3.536,3.536,0,0,0,1-2.219ZM18.817,17a3.416,3.416,0,0,1-.229-1,3.628,3.628,0,0,1-2.707,1.178,3.357,3.357,0,0,1-2.307-.8,2.573,2.573,0,0,1-.9-2.017A2.688,2.688,0,0,1,13.8,12.056a5.325,5.325,0,0,1,3.177-.822h1.582v-.747a1.826,1.826,0,0,0-.51-1.358,2.049,2.049,0,0,0-1.5-.505,2.371,2.371,0,0,0-1.459.439,1.3,1.3,0,0,0-.589,1.063H12.867a2.244,2.244,0,0,1,.505-1.375A3.449,3.449,0,0,1,14.744,7.7a4.613,4.613,0,0,1,1.9-.387,3.759,3.759,0,0,1,2.575.822,2.964,2.964,0,0,1,.967,2.263v4.377a5.351,5.351,0,0,0,.334,2.083V17Zm-2.7-1.239a2.858,2.858,0,0,0,1.45-.4,2.392,2.392,0,0,0,.993-1.028V12.386H17.288q-2.988,0-2.988,1.749a1.48,1.48,0,0,0,.51,1.2A1.959,1.959,0,0,0,16.119,15.761Zm12.489.3a3.454,3.454,0,0,1-2.786,1.116,2.956,2.956,0,0,1-2.316-.883,3.823,3.823,0,0,1-.8-2.615V7.49h1.626v6.144q0,2.162,1.758,2.162a2.434,2.434,0,0,0,2.479-1.389V7.49H30.19V17H28.644Zm3.656-3.894A5.571,5.571,0,0,1,33.3,8.646a3.529,3.529,0,0,1,5.361-.189V3.5h1.626V17H38.795l-.079-1.02A3.311,3.311,0,0,1,36,17.176a3.248,3.248,0,0,1-2.694-1.354,5.634,5.634,0,0,1-1.042-3.533Zm1.626.185a4.218,4.218,0,0,0,.668,2.531A2.159,2.159,0,0,0,36.4,15.8a2.372,2.372,0,0,0,2.259-1.389V10.039a2.39,2.39,0,0,0-2.241-1.345,2.17,2.17,0,0,0-1.863.923A4.644,4.644,0,0,0,33.891,12.351ZM48.683,17a3.416,3.416,0,0,1-.229-1,3.628,3.628,0,0,1-2.707,1.178,3.357,3.357,0,0,1-2.307-.8,2.573,2.573,0,0,1-.9-2.017,2.688,2.688,0,0,1,1.129-2.307,5.325,5.325,0,0,1,3.177-.822h1.582v-.747a1.826,1.826,0,0,0-.51-1.358,2.049,2.049,0,0,0-1.5-.505,2.371,2.371,0,0,0-1.459.439,1.3,1.3,0,0,0-.589,1.063H42.732a2.244,2.244,0,0,1,.505-1.375A3.449,3.449,0,0,1,44.609,7.7a4.613,4.613,0,0,1,1.9-.387,3.759,3.759,0,0,1,2.575.822,2.964,2.964,0,0,1,.967,2.263v4.377a5.351,5.351,0,0,0,.334,2.083V17Zm-2.7-1.239a2.858,2.858,0,0,0,1.45-.4,2.392,2.392,0,0,0,.993-1.028V12.386H47.153q-2.988,0-2.988,1.749a1.48,1.48,0,0,0,.51,1.2A1.959,1.959,0,0,0,45.984,15.761ZM54.369,17H52.743V3.5h1.626Zm10.2-2.206,2.355-7.3h1.661L65.171,17H63.932L60.486,7.49h1.661Zm5.019-2.637a5.617,5.617,0,0,1,.549-2.514,4.1,4.1,0,0,1,1.529-1.723A4.163,4.163,0,0,1,73.9,7.314a4.01,4.01,0,0,1,3.142,1.345,5.174,5.174,0,0,1,1.2,3.577v.114a5.666,5.666,0,0,1-.532,2.492,4.038,4.038,0,0,1-1.521,1.718,4.211,4.211,0,0,1-2.272.615,4,4,0,0,1-3.133-1.345,5.147,5.147,0,0,1-1.2-3.56Zm1.635.193a4.068,4.068,0,0,0,.734,2.54,2.487,2.487,0,0,0,3.933-.013,4.449,4.449,0,0,0,.729-2.72,4.061,4.061,0,0,0-.743-2.536A2.361,2.361,0,0,0,73.9,8.65a2.335,2.335,0,0,0-1.942.958A4.416,4.416,0,0,0,71.218,12.351ZM82.046,17H80.42V3.5h1.626Zm8.473-.94a3.454,3.454,0,0,1-2.786,1.116,2.956,2.956,0,0,1-2.316-.883,3.823,3.823,0,0,1-.8-2.615V7.49h1.626v6.144Q86.238,15.8,88,15.8a2.434,2.434,0,0,0,2.479-1.389V7.49H92.1V17H90.554ZM96.1,7.49l.044,1.055a3.512,3.512,0,0,1,2.821-1.23,2.719,2.719,0,0,1,2.716,1.529,3.6,3.6,0,0,1,1.235-1.107,3.647,3.647,0,0,1,1.8-.422q3.129,0,3.182,3.313V17h-1.626V10.725A2.184,2.184,0,0,0,105.8,9.2a2.051,2.051,0,0,0-1.564-.505,2.156,2.156,0,0,0-1.5.541,2.193,2.193,0,0,0-.694,1.455V17h-1.635V10.769a1.814,1.814,0,0,0-2.03-2.074,2.175,2.175,0,0,0-2.188,1.362V17H94.562V7.49Zm18.193,9.686a4.155,4.155,0,0,1-3.146-1.27,4.714,4.714,0,0,1-1.213-3.4v-.3a5.707,5.707,0,0,1,.541-2.527,4.217,4.217,0,0,1,1.512-1.74,3.8,3.8,0,0,1,2.1-.628,3.562,3.562,0,0,1,2.883,1.222,5.289,5.289,0,0,1,1.028,3.5v.677H111.56a3.38,3.38,0,0,0,.822,2.272,2.583,2.583,0,0,0,2,.866,2.832,2.832,0,0,0,1.459-.352,3.666,3.666,0,0,0,1.046-.932l.993.773A3.993,3.993,0,0,1,114.293,17.176Zm-.2-8.525a2.169,2.169,0,0,0-1.652.716,3.482,3.482,0,0,0-.826,2.008h4.764v-.123a3.1,3.1,0,0,0-.668-1.92A2.042,2.042,0,0,0,114.091,8.65Zm.791-5.133h1.969L114.5,6.1l-1.31,0Zm7.207,1.67v2.3h1.775V8.747h-1.775v5.9a1.32,1.32,0,0,0,.237.858,1,1,0,0,0,.809.286,3.937,3.937,0,0,0,.773-.105V17a4.742,4.742,0,0,1-1.248.175,2.025,2.025,0,0,1-1.644-.659,2.832,2.832,0,0,1-.554-1.872v-5.9h-1.731V7.49h1.731v-2.3Zm8.271,3.762a4.873,4.873,0,0,0-.8-.062,2.143,2.143,0,0,0-2.171,1.362V17h-1.626V7.49h1.582l.026,1.1a2.532,2.532,0,0,1,2.268-1.274,1.661,1.661,0,0,1,.721.123ZM133.62,17h-1.626V7.49h1.626ZM131.862,4.968A.971.971,0,0,1,132.1,4.3a.907.907,0,0,1,.716-.272.922.922,0,0,1,.721.272.96.96,0,0,1,.246.668.929.929,0,0,1-.246.659.938.938,0,0,1-.721.264.924.924,0,0,1-.716-.264A.938.938,0,0,1,131.862,4.968Zm8.174,10.881a2.342,2.342,0,0,0,1.521-.527A1.855,1.855,0,0,0,142.277,14h1.538a2.949,2.949,0,0,1-.562,1.556,3.7,3.7,0,0,1-1.384,1.178,3.994,3.994,0,0,1-1.833.439,3.918,3.918,0,0,1-3.089-1.3,5.163,5.163,0,0,1-1.147-3.546v-.272a5.725,5.725,0,0,1,.51-2.47,3.883,3.883,0,0,1,1.463-1.679,4.157,4.157,0,0,1,2.254-.6,3.814,3.814,0,0,1,2.659.958,3.424,3.424,0,0,1,1.129,2.487h-1.538a2.241,2.241,0,0,0-.7-1.516,2.174,2.174,0,0,0-1.551-.593,2.276,2.276,0,0,0-1.92.892,4.19,4.19,0,0,0-.681,2.58v.308a4.106,4.106,0,0,0,.677,2.531A2.287,2.287,0,0,0,140.036,15.849Zm5.177-3.691a5.617,5.617,0,0,1,.549-2.514,4.1,4.1,0,0,1,1.529-1.723,4.163,4.163,0,0,1,2.237-.606,4.01,4.01,0,0,1,3.142,1.345,5.174,5.174,0,0,1,1.2,3.577v.114a5.666,5.666,0,0,1-.532,2.492,4.038,4.038,0,0,1-1.521,1.718,4.211,4.211,0,0,1-2.272.615,4,4,0,0,1-3.133-1.345,5.147,5.147,0,0,1-1.2-3.56Zm1.635.193a4.068,4.068,0,0,0,.734,2.54,2.487,2.487,0,0,0,3.933-.013,4.449,4.449,0,0,0,.729-2.72,4.061,4.061,0,0,0-.743-2.536,2.361,2.361,0,0,0-1.973-.971,2.335,2.335,0,0,0-1.942.958A4.416,4.416,0,0,0,146.848,12.351Zm13.456-.545a13.589,13.589,0,0,1,.532-3.814,11.081,11.081,0,0,1,1.586-3.322A6.749,6.749,0,0,1,164.61,2.56l.334,1.072a7,7,0,0,0-2.1,3.006,13.031,13.031,0,0,0-.9,4.526l-.009.747a13.1,13.1,0,0,0,1.239,5.889,7.033,7.033,0,0,0,1.775,2.338l-.334.993a6.966,6.966,0,0,1-2.232-2.18A12.217,12.217,0,0,1,160.3,11.806Zm16.242-.791a7.9,7.9,0,0,1-.589,3.195,4.937,4.937,0,0,1-1.652,2.1L176.59,18.1l-1.151,1.063-2.7-2.145a5.49,5.49,0,0,1-1.336.158,4.774,4.774,0,0,1-4.5-2.861,7.6,7.6,0,0,1-.664-3.186v-.923a7.822,7.822,0,0,1,.642-3.261,4.745,4.745,0,0,1,4.5-2.918,4.955,4.955,0,0,1,2.72.747,4.819,4.819,0,0,1,1.806,2.149,7.893,7.893,0,0,1,.633,3.274Zm-1.687-.826a5.808,5.808,0,0,0-.9-3.485,3.251,3.251,0,0,0-5.08-.009,5.62,5.62,0,0,0-.945,3.379v.94a5.791,5.791,0,0,0,.918,3.463,3.246,3.246,0,0,0,5.084.075,5.714,5.714,0,0,0,.923-3.415Zm7.787,1.705a13.6,13.6,0,0,1-.514,3.757,11.11,11.11,0,0,1-1.573,3.318,6.893,6.893,0,0,1-2.219,2.162L178,20.138a7.066,7.066,0,0,0,2.175-3.221,13.935,13.935,0,0,0,.839-4.847v-.281a14.469,14.469,0,0,0-.387-3.432,11.583,11.583,0,0,0-1.077-2.843A6.567,6.567,0,0,0,178,3.553l.343-.993a6.866,6.866,0,0,1,2.21,2.145,11.134,11.134,0,0,1,1.573,3.313A13.909,13.909,0,0,1,182.646,11.894Zm9.94-2.048h-7.33V8.431h7.33Zm0,3.647h-7.33V12.087h7.33Z" transform="translate(550 8025.5)" fill="#fff"/>
    <path id="Trazado_737828" data-name="Trazado 737828" d="M3.437-11.812v2.3H5.212v1.257H3.437v5.9a1.32,1.32,0,0,0,.237.858,1,1,0,0,0,.809.286,3.937,3.937,0,0,0,.773-.105V0A4.742,4.742,0,0,1,4.008.176,2.025,2.025,0,0,1,2.364-.483a2.832,2.832,0,0,1-.554-1.872v-5.9H.079V-9.51H1.811v-2.3Z" transform="translate(799 7897)" fill="#fff"/>
    <path id="Trazado_737840" data-name="Trazado 737840" d="M9.448,0H1.063V-1.169l4.43-4.922A10.524,10.524,0,0,0,6.851-7.906a3.029,3.029,0,0,0,.374-1.446A2.3,2.3,0,0,0,6.618-11,2.12,2.12,0,0,0,5-11.637a2.511,2.511,0,0,0-1.885.69,2.635,2.635,0,0,0-.672,1.92H.817a3.774,3.774,0,0,1,1.138-2.856A4.219,4.219,0,0,1,5-12.973a4.054,4.054,0,0,1,2.821.936A3.193,3.193,0,0,1,8.859-9.545q0,1.89-2.408,4.5L3.023-1.327H9.448Zm7.875-9.51.044,1.055a3.512,3.512,0,0,1,2.821-1.23A2.719,2.719,0,0,1,22.9-8.156a3.6,3.6,0,0,1,1.235-1.107,3.647,3.647,0,0,1,1.8-.422q3.129,0,3.182,3.313V0H27.492V-6.275A2.184,2.184,0,0,0,27.026-7.8a2.051,2.051,0,0,0-1.564-.505,2.156,2.156,0,0,0-1.5.541,2.193,2.193,0,0,0-.694,1.455V0H21.63V-6.231A1.814,1.814,0,0,0,19.6-8.306a2.175,2.175,0,0,0-2.188,1.362V0H15.785V-9.51ZM33.337,0H31.711V-9.51h1.626ZM31.579-12.032a.971.971,0,0,1,.242-.668.907.907,0,0,1,.716-.272.922.922,0,0,1,.721.272.96.96,0,0,1,.246.668.929.929,0,0,1-.246.659.938.938,0,0,1-.721.264.924.924,0,0,1-.716-.264A.938.938,0,0,1,31.579-12.032Zm5.9,2.522.053,1.2a3.465,3.465,0,0,1,2.848-1.371q3.015,0,3.041,3.4V0H41.792V-6.293a2.189,2.189,0,0,0-.47-1.521,1.884,1.884,0,0,0-1.437-.492,2.347,2.347,0,0,0-1.389.422,2.865,2.865,0,0,0-.932,1.107V0H35.938V-9.51ZM51.741-.94A3.454,3.454,0,0,1,48.955.176a2.956,2.956,0,0,1-2.316-.883,3.823,3.823,0,0,1-.8-2.615V-9.51h1.626v6.144q0,2.162,1.758,2.162A2.434,2.434,0,0,0,51.7-2.593V-9.51h1.626V0H51.776ZM58-11.812v2.3h1.775v1.257H58v5.9a1.32,1.32,0,0,0,.237.858,1,1,0,0,0,.809.286,3.937,3.937,0,0,0,.773-.105V0A4.742,4.742,0,0,1,58.57.176a2.025,2.025,0,0,1-1.644-.659,2.832,2.832,0,0,1-.554-1.872v-5.9H54.642V-9.51h1.731v-2.3Zm3.067,6.97a5.617,5.617,0,0,1,.549-2.514,4.1,4.1,0,0,1,1.529-1.723,4.163,4.163,0,0,1,2.237-.606,4.01,4.01,0,0,1,3.142,1.345,5.174,5.174,0,0,1,1.2,3.577v.114a5.666,5.666,0,0,1-.532,2.492A4.038,4.038,0,0,1,67.671-.439,4.211,4.211,0,0,1,65.4.176a4,4,0,0,1-3.133-1.345,5.147,5.147,0,0,1-1.2-3.56Zm1.635.193a4.068,4.068,0,0,0,.734,2.54,2.349,2.349,0,0,0,1.964.958,2.335,2.335,0,0,0,1.969-.971,4.449,4.449,0,0,0,.729-2.72,4.061,4.061,0,0,0-.743-2.536,2.361,2.361,0,0,0-1.973-.971,2.335,2.335,0,0,0-1.942.958A4.416,4.416,0,0,0,62.7-4.649ZM77.3-2.522a1.2,1.2,0,0,0-.5-1.024,4.78,4.78,0,0,0-1.731-.628,8.186,8.186,0,0,1-1.96-.633,2.788,2.788,0,0,1-1.072-.879A2.1,2.1,0,0,1,71.692-6.9a2.467,2.467,0,0,1,.989-1.978,3.861,3.861,0,0,1,2.527-.809,3.974,3.974,0,0,1,2.624.835,2.652,2.652,0,0,1,1.006,2.136H77.2a1.468,1.468,0,0,0-.567-1.151,2.124,2.124,0,0,0-1.428-.483,2.223,2.223,0,0,0-1.389.387,1.217,1.217,0,0,0-.5,1.011.986.986,0,0,0,.466.888,5.731,5.731,0,0,0,1.683.571,8.77,8.77,0,0,1,1.973.65,2.878,2.878,0,0,1,1.121.91,2.237,2.237,0,0,1,.365,1.3,2.434,2.434,0,0,1-1.02,2.043,4.277,4.277,0,0,1-2.646.769,4.789,4.789,0,0,1-2.021-.4,3.288,3.288,0,0,1-1.375-1.129,2.722,2.722,0,0,1-.5-1.569h1.626a1.683,1.683,0,0,0,.655,1.3,2.54,2.54,0,0,0,1.613.479,2.622,2.622,0,0,0,1.481-.374A1.148,1.148,0,0,0,77.3-2.522Z" transform="translate(762 7976)" fill="#fff"/>
    <path id="Trazado_737841" data-name="Trazado 737841" d="M6.407,0H4.772V-10.837l-3.278,1.2v-1.477l4.658-1.749h.255ZM17.323-9.51l.044,1.055a3.512,3.512,0,0,1,2.821-1.23A2.719,2.719,0,0,1,22.9-8.156a3.6,3.6,0,0,1,1.235-1.107,3.647,3.647,0,0,1,1.8-.422q3.129,0,3.182,3.313V0H27.492V-6.275A2.184,2.184,0,0,0,27.026-7.8a2.051,2.051,0,0,0-1.564-.505,2.156,2.156,0,0,0-1.5.541,2.193,2.193,0,0,0-.694,1.455V0H21.63V-6.231A1.814,1.814,0,0,0,19.6-8.306a2.175,2.175,0,0,0-2.188,1.362V0H15.785V-9.51Zm15.016-.684h.713a1.566,1.566,0,0,0,1.056-.354,1.182,1.182,0,0,0,.384-.928,1.158,1.158,0,0,0-1.307-1.312,1.36,1.36,0,0,0-.982.351,1.229,1.229,0,0,0-.367.93h-.948a1.9,1.9,0,0,1,.649-1.474,2.363,2.363,0,0,1,1.648-.587,2.335,2.335,0,0,1,1.656.559,2.019,2.019,0,0,1,.6,1.553,1.639,1.639,0,0,1-.315.943,1.9,1.9,0,0,1-.859.682,1.834,1.834,0,0,1,.951.646,1.794,1.794,0,0,1,.336,1.1A2.036,2.036,0,0,1,34.9-6.487a2.457,2.457,0,0,1-1.707.59,2.522,2.522,0,0,1-1.71-.569,1.888,1.888,0,0,1-.659-1.5h.954a1.22,1.22,0,0,0,.385.943,1.462,1.462,0,0,0,1.03.354,1.435,1.435,0,0,0,1.051-.359,1.383,1.383,0,0,0,.364-1.03,1.255,1.255,0,0,0-.4-1,1.742,1.742,0,0,0-1.153-.359h-.713Z" transform="translate(893 7976)" fill="#fff"/>
    <path id="Trazado_737842" data-name="Trazado 737842" d="M7.444-12.806v1.38h-.3A4.281,4.281,0,0,0,4.122-10.3a4.681,4.681,0,0,0-1.3,3.067,3.471,3.471,0,0,1,2.76-1.16A3.319,3.319,0,0,1,8.249-7.216a4.543,4.543,0,0,1,1,3.041A4.528,4.528,0,0,1,8.169-1.011,3.707,3.707,0,0,1,5.282.176,3.653,3.653,0,0,1,2.3-1.235,5.591,5.591,0,0,1,1.16-4.869v-.624a8.424,8.424,0,0,1,1.507-5.4,5.536,5.536,0,0,1,4.487-1.912ZM5.309-7.04a2.594,2.594,0,0,0-1.538.5,2.61,2.61,0,0,0-.976,1.257v.6a4.2,4.2,0,0,0,.712,2.549,2.133,2.133,0,0,0,1.775.967,2.067,2.067,0,0,0,1.727-.809A3.355,3.355,0,0,0,7.638-4.1,3.356,3.356,0,0,0,7-6.227,2.042,2.042,0,0,0,5.309-7.04ZM19.2-5.458a7.436,7.436,0,0,1-.976,4.245A3.47,3.47,0,0,1,15.17.176a3.5,3.5,0,0,1-3.032-1.358,7.058,7.058,0,0,1-1.02-4.056V-7.409a7.271,7.271,0,0,1,.976-4.192,3.5,3.5,0,0,1,3.059-1.371,3.528,3.528,0,0,1,3.041,1.323,7.017,7.017,0,0,1,1,4.083ZM17.569-7.682a5.958,5.958,0,0,0-.58-3.01,2,2,0,0,0-1.837-.945,1.97,1.97,0,0,0-1.819.94A5.817,5.817,0,0,0,12.744-7.8v2.6a6.053,6.053,0,0,0,.6,3.063,1.993,1.993,0,0,0,1.824.989,1.966,1.966,0,0,0,1.789-.932,5.834,5.834,0,0,0,.611-2.936ZM31.438-2.522a1.2,1.2,0,0,0-.5-1.024,4.78,4.78,0,0,0-1.731-.628,8.186,8.186,0,0,1-1.96-.633,2.788,2.788,0,0,1-1.072-.879A2.1,2.1,0,0,1,25.831-6.9a2.467,2.467,0,0,1,.989-1.978,3.861,3.861,0,0,1,2.527-.809,3.974,3.974,0,0,1,2.624.835,2.652,2.652,0,0,1,1.006,2.136H31.342a1.468,1.468,0,0,0-.567-1.151,2.124,2.124,0,0,0-1.428-.483,2.223,2.223,0,0,0-1.389.387,1.217,1.217,0,0,0-.5,1.011.986.986,0,0,0,.466.888,5.731,5.731,0,0,0,1.683.571,8.77,8.77,0,0,1,1.973.65,2.878,2.878,0,0,1,1.121.91,2.237,2.237,0,0,1,.365,1.3,2.434,2.434,0,0,1-1.02,2.043A4.277,4.277,0,0,1,29.4.176a4.789,4.789,0,0,1-2.021-.4A3.288,3.288,0,0,1,26-1.358a2.722,2.722,0,0,1-.5-1.569h1.626a1.683,1.683,0,0,0,.655,1.3,2.54,2.54,0,0,0,1.613.479,2.622,2.622,0,0,0,1.481-.374A1.148,1.148,0,0,0,31.438-2.522Z" transform="translate(996 7976)" fill="#fff"/>
    <path id="Trazado_737846" data-name="Trazado 737846" d="M6.768-2.522a1.2,1.2,0,0,0-.5-1.024A4.78,4.78,0,0,0,4.54-4.175a8.186,8.186,0,0,1-1.96-.633,2.788,2.788,0,0,1-1.072-.879A2.1,2.1,0,0,1,1.16-6.9a2.467,2.467,0,0,1,.989-1.978,3.861,3.861,0,0,1,2.527-.809A3.974,3.974,0,0,1,7.3-8.851,2.652,2.652,0,0,1,8.306-6.715H6.671A1.468,1.468,0,0,0,6.1-7.866,2.124,2.124,0,0,0,4.676-8.35a2.223,2.223,0,0,0-1.389.387,1.217,1.217,0,0,0-.5,1.011.986.986,0,0,0,.466.888,5.731,5.731,0,0,0,1.683.571,8.77,8.77,0,0,1,1.973.65,2.878,2.878,0,0,1,1.121.91,2.237,2.237,0,0,1,.365,1.3A2.434,2.434,0,0,1,7.374-.593,4.277,4.277,0,0,1,4.729.176a4.789,4.789,0,0,1-2.021-.4A3.288,3.288,0,0,1,1.332-1.358a2.722,2.722,0,0,1-.5-1.569H2.461a1.683,1.683,0,0,0,.655,1.3,2.54,2.54,0,0,0,1.613.479,2.622,2.622,0,0,0,1.481-.374A1.148,1.148,0,0,0,6.768-2.522Z" transform="translate(848 8054)" fill="#fff"/>
    <path id="Trazado_737829" data-name="Trazado 737829" d="M5.722-2.241,9.378-12.8h1.846L6.478,0H4.983L.246-12.8H2.083Z" transform="translate(796 7873)" fill="#fff"/>
    <path id="Trazado_737831" data-name="Trazado 737831" d="M9.088-5.458a7.436,7.436,0,0,1-.976,4.245A3.47,3.47,0,0,1,5.063.176,3.5,3.5,0,0,1,2.03-1.182a7.058,7.058,0,0,1-1.02-4.056V-7.409A7.271,7.271,0,0,1,1.986-11.6a3.5,3.5,0,0,1,3.059-1.371A3.528,3.528,0,0,1,8.086-11.65a7.017,7.017,0,0,1,1,4.083ZM7.462-7.682a5.958,5.958,0,0,0-.58-3.01,2,2,0,0,0-1.837-.945,1.97,1.97,0,0,0-1.819.94A5.817,5.817,0,0,0,2.637-7.8v2.6a6.053,6.053,0,0,0,.6,3.063,1.993,1.993,0,0,0,1.824.989,1.966,1.966,0,0,0,1.789-.932,5.834,5.834,0,0,0,.611-2.936Zm3.823,10.23-.923-.633a4.241,4.241,0,0,0,.861-2.373V-1.925h1.591V-.65a4,4,0,0,1-.435,1.775A4.156,4.156,0,0,1,11.285,2.549ZM21.568-4.3h1.775v1.327H21.568V0H19.934V-2.971H14.106v-.958l5.73-8.868h1.731Zm-5.616,0h3.981v-6.275l-.193.352Zm9.606-2.118.65-6.381h6.557v1.5H27.589L27.2-7.8a4.13,4.13,0,0,1,2.136-.554A3.531,3.531,0,0,1,32.115-7.2a4.53,4.53,0,0,1,1.028,3.125A4.372,4.372,0,0,1,32.076-.962,3.892,3.892,0,0,1,29.092.176a4.045,4.045,0,0,1-2.769-.94,3.754,3.754,0,0,1-1.222-2.6H26.64a2.582,2.582,0,0,0,.782,1.657,2.432,2.432,0,0,0,1.67.558,2.194,2.194,0,0,0,1.78-.773,3.233,3.233,0,0,0,.646-2.136,2.968,2.968,0,0,0-.7-2.061A2.377,2.377,0,0,0,28.96-6.9a2.681,2.681,0,0,0-1.67.466l-.431.352Zm17.385.958a7.436,7.436,0,0,1-.976,4.245A3.47,3.47,0,0,1,38.918.176a3.5,3.5,0,0,1-3.032-1.358,7.058,7.058,0,0,1-1.02-4.056V-7.409a7.271,7.271,0,0,1,.976-4.192A3.5,3.5,0,0,1,38.9-12.973a3.528,3.528,0,0,1,3.041,1.323,7.017,7.017,0,0,1,1,4.083ZM41.317-7.682a5.958,5.958,0,0,0-.58-3.01,2,2,0,0,0-1.837-.945,1.97,1.97,0,0,0-1.819.94A5.817,5.817,0,0,0,36.492-7.8v2.6a6.053,6.053,0,0,0,.6,3.063,1.993,1.993,0,0,0,1.824.989,1.966,1.966,0,0,0,1.789-.932,5.834,5.834,0,0,0,.611-2.936ZM51.179-9.51l.044,1.055a3.512,3.512,0,0,1,2.821-1.23A2.719,2.719,0,0,1,56.76-8.156a3.6,3.6,0,0,1,1.235-1.107,3.647,3.647,0,0,1,1.8-.422q3.129,0,3.182,3.313V0H61.348V-6.275A2.184,2.184,0,0,0,60.882-7.8a2.051,2.051,0,0,0-1.564-.505,2.156,2.156,0,0,0-1.5.541,2.193,2.193,0,0,0-.694,1.455V0H55.485V-6.231a1.814,1.814,0,0,0-2.03-2.074,2.175,2.175,0,0,0-2.188,1.362V0H49.641V-9.51Zm15.016-.684h.713a1.566,1.566,0,0,0,1.056-.354,1.182,1.182,0,0,0,.384-.928,1.158,1.158,0,0,0-1.307-1.312,1.36,1.36,0,0,0-.982.351,1.229,1.229,0,0,0-.367.93h-.948a1.9,1.9,0,0,1,.649-1.474,2.363,2.363,0,0,1,1.648-.587,2.335,2.335,0,0,1,1.656.559,2.019,2.019,0,0,1,.6,1.553,1.638,1.638,0,0,1-.315.943,1.9,1.9,0,0,1-.859.682,1.834,1.834,0,0,1,.951.646,1.794,1.794,0,0,1,.336,1.1,2.036,2.036,0,0,1-.656,1.594,2.457,2.457,0,0,1-1.707.59,2.522,2.522,0,0,1-1.71-.569,1.888,1.888,0,0,1-.659-1.5h.954a1.22,1.22,0,0,0,.384.943,1.462,1.462,0,0,0,1.03.354A1.435,1.435,0,0,0,68.1-7.03a1.383,1.383,0,0,0,.364-1.03,1.255,1.255,0,0,0-.4-1,1.742,1.742,0,0,0-1.153-.359h-.713Z" transform="translate(767 7951)" fill="#fff"/>
    <path id="Trazado_737832" data-name="Trazado 737832" d="M6.407,0H4.772V-10.837l-3.278,1.2v-1.477l4.658-1.749h.255ZM19.2-5.458a7.436,7.436,0,0,1-.976,4.245A3.47,3.47,0,0,1,15.17.176a3.5,3.5,0,0,1-3.032-1.358,7.058,7.058,0,0,1-1.02-4.056V-7.409a7.271,7.271,0,0,1,.976-4.192,3.5,3.5,0,0,1,3.059-1.371,3.528,3.528,0,0,1,3.041,1.323,7.017,7.017,0,0,1,1,4.083ZM17.569-7.682a5.958,5.958,0,0,0-.58-3.01,2,2,0,0,0-1.837-.945,1.97,1.97,0,0,0-1.819.94A5.817,5.817,0,0,0,12.744-7.8v2.6a6.053,6.053,0,0,0,.6,3.063,1.993,1.993,0,0,0,1.824.989,1.966,1.966,0,0,0,1.789-.932,5.834,5.834,0,0,0,.611-2.936ZM29.3-5.458a7.436,7.436,0,0,1-.976,4.245A3.47,3.47,0,0,1,25.277.176a3.5,3.5,0,0,1-3.032-1.358,7.058,7.058,0,0,1-1.02-4.056V-7.409A7.271,7.271,0,0,1,22.2-11.6a3.5,3.5,0,0,1,3.059-1.371A3.528,3.528,0,0,1,28.3-11.65a7.017,7.017,0,0,1,1,4.083ZM27.677-7.682a5.958,5.958,0,0,0-.58-3.01,2,2,0,0,0-1.837-.945,1.97,1.97,0,0,0-1.819.94A5.817,5.817,0,0,0,22.852-7.8v2.6a6.053,6.053,0,0,0,.6,3.063,1.993,1.993,0,0,0,1.824.989,1.966,1.966,0,0,0,1.789-.932,5.834,5.834,0,0,0,.611-2.936ZM39.41-5.458a7.436,7.436,0,0,1-.976,4.245A3.47,3.47,0,0,1,35.385.176a3.5,3.5,0,0,1-3.032-1.358,7.058,7.058,0,0,1-1.02-4.056V-7.409a7.271,7.271,0,0,1,.976-4.192,3.5,3.5,0,0,1,3.059-1.371,3.528,3.528,0,0,1,3.041,1.323,7.017,7.017,0,0,1,1,4.083ZM37.784-7.682a5.958,5.958,0,0,0-.58-3.01,2,2,0,0,0-1.837-.945,1.97,1.97,0,0,0-1.819.94A5.817,5.817,0,0,0,32.959-7.8v2.6a6.053,6.053,0,0,0,.6,3.063,1.993,1.993,0,0,0,1.824.989,1.966,1.966,0,0,0,1.789-.932,5.834,5.834,0,0,0,.611-2.936ZM47.883,0H46.257V-13.5h1.626Zm4.368,0H50.625V-9.51h1.626ZM50.493-12.032a.971.971,0,0,1,.242-.668.907.907,0,0,1,.716-.272.922.922,0,0,1,.721.272.96.96,0,0,1,.246.668.929.929,0,0,1-.246.659.938.938,0,0,1-.721.264.924.924,0,0,1-.716-.264A.938.938,0,0,1,50.493-12.032Zm6.565.22v2.3h1.775v1.257H57.059v5.9a1.32,1.32,0,0,0,.237.858A1,1,0,0,0,58.1-1.2a3.937,3.937,0,0,0,.773-.105V0A4.742,4.742,0,0,1,57.63.176a2.025,2.025,0,0,1-1.644-.659,2.832,2.832,0,0,1-.554-1.872v-5.9H53.7V-9.51h1.731v-2.3Zm8.271,3.762a4.873,4.873,0,0,0-.8-.062A2.143,2.143,0,0,0,62.358-6.75V0H60.732V-9.51h1.582l.026,1.1a2.532,2.532,0,0,1,2.268-1.274,1.661,1.661,0,0,1,.721.123Zm.888,3.208a5.617,5.617,0,0,1,.549-2.514A4.1,4.1,0,0,1,68.3-9.079a4.163,4.163,0,0,1,2.237-.606,4.01,4.01,0,0,1,3.142,1.345,5.174,5.174,0,0,1,1.2,3.577v.114a5.666,5.666,0,0,1-.532,2.492A4.038,4.038,0,0,1,72.822-.439,4.211,4.211,0,0,1,70.55.176a4,4,0,0,1-3.133-1.345,5.147,5.147,0,0,1-1.2-3.56Zm1.635.193a4.068,4.068,0,0,0,.734,2.54,2.349,2.349,0,0,0,1.964.958,2.335,2.335,0,0,0,1.969-.971,4.449,4.449,0,0,0,.729-2.72,4.061,4.061,0,0,0-.743-2.536,2.361,2.361,0,0,0-1.973-.971,2.335,2.335,0,0,0-1.942.958A4.416,4.416,0,0,0,67.852-4.649Zm14.6,2.127a1.2,1.2,0,0,0-.5-1.024,4.78,4.78,0,0,0-1.731-.628,8.186,8.186,0,0,1-1.96-.633,2.788,2.788,0,0,1-1.072-.879A2.1,2.1,0,0,1,76.843-6.9a2.467,2.467,0,0,1,.989-1.978,3.861,3.861,0,0,1,2.527-.809,3.974,3.974,0,0,1,2.624.835,2.652,2.652,0,0,1,1.006,2.136H82.354a1.468,1.468,0,0,0-.567-1.151,2.124,2.124,0,0,0-1.428-.483,2.223,2.223,0,0,0-1.389.387,1.217,1.217,0,0,0-.5,1.011.986.986,0,0,0,.466.888,5.731,5.731,0,0,0,1.683.571,8.77,8.77,0,0,1,1.973.65,2.878,2.878,0,0,1,1.121.91,2.237,2.237,0,0,1,.365,1.3,2.434,2.434,0,0,1-1.02,2.043,4.277,4.277,0,0,1-2.646.769,4.789,4.789,0,0,1-2.021-.4,3.288,3.288,0,0,1-1.375-1.129,2.722,2.722,0,0,1-.5-1.569h1.626a1.683,1.683,0,0,0,.655,1.3,2.54,2.54,0,0,0,1.613.479,2.622,2.622,0,0,0,1.481-.374A1.148,1.148,0,0,0,82.45-2.522Z" transform="translate(869 7951)" fill="#fff"/>
    <path id="Trazado_737833" data-name="Trazado 737833" d="M6.407,0H4.772V-10.837l-3.278,1.2v-1.477l4.658-1.749h.255ZM17.323-9.51l.044,1.055a3.512,3.512,0,0,1,2.821-1.23A2.719,2.719,0,0,1,22.9-8.156a3.6,3.6,0,0,1,1.235-1.107,3.647,3.647,0,0,1,1.8-.422q3.129,0,3.182,3.313V0H27.492V-6.275A2.184,2.184,0,0,0,27.026-7.8a2.051,2.051,0,0,0-1.564-.505,2.156,2.156,0,0,0-1.5.541,2.193,2.193,0,0,0-.694,1.455V0H21.63V-6.231A1.814,1.814,0,0,0,19.6-8.306a2.175,2.175,0,0,0-2.188,1.362V0H15.785V-9.51ZM33.337,0H31.711V-9.51h1.626ZM31.579-12.032a.971.971,0,0,1,.242-.668.907.907,0,0,1,.716-.272.922.922,0,0,1,.721.272.96.96,0,0,1,.246.668.929.929,0,0,1-.246.659.938.938,0,0,1-.721.264.924.924,0,0,1-.716-.264A.938.938,0,0,1,31.579-12.032Zm5.9,2.522.053,1.2a3.465,3.465,0,0,1,2.848-1.371q3.015,0,3.041,3.4V0H41.792V-6.293a2.189,2.189,0,0,0-.47-1.521,1.884,1.884,0,0,0-1.437-.492,2.347,2.347,0,0,0-1.389.422,2.865,2.865,0,0,0-.932,1.107V0H35.938V-9.51ZM51.741-.94A3.454,3.454,0,0,1,48.955.176a2.956,2.956,0,0,1-2.316-.883,3.823,3.823,0,0,1-.8-2.615V-9.51h1.626v6.144q0,2.162,1.758,2.162A2.434,2.434,0,0,0,51.7-2.593V-9.51h1.626V0H51.776ZM58-11.812v2.3h1.775v1.257H58v5.9a1.32,1.32,0,0,0,.237.858,1,1,0,0,0,.809.286,3.937,3.937,0,0,0,.773-.105V0A4.742,4.742,0,0,1,58.57.176a2.025,2.025,0,0,1-1.644-.659,2.832,2.832,0,0,1-.554-1.872v-5.9H54.642V-9.51h1.731v-2.3Zm3.067,6.97a5.617,5.617,0,0,1,.549-2.514,4.1,4.1,0,0,1,1.529-1.723,4.163,4.163,0,0,1,2.237-.606,4.01,4.01,0,0,1,3.142,1.345,5.174,5.174,0,0,1,1.2,3.577v.114a5.666,5.666,0,0,1-.532,2.492A4.038,4.038,0,0,1,67.671-.439,4.211,4.211,0,0,1,65.4.176a4,4,0,0,1-3.133-1.345,5.147,5.147,0,0,1-1.2-3.56Zm1.635.193a4.068,4.068,0,0,0,.734,2.54,2.349,2.349,0,0,0,1.964.958,2.335,2.335,0,0,0,1.969-.971,4.449,4.449,0,0,0,.729-2.72,4.061,4.061,0,0,0-.743-2.536,2.361,2.361,0,0,0-1.973-.971,2.335,2.335,0,0,0-1.942.958A4.416,4.416,0,0,0,62.7-4.649Z" transform="translate(977 7951)" fill="#fff"/>
    <path id="Trazado_737843" data-name="Trazado 737843" d="M3,0H1.371V-13.5H3ZM7.365,0H5.739V-9.51H7.365ZM5.607-12.032a.971.971,0,0,1,.242-.668.907.907,0,0,1,.716-.272.922.922,0,0,1,.721.272.96.96,0,0,1,.246.668.929.929,0,0,1-.246.659.938.938,0,0,1-.721.264.924.924,0,0,1-.716-.264A.938.938,0,0,1,5.607-12.032Zm6.565.22v2.3h1.775v1.257H12.173v5.9a1.32,1.32,0,0,0,.237.858,1,1,0,0,0,.809.286,3.937,3.937,0,0,0,.773-.105V0a4.742,4.742,0,0,1-1.248.175A2.025,2.025,0,0,1,11.1-.483a2.832,2.832,0,0,1-.554-1.872v-5.9H8.815V-9.51h1.731v-2.3Zm8.271,3.762a4.873,4.873,0,0,0-.8-.062A2.143,2.143,0,0,0,17.473-6.75V0H15.847V-9.51h1.582l.026,1.1a2.532,2.532,0,0,1,2.268-1.274,1.661,1.661,0,0,1,.721.123Zm.888,3.208a5.617,5.617,0,0,1,.549-2.514A4.1,4.1,0,0,1,23.41-9.079a4.163,4.163,0,0,1,2.237-.606,4.01,4.01,0,0,1,3.142,1.345,5.174,5.174,0,0,1,1.2,3.577v.114a5.666,5.666,0,0,1-.532,2.492A4.038,4.038,0,0,1,27.936-.439a4.211,4.211,0,0,1-2.272.615,4,4,0,0,1-3.133-1.345,5.147,5.147,0,0,1-1.2-3.56Zm1.635.193a4.068,4.068,0,0,0,.734,2.54,2.349,2.349,0,0,0,1.964.958,2.335,2.335,0,0,0,1.969-.971,4.449,4.449,0,0,0,.729-2.72,4.061,4.061,0,0,0-.743-2.536,2.361,2.361,0,0,0-1.973-.971,2.335,2.335,0,0,0-1.942.958A4.416,4.416,0,0,0,22.966-4.649Zm14.6,2.127a1.2,1.2,0,0,0-.5-1.024,4.78,4.78,0,0,0-1.731-.628,8.186,8.186,0,0,1-1.96-.633A2.788,2.788,0,0,1,32.3-5.687,2.1,2.1,0,0,1,31.957-6.9a2.467,2.467,0,0,1,.989-1.978,3.861,3.861,0,0,1,2.527-.809,3.974,3.974,0,0,1,2.624.835A2.652,2.652,0,0,1,39.1-6.715H37.468A1.468,1.468,0,0,0,36.9-7.866a2.124,2.124,0,0,0-1.428-.483,2.223,2.223,0,0,0-1.389.387,1.217,1.217,0,0,0-.5,1.011.986.986,0,0,0,.466.888,5.731,5.731,0,0,0,1.683.571,8.77,8.77,0,0,1,1.973.65,2.878,2.878,0,0,1,1.121.91,2.237,2.237,0,0,1,.365,1.3,2.434,2.434,0,0,1-1.02,2.043,4.277,4.277,0,0,1-2.646.769,4.789,4.789,0,0,1-2.021-.4,3.288,3.288,0,0,1-1.375-1.129,2.722,2.722,0,0,1-.5-1.569h1.626a1.683,1.683,0,0,0,.655,1.3,2.54,2.54,0,0,0,1.613.479,2.622,2.622,0,0,0,1.481-.374A1.148,1.148,0,0,0,37.564-2.522Z" transform="translate(833 8029.5)" fill="#fff"/>
    <path id="Trazado_737830" data-name="Trazado 737830" d="M0,0H85" transform="translate(759.5 7879)" fill="none" stroke="#fff" stroke-width="2"/>
    <path id="Trazado_737837" data-name="Trazado 737837" d="M0,0H85" transform="translate(759.5 7957.5)" fill="none" stroke="#fff" stroke-width="2"/>
    <path id="Trazado_737838" data-name="Trazado 737838" d="M0,0H85" transform="translate(868.5 7957.5)" fill="none" stroke="#fff" stroke-width="2"/>
    <path id="Trazado_737839" data-name="Trazado 737839" d="M0,0H85" transform="translate(970.5 7957.5)" fill="none" stroke="#fff" stroke-width="2"/>
    <path id="Trazado_737847" data-name="Trazado 737847" d="M0,0H85" transform="translate(810.5 8036)" fill="none" stroke="#fff" stroke-width="2"/>
    <path id="Trazado_737844" data-name="Trazado 737844" d="M3.428-7.189H4.649A2.685,2.685,0,0,0,6.46-7.8a2.026,2.026,0,0,0,.659-1.591,1.985,1.985,0,0,0-2.241-2.25,2.331,2.331,0,0,0-1.683.6,2.107,2.107,0,0,0-.628,1.6H.94a3.264,3.264,0,0,1,1.112-2.527,4.05,4.05,0,0,1,2.826-1.006,4,4,0,0,1,2.839.958A3.461,3.461,0,0,1,8.745-9.352,2.809,2.809,0,0,1,8.2-7.734,3.264,3.264,0,0,1,6.732-6.565a3.145,3.145,0,0,1,1.63,1.107,3.076,3.076,0,0,1,.576,1.89A3.491,3.491,0,0,1,7.813-.835,4.213,4.213,0,0,1,4.887.176,4.324,4.324,0,0,1,1.956-.8,3.236,3.236,0,0,1,.826-3.375H2.461A2.092,2.092,0,0,0,3.12-1.758a2.507,2.507,0,0,0,1.767.606,2.46,2.46,0,0,0,1.8-.615,2.371,2.371,0,0,0,.624-1.767,2.151,2.151,0,0,0-.686-1.714,2.987,2.987,0,0,0-1.978-.615H3.428Zm7.857,9.738-.923-.633a4.241,4.241,0,0,0,.861-2.373V-1.925h1.591V-.65a4,4,0,0,1-.435,1.775A4.156,4.156,0,0,1,11.285,2.549ZM22.966-11.883,17.666,0H15.961l5.282-11.461H14.317V-12.8h8.648Zm2.593,5.467.65-6.381h6.557v1.5H27.589L27.2-7.8a4.13,4.13,0,0,1,2.136-.554A3.531,3.531,0,0,1,32.115-7.2a4.53,4.53,0,0,1,1.028,3.125A4.372,4.372,0,0,1,32.076-.962,3.892,3.892,0,0,1,29.092.176a4.045,4.045,0,0,1-2.769-.94,3.754,3.754,0,0,1-1.222-2.6H26.64a2.582,2.582,0,0,0,.782,1.657,2.432,2.432,0,0,0,1.67.558,2.194,2.194,0,0,0,1.78-.773,3.233,3.233,0,0,0,.646-2.136,2.968,2.968,0,0,0-.7-2.061A2.377,2.377,0,0,0,28.96-6.9a2.681,2.681,0,0,0-1.67.466l-.431.352Z" transform="translate(765 8041)" fill="#fff"/>
  </g>
</svg>
