<svg xmlns="http://www.w3.org/2000/svg" width="335" height="40" viewBox="0 0 335 40">
  <g id="Grupo_1013616" data-name="Grupo 1013616" transform="translate(-580 -4313)">
    <g id="Trazado_732205" data-name="Trazado 732205" transform="translate(580 4313)" fill="#ffa031">
      <path d="M 325 39.5 L 10 39.5 C 4.761666774749756 39.5 0.5 35.23833465576172 0.5 30 L 0.5 10 C 0.5 4.761666774749756 4.761666774749756 0.5 10 0.5 L 325 0.5 C 330.2383422851562 0.5 334.5 4.761666774749756 334.5 10 L 334.5 30 C 334.5 35.23833465576172 330.2383422851562 39.5 325 39.5 Z" stroke="none"/>
      <path d="M 10 1 C 5.037384033203125 1 1 5.037376403808594 1 10 L 1 30 C 1 34.96262359619141 5.037384033203125 39 10 39 L 325 39 C 329.9626159667969 39 334 34.96262359619141 334 30 L 334 10 C 334 5.037376403808594 329.9626159667969 1 325 1 L 10 1 M 10 0 L 325 0 C 330.5228271484375 0 335 4.477165222167969 335 10 L 335 30 C 335 35.52283477783203 330.5228271484375 40 325 40 L 10 40 C 4.47711181640625 40 0 35.52283477783203 0 30 L 0 10 C 0 4.477165222167969 4.47711181640625 0 10 0 Z" stroke="none" fill="#fff"/>
    </g>
    <path id="Trazado_732206" data-name="Trazado 732206" d="M5.871,13.827,8.771,4.2h2.936L7.251,17H4.5L.062,4.2H2.988Zm6.073-1.67a5.64,5.64,0,0,1,.545-2.522,3.989,3.989,0,0,1,1.569-1.714,4.577,4.577,0,0,1,2.377-.606,4.33,4.33,0,0,1,3.142,1.178,4.727,4.727,0,0,1,1.358,3.2l.018.65a4.97,4.97,0,0,1-1.222,3.511,4.247,4.247,0,0,1-3.278,1.323,4.268,4.268,0,0,1-3.283-1.318,5.058,5.058,0,0,1-1.226-3.586Zm2.54.18a3.555,3.555,0,0,0,.51,2.073,1.831,1.831,0,0,0,2.9.009,3.89,3.89,0,0,0,.519-2.267,3.519,3.519,0,0,0-.519-2.06,1.686,1.686,0,0,0-1.459-.731,1.658,1.658,0,0,0-1.441.726A3.955,3.955,0,0,0,14.484,12.338ZM25.2,17H22.649V3.5H25.2Zm7.787-.967a3.185,3.185,0,0,1-2.6,1.143A3,3,0,0,1,28.05,16.3a3.752,3.752,0,0,1-.822-2.575V7.49h2.54v6.151q0,1.487,1.354,1.487a1.834,1.834,0,0,0,1.775-.9V7.49h2.549V17H33.056ZM39.744,7.49l.079,1.063a3.342,3.342,0,0,1,2.733-1.239,2.536,2.536,0,0,1,2.522,1.45,3.265,3.265,0,0,1,2.856-1.45,2.836,2.836,0,0,1,2.3.9,4.141,4.141,0,0,1,.756,2.711V17H48.445V10.922a1.818,1.818,0,0,0-.316-1.185,1.4,1.4,0,0,0-1.116-.374,1.585,1.585,0,0,0-1.582,1.092L45.439,17H42.9V10.93a1.8,1.8,0,0,0-.325-1.2,1.414,1.414,0,0,0-1.107-.37,1.645,1.645,0,0,0-1.564.9V17h-2.54V7.49Zm17.578,9.686a4.668,4.668,0,0,1-3.406-1.283A4.561,4.561,0,0,1,52.6,12.474v-.246a5.745,5.745,0,0,1,.554-2.562,4.064,4.064,0,0,1,1.569-1.74,4.4,4.4,0,0,1,2.316-.611,3.947,3.947,0,0,1,3.072,1.23,5,5,0,0,1,1.121,3.489v1.037H55.178a2.36,2.36,0,0,0,.743,1.494,2.245,2.245,0,0,0,1.569.563,2.742,2.742,0,0,0,2.294-1.063l1.248,1.4a3.813,3.813,0,0,1-1.547,1.261A5.075,5.075,0,0,1,57.322,17.176Zm-.29-7.813a1.587,1.587,0,0,0-1.226.512,2.651,2.651,0,0,0-.6,1.466h3.533v-.2a1.891,1.891,0,0,0-.457-1.311A1.638,1.638,0,0,0,57.032,9.362Zm7.98-1.872.079,1.1a3.32,3.32,0,0,1,2.733-1.274,2.759,2.759,0,0,1,2.25.888,4.142,4.142,0,0,1,.756,2.654V17h-2.54V10.9a1.654,1.654,0,0,0-.352-1.176,1.572,1.572,0,0,0-1.169-.366,1.747,1.747,0,0,0-1.608.916V17h-2.54V7.49ZM80.279,5.152V7.49h1.626V9.354H80.279V14.1a1.133,1.133,0,0,0,.2.756,1.015,1.015,0,0,0,.773.229A4.051,4.051,0,0,0,82,15.022v1.925a5.229,5.229,0,0,1-1.538.229,2.425,2.425,0,0,1-2.725-2.7V9.354H76.351V7.49h1.389V5.152ZM88.831,17a2.821,2.821,0,0,1-.255-.853,3.073,3.073,0,0,1-2.4,1.028,3.376,3.376,0,0,1-2.316-.809,2.6,2.6,0,0,1-.918-2.039,2.687,2.687,0,0,1,1.121-2.32A5.529,5.529,0,0,1,87.3,11.19h1.169v-.545a1.567,1.567,0,0,0-.338-1.055,1.331,1.331,0,0,0-1.068-.4,1.513,1.513,0,0,0-1.006.308,1.045,1.045,0,0,0-.365.844h-2.54a2.551,2.551,0,0,1,.51-1.529,3.37,3.37,0,0,1,1.441-1.1,5.253,5.253,0,0,1,2.092-.4,4.15,4.15,0,0,1,2.791.883,3.09,3.09,0,0,1,1.033,2.483V14.8a4.546,4.546,0,0,0,.378,2.048V17Zm-2.1-1.767a2.188,2.188,0,0,0,1.037-.25,1.645,1.645,0,0,0,.7-.672V12.676h-.949q-1.907,0-2.03,1.318l-.009.149a1.017,1.017,0,0,0,.334.782A1.3,1.3,0,0,0,86.73,15.233ZM95.309,7.49l.079,1.1a3.32,3.32,0,0,1,2.733-1.274,2.759,2.759,0,0,1,2.25.888,4.142,4.142,0,0,1,.756,2.654V17h-2.54V10.9a1.654,1.654,0,0,0-.352-1.176,1.572,1.572,0,0,0-1.169-.366,1.747,1.747,0,0,0-1.608.916V17h-2.54V7.49Zm7.348,4.667a5.684,5.684,0,0,1,1-3.542,3.261,3.261,0,0,1,2.738-1.3,2.92,2.92,0,0,1,2.435,1.169l.167-.993h2.232V20.656h-2.549V16.183a2.928,2.928,0,0,1-2.3.993,3.237,3.237,0,0,1-2.707-1.318A5.963,5.963,0,0,1,102.656,12.157Zm2.54.18a3.729,3.729,0,0,0,.479,2.077,1.533,1.533,0,0,0,1.349.713,1.708,1.708,0,0,0,1.652-.933V10.26a1.694,1.694,0,0,0-1.635-.9,1.552,1.552,0,0,0-1.362.713A4.118,4.118,0,0,0,105.2,12.338Zm13.72,3.7a3.185,3.185,0,0,1-2.6,1.143,3,3,0,0,1-2.333-.879,3.752,3.752,0,0,1-.822-2.575V7.49h2.54v6.151q0,1.487,1.354,1.487a1.834,1.834,0,0,0,1.775-.9V7.49h2.549V17h-2.391Zm8.754,1.143a4.668,4.668,0,0,1-3.406-1.283,4.561,4.561,0,0,1-1.314-3.419v-.246a5.745,5.745,0,0,1,.554-2.562,4.064,4.064,0,0,1,1.569-1.74,4.4,4.4,0,0,1,2.316-.611,3.947,3.947,0,0,1,3.072,1.23,5,5,0,0,1,1.121,3.489v1.037h-6.056a2.36,2.36,0,0,0,.743,1.494,2.245,2.245,0,0,0,1.569.563,2.742,2.742,0,0,0,2.294-1.063l1.248,1.4a3.813,3.813,0,0,1-1.547,1.261A5.075,5.075,0,0,1,127.67,17.176Zm-.29-7.813a1.587,1.587,0,0,0-1.226.512,2.651,2.651,0,0,0-.6,1.466h3.533v-.2a1.891,1.891,0,0,0-.457-1.311A1.638,1.638,0,0,0,127.38,9.362Zm18.2,1.081h-7.857V8.369h7.857Zm0,3.806h-7.857V12.175h7.857ZM160.954,17h-8.771V15.26l4.14-4.412a10.212,10.212,0,0,0,1.261-1.626,2.612,2.612,0,0,0,.409-1.318,1.955,1.955,0,0,0-.431-1.34,1.555,1.555,0,0,0-1.23-.488,1.677,1.677,0,0,0-1.358.593,2.35,2.35,0,0,0-.5,1.56h-2.549a4.2,4.2,0,0,1,.558-2.136,3.934,3.934,0,0,1,1.578-1.516,4.8,4.8,0,0,1,2.312-.549,4.54,4.54,0,0,1,3.072.949,3.358,3.358,0,0,1,1.094,2.681,4.3,4.3,0,0,1-.492,1.934,10.745,10.745,0,0,1-1.687,2.294l-2.909,3.067h5.5Zm7.726,0h-2.54V7.2l-3.032.936V6.084l5.3-1.9h.272Zm5.7-12.208-.255,3.551h-1.608V3.5h1.863Zm3.946,4.685h1.354a1.907,1.907,0,0,0,1.433-.483,1.771,1.771,0,0,0,.466-1.283,1.566,1.566,0,0,0-.461-1.2,1.788,1.788,0,0,0-1.27-.431,1.874,1.874,0,0,0-1.222.4,1.279,1.279,0,0,0-.492,1.042H175.6a3.124,3.124,0,0,1,.541-1.8,3.6,3.6,0,0,1,1.512-1.244,5.045,5.045,0,0,1,2.14-.448A4.785,4.785,0,0,1,182.971,5a3.314,3.314,0,0,1,1.151,2.676,2.693,2.693,0,0,1-.536,1.617,3.483,3.483,0,0,1-1.406,1.134,3.18,3.18,0,0,1,1.613,1.16,3.147,3.147,0,0,1,.532,1.828,3.369,3.369,0,0,1-1.244,2.733,5,5,0,0,1-3.292,1.028,4.741,4.741,0,0,1-3.133-1.011,3.3,3.3,0,0,1-1.217-2.672h2.54a1.472,1.472,0,0,0,.541,1.178,2.255,2.255,0,0,0,2.751-.022,1.654,1.654,0,0,0,.514-1.27q0-1.916-2.109-1.916H178.33Zm8.121,1.23.738-6.5h7.172V6.321h-5.089l-.316,2.751a4.027,4.027,0,0,1,1.925-.483,3.689,3.689,0,0,1,2.865,1.134,4.529,4.529,0,0,1,1.037,3.173,4.64,4.64,0,0,1-.523,2.219,3.691,3.691,0,0,1-1.5,1.521,4.678,4.678,0,0,1-2.3.541,4.968,4.968,0,0,1-2.153-.47,3.819,3.819,0,0,1-1.569-1.323,3.605,3.605,0,0,1-.611-1.942h2.514a1.878,1.878,0,0,0,.558,1.244,1.769,1.769,0,0,0,1.252.444,1.562,1.562,0,0,0,1.327-.62,2.87,2.87,0,0,0,.466-1.753,2.374,2.374,0,0,0-.536-1.67,1.967,1.967,0,0,0-1.521-.58,2.2,2.2,0,0,0-1.468.475l-.246.229Zm12.533-1.23h1.354a1.907,1.907,0,0,0,1.433-.483,1.771,1.771,0,0,0,.466-1.283,1.566,1.566,0,0,0-.461-1.2,1.788,1.788,0,0,0-1.27-.431,1.874,1.874,0,0,0-1.222.4,1.279,1.279,0,0,0-.492,1.042h-2.54a3.124,3.124,0,0,1,.541-1.8A3.6,3.6,0,0,1,198.3,4.476a5.045,5.045,0,0,1,2.14-.448A4.785,4.785,0,0,1,203.625,5a3.314,3.314,0,0,1,1.151,2.676,2.693,2.693,0,0,1-.536,1.617,3.483,3.483,0,0,1-1.406,1.134,3.18,3.18,0,0,1,1.613,1.16,3.147,3.147,0,0,1,.532,1.828,3.369,3.369,0,0,1-1.244,2.733,5,5,0,0,1-3.292,1.028,4.741,4.741,0,0,1-3.133-1.011,3.3,3.3,0,0,1-1.217-2.672h2.54a1.472,1.472,0,0,0,.541,1.178,2.255,2.255,0,0,0,2.751-.022,1.654,1.654,0,0,0,.514-1.27q0-1.916-2.109-1.916h-1.345Zm7.98,6.275a1.279,1.279,0,0,1,.409-.984,1.588,1.588,0,0,1,2.057,0,1.279,1.279,0,0,1,.409.984,1.261,1.261,0,0,1-.4.971,1.614,1.614,0,0,1-2.065,0A1.261,1.261,0,0,1,206.965,15.752ZM220.658,5.621,215.71,17h-2.681l4.957-10.749h-6.363V4.2h9.035ZM231.056,17h-8.771V15.26l4.14-4.412a10.212,10.212,0,0,0,1.261-1.626,2.612,2.612,0,0,0,.409-1.318,1.955,1.955,0,0,0-.431-1.34,1.555,1.555,0,0,0-1.23-.488,1.677,1.677,0,0,0-1.358.593,2.35,2.35,0,0,0-.5,1.56h-2.549a4.2,4.2,0,0,1,.558-2.136,3.934,3.934,0,0,1,1.578-1.516,4.8,4.8,0,0,1,2.312-.549,4.54,4.54,0,0,1,3.072.949,3.358,3.358,0,0,1,1.094,2.681,4.3,4.3,0,0,1-.492,1.934,10.745,10.745,0,0,1-1.687,2.294l-2.909,3.067h5.5Zm9.07-4.816h1.45v2.048h-1.45V17h-2.54V14.231h-5.247l-.114-1.6L237.56,4.2h2.566Zm-5.37,0h2.83V7.666l-.167.29Zm16.726,2.944a1.666,1.666,0,0,0,1.143-.387,1.355,1.355,0,0,0,.457-1.028h2.382a3.258,3.258,0,0,1-.527,1.771,3.48,3.48,0,0,1-1.419,1.248,4.442,4.442,0,0,1-1.991.444,4.129,4.129,0,0,1-3.217-1.3,5.13,5.13,0,0,1-1.178-3.582v-.167A5.071,5.071,0,0,1,248.3,8.624a4.08,4.08,0,0,1,3.208-1.31,4,4,0,0,1,2.861,1.015,3.594,3.594,0,0,1,1.094,2.7h-2.382a1.745,1.745,0,0,0-.457-1.206,1.7,1.7,0,0,0-2.5.183,3.749,3.749,0,0,0-.453,2.1v.264a3.8,3.8,0,0,0,.448,2.113A1.549,1.549,0,0,0,251.481,15.128Zm7.813-7.638.079,1.063a3.342,3.342,0,0,1,2.733-1.239,2.536,2.536,0,0,1,2.522,1.45,3.265,3.265,0,0,1,2.856-1.45,2.836,2.836,0,0,1,2.3.9,4.141,4.141,0,0,1,.756,2.711V17H268V10.922a1.818,1.818,0,0,0-.316-1.185,1.4,1.4,0,0,0-1.116-.374,1.585,1.585,0,0,0-1.582,1.092L264.99,17h-2.54V10.93a1.8,1.8,0,0,0-.325-1.2,1.414,1.414,0,0,0-1.107-.37,1.645,1.645,0,0,0-1.564.9V17h-2.54V7.49Zm14.24-.879h.79a1.112,1.112,0,0,0,.836-.282,1.033,1.033,0,0,0,.272-.748.914.914,0,0,0-.269-.7,1.043,1.043,0,0,0-.741-.251,1.093,1.093,0,0,0-.713.233.746.746,0,0,0-.287.608h-1.482a1.822,1.822,0,0,1,.315-1.048,2.1,2.1,0,0,1,.882-.725,2.943,2.943,0,0,1,1.248-.261A2.791,2.791,0,0,1,276.242,4a1.933,1.933,0,0,1,.672,1.561,1.571,1.571,0,0,1-.313.943,2.032,2.032,0,0,1-.82.661,1.855,1.855,0,0,1,.941.677,1.836,1.836,0,0,1,.31,1.066,1.965,1.965,0,0,1-.725,1.594,2.917,2.917,0,0,1-1.92.6,2.766,2.766,0,0,1-1.828-.59,1.925,1.925,0,0,1-.71-1.559h1.482a.858.858,0,0,0,.315.687,1.315,1.315,0,0,0,1.6-.013.965.965,0,0,0,.3-.741q0-1.118-1.23-1.118h-.784Z" transform="translate(600 4322)" fill="#0d6a3e"/>
  </g>
</svg>
