<svg xmlns="http://www.w3.org/2000/svg" width="170" height="60.049" viewBox="0 0 170 60.049">
  <g id="Grupo_1013619" data-name="Grupo 1013619" transform="translate(-764.5 -5672)">
    <path id="Trazado_732214" data-name="Trazado 732214" d="M9.448,0H1.063V-1.169l4.43-4.922A10.524,10.524,0,0,0,6.851-7.906a3.029,3.029,0,0,0,.374-1.446A2.3,2.3,0,0,0,6.618-11,2.12,2.12,0,0,0,5-11.637a2.511,2.511,0,0,0-1.885.69,2.635,2.635,0,0,0-.672,1.92H.817a3.774,3.774,0,0,1,1.138-2.856A4.219,4.219,0,0,1,5-12.973a4.054,4.054,0,0,1,2.821.936A3.193,3.193,0,0,1,8.859-9.545q0,1.89-2.408,4.5L3.023-1.327H9.448Zm1.837,2.549-.923-.633a4.241,4.241,0,0,0,.861-2.373V-1.925h1.591V-.65a4,4,0,0,1-.435,1.775A4.156,4.156,0,0,1,11.285,2.549ZM23.089,0H14.7V-1.169l4.43-4.922a10.524,10.524,0,0,0,1.358-1.815,3.029,3.029,0,0,0,.374-1.446A2.3,2.3,0,0,0,20.259-11a2.12,2.12,0,0,0-1.617-.642,2.511,2.511,0,0,0-1.885.69,2.635,2.635,0,0,0-.672,1.92H14.458A3.774,3.774,0,0,1,15.6-11.883a4.219,4.219,0,0,1,3.045-1.09,4.054,4.054,0,0,1,2.821.936A3.193,3.193,0,0,1,22.5-9.545q0,1.89-2.408,4.5L16.664-1.327h6.425Zm9.747-5.458a7.436,7.436,0,0,1-.976,4.245A3.47,3.47,0,0,1,28.811.176a3.5,3.5,0,0,1-3.032-1.358,7.058,7.058,0,0,1-1.02-4.056V-7.409a7.271,7.271,0,0,1,.976-4.192,3.5,3.5,0,0,1,3.059-1.371,3.528,3.528,0,0,1,3.041,1.323,7.017,7.017,0,0,1,1,4.083ZM31.21-7.682a5.958,5.958,0,0,0-.58-3.01,2,2,0,0,0-1.837-.945,1.97,1.97,0,0,0-1.819.94A5.817,5.817,0,0,0,26.385-7.8v2.6a6.053,6.053,0,0,0,.6,3.063,1.993,1.993,0,0,0,1.824.989A1.966,1.966,0,0,0,30.6-2.083a5.834,5.834,0,0,0,.611-2.936ZM41.783-4.3h1.775v1.327H41.783V0H40.148V-2.971H34.321v-.958l5.73-8.868h1.731Zm-5.616,0h3.981v-6.275l-.193.352Zm15.24-8.508v1.38h-.3A4.281,4.281,0,0,0,48.085-10.3a4.681,4.681,0,0,0-1.3,3.067,3.471,3.471,0,0,1,2.76-1.16,3.319,3.319,0,0,1,2.667,1.178,4.543,4.543,0,0,1,1,3.041,4.528,4.528,0,0,1-1.077,3.164A3.707,3.707,0,0,1,49.245.176a3.653,3.653,0,0,1-2.979-1.411,5.591,5.591,0,0,1-1.143-3.634v-.624a8.424,8.424,0,0,1,1.507-5.4,5.536,5.536,0,0,1,4.487-1.912ZM49.271-7.04a2.594,2.594,0,0,0-1.538.5,2.61,2.61,0,0,0-.976,1.257v.6a4.2,4.2,0,0,0,.712,2.549,2.133,2.133,0,0,0,1.775.967,2.067,2.067,0,0,0,1.727-.809A3.355,3.355,0,0,0,51.6-4.1a3.356,3.356,0,0,0-.637-2.131A2.042,2.042,0,0,0,49.271-7.04ZM63.519,0H55.134V-1.169l4.43-4.922a10.524,10.524,0,0,0,1.358-1.815,3.029,3.029,0,0,0,.374-1.446A2.3,2.3,0,0,0,60.688-11a2.12,2.12,0,0,0-1.617-.642,2.511,2.511,0,0,0-1.885.69,2.635,2.635,0,0,0-.672,1.92H54.888a3.774,3.774,0,0,1,1.138-2.856,4.219,4.219,0,0,1,3.045-1.09,4.054,4.054,0,0,1,2.821.936A3.193,3.193,0,0,1,62.93-9.545q0,1.89-2.408,4.5L57.094-1.327h6.425Zm8.112,0H70V-13.5h1.626ZM82.283-4.649a5.654,5.654,0,0,1-1,3.5A3.2,3.2,0,0,1,78.592.176,3.315,3.315,0,0,1,75.806-1.1L75.727,0H74.232V-13.5h1.626v5.036a3.3,3.3,0,0,1,2.716-1.222,3.221,3.221,0,0,1,2.72,1.31,5.824,5.824,0,0,1,.989,3.586Zm-1.626-.185A4.394,4.394,0,0,0,80.016-7.4a2.124,2.124,0,0,0-1.846-.905,2.387,2.387,0,0,0-2.312,1.494V-2.7A2.454,2.454,0,0,0,78.188-1.2a2.112,2.112,0,0,0,1.819-.905A4.672,4.672,0,0,0,80.657-4.834Z" transform="translate(808 5729.5)" fill="#fff"/>
    <path id="Trazado_732215" data-name="Trazado 732215" d="M6.407,0H4.772V-10.837l-3.278,1.2v-1.477l4.658-1.749h.255ZM18.448-4.4,17.429-3.34V0H15.8V-13.5h1.626v8.165l.87-1.046L21.261-9.51h1.978l-3.7,3.973L23.669,0H21.762Zm5.906-.431a5.589,5.589,0,0,1,1.028-3.538,3.289,3.289,0,0,1,2.725-1.314,3.271,3.271,0,0,1,2.716,1.23L30.9-9.51h1.485V-.229a3.869,3.869,0,0,1-1.094,2.909,4.038,4.038,0,0,1-2.94,1.063A4.891,4.891,0,0,1,26.341,3.3a3.465,3.465,0,0,1-1.5-1.2l.844-.976a3.18,3.18,0,0,0,2.558,1.292,2.491,2.491,0,0,0,1.85-.668,2.553,2.553,0,0,0,.664-1.881V-.949A3.342,3.342,0,0,1,28.09.176a3.248,3.248,0,0,1-2.7-1.345A5.876,5.876,0,0,1,24.354-4.834Zm1.635.185a4.264,4.264,0,0,0,.659,2.527,2.142,2.142,0,0,0,1.846.918,2.382,2.382,0,0,0,2.259-1.4V-6.943a2.41,2.41,0,0,0-2.241-1.362,2.161,2.161,0,0,0-1.854.923A4.644,4.644,0,0,0,25.989-4.649Z" transform="translate(832 5685.5)" fill="#fff"/>
    <path id="Trazado_732213" data-name="Trazado 732213" d="M0,0H170" transform="translate(764.5 5700)" fill="none" stroke="#fff" stroke-width="2"/>
  </g>
</svg>
