<svg xmlns="http://www.w3.org/2000/svg" width="170" height="60.058" viewBox="0 0 170 60.058">
  <g id="Grupo_1015995" data-name="Grupo 1015995" transform="translate(-764.5 -5672)">
    <path id="Trazado_737897" data-name="Trazado 737897" d="M8.35,0H.2L.4-1.239l4.72-4.588.861-.853A5.044,5.044,0,0,0,7.62-9.422,2.033,2.033,0,0,0,7.242-11a1.778,1.778,0,0,0-1.389-.646,2.619,2.619,0,0,0-1.925.672,3.088,3.088,0,0,0-.94,1.938l-1.573.009a4.451,4.451,0,0,1,.725-2.087,4.039,4.039,0,0,1,1.608-1.4,4.622,4.622,0,0,1,2.167-.461,3.551,3.551,0,0,1,2.527.962,2.852,2.852,0,0,1,.8,2.4A6.126,6.126,0,0,1,7.3-6.056L6.5-5.238,2.382-1.327H8.561ZM9.817,2.558,8.9,1.9A5.8,5.8,0,0,0,10.169-.6L10.4-1.925h1.556L11.769-.738A5.086,5.086,0,0,1,9.817,2.558ZM21.762,0H13.614l.193-1.239,4.72-4.588.861-.853a5.044,5.044,0,0,0,1.644-2.742A2.033,2.033,0,0,0,20.654-11a1.778,1.778,0,0,0-1.389-.646,2.619,2.619,0,0,0-1.925.672,3.088,3.088,0,0,0-.94,1.938l-1.573.009a4.451,4.451,0,0,1,.725-2.087,4.039,4.039,0,0,1,1.608-1.4,4.622,4.622,0,0,1,2.167-.461,3.551,3.551,0,0,1,2.527.962,2.852,2.852,0,0,1,.8,2.4,6.126,6.126,0,0,1-1.942,3.551l-.809.817L15.794-1.327h6.179Zm5.7.176A2.888,2.888,0,0,1,25.031-.971a5.091,5.091,0,0,1-.738-3.2q.018-.65.1-1.283l.316-2.136a7.923,7.923,0,0,1,1.608-4.078,3.846,3.846,0,0,1,3.129-1.3,2.923,2.923,0,0,1,2.439,1.121A4.979,4.979,0,0,1,32.625-8.7q-.026.659-.105,1.292l-.308,2.065a8.4,8.4,0,0,1-1.644,4.228A3.821,3.821,0,0,1,27.457.176ZM30.981-7.7A13.6,13.6,0,0,0,31.1-9.352q-.044-2.232-1.731-2.294a2.31,2.31,0,0,0-1.991.91,6.306,6.306,0,0,0-1.059,2.993l-.378,2.549a12.965,12.965,0,0,0-.114,1.661q.044,2.329,1.723,2.391A2.258,2.258,0,0,0,29.474-2,6.108,6.108,0,0,0,30.56-4.9Zm9.756,3.4H42.46l-.237,1.327H40.509L39.99,0h-1.6l.519-2.971h-5.66l.185-1.046,7.031-8.78h1.74Zm-5.4,0h3.8l1.143-6.293-.255.369ZM51.5-12.814l-.141,1.38h-.308a4.654,4.654,0,0,0-3.006,1.09,6.755,6.755,0,0,0-1.934,3.111A3.706,3.706,0,0,1,48.9-8.394a2.891,2.891,0,0,1,1.731.558,3.111,3.111,0,0,1,1.059,1.494,4.9,4.9,0,0,1,.233,2.1,5.123,5.123,0,0,1-1.393,3.2A3.827,3.827,0,0,1,47.54.176,3.122,3.122,0,0,1,45.2-.87a4.418,4.418,0,0,1-1.046-2.707,10.246,10.246,0,0,1,.22-2.5,9.055,9.055,0,0,1,2.4-5.01,6.271,6.271,0,0,1,4.548-1.731ZM48.56-7.049a2.684,2.684,0,0,0-1.6.492,3.461,3.461,0,0,0-1.151,1.3l-.062.589-.018.712a4.5,4.5,0,0,0,.22,1.4,2.137,2.137,0,0,0,.65,1.028,1.59,1.59,0,0,0,1.011.36,2.247,2.247,0,0,0,1.824-.791,3.777,3.777,0,0,0,.91-2.2,3.793,3.793,0,0,0-.1-1.45,2.13,2.13,0,0,0-.611-1.042A1.621,1.621,0,0,0,48.56-7.049ZM61.348,0H53.2l.193-1.239,4.72-4.588.861-.853a5.044,5.044,0,0,0,1.644-2.742A2.033,2.033,0,0,0,60.24-11a1.778,1.778,0,0,0-1.389-.646,2.619,2.619,0,0,0-1.925.672,3.088,3.088,0,0,0-.94,1.938l-1.573.009a4.451,4.451,0,0,1,.725-2.087,4.039,4.039,0,0,1,1.608-1.4,4.622,4.622,0,0,1,2.167-.461,3.551,3.551,0,0,1,2.527.962,2.852,2.852,0,0,1,.8,2.4A6.126,6.126,0,0,1,60.3-6.056l-.809.817L55.38-1.327h6.179ZM69.3,0H67.72l2.338-13.5h1.591ZM80.534-4.711a7.41,7.41,0,0,1-.8,2.628A4.48,4.48,0,0,1,78.223-.352a3.44,3.44,0,0,1-1.969.536A2.936,2.936,0,0,1,73.7-1.107L73.371,0H71.9L74.25-13.5h1.591l-.958,5.045a3.5,3.5,0,0,1,2.777-1.23A2.653,2.653,0,0,1,79.8-8.675,4.448,4.448,0,0,1,80.6-5.985a8.283,8.283,0,0,1-.053,1.09Zm-1.512-.917a3.385,3.385,0,0,0-.431-1.962,1.648,1.648,0,0,0-1.4-.715,2.9,2.9,0,0,0-2.514,1.492l-.712,4.134A2.024,2.024,0,0,0,75.946-1.2a2.311,2.311,0,0,0,1.63-.553,3.613,3.613,0,0,0,1.059-1.646A7.4,7.4,0,0,0,79.022-5.628Z" transform="translate(808 5729.5)" fill="#fff"/>
    <path id="Trazado_737898" data-name="Trazado 737898" d="M5.309,0h-1.6L5.59-10.793l-3.4,1.2.272-1.547,4.746-1.714h.281ZM17.991-4.386,16.743-3.27,16.181,0H14.59l2.347-13.5h1.591L17.121-5.432l.976-.984L21.472-9.51h2.065L19.169-5.458,22.175,0h-1.74Zm5.994-.387a7.75,7.75,0,0,1,.839-2.7,4.39,4.39,0,0,1,1.529-1.7,3.545,3.545,0,0,1,1.973-.523,2.926,2.926,0,0,1,2.5,1.248L31.14-9.51H32.6L31.017-.2A4.627,4.627,0,0,1,29.54,2.711a4.159,4.159,0,0,1-3.015,1.042,4.281,4.281,0,0,1-1.85-.457,3.518,3.518,0,0,1-1.393-1.2l.905-.976a2.721,2.721,0,0,0,2.276,1.31,2.728,2.728,0,0,0,1.92-.633,3.265,3.265,0,0,0,1.042-1.9L29.6-.949A3.6,3.6,0,0,1,26.886.176,2.8,2.8,0,0,1,25.343-.3a2.913,2.913,0,0,1-1.015-1.31,5.354,5.354,0,0,1-.4-1.912A9.825,9.825,0,0,1,23.985-4.772Zm1.538.9a3.345,3.345,0,0,0,.435,1.944,1.644,1.644,0,0,0,1.393.724A2.881,2.881,0,0,0,29.8-2.6l.747-4.363a2,2,0,0,0-1.907-1.352,2.468,2.468,0,0,0-2.123,1.053,5.488,5.488,0,0,0-.98,2.941Z" transform="translate(832 5685.5)" fill="#fff"/>
    <path id="Trazado_737896" data-name="Trazado 737896" d="M0,0H170" transform="translate(764.5 5700)" fill="none" stroke="#fff" stroke-width="2"/>
  </g>
</svg>
