<svg xmlns="http://www.w3.org/2000/svg" width="610" height="493.654" viewBox="0 0 610 493.654">
  <g id="Grupo_1015996" data-name="Grupo 1015996" transform="translate(-495 -7768.673)">
    <g id="Grupo_1013610" data-name="Grupo 1013610" transform="translate(382.098 7703.224)">
      <rect id="Rectángulo_350161" data-name="Rectángulo 350161" width="12.257" height="176.579" rx="5" transform="translate(406.361 378.193)" fill="#d5d5ed"/>
      <rect id="Rectángulo_350162" data-name="Rectángulo 350162" width="12.257" height="176.579" rx="5" transform="translate(485.421 400.038) rotate(-25.734)" fill="#d5d5ed"/>
      <rect id="Rectángulo_350163" data-name="Rectángulo 350163" width="12.257" height="176.579" rx="5" transform="translate(264.204 559.104) rotate(-154.266)" fill="#d5d5ed"/>
      <path id="Trazado_732196" data-name="Trazado 732196" d="M582.464,95.232q91.029-.064,182.059-.127c6.669-.005,13.34-.06,20.008.023,7.081.087,9.248,1.741,9.3,7.412.116,12.828.059,25.657.059,38.485q-.008,127.206-.021,254.413c0,9.473-1.1,10.3-13.6,10.309q-92.029.088-184.061.168-99.689,0-199.378-.163-100.027-.045-200.054-.008c-11.463,0-12.862-1-12.864-9.319q-.01-145.948.009-291.9c0-8.473,1.309-9.442,12.658-9.436q99.365.054,198.729.136Z" transform="translate(-71)" fill="#0076a1"/>
      <path id="Trazado_732197" data-name="Trazado 732197" d="M482.611,95.232l-140.271,0c.909-7.128.217-14.285.4-21.427.167-6.568,1.822-8.337,8.3-8.34q61.424-.025,122.845,0c6.48,0,8.126,1.778,8.293,8.346C482.364,80.949,481.646,88.108,482.611,95.232Z" fill="#02528a"/>
    </g>
    <text id="Caudal_volumétrico_Q_" data-name="Caudal volumétrico (Q)=" transform="translate(550 7868.5)" fill="#fff" font-size="18" font-family="Roboto-Italic, Roboto" font-style="italic"><tspan x="0" y="19">Caudal volumétrico</tspan><tspan y="19" xml:space="preserve" font-family="Roboto-Regular, Roboto" font-style="normal"> (Q)=</tspan></text>
    <text id="Caudal_volumétrico_Q_2" data-name="Caudal volumétrico (Q)=" transform="translate(550 7947)" fill="#fff" font-size="18" font-family="Roboto-Italic, Roboto" font-style="italic"><tspan x="0" y="19">Caudal volumétrico</tspan><tspan y="19" xml:space="preserve" font-family="Roboto-Regular, Roboto" font-style="normal"> (Q)=</tspan></text>
    <text id="x" transform="translate(851 7947)" fill="#fff" font-size="18" font-family="Roboto-Regular, Roboto"><tspan x="0" y="17">x</tspan></text>
    <text id="x-2" data-name="x" transform="translate(960 7947)" fill="#fff" font-size="18" font-family="Roboto-Regular, Roboto"><tspan x="0" y="17">x</tspan></text>
    <text id="Caudal_volumétrico_Q_3" data-name="Caudal volumétrico (Q)=" transform="translate(550 8025.5)" fill="#fff" font-size="18" font-family="Roboto-Italic, Roboto" font-style="italic"><tspan x="0" y="19">Caudal volumétrico</tspan><tspan y="19" xml:space="preserve" font-family="Roboto-Regular, Roboto" font-style="normal"> (Q)=</tspan></text>
    <text id="t" transform="translate(799 7897)" fill="#fff" font-size="18" font-family="Roboto-Regular, Roboto"><tspan x="0" y="0">t</tspan></text>
    <text id="_2_minutos" data-name="2 minutos" transform="translate(762 7976)" fill="#fff" font-size="18" font-family="Roboto-Regular, Roboto"><tspan x="0" y="0">2 minutos</tspan></text>
    <text id="_1_m3" data-name="1 m3" transform="translate(893 7976)" fill="#fff" font-size="18" font-family="Roboto-Regular, Roboto"><tspan x="0" y="0">1 m</tspan><tspan y="0" font-size="10.499" baseline-shift="5.999400079342301">3</tspan></text>
    <text id="_60_s" data-name="60 s" transform="translate(996 7976)" fill="#fff" font-size="18" font-family="Roboto-Regular, Roboto"><tspan x="0" y="0">60 s</tspan></text>
    <text id="s" transform="translate(848 8054)" fill="#fff" font-size="18" font-family="Roboto-Regular, Roboto"><tspan x="0" y="0">s</tspan></text>
    <text id="V" transform="translate(796 7873)" fill="#fff" font-size="18" font-family="Roboto-Regular, Roboto"><tspan x="0" y="0">V</tspan></text>
    <text id="_0_450_m3" data-name="0,450 m3" transform="translate(767 7951)" fill="#fff" font-size="18" font-family="Roboto-Regular, Roboto"><tspan x="0" y="0">0,450 m</tspan><tspan y="0" font-size="10.499" baseline-shift="5.999400079342301">3</tspan></text>
    <text id="_1000_litros" data-name="1000 litros" transform="translate(869 7951)" fill="#fff" font-size="18" font-family="Roboto-Regular, Roboto"><tspan x="0" y="0">1000 litros</tspan></text>
    <text id="_1_minuto" data-name="1 minuto" transform="translate(977 7951)" fill="#fff" font-size="18" font-family="Roboto-Regular, Roboto"><tspan x="0" y="0">1 minuto</tspan></text>
    <text id="litros" transform="translate(833 8029.5)" fill="#fff" font-size="18" font-family="Roboto-Regular, Roboto"><tspan x="0" y="0">litros</tspan></text>
    <line id="Línea_3113" data-name="Línea 3113" x2="85" transform="translate(759.5 7879)" fill="none" stroke="#fff" stroke-width="2"/>
    <line id="Línea_3114" data-name="Línea 3114" x2="85" transform="translate(759.5 7957.5)" fill="none" stroke="#fff" stroke-width="2"/>
    <line id="Línea_3116" data-name="Línea 3116" x2="85" transform="translate(868.5 7957.5)" fill="none" stroke="#fff" stroke-width="2"/>
    <line id="Línea_3117" data-name="Línea 3117" x2="85" transform="translate(970.5 7957.5)" fill="none" stroke="#fff" stroke-width="2"/>
    <line id="Línea_3115" data-name="Línea 3115" x2="85" transform="translate(810.5 8036)" fill="none" stroke="#fff" stroke-width="2"/>
    <text id="_3_75" data-name="3,75" transform="translate(765 8041)" fill="#fff" font-size="18" font-family="Roboto-Regular, Roboto"><tspan x="0" y="0">3,75</tspan></text>
  </g>
</svg>
