<svg xmlns="http://www.w3.org/2000/svg" width="85" height="36.973" viewBox="0 0 85 36.973">
  <g id="Grupo_1013622" data-name="Grupo 1013622" transform="translate(-759.5 -8520.703)">
    <path id="Trazado_732241" data-name="Trazado 732241" d="M3.437-11.812v2.3H5.212v1.257H3.437v5.9a1.32,1.32,0,0,0,.237.858,1,1,0,0,0,.809.286,3.937,3.937,0,0,0,.773-.105V0A4.742,4.742,0,0,1,4.008.176,2.025,2.025,0,0,1,2.364-.483a2.832,2.832,0,0,1-.554-1.872v-5.9H.079V-9.51H1.811v-2.3Z" transform="translate(799 8557.5)" fill="#fff"/>
    <path id="Trazado_732243" data-name="Trazado 732243" d="M5.722-2.241,9.378-12.8h1.846L6.478,0H4.983L.246-12.8H2.083Z" transform="translate(796 8533.5)" fill="#fff"/>
    <path id="Trazado_732242" data-name="Trazado 732242" d="M0,0H85" transform="translate(759.5 8539.5)" fill="none" stroke="#fff" stroke-width="2"/>
  </g>
</svg>
