<svg xmlns="http://www.w3.org/2000/svg" width="93.559" height="60.383" viewBox="0 0 93.559 60.383">
  <g id="Grupo_1015994" data-name="Grupo 1015994" transform="translate(-764.5 -5672)">
    <path id="Trazado_737840" data-name="Trazado 737840" d="M9.563,0H.958V-1.468L5.221-6.117A10.615,10.615,0,0,0,6.535-7.835,2.784,2.784,0,0,0,6.926-9.22,2.1,2.1,0,0,0,6.412-10.7a1.783,1.783,0,0,0-1.384-.562,2.056,2.056,0,0,0-1.608.633,2.489,2.489,0,0,0-.571,1.731H.712A4.186,4.186,0,0,1,1.244-11a3.662,3.662,0,0,1,1.521-1.455,4.84,4.84,0,0,1,2.281-.519,4.329,4.329,0,0,1,2.94.936A3.249,3.249,0,0,1,9.062-9.448,4.392,4.392,0,0,1,8.521-7.44,11.42,11.42,0,0,1,6.75-5.054L3.621-1.705H9.563Zm2.065,2.883L10.477,2.2A6.21,6.21,0,0,0,11.175.8a4.157,4.157,0,0,0,.2-1.208V-2.065H13.3L13.289-.527a4.287,4.287,0,0,1-.47,1.868A4.64,4.64,0,0,1,11.628,2.883ZM23.748,0h-8.6V-1.468l4.263-4.649A10.615,10.615,0,0,0,20.72-7.835a2.784,2.784,0,0,0,.391-1.384A2.1,2.1,0,0,0,20.6-10.7a1.783,1.783,0,0,0-1.384-.562,2.056,2.056,0,0,0-1.608.633,2.489,2.489,0,0,0-.571,1.731H14.9a4.186,4.186,0,0,1,.532-2.1,3.662,3.662,0,0,1,1.521-1.455,4.84,4.84,0,0,1,2.281-.519,4.329,4.329,0,0,1,2.94.936,3.249,3.249,0,0,1,1.077,2.588,4.392,4.392,0,0,1-.541,2.008,11.42,11.42,0,0,1-1.771,2.386L17.807-1.705h5.941Zm9.967-5.388a6.979,6.979,0,0,1-1.033,4.162A3.647,3.647,0,0,1,29.54.176a3.7,3.7,0,0,1-3.125-1.367,6.683,6.683,0,0,1-1.077-4.047V-7.453a6.874,6.874,0,0,1,1.033-4.14,3.681,3.681,0,0,1,3.151-1.38,3.7,3.7,0,0,1,3.133,1.345A6.664,6.664,0,0,1,33.715-7.6ZM31.579-7.778a5.415,5.415,0,0,0-.492-2.641,1.68,1.68,0,0,0-1.564-.839,1.679,1.679,0,0,0-1.538.8,5,5,0,0,0-.519,2.483v2.9a5.555,5.555,0,0,0,.5,2.672,1.683,1.683,0,0,0,1.573.879,1.653,1.653,0,0,0,1.521-.813,5.226,5.226,0,0,0,.519-2.544Zm11.25,3.217H44.42v1.714H42.829V0H40.693V-2.848H35.165l-.062-1.3,5.52-8.648h2.206Zm-5.484,0h3.349V-9.905l-.158.281Zm15.135-8.3v1.767h-.264a4.239,4.239,0,0,0-2.865.984,4.119,4.119,0,0,0-1.274,2.716A3.468,3.468,0,0,1,50.7-8.473a3.276,3.276,0,0,1,2.676,1.2,4.708,4.708,0,0,1,.98,3.085,4.4,4.4,0,0,1-1.147,3.16A3.959,3.959,0,0,1,50.2.176,3.867,3.867,0,0,1,47.1-1.239a5.566,5.566,0,0,1-1.191-3.709v-.729a7.832,7.832,0,0,1,1.639-5.273,5.877,5.877,0,0,1,4.715-1.907ZM50.186-6.75a2.249,2.249,0,0,0-1.288.4A2.312,2.312,0,0,0,48.041-5.3v.65a3.831,3.831,0,0,0,.6,2.263,1.823,1.823,0,0,0,1.547.839,1.8,1.8,0,0,0,1.5-.712,2.965,2.965,0,0,0,.554-1.872,3.007,3.007,0,0,0-.562-1.89A1.793,1.793,0,0,0,50.186-6.75ZM64.67,0h-8.6V-1.468l4.263-4.649a10.615,10.615,0,0,0,1.314-1.718,2.784,2.784,0,0,0,.391-1.384,2.1,2.1,0,0,0-.514-1.477,1.783,1.783,0,0,0-1.384-.562,2.056,2.056,0,0,0-1.608.633,2.489,2.489,0,0,0-.571,1.731H55.819a4.186,4.186,0,0,1,.532-2.1,3.662,3.662,0,0,1,1.521-1.455,4.84,4.84,0,0,1,2.281-.519,4.329,4.329,0,0,1,2.94.936,3.249,3.249,0,0,1,1.077,2.588,4.392,4.392,0,0,1-.541,2.008,11.42,11.42,0,0,1-1.771,2.386L58.729-1.705H64.67Zm7.462,0H70.049L72.4-13.5h2.083Zm11.25-4.711A7.737,7.737,0,0,1,82.6-2.087,4.3,4.3,0,0,1,81.11-.352,3.524,3.524,0,0,1,79.1.185a2.8,2.8,0,0,1-2.4-1.222L76.368,0H74.461L76.8-13.5h2.092l-.949,4.913a3.231,3.231,0,0,1,2.522-1.1,2.7,2.7,0,0,1,2.158,1.011A4.363,4.363,0,0,1,83.443-6,12.253,12.253,0,0,1,83.382-4.711Zm-2-1.178a2.5,2.5,0,0,0-.4-1.5,1.372,1.372,0,0,0-1.143-.558,2.451,2.451,0,0,0-2.127,1.213l-.686,3.938a1.659,1.659,0,0,0,1.661,1.239,2.071,2.071,0,0,0,1.736-.809A4.584,4.584,0,0,0,81.3-4.72Q81.369-5.467,81.378-5.889Z" transform="translate(769.779 5729.5)" fill="#fff"/>
    <path id="Trazado_737841" data-name="Trazado 737841" d="M6.741,0H4.614V-10.281L1.477-9.211V-11l4.992-1.837h.272ZM18.6-4.061,17.42-3.015,16.9,0H14.818l2.338-13.5h2.083L17.9-5.836l.729-.756L21.656-9.51h2.663L20.1-5.449,22.878,0H20.619Zm5.889-.7a7.356,7.356,0,0,1,.769-2.575A4.652,4.652,0,0,1,26.771-9.1a3.577,3.577,0,0,1,2.092-.593,2.806,2.806,0,0,1,2.364,1.151l.325-.976,1.9.009L31.878-.264A4.568,4.568,0,0,1,30.309,2.7a4.547,4.547,0,0,1-3.177,1.05,4.439,4.439,0,0,1-1.9-.457,3.947,3.947,0,0,1-1.441-1.16L24.9.879a2.668,2.668,0,0,0,2.18,1.187,2.554,2.554,0,0,0,1.753-.558,2.908,2.908,0,0,0,.98-1.692l.149-.668a3.365,3.365,0,0,1-2.5,1.028,2.663,2.663,0,0,1-2.14-1.011,4.471,4.471,0,0,1-.883-2.672A8.782,8.782,0,0,1,24.486-4.764Zm2.065.185a6.427,6.427,0,0,0-.035.967,2.509,2.509,0,0,0,.422,1.477,1.415,1.415,0,0,0,1.151.571,2.459,2.459,0,0,0,2.074-1.1l.747-4.2a1.7,1.7,0,0,0-1.626-1.081,2.17,2.17,0,0,0-1.775.817,4.58,4.58,0,0,0-.94,2.364Z" transform="translate(794.337 5685.5)" fill="#fff"/>
    <path id="Trazado_737839" data-name="Trazado 737839" d="M0,0H93.559" transform="translate(764.5 5700)" fill="none" stroke="#fff" stroke-width="2"/>
  </g>
</svg>
