<svg xmlns="http://www.w3.org/2000/svg" width="610" height="493.654" viewBox="0 0 610 493.654">
  <g id="Grupo_1015986" data-name="Grupo 1015986" transform="translate(-495 -7614.673)">
    <g id="Grupo_1013610" data-name="Grupo 1013610" transform="translate(382.098 7549.224)">
      <rect id="Rectángulo_350161" data-name="Rectángulo 350161" width="12.257" height="176.579" rx="5" transform="translate(406.361 378.193)" fill="#d5d5ed"/>
      <rect id="Rectángulo_350162" data-name="Rectángulo 350162" width="12.257" height="176.579" rx="5" transform="translate(485.421 400.038) rotate(-25.734)" fill="#d5d5ed"/>
      <rect id="Rectángulo_350163" data-name="Rectángulo 350163" width="12.257" height="176.579" rx="5" transform="translate(264.204 559.104) rotate(-154.266)" fill="#d5d5ed"/>
      <path id="Trazado_732196" data-name="Trazado 732196" d="M582.464,95.232q91.029-.064,182.059-.127c6.669-.005,13.34-.06,20.008.023,7.081.087,9.248,1.741,9.3,7.412.116,12.828.059,25.657.059,38.485q-.008,127.206-.021,254.413c0,9.473-1.1,10.3-13.6,10.309q-92.029.088-184.061.168-99.689,0-199.378-.163-100.027-.045-200.054-.008c-11.463,0-12.862-1-12.864-9.319q-.01-145.948.009-291.9c0-8.473,1.309-9.442,12.658-9.436q99.365.054,198.729.136Z" transform="translate(-71)" fill="#0076a1"/>
      <path id="Trazado_732197" data-name="Trazado 732197" d="M482.611,95.232l-140.271,0c.909-7.128.217-14.285.4-21.427.167-6.568,1.822-8.337,8.3-8.34q61.424-.025,122.845,0c6.48,0,8.126,1.778,8.293,8.346C482.364,80.949,481.646,88.108,482.611,95.232Z" fill="#02528a"/>
    </g>
    <path id="Trazado_737815" data-name="Trazado 737815" d="M10.274,14.922a5.1,5.1,0,0,1-1.8,3.146,5.036,5.036,0,0,1-3.423,1.107,3.987,3.987,0,0,1-2.074-.584A3.693,3.693,0,0,1,1.6,16.983a6.007,6.007,0,0,1-.545-2.325,7.451,7.451,0,0,1,.062-1.406L1.266,12.2A7.96,7.96,0,0,1,3.292,7.649,5.112,5.112,0,0,1,7.216,6.027a3.828,3.828,0,0,1,2.856,1.165,4.632,4.632,0,0,1,1.116,3.133H9.545q-.114-2.689-2.109-2.9l-.29-.018A3.4,3.4,0,0,0,4.373,8.642a6.685,6.685,0,0,0-1.437,3.494l-.193,1.327-.053.773a4.35,4.35,0,0,0,.576,2.571,2.171,2.171,0,0,0,1.868.989,3.29,3.29,0,0,0,2.21-.642,4.269,4.269,0,0,0,1.332-2.206ZM17.543,19a2.13,2.13,0,0,1-.062-.5l.026-.5a3.9,3.9,0,0,1-2.777,1.178,2.841,2.841,0,0,1-2.043-.8,2.407,2.407,0,0,1-.716-1.947,2.927,2.927,0,0,1,1.323-2.36,5.631,5.631,0,0,1,3.248-.848l1.661.009.105-.756a1.738,1.738,0,0,0-.33-1.349,1.591,1.591,0,0,0-1.252-.514,2.453,2.453,0,0,0-1.446.4,1.7,1.7,0,0,0-.769,1.1l-1.6.009a2.55,2.55,0,0,1,.65-1.481,3.784,3.784,0,0,1,1.468-1,4.742,4.742,0,0,1,1.854-.338,3.153,3.153,0,0,1,2.312.9,2.794,2.794,0,0,1,.694,2.3l-.773,4.711-.044.677a3.318,3.318,0,0,0,.105.958L19.16,19Zm-2.5-1.23a2.774,2.774,0,0,0,1.446-.365,3.661,3.661,0,0,0,1.173-1.059l.343-1.96-1.2-.009a4.561,4.561,0,0,0-2.3.475A1.748,1.748,0,0,0,13.6,16.2a1.361,1.361,0,0,0,.312,1.112A1.486,1.486,0,0,0,15.047,17.77Zm12.3.29a3.673,3.673,0,0,1-2.839,1.116A2.37,2.37,0,0,1,22.5,18.2a3.731,3.731,0,0,1-.488-2.566l1.02-6.144h1.591L23.59,15.66a4.1,4.1,0,0,0-.018.756,1.573,1.573,0,0,0,.378.993,1.29,1.29,0,0,0,.932.387,2.854,2.854,0,0,0,2.637-1.38l1.2-6.926H30.3L28.652,19h-1.5Zm4.131-3.832a7.4,7.4,0,0,1,.8-2.619A4.534,4.534,0,0,1,33.82,9.859a3.517,3.517,0,0,1,2.013-.554,2.971,2.971,0,0,1,2.443,1.16L39.19,5.5h1.591L38.443,19h-1.45l.167-1.02a3.506,3.506,0,0,1-2.777,1.2,2.627,2.627,0,0,1-2.1-1.033,4.5,4.5,0,0,1-.844-2.676A8.547,8.547,0,0,1,31.482,14.228Zm1.529.909a3.3,3.3,0,0,0,.448,1.949,1.617,1.617,0,0,0,1.389.711A2.874,2.874,0,0,0,37.3,16.409l.756-4.389a1.973,1.973,0,0,0-1.916-1.334,2.411,2.411,0,0,0-1.657.566,3.663,3.663,0,0,0-1.09,1.659A6.842,6.842,0,0,0,33.012,15.136ZM46.775,19a2.13,2.13,0,0,1-.062-.5l.026-.5a3.9,3.9,0,0,1-2.777,1.178,2.841,2.841,0,0,1-2.043-.8,2.407,2.407,0,0,1-.716-1.947,2.927,2.927,0,0,1,1.323-2.36,5.631,5.631,0,0,1,3.248-.848l1.661.009.105-.756a1.738,1.738,0,0,0-.33-1.349,1.591,1.591,0,0,0-1.252-.514,2.453,2.453,0,0,0-1.446.4,1.7,1.7,0,0,0-.769,1.1l-1.6.009a2.55,2.55,0,0,1,.65-1.481,3.784,3.784,0,0,1,1.468-1,4.742,4.742,0,0,1,1.854-.338,3.153,3.153,0,0,1,2.312.9,2.794,2.794,0,0,1,.694,2.3l-.773,4.711-.044.677a3.318,3.318,0,0,0,.105.958L48.393,19Zm-2.5-1.23a2.774,2.774,0,0,0,1.446-.365A3.661,3.661,0,0,0,46.9,16.346l.343-1.96-1.2-.009a4.561,4.561,0,0,0-2.3.475,1.748,1.748,0,0,0-.905,1.345,1.361,1.361,0,0,0,.312,1.112A1.486,1.486,0,0,0,44.279,17.77ZM52.269,19H50.687L53.024,5.5h1.591Zm10.468-2.224L66.164,9.49h1.679L63.053,19H61.84L59.977,9.49h1.564ZM72.976,9.314a3.428,3.428,0,0,1,2.048.65,3.7,3.7,0,0,1,1.261,1.745,5.4,5.4,0,0,1,.277,2.43l-.018.193a6.4,6.4,0,0,1-.826,2.509,4.848,4.848,0,0,1-1.705,1.745,4.158,4.158,0,0,1-2.294.589,3.434,3.434,0,0,1-2.043-.65A3.611,3.611,0,0,1,68.423,16.8a5.547,5.547,0,0,1-.281-2.4,6.48,6.48,0,0,1,.8-2.654A4.96,4.96,0,0,1,70.66,9.925,4.109,4.109,0,0,1,72.976,9.314Zm-3.234,5.1a5.4,5.4,0,0,0,0,1.151,2.821,2.821,0,0,0,.62,1.652,1.86,1.86,0,0,0,1.419.642,2.534,2.534,0,0,0,1.459-.391,3.284,3.284,0,0,0,1.125-1.261,5.311,5.311,0,0,0,.589-1.872,8.431,8.431,0,0,0,.026-1.362,2.927,2.927,0,0,0-.642-1.679,1.9,1.9,0,0,0-1.424-.65,2.592,2.592,0,0,0-2.092.967,4.776,4.776,0,0,0-1.063,2.6ZM79.462,19H77.88L80.218,5.5h1.591Zm8.64-.94a3.673,3.673,0,0,1-2.839,1.116,2.37,2.37,0,0,1-2.017-.976,3.731,3.731,0,0,1-.488-2.566l1.02-6.144h1.591L84.34,15.66a4.1,4.1,0,0,0-.018.756,1.573,1.573,0,0,0,.378.993,1.29,1.29,0,0,0,.932.387,2.854,2.854,0,0,0,2.637-1.38l1.2-6.926h1.591L89.4,19H87.9Zm6.812-8.578-.2,1.063A3.718,3.718,0,0,1,97.6,9.314a2.934,2.934,0,0,1,1.534.413A2.026,2.026,0,0,1,100,10.844a3.927,3.927,0,0,1,3.155-1.529,2.515,2.515,0,0,1,2.1.958,3.422,3.422,0,0,1,.5,2.479L104.713,19h-1.582l1.037-6.267a3.311,3.311,0,0,0,0-.835Q104,10.7,102.6,10.677a2.4,2.4,0,0,0-1.578.541,2.5,2.5,0,0,0-.91,1.463L99.035,19h-1.6l1.055-6.258a2.009,2.009,0,0,0-.294-1.5,1.549,1.549,0,0,0-1.27-.545,2.6,2.6,0,0,0-2.364,1.354L93.357,19H91.767l1.652-9.51Zm16.365,9.694a3.429,3.429,0,0,1-2.777-1.31,4.507,4.507,0,0,1-.844-3.261l.044-.378a6.327,6.327,0,0,1,.839-2.584,4.882,4.882,0,0,1,1.683-1.762,3.927,3.927,0,0,1,2.145-.567,3.024,3.024,0,0,1,2.3.976,4.012,4.012,0,0,1,.914,2.549,7.448,7.448,0,0,1-.035,1.143l-.1.729h-6.214a3.212,3.212,0,0,0,.426,2.2,2.019,2.019,0,0,0,1.745.94,3.383,3.383,0,0,0,2.6-1.266l.914.773a4.183,4.183,0,0,1-1.542,1.349A4.371,4.371,0,0,1,111.278,19.176Zm1.011-8.534a2.324,2.324,0,0,0-1.718.668,4.748,4.748,0,0,0-1.165,2.065l4.623.009.035-.141a2.6,2.6,0,0,0-.356-1.841A1.674,1.674,0,0,0,112.289,10.642ZM113.722,5.5h2.03l-2.689,2.584-1.4,0ZM120.7,7.188l-.4,2.3h1.731l-.22,1.257h-1.723l-.993,5.915a2.062,2.062,0,0,0-.009.422.67.67,0,0,0,.747.686,4.556,4.556,0,0,0,.773-.088l-.123,1.327a4.328,4.328,0,0,1-1.16.158,1.661,1.661,0,0,1-1.424-.7,2.7,2.7,0,0,1-.369-1.833l.967-5.889h-1.679l.22-1.257h1.679l.4-2.3Zm7.506,3.753-.747-.079a2.722,2.722,0,0,0-2.408,1.38L123.882,19h-1.591l1.652-9.51,1.538-.009-.237,1.107A2.843,2.843,0,0,1,127.626,9.3a2.918,2.918,0,0,1,.756.132Zm1.8,8.06h-1.582l1.652-9.51h1.582Zm1.31-12.981a.87.87,0,0,1,.672.242.9.9,0,0,1,.268.681.938.938,0,0,1-.94.958.876.876,0,0,1-.677-.237.86.86,0,0,1-.255-.668,1,1,0,0,1,.264-.686A.93.93,0,0,1,131.317,6.019Zm5.309,11.839a2.413,2.413,0,0,0,1.538-.5,2.362,2.362,0,0,0,.9-1.349l1.5-.009a3.391,3.391,0,0,1-.716,1.635,4.14,4.14,0,0,1-3.292,1.538,3.394,3.394,0,0,1-2.008-.62,3.469,3.469,0,0,1-1.208-1.679,5.593,5.593,0,0,1-.264-2.421l.044-.439a6.306,6.306,0,0,1,.8-2.452,4.624,4.624,0,0,1,1.652-1.683,4.1,4.1,0,0,1,2.25-.567,3.214,3.214,0,0,1,2.391,1,3.465,3.465,0,0,1,.9,2.452l-1.485-.009a2.283,2.283,0,0,0-.519-1.507,1.808,1.808,0,0,0-1.354-.611,2.536,2.536,0,0,0-2.061.923,4.834,4.834,0,0,0-1.024,2.654l-.026.229a7.623,7.623,0,0,0-.018,1.16,2.65,2.65,0,0,0,.58,1.626A1.863,1.863,0,0,0,136.626,17.857ZM147.12,9.314a3.428,3.428,0,0,1,2.048.65,3.7,3.7,0,0,1,1.261,1.745,5.4,5.4,0,0,1,.277,2.43l-.018.193a6.4,6.4,0,0,1-.826,2.509,4.848,4.848,0,0,1-1.705,1.745,4.158,4.158,0,0,1-2.294.589,3.434,3.434,0,0,1-2.043-.65,3.611,3.611,0,0,1-1.252-1.723,5.547,5.547,0,0,1-.281-2.4,6.48,6.48,0,0,1,.8-2.654A4.96,4.96,0,0,1,144.8,9.925,4.109,4.109,0,0,1,147.12,9.314Zm-3.234,5.1a5.4,5.4,0,0,0,0,1.151,2.821,2.821,0,0,0,.62,1.652,1.86,1.86,0,0,0,1.419.642,2.534,2.534,0,0,0,1.459-.391,3.284,3.284,0,0,0,1.125-1.261,5.311,5.311,0,0,0,.589-1.872,8.431,8.431,0,0,0,.026-1.362,2.927,2.927,0,0,0-.642-1.679,1.9,1.9,0,0,0-1.424-.65,2.592,2.592,0,0,0-2.092.967,4.776,4.776,0,0,0-1.063,2.6Zm13.307-.571a16.638,16.638,0,0,1,1.077-3.955A12.256,12.256,0,0,1,160.2,6.6a7.925,7.925,0,0,1,2.549-2.052l.237,1.09a9.121,9.121,0,0,0-2.369,2.685,13.816,13.816,0,0,0-1.525,3.938,18.939,18.939,0,0,0-.519,4.5,9.956,9.956,0,0,0,.47,3.2,5.056,5.056,0,0,0,1.358,2.184l-.4.984a6.347,6.347,0,0,1-2.246-3.015,11.627,11.627,0,0,1-.708-4.57,13.9,13.9,0,0,1,.123-1.608Zm12.858,4.491,1.907,1.837-1.222.993L168.5,19.026a6.139,6.139,0,0,1-1.3.141,3.946,3.946,0,0,1-2.118-.584,3.8,3.8,0,0,1-1.419-1.661,6.343,6.343,0,0,1-.558-2.457,11.683,11.683,0,0,1,.233-2.641,8.948,8.948,0,0,1,.98-2.769A6.45,6.45,0,0,1,166,7.064a5,5,0,0,1,3.217-1.037,4.151,4.151,0,0,1,2.153.6,3.741,3.741,0,0,1,1.415,1.657,6.4,6.4,0,0,1,.554,2.457,9.436,9.436,0,0,1-.062,1.468l-.105.747A7.09,7.09,0,0,1,170.051,18.332Zm1.652-7.189a4.349,4.349,0,0,0-.606-2.7,2.327,2.327,0,0,0-1.951-.976,3.333,3.333,0,0,0-2.1.633,4.791,4.791,0,0,0-1.521,2,10.3,10.3,0,0,0-.751,3.371l-.026.571a5.675,5.675,0,0,0,.237,1.89,2.6,2.6,0,0,0,.866,1.336,2.44,2.44,0,0,0,1.455.483,3.327,3.327,0,0,0,2.72-1.169,6.731,6.731,0,0,0,1.472-3.472A15.112,15.112,0,0,0,171.7,11.143Zm7.277,2.716a16.309,16.309,0,0,1-1.116,4.056,12.2,12.2,0,0,1-1.938,3.226,8.059,8.059,0,0,1-2.5,2l-.246-1.011q3.015-2.268,4.025-7.286a18.938,18.938,0,0,0,.387-3.894q-.044-3.771-1.828-5.405l.413-.984a5.826,5.826,0,0,1,1.666,1.824,8.6,8.6,0,0,1,1,2.646,13.548,13.548,0,0,1,.286,3.125A15.012,15.012,0,0,1,179,13.762Zm10.09-2.013h-7.119l.246-1.415h7.128Zm-.633,3.647h-7.119l.246-1.406h7.128Z" transform="translate(550 7714.5)" fill="#fff"/>
    <path id="Trazado_737821" data-name="Trazado 737821" d="M10.274,14.922a5.1,5.1,0,0,1-1.8,3.146,5.036,5.036,0,0,1-3.423,1.107,3.987,3.987,0,0,1-2.074-.584A3.693,3.693,0,0,1,1.6,16.983a6.007,6.007,0,0,1-.545-2.325,7.451,7.451,0,0,1,.062-1.406L1.266,12.2A7.96,7.96,0,0,1,3.292,7.649,5.112,5.112,0,0,1,7.216,6.027a3.828,3.828,0,0,1,2.856,1.165,4.632,4.632,0,0,1,1.116,3.133H9.545q-.114-2.689-2.109-2.9l-.29-.018A3.4,3.4,0,0,0,4.373,8.642a6.685,6.685,0,0,0-1.437,3.494l-.193,1.327-.053.773a4.35,4.35,0,0,0,.576,2.571,2.171,2.171,0,0,0,1.868.989,3.29,3.29,0,0,0,2.21-.642,4.269,4.269,0,0,0,1.332-2.206ZM17.543,19a2.13,2.13,0,0,1-.062-.5l.026-.5a3.9,3.9,0,0,1-2.777,1.178,2.841,2.841,0,0,1-2.043-.8,2.407,2.407,0,0,1-.716-1.947,2.927,2.927,0,0,1,1.323-2.36,5.631,5.631,0,0,1,3.248-.848l1.661.009.105-.756a1.738,1.738,0,0,0-.33-1.349,1.591,1.591,0,0,0-1.252-.514,2.453,2.453,0,0,0-1.446.4,1.7,1.7,0,0,0-.769,1.1l-1.6.009a2.55,2.55,0,0,1,.65-1.481,3.784,3.784,0,0,1,1.468-1,4.742,4.742,0,0,1,1.854-.338,3.153,3.153,0,0,1,2.312.9,2.794,2.794,0,0,1,.694,2.3l-.773,4.711-.044.677a3.318,3.318,0,0,0,.105.958L19.16,19Zm-2.5-1.23a2.774,2.774,0,0,0,1.446-.365,3.661,3.661,0,0,0,1.173-1.059l.343-1.96-1.2-.009a4.561,4.561,0,0,0-2.3.475A1.748,1.748,0,0,0,13.6,16.2a1.361,1.361,0,0,0,.312,1.112A1.486,1.486,0,0,0,15.047,17.77Zm12.3.29a3.673,3.673,0,0,1-2.839,1.116A2.37,2.37,0,0,1,22.5,18.2a3.731,3.731,0,0,1-.488-2.566l1.02-6.144h1.591L23.59,15.66a4.1,4.1,0,0,0-.018.756,1.573,1.573,0,0,0,.378.993,1.29,1.29,0,0,0,.932.387,2.854,2.854,0,0,0,2.637-1.38l1.2-6.926H30.3L28.652,19h-1.5Zm4.131-3.832a7.4,7.4,0,0,1,.8-2.619A4.534,4.534,0,0,1,33.82,9.859a3.517,3.517,0,0,1,2.013-.554,2.971,2.971,0,0,1,2.443,1.16L39.19,5.5h1.591L38.443,19h-1.45l.167-1.02a3.506,3.506,0,0,1-2.777,1.2,2.627,2.627,0,0,1-2.1-1.033,4.5,4.5,0,0,1-.844-2.676A8.547,8.547,0,0,1,31.482,14.228Zm1.529.909a3.3,3.3,0,0,0,.448,1.949,1.617,1.617,0,0,0,1.389.711A2.874,2.874,0,0,0,37.3,16.409l.756-4.389a1.973,1.973,0,0,0-1.916-1.334,2.411,2.411,0,0,0-1.657.566,3.663,3.663,0,0,0-1.09,1.659A6.842,6.842,0,0,0,33.012,15.136ZM46.775,19a2.13,2.13,0,0,1-.062-.5l.026-.5a3.9,3.9,0,0,1-2.777,1.178,2.841,2.841,0,0,1-2.043-.8,2.407,2.407,0,0,1-.716-1.947,2.927,2.927,0,0,1,1.323-2.36,5.631,5.631,0,0,1,3.248-.848l1.661.009.105-.756a1.738,1.738,0,0,0-.33-1.349,1.591,1.591,0,0,0-1.252-.514,2.453,2.453,0,0,0-1.446.4,1.7,1.7,0,0,0-.769,1.1l-1.6.009a2.55,2.55,0,0,1,.65-1.481,3.784,3.784,0,0,1,1.468-1,4.742,4.742,0,0,1,1.854-.338,3.153,3.153,0,0,1,2.312.9,2.794,2.794,0,0,1,.694,2.3l-.773,4.711-.044.677a3.318,3.318,0,0,0,.105.958L48.393,19Zm-2.5-1.23a2.774,2.774,0,0,0,1.446-.365A3.661,3.661,0,0,0,46.9,16.346l.343-1.96-1.2-.009a4.561,4.561,0,0,0-2.3.475,1.748,1.748,0,0,0-.905,1.345,1.361,1.361,0,0,0,.312,1.112A1.486,1.486,0,0,0,44.279,17.77ZM52.269,19H50.687L53.024,5.5h1.591Zm10.468-2.224L66.164,9.49h1.679L63.053,19H61.84L59.977,9.49h1.564ZM72.976,9.314a3.428,3.428,0,0,1,2.048.65,3.7,3.7,0,0,1,1.261,1.745,5.4,5.4,0,0,1,.277,2.43l-.018.193a6.4,6.4,0,0,1-.826,2.509,4.848,4.848,0,0,1-1.705,1.745,4.158,4.158,0,0,1-2.294.589,3.434,3.434,0,0,1-2.043-.65A3.611,3.611,0,0,1,68.423,16.8a5.547,5.547,0,0,1-.281-2.4,6.48,6.48,0,0,1,.8-2.654A4.96,4.96,0,0,1,70.66,9.925,4.109,4.109,0,0,1,72.976,9.314Zm-3.234,5.1a5.4,5.4,0,0,0,0,1.151,2.821,2.821,0,0,0,.62,1.652,1.86,1.86,0,0,0,1.419.642,2.534,2.534,0,0,0,1.459-.391,3.284,3.284,0,0,0,1.125-1.261,5.311,5.311,0,0,0,.589-1.872,8.431,8.431,0,0,0,.026-1.362,2.927,2.927,0,0,0-.642-1.679,1.9,1.9,0,0,0-1.424-.65,2.592,2.592,0,0,0-2.092.967,4.776,4.776,0,0,0-1.063,2.6ZM79.462,19H77.88L80.218,5.5h1.591Zm8.64-.94a3.673,3.673,0,0,1-2.839,1.116,2.37,2.37,0,0,1-2.017-.976,3.731,3.731,0,0,1-.488-2.566l1.02-6.144h1.591L84.34,15.66a4.1,4.1,0,0,0-.018.756,1.573,1.573,0,0,0,.378.993,1.29,1.29,0,0,0,.932.387,2.854,2.854,0,0,0,2.637-1.38l1.2-6.926h1.591L89.4,19H87.9Zm6.812-8.578-.2,1.063A3.718,3.718,0,0,1,97.6,9.314a2.934,2.934,0,0,1,1.534.413A2.026,2.026,0,0,1,100,10.844a3.927,3.927,0,0,1,3.155-1.529,2.515,2.515,0,0,1,2.1.958,3.422,3.422,0,0,1,.5,2.479L104.713,19h-1.582l1.037-6.267a3.311,3.311,0,0,0,0-.835Q104,10.7,102.6,10.677a2.4,2.4,0,0,0-1.578.541,2.5,2.5,0,0,0-.91,1.463L99.035,19h-1.6l1.055-6.258a2.009,2.009,0,0,0-.294-1.5,1.549,1.549,0,0,0-1.27-.545,2.6,2.6,0,0,0-2.364,1.354L93.357,19H91.767l1.652-9.51Zm16.365,9.694a3.429,3.429,0,0,1-2.777-1.31,4.507,4.507,0,0,1-.844-3.261l.044-.378a6.327,6.327,0,0,1,.839-2.584,4.882,4.882,0,0,1,1.683-1.762,3.927,3.927,0,0,1,2.145-.567,3.024,3.024,0,0,1,2.3.976,4.012,4.012,0,0,1,.914,2.549,7.448,7.448,0,0,1-.035,1.143l-.1.729h-6.214a3.212,3.212,0,0,0,.426,2.2,2.019,2.019,0,0,0,1.745.94,3.383,3.383,0,0,0,2.6-1.266l.914.773a4.183,4.183,0,0,1-1.542,1.349A4.371,4.371,0,0,1,111.278,19.176Zm1.011-8.534a2.324,2.324,0,0,0-1.718.668,4.748,4.748,0,0,0-1.165,2.065l4.623.009.035-.141a2.6,2.6,0,0,0-.356-1.841A1.674,1.674,0,0,0,112.289,10.642ZM113.722,5.5h2.03l-2.689,2.584-1.4,0ZM120.7,7.188l-.4,2.3h1.731l-.22,1.257h-1.723l-.993,5.915a2.062,2.062,0,0,0-.009.422.67.67,0,0,0,.747.686,4.556,4.556,0,0,0,.773-.088l-.123,1.327a4.328,4.328,0,0,1-1.16.158,1.661,1.661,0,0,1-1.424-.7,2.7,2.7,0,0,1-.369-1.833l.967-5.889h-1.679l.22-1.257h1.679l.4-2.3Zm7.506,3.753-.747-.079a2.722,2.722,0,0,0-2.408,1.38L123.882,19h-1.591l1.652-9.51,1.538-.009-.237,1.107A2.843,2.843,0,0,1,127.626,9.3a2.918,2.918,0,0,1,.756.132Zm1.8,8.06h-1.582l1.652-9.51h1.582Zm1.31-12.981a.87.87,0,0,1,.672.242.9.9,0,0,1,.268.681.938.938,0,0,1-.94.958.876.876,0,0,1-.677-.237.86.86,0,0,1-.255-.668,1,1,0,0,1,.264-.686A.93.93,0,0,1,131.317,6.019Zm5.309,11.839a2.413,2.413,0,0,0,1.538-.5,2.362,2.362,0,0,0,.9-1.349l1.5-.009a3.391,3.391,0,0,1-.716,1.635,4.14,4.14,0,0,1-3.292,1.538,3.394,3.394,0,0,1-2.008-.62,3.469,3.469,0,0,1-1.208-1.679,5.593,5.593,0,0,1-.264-2.421l.044-.439a6.306,6.306,0,0,1,.8-2.452,4.624,4.624,0,0,1,1.652-1.683,4.1,4.1,0,0,1,2.25-.567,3.214,3.214,0,0,1,2.391,1,3.465,3.465,0,0,1,.9,2.452l-1.485-.009a2.283,2.283,0,0,0-.519-1.507,1.808,1.808,0,0,0-1.354-.611,2.536,2.536,0,0,0-2.061.923,4.834,4.834,0,0,0-1.024,2.654l-.026.229a7.623,7.623,0,0,0-.018,1.16,2.65,2.65,0,0,0,.58,1.626A1.863,1.863,0,0,0,136.626,17.857ZM147.12,9.314a3.428,3.428,0,0,1,2.048.65,3.7,3.7,0,0,1,1.261,1.745,5.4,5.4,0,0,1,.277,2.43l-.018.193a6.4,6.4,0,0,1-.826,2.509,4.848,4.848,0,0,1-1.705,1.745,4.158,4.158,0,0,1-2.294.589,3.434,3.434,0,0,1-2.043-.65,3.611,3.611,0,0,1-1.252-1.723,5.547,5.547,0,0,1-.281-2.4,6.48,6.48,0,0,1,.8-2.654A4.96,4.96,0,0,1,144.8,9.925,4.109,4.109,0,0,1,147.12,9.314Zm-3.234,5.1a5.4,5.4,0,0,0,0,1.151,2.821,2.821,0,0,0,.62,1.652,1.86,1.86,0,0,0,1.419.642,2.534,2.534,0,0,0,1.459-.391,3.284,3.284,0,0,0,1.125-1.261,5.311,5.311,0,0,0,.589-1.872,8.431,8.431,0,0,0,.026-1.362,2.927,2.927,0,0,0-.642-1.679,1.9,1.9,0,0,0-1.424-.65,2.592,2.592,0,0,0-2.092.967,4.776,4.776,0,0,0-1.063,2.6Zm13.307-.571a16.638,16.638,0,0,1,1.077-3.955A12.256,12.256,0,0,1,160.2,6.6a7.925,7.925,0,0,1,2.549-2.052l.237,1.09a9.121,9.121,0,0,0-2.369,2.685,13.816,13.816,0,0,0-1.525,3.938,18.939,18.939,0,0,0-.519,4.5,9.956,9.956,0,0,0,.47,3.2,5.056,5.056,0,0,0,1.358,2.184l-.4.984a6.347,6.347,0,0,1-2.246-3.015,11.627,11.627,0,0,1-.708-4.57,13.9,13.9,0,0,1,.123-1.608Zm12.858,4.491,1.907,1.837-1.222.993L168.5,19.026a6.139,6.139,0,0,1-1.3.141,3.946,3.946,0,0,1-2.118-.584,3.8,3.8,0,0,1-1.419-1.661,6.343,6.343,0,0,1-.558-2.457,11.683,11.683,0,0,1,.233-2.641,8.948,8.948,0,0,1,.98-2.769A6.45,6.45,0,0,1,166,7.064a5,5,0,0,1,3.217-1.037,4.151,4.151,0,0,1,2.153.6,3.741,3.741,0,0,1,1.415,1.657,6.4,6.4,0,0,1,.554,2.457,9.436,9.436,0,0,1-.062,1.468l-.105.747A7.09,7.09,0,0,1,170.051,18.332Zm1.652-7.189a4.349,4.349,0,0,0-.606-2.7,2.327,2.327,0,0,0-1.951-.976,3.333,3.333,0,0,0-2.1.633,4.791,4.791,0,0,0-1.521,2,10.3,10.3,0,0,0-.751,3.371l-.026.571a5.675,5.675,0,0,0,.237,1.89,2.6,2.6,0,0,0,.866,1.336,2.44,2.44,0,0,0,1.455.483,3.327,3.327,0,0,0,2.72-1.169,6.731,6.731,0,0,0,1.472-3.472A15.112,15.112,0,0,0,171.7,11.143Zm7.277,2.716a16.309,16.309,0,0,1-1.116,4.056,12.2,12.2,0,0,1-1.938,3.226,8.059,8.059,0,0,1-2.5,2l-.246-1.011q3.015-2.268,4.025-7.286a18.938,18.938,0,0,0,.387-3.894q-.044-3.771-1.828-5.405l.413-.984a5.826,5.826,0,0,1,1.666,1.824,8.6,8.6,0,0,1,1,2.646,13.548,13.548,0,0,1,.286,3.125A15.012,15.012,0,0,1,179,13.762Zm10.09-2.013h-7.119l.246-1.415h7.128Zm-.633,3.647h-7.119l.246-1.406h7.128Z" transform="translate(550 7793)" fill="#fff"/>
    <path id="Trazado_737822" data-name="Trazado 737822" d="M4.421,10.962,6.53,7.49h1.9l-3.111,4.7L8.525,17H6.645l-2.2-3.56L2.25,17H.36l3.208-4.808L.457,7.49H2.338Z" transform="translate(851 7793)" fill="#fff"/>
    <path id="Trazado_737823" data-name="Trazado 737823" d="M4.421,10.962,6.53,7.49h1.9l-3.111,4.7L8.525,17H6.645l-2.2-3.56L2.25,17H.36l3.208-4.808L.457,7.49H2.338Z" transform="translate(960 7793)" fill="#fff"/>
    <path id="Trazado_737831" data-name="Trazado 737831" d="M10.274,14.922a5.1,5.1,0,0,1-1.8,3.146,5.036,5.036,0,0,1-3.423,1.107,3.987,3.987,0,0,1-2.074-.584A3.693,3.693,0,0,1,1.6,16.983a6.007,6.007,0,0,1-.545-2.325,7.451,7.451,0,0,1,.062-1.406L1.266,12.2A7.96,7.96,0,0,1,3.292,7.649,5.112,5.112,0,0,1,7.216,6.027a3.828,3.828,0,0,1,2.856,1.165,4.632,4.632,0,0,1,1.116,3.133H9.545q-.114-2.689-2.109-2.9l-.29-.018A3.4,3.4,0,0,0,4.373,8.642a6.685,6.685,0,0,0-1.437,3.494l-.193,1.327-.053.773a4.35,4.35,0,0,0,.576,2.571,2.171,2.171,0,0,0,1.868.989,3.29,3.29,0,0,0,2.21-.642,4.269,4.269,0,0,0,1.332-2.206ZM17.543,19a2.13,2.13,0,0,1-.062-.5l.026-.5a3.9,3.9,0,0,1-2.777,1.178,2.841,2.841,0,0,1-2.043-.8,2.407,2.407,0,0,1-.716-1.947,2.927,2.927,0,0,1,1.323-2.36,5.631,5.631,0,0,1,3.248-.848l1.661.009.105-.756a1.738,1.738,0,0,0-.33-1.349,1.591,1.591,0,0,0-1.252-.514,2.453,2.453,0,0,0-1.446.4,1.7,1.7,0,0,0-.769,1.1l-1.6.009a2.55,2.55,0,0,1,.65-1.481,3.784,3.784,0,0,1,1.468-1,4.742,4.742,0,0,1,1.854-.338,3.153,3.153,0,0,1,2.312.9,2.794,2.794,0,0,1,.694,2.3l-.773,4.711-.044.677a3.318,3.318,0,0,0,.105.958L19.16,19Zm-2.5-1.23a2.774,2.774,0,0,0,1.446-.365,3.661,3.661,0,0,0,1.173-1.059l.343-1.96-1.2-.009a4.561,4.561,0,0,0-2.3.475A1.748,1.748,0,0,0,13.6,16.2a1.361,1.361,0,0,0,.312,1.112A1.486,1.486,0,0,0,15.047,17.77Zm12.3.29a3.673,3.673,0,0,1-2.839,1.116A2.37,2.37,0,0,1,22.5,18.2a3.731,3.731,0,0,1-.488-2.566l1.02-6.144h1.591L23.59,15.66a4.1,4.1,0,0,0-.018.756,1.573,1.573,0,0,0,.378.993,1.29,1.29,0,0,0,.932.387,2.854,2.854,0,0,0,2.637-1.38l1.2-6.926H30.3L28.652,19h-1.5Zm4.131-3.832a7.4,7.4,0,0,1,.8-2.619A4.534,4.534,0,0,1,33.82,9.859a3.517,3.517,0,0,1,2.013-.554,2.971,2.971,0,0,1,2.443,1.16L39.19,5.5h1.591L38.443,19h-1.45l.167-1.02a3.506,3.506,0,0,1-2.777,1.2,2.627,2.627,0,0,1-2.1-1.033,4.5,4.5,0,0,1-.844-2.676A8.547,8.547,0,0,1,31.482,14.228Zm1.529.909a3.3,3.3,0,0,0,.448,1.949,1.617,1.617,0,0,0,1.389.711A2.874,2.874,0,0,0,37.3,16.409l.756-4.389a1.973,1.973,0,0,0-1.916-1.334,2.411,2.411,0,0,0-1.657.566,3.663,3.663,0,0,0-1.09,1.659A6.842,6.842,0,0,0,33.012,15.136ZM46.775,19a2.13,2.13,0,0,1-.062-.5l.026-.5a3.9,3.9,0,0,1-2.777,1.178,2.841,2.841,0,0,1-2.043-.8,2.407,2.407,0,0,1-.716-1.947,2.927,2.927,0,0,1,1.323-2.36,5.631,5.631,0,0,1,3.248-.848l1.661.009.105-.756a1.738,1.738,0,0,0-.33-1.349,1.591,1.591,0,0,0-1.252-.514,2.453,2.453,0,0,0-1.446.4,1.7,1.7,0,0,0-.769,1.1l-1.6.009a2.55,2.55,0,0,1,.65-1.481,3.784,3.784,0,0,1,1.468-1,4.742,4.742,0,0,1,1.854-.338,3.153,3.153,0,0,1,2.312.9,2.794,2.794,0,0,1,.694,2.3l-.773,4.711-.044.677a3.318,3.318,0,0,0,.105.958L48.393,19Zm-2.5-1.23a2.774,2.774,0,0,0,1.446-.365A3.661,3.661,0,0,0,46.9,16.346l.343-1.96-1.2-.009a4.561,4.561,0,0,0-2.3.475,1.748,1.748,0,0,0-.905,1.345,1.361,1.361,0,0,0,.312,1.112A1.486,1.486,0,0,0,44.279,17.77ZM52.269,19H50.687L53.024,5.5h1.591Zm10.468-2.224L66.164,9.49h1.679L63.053,19H61.84L59.977,9.49h1.564ZM72.976,9.314a3.428,3.428,0,0,1,2.048.65,3.7,3.7,0,0,1,1.261,1.745,5.4,5.4,0,0,1,.277,2.43l-.018.193a6.4,6.4,0,0,1-.826,2.509,4.848,4.848,0,0,1-1.705,1.745,4.158,4.158,0,0,1-2.294.589,3.434,3.434,0,0,1-2.043-.65A3.611,3.611,0,0,1,68.423,16.8a5.547,5.547,0,0,1-.281-2.4,6.48,6.48,0,0,1,.8-2.654A4.96,4.96,0,0,1,70.66,9.925,4.109,4.109,0,0,1,72.976,9.314Zm-3.234,5.1a5.4,5.4,0,0,0,0,1.151,2.821,2.821,0,0,0,.62,1.652,1.86,1.86,0,0,0,1.419.642,2.534,2.534,0,0,0,1.459-.391,3.284,3.284,0,0,0,1.125-1.261,5.311,5.311,0,0,0,.589-1.872,8.431,8.431,0,0,0,.026-1.362,2.927,2.927,0,0,0-.642-1.679,1.9,1.9,0,0,0-1.424-.65,2.592,2.592,0,0,0-2.092.967,4.776,4.776,0,0,0-1.063,2.6ZM79.462,19H77.88L80.218,5.5h1.591Zm8.64-.94a3.673,3.673,0,0,1-2.839,1.116,2.37,2.37,0,0,1-2.017-.976,3.731,3.731,0,0,1-.488-2.566l1.02-6.144h1.591L84.34,15.66a4.1,4.1,0,0,0-.018.756,1.573,1.573,0,0,0,.378.993,1.29,1.29,0,0,0,.932.387,2.854,2.854,0,0,0,2.637-1.38l1.2-6.926h1.591L89.4,19H87.9Zm6.812-8.578-.2,1.063A3.718,3.718,0,0,1,97.6,9.314a2.934,2.934,0,0,1,1.534.413A2.026,2.026,0,0,1,100,10.844a3.927,3.927,0,0,1,3.155-1.529,2.515,2.515,0,0,1,2.1.958,3.422,3.422,0,0,1,.5,2.479L104.713,19h-1.582l1.037-6.267a3.311,3.311,0,0,0,0-.835Q104,10.7,102.6,10.677a2.4,2.4,0,0,0-1.578.541,2.5,2.5,0,0,0-.91,1.463L99.035,19h-1.6l1.055-6.258a2.009,2.009,0,0,0-.294-1.5,1.549,1.549,0,0,0-1.27-.545,2.6,2.6,0,0,0-2.364,1.354L93.357,19H91.767l1.652-9.51Zm16.365,9.694a3.429,3.429,0,0,1-2.777-1.31,4.507,4.507,0,0,1-.844-3.261l.044-.378a6.327,6.327,0,0,1,.839-2.584,4.882,4.882,0,0,1,1.683-1.762,3.927,3.927,0,0,1,2.145-.567,3.024,3.024,0,0,1,2.3.976,4.012,4.012,0,0,1,.914,2.549,7.448,7.448,0,0,1-.035,1.143l-.1.729h-6.214a3.212,3.212,0,0,0,.426,2.2,2.019,2.019,0,0,0,1.745.94,3.383,3.383,0,0,0,2.6-1.266l.914.773a4.183,4.183,0,0,1-1.542,1.349A4.371,4.371,0,0,1,111.278,19.176Zm1.011-8.534a2.324,2.324,0,0,0-1.718.668,4.748,4.748,0,0,0-1.165,2.065l4.623.009.035-.141a2.6,2.6,0,0,0-.356-1.841A1.674,1.674,0,0,0,112.289,10.642ZM113.722,5.5h2.03l-2.689,2.584-1.4,0ZM120.7,7.188l-.4,2.3h1.731l-.22,1.257h-1.723l-.993,5.915a2.062,2.062,0,0,0-.009.422.67.67,0,0,0,.747.686,4.556,4.556,0,0,0,.773-.088l-.123,1.327a4.328,4.328,0,0,1-1.16.158,1.661,1.661,0,0,1-1.424-.7,2.7,2.7,0,0,1-.369-1.833l.967-5.889h-1.679l.22-1.257h1.679l.4-2.3Zm7.506,3.753-.747-.079a2.722,2.722,0,0,0-2.408,1.38L123.882,19h-1.591l1.652-9.51,1.538-.009-.237,1.107A2.843,2.843,0,0,1,127.626,9.3a2.918,2.918,0,0,1,.756.132Zm1.8,8.06h-1.582l1.652-9.51h1.582Zm1.31-12.981a.87.87,0,0,1,.672.242.9.9,0,0,1,.268.681.938.938,0,0,1-.94.958.876.876,0,0,1-.677-.237.86.86,0,0,1-.255-.668,1,1,0,0,1,.264-.686A.93.93,0,0,1,131.317,6.019Zm5.309,11.839a2.413,2.413,0,0,0,1.538-.5,2.362,2.362,0,0,0,.9-1.349l1.5-.009a3.391,3.391,0,0,1-.716,1.635,4.14,4.14,0,0,1-3.292,1.538,3.394,3.394,0,0,1-2.008-.62,3.469,3.469,0,0,1-1.208-1.679,5.593,5.593,0,0,1-.264-2.421l.044-.439a6.306,6.306,0,0,1,.8-2.452,4.624,4.624,0,0,1,1.652-1.683,4.1,4.1,0,0,1,2.25-.567,3.214,3.214,0,0,1,2.391,1,3.465,3.465,0,0,1,.9,2.452l-1.485-.009a2.283,2.283,0,0,0-.519-1.507,1.808,1.808,0,0,0-1.354-.611,2.536,2.536,0,0,0-2.061.923,4.834,4.834,0,0,0-1.024,2.654l-.026.229a7.623,7.623,0,0,0-.018,1.16,2.65,2.65,0,0,0,.58,1.626A1.863,1.863,0,0,0,136.626,17.857ZM147.12,9.314a3.428,3.428,0,0,1,2.048.65,3.7,3.7,0,0,1,1.261,1.745,5.4,5.4,0,0,1,.277,2.43l-.018.193a6.4,6.4,0,0,1-.826,2.509,4.848,4.848,0,0,1-1.705,1.745,4.158,4.158,0,0,1-2.294.589,3.434,3.434,0,0,1-2.043-.65,3.611,3.611,0,0,1-1.252-1.723,5.547,5.547,0,0,1-.281-2.4,6.48,6.48,0,0,1,.8-2.654A4.96,4.96,0,0,1,144.8,9.925,4.109,4.109,0,0,1,147.12,9.314Zm-3.234,5.1a5.4,5.4,0,0,0,0,1.151,2.821,2.821,0,0,0,.62,1.652,1.86,1.86,0,0,0,1.419.642,2.534,2.534,0,0,0,1.459-.391,3.284,3.284,0,0,0,1.125-1.261,5.311,5.311,0,0,0,.589-1.872,8.431,8.431,0,0,0,.026-1.362,2.927,2.927,0,0,0-.642-1.679,1.9,1.9,0,0,0-1.424-.65,2.592,2.592,0,0,0-2.092.967,4.776,4.776,0,0,0-1.063,2.6Zm13.307-.571a16.638,16.638,0,0,1,1.077-3.955A12.256,12.256,0,0,1,160.2,6.6a7.925,7.925,0,0,1,2.549-2.052l.237,1.09a9.121,9.121,0,0,0-2.369,2.685,13.816,13.816,0,0,0-1.525,3.938,18.939,18.939,0,0,0-.519,4.5,9.956,9.956,0,0,0,.47,3.2,5.056,5.056,0,0,0,1.358,2.184l-.4.984a6.347,6.347,0,0,1-2.246-3.015,11.627,11.627,0,0,1-.708-4.57,13.9,13.9,0,0,1,.123-1.608Zm12.858,4.491,1.907,1.837-1.222.993L168.5,19.026a6.139,6.139,0,0,1-1.3.141,3.946,3.946,0,0,1-2.118-.584,3.8,3.8,0,0,1-1.419-1.661,6.343,6.343,0,0,1-.558-2.457,11.683,11.683,0,0,1,.233-2.641,8.948,8.948,0,0,1,.98-2.769A6.45,6.45,0,0,1,166,7.064a5,5,0,0,1,3.217-1.037,4.151,4.151,0,0,1,2.153.6,3.741,3.741,0,0,1,1.415,1.657,6.4,6.4,0,0,1,.554,2.457,9.436,9.436,0,0,1-.062,1.468l-.105.747A7.09,7.09,0,0,1,170.051,18.332Zm1.652-7.189a4.349,4.349,0,0,0-.606-2.7,2.327,2.327,0,0,0-1.951-.976,3.333,3.333,0,0,0-2.1.633,4.791,4.791,0,0,0-1.521,2,10.3,10.3,0,0,0-.751,3.371l-.026.571a5.675,5.675,0,0,0,.237,1.89,2.6,2.6,0,0,0,.866,1.336,2.44,2.44,0,0,0,1.455.483,3.327,3.327,0,0,0,2.72-1.169,6.731,6.731,0,0,0,1.472-3.472A15.112,15.112,0,0,0,171.7,11.143Zm7.277,2.716a16.309,16.309,0,0,1-1.116,4.056,12.2,12.2,0,0,1-1.938,3.226,8.059,8.059,0,0,1-2.5,2l-.246-1.011q3.015-2.268,4.025-7.286a18.938,18.938,0,0,0,.387-3.894q-.044-3.771-1.828-5.405l.413-.984a5.826,5.826,0,0,1,1.666,1.824,8.6,8.6,0,0,1,1,2.646,13.548,13.548,0,0,1,.286,3.125A15.012,15.012,0,0,1,179,13.762Zm10.09-2.013h-7.119l.246-1.415h7.128Zm-.633,3.647h-7.119l.246-1.406h7.128Z" transform="translate(550 7871.5)" fill="#fff"/>
    <path id="Trazado_737816" data-name="Trazado 737816" d="M4.474-11.812l-.4,2.3H5.8l-.22,1.257H3.858L2.865-2.338a2.062,2.062,0,0,0-.009.422A.67.67,0,0,0,3.6-1.23a4.556,4.556,0,0,0,.773-.088L4.254.009a4.328,4.328,0,0,1-1.16.158,1.661,1.661,0,0,1-1.424-.7A2.7,2.7,0,0,1,1.3-2.364l.967-5.889H.589L.809-9.51H2.487l.4-2.3Z" transform="translate(799 7743)" fill="#fff"/>
    <path id="Trazado_737824" data-name="Trazado 737824" d="M8.35,0H.2L.4-1.239l4.72-4.588.861-.853A5.044,5.044,0,0,0,7.62-9.422,2.033,2.033,0,0,0,7.242-11a1.778,1.778,0,0,0-1.389-.646,2.619,2.619,0,0,0-1.925.672,3.088,3.088,0,0,0-.94,1.938l-1.573.009a4.451,4.451,0,0,1,.725-2.087,4.039,4.039,0,0,1,1.608-1.4,4.622,4.622,0,0,1,2.167-.461,3.551,3.551,0,0,1,2.527.962,2.852,2.852,0,0,1,.8,2.4A6.126,6.126,0,0,1,7.3-6.056L6.5-5.238,2.382-1.327H8.561Zm9.369-9.519-.2,1.063a3.718,3.718,0,0,1,2.892-1.23,2.934,2.934,0,0,1,1.534.413,2.026,2.026,0,0,1,.866,1.116,3.927,3.927,0,0,1,3.155-1.529,2.515,2.515,0,0,1,2.1.958,3.422,3.422,0,0,1,.5,2.479L27.519,0H25.937l1.037-6.267a3.311,3.311,0,0,0,0-.835q-.167-1.2-1.564-1.222a2.4,2.4,0,0,0-1.578.541,2.5,2.5,0,0,0-.91,1.463L21.841,0h-1.6L21.3-6.258A2.009,2.009,0,0,0,21-7.761a1.549,1.549,0,0,0-1.27-.545,2.6,2.6,0,0,0-2.364,1.354L16.163,0H14.572l1.652-9.51ZM31.693,0H30.111l1.652-9.51h1.582ZM33-12.981a.87.87,0,0,1,.672.242.9.9,0,0,1,.268.681.955.955,0,0,1-.268.677A.962.962,0,0,1,33-11.1a.876.876,0,0,1-.677-.237.86.86,0,0,1-.255-.668,1,1,0,0,1,.264-.686A.93.93,0,0,1,33-12.981ZM37.45-9.519l-.229,1.2A3.749,3.749,0,0,1,40.14-9.686a2.359,2.359,0,0,1,1.986.932A3.619,3.619,0,0,1,42.6-6.231L41.563,0H39.973l1.046-6.251a3.332,3.332,0,0,0,.009-.8,1.314,1.314,0,0,0-1.45-1.255,2.994,2.994,0,0,0-2.514,1.528L35.886,0H34.295l1.652-9.51ZM50.054-.94A3.673,3.673,0,0,1,47.215.176,2.37,2.37,0,0,1,45.2-.8a3.731,3.731,0,0,1-.488-2.566l1.02-6.144H47.32L46.292-3.34a4.1,4.1,0,0,0-.018.756,1.573,1.573,0,0,0,.378.993,1.29,1.29,0,0,0,.932.387,2.854,2.854,0,0,0,2.637-1.38l1.2-6.926h1.591L51.354,0h-1.5Zm7.875-10.872-.4,2.3h1.731l-.22,1.257H57.313L56.32-2.338a2.062,2.062,0,0,0-.009.422.67.67,0,0,0,.747.686,4.556,4.556,0,0,0,.773-.088L57.709.009a4.328,4.328,0,0,1-1.16.158,1.661,1.661,0,0,1-1.424-.7,2.7,2.7,0,0,1-.369-1.833l.967-5.889H54.044l.22-1.257h1.679l.4-2.3Zm6.7,2.127a3.428,3.428,0,0,1,2.048.65,3.7,3.7,0,0,1,1.261,1.745,5.4,5.4,0,0,1,.277,2.43l-.018.193a6.4,6.4,0,0,1-.826,2.509A4.848,4.848,0,0,1,65.663-.413a4.158,4.158,0,0,1-2.294.589,3.434,3.434,0,0,1-2.043-.65A3.611,3.611,0,0,1,60.073-2.2a5.547,5.547,0,0,1-.281-2.4,6.48,6.48,0,0,1,.8-2.654A4.96,4.96,0,0,1,62.31-9.075,4.109,4.109,0,0,1,64.626-9.686Zm-3.234,5.1a5.4,5.4,0,0,0,0,1.151,2.821,2.821,0,0,0,.62,1.652,1.86,1.86,0,0,0,1.419.642,2.534,2.534,0,0,0,1.459-.391,3.284,3.284,0,0,0,1.125-1.261A5.311,5.311,0,0,0,66.6-4.667a8.431,8.431,0,0,0,.026-1.362,2.927,2.927,0,0,0-.642-1.679,1.9,1.9,0,0,0-1.424-.65,2.592,2.592,0,0,0-2.092.967,4.776,4.776,0,0,0-1.063,2.6ZM75.278-2.575Q75.41-3.56,74.2-3.964l-1.652-.483q-2.092-.721-2.021-2.391A2.634,2.634,0,0,1,71.67-8.9a4.085,4.085,0,0,1,2.553-.787,3.406,3.406,0,0,1,2.342.839,2.659,2.659,0,0,1,.866,2.14L75.85-6.715a1.484,1.484,0,0,0-.448-1.16,1.774,1.774,0,0,0-1.239-.466,2.316,2.316,0,0,0-1.424.4A1.48,1.48,0,0,0,72.1-6.9q-.114.826,1.011,1.2l.8.22a5.15,5.15,0,0,1,2.32,1.1A2.1,2.1,0,0,1,76.86-2.7a2.666,2.666,0,0,1-.58,1.547A3.317,3.317,0,0,1,74.874-.145,4.7,4.7,0,0,1,73,.176a3.71,3.71,0,0,1-2.5-.883,2.731,2.731,0,0,1-.949-2.228l1.591.009a1.686,1.686,0,0,0,.51,1.283,1.948,1.948,0,0,0,1.4.483,2.741,2.741,0,0,0,1.5-.365A1.4,1.4,0,0,0,75.278-2.575Z" transform="translate(762 7822)" fill="#fff"/>
    <path id="Trazado_737825" data-name="Trazado 737825" d="M5.309,0h-1.6L5.59-10.793l-3.4,1.2.272-1.547,4.746-1.714h.281Zm12.41-9.519-.2,1.063a3.718,3.718,0,0,1,2.892-1.23,2.934,2.934,0,0,1,1.534.413,2.026,2.026,0,0,1,.866,1.116,3.927,3.927,0,0,1,3.155-1.529,2.515,2.515,0,0,1,2.1.958,3.422,3.422,0,0,1,.5,2.479L27.519,0H25.937l1.037-6.267a3.311,3.311,0,0,0,0-.835q-.167-1.2-1.564-1.222a2.4,2.4,0,0,0-1.578.541,2.5,2.5,0,0,0-.91,1.463L21.841,0h-1.6L21.3-6.258A2.009,2.009,0,0,0,21-7.761a1.549,1.549,0,0,0-1.27-.545,2.6,2.6,0,0,0-2.364,1.354L16.163,0H14.572l1.652-9.51Zm14.112-.675.615.005a1.817,1.817,0,0,0,1.141-.356,1.35,1.35,0,0,0,.531-.966,1.19,1.19,0,0,0-.22-.936,1.059,1.059,0,0,0-.836-.351,1.427,1.427,0,0,0-.992.341,1.506,1.506,0,0,0-.5.946l-.918.005a2.127,2.127,0,0,1,.787-1.5,2.5,2.5,0,0,1,1.669-.566,2,2,0,0,1,1.474.587,1.863,1.863,0,0,1,.464,1.494,1.726,1.726,0,0,1-.405.964,2.7,2.7,0,0,1-.995.723,1.475,1.475,0,0,1,.759.649,1.809,1.809,0,0,1,.21,1.038,2.291,2.291,0,0,1-.8,1.625,2.523,2.523,0,0,1-1.751.595,2.122,2.122,0,0,1-1.528-.595,1.886,1.886,0,0,1-.528-1.482l.928.005a1.246,1.246,0,0,0,.277.925,1.181,1.181,0,0,0,.892.372,1.492,1.492,0,0,0,1.092-.374,1.562,1.562,0,0,0,.5-1.056,1.142,1.142,0,0,0-.277-.951,1.4,1.4,0,0,0-.995-.361l-.713-.005Z" transform="translate(893 7822)" fill="#fff"/>
    <path id="Trazado_737826" data-name="Trazado 737826" d="M8.394-12.814l-.141,1.38H7.945a4.654,4.654,0,0,0-3.006,1.09A6.755,6.755,0,0,0,3.006-7.233,3.706,3.706,0,0,1,5.8-8.394a2.891,2.891,0,0,1,1.731.558A3.111,3.111,0,0,1,8.591-6.341a4.9,4.9,0,0,1,.233,2.1,5.123,5.123,0,0,1-1.393,3.2A3.827,3.827,0,0,1,4.438.176,3.122,3.122,0,0,1,2.1-.87,4.418,4.418,0,0,1,1.055-3.577a10.246,10.246,0,0,1,.22-2.5,9.055,9.055,0,0,1,2.4-5.01,6.271,6.271,0,0,1,4.548-1.731ZM5.458-7.049a2.684,2.684,0,0,0-1.6.492,3.461,3.461,0,0,0-1.151,1.3l-.062.589-.018.712a4.5,4.5,0,0,0,.22,1.4A2.137,2.137,0,0,0,3.5-1.529a1.59,1.59,0,0,0,1.011.36A2.247,2.247,0,0,0,6.333-1.96a3.777,3.777,0,0,0,.91-2.2,3.793,3.793,0,0,0-.1-1.45,2.13,2.13,0,0,0-.611-1.042A1.621,1.621,0,0,0,5.458-7.049ZM14.045.176A2.888,2.888,0,0,1,11.619-.971a5.091,5.091,0,0,1-.738-3.2q.018-.65.1-1.283l.316-2.136A7.923,7.923,0,0,1,12.9-11.672a3.846,3.846,0,0,1,3.129-1.3,2.923,2.923,0,0,1,2.439,1.121A4.979,4.979,0,0,1,19.213-8.7q-.026.659-.105,1.292L18.8-5.344a8.4,8.4,0,0,1-1.644,4.228A3.821,3.821,0,0,1,14.045.176ZM17.569-7.7a13.6,13.6,0,0,0,.114-1.652q-.044-2.232-1.731-2.294a2.31,2.31,0,0,0-1.991.91A6.306,6.306,0,0,0,12.9-7.743l-.378,2.549a12.965,12.965,0,0,0-.114,1.661q.044,2.329,1.723,2.391A2.258,2.258,0,0,0,16.062-2a6.108,6.108,0,0,0,1.085-2.9Zm12.8,5.124q.132-.984-1.081-1.389l-1.652-.483q-2.092-.721-2.021-2.391A2.634,2.634,0,0,1,26.758-8.9a4.085,4.085,0,0,1,2.553-.787,3.406,3.406,0,0,1,2.342.839,2.659,2.659,0,0,1,.866,2.14l-1.582-.009a1.484,1.484,0,0,0-.448-1.16,1.774,1.774,0,0,0-1.239-.466,2.316,2.316,0,0,0-1.424.4A1.48,1.48,0,0,0,27.185-6.9q-.114.826,1.011,1.2l.8.22a5.15,5.15,0,0,1,2.32,1.1A2.1,2.1,0,0,1,31.948-2.7a2.666,2.666,0,0,1-.58,1.547A3.317,3.317,0,0,1,29.962-.145,4.7,4.7,0,0,1,28.09.176a3.71,3.71,0,0,1-2.5-.883,2.731,2.731,0,0,1-.949-2.228l1.591.009a1.686,1.686,0,0,0,.51,1.283,1.948,1.948,0,0,0,1.4.483,2.741,2.741,0,0,0,1.5-.365A1.4,1.4,0,0,0,30.366-2.575Z" transform="translate(996 7822)" fill="#fff"/>
    <path id="Trazado_737832" data-name="Trazado 737832" d="M6.161-2.575Q6.293-3.56,5.08-3.964L3.428-4.447Q1.336-5.168,1.406-6.838A2.634,2.634,0,0,1,2.553-8.9a4.085,4.085,0,0,1,2.553-.787,3.406,3.406,0,0,1,2.342.839,2.659,2.659,0,0,1,.866,2.14L6.732-6.715a1.484,1.484,0,0,0-.448-1.16,1.774,1.774,0,0,0-1.239-.466,2.316,2.316,0,0,0-1.424.4A1.48,1.48,0,0,0,2.979-6.9q-.114.826,1.011,1.2l.8.22a5.15,5.15,0,0,1,2.32,1.1A2.1,2.1,0,0,1,7.743-2.7a2.666,2.666,0,0,1-.58,1.547A3.317,3.317,0,0,1,5.757-.145,4.7,4.7,0,0,1,3.885.176a3.71,3.71,0,0,1-2.5-.883A2.731,2.731,0,0,1,.439-2.936l1.591.009a1.686,1.686,0,0,0,.51,1.283,1.948,1.948,0,0,0,1.4.483,2.741,2.741,0,0,0,1.5-.365A1.4,1.4,0,0,0,6.161-2.575Z" transform="translate(798.5 7900)" fill="#fff"/>
    <path id="Trazado_737814" data-name="Trazado 737814" d="M5.045-2.259,10.239-12.8H12.1L5.493,0H4.034L1.441-12.8H3.173Z" transform="translate(796 7719)" fill="#fff"/>
    <path id="Trazado_737818" data-name="Trazado 737818" d="M4.148.176A2.888,2.888,0,0,1,1.723-.971a5.091,5.091,0,0,1-.738-3.2q.018-.65.1-1.283L1.4-7.594a7.923,7.923,0,0,1,1.608-4.078,3.846,3.846,0,0,1,3.129-1.3,2.923,2.923,0,0,1,2.439,1.121A4.979,4.979,0,0,1,9.316-8.7q-.026.659-.105,1.292L8.9-5.344A8.4,8.4,0,0,1,7.26-1.116,3.821,3.821,0,0,1,4.148.176ZM7.673-7.7a13.6,13.6,0,0,0,.114-1.652q-.044-2.232-1.731-2.294a2.31,2.31,0,0,0-1.991.91A6.306,6.306,0,0,0,3.006-7.743L2.628-5.194a12.965,12.965,0,0,0-.114,1.661Q2.558-1.2,4.236-1.143A2.258,2.258,0,0,0,6.166-2,6.108,6.108,0,0,0,7.251-4.9ZM9.817,2.558,8.9,1.9A5.8,5.8,0,0,0,10.169-.6L10.4-1.925h1.556L11.769-.738A5.086,5.086,0,0,1,9.817,2.558ZM20.944-4.3h1.723L22.43-2.971H20.716L20.2,0H18.6l.519-2.971h-5.66l.185-1.046,7.031-8.78h1.74Zm-5.4,0h3.8l1.143-6.293-.255.369Zm9.686-2.145L26.859-12.8H33.24L33-11.294h-5.01l-.984,3.5A3.916,3.916,0,0,1,29.1-8.35a2.872,2.872,0,0,1,2.443,1.2,4.347,4.347,0,0,1,.694,3.01,4.808,4.808,0,0,1-1.4,3.164A4.107,4.107,0,0,1,27.773.185,3.347,3.347,0,0,1,25.3-.8a3.72,3.72,0,0,1-.993-2.575H25.8a2.549,2.549,0,0,0,.6,1.635,1.932,1.932,0,0,0,1.45.6,2.366,2.366,0,0,0,1.894-.8,3.693,3.693,0,0,0,.91-2.188,2.811,2.811,0,0,0-.413-1.956,1.879,1.879,0,0,0-1.573-.8,2.7,2.7,0,0,0-1.138.193,4.227,4.227,0,0,0-.989.606ZM37.354.176A2.888,2.888,0,0,1,34.928-.971a5.091,5.091,0,0,1-.738-3.2q.018-.65.1-1.283L34.6-7.594a7.923,7.923,0,0,1,1.608-4.078,3.846,3.846,0,0,1,3.129-1.3,2.923,2.923,0,0,1,2.439,1.121A4.979,4.979,0,0,1,42.521-8.7q-.026.659-.105,1.292l-.308,2.065a8.4,8.4,0,0,1-1.644,4.228A3.821,3.821,0,0,1,37.354.176ZM40.878-7.7a13.6,13.6,0,0,0,.114-1.652q-.044-2.232-1.731-2.294a2.31,2.31,0,0,0-1.991.91,6.306,6.306,0,0,0-1.059,2.993l-.378,2.549a12.965,12.965,0,0,0-.114,1.661q.044,2.329,1.723,2.391A2.258,2.258,0,0,0,39.371-2a6.108,6.108,0,0,0,1.085-2.9ZM50.924-9.519l-.2,1.063a3.718,3.718,0,0,1,2.892-1.23,2.934,2.934,0,0,1,1.534.413,2.026,2.026,0,0,1,.866,1.116,3.927,3.927,0,0,1,3.155-1.529,2.515,2.515,0,0,1,2.1.958,3.422,3.422,0,0,1,.5,2.479L60.724,0H59.142l1.037-6.267a3.311,3.311,0,0,0,0-.835q-.167-1.2-1.564-1.222a2.4,2.4,0,0,0-1.578.541,2.5,2.5,0,0,0-.91,1.463L55.046,0h-1.6L54.5-6.258a2.009,2.009,0,0,0-.294-1.5,1.549,1.549,0,0,0-1.27-.545,2.6,2.6,0,0,0-2.364,1.354L49.368,0H47.777L49.43-9.51Zm14.112-.675.615.005a1.817,1.817,0,0,0,1.141-.356,1.35,1.35,0,0,0,.531-.966,1.19,1.19,0,0,0-.22-.936,1.059,1.059,0,0,0-.836-.351,1.427,1.427,0,0,0-.992.341,1.506,1.506,0,0,0-.5.946l-.918.005a2.127,2.127,0,0,1,.787-1.5,2.5,2.5,0,0,1,1.669-.566,2,2,0,0,1,1.474.587,1.863,1.863,0,0,1,.464,1.494,1.726,1.726,0,0,1-.405.964,2.7,2.7,0,0,1-.995.723,1.475,1.475,0,0,1,.759.649,1.809,1.809,0,0,1,.21,1.038,2.291,2.291,0,0,1-.8,1.625,2.523,2.523,0,0,1-1.751.595,2.122,2.122,0,0,1-1.528-.595,1.886,1.886,0,0,1-.528-1.482l.928.005a1.246,1.246,0,0,0,.277.925,1.181,1.181,0,0,0,.892.372A1.492,1.492,0,0,0,66.4-7.046,1.562,1.562,0,0,0,66.9-8.1a1.142,1.142,0,0,0-.277-.951,1.4,1.4,0,0,0-.995-.361l-.713-.005Z" transform="translate(767 7797)" fill="#fff"/>
    <path id="Trazado_737819" data-name="Trazado 737819" d="M5.309,0h-1.6L5.59-10.793l-3.4,1.2.272-1.547,4.746-1.714h.281Zm8.736.176A2.888,2.888,0,0,1,11.619-.971a5.091,5.091,0,0,1-.738-3.2q.018-.65.1-1.283l.316-2.136A7.923,7.923,0,0,1,12.9-11.672a3.846,3.846,0,0,1,3.129-1.3,2.923,2.923,0,0,1,2.439,1.121A4.979,4.979,0,0,1,19.213-8.7q-.026.659-.105,1.292L18.8-5.344a8.4,8.4,0,0,1-1.644,4.228A3.821,3.821,0,0,1,14.045.176ZM17.569-7.7a13.6,13.6,0,0,0,.114-1.652q-.044-2.232-1.731-2.294a2.31,2.31,0,0,0-1.991.91A6.306,6.306,0,0,0,12.9-7.743l-.378,2.549a12.965,12.965,0,0,0-.114,1.661q.044,2.329,1.723,2.391A2.258,2.258,0,0,0,16.062-2a6.108,6.108,0,0,0,1.085-2.9ZM23.941.176A2.888,2.888,0,0,1,21.516-.971a5.091,5.091,0,0,1-.738-3.2q.018-.65.1-1.283l.316-2.136A7.923,7.923,0,0,1,22.8-11.672a3.846,3.846,0,0,1,3.129-1.3,2.923,2.923,0,0,1,2.439,1.121A4.979,4.979,0,0,1,29.109-8.7q-.026.659-.105,1.292L28.7-5.344a8.4,8.4,0,0,1-1.644,4.228A3.821,3.821,0,0,1,23.941.176ZM27.466-7.7a13.6,13.6,0,0,0,.114-1.652q-.044-2.232-1.731-2.294a2.31,2.31,0,0,0-1.991.91A6.306,6.306,0,0,0,22.8-7.743l-.378,2.549a12.965,12.965,0,0,0-.114,1.661q.044,2.329,1.723,2.391A2.258,2.258,0,0,0,25.958-2a6.108,6.108,0,0,0,1.085-2.9ZM33.838.176A2.888,2.888,0,0,1,31.412-.971a5.091,5.091,0,0,1-.738-3.2q.018-.65.1-1.283l.316-2.136A7.923,7.923,0,0,1,32.7-11.672a3.846,3.846,0,0,1,3.129-1.3,2.923,2.923,0,0,1,2.439,1.121A4.979,4.979,0,0,1,39.006-8.7q-.026.659-.105,1.292l-.308,2.065a8.4,8.4,0,0,1-1.644,4.228A3.821,3.821,0,0,1,33.838.176ZM37.362-7.7a13.6,13.6,0,0,0,.114-1.652q-.044-2.232-1.731-2.294a2.31,2.31,0,0,0-1.991.91A6.306,6.306,0,0,0,32.7-7.743l-.378,2.549A12.965,12.965,0,0,0,32.2-3.533q.044,2.329,1.723,2.391A2.258,2.258,0,0,0,35.855-2,6.108,6.108,0,0,0,36.94-4.9ZM45.993,0H44.411l2.338-13.5H48.34Zm4.324,0H48.735l1.652-9.51H51.97Zm1.31-12.981a.87.87,0,0,1,.672.242.9.9,0,0,1,.268.681.955.955,0,0,1-.268.677.962.962,0,0,1-.672.281.876.876,0,0,1-.677-.237.86.86,0,0,1-.255-.668,1,1,0,0,1,.264-.686A.93.93,0,0,1,51.627-12.981Zm5.493,1.169-.4,2.3h1.731l-.22,1.257H56.5l-.993,5.915a2.062,2.062,0,0,0-.009.422.67.67,0,0,0,.747.686,4.556,4.556,0,0,0,.773-.088L56.9.009a4.328,4.328,0,0,1-1.16.158,1.661,1.661,0,0,1-1.424-.7,2.7,2.7,0,0,1-.369-1.833l.967-5.889H53.235l.22-1.257h1.679l.4-2.3ZM64.626-8.06l-.747-.079a2.722,2.722,0,0,0-2.408,1.38L60.3,0H58.711l1.652-9.51L61.9-9.519l-.237,1.107A2.843,2.843,0,0,1,64.046-9.7a2.918,2.918,0,0,1,.756.132Zm5.186-1.626a3.428,3.428,0,0,1,2.048.65,3.7,3.7,0,0,1,1.261,1.745A5.4,5.4,0,0,1,73.4-4.86l-.018.193a6.4,6.4,0,0,1-.826,2.509A4.848,4.848,0,0,1,70.849-.413a4.158,4.158,0,0,1-2.294.589,3.434,3.434,0,0,1-2.043-.65A3.611,3.611,0,0,1,65.259-2.2a5.547,5.547,0,0,1-.281-2.4,6.48,6.48,0,0,1,.8-2.654A4.96,4.96,0,0,1,67.5-9.075,4.109,4.109,0,0,1,69.812-9.686Zm-3.234,5.1a5.4,5.4,0,0,0,0,1.151,2.821,2.821,0,0,0,.62,1.652,1.86,1.86,0,0,0,1.419.642,2.534,2.534,0,0,0,1.459-.391A3.284,3.284,0,0,0,71.2-2.795a5.311,5.311,0,0,0,.589-1.872,8.431,8.431,0,0,0,.026-1.362,2.927,2.927,0,0,0-.642-1.679,1.9,1.9,0,0,0-1.424-.65,2.592,2.592,0,0,0-2.092.967,4.776,4.776,0,0,0-1.063,2.6ZM80.464-2.575q.132-.984-1.081-1.389L77.73-4.447q-2.092-.721-2.021-2.391A2.634,2.634,0,0,1,76.856-8.9a4.085,4.085,0,0,1,2.553-.787,3.406,3.406,0,0,1,2.342.839,2.659,2.659,0,0,1,.866,2.14l-1.582-.009a1.484,1.484,0,0,0-.448-1.16,1.774,1.774,0,0,0-1.239-.466,2.316,2.316,0,0,0-1.424.4A1.48,1.48,0,0,0,77.282-6.9q-.114.826,1.011,1.2l.8.22a5.15,5.15,0,0,1,2.32,1.1A2.1,2.1,0,0,1,82.046-2.7a2.666,2.666,0,0,1-.58,1.547A3.317,3.317,0,0,1,80.06-.145a4.7,4.7,0,0,1-1.872.321,3.71,3.71,0,0,1-2.5-.883,2.731,2.731,0,0,1-.949-2.228l1.591.009a1.686,1.686,0,0,0,.51,1.283,1.948,1.948,0,0,0,1.4.483,2.741,2.741,0,0,0,1.5-.365A1.4,1.4,0,0,0,80.464-2.575Z" transform="translate(869 7797)" fill="#fff"/>
    <path id="Trazado_737820" data-name="Trazado 737820" d="M5.309,0h-1.6L5.59-10.793l-3.4,1.2.272-1.547,4.746-1.714h.281Zm12.41-9.519-.2,1.063a3.718,3.718,0,0,1,2.892-1.23,2.934,2.934,0,0,1,1.534.413,2.026,2.026,0,0,1,.866,1.116,3.927,3.927,0,0,1,3.155-1.529,2.515,2.515,0,0,1,2.1.958,3.422,3.422,0,0,1,.5,2.479L27.519,0H25.937l1.037-6.267a3.311,3.311,0,0,0,0-.835q-.167-1.2-1.564-1.222a2.4,2.4,0,0,0-1.578.541,2.5,2.5,0,0,0-.91,1.463L21.841,0h-1.6L21.3-6.258A2.009,2.009,0,0,0,21-7.761a1.549,1.549,0,0,0-1.27-.545,2.6,2.6,0,0,0-2.364,1.354L16.163,0H14.572l1.652-9.51ZM31.693,0H30.111l1.652-9.51h1.582ZM33-12.981a.87.87,0,0,1,.672.242.9.9,0,0,1,.268.681.955.955,0,0,1-.268.677A.962.962,0,0,1,33-11.1a.876.876,0,0,1-.677-.237.86.86,0,0,1-.255-.668,1,1,0,0,1,.264-.686A.93.93,0,0,1,33-12.981ZM37.45-9.519l-.229,1.2A3.749,3.749,0,0,1,40.14-9.686a2.359,2.359,0,0,1,1.986.932A3.619,3.619,0,0,1,42.6-6.231L41.563,0H39.973l1.046-6.251a3.332,3.332,0,0,0,.009-.8,1.314,1.314,0,0,0-1.45-1.255,2.994,2.994,0,0,0-2.514,1.528L35.886,0H34.295l1.652-9.51ZM50.054-.94A3.673,3.673,0,0,1,47.215.176,2.37,2.37,0,0,1,45.2-.8a3.731,3.731,0,0,1-.488-2.566l1.02-6.144H47.32L46.292-3.34a4.1,4.1,0,0,0-.018.756,1.573,1.573,0,0,0,.378.993,1.29,1.29,0,0,0,.932.387,2.854,2.854,0,0,0,2.637-1.38l1.2-6.926h1.591L51.354,0h-1.5Zm7.875-10.872-.4,2.3h1.731l-.22,1.257H57.313L56.32-2.338a2.062,2.062,0,0,0-.009.422.67.67,0,0,0,.747.686,4.556,4.556,0,0,0,.773-.088L57.709.009a4.328,4.328,0,0,1-1.16.158,1.661,1.661,0,0,1-1.424-.7,2.7,2.7,0,0,1-.369-1.833l.967-5.889H54.044l.22-1.257h1.679l.4-2.3Zm6.7,2.127a3.428,3.428,0,0,1,2.048.65,3.7,3.7,0,0,1,1.261,1.745,5.4,5.4,0,0,1,.277,2.43l-.018.193a6.4,6.4,0,0,1-.826,2.509A4.848,4.848,0,0,1,65.663-.413a4.158,4.158,0,0,1-2.294.589,3.434,3.434,0,0,1-2.043-.65A3.611,3.611,0,0,1,60.073-2.2a5.547,5.547,0,0,1-.281-2.4,6.48,6.48,0,0,1,.8-2.654A4.96,4.96,0,0,1,62.31-9.075,4.109,4.109,0,0,1,64.626-9.686Zm-3.234,5.1a5.4,5.4,0,0,0,0,1.151,2.821,2.821,0,0,0,.62,1.652,1.86,1.86,0,0,0,1.419.642,2.534,2.534,0,0,0,1.459-.391,3.284,3.284,0,0,0,1.125-1.261A5.311,5.311,0,0,0,66.6-4.667a8.431,8.431,0,0,0,.026-1.362,2.927,2.927,0,0,0-.642-1.679,1.9,1.9,0,0,0-1.424-.65,2.592,2.592,0,0,0-2.092.967,4.776,4.776,0,0,0-1.063,2.6Z" transform="translate(977 7797)" fill="#fff"/>
    <path id="Trazado_737830" data-name="Trazado 737830" d="M3.656-7.189l1.055.009a3.115,3.115,0,0,0,1.956-.611,2.315,2.315,0,0,0,.91-1.657,2.041,2.041,0,0,0-.378-1.6,1.815,1.815,0,0,0-1.433-.6,2.446,2.446,0,0,0-1.7.584,2.581,2.581,0,0,0-.857,1.622l-1.573.009A3.646,3.646,0,0,1,2.984-12.01a4.28,4.28,0,0,1,2.861-.971,3.42,3.42,0,0,1,2.527,1.006,3.193,3.193,0,0,1,.8,2.562,2.96,2.96,0,0,1-.694,1.652A4.625,4.625,0,0,1,6.768-6.521a2.529,2.529,0,0,1,1.3,1.112,3.1,3.1,0,0,1,.36,1.78A3.928,3.928,0,0,1,7.053-.844a4.325,4.325,0,0,1-3,1.02A3.638,3.638,0,0,1,1.433-.844a3.233,3.233,0,0,1-.905-2.54l1.591.009a2.137,2.137,0,0,0,.475,1.586,2.025,2.025,0,0,0,1.529.637,2.557,2.557,0,0,0,1.872-.642A2.677,2.677,0,0,0,6.847-3.6a1.958,1.958,0,0,0-.475-1.63,2.393,2.393,0,0,0-1.705-.62L3.445-5.862ZM9.817,2.558,8.9,1.9A5.8,5.8,0,0,0,10.169-.6L10.4-1.925h1.556L11.769-.738A5.086,5.086,0,0,1,9.817,2.558ZM23.484-11.795,16.532,0h-1.74l6.917-11.461h-6.68L15.24-12.8h8.4Zm1.749,5.353L26.859-12.8H33.24L33-11.294h-5.01l-.984,3.5A3.916,3.916,0,0,1,29.1-8.35a2.872,2.872,0,0,1,2.443,1.2,4.347,4.347,0,0,1,.694,3.01,4.808,4.808,0,0,1-1.4,3.164A4.107,4.107,0,0,1,27.773.185,3.347,3.347,0,0,1,25.3-.8a3.72,3.72,0,0,1-.993-2.575H25.8a2.549,2.549,0,0,0,.6,1.635,1.932,1.932,0,0,0,1.45.6,2.366,2.366,0,0,0,1.894-.8,3.693,3.693,0,0,0,.91-2.188,2.811,2.811,0,0,0-.413-1.956,1.879,1.879,0,0,0-1.573-.8,2.7,2.7,0,0,0-1.138.193,4.227,4.227,0,0,0-.989.606ZM44.024,0H42.442L44.78-13.5h1.591Zm4.324,0H46.767l1.652-9.51H50Zm1.31-12.981a.87.87,0,0,1,.672.242.9.9,0,0,1,.268.681.955.955,0,0,1-.268.677.962.962,0,0,1-.672.281.876.876,0,0,1-.677-.237.86.86,0,0,1-.255-.668,1,1,0,0,1,.264-.686A.93.93,0,0,1,49.658-12.981Zm5.493,1.169-.4,2.3h1.731l-.22,1.257H54.536l-.993,5.915a2.062,2.062,0,0,0-.009.422.67.67,0,0,0,.747.686,4.556,4.556,0,0,0,.773-.088L54.932.009a4.328,4.328,0,0,1-1.16.158,1.661,1.661,0,0,1-1.424-.7,2.7,2.7,0,0,1-.369-1.833l.967-5.889H51.267l.22-1.257h1.679l.4-2.3ZM62.657-8.06l-.747-.079A2.722,2.722,0,0,0,59.5-6.759L58.333,0H56.742l1.652-9.51,1.538-.009L59.7-8.411A2.843,2.843,0,0,1,62.077-9.7a2.918,2.918,0,0,1,.756.132Zm5.186-1.626a3.428,3.428,0,0,1,2.048.65,3.7,3.7,0,0,1,1.261,1.745,5.4,5.4,0,0,1,.277,2.43l-.018.193a6.4,6.4,0,0,1-.826,2.509A4.848,4.848,0,0,1,68.88-.413a4.158,4.158,0,0,1-2.294.589,3.434,3.434,0,0,1-2.043-.65A3.611,3.611,0,0,1,63.29-2.2a5.547,5.547,0,0,1-.281-2.4,6.48,6.48,0,0,1,.8-2.654,4.96,4.96,0,0,1,1.718-1.824A4.109,4.109,0,0,1,67.843-9.686Zm-3.234,5.1a5.4,5.4,0,0,0,0,1.151,2.821,2.821,0,0,0,.62,1.652,1.86,1.86,0,0,0,1.419.642,2.534,2.534,0,0,0,1.459-.391,3.284,3.284,0,0,0,1.125-1.261,5.311,5.311,0,0,0,.589-1.872,8.431,8.431,0,0,0,.026-1.362,2.927,2.927,0,0,0-.642-1.679,1.9,1.9,0,0,0-1.424-.65,2.592,2.592,0,0,0-2.092.967,4.776,4.776,0,0,0-1.063,2.6ZM78.5-2.575q.132-.984-1.081-1.389l-1.652-.483Q73.67-5.168,73.74-6.838A2.634,2.634,0,0,1,74.887-8.9a4.085,4.085,0,0,1,2.553-.787,3.406,3.406,0,0,1,2.342.839,2.659,2.659,0,0,1,.866,2.14l-1.582-.009a1.484,1.484,0,0,0-.448-1.16,1.774,1.774,0,0,0-1.239-.466,2.316,2.316,0,0,0-1.424.4A1.48,1.48,0,0,0,75.313-6.9q-.114.826,1.011,1.2l.8.22a5.15,5.15,0,0,1,2.32,1.1A2.1,2.1,0,0,1,80.077-2.7a2.666,2.666,0,0,1-.58,1.547A3.317,3.317,0,0,1,78.091-.145a4.7,4.7,0,0,1-1.872.321,3.71,3.71,0,0,1-2.5-.883,2.731,2.731,0,0,1-.949-2.228l1.591.009a1.686,1.686,0,0,0,.51,1.283,1.948,1.948,0,0,0,1.4.483,2.741,2.741,0,0,0,1.5-.365A1.4,1.4,0,0,0,78.5-2.575Z" transform="translate(761.5 7875.5)" fill="#fff"/>
    <path id="Trazado_737817" data-name="Trazado 737817" d="M0,0H85" transform="translate(759.5 7725)" fill="none" stroke="#fff" stroke-width="2"/>
    <path id="Trazado_737827" data-name="Trazado 737827" d="M0,0H85" transform="translate(759.5 7803.5)" fill="none" stroke="#fff" stroke-width="2"/>
    <path id="Trazado_737828" data-name="Trazado 737828" d="M0,0H85" transform="translate(868.5 7803.5)" fill="none" stroke="#fff" stroke-width="2"/>
    <path id="Trazado_737829" data-name="Trazado 737829" d="M0,0H85" transform="translate(970.5 7803.5)" fill="none" stroke="#fff" stroke-width="2"/>
    <path id="Trazado_737833" data-name="Trazado 737833" d="M0,0H85" transform="translate(760 7882)" fill="none" stroke="#fff" stroke-width="2"/>
  </g>
</svg>
