<svg xmlns="http://www.w3.org/2000/svg" width="610" height="101.291" viewBox="0 0 610 101.291">
  <g id="Grupo_1013617" data-name="Grupo 1013617" transform="translate(-495 -4514.709)">
    <rect id="Rectángulo_350158" data-name="Rectángulo 350158" width="542" height="70" rx="10" transform="translate(563 4546)" fill="#1c466d"/>
    <text id="Masa:_es_la_cantidad_de_materia_presente_en_el_agua_residual." data-name="Masa: es la cantidad de materia presente en el agua residual." transform="translate(629 4572)" fill="#fff" font-size="16" font-family="Roboto-Bold, Roboto" font-weight="700"><tspan x="0" y="15">Masa:</tspan><tspan y="15" xml:space="preserve" font-family="Roboto-Regular, Roboto" font-weight="400"> es la cantidad de materia presente en el agua residual.</tspan></text>
    <path id="Trazado_732180" data-name="Trazado 732180" d="M105.221,95.329l-10.754-60a5.068,5.068,0,0,0-4.989-4.174H71.594a18.2,18.2,0,1,0-25.523,0H28.186A5.068,5.068,0,0,0,23.2,35.331l-10.754,60a5.068,5.068,0,0,0,4.989,5.962h82.8a5.068,5.068,0,0,0,4.989-5.962ZM58.832,10.136A8.063,8.063,0,1,1,50.769,18.2,8.072,8.072,0,0,1,58.832,10.136ZM57.508,78.427a1.51,1.51,0,0,1-1.327.79H53.79a1.51,1.51,0,0,1-1.3-.747l-5.917-10.1-3.784,3.862v4.651a2.333,2.333,0,0,1-4.667,0V58.437a2.333,2.333,0,1,1,4.667,0v7.93l8.98-9.775a1.51,1.51,0,0,1,1.112-.488h2.052a1.509,1.509,0,0,1,1.086,2.559l-6.229,6.443,7.659,11.778A1.51,1.51,0,0,1,57.508,78.427ZM80.5,75.349a1.513,1.513,0,0,1-.568,1.181,14.041,14.041,0,0,1-3.68,2,15.468,15.468,0,0,1-5.637,1.08,12.65,12.65,0,0,1-6.322-1.521,9.672,9.672,0,0,1-4.052-4.351,14.058,14.058,0,0,1-1.356-6.157A13.3,13.3,0,0,1,60.4,61.165a10.194,10.194,0,0,1,4.43-4.3,11.954,11.954,0,0,1,5.534-1.151,11.041,11.041,0,0,1,6.724,1.806,7.879,7.879,0,0,1,1.773,1.823,2.382,2.382,0,0,1-1.515,3.7h-.005A2.308,2.308,0,0,1,74.959,62a4.76,4.76,0,0,0-1.233-1.317A5.554,5.554,0,0,0,70.36,59.7,6.324,6.324,0,0,0,65.5,61.637q-1.805,1.94-1.805,5.755,0,4.115,1.829,6.172a6.106,6.106,0,0,0,4.793,2.057,8.033,8.033,0,0,0,2.94-.575,10.112,10.112,0,0,0,2.53-1.4V70.718h-3.4a1.947,1.947,0,1,1,0-3.894h6.6a1.51,1.51,0,0,1,1.51,1.51v7.015Z" transform="translate(482.637 4514.709)" fill="#ffa031"/>
  </g>
</svg>
