<svg xmlns="http://www.w3.org/2000/svg" width="136" height="41.255" viewBox="0 0 136 41.255">
  <g id="Grupo_1015987" data-name="Grupo 1015987" transform="translate(-759.5 -8587)">
    <path id="Trazado_737815" data-name="Trazado 737815" d="M5.309,0h-1.6L5.59-10.793l-3.4,1.2.272-1.547,4.746-1.714h.281Zm8.736.176A2.888,2.888,0,0,1,11.619-.971a5.091,5.091,0,0,1-.738-3.2q.018-.65.1-1.283l.316-2.136A7.923,7.923,0,0,1,12.9-11.672a3.846,3.846,0,0,1,3.129-1.3,2.923,2.923,0,0,1,2.439,1.121A4.979,4.979,0,0,1,19.213-8.7q-.026.659-.105,1.292L18.8-5.344a8.4,8.4,0,0,1-1.644,4.228A3.821,3.821,0,0,1,14.045.176ZM17.569-7.7a13.6,13.6,0,0,0,.114-1.652q-.044-2.232-1.731-2.294a2.31,2.31,0,0,0-1.991.91A6.306,6.306,0,0,0,12.9-7.743l-.378,2.549a12.965,12.965,0,0,0-.114,1.661q.044,2.329,1.723,2.391A2.258,2.258,0,0,0,16.062-2a6.108,6.108,0,0,0,1.085-2.9Zm12.8,5.124q.132-.984-1.081-1.389l-1.652-.483q-2.092-.721-2.021-2.391A2.634,2.634,0,0,1,26.758-8.9a4.085,4.085,0,0,1,2.553-.787,3.406,3.406,0,0,1,2.342.839,2.659,2.659,0,0,1,.866,2.14l-1.582-.009a1.484,1.484,0,0,0-.448-1.16,1.774,1.774,0,0,0-1.239-.466,2.316,2.316,0,0,0-1.424.4A1.48,1.48,0,0,0,27.185-6.9q-.114.826,1.011,1.2l.8.22a5.15,5.15,0,0,1,2.32,1.1A2.1,2.1,0,0,1,31.948-2.7a2.666,2.666,0,0,1-.58,1.547A3.317,3.317,0,0,1,29.962-.145,4.7,4.7,0,0,1,28.09.176a3.71,3.71,0,0,1-2.5-.883,2.731,2.731,0,0,1-.949-2.228l1.591.009a1.686,1.686,0,0,0,.51,1.283,1.948,1.948,0,0,0,1.4.483,2.741,2.741,0,0,0,1.5-.365A1.4,1.4,0,0,0,30.366-2.575ZM37.679.176A3.429,3.429,0,0,1,34.9-1.134a4.507,4.507,0,0,1-.844-3.261l.044-.378a6.327,6.327,0,0,1,.839-2.584,4.882,4.882,0,0,1,1.683-1.762,3.927,3.927,0,0,1,2.145-.567,3.024,3.024,0,0,1,2.3.976,4.012,4.012,0,0,1,.914,2.549,7.448,7.448,0,0,1-.035,1.143l-.1.729H35.64a3.212,3.212,0,0,0,.426,2.2,2.019,2.019,0,0,0,1.745.94,3.383,3.383,0,0,0,2.6-1.266l.914.773A4.183,4.183,0,0,1,39.784-.294,4.371,4.371,0,0,1,37.679.176Zm1.011-8.534a2.324,2.324,0,0,0-1.718.668,4.748,4.748,0,0,0-1.165,2.065l4.623.009.035-.141A2.6,2.6,0,0,0,40.109-7.6,1.674,1.674,0,0,0,38.689-8.358Zm4.676,3.586a7.75,7.75,0,0,1,.839-2.7,4.39,4.39,0,0,1,1.529-1.7,3.545,3.545,0,0,1,1.973-.523,2.926,2.926,0,0,1,2.5,1.248L50.52-9.51h1.459L50.4-.2A4.627,4.627,0,0,1,48.92,2.711a4.159,4.159,0,0,1-3.015,1.042,4.281,4.281,0,0,1-1.85-.457,3.518,3.518,0,0,1-1.393-1.2l.905-.976a2.721,2.721,0,0,0,2.276,1.31,2.728,2.728,0,0,0,1.92-.633,3.265,3.265,0,0,0,1.042-1.9l.176-.844A3.6,3.6,0,0,1,46.266.176,2.8,2.8,0,0,1,44.723-.3a2.913,2.913,0,0,1-1.015-1.31,5.354,5.354,0,0,1-.4-1.912A9.825,9.825,0,0,1,43.365-4.772Zm1.538.9a3.345,3.345,0,0,0,.435,1.944,1.644,1.644,0,0,0,1.393.724,2.881,2.881,0,0,0,2.452-1.4l.747-4.363a2,2,0,0,0-1.907-1.352A2.468,2.468,0,0,0,45.9-7.261a5.488,5.488,0,0,0-.98,2.941ZM58.825-.94A3.673,3.673,0,0,1,55.986.176,2.37,2.37,0,0,1,53.969-.8a3.731,3.731,0,0,1-.488-2.566L54.5-9.51h1.591L55.063-3.34a4.1,4.1,0,0,0-.018.756,1.573,1.573,0,0,0,.378.993,1.29,1.29,0,0,0,.932.387,2.854,2.854,0,0,0,2.637-1.38l1.2-6.926h1.591L60.126,0h-1.5Zm6.829-8.578-.229,1.2a3.749,3.749,0,0,1,2.918-1.371,2.359,2.359,0,0,1,1.986.932A3.619,3.619,0,0,1,70.8-6.231L69.768,0H68.177l1.046-6.251a3.332,3.332,0,0,0,.009-.8,1.314,1.314,0,0,0-1.45-1.255,2.994,2.994,0,0,0-2.514,1.528L64.09,0H62.5l1.652-9.51Zm7.022,4.746a7.4,7.4,0,0,1,.8-2.619,4.534,4.534,0,0,1,1.538-1.749,3.517,3.517,0,0,1,2.013-.554,2.971,2.971,0,0,1,2.443,1.16l.914-4.966h1.591L79.638,0h-1.45l.167-1.02a3.506,3.506,0,0,1-2.777,1.2,2.627,2.627,0,0,1-2.1-1.033,4.5,4.5,0,0,1-.844-2.676A8.547,8.547,0,0,1,72.677-4.772Zm1.529.909a3.3,3.3,0,0,0,.448,1.949,1.617,1.617,0,0,0,1.389.711A2.874,2.874,0,0,0,78.5-2.591l.756-4.389a1.973,1.973,0,0,0-1.916-1.334,2.411,2.411,0,0,0-1.657.566,3.663,3.663,0,0,0-1.09,1.659A6.842,6.842,0,0,0,74.206-3.864ZM87.434-9.686a3.428,3.428,0,0,1,2.048.65,3.7,3.7,0,0,1,1.261,1.745,5.4,5.4,0,0,1,.277,2.43L91-4.667a6.4,6.4,0,0,1-.826,2.509A4.848,4.848,0,0,1,88.471-.413a4.158,4.158,0,0,1-2.294.589,3.434,3.434,0,0,1-2.043-.65A3.611,3.611,0,0,1,82.881-2.2,5.547,5.547,0,0,1,82.6-4.6a6.48,6.48,0,0,1,.8-2.654,4.96,4.96,0,0,1,1.718-1.824A4.109,4.109,0,0,1,87.434-9.686ZM84.2-4.588a5.4,5.4,0,0,0,0,1.151,2.821,2.821,0,0,0,.62,1.652,1.86,1.86,0,0,0,1.419.642A2.534,2.534,0,0,0,87.7-1.534a3.284,3.284,0,0,0,1.125-1.261,5.311,5.311,0,0,0,.589-1.872,8.431,8.431,0,0,0,.026-1.362A2.927,2.927,0,0,0,88.8-7.708a1.9,1.9,0,0,0-1.424-.65,2.592,2.592,0,0,0-2.092.967,4.776,4.776,0,0,0-1.063,2.6ZM98.086-2.575Q98.218-3.56,97-3.964l-1.652-.483q-2.092-.721-2.021-2.391A2.634,2.634,0,0,1,94.478-8.9a4.085,4.085,0,0,1,2.553-.787,3.406,3.406,0,0,1,2.342.839,2.659,2.659,0,0,1,.866,2.14l-1.582-.009a1.484,1.484,0,0,0-.448-1.16,1.774,1.774,0,0,0-1.239-.466,2.316,2.316,0,0,0-1.424.4A1.48,1.48,0,0,0,94.9-6.9q-.114.826,1.011,1.2l.8.22a5.15,5.15,0,0,1,2.32,1.1A2.1,2.1,0,0,1,99.668-2.7a2.666,2.666,0,0,1-.58,1.547A3.317,3.317,0,0,1,97.682-.145,4.7,4.7,0,0,1,95.81.176a3.71,3.71,0,0,1-2.5-.883,2.731,2.731,0,0,1-.949-2.228l1.591.009a1.686,1.686,0,0,0,.51,1.283,1.948,1.948,0,0,0,1.4.483,2.741,2.741,0,0,0,1.5-.365A1.4,1.4,0,0,0,98.086-2.575Z" transform="translate(776 8624.5)" fill="#fff"/>
    <path id="Trazado_737816" data-name="Trazado 737816" d="M1.925-6.442,3.551-12.8H9.932l-.237,1.5H4.685L3.7-7.8A3.916,3.916,0,0,1,5.792-8.35a2.872,2.872,0,0,1,2.443,1.2A4.347,4.347,0,0,1,8.93-4.14a4.808,4.808,0,0,1-1.4,3.164A4.107,4.107,0,0,1,4.465.185,3.347,3.347,0,0,1,2-.8,3.72,3.72,0,0,1,1-3.375H2.487a2.549,2.549,0,0,0,.6,1.635,1.932,1.932,0,0,0,1.45.6,2.366,2.366,0,0,0,1.894-.8,3.693,3.693,0,0,0,.91-2.188,2.811,2.811,0,0,0-.413-1.956,1.879,1.879,0,0,0-1.573-.8A2.7,2.7,0,0,0,4.214-6.7a4.227,4.227,0,0,0-.989.606ZM16.3,0H14.722L17.06-13.5H18.65Zm4.324,0H19.046L20.7-9.51H22.28Zm1.31-12.981a.87.87,0,0,1,.672.242.9.9,0,0,1,.268.681.955.955,0,0,1-.268.677.962.962,0,0,1-.672.281.876.876,0,0,1-.677-.237.86.86,0,0,1-.255-.668,1,1,0,0,1,.264-.686A.93.93,0,0,1,21.938-12.981Zm5.493,1.169-.4,2.3h1.731l-.22,1.257H26.815l-.993,5.915a2.062,2.062,0,0,0-.009.422.67.67,0,0,0,.747.686,4.556,4.556,0,0,0,.773-.088L27.211.009a4.328,4.328,0,0,1-1.16.158,1.661,1.661,0,0,1-1.424-.7,2.7,2.7,0,0,1-.369-1.833l.967-5.889H23.546l.22-1.257h1.679l.4-2.3ZM34.937-8.06l-.747-.079a2.722,2.722,0,0,0-2.408,1.38L30.612,0H29.021l1.652-9.51,1.538-.009-.237,1.107A2.843,2.843,0,0,1,34.356-9.7a2.918,2.918,0,0,1,.756.132Zm5.186-1.626a3.428,3.428,0,0,1,2.048.65,3.7,3.7,0,0,1,1.261,1.745,5.4,5.4,0,0,1,.277,2.43l-.018.193a6.4,6.4,0,0,1-.826,2.509A4.848,4.848,0,0,1,41.159-.413a4.158,4.158,0,0,1-2.294.589,3.434,3.434,0,0,1-2.043-.65A3.611,3.611,0,0,1,35.569-2.2a5.547,5.547,0,0,1-.281-2.4,6.48,6.48,0,0,1,.8-2.654,4.96,4.96,0,0,1,1.718-1.824A4.109,4.109,0,0,1,40.122-9.686Zm-3.234,5.1a5.4,5.4,0,0,0,0,1.151,2.821,2.821,0,0,0,.62,1.652,1.86,1.86,0,0,0,1.419.642,2.534,2.534,0,0,0,1.459-.391,3.284,3.284,0,0,0,1.125-1.261A5.311,5.311,0,0,0,42.1-4.667a8.431,8.431,0,0,0,.026-1.362,2.927,2.927,0,0,0-.642-1.679,1.9,1.9,0,0,0-1.424-.65,2.592,2.592,0,0,0-2.092.967,4.776,4.776,0,0,0-1.063,2.6ZM50.774-2.575q.132-.984-1.081-1.389l-1.652-.483q-2.092-.721-2.021-2.391A2.634,2.634,0,0,1,47.167-8.9a4.085,4.085,0,0,1,2.553-.787,3.406,3.406,0,0,1,2.342.839,2.659,2.659,0,0,1,.866,2.14l-1.582-.009a1.484,1.484,0,0,0-.448-1.16,1.774,1.774,0,0,0-1.239-.466,2.316,2.316,0,0,0-1.424.4A1.48,1.48,0,0,0,47.593-6.9q-.114.826,1.011,1.2l.8.22a5.15,5.15,0,0,1,2.32,1.1A2.1,2.1,0,0,1,52.356-2.7a2.666,2.666,0,0,1-.58,1.547A3.317,3.317,0,0,1,50.37-.145,4.7,4.7,0,0,1,48.5.176,3.71,3.71,0,0,1,46-.708a2.731,2.731,0,0,1-.949-2.228l1.591.009a1.686,1.686,0,0,0,.51,1.283,1.948,1.948,0,0,0,1.4.483,2.741,2.741,0,0,0,1.5-.365A1.4,1.4,0,0,0,50.774-2.575Z" transform="translate(800 8600.5)" fill="#fff"/>
    <path id="Trazado_737814" data-name="Trazado 737814" d="M0,0H136" transform="translate(759.5 8606.5)" fill="none" stroke="#fff" stroke-width="2"/>
  </g>
</svg>
