<svg xmlns="http://www.w3.org/2000/svg" width="136" height="36.676" viewBox="0 0 136 36.676">
  <g id="Grupo_1013626" data-name="Grupo 1013626" transform="translate(-914.5 -9386)">
    <path id="Trazado_732254" data-name="Trazado 732254" d="M9.448,0H1.063V-1.169l4.43-4.922A10.524,10.524,0,0,0,6.851-7.906a3.029,3.029,0,0,0,.374-1.446A2.3,2.3,0,0,0,6.618-11,2.12,2.12,0,0,0,5-11.637a2.511,2.511,0,0,0-1.885.69,2.635,2.635,0,0,0-.672,1.92H.817a3.774,3.774,0,0,1,1.138-2.856A4.219,4.219,0,0,1,5-12.973a4.054,4.054,0,0,1,2.821.936A3.193,3.193,0,0,1,8.859-9.545q0,1.89-2.408,4.5L3.023-1.327H9.448Zm2.47-6.416.65-6.381h6.557v1.5H13.948L13.562-7.8A4.13,4.13,0,0,1,15.7-8.358,3.531,3.531,0,0,1,18.475-7.2,4.53,4.53,0,0,1,19.5-4.078,4.372,4.372,0,0,1,18.435-.962,3.892,3.892,0,0,1,15.451.176a4.045,4.045,0,0,1-2.769-.94,3.754,3.754,0,0,1-1.222-2.6H13a2.582,2.582,0,0,0,.782,1.657,2.432,2.432,0,0,0,1.67.558,2.194,2.194,0,0,0,1.78-.773,3.233,3.233,0,0,0,.646-2.136,2.968,2.968,0,0,0-.7-2.061A2.377,2.377,0,0,0,15.319-6.9a2.681,2.681,0,0,0-1.67.466l-.431.352ZM29.3-5.458a7.436,7.436,0,0,1-.976,4.245A3.47,3.47,0,0,1,25.277.176a3.5,3.5,0,0,1-3.032-1.358,7.058,7.058,0,0,1-1.02-4.056V-7.409A7.271,7.271,0,0,1,22.2-11.6a3.5,3.5,0,0,1,3.059-1.371A3.528,3.528,0,0,1,28.3-11.65a7.017,7.017,0,0,1,1,4.083ZM27.677-7.682a5.958,5.958,0,0,0-.58-3.01,2,2,0,0,0-1.837-.945,1.97,1.97,0,0,0-1.819.94A5.817,5.817,0,0,0,22.852-7.8v2.6a6.053,6.053,0,0,0,.6,3.063,1.993,1.993,0,0,0,1.824.989,1.966,1.966,0,0,0,1.789-.932,5.834,5.834,0,0,0,.611-2.936ZM41.546-2.522a1.2,1.2,0,0,0-.5-1.024,4.78,4.78,0,0,0-1.731-.628,8.186,8.186,0,0,1-1.96-.633,2.788,2.788,0,0,1-1.072-.879A2.1,2.1,0,0,1,35.938-6.9a2.467,2.467,0,0,1,.989-1.978,3.861,3.861,0,0,1,2.527-.809,3.974,3.974,0,0,1,2.624.835,2.652,2.652,0,0,1,1.006,2.136H41.449a1.468,1.468,0,0,0-.567-1.151,2.124,2.124,0,0,0-1.428-.483,2.223,2.223,0,0,0-1.389.387,1.217,1.217,0,0,0-.5,1.011.986.986,0,0,0,.466.888,5.731,5.731,0,0,0,1.683.571,8.77,8.77,0,0,1,1.973.65,2.878,2.878,0,0,1,1.121.91,2.237,2.237,0,0,1,.365,1.3,2.434,2.434,0,0,1-1.02,2.043,4.277,4.277,0,0,1-2.646.769,4.789,4.789,0,0,1-2.021-.4A3.288,3.288,0,0,1,36.11-1.358a2.722,2.722,0,0,1-.5-1.569h1.626a1.683,1.683,0,0,0,.655,1.3,2.54,2.54,0,0,0,1.613.479,2.622,2.622,0,0,0,1.481-.374A1.148,1.148,0,0,0,41.546-2.522Z" transform="translate(957 9422.5)" fill="#12263f"/>
    <path id="Trazado_732255" data-name="Trazado 732255" d="M7.928-4.3H9.7v1.327H7.928V0H6.293V-2.971H.466v-.958L6.2-12.8H7.928Zm-5.616,0H6.293v-6.275l-.193.352Zm9.606-2.118.65-6.381h6.557v1.5H13.948L13.562-7.8A4.13,4.13,0,0,1,15.7-8.358,3.531,3.531,0,0,1,18.475-7.2,4.53,4.53,0,0,1,19.5-4.078,4.372,4.372,0,0,1,18.435-.962,3.892,3.892,0,0,1,15.451.176a4.045,4.045,0,0,1-2.769-.94,3.754,3.754,0,0,1-1.222-2.6H13a2.582,2.582,0,0,0,.782,1.657,2.432,2.432,0,0,0,1.67.558,2.194,2.194,0,0,0,1.78-.773,3.233,3.233,0,0,0,.646-2.136,2.968,2.968,0,0,0-.7-2.061A2.377,2.377,0,0,0,15.319-6.9a2.681,2.681,0,0,0-1.67.466l-.431.352ZM29.3-5.458a7.436,7.436,0,0,1-.976,4.245A3.47,3.47,0,0,1,25.277.176a3.5,3.5,0,0,1-3.032-1.358,7.058,7.058,0,0,1-1.02-4.056V-7.409A7.271,7.271,0,0,1,22.2-11.6a3.5,3.5,0,0,1,3.059-1.371A3.528,3.528,0,0,1,28.3-11.65a7.017,7.017,0,0,1,1,4.083ZM27.677-7.682a5.958,5.958,0,0,0-.58-3.01,2,2,0,0,0-1.837-.945,1.97,1.97,0,0,0-1.819.94A5.817,5.817,0,0,0,22.852-7.8v2.6a6.053,6.053,0,0,0,.6,3.063,1.993,1.993,0,0,0,1.824.989,1.966,1.966,0,0,0,1.789-.932,5.834,5.834,0,0,0,.611-2.936ZM38.663-4.4,37.644-3.34V0H36.018V-13.5h1.626v8.165l.87-1.046L41.476-9.51h1.978l-3.7,3.973L43.884,0H41.977Zm5.906-.431A5.589,5.589,0,0,1,45.6-8.372a3.289,3.289,0,0,1,2.725-1.314,3.271,3.271,0,0,1,2.716,1.23l.079-1.055H52.6V-.229a3.869,3.869,0,0,1-1.094,2.909,4.038,4.038,0,0,1-2.94,1.063A4.891,4.891,0,0,1,46.556,3.3a3.465,3.465,0,0,1-1.5-1.2l.844-.976a3.18,3.18,0,0,0,2.558,1.292,2.491,2.491,0,0,0,1.85-.668,2.553,2.553,0,0,0,.664-1.881V-.949A3.342,3.342,0,0,1,48.3.176a3.248,3.248,0,0,1-2.7-1.345A5.876,5.876,0,0,1,44.569-4.834Zm1.635.185a4.264,4.264,0,0,0,.659,2.527,2.142,2.142,0,0,0,1.846.918,2.382,2.382,0,0,0,2.259-1.4V-6.943a2.41,2.41,0,0,0-2.241-1.362,2.161,2.161,0,0,0-1.854.923A4.644,4.644,0,0,0,46.2-4.649Z" transform="translate(955 9399.5)" fill="#12263f"/>
    <path id="Trazado_732253" data-name="Trazado 732253" d="M0,0H136" transform="translate(914.5 9405.5)" fill="none" stroke="#12263f" stroke-width="2"/>
  </g>
</svg>
