<svg xmlns="http://www.w3.org/2000/svg" width="85" height="33.854" viewBox="0 0 85 33.854">
  <g id="Grupo_1015991" data-name="Grupo 1015991" transform="translate(-999.5 -9364.313)">
    <g id="Grupo_1015990" data-name="Grupo 1015990">
      <path id="Trazado_737825" data-name="Trazado 737825" d="M4.474-11.812l-.4,2.3H5.8l-.22,1.257H3.858L2.865-2.338a2.062,2.062,0,0,0-.009.422A.67.67,0,0,0,3.6-1.23a4.556,4.556,0,0,0,.773-.088L4.254.009a4.328,4.328,0,0,1-1.16.158,1.661,1.661,0,0,1-1.424-.7A2.7,2.7,0,0,1,1.3-2.364l.967-5.889H.589L.809-9.51H2.487l.4-2.3Z" transform="translate(1039 9398)" fill="#12263f"/>
      <path id="Trazado_737824" data-name="Trazado 737824" d="M3.41-9.519l-.2,1.063A3.718,3.718,0,0,1,6.1-9.686a2.934,2.934,0,0,1,1.534.413A2.026,2.026,0,0,1,8.5-8.156a3.927,3.927,0,0,1,3.155-1.529,2.515,2.515,0,0,1,2.1.958,3.422,3.422,0,0,1,.5,2.479L13.21,0H11.628l1.037-6.267a3.311,3.311,0,0,0,0-.835Q12.5-8.3,11.1-8.323a2.4,2.4,0,0,0-1.578.541,2.5,2.5,0,0,0-.91,1.463L7.532,0h-1.6L6.987-6.258a2.009,2.009,0,0,0-.294-1.5,1.549,1.549,0,0,0-1.27-.545A2.6,2.6,0,0,0,3.059-6.952L1.854,0H.264L1.916-9.51Z" transform="translate(1036 9374)" fill="#12263f"/>
      <path id="Trazado_737823" data-name="Trazado 737823" d="M0,0H85" transform="translate(999.5 9380)" fill="none" stroke="#12263f" stroke-width="2"/>
    </g>
  </g>
</svg>
