<svg xmlns="http://www.w3.org/2000/svg" width="71" height="37.567" viewBox="0 0 71 37.567">
  <g id="Grupo_1013876" data-name="Grupo 1013876" transform="translate(-929.5 -10439.433)">
    <path id="Trazado_732606" data-name="Trazado 732606" d="M7.532-4.3H9.255L9.018-2.971H7.3L6.785,0h-1.6L5.7-2.971H.044L.229-4.017,7.26-12.8H9Zm-5.4,0h3.8l1.143-6.293-.255.369Z" transform="translate(960 10477)" fill="#12263f"/>
    <path id="Trazado_732605" data-name="Trazado 732605" d="M10.2-8.165H8.877L7.9-2.4a2.062,2.062,0,0,0-.009.422.668.668,0,0,0,.756.668A2.475,2.475,0,0,0,9.387-1.4L9.308-.053A4.151,4.151,0,0,1,8.147.1,1.694,1.694,0,0,1,6.71-.589a2.672,2.672,0,0,1-.374-1.837l.949-5.739H3.876L2.461,0H.87L2.285-8.165H.844L1.081-9.51h9.36Zm1.011,3.393a7.4,7.4,0,0,1,.8-2.619,4.534,4.534,0,0,1,1.538-1.749,3.517,3.517,0,0,1,2.013-.554,2.971,2.971,0,0,1,2.443,1.16l.914-4.966h1.591L18.176,0h-1.45l.167-1.02a3.506,3.506,0,0,1-2.777,1.2,2.627,2.627,0,0,1-2.1-1.033,4.5,4.5,0,0,1-.844-2.676A8.547,8.547,0,0,1,11.215-4.772Zm1.529.909a3.3,3.3,0,0,0,.448,1.949,1.617,1.617,0,0,0,1.389.711,2.874,2.874,0,0,0,2.452-1.387l.756-4.389a1.973,1.973,0,0,0-1.916-1.334,2.411,2.411,0,0,0-1.657.566,3.663,3.663,0,0,0-1.09,1.659A6.842,6.842,0,0,0,12.744-3.864ZM25.287-6H20.535l.113-.723L23.4-9.4l.5-.5a2.942,2.942,0,0,0,.959-1.6,1.186,1.186,0,0,0-.22-.92,1.037,1.037,0,0,0-.81-.377,1.527,1.527,0,0,0-1.123.392,1.8,1.8,0,0,0-.549,1.13l-.918.005a2.6,2.6,0,0,1,.423-1.218A2.356,2.356,0,0,1,22.6-13.3a2.7,2.7,0,0,1,1.264-.269,2.071,2.071,0,0,1,1.474.561,1.663,1.663,0,0,1,.469,1.4,3.573,3.573,0,0,1-1.133,2.071l-.472.477-2.4,2.281h3.6Z" transform="translate(952 10453)" fill="#12263f"/>
    <path id="Trazado_732607" data-name="Trazado 732607" d="M0,0H71" transform="translate(929.5 10459)" fill="none" stroke="#12263f" stroke-width="2"/>
  </g>
</svg>
