<svg xmlns="http://www.w3.org/2000/svg" width="88.5" height="37.678" viewBox="0 0 88.5 37.678">
  <g id="Grupo_1015996" data-name="Grupo 1015996" transform="translate(-965.5 -9557.5)">
    <path id="Trazado_737867" data-name="Trazado 737867" d="M9.448,0H1.063V-1.169l4.43-4.922A10.524,10.524,0,0,0,6.851-7.906a3.029,3.029,0,0,0,.374-1.446A2.3,2.3,0,0,0,6.618-11,2.12,2.12,0,0,0,5-11.637a2.511,2.511,0,0,0-1.885.69,2.635,2.635,0,0,0-.672,1.92H.817a3.774,3.774,0,0,1,1.138-2.856A4.219,4.219,0,0,1,5-12.973a4.054,4.054,0,0,1,2.821.936A3.193,3.193,0,0,1,8.859-9.545q0,1.89-2.408,4.5L3.023-1.327H9.448Zm2.47-6.416.65-6.381h6.557v1.5H13.948L13.562-7.8A4.13,4.13,0,0,1,15.7-8.358,3.531,3.531,0,0,1,18.475-7.2,4.53,4.53,0,0,1,19.5-4.078,4.372,4.372,0,0,1,18.435-.962,3.892,3.892,0,0,1,15.451.176a4.045,4.045,0,0,1-2.769-.94,3.754,3.754,0,0,1-1.222-2.6H13a2.582,2.582,0,0,0,.782,1.657,2.432,2.432,0,0,0,1.67.558,2.194,2.194,0,0,0,1.78-.773,3.233,3.233,0,0,0,.646-2.136,2.968,2.968,0,0,0-.7-2.061A2.377,2.377,0,0,0,15.319-6.9a2.681,2.681,0,0,0-1.67.466l-.431.352ZM29.3-5.458a7.436,7.436,0,0,1-.976,4.245A3.47,3.47,0,0,1,25.277.176a3.5,3.5,0,0,1-3.032-1.358,7.058,7.058,0,0,1-1.02-4.056V-7.409A7.271,7.271,0,0,1,22.2-11.6a3.5,3.5,0,0,1,3.059-1.371A3.528,3.528,0,0,1,28.3-11.65a7.017,7.017,0,0,1,1,4.083ZM27.677-7.682a5.958,5.958,0,0,0-.58-3.01,2,2,0,0,0-1.837-.945,1.97,1.97,0,0,0-1.819.94A5.817,5.817,0,0,0,22.852-7.8v2.6a6.053,6.053,0,0,0,.6,3.063,1.993,1.993,0,0,0,1.824.989,1.966,1.966,0,0,0,1.789-.932,5.834,5.834,0,0,0,.611-2.936ZM40.939-2.575q.132-.984-1.081-1.389l-1.652-.483q-2.092-.721-2.021-2.391A2.634,2.634,0,0,1,37.332-8.9a4.085,4.085,0,0,1,2.553-.787,3.406,3.406,0,0,1,2.342.839,2.659,2.659,0,0,1,.866,2.14l-1.582-.009a1.484,1.484,0,0,0-.448-1.16,1.774,1.774,0,0,0-1.239-.466,2.316,2.316,0,0,0-1.424.4A1.48,1.48,0,0,0,37.758-6.9q-.114.826,1.011,1.2l.8.22a5.15,5.15,0,0,1,2.32,1.1A2.1,2.1,0,0,1,42.521-2.7a2.666,2.666,0,0,1-.58,1.547A3.317,3.317,0,0,1,40.535-.145a4.7,4.7,0,0,1-1.872.321,3.71,3.71,0,0,1-2.5-.883,2.731,2.731,0,0,1-.949-2.228l1.591.009a1.686,1.686,0,0,0,.51,1.283,1.948,1.948,0,0,0,1.4.483,2.741,2.741,0,0,0,1.5-.365A1.4,1.4,0,0,0,40.939-2.575Z" transform="translate(988 9595)" fill="#12263f"/>
    <path id="Trazado_737868" data-name="Trazado 737868" d="M7.928-4.3H9.7v1.327H7.928V0H6.293V-2.971H.466v-.958L6.2-12.8H7.928Zm-5.616,0H6.293v-6.275l-.193.352Zm9.606-2.118.65-6.381h6.557v1.5H13.948L13.562-7.8A4.13,4.13,0,0,1,15.7-8.358,3.531,3.531,0,0,1,18.475-7.2,4.53,4.53,0,0,1,19.5-4.078,4.372,4.372,0,0,1,18.435-.962,3.892,3.892,0,0,1,15.451.176a4.045,4.045,0,0,1-2.769-.94,3.754,3.754,0,0,1-1.222-2.6H13a2.582,2.582,0,0,0,.782,1.657,2.432,2.432,0,0,0,1.67.558,2.194,2.194,0,0,0,1.78-.773,3.233,3.233,0,0,0,.646-2.136,2.968,2.968,0,0,0-.7-2.061A2.377,2.377,0,0,0,15.319-6.9a2.681,2.681,0,0,0-1.67.466l-.431.352ZM29.3-5.458a7.436,7.436,0,0,1-.976,4.245A3.47,3.47,0,0,1,25.277.176a3.5,3.5,0,0,1-3.032-1.358,7.058,7.058,0,0,1-1.02-4.056V-7.409A7.271,7.271,0,0,1,22.2-11.6a3.5,3.5,0,0,1,3.059-1.371A3.528,3.528,0,0,1,28.3-11.65a7.017,7.017,0,0,1,1,4.083ZM27.677-7.682a5.958,5.958,0,0,0-.58-3.01,2,2,0,0,0-1.837-.945,1.97,1.97,0,0,0-1.819.94A5.817,5.817,0,0,0,22.852-7.8v2.6a6.053,6.053,0,0,0,.6,3.063,1.993,1.993,0,0,0,1.824.989,1.966,1.966,0,0,0,1.789-.932,5.834,5.834,0,0,0,.611-2.936Zm10.74,3.3L37.169-3.27,36.606,0H35.016l2.347-13.5h1.591L37.547-5.432l.976-.984L41.9-9.51h2.065L39.595-5.458,42.6,0H40.86Zm5.994-.387a7.75,7.75,0,0,1,.839-2.7,4.39,4.39,0,0,1,1.529-1.7,3.545,3.545,0,0,1,1.973-.523,2.926,2.926,0,0,1,2.5,1.248l.316-1.063h1.459L51.442-.2a4.627,4.627,0,0,1-1.477,2.914,4.159,4.159,0,0,1-3.015,1.042A4.281,4.281,0,0,1,45.1,3.3a3.518,3.518,0,0,1-1.393-1.2l.905-.976a2.721,2.721,0,0,0,2.276,1.31,2.728,2.728,0,0,0,1.92-.633,3.265,3.265,0,0,0,1.042-1.9l.176-.844A3.6,3.6,0,0,1,47.312.176,2.8,2.8,0,0,1,45.769-.3a2.913,2.913,0,0,1-1.015-1.31,5.354,5.354,0,0,1-.4-1.912A9.825,9.825,0,0,1,44.411-4.772Zm1.538.9a3.345,3.345,0,0,0,.435,1.944,1.644,1.644,0,0,0,1.393.724,2.881,2.881,0,0,0,2.452-1.4l.747-4.363a2,2,0,0,0-1.907-1.352,2.468,2.468,0,0,0-2.123,1.053,5.488,5.488,0,0,0-.98,2.941Z" transform="translate(983 9571)" fill="#12263f"/>
    <path id="Trazado_737866" data-name="Trazado 737866" d="M0,0H88.5" transform="translate(965.5 9577)" fill="none" stroke="#12263f" stroke-width="2"/>
  </g>
</svg>
