<svg xmlns="http://www.w3.org/2000/svg" width="85" height="41.255" viewBox="0 0 85 41.255">
  <g id="Grupo_1015988" data-name="Grupo 1015988" transform="translate(-810.5 -8654)">
    <path id="Trazado_737818" data-name="Trazado 737818" d="M6.161-2.575Q6.293-3.56,5.08-3.964L3.428-4.447Q1.336-5.168,1.406-6.838A2.634,2.634,0,0,1,2.553-8.9a4.085,4.085,0,0,1,2.553-.787,3.406,3.406,0,0,1,2.342.839,2.659,2.659,0,0,1,.866,2.14L6.732-6.715a1.484,1.484,0,0,0-.448-1.16,1.774,1.774,0,0,0-1.239-.466,2.316,2.316,0,0,0-1.424.4A1.48,1.48,0,0,0,2.979-6.9q-.114.826,1.011,1.2l.8.22a5.15,5.15,0,0,1,2.32,1.1A2.1,2.1,0,0,1,7.743-2.7a2.666,2.666,0,0,1-.58,1.547A3.317,3.317,0,0,1,5.757-.145,4.7,4.7,0,0,1,3.885.176a3.71,3.71,0,0,1-2.5-.883A2.731,2.731,0,0,1,.439-2.936l1.591.009a1.686,1.686,0,0,0,.51,1.283,1.948,1.948,0,0,0,1.4.483,2.741,2.741,0,0,0,1.5-.365A1.4,1.4,0,0,0,6.161-2.575ZM13.474.176A3.429,3.429,0,0,1,10.7-1.134a4.507,4.507,0,0,1-.844-3.261L9.9-4.772a6.327,6.327,0,0,1,.839-2.584,4.882,4.882,0,0,1,1.683-1.762,3.927,3.927,0,0,1,2.145-.567,3.024,3.024,0,0,1,2.3.976,4.012,4.012,0,0,1,.914,2.549,7.448,7.448,0,0,1-.035,1.143l-.1.729H11.435a3.212,3.212,0,0,0,.426,2.2,2.019,2.019,0,0,0,1.745.94,3.383,3.383,0,0,0,2.6-1.266l.914.773A4.183,4.183,0,0,1,15.579-.294,4.371,4.371,0,0,1,13.474.176Zm1.011-8.534a2.324,2.324,0,0,0-1.718.668A4.748,4.748,0,0,0,11.6-5.625l4.623.009.035-.141A2.6,2.6,0,0,0,15.9-7.6,1.674,1.674,0,0,0,14.484-8.358ZM19.16-4.772A7.75,7.75,0,0,1,20-7.475a4.39,4.39,0,0,1,1.529-1.7A3.545,3.545,0,0,1,23.5-9.694,2.926,2.926,0,0,1,26-8.446l.316-1.063h1.459L26.191-.2a4.627,4.627,0,0,1-1.477,2.914A4.159,4.159,0,0,1,21.7,3.753,4.281,4.281,0,0,1,19.85,3.3a3.518,3.518,0,0,1-1.393-1.2l.905-.976a2.721,2.721,0,0,0,2.276,1.31,2.728,2.728,0,0,0,1.92-.633A3.265,3.265,0,0,0,24.6-.105l.176-.844A3.6,3.6,0,0,1,22.061.176,2.8,2.8,0,0,1,20.518-.3,2.913,2.913,0,0,1,19.5-1.613a5.354,5.354,0,0,1-.4-1.912A9.825,9.825,0,0,1,19.16-4.772Zm1.538.9a3.345,3.345,0,0,0,.435,1.944,1.644,1.644,0,0,0,1.393.724,2.881,2.881,0,0,0,2.452-1.4l.747-4.363a2,2,0,0,0-1.907-1.352A2.468,2.468,0,0,0,21.7-7.261a5.488,5.488,0,0,0-.98,2.941ZM34.62-.94A3.673,3.673,0,0,1,31.781.176,2.37,2.37,0,0,1,29.764-.8a3.731,3.731,0,0,1-.488-2.566L30.3-9.51h1.591L30.858-3.34a4.1,4.1,0,0,0-.018.756,1.573,1.573,0,0,0,.378.993,1.29,1.29,0,0,0,.932.387,2.854,2.854,0,0,0,2.637-1.38l1.2-6.926h1.591L35.921,0h-1.5Zm6.829-8.578-.229,1.2a3.749,3.749,0,0,1,2.918-1.371,2.359,2.359,0,0,1,1.986.932A3.619,3.619,0,0,1,46.6-6.231L45.563,0H43.972l1.046-6.251a3.332,3.332,0,0,0,.009-.8,1.314,1.314,0,0,0-1.45-1.255,2.994,2.994,0,0,0-2.514,1.528L39.885,0H38.294l1.652-9.51Zm7.022,4.746a7.4,7.4,0,0,1,.8-2.619A4.534,4.534,0,0,1,50.81-9.141a3.517,3.517,0,0,1,2.013-.554,2.971,2.971,0,0,1,2.443,1.16L56.18-13.5h1.591L55.433,0h-1.45l.167-1.02a3.506,3.506,0,0,1-2.777,1.2,2.627,2.627,0,0,1-2.1-1.033,4.5,4.5,0,0,1-.844-2.676A8.547,8.547,0,0,1,48.472-4.772ZM50-3.864a3.3,3.3,0,0,0,.448,1.949,1.617,1.617,0,0,0,1.389.711A2.874,2.874,0,0,0,54.29-2.591l.756-4.389A1.973,1.973,0,0,0,53.13-8.314a2.411,2.411,0,0,0-1.657.566,3.663,3.663,0,0,0-1.09,1.659A6.842,6.842,0,0,0,50-3.864ZM63.229-9.686a3.428,3.428,0,0,1,2.048.65,3.7,3.7,0,0,1,1.261,1.745,5.4,5.4,0,0,1,.277,2.43l-.018.193a6.4,6.4,0,0,1-.826,2.509A4.848,4.848,0,0,1,64.266-.413a4.158,4.158,0,0,1-2.294.589,3.434,3.434,0,0,1-2.043-.65A3.611,3.611,0,0,1,58.676-2.2a5.547,5.547,0,0,1-.281-2.4,6.48,6.48,0,0,1,.8-2.654,4.96,4.96,0,0,1,1.718-1.824A4.109,4.109,0,0,1,63.229-9.686Zm-3.234,5.1a5.4,5.4,0,0,0,0,1.151,2.821,2.821,0,0,0,.62,1.652,1.86,1.86,0,0,0,1.419.642,2.534,2.534,0,0,0,1.459-.391,3.284,3.284,0,0,0,1.125-1.261,5.311,5.311,0,0,0,.589-1.872,8.431,8.431,0,0,0,.026-1.362,2.927,2.927,0,0,0-.642-1.679,1.9,1.9,0,0,0-1.424-.65,2.592,2.592,0,0,0-2.092.967,4.776,4.776,0,0,0-1.063,2.6Z" transform="translate(819 8691.5)" fill="#fff"/>
    <path id="Trazado_737817" data-name="Trazado 737817" d="M2,0H.413L2.751-13.5H4.342ZM6.319,0H4.737L6.39-9.51H7.972Zm1.31-12.981a.87.87,0,0,1,.672.242.9.9,0,0,1,.268.681.955.955,0,0,1-.268.677.962.962,0,0,1-.672.281.876.876,0,0,1-.677-.237.86.86,0,0,1-.255-.668,1,1,0,0,1,.264-.686A.93.93,0,0,1,7.629-12.981Zm5.493,1.169-.4,2.3h1.731l-.22,1.257H12.507l-.993,5.915a2.062,2.062,0,0,0-.009.422.67.67,0,0,0,.747.686,4.556,4.556,0,0,0,.773-.088L12.9.009a4.328,4.328,0,0,1-1.16.158,1.661,1.661,0,0,1-1.424-.7,2.7,2.7,0,0,1-.369-1.833l.967-5.889H9.237l.22-1.257h1.679l.4-2.3ZM20.628-8.06l-.747-.079a2.722,2.722,0,0,0-2.408,1.38L16.3,0H14.713l1.652-9.51L17.9-9.519l-.237,1.107A2.843,2.843,0,0,1,20.048-9.7a2.918,2.918,0,0,1,.756.132Zm5.186-1.626a3.428,3.428,0,0,1,2.048.65,3.7,3.7,0,0,1,1.261,1.745A5.4,5.4,0,0,1,29.4-4.86l-.018.193a6.4,6.4,0,0,1-.826,2.509A4.848,4.848,0,0,1,26.851-.413a4.158,4.158,0,0,1-2.294.589,3.434,3.434,0,0,1-2.043-.65A3.611,3.611,0,0,1,21.261-2.2a5.547,5.547,0,0,1-.281-2.4,6.48,6.48,0,0,1,.8-2.654A4.96,4.96,0,0,1,23.5-9.075,4.109,4.109,0,0,1,25.813-9.686Zm-3.234,5.1a5.4,5.4,0,0,0,0,1.151,2.821,2.821,0,0,0,.62,1.652,1.86,1.86,0,0,0,1.419.642,2.534,2.534,0,0,0,1.459-.391A3.284,3.284,0,0,0,27.2-2.795a5.311,5.311,0,0,0,.589-1.872,8.431,8.431,0,0,0,.026-1.362,2.927,2.927,0,0,0-.642-1.679,1.9,1.9,0,0,0-1.424-.65,2.592,2.592,0,0,0-2.092.967A4.776,4.776,0,0,0,22.6-4.79ZM36.466-2.575q.132-.984-1.081-1.389l-1.652-.483q-2.092-.721-2.021-2.391A2.634,2.634,0,0,1,32.858-8.9a4.085,4.085,0,0,1,2.553-.787,3.406,3.406,0,0,1,2.342.839,2.659,2.659,0,0,1,.866,2.14l-1.582-.009a1.484,1.484,0,0,0-.448-1.16,1.774,1.774,0,0,0-1.239-.466,2.316,2.316,0,0,0-1.424.4A1.48,1.48,0,0,0,33.284-6.9q-.114.826,1.011,1.2l.8.22a5.15,5.15,0,0,1,2.32,1.1A2.1,2.1,0,0,1,38.048-2.7a2.666,2.666,0,0,1-.58,1.547A3.317,3.317,0,0,1,36.062-.145a4.7,4.7,0,0,1-1.872.321,3.71,3.71,0,0,1-2.5-.883,2.731,2.731,0,0,1-.949-2.228l1.591.009a1.686,1.686,0,0,0,.51,1.283,1.948,1.948,0,0,0,1.4.483,2.741,2.741,0,0,0,1.5-.365A1.4,1.4,0,0,0,36.466-2.575Z" transform="translate(833 8667.5)" fill="#fff"/>
    <path id="Trazado_737819" data-name="Trazado 737819" d="M0,0H85" transform="translate(810.5 8673.5)" fill="none" stroke="#fff" stroke-width="2"/>
  </g>
</svg>
