<svg xmlns="http://www.w3.org/2000/svg" width="126" height="37.686" viewBox="0 0 126 37.686">
  <g id="Grupo_1015989" data-name="Grupo 1015989" transform="translate(-999.5 -9427.5)">
    <path id="Trazado_737822" data-name="Trazado 737822" d="M8.35,0H.2L.4-1.239l4.72-4.588.861-.853A5.044,5.044,0,0,0,7.62-9.422,2.033,2.033,0,0,0,7.242-11a1.778,1.778,0,0,0-1.389-.646,2.619,2.619,0,0,0-1.925.672,3.088,3.088,0,0,0-.94,1.938l-1.573.009a4.451,4.451,0,0,1,.725-2.087,4.039,4.039,0,0,1,1.608-1.4,4.622,4.622,0,0,1,2.167-.461,3.551,3.551,0,0,1,2.527.962,2.852,2.852,0,0,1,.8,2.4A6.126,6.126,0,0,1,7.3-6.056L6.5-5.238,2.382-1.327H8.561Zm3.472-6.442L13.447-12.8h6.381l-.237,1.5h-5.01L13.6-7.8a3.916,3.916,0,0,1,2.092-.554,2.872,2.872,0,0,1,2.443,1.2,4.347,4.347,0,0,1,.694,3.01,4.808,4.808,0,0,1-1.4,3.164A4.107,4.107,0,0,1,14.361.185,3.347,3.347,0,0,1,11.892-.8,3.72,3.72,0,0,1,10.9-3.375h1.485a2.549,2.549,0,0,0,.6,1.635,1.932,1.932,0,0,0,1.45.6,2.366,2.366,0,0,0,1.894-.8,3.693,3.693,0,0,0,.91-2.188,2.811,2.811,0,0,0-.413-1.956,1.879,1.879,0,0,0-1.573-.8,2.7,2.7,0,0,0-1.138.193,4.227,4.227,0,0,0-.989.606ZM23.941.176A2.888,2.888,0,0,1,21.516-.971a5.091,5.091,0,0,1-.738-3.2q.018-.65.1-1.283l.316-2.136A7.923,7.923,0,0,1,22.8-11.672a3.846,3.846,0,0,1,3.129-1.3,2.923,2.923,0,0,1,2.439,1.121A4.979,4.979,0,0,1,29.109-8.7q-.026.659-.105,1.292L28.7-5.344a8.4,8.4,0,0,1-1.644,4.228A3.821,3.821,0,0,1,23.941.176ZM27.466-7.7a13.6,13.6,0,0,0,.114-1.652q-.044-2.232-1.731-2.294a2.31,2.31,0,0,0-1.991.91A6.306,6.306,0,0,0,22.8-7.743l-.378,2.549a12.965,12.965,0,0,0-.114,1.661q.044,2.329,1.723,2.391A2.258,2.258,0,0,0,25.958-2a6.108,6.108,0,0,0,1.085-2.9Zm12.8,5.124q.132-.984-1.081-1.389l-1.652-.483q-2.092-.721-2.021-2.391A2.634,2.634,0,0,1,36.655-8.9a4.085,4.085,0,0,1,2.553-.787,3.406,3.406,0,0,1,2.342.839,2.659,2.659,0,0,1,.866,2.14l-1.582-.009a1.484,1.484,0,0,0-.448-1.16,1.774,1.774,0,0,0-1.239-.466,2.316,2.316,0,0,0-1.424.4A1.48,1.48,0,0,0,37.081-6.9q-.114.826,1.011,1.2l.8.22a5.15,5.15,0,0,1,2.32,1.1A2.1,2.1,0,0,1,41.845-2.7a2.666,2.666,0,0,1-.58,1.547A3.317,3.317,0,0,1,39.858-.145a4.7,4.7,0,0,1-1.872.321,3.71,3.71,0,0,1-2.5-.883,2.731,2.731,0,0,1-.949-2.228l1.591.009a1.686,1.686,0,0,0,.51,1.283,1.948,1.948,0,0,0,1.4.483,2.741,2.741,0,0,0,1.5-.365A1.4,1.4,0,0,0,40.263-2.575Z" transform="translate(1046 9465)" fill="#12263f"/>
    <path id="Trazado_737821" data-name="Trazado 737821" d="M7.532-4.3H9.255L9.018-2.971H7.3L6.785,0h-1.6L5.7-2.971H.044L.229-4.017,7.26-12.8H9Zm-5.4,0h3.8l1.143-6.293-.255.369Zm9.686-2.145L13.447-12.8h6.381l-.237,1.5h-5.01L13.6-7.8a3.916,3.916,0,0,1,2.092-.554,2.872,2.872,0,0,1,2.443,1.2,4.347,4.347,0,0,1,.694,3.01,4.808,4.808,0,0,1-1.4,3.164A4.107,4.107,0,0,1,14.361.185,3.347,3.347,0,0,1,11.892-.8,3.72,3.72,0,0,1,10.9-3.375h1.485a2.549,2.549,0,0,0,.6,1.635,1.932,1.932,0,0,0,1.45.6,2.366,2.366,0,0,0,1.894-.8,3.693,3.693,0,0,0,.91-2.188,2.811,2.811,0,0,0-.413-1.956,1.879,1.879,0,0,0-1.573-.8,2.7,2.7,0,0,0-1.138.193,4.227,4.227,0,0,0-.989.606ZM23.941.176A2.888,2.888,0,0,1,21.516-.971a5.091,5.091,0,0,1-.738-3.2q.018-.65.1-1.283l.316-2.136A7.923,7.923,0,0,1,22.8-11.672a3.846,3.846,0,0,1,3.129-1.3,2.923,2.923,0,0,1,2.439,1.121A4.979,4.979,0,0,1,29.109-8.7q-.026.659-.105,1.292L28.7-5.344a8.4,8.4,0,0,1-1.644,4.228A3.821,3.821,0,0,1,23.941.176ZM27.466-7.7a13.6,13.6,0,0,0,.114-1.652q-.044-2.232-1.731-2.294a2.31,2.31,0,0,0-1.991.91A6.306,6.306,0,0,0,22.8-7.743l-.378,2.549a12.965,12.965,0,0,0-.114,1.661q.044,2.329,1.723,2.391A2.258,2.258,0,0,0,25.958-2a6.108,6.108,0,0,0,1.085-2.9ZM37.784-4.386,36.536-3.27,35.974,0H34.383l2.347-13.5H38.32L36.914-5.432l.976-.984L41.265-9.51H43.33L38.962-5.458,41.968,0h-1.74Zm5.994-.387a7.75,7.75,0,0,1,.839-2.7,4.39,4.39,0,0,1,1.529-1.7,3.545,3.545,0,0,1,1.973-.523,2.926,2.926,0,0,1,2.5,1.248l.316-1.063h1.459L50.81-.2a4.627,4.627,0,0,1-1.477,2.914,4.159,4.159,0,0,1-3.015,1.042,4.281,4.281,0,0,1-1.85-.457,3.518,3.518,0,0,1-1.393-1.2l.905-.976a2.721,2.721,0,0,0,2.276,1.31,2.728,2.728,0,0,0,1.92-.633,3.265,3.265,0,0,0,1.042-1.9l.176-.844A3.6,3.6,0,0,1,46.679.176,2.8,2.8,0,0,1,45.136-.3a2.913,2.913,0,0,1-1.015-1.31,5.354,5.354,0,0,1-.4-1.912A9.825,9.825,0,0,1,43.778-4.772Zm1.538.9a3.345,3.345,0,0,0,.435,1.944,1.644,1.644,0,0,0,1.393.724A2.881,2.881,0,0,0,49.6-2.6l.747-4.363a2,2,0,0,0-1.907-1.352,2.468,2.468,0,0,0-2.123,1.053,5.488,5.488,0,0,0-.98,2.941Z" transform="translate(1041 9441)" fill="#12263f"/>
    <path id="Trazado_737820" data-name="Trazado 737820" d="M0,0H126" transform="translate(999.5 9447)" fill="none" stroke="#12263f" stroke-width="2"/>
  </g>
</svg>
