<svg xmlns="http://www.w3.org/2000/svg" width="126" height="38.635" viewBox="0 0 126 38.635">
  <g id="Grupo_1013877" data-name="Grupo 1013877" transform="translate(-929.5 -10505.551)">
    <path id="Trazado_732610" data-name="Trazado 732610" d="M8.35,0H.2L.4-1.239l4.72-4.588.861-.853A5.044,5.044,0,0,0,7.62-9.422,2.033,2.033,0,0,0,7.242-11a1.778,1.778,0,0,0-1.389-.646,2.619,2.619,0,0,0-1.925.672,3.088,3.088,0,0,0-.94,1.938l-1.573.009a4.451,4.451,0,0,1,.725-2.087,4.039,4.039,0,0,1,1.608-1.4,4.622,4.622,0,0,1,2.167-.461,3.551,3.551,0,0,1,2.527.962,2.852,2.852,0,0,1,.8,2.4A6.126,6.126,0,0,1,7.3-6.056L6.5-5.238,2.382-1.327H8.561Zm3.472-6.442L13.447-12.8h6.381l-.237,1.5h-5.01L13.6-7.8a3.916,3.916,0,0,1,2.092-.554,2.872,2.872,0,0,1,2.443,1.2,4.347,4.347,0,0,1,.694,3.01,4.808,4.808,0,0,1-1.4,3.164A4.107,4.107,0,0,1,14.361.185,3.347,3.347,0,0,1,11.892-.8,3.72,3.72,0,0,1,10.9-3.375h1.485a2.549,2.549,0,0,0,.6,1.635,1.932,1.932,0,0,0,1.45.6,2.366,2.366,0,0,0,1.894-.8,3.693,3.693,0,0,0,.91-2.188,2.811,2.811,0,0,0-.413-1.956,1.879,1.879,0,0,0-1.573-.8,2.7,2.7,0,0,0-1.138.193,4.227,4.227,0,0,0-.989.606ZM23.941.176A2.888,2.888,0,0,1,21.516-.971a5.091,5.091,0,0,1-.738-3.2q.018-.65.1-1.283l.316-2.136A7.923,7.923,0,0,1,22.8-11.672a3.846,3.846,0,0,1,3.129-1.3,2.923,2.923,0,0,1,2.439,1.121A4.979,4.979,0,0,1,29.109-8.7q-.026.659-.105,1.292L28.7-5.344a8.4,8.4,0,0,1-1.644,4.228A3.821,3.821,0,0,1,23.941.176ZM27.466-7.7a13.6,13.6,0,0,0,.114-1.652q-.044-2.232-1.731-2.294a2.31,2.31,0,0,0-1.991.91A6.306,6.306,0,0,0,22.8-7.743l-.378,2.549a12.965,12.965,0,0,0-.114,1.661q.044,2.329,1.723,2.391A2.258,2.258,0,0,0,25.958-2a6.108,6.108,0,0,0,1.085-2.9Zm12.8,5.124q.132-.984-1.081-1.389l-1.652-.483q-2.092-.721-2.021-2.391A2.634,2.634,0,0,1,36.655-8.9a4.085,4.085,0,0,1,2.553-.787,3.406,3.406,0,0,1,2.342.839,2.659,2.659,0,0,1,.866,2.14l-1.582-.009a1.484,1.484,0,0,0-.448-1.16,1.774,1.774,0,0,0-1.239-.466,2.316,2.316,0,0,0-1.424.4A1.48,1.48,0,0,0,37.081-6.9q-.114.826,1.011,1.2l.8.22a5.15,5.15,0,0,1,2.32,1.1A2.1,2.1,0,0,1,41.845-2.7a2.666,2.666,0,0,1-.58,1.547A3.317,3.317,0,0,1,39.858-.145a4.7,4.7,0,0,1-1.872.321,3.71,3.71,0,0,1-2.5-.883,2.731,2.731,0,0,1-.949-2.228l1.591.009a1.686,1.686,0,0,0,.51,1.283,1.948,1.948,0,0,0,1.4.483,2.741,2.741,0,0,0,1.5-.365A1.4,1.4,0,0,0,40.263-2.575Z" transform="translate(971 10544)" fill="#12263f"/>
    <path id="Trazado_732609" data-name="Trazado 732609" d="M10.2-8.165H8.877L7.9-2.4a2.062,2.062,0,0,0-.009.422.668.668,0,0,0,.756.668A2.475,2.475,0,0,0,9.387-1.4L9.308-.053A4.151,4.151,0,0,1,8.147.1,1.694,1.694,0,0,1,6.71-.589a2.672,2.672,0,0,1-.374-1.837l.949-5.739H3.876L2.461,0H.87L2.285-8.165H.844L1.081-9.51h9.36Zm5.862,3.006a16.638,16.638,0,0,1,1.077-3.955A12.256,12.256,0,0,1,19.072-12.4a7.925,7.925,0,0,1,2.549-2.052l.237,1.09a9.121,9.121,0,0,0-2.369,2.685,13.816,13.816,0,0,0-1.525,3.938,18.939,18.939,0,0,0-.519,4.5,9.956,9.956,0,0,0,.47,3.2,5.056,5.056,0,0,0,1.358,2.184l-.4.984a6.347,6.347,0,0,1-2.246-3.015,11.627,11.627,0,0,1-.708-4.57,13.9,13.9,0,0,1,.123-1.608ZM25.1.176A2.888,2.888,0,0,1,22.676-.971a5.091,5.091,0,0,1-.738-3.2q.018-.65.1-1.283l.316-2.136a7.923,7.923,0,0,1,1.608-4.078,3.846,3.846,0,0,1,3.129-1.3,2.923,2.923,0,0,1,2.439,1.121A4.979,4.979,0,0,1,30.27-8.7q-.026.659-.105,1.292l-.308,2.065a8.4,8.4,0,0,1-1.644,4.228A3.821,3.821,0,0,1,25.1.176ZM28.626-7.7a13.6,13.6,0,0,0,.114-1.652q-.044-2.232-1.731-2.294a2.31,2.31,0,0,0-1.991.91,6.306,6.306,0,0,0-1.059,2.993l-.378,2.549a12.965,12.965,0,0,0-.114,1.661q.044,2.329,1.723,2.391A2.258,2.258,0,0,0,27.119-2,6.108,6.108,0,0,0,28.2-4.9ZM30.771,2.558,29.856,1.9A5.8,5.8,0,0,0,31.122-.6l.229-1.327h1.556L32.722-.738A5.086,5.086,0,0,1,30.771,2.558ZM39.674,0h-1.6l1.881-10.793-3.4,1.2.272-1.547,4.746-1.714h.281Zm12.41-9.519-.2,1.063a3.718,3.718,0,0,1,2.892-1.23,2.934,2.934,0,0,1,1.534.413,2.026,2.026,0,0,1,.866,1.116,3.927,3.927,0,0,1,3.155-1.529,2.515,2.515,0,0,1,2.1.958,3.422,3.422,0,0,1,.5,2.479L61.884,0H60.3l1.037-6.267a3.311,3.311,0,0,0,0-.835q-.167-1.2-1.564-1.222a2.4,2.4,0,0,0-1.578.541,2.5,2.5,0,0,0-.91,1.463L56.206,0h-1.6l1.055-6.258a2.009,2.009,0,0,0-.294-1.5,1.549,1.549,0,0,0-1.27-.545,2.6,2.6,0,0,0-2.364,1.354L50.528,0H48.938L50.59-9.51ZM68.871-5.142a16.309,16.309,0,0,1-1.116,4.056A12.2,12.2,0,0,1,65.817,2.14a8.059,8.059,0,0,1-2.5,2L63.07,3.129Q66.085.861,67.1-4.157a18.938,18.938,0,0,0,.387-3.894q-.044-3.771-1.828-5.405l.413-.984a5.826,5.826,0,0,1,1.666,1.824,8.6,8.6,0,0,1,1,2.646,13.548,13.548,0,0,1,.286,3.125,15.012,15.012,0,0,1-.132,1.608ZM75.095-6H70.343l.113-.723L73.208-9.4l.5-.5a2.942,2.942,0,0,0,.959-1.6,1.186,1.186,0,0,0-.22-.92,1.037,1.037,0,0,0-.81-.377,1.527,1.527,0,0,0-1.123.392,1.8,1.8,0,0,0-.549,1.13l-.918.005a2.6,2.6,0,0,1,.423-1.218,2.356,2.356,0,0,1,.938-.815,2.7,2.7,0,0,1,1.264-.269,2.071,2.071,0,0,1,1.474.561,1.663,1.663,0,0,1,.469,1.4,3.573,3.573,0,0,1-1.133,2.071l-.472.477-2.4,2.281h3.6Z" transform="translate(954 10520)" fill="#12263f"/>
    <path id="Trazado_732608" data-name="Trazado 732608" d="M0,0H126" transform="translate(929.5 10526)" fill="none" stroke="#12263f" stroke-width="2"/>
  </g>
</svg>
