<svg xmlns="http://www.w3.org/2000/svg" xmlns:xlink="http://www.w3.org/1999/xlink" width="820" height="123" viewBox="0 0 820 123">
  <defs>
    <clipPath id="clip-path">
      <path id="path2577" d="M0-682.665H61.041v61.041H0Z" transform="translate(0 682.665)"/>
    </clipPath>
  </defs>
  <g id="Grupo_1016005" data-name="Grupo 1016005" transform="translate(-390 -18580)">
    <rect id="Rectángulo_206980" data-name="Rectángulo 206980" width="120" height="103" transform="translate(1090 18600)" fill="#ffa031"/>
    <rect id="Rectángulo_206981" data-name="Rectángulo 206981" width="130" height="103" transform="translate(390 18580)" fill="#ffa031"/>
    <path id="Trazado_299580" data-name="Trazado 299580" d="M0,0H799.764V103H0Z" transform="translate(400 18590)" fill="#dee4f0"/>
    <text id="Q_l_s_" data-name="Q (l/s) =" transform="translate(580 18636)" fill="#12263f" font-size="16" font-family="Roboto-Italic, Roboto" font-style="italic"><tspan x="0" y="17">Q </tspan><tspan y="17" font-family="Roboto-Regular, Roboto" font-style="normal">(l/s) =</tspan></text>
    <text id="Número_de_personas_x_dotación_x_tasa_de_retorno" data-name="Número de personas x dotación x tasa de retorno" transform="translate(645 18627)" fill="#12263f" font-size="16" font-family="Roboto-Italic, Roboto" font-style="italic"><tspan x="-171.727" y="17">Número de personas x dotación x tasa de retorno</tspan></text>
    <text id="_86_400_s" data-name="86 400 s" transform="translate(743 18646)" fill="#12263f" font-size="16" font-family="Roboto-Regular, Roboto"><tspan x="-30.547" y="15">86 400 s</tspan></text>
    <line id="Línea_3128" data-name="Línea 3128" x2="360.5" transform="translate(647.5 18645.5)" fill="none" stroke="#12263f" stroke-width="1"/>
    <g id="g2571" transform="translate(433.959 19293.664)">
      <g id="g2573" transform="translate(0 -682.665)">
        <g id="g2575" clip-path="url(#clip-path)">
          <g id="g2581" transform="translate(17.444 0.904)">
            <path id="path2583" d="M-345.346,0H-378.23a1.027,1.027,0,0,0-1.027,1.027V50.644l39,3.349h2.676a1.031,1.031,0,0,0,1.027-1.027V9.229l-6.012-3.39Z" transform="translate(379.258)" fill="#f9f7f8" fill-rule="evenodd"/>
          </g>
          <g id="g2585" transform="translate(42.1 51.538)">
            <path id="path2587" d="M-73.026,0h-4.562L-80.2,4.019l2.609,4.589h4.562l1.994-4.3Z" transform="translate(80.197)" fill="#a1d4ff" fill-rule="evenodd"/>
          </g>
          <g id="g2589" transform="translate(11.473 5.058)">
            <path id="path2591" d="M-60.81-473.345v-46.481h-4.944a1.031,1.031,0,0,0-1.027,1.027v45.906l.162-.054a6.624,6.624,0,0,1,1.051-.368,6.864,6.864,0,0,1,1.068-.03Z" transform="translate(66.781 519.825)" fill="#a1d4ff" fill-rule="evenodd"/>
          </g>
          <g id="g2593" transform="translate(10.73 51.537)">
            <path id="path2595" d="M-346.03-.011h-30.955a6.863,6.863,0,0,0-1.068.03l-1.956,4.273,1.956,4.273a2.092,2.092,0,0,0,.362.03h31.661Z" transform="translate(380.008 0.013)" fill="#ffe07d" fill-rule="evenodd"/>
          </g>
          <g id="g2597" transform="translate(51.356 0.894)">
            <path id="path2599" d="M-89.511-93.988l-8.79-9.229v8.2a1.031,1.031,0,0,0,1.027,1.027Z" transform="translate(98.301 103.217)" fill="#a1d4ff" fill-rule="evenodd"/>
          </g>
          <path id="path2601" d="M164.685-579.55H161.7V-626.1h2.986Z" transform="translate(-147.241 631.16)" fill="#80b4fb"/>
          <g id="g2603" transform="translate(5.484 51.569)">
            <path id="path2605" d="M-73.308-43.534l0-4.275a6.619,6.619,0,0,0-1.051.368l-.162.054-4.7,1.585-1.288,2.265,1.288,2.267,4.863,1.639a6.637,6.637,0,0,0,1.051.368Z" transform="translate(80.506 47.809)" fill="#ffe5c1" fill-rule="evenodd"/>
          </g>
          <g id="g2607" transform="translate(0.896 53.576)">
            <path id="path2609" d="M-59.846,0l-5.36,1.811c-.341.129-.517.291-.517.453v.007c0,.159.176.321.517.449l5.36,1.811Z" transform="translate(65.723)" fill="#375e7d" fill-rule="evenodd"/>
          </g>
          <g id="g2611" transform="translate(49.271 51.538)">
            <path id="path2613" d="M-73.026-69.828v-5.106a1.755,1.755,0,0,0-1.751-1.751H-80.2v8.607h5.42a1.755,1.755,0,0,0,1.751-1.751" transform="translate(80.197 76.685)" fill="#eb5468" fill-rule="evenodd"/>
          </g>
          <g id="g2615" transform="translate(43.441 0.904)">
            <path id="path2617" d="M-170.109-93.988h-7.762a1.031,1.031,0,0,1-1.027-1.027v-8.2h-7.914c13.44,18.36,9.861,44.585,7.556,50.644h3.694a1.755,1.755,0,0,1,1.751,1.751v1.6h2.676a1.031,1.031,0,0,0,1.027-1.027Z" transform="translate(186.813 103.217)" fill="#dddaec" fill-rule="evenodd"/>
          </g>
          <g id="g2619" transform="translate(35.435 13.306)">
            <path id="path2621" d="M-54.133-60.747h-5.316s2.815-5.1,3.278-5.671.916-.216.956.291-.02,7.878-.02,7.878" transform="translate(59.449 66.712)" fill="none" stroke="#000" stroke-linecap="round" stroke-linejoin="round" stroke-miterlimit="10" stroke-width="2"/>
          </g>
          <g id="g2623" transform="translate(23.181 10.059)">
            <path id="path2625" d="M0-36.686H3.275L6.522-29.9l5.169-10.392h10" transform="translate(0 40.288)" fill="none" stroke="#000" stroke-linecap="round" stroke-linejoin="round" stroke-miterlimit="10" stroke-width="2"/>
          </g>
          <g id="g2627" transform="translate(42.504 27.132)">
            <path id="path2629" d="M0,0,2.291,6.461" fill="none" stroke="#000" stroke-linecap="round" stroke-linejoin="round" stroke-miterlimit="10" stroke-width="2"/>
          </g>
          <g id="g2631" transform="translate(43.917 27.132)">
            <path id="path2633" d="M-32.176,0l-3.16,9.141" transform="translate(35.336)" fill="none" stroke="#000" stroke-linecap="round" stroke-linejoin="round" stroke-miterlimit="10" stroke-width="2"/>
          </g>
          <g id="g2635" transform="translate(28.176 27.132)">
            <path id="path2637" d="M-46.907,0l-4.606,6.107" transform="translate(51.513)" fill="none" stroke="#000" stroke-linecap="round" stroke-linejoin="round" stroke-miterlimit="10" stroke-width="2"/>
          </g>
          <g id="g2639" transform="translate(28.409 27.132)">
            <path id="path2641" d="M0,0,4.714,6.215" fill="none" stroke="#000" stroke-linecap="round" stroke-linejoin="round" stroke-miterlimit="10" stroke-width="2"/>
          </g>
          <g id="g2643" transform="translate(37.655 27.686)">
            <path id="path2645" d="M0,0V4.839" fill="none" stroke="#000" stroke-linecap="round" stroke-linejoin="round" stroke-miterlimit="10" stroke-width="2"/>
          </g>
          <g id="g2647" transform="translate(35.208 30.076)">
            <path id="path2649" d="M-49.281,0H-54.12" transform="translate(54.12)" fill="none" stroke="#000" stroke-linecap="round" stroke-linejoin="round" stroke-miterlimit="10" stroke-width="2"/>
          </g>
          <g id="g2651" transform="translate(23.183 24.993)">
            <path id="path2653" d="M-22.145-106.893a7.42,7.42,0,0,1,0-10.5" transform="translate(24.32 117.389)" fill="none" stroke="#000" stroke-linecap="round" stroke-linejoin="round" stroke-miterlimit="10" stroke-width="2"/>
          </g>
          <g id="g2655" transform="translate(49.493 24.993)">
            <path id="path2657" d="M0-106.893a7.42,7.42,0,0,0,0-10.5" transform="translate(0 117.389)" fill="none" stroke="#000" stroke-linecap="round" stroke-linejoin="round" stroke-miterlimit="10" stroke-width="2"/>
          </g>
          <g id="g2659" transform="translate(24.692 40.484)">
            <path id="path2661" d="M-63.185,0h-6.2" transform="translate(69.389)" fill="none" stroke="#000" stroke-linecap="round" stroke-linejoin="round" stroke-miterlimit="10" stroke-width="2"/>
          </g>
          <g id="g2663" transform="translate(24.692 44.33)">
            <path id="path2665" d="M-63.185,0h-6.2" transform="translate(69.389)" fill="none" stroke="#000" stroke-linecap="round" stroke-linejoin="round" stroke-miterlimit="10" stroke-width="2"/>
          </g>
          <g id="g2667" transform="translate(51.356 0.894)">
            <path id="path2669" d="M-89.511-93.988h-7.762A1.031,1.031,0,0,1-98.3-95.015v-8.2" transform="translate(98.301 103.217)" fill="none" stroke="#000" stroke-linecap="round" stroke-linejoin="round" stroke-miterlimit="10" stroke-width="2"/>
          </g>
          <g id="g2671" transform="translate(51.356 0.894)">
            <path id="path2673" d="M-89.511-93.988h-7.762A1.031,1.031,0,0,1-98.3-95.015v-8.2" transform="translate(98.301 103.217)" fill="none" stroke="#000" stroke-linecap="round" stroke-linejoin="round" stroke-miterlimit="10" stroke-width="2"/>
          </g>
          <g id="g2675" transform="translate(17.444 0.894)">
            <path id="path2677" d="M0-515.744v-49.617a1.027,1.027,0,0,1,1.027-1.027H33.912l8.79,9.229v43.736a1.031,1.031,0,0,1-1.027,1.027H39" transform="translate(0 566.388)" fill="none" stroke="#000" stroke-linecap="round" stroke-linejoin="round" stroke-miterlimit="10" stroke-width="2"/>
          </g>
          <g id="g2679" transform="translate(11.473 5.058)">
            <path id="path2681" d="M0-240.527v-22.592a1.031,1.031,0,0,1,1.027-1.027H5.971M0-217.213V-236.4" transform="translate(0 264.146)" fill="none" stroke="#000" stroke-linecap="round" stroke-linejoin="round" stroke-miterlimit="10" stroke-width="2"/>
          </g>
          <g id="g2683" transform="translate(12.686 56.881)">
            <path id="path2685" d="M-326.109-.31H-357.77a2.092,2.092,0,0,1-.362-.03V2.894a2.092,2.092,0,0,0,.362.03h31.661Z" transform="translate(358.131 0.34)" fill="#ffd064" fill-rule="evenodd"/>
          </g>
          <path id="path2687" d="M504.57-46.183h-4.562v3.234h4.562Z" transform="translate(-455.299 103.094)" fill="#80b4fb" fill-rule="evenodd"/>
          <g id="g2689" transform="translate(49.271 55.161)">
            <path id="path2691" d="M-73.026-32.935v-3.234a1.755,1.755,0,0,1-1.751,1.751H-80.2v3.234h5.42a1.755,1.755,0,0,0,1.751-1.751" transform="translate(80.197 36.169)" fill="#e5384f" fill-rule="evenodd"/>
          </g>
          <g id="g2693" transform="translate(6.772 54.874)">
            <path id="path2695" d="M-60.225-53.378v-3.234a6.623,6.623,0,0,1-1.051-.368l-4.863-1.639v3.234l4.863,1.639a6.611,6.611,0,0,0,1.051.368" transform="translate(66.139 58.62)" fill="#fed1a3" fill-rule="evenodd"/>
          </g>
          <g id="g2697" transform="translate(0.896 54.225)">
            <path id="path2699" d="M-59.846-39.544v-3.234l-1.919-.649-3.44,1.163c-.341.128-.517.291-.517.453v.007c0,.159.176.321.517.449Z" transform="translate(65.723 43.427)" fill="#2b4d66" fill-rule="evenodd"/>
          </g>
          <g id="g2701" transform="translate(0.896 51.537)">
            <path id="path2703" d="M-385.163-.012h15.974a1.755,1.755,0,0,1,1.75,1.751V6.845a1.755,1.755,0,0,1-1.75,1.751h-40.937a3.528,3.528,0,0,1-2.119-.4l-10.222-3.45c-.689-.26-.689-.649,0-.909l10.222-3.45a3.528,3.528,0,0,1,2.119-.4h21.03" transform="translate(422.985 0.013)" fill="none" stroke="#000" stroke-linecap="round" stroke-linejoin="round" stroke-miterlimit="10" stroke-width="2"/>
          </g>
          <g id="g2705" transform="translate(49.271 51.538)">
            <path id="path2707" d="M0,0V8.607" fill="none" stroke="#000" stroke-linecap="round" stroke-linejoin="round" stroke-miterlimit="10" stroke-width="2"/>
          </g>
          <g id="g2709" transform="translate(12.686 51.569)">
            <path id="path2711" d="M0,0V8.547" fill="none" stroke="#000" stroke-linecap="round" stroke-linejoin="round" stroke-miterlimit="10" stroke-width="2"/>
          </g>
          <g id="g2713" transform="translate(6.772 53.576)">
            <path id="path2715" d="M0-46.151v-4.532" transform="translate(0 50.683)" fill="none" stroke="#000" stroke-linecap="round" stroke-linejoin="round" stroke-miterlimit="10" stroke-width="2"/>
          </g>
          <g id="g2717" transform="translate(44.709 51.538)">
            <path id="path2719" d="M0,0V8.607" fill="none" stroke="#000" stroke-linecap="round" stroke-linejoin="round" stroke-miterlimit="10" stroke-width="2"/>
          </g>
        </g>
      </g>
    </g>
  </g>
</svg>
