<svg xmlns="http://www.w3.org/2000/svg" width="194.501" height="194.738" viewBox="0 0 194.501 194.738">
  <g id="Grupo_1013615" data-name="Grupo 1013615" transform="translate(-493.5 -1678.428)">
    <path id="Trazado_732214" data-name="Trazado 732214" d="M0,0H136.072V136.072H0Z" transform="translate(495 1735.588)" fill="none" stroke="#636363" stroke-linecap="round" stroke-width="3"/>
    <g id="Trazado_732212" data-name="Trazado 732212" transform="translate(548.928 1683.055)" fill="none">
      <path d="M0,0H136.072V136.072H0Z" stroke="none"/>
      <path d="M 0 0 L 0 136.0724487304688 L 136.0724487304688 136.0724487304688 L 136.0724487304688 0 L 0 0 M -3 -3 L 139.0724487304688 -3 L 139.0724487304688 139.0724487304688 L -3 139.0724487304688 L -3 -3 Z" stroke="none" fill="#636363"/>
    </g>
    <path id="Trazado_732164" data-name="Trazado 732164" d="M-.922,54.125,52,0" transform="translate(495.5 1681)" fill="none" stroke="#636363" stroke-width="3"/>
    <path id="Trazado_732213" data-name="Trazado 732213" d="M0,52.534,53.927,0" transform="translate(631.073 1683.055)" fill="none" stroke="#636363" stroke-width="3"/>
    <path id="Trazado_732165" data-name="Trazado 732165" d="M.489,52.936,55.911,1.889" transform="translate(631.073 1819.127)" fill="none" stroke="#636363" stroke-width="3"/>
    <path id="Trazado_732215" data-name="Trazado 732215" d="M0,52.534,53.927,0" transform="translate(495 1819.127)" fill="none" stroke="#636363" stroke-width="3"/>
    <path id="Trazado_732218" data-name="Trazado 732218" d="M7.348,17H4.377V7.543L1.459,8.4V6.146L7.075,4.2h.272ZM18.536,7.49l.1,1.116a3.27,3.27,0,0,1,2.716-1.292,2.407,2.407,0,0,1,2.435,1.433,3.165,3.165,0,0,1,2.795-1.433q2.892,0,2.971,3.5V17H26.578V11a1.813,1.813,0,0,0-.246-1.063,1.048,1.048,0,0,0-.9-.334,1.4,1.4,0,0,0-1.31.782l.009.123V17H21.164V11.015a1.906,1.906,0,0,0-.237-1.081,1.045,1.045,0,0,0-.905-.334,1.42,1.42,0,0,0-1.3.782V17H15.759V7.49ZM34.69,5.126V7.49h1.564V9.547H34.69V13.9a1.111,1.111,0,0,0,.193.747,1.037,1.037,0,0,0,.765.211,4.345,4.345,0,0,0,.738-.053v2.118a5.466,5.466,0,0,1-1.67.255,3.1,3.1,0,0,1-2.259-.721,2.954,2.954,0,0,1-.729-2.188V9.547H30.516V7.49h1.213V5.126Z" transform="translate(550 1843)" fill="#12263f"/>
    <path id="Trazado_732217" data-name="Trazado 732217" d="M7.348,17H4.377V7.543L1.459,8.4V6.146L7.075,4.2h.272ZM18.536,7.49l.1,1.116a3.27,3.27,0,0,1,2.716-1.292,2.407,2.407,0,0,1,2.435,1.433,3.165,3.165,0,0,1,2.795-1.433q2.892,0,2.971,3.5V17H26.578V11a1.813,1.813,0,0,0-.246-1.063,1.048,1.048,0,0,0-.9-.334,1.4,1.4,0,0,0-1.31.782l.009.123V17H21.164V11.015a1.906,1.906,0,0,0-.237-1.081,1.045,1.045,0,0,0-.905-.334,1.42,1.42,0,0,0-1.3.782V17H15.759V7.49ZM34.69,5.126V7.49h1.564V9.547H34.69V13.9a1.111,1.111,0,0,0,.193.747,1.037,1.037,0,0,0,.765.211,4.345,4.345,0,0,0,.738-.053v2.118a5.466,5.466,0,0,1-1.67.255,3.1,3.1,0,0,1-2.259-.721,2.954,2.954,0,0,1-.729-2.188V9.547H30.516V7.49h1.213V5.126Z" transform="translate(495 1812.5) rotate(-90)" fill="#12263f"/>
    <path id="Trazado_732216" data-name="Trazado 732216" d="M7.348,17H4.377V7.543L1.459,8.4V6.146L7.075,4.2h.272ZM18.536,7.49l.1,1.116a3.27,3.27,0,0,1,2.716-1.292,2.407,2.407,0,0,1,2.435,1.433,3.165,3.165,0,0,1,2.795-1.433q2.892,0,2.971,3.5V17H26.578V11a1.813,1.813,0,0,0-.246-1.063,1.048,1.048,0,0,0-.9-.334,1.4,1.4,0,0,0-1.31.782l.009.123V17H21.164V11.015a1.906,1.906,0,0,0-.237-1.081,1.045,1.045,0,0,0-.905-.334,1.42,1.42,0,0,0-1.3.782V17H15.759V7.49ZM34.69,5.126V7.49h1.564V9.547H34.69V13.9a1.111,1.111,0,0,0,.193.747,1.037,1.037,0,0,0,.765.211,4.345,4.345,0,0,0,.738-.053v2.118a5.466,5.466,0,0,1-1.67.255,3.1,3.1,0,0,1-2.259-.721,2.954,2.954,0,0,1-.729-2.188V9.547H30.516V7.49h1.213V5.126Z" transform="translate(489.507 1702.173) rotate(-47)" fill="#12263f"/>
  </g>
</svg>
