<svg xmlns="http://www.w3.org/2000/svg" xmlns:xlink="http://www.w3.org/1999/xlink" width="610" height="238" viewBox="0 0 610 238">
  <defs>
    <clipPath id="clip-path">
      <path id="path2577" d="M0-682.665H61.041v61.041H0Z" transform="translate(0 682.665)"/>
    </clipPath>
  </defs>
  <g id="Grupo_1015987" data-name="Grupo 1015987" transform="translate(-495 -15879)">
    <path id="Trazado_737844" data-name="Trazado 737844" d="M0,0H120V103H0Z" transform="translate(985 16014)" fill="#ffa031"/>
    <path id="Trazado_737845" data-name="Trazado 737845" d="M0,0H130V103H0Z" transform="translate(495 15879)" fill="#ffa031"/>
    <path id="Trazado_732719" data-name="Trazado 732719" d="M0,0H589.764V218.329H0Z" transform="translate(505 15889)" fill="#dee4f0"/>
    <g id="g2571" transform="translate(538.959 15909.999)">
      <g id="g2573">
        <g id="g2575" clip-path="url(#clip-path)">
          <g id="g2581" transform="translate(17.444 0.904)">
            <path id="path2583" d="M-345.346,0H-378.23a1.027,1.027,0,0,0-1.027,1.027V50.644l39,3.349h2.676a1.031,1.031,0,0,0,1.027-1.027V9.229l-6.012-3.39Z" transform="translate(379.258)" fill="#f9f7f8" fill-rule="evenodd"/>
          </g>
          <g id="g2585" transform="translate(42.1 51.538)">
            <path id="path2587" d="M-73.026,0h-4.562L-80.2,4.019l2.609,4.589h4.562l1.994-4.3Z" transform="translate(80.197)" fill="#a1d4ff" fill-rule="evenodd"/>
          </g>
          <g id="g2589" transform="translate(11.473 5.058)">
            <path id="path2591" d="M-60.81-473.345v-46.481h-4.944a1.031,1.031,0,0,0-1.027,1.027v45.906l.162-.054a6.624,6.624,0,0,1,1.051-.368,6.864,6.864,0,0,1,1.068-.03Z" transform="translate(66.781 519.825)" fill="#a1d4ff" fill-rule="evenodd"/>
          </g>
          <g id="g2593" transform="translate(10.73 51.537)">
            <path id="path2595" d="M-346.03-.011h-30.955a6.863,6.863,0,0,0-1.068.03l-1.956,4.273,1.956,4.273a2.092,2.092,0,0,0,.362.03h31.661Z" transform="translate(380.008 0.013)" fill="#ffe07d" fill-rule="evenodd"/>
          </g>
          <g id="g2597" transform="translate(51.356 0.894)">
            <path id="path2599" d="M-89.511-93.988l-8.79-9.229v8.2a1.031,1.031,0,0,0,1.027,1.027Z" transform="translate(98.301 103.217)" fill="#a1d4ff" fill-rule="evenodd"/>
          </g>
          <path id="path2601" d="M164.685-579.55H161.7V-626.1h2.986Z" transform="translate(-147.241 631.16)" fill="#80b4fb"/>
          <g id="g2603" transform="translate(5.484 51.569)">
            <path id="path2605" d="M-73.308-43.534l0-4.275a6.619,6.619,0,0,0-1.051.368l-.162.054-4.7,1.585-1.288,2.265,1.288,2.267,4.863,1.639a6.637,6.637,0,0,0,1.051.368Z" transform="translate(80.506 47.809)" fill="#ffe5c1" fill-rule="evenodd"/>
          </g>
          <g id="g2607" transform="translate(0.896 53.576)">
            <path id="path2609" d="M-59.846,0l-5.36,1.811c-.341.129-.517.291-.517.453v.007c0,.159.176.321.517.449l5.36,1.811Z" transform="translate(65.723)" fill="#375e7d" fill-rule="evenodd"/>
          </g>
          <g id="g2611" transform="translate(49.271 51.538)">
            <path id="path2613" d="M-73.026-69.828v-5.106a1.755,1.755,0,0,0-1.751-1.751H-80.2v8.607h5.42a1.755,1.755,0,0,0,1.751-1.751" transform="translate(80.197 76.685)" fill="#eb5468" fill-rule="evenodd"/>
          </g>
          <g id="g2615" transform="translate(43.441 0.904)">
            <path id="path2617" d="M-170.109-93.988h-7.762a1.031,1.031,0,0,1-1.027-1.027v-8.2h-7.914c13.44,18.36,9.861,44.585,7.556,50.644h3.694a1.755,1.755,0,0,1,1.751,1.751v1.6h2.676a1.031,1.031,0,0,0,1.027-1.027Z" transform="translate(186.813 103.217)" fill="#dddaec" fill-rule="evenodd"/>
          </g>
          <g id="g2619" transform="translate(35.435 13.306)">
            <path id="path2621" d="M-54.133-60.747h-5.316s2.815-5.1,3.278-5.671.916-.216.956.291-.02,7.878-.02,7.878" transform="translate(59.449 66.712)" fill="none" stroke="#000" stroke-linecap="round" stroke-linejoin="round" stroke-miterlimit="10" stroke-width="2"/>
          </g>
          <g id="g2623" transform="translate(23.181 10.059)">
            <path id="path2625" d="M0-36.686H3.275L6.522-29.9l5.169-10.392h10" transform="translate(0 40.288)" fill="none" stroke="#000" stroke-linecap="round" stroke-linejoin="round" stroke-miterlimit="10" stroke-width="2"/>
          </g>
          <g id="g2627" transform="translate(42.504 27.132)">
            <path id="path2629" d="M0,0,2.291,6.461" fill="none" stroke="#000" stroke-linecap="round" stroke-linejoin="round" stroke-miterlimit="10" stroke-width="2"/>
          </g>
          <g id="g2631" transform="translate(43.917 27.132)">
            <path id="path2633" d="M-32.176,0l-3.16,9.141" transform="translate(35.336)" fill="none" stroke="#000" stroke-linecap="round" stroke-linejoin="round" stroke-miterlimit="10" stroke-width="2"/>
          </g>
          <g id="g2635" transform="translate(28.176 27.132)">
            <path id="path2637" d="M-46.907,0l-4.606,6.107" transform="translate(51.513)" fill="none" stroke="#000" stroke-linecap="round" stroke-linejoin="round" stroke-miterlimit="10" stroke-width="2"/>
          </g>
          <g id="g2639" transform="translate(28.409 27.132)">
            <path id="path2641" d="M0,0,4.714,6.215" fill="none" stroke="#000" stroke-linecap="round" stroke-linejoin="round" stroke-miterlimit="10" stroke-width="2"/>
          </g>
          <g id="g2643" transform="translate(37.655 27.686)">
            <path id="path2645" d="M0,0V4.839" fill="none" stroke="#000" stroke-linecap="round" stroke-linejoin="round" stroke-miterlimit="10" stroke-width="2"/>
          </g>
          <g id="g2647" transform="translate(35.208 30.076)">
            <path id="path2649" d="M-49.281,0H-54.12" transform="translate(54.12)" fill="none" stroke="#000" stroke-linecap="round" stroke-linejoin="round" stroke-miterlimit="10" stroke-width="2"/>
          </g>
          <g id="g2651" transform="translate(23.183 24.993)">
            <path id="path2653" d="M-22.145-106.893a7.42,7.42,0,0,1,0-10.5" transform="translate(24.32 117.389)" fill="none" stroke="#000" stroke-linecap="round" stroke-linejoin="round" stroke-miterlimit="10" stroke-width="2"/>
          </g>
          <g id="g2655" transform="translate(49.493 24.993)">
            <path id="path2657" d="M0-106.893a7.42,7.42,0,0,0,0-10.5" transform="translate(0 117.389)" fill="none" stroke="#000" stroke-linecap="round" stroke-linejoin="round" stroke-miterlimit="10" stroke-width="2"/>
          </g>
          <g id="g2659" transform="translate(24.692 40.484)">
            <path id="path2661" d="M-63.185,0h-6.2" transform="translate(69.389)" fill="none" stroke="#000" stroke-linecap="round" stroke-linejoin="round" stroke-miterlimit="10" stroke-width="2"/>
          </g>
          <g id="g2663" transform="translate(24.692 44.33)">
            <path id="path2665" d="M-63.185,0h-6.2" transform="translate(69.389)" fill="none" stroke="#000" stroke-linecap="round" stroke-linejoin="round" stroke-miterlimit="10" stroke-width="2"/>
          </g>
          <g id="g2667" transform="translate(51.356 0.894)">
            <path id="path2669" d="M-89.511-93.988h-7.762A1.031,1.031,0,0,1-98.3-95.015v-8.2" transform="translate(98.301 103.217)" fill="none" stroke="#000" stroke-linecap="round" stroke-linejoin="round" stroke-miterlimit="10" stroke-width="2"/>
          </g>
          <g id="g2671" transform="translate(51.356 0.894)">
            <path id="path2673" d="M-89.511-93.988h-7.762A1.031,1.031,0,0,1-98.3-95.015v-8.2" transform="translate(98.301 103.217)" fill="none" stroke="#000" stroke-linecap="round" stroke-linejoin="round" stroke-miterlimit="10" stroke-width="2"/>
          </g>
          <g id="g2675" transform="translate(17.444 0.894)">
            <path id="path2677" d="M0-515.744v-49.617a1.027,1.027,0,0,1,1.027-1.027H33.912l8.79,9.229v43.736a1.031,1.031,0,0,1-1.027,1.027H39" transform="translate(0 566.388)" fill="none" stroke="#000" stroke-linecap="round" stroke-linejoin="round" stroke-miterlimit="10" stroke-width="2"/>
          </g>
          <g id="g2679" transform="translate(11.473 5.058)">
            <path id="path2681" d="M0-240.527v-22.592a1.031,1.031,0,0,1,1.027-1.027H5.971M0-217.213V-236.4" transform="translate(0 264.146)" fill="none" stroke="#000" stroke-linecap="round" stroke-linejoin="round" stroke-miterlimit="10" stroke-width="2"/>
          </g>
          <g id="g2683" transform="translate(12.686 56.881)">
            <path id="path2685" d="M-326.109-.31H-357.77a2.092,2.092,0,0,1-.362-.03V2.894a2.092,2.092,0,0,0,.362.03h31.661Z" transform="translate(358.131 0.34)" fill="#ffd064" fill-rule="evenodd"/>
          </g>
          <path id="path2687" d="M504.57-46.183h-4.562v3.234h4.562Z" transform="translate(-455.299 103.094)" fill="#80b4fb" fill-rule="evenodd"/>
          <g id="g2689" transform="translate(49.271 55.161)">
            <path id="path2691" d="M-73.026-32.935v-3.234a1.755,1.755,0,0,1-1.751,1.751H-80.2v3.234h5.42a1.755,1.755,0,0,0,1.751-1.751" transform="translate(80.197 36.169)" fill="#e5384f" fill-rule="evenodd"/>
          </g>
          <g id="g2693" transform="translate(6.772 54.874)">
            <path id="path2695" d="M-60.225-53.378v-3.234a6.623,6.623,0,0,1-1.051-.368l-4.863-1.639v3.234l4.863,1.639a6.611,6.611,0,0,0,1.051.368" transform="translate(66.139 58.62)" fill="#fed1a3" fill-rule="evenodd"/>
          </g>
          <g id="g2697" transform="translate(0.896 54.225)">
            <path id="path2699" d="M-59.846-39.544v-3.234l-1.919-.649-3.44,1.163c-.341.128-.517.291-.517.453v.007c0,.159.176.321.517.449Z" transform="translate(65.723 43.427)" fill="#2b4d66" fill-rule="evenodd"/>
          </g>
          <g id="g2701" transform="translate(0.896 51.537)">
            <path id="path2703" d="M-385.163-.012h15.974a1.755,1.755,0,0,1,1.75,1.751V6.845a1.755,1.755,0,0,1-1.75,1.751h-40.937a3.528,3.528,0,0,1-2.119-.4l-10.222-3.45c-.689-.26-.689-.649,0-.909l10.222-3.45a3.528,3.528,0,0,1,2.119-.4h21.03" transform="translate(422.985 0.013)" fill="none" stroke="#000" stroke-linecap="round" stroke-linejoin="round" stroke-miterlimit="10" stroke-width="2"/>
          </g>
          <g id="g2705" transform="translate(49.271 51.538)">
            <path id="path2707" d="M0,0V8.607" fill="none" stroke="#000" stroke-linecap="round" stroke-linejoin="round" stroke-miterlimit="10" stroke-width="2"/>
          </g>
          <g id="g2709" transform="translate(12.686 51.569)">
            <path id="path2711" d="M0,0V8.547" fill="none" stroke="#000" stroke-linecap="round" stroke-linejoin="round" stroke-miterlimit="10" stroke-width="2"/>
          </g>
          <g id="g2713" transform="translate(6.772 53.576)">
            <path id="path2715" d="M0-46.151v-4.532" transform="translate(0 50.683)" fill="none" stroke="#000" stroke-linecap="round" stroke-linejoin="round" stroke-miterlimit="10" stroke-width="2"/>
          </g>
          <g id="g2717" transform="translate(44.709 51.538)">
            <path id="path2719" d="M0,0V8.607" fill="none" stroke="#000" stroke-linecap="round" stroke-linejoin="round" stroke-miterlimit="10" stroke-width="2"/>
          </g>
        </g>
      </g>
    </g>
    <path id="Trazado_737846" data-name="Trazado 737846" d="M7.086,16.406l1.7,1.633L7.7,18.922l-1.984-1.9a5.457,5.457,0,0,1-1.156.125,3.507,3.507,0,0,1-1.883-.52A3.375,3.375,0,0,1,1.41,15.152a5.638,5.638,0,0,1-.5-2.184,10.385,10.385,0,0,1,.207-2.348A7.953,7.953,0,0,1,1.992,8.16a5.733,5.733,0,0,1,1.492-1.77,4.44,4.44,0,0,1,2.859-.922A3.69,3.69,0,0,1,8.258,6,3.325,3.325,0,0,1,9.516,7.473a5.684,5.684,0,0,1,.492,2.184,8.388,8.388,0,0,1-.055,1.3l-.094.664A6.3,6.3,0,0,1,7.086,16.406Zm1.469-6.391a3.866,3.866,0,0,0-.539-2.4A2.068,2.068,0,0,0,6.281,6.75a2.963,2.963,0,0,0-1.871.563A4.258,4.258,0,0,0,3.059,9.09a9.158,9.158,0,0,0-.668,3l-.023.508a5.045,5.045,0,0,0,.211,1.68,2.307,2.307,0,0,0,.77,1.188,2.169,2.169,0,0,0,1.293.43,2.957,2.957,0,0,0,2.418-1.039,5.983,5.983,0,0,0,1.309-3.086A13.433,13.433,0,0,0,8.555,10.016Zm13.883.625H16.109l.219-1.258h6.336Zm-.562,3.242H15.547l.219-1.25H22.1ZM31.906,17H30.484l1.672-9.594L29.133,8.469l.242-1.375L33.594,5.57h.25Zm4.008,2.273-.812-.586a5.16,5.16,0,0,0,1.125-2.219l.2-1.18h1.383l-.164,1.055A4.521,4.521,0,0,1,35.914,19.273ZM47.422,8.523a2.818,2.818,0,0,1-.605,1.535,4.041,4.041,0,0,1-1.457,1.129,2.674,2.674,0,0,1,1.09,1.129,2.891,2.891,0,0,1,.293,1.543,3.315,3.315,0,0,1-1.234,2.418,4,4,0,0,1-2.7.879,3.21,3.21,0,0,1-2.336-.914,2.733,2.733,0,0,1-.742-2.25,3.041,3.041,0,0,1,.688-1.707A4.306,4.306,0,0,1,42.063,11.1a2.586,2.586,0,0,1-.9-1.062,2.7,2.7,0,0,1-.23-1.375,3.3,3.3,0,0,1,1.133-2.336,3.577,3.577,0,0,1,2.516-.859,2.908,2.908,0,0,1,2.156.883A2.7,2.7,0,0,1,47.422,8.523Zm-2.078,5.3a1.943,1.943,0,0,0-.375-1.473,1.716,1.716,0,0,0-1.359-.621,2.309,2.309,0,0,0-1.656.613,2.486,2.486,0,0,0-.8,1.621,1.838,1.838,0,0,0,.379,1.453,1.719,1.719,0,0,0,1.34.563,2.323,2.323,0,0,0,1.672-.574A2.381,2.381,0,0,0,45.344,13.828ZM46,8.547a1.791,1.791,0,0,0-.324-1.328,1.462,1.462,0,0,0-1.168-.57,2,2,0,0,0-1.477.559,2.334,2.334,0,0,0-.7,1.48,1.76,1.76,0,0,0,.332,1.336,1.46,1.46,0,0,0,1.176.539,2,2,0,0,0,1.457-.551A2.285,2.285,0,0,0,46,8.547Zm5.156,2.063.938.008a2.769,2.769,0,0,0,1.738-.543A2.058,2.058,0,0,0,54.641,8.6,1.814,1.814,0,0,0,54.3,7.176a1.613,1.613,0,0,0-1.273-.535,2.175,2.175,0,0,0-1.512.52A2.294,2.294,0,0,0,50.758,8.6l-1.4.008a3.241,3.241,0,0,1,1.2-2.285A3.8,3.8,0,0,1,53.1,5.461a3.04,3.04,0,0,1,2.246.895,2.838,2.838,0,0,1,.707,2.277,2.631,2.631,0,0,1-.617,1.469,4.111,4.111,0,0,1-1.516,1.1,2.248,2.248,0,0,1,1.156.988,2.757,2.757,0,0,1,.32,1.582,3.491,3.491,0,0,1-1.223,2.477,3.844,3.844,0,0,1-2.668.906,3.234,3.234,0,0,1-2.328-.906,2.874,2.874,0,0,1-.8-2.258L49.789,14a1.9,1.9,0,0,0,.422,1.41,1.8,1.8,0,0,0,1.359.566,2.273,2.273,0,0,0,1.664-.57,2.38,2.38,0,0,0,.758-1.609,1.741,1.741,0,0,0-.422-1.449,2.127,2.127,0,0,0-1.516-.551l-1.086-.008ZM64.5,11.625l2.3-3.078h1.734L65.141,12.8,67.2,17H65.664l-1.4-3.156L61.883,17H60.156l3.492-4.344-2-4.109H63.2Zm9.969,4.148H79.7L79.484,17h-6.7L74.758,5.625h1.477Zm14.078-4.148,2.3-3.078h1.734L89.188,12.8,91.25,17H89.711l-1.4-3.156L85.93,17H84.2L87.7,12.656l-2-4.109h1.547ZM105.32,17h-1.469l.914-5.258H99.211L98.3,17H96.828L98.8,5.625h1.469l-.852,4.891h5.547l.852-4.891H107.3Zm4.94-5h-.829l.975-5.6-1.764.62.141-.8,2.461-.889h.146Zm2.338,1.326-.474-.342a3.01,3.01,0,0,0,.656-1.294L112.9,11h.807l-.1.615A2.637,2.637,0,0,1,112.6,13.326ZM115.46,8.66l.843-3.295h3.308l-.123.779h-2.6l-.51,1.814a2.03,2.03,0,0,1,1.085-.287,1.489,1.489,0,0,1,1.267.622,2.254,2.254,0,0,1,.36,1.561,2.493,2.493,0,0,1-.725,1.641,2.13,2.13,0,0,1-1.59.6,1.735,1.735,0,0,1-1.281-.51,1.929,1.929,0,0,1-.515-1.335h.77a1.322,1.322,0,0,0,.31.848,1,1,0,0,0,.752.31,1.227,1.227,0,0,0,.982-.415,1.915,1.915,0,0,0,.472-1.135,1.458,1.458,0,0,0-.214-1.014.974.974,0,0,0-.816-.417,1.4,1.4,0,0,0-.59.1,2.192,2.192,0,0,0-.513.314Z" transform="translate(705 15918)" fill="#12263f"/>
    <path id="Trazado_737847" data-name="Trazado 737847" d="M7.086,16.406l1.7,1.633L7.7,18.922l-1.984-1.9a5.457,5.457,0,0,1-1.156.125,3.507,3.507,0,0,1-1.883-.52A3.375,3.375,0,0,1,1.41,15.152a5.638,5.638,0,0,1-.5-2.184,10.385,10.385,0,0,1,.207-2.348A7.953,7.953,0,0,1,1.992,8.16a5.733,5.733,0,0,1,1.492-1.77,4.44,4.44,0,0,1,2.859-.922A3.69,3.69,0,0,1,8.258,6,3.325,3.325,0,0,1,9.516,7.473a5.684,5.684,0,0,1,.492,2.184,8.388,8.388,0,0,1-.055,1.3l-.094.664A6.3,6.3,0,0,1,7.086,16.406Zm1.469-6.391a3.866,3.866,0,0,0-.539-2.4A2.068,2.068,0,0,0,6.281,6.75a2.963,2.963,0,0,0-1.871.563A4.258,4.258,0,0,0,3.059,9.09a9.158,9.158,0,0,0-.668,3l-.023.508a5.045,5.045,0,0,0,.211,1.68,2.307,2.307,0,0,0,.77,1.188,2.169,2.169,0,0,0,1.293.43,2.957,2.957,0,0,0,2.418-1.039,5.983,5.983,0,0,0,1.309-3.086A13.433,13.433,0,0,0,8.555,10.016Zm13.883.625H16.109l.219-1.258h6.336Zm-.562,3.242H15.547l.219-1.25H22.1ZM31.906,17H30.484l1.672-9.594L29.133,8.469l.242-1.375L33.594,5.57h.25Zm4.008,2.273-.812-.586a5.16,5.16,0,0,0,1.125-2.219l.2-1.18h1.383l-.164,1.055A4.521,4.521,0,0,1,35.914,19.273ZM47.422,8.523a2.818,2.818,0,0,1-.605,1.535,4.041,4.041,0,0,1-1.457,1.129,2.674,2.674,0,0,1,1.09,1.129,2.891,2.891,0,0,1,.293,1.543,3.315,3.315,0,0,1-1.234,2.418,4,4,0,0,1-2.7.879,3.21,3.21,0,0,1-2.336-.914,2.733,2.733,0,0,1-.742-2.25,3.041,3.041,0,0,1,.688-1.707A4.306,4.306,0,0,1,42.063,11.1a2.586,2.586,0,0,1-.9-1.062,2.7,2.7,0,0,1-.23-1.375,3.3,3.3,0,0,1,1.133-2.336,3.577,3.577,0,0,1,2.516-.859,2.908,2.908,0,0,1,2.156.883A2.7,2.7,0,0,1,47.422,8.523Zm-2.078,5.3a1.943,1.943,0,0,0-.375-1.473,1.716,1.716,0,0,0-1.359-.621,2.309,2.309,0,0,0-1.656.613,2.486,2.486,0,0,0-.8,1.621,1.838,1.838,0,0,0,.379,1.453,1.719,1.719,0,0,0,1.34.563,2.323,2.323,0,0,0,1.672-.574A2.381,2.381,0,0,0,45.344,13.828ZM46,8.547a1.791,1.791,0,0,0-.324-1.328,1.462,1.462,0,0,0-1.168-.57,2,2,0,0,0-1.477.559,2.334,2.334,0,0,0-.7,1.48,1.76,1.76,0,0,0,.332,1.336,1.46,1.46,0,0,0,1.176.539,2,2,0,0,0,1.457-.551A2.285,2.285,0,0,0,46,8.547Zm5.156,2.063.938.008a2.769,2.769,0,0,0,1.738-.543A2.058,2.058,0,0,0,54.641,8.6,1.814,1.814,0,0,0,54.3,7.176a1.613,1.613,0,0,0-1.273-.535,2.175,2.175,0,0,0-1.512.52A2.294,2.294,0,0,0,50.758,8.6l-1.4.008a3.241,3.241,0,0,1,1.2-2.285A3.8,3.8,0,0,1,53.1,5.461a3.04,3.04,0,0,1,2.246.895,2.838,2.838,0,0,1,.707,2.277,2.631,2.631,0,0,1-.617,1.469,4.111,4.111,0,0,1-1.516,1.1,2.248,2.248,0,0,1,1.156.988,2.757,2.757,0,0,1,.32,1.582,3.491,3.491,0,0,1-1.223,2.477,3.844,3.844,0,0,1-2.668.906,3.234,3.234,0,0,1-2.328-.906,2.874,2.874,0,0,1-.8-2.258L49.789,14a1.9,1.9,0,0,0,.422,1.41,1.8,1.8,0,0,0,1.359.566,2.273,2.273,0,0,0,1.664-.57,2.38,2.38,0,0,0,.758-1.609,1.741,1.741,0,0,0-.422-1.449,2.127,2.127,0,0,0-1.516-.551l-1.086-.008ZM64.5,11.625l2.3-3.078h1.734L65.141,12.8,67.2,17H65.664l-1.4-3.156L61.883,17H60.156l3.492-4.344-2-4.109H63.2ZM79.742,17H72.5l.172-1.1,4.2-4.078.766-.758a4.483,4.483,0,0,0,1.461-2.437,1.807,1.807,0,0,0-.336-1.4,1.58,1.58,0,0,0-1.234-.574,2.328,2.328,0,0,0-1.711.6,2.745,2.745,0,0,0-.836,1.723l-1.4.008a3.956,3.956,0,0,1,.645-1.855,3.59,3.59,0,0,1,1.43-1.242,4.108,4.108,0,0,1,1.926-.41,3.156,3.156,0,0,1,2.246.855,2.535,2.535,0,0,1,.715,2.137,5.445,5.445,0,0,1-1.727,3.156l-.719.727L74.438,15.82H79.93Zm9.172-5.375,2.3-3.078h1.734L89.555,12.8,91.617,17H90.078l-1.4-3.156L86.3,17H84.57l3.492-4.344-2-4.109h1.547Zm8.859.789A14.789,14.789,0,0,1,98.73,8.9a10.894,10.894,0,0,1,1.715-2.918,7.045,7.045,0,0,1,2.266-1.824l.211.969a8.108,8.108,0,0,0-2.105,2.387,12.281,12.281,0,0,0-1.355,3.5,16.834,16.834,0,0,0-.461,4,8.85,8.85,0,0,0,.418,2.848,4.494,4.494,0,0,0,1.207,1.941l-.352.875a5.641,5.641,0,0,1-2-2.68,10.335,10.335,0,0,1-.629-4.062,12.35,12.35,0,0,1,.109-1.43Zm8.031,4.742a2.567,2.567,0,0,1-2.156-1.02,4.526,4.526,0,0,1-.656-2.848q.016-.578.086-1.141l.281-1.9a7.043,7.043,0,0,1,1.43-3.625,3.418,3.418,0,0,1,2.781-1.156,2.6,2.6,0,0,1,2.168,1,4.426,4.426,0,0,1,.66,2.8q-.023.586-.094,1.148l-.273,1.836a7.463,7.463,0,0,1-1.461,3.758A3.4,3.4,0,0,1,105.8,17.156Zm3.133-7a12.092,12.092,0,0,0,.1-1.469Q109,6.7,107.5,6.648a2.053,2.053,0,0,0-1.77.809,5.606,5.606,0,0,0-.941,2.66l-.336,2.266a11.525,11.525,0,0,0-.1,1.477q.039,2.07,1.531,2.125a2.007,2.007,0,0,0,1.715-.766,5.429,5.429,0,0,0,.965-2.578Zm1.906,9.117-.812-.586a5.16,5.16,0,0,0,1.125-2.219l.2-1.18h1.383l-.164,1.055A4.521,4.521,0,0,1,110.844,19.273ZM118.758,17h-1.422l1.672-9.594-3.023,1.063.242-1.375,4.219-1.523h.25Zm8.352-4.57a14.5,14.5,0,0,1-.992,3.605,10.841,10.841,0,0,1-1.723,2.867,7.163,7.163,0,0,1-2.223,1.777l-.219-.9q2.68-2.016,3.578-6.477a16.834,16.834,0,0,0,.344-3.461q-.039-3.352-1.625-4.8l.367-.875a5.179,5.179,0,0,1,1.48,1.621,7.645,7.645,0,0,1,.891,2.352,12.043,12.043,0,0,1,.254,2.777,13.344,13.344,0,0,1-.117,1.43Zm3.956-.43h-.829l.975-5.6-1.764.62.141-.8,2.461-.889h.146Zm2.338,1.326-.474-.342a3.01,3.01,0,0,0,.656-1.294L133.7,11h.807l-.1.615A2.637,2.637,0,0,1,133.4,13.326Zm2.862-4.666.843-3.295h3.308l-.123.779h-2.6l-.51,1.814a2.03,2.03,0,0,1,1.085-.287,1.489,1.489,0,0,1,1.267.622,2.254,2.254,0,0,1,.36,1.561,2.493,2.493,0,0,1-.725,1.641,2.13,2.13,0,0,1-1.59.6,1.735,1.735,0,0,1-1.281-.51,1.929,1.929,0,0,1-.515-1.335h.77a1.322,1.322,0,0,0,.31.848,1,1,0,0,0,.752.31,1.227,1.227,0,0,0,.982-.415,1.915,1.915,0,0,0,.472-1.135,1.458,1.458,0,0,0-.214-1.014.974.974,0,0,0-.816-.417,1.4,1.4,0,0,0-.59.1,2.192,2.192,0,0,0-.513.314Z" transform="translate(705 15979)" fill="#12263f"/>
    <path id="Trazado_737848" data-name="Trazado 737848" d="M7.086,16.406l1.7,1.633L7.7,18.922l-1.984-1.9a5.457,5.457,0,0,1-1.156.125,3.507,3.507,0,0,1-1.883-.52A3.375,3.375,0,0,1,1.41,15.152a5.638,5.638,0,0,1-.5-2.184,10.385,10.385,0,0,1,.207-2.348A7.953,7.953,0,0,1,1.992,8.16a5.733,5.733,0,0,1,1.492-1.77,4.44,4.44,0,0,1,2.859-.922A3.69,3.69,0,0,1,8.258,6,3.325,3.325,0,0,1,9.516,7.473a5.684,5.684,0,0,1,.492,2.184,8.388,8.388,0,0,1-.055,1.3l-.094.664A6.3,6.3,0,0,1,7.086,16.406Zm1.469-6.391a3.866,3.866,0,0,0-.539-2.4A2.068,2.068,0,0,0,6.281,6.75a2.963,2.963,0,0,0-1.871.563A4.258,4.258,0,0,0,3.059,9.09a9.158,9.158,0,0,0-.668,3l-.023.508a5.045,5.045,0,0,0,.211,1.68,2.307,2.307,0,0,0,.77,1.188,2.169,2.169,0,0,0,1.293.43,2.957,2.957,0,0,0,2.418-1.039,5.983,5.983,0,0,0,1.309-3.086A13.433,13.433,0,0,0,8.555,10.016Zm13.883.625H16.109l.219-1.258h6.336Zm-.562,3.242H15.547l.219-1.25H22.1Zm9,3.273a2.567,2.567,0,0,1-2.156-1.02,4.526,4.526,0,0,1-.656-2.848q.016-.578.086-1.141l.281-1.9a7.043,7.043,0,0,1,1.43-3.625,3.418,3.418,0,0,1,2.781-1.156,2.6,2.6,0,0,1,2.168,1,4.426,4.426,0,0,1,.66,2.8q-.023.586-.094,1.148L35.1,12.25a7.463,7.463,0,0,1-1.461,3.758A3.4,3.4,0,0,1,30.875,17.156Zm3.133-7a12.092,12.092,0,0,0,.1-1.469Q34.07,6.7,32.57,6.648a2.053,2.053,0,0,0-1.77.809,5.606,5.606,0,0,0-.941,2.66l-.336,2.266a11.525,11.525,0,0,0-.1,1.477q.039,2.07,1.531,2.125a2.007,2.007,0,0,0,1.715-.766,5.429,5.429,0,0,0,.965-2.578Zm1.906,9.117-.812-.586a5.16,5.16,0,0,0,1.125-2.219l.2-1.18h1.383l-.164,1.055A4.521,4.521,0,0,1,35.914,19.273ZM43.828,17H42.406l1.672-9.594L41.055,8.469,41.3,7.094,45.516,5.57h.25Zm8.8,0H51.2l1.672-9.594L49.852,8.469l.242-1.375L54.313,5.57h.25Zm5.789-5.727,1.445-5.648h5.672L65.32,6.961H60.867l-.875,3.109a3.481,3.481,0,0,1,1.859-.492,2.553,2.553,0,0,1,2.172,1.066,3.864,3.864,0,0,1,.617,2.676A4.274,4.274,0,0,1,63.4,16.133a3.651,3.651,0,0,1-2.727,1.031,2.975,2.975,0,0,1-2.2-.875A3.307,3.307,0,0,1,57.594,14h1.32a2.266,2.266,0,0,0,.531,1.453,1.718,1.718,0,0,0,1.289.531,2.1,2.1,0,0,0,1.684-.711,3.282,3.282,0,0,0,.809-1.945,2.5,2.5,0,0,0-.367-1.738,1.671,1.671,0,0,0-1.4-.715,2.4,2.4,0,0,0-1.012.172,3.758,3.758,0,0,0-.879.539ZM74.453,6.516,68.273,17H66.727L72.875,6.813H66.938l.188-1.187h7.469Z" transform="translate(705 16030)" fill="#12263f"/>
    <path id="Trazado_737849" data-name="Trazado 737849" d="M4.126,8.539l-.18.945a3.305,3.305,0,0,1,2.57-1.094,2.608,2.608,0,0,1,1.363.367,1.8,1.8,0,0,1,.77.992,3.49,3.49,0,0,1,2.8-1.359,2.235,2.235,0,0,1,1.867.852,3.042,3.042,0,0,1,.445,2.2L12.837,17H11.43l.922-5.57a2.943,2.943,0,0,0,0-.742Q12.2,9.625,10.962,9.6a2.136,2.136,0,0,0-1.4.48,2.222,2.222,0,0,0-.809,1.3L7.79,17H6.368l.938-5.562A1.786,1.786,0,0,0,7.044,10.1a1.377,1.377,0,0,0-1.129-.484,2.315,2.315,0,0,0-2.1,1.2L2.743,17H1.329L2.8,8.547ZM16.67,8.272l.547,0a1.615,1.615,0,0,0,1.014-.317A1.2,1.2,0,0,0,18.7,7.1a1.058,1.058,0,0,0-.2-.832.941.941,0,0,0-.743-.312,1.268,1.268,0,0,0-.882.3,1.338,1.338,0,0,0-.444.841l-.816,0a1.89,1.89,0,0,1,.7-1.333,2.219,2.219,0,0,1,1.483-.5,1.773,1.773,0,0,1,1.31.522,1.656,1.656,0,0,1,.412,1.328,1.535,1.535,0,0,1-.36.857,2.4,2.4,0,0,1-.884.643,1.311,1.311,0,0,1,.674.576,1.608,1.608,0,0,1,.187.923,2.037,2.037,0,0,1-.713,1.445,2.242,2.242,0,0,1-1.556.529,1.886,1.886,0,0,1-1.358-.529,1.676,1.676,0,0,1-.469-1.317l.825,0a1.108,1.108,0,0,0,.246.823,1.05,1.05,0,0,0,.793.33,1.326,1.326,0,0,0,.971-.333,1.388,1.388,0,0,0,.442-.939,1.015,1.015,0,0,0-.246-.845,1.241,1.241,0,0,0-.884-.321l-.633,0Z" transform="translate(801 16014.5)" fill="#12263f"/>
    <path id="Trazado_737850" data-name="Trazado 737850" d="M18.438,14.711q.117-.875-.961-1.234l-1.469-.43q-1.859-.641-1.8-2.125A2.341,2.341,0,0,1,15.23,9.09a3.631,3.631,0,0,1,2.27-.7,3.027,3.027,0,0,1,2.082.746,2.363,2.363,0,0,1,.77,1.9l-1.406-.008a1.319,1.319,0,0,0-.4-1.031,1.576,1.576,0,0,0-1.1-.414,2.059,2.059,0,0,0-1.266.359,1.316,1.316,0,0,0-.57.922q-.1.734.9,1.07l.711.2a4.577,4.577,0,0,1,2.063.977,1.865,1.865,0,0,1,.563,1.492,2.37,2.37,0,0,1-.516,1.375,2.948,2.948,0,0,1-1.25.895,4.18,4.18,0,0,1-1.664.285,3.3,3.3,0,0,1-2.219-.785,2.427,2.427,0,0,1-.844-1.98l1.414.008a1.5,1.5,0,0,0,.453,1.141,1.732,1.732,0,0,0,1.242.43,2.436,2.436,0,0,0,1.336-.324A1.247,1.247,0,0,0,18.438,14.711Z" transform="translate(794 16045.5)" fill="#12263f"/>
    <path id="Trazado_737851" data-name="Trazado 737851" d="M0,0H42.242" transform="translate(790.5 16040.5)" fill="none" stroke="#12263f" stroke-width="1"/>
  </g>
</svg>
