<svg xmlns="http://www.w3.org/2000/svg" width="116.03" height="116.03" viewBox="0 0 116.03 116.03">
  <g id="reading_1_" data-name="reading (1)" transform="translate(-0.453)">
    <path id="Trazado_732626" data-name="Trazado 732626" d="M242.953,130.068l40.611-11.6V56.582L242.953,72.053Zm0,0" transform="translate(-184.485 -43.045)" fill="#cfdfe8"/>
    <path id="Trazado_732627" data-name="Trazado 732627" d="M113.814,130.068,73.2,118.465V56.582l40.611,15.471Zm0,0" transform="translate(-55.345 -43.045)" fill="#87cee9"/>
    <path id="Trazado_732628" data-name="Trazado 732628" d="M89.217,179.265H40.871V121.25h7.735v46.412Zm0,0" transform="translate(-30.748 -92.242)" fill="#e9686a"/>
    <path id="Trazado_732629" data-name="Trazado 732629" d="M16.271,154.668V96.653h7.735V88.918H12.4a3.868,3.868,0,0,0-3.868,3.867v65.751A3.868,3.868,0,0,0,12.4,162.4H64.617v-7.736Zm0,0" transform="translate(-6.148 -67.645)" fill="#fdbd40"/>
    <path id="Trazado_732630" data-name="Trazado 732630" d="M242.953,179.265H291.3V121.25h-7.735v46.412Zm0,0" transform="translate(-184.485 -92.242)" fill="#fdbd40"/>
    <path id="Trazado_732631" data-name="Trazado 732631" d="M291.3,154.668V96.653h-7.735V88.918h11.6a3.868,3.868,0,0,1,3.868,3.867v65.751a3.868,3.868,0,0,1-3.868,3.868H242.953v-7.736Zm0,0" transform="translate(-184.485 -67.645)" fill="#e9686a"/>
    <g id="Grupo_1013889" data-name="Grupo 1013889" transform="translate(23.659 27.074)">
      <path id="Trazado_732632" data-name="Trazado 732632" d="M202.535,396.082h19.339a7.736,7.736,0,0,1-7.736,7.736h-3.867A7.736,7.736,0,0,1,202.535,396.082Zm0,0" transform="translate(-177.395 -328.398)" fill="#5f79ba"/>
      <path id="Trazado_732633" data-name="Trazado 732633" d="M124.528,124.772a1.966,1.966,0,0,1-.57-.087l-25.14-7.736a1.933,1.933,0,0,1,1.136-3.7l25.141,7.735a1.934,1.934,0,0,1-.567,3.783Zm0,0" transform="translate(-97.453 -113.168)" fill="#5f79ba"/>
      <path id="Trazado_732634" data-name="Trazado 732634" d="M124.528,157.1a1.9,1.9,0,0,1-.57-.087l-25.14-7.735a1.933,1.933,0,0,1,1.136-3.7l25.141,7.735a1.934,1.934,0,0,1-.567,3.783Zm0,0" transform="translate(-97.453 -137.765)" fill="#5f79ba"/>
      <path id="Trazado_732635" data-name="Trazado 732635" d="M124.528,189.436a1.9,1.9,0,0,1-.57-.087l-25.14-7.735a1.933,1.933,0,0,1,1.136-3.7l25.141,7.736a1.934,1.934,0,0,1-.567,3.782Zm0,0" transform="translate(-97.453 -162.362)" fill="#5f79ba"/>
      <path id="Trazado_732636" data-name="Trazado 732636" d="M124.528,221.772a1.966,1.966,0,0,1-.57-.087l-25.14-7.736a1.933,1.933,0,1,1,1.136-3.7l25.141,7.735a1.934,1.934,0,0,1-.567,3.783Zm0,0" transform="translate(-97.453 -186.962)" fill="#5f79ba"/>
      <path id="Trazado_732637" data-name="Trazado 732637" d="M124.528,254.1a1.9,1.9,0,0,1-.57-.087l-25.14-7.735a1.933,1.933,0,0,1,1.136-3.7l25.141,7.735a1.934,1.934,0,0,1-.567,3.783Zm0,0" transform="translate(-97.453 -211.559)" fill="#5f79ba"/>
      <path id="Trazado_732638" data-name="Trazado 732638" d="M124.528,286.436a1.9,1.9,0,0,1-.57-.087l-25.14-7.735a1.933,1.933,0,0,1,1.136-3.7l25.141,7.736a1.934,1.934,0,0,1-.567,3.782Zm0,0" transform="translate(-97.453 -236.156)" fill="#5f79ba"/>
      <path id="Trazado_732639" data-name="Trazado 732639" d="M300.426,144.456l-25.141,7.735V128.985l25.141-7.735Zm0,0" transform="translate(-232.741 -119.316)" fill="#5f79ba"/>
      <path id="Trazado_732640" data-name="Trazado 732640" d="M269.138,254.1a1.934,1.934,0,0,1-.567-3.783l25.14-7.735a1.933,1.933,0,1,1,1.137,3.7l-25.14,7.736a1.9,1.9,0,0,1-.57.087Zm0,0" transform="translate(-226.595 -211.559)" fill="#5f79ba"/>
    </g>
    <path id="Trazado_732641" data-name="Trazado 732641" d="M260.358,7.735a5.808,5.808,0,0,1-5.8-5.8,1.934,1.934,0,0,0-3.868,0,5.807,5.807,0,0,1-5.8,5.8,1.934,1.934,0,0,0,0,3.868,5.808,5.808,0,0,1,5.8,5.8,1.934,1.934,0,0,0,3.868,0,5.808,5.808,0,0,1,5.8-5.8,1.934,1.934,0,1,0,0-3.868Zm-7.735,3.928a9.692,9.692,0,0,0-1.994-1.993,9.72,9.72,0,0,0,1.994-1.994,9.716,9.716,0,0,0,1.993,1.994A9.688,9.688,0,0,0,252.623,11.663Zm0,0" transform="translate(-184.485 0)" fill="#fcf05a"/>
    <path id="Trazado_732642" data-name="Trazado 732642" d="M82.526,411.9a5.808,5.808,0,0,1-5.8-5.8,1.934,1.934,0,0,0-3.868,0,5.808,5.808,0,0,1-5.8,5.8,1.934,1.934,0,0,0,0,3.868,5.808,5.808,0,0,1,5.8,5.8,1.934,1.934,0,0,0,3.868,0,5.808,5.808,0,0,1,5.8-5.8,1.934,1.934,0,0,0,0-3.868Zm-7.736,3.928a9.715,9.715,0,0,0-1.993-1.994,9.688,9.688,0,0,0,1.993-1.993,9.716,9.716,0,0,0,1.994,1.993A9.743,9.743,0,0,0,74.79,415.831Zm0,0" transform="translate(-49.197 -307.476)" fill="#fcf05a"/>
    <path id="Trazado_732643" data-name="Trazado 732643" d="M110.682,56.233h-9.67v-5.8a1.935,1.935,0,0,0-2.622-1.807L58.468,63.833,18.546,48.624a1.934,1.934,0,0,0-2.622,1.807v5.8H6.255a5.808,5.808,0,0,0-5.8,5.8v65.751a5.808,5.808,0,0,0,5.8,5.8H47.061a9.687,9.687,0,0,0,9.474,7.735H60.4a9.686,9.686,0,0,0,9.474-7.735h40.806a5.808,5.808,0,0,0,5.8-5.8V62.035a5.808,5.808,0,0,0-5.8-5.8ZM17.326,114.174l27.335,7.81h-32.6V67.836h3.868v44.479a1.934,1.934,0,0,0,1.4,1.86Zm82.285,0a1.934,1.934,0,0,0,1.4-1.86V67.837h3.868v54.147h-32.6Zm-2.465-3.318L60.4,121.354V67.235l36.744-14ZM19.791,53.238l36.744,14v54.119l-36.744-10.5ZM6.254,129.719a1.936,1.936,0,0,1-1.934-1.934V62.035A1.936,1.936,0,0,1,6.254,60.1h9.67v3.868h-5.8A1.934,1.934,0,0,0,8.188,65.9v58.015a1.934,1.934,0,0,0,1.934,1.934H56.535v3.868ZM60.4,137.454H56.534a5.812,5.812,0,0,1-5.47-3.867H65.872a5.811,5.811,0,0,1-5.471,3.867Zm52.214-9.669a1.936,1.936,0,0,1-1.934,1.934H60.4v-3.868h46.412a1.934,1.934,0,0,0,1.934-1.934V65.9a1.934,1.934,0,0,0-1.934-1.934h-5.8V60.1h9.67a1.936,1.936,0,0,1,1.934,1.934Zm0,0" transform="translate(0 -36.895)"/>
    <path id="Trazado_732644" data-name="Trazado 732644" d="M98.818,116.949l25.14,7.736a1.934,1.934,0,0,0,1.137-3.7l-25.141-7.735a1.933,1.933,0,0,0-1.136,3.7Zm0,0" transform="translate(-73.794 -86.094)"/>
    <path id="Trazado_732645" data-name="Trazado 732645" d="M98.818,149.282l25.14,7.735a1.934,1.934,0,0,0,1.137-3.7l-25.141-7.735a1.933,1.933,0,0,0-1.136,3.7Zm0,0" transform="translate(-73.794 -110.691)"/>
    <path id="Trazado_732646" data-name="Trazado 732646" d="M98.818,181.614l25.14,7.735a1.933,1.933,0,1,0,1.137-3.7l-25.141-7.736a1.933,1.933,0,0,0-1.136,3.7Zm0,0" transform="translate(-73.794 -135.288)"/>
    <path id="Trazado_732647" data-name="Trazado 732647" d="M98.818,213.949l25.14,7.736a1.934,1.934,0,0,0,1.137-3.7l-25.141-7.735a1.933,1.933,0,0,0-1.136,3.7Zm0,0" transform="translate(-73.794 -159.888)"/>
    <path id="Trazado_732648" data-name="Trazado 732648" d="M98.818,246.282l25.14,7.735a1.934,1.934,0,0,0,1.137-3.7l-25.141-7.735a1.933,1.933,0,0,0-1.136,3.7Zm0,0" transform="translate(-73.794 -184.485)"/>
    <path id="Trazado_732649" data-name="Trazado 732649" d="M98.818,278.614l25.14,7.735a1.933,1.933,0,1,0,1.137-3.7l-25.141-7.736a1.933,1.933,0,0,0-1.136,3.7Zm0,0" transform="translate(-73.794 -209.082)"/>
    <path id="Trazado_732650" data-name="Trazado 732650" d="M269.137,147.977a1.924,1.924,0,0,0,.569-.086l25.14-7.736a1.932,1.932,0,0,0,1.365-1.848V115.1a1.933,1.933,0,0,0-2.5-1.848l-25.14,7.735a1.934,1.934,0,0,0-1.365,1.848v23.206A1.935,1.935,0,0,0,269.137,147.977Zm1.934-23.712,21.272-6.545v19.159l-21.272,6.546Zm0,0" transform="translate(-202.933 -86.094)"/>
    <path id="Trazado_732651" data-name="Trazado 732651" d="M293.708,242.586l-25.14,7.735a1.934,1.934,0,1,0,1.137,3.7l25.14-7.735a1.934,1.934,0,1,0-1.137-3.7Zm0,0" transform="translate(-202.933 -184.484)"/>
    <path id="Trazado_732652" data-name="Trazado 732652" d="M244.887,11.6a5.808,5.808,0,0,1,5.8,5.8,1.934,1.934,0,0,0,3.868,0,5.808,5.808,0,0,1,5.8-5.8,1.934,1.934,0,0,0,0-3.868,5.808,5.808,0,0,1-5.8-5.8,1.934,1.934,0,0,0-3.868,0,5.808,5.808,0,0,1-5.8,5.8,1.934,1.934,0,0,0,0,3.868Zm7.736-3.928a9.714,9.714,0,0,0,1.993,1.994,9.687,9.687,0,0,0-1.993,1.993,9.693,9.693,0,0,0-1.994-1.993A9.744,9.744,0,0,0,252.622,7.675Zm0,0" transform="translate(-184.485 0)"/>
    <path id="Trazado_732653" data-name="Trazado 732653" d="M72.856,406.1a5.808,5.808,0,0,1-5.8,5.8,1.934,1.934,0,0,0,0,3.868,5.808,5.808,0,0,1,5.8,5.8,1.934,1.934,0,0,0,3.868,0,5.808,5.808,0,0,1,5.8-5.8,1.934,1.934,0,0,0,0-3.868,5.808,5.808,0,0,1-5.8-5.8,1.934,1.934,0,0,0-3.868,0Zm3.928,7.736a9.716,9.716,0,0,0-1.994,1.993,9.689,9.689,0,0,0-1.993-1.993,9.714,9.714,0,0,0,1.993-1.994A9.742,9.742,0,0,0,76.784,413.837Zm0,0" transform="translate(-49.197 -307.476)"/>
  </g>
</svg>
