<svg xmlns="http://www.w3.org/2000/svg" xmlns:xlink="http://www.w3.org/1999/xlink" width="610" height="238" viewBox="0 0 610 238">
  <defs>
    <clipPath id="clip-path">
      <path id="path2577" d="M0-682.665H61.041v61.041H0Z" transform="translate(0 682.665)"/>
    </clipPath>
  </defs>
  <g id="Grupo_1013904" data-name="Grupo 1013904" transform="translate(-495 -15706)">
    <path id="Trazado_732732" data-name="Trazado 732732" d="M0,0H120V103H0Z" transform="translate(985 15841)" fill="#ffa031"/>
    <path id="Trazado_732739" data-name="Trazado 732739" d="M0,0H130V103H0Z" transform="translate(495 15706)" fill="#ffa031"/>
    <path id="Trazado_732718" data-name="Trazado 732718" d="M0,0H589.764V218.329H0Z" transform="translate(505 15716)" fill="#dee4f0"/>
    <g id="g2573" transform="translate(538.959 15736.999)">
      <g id="g2575" clip-path="url(#clip-path)">
        <g id="g2581" transform="translate(17.444 0.904)">
          <path id="path2583" d="M-345.346,0H-378.23a1.027,1.027,0,0,0-1.027,1.027V50.644l39,3.349h2.676a1.031,1.031,0,0,0,1.027-1.027V9.229l-6.012-3.39Z" transform="translate(379.258)" fill="#f9f7f8" fill-rule="evenodd"/>
        </g>
        <g id="g2585" transform="translate(42.1 51.538)">
          <path id="path2587" d="M-73.026,0h-4.562L-80.2,4.019l2.609,4.589h4.562l1.994-4.3Z" transform="translate(80.197)" fill="#a1d4ff" fill-rule="evenodd"/>
        </g>
        <g id="g2589" transform="translate(11.473 5.058)">
          <path id="path2591" d="M-60.81-473.345v-46.481h-4.944a1.031,1.031,0,0,0-1.027,1.027v45.906l.162-.054a6.624,6.624,0,0,1,1.051-.368,6.864,6.864,0,0,1,1.068-.03Z" transform="translate(66.781 519.825)" fill="#a1d4ff" fill-rule="evenodd"/>
        </g>
        <g id="g2593" transform="translate(10.73 51.537)">
          <path id="path2595" d="M-346.03-.011h-30.955a6.863,6.863,0,0,0-1.068.03l-1.956,4.273,1.956,4.273a2.092,2.092,0,0,0,.362.03h31.661Z" transform="translate(380.008 0.013)" fill="#ffe07d" fill-rule="evenodd"/>
        </g>
        <g id="g2597" transform="translate(51.356 0.894)">
          <path id="path2599" d="M-89.511-93.988l-8.79-9.229v8.2a1.031,1.031,0,0,0,1.027,1.027Z" transform="translate(98.301 103.217)" fill="#a1d4ff" fill-rule="evenodd"/>
        </g>
        <path id="path2601" d="M164.685-579.55H161.7V-626.1h2.986Z" transform="translate(-147.241 631.16)" fill="#80b4fb"/>
        <g id="g2603" transform="translate(5.484 51.569)">
          <path id="path2605" d="M-73.308-43.534l0-4.275a6.619,6.619,0,0,0-1.051.368l-.162.054-4.7,1.585-1.288,2.265,1.288,2.267,4.863,1.639a6.637,6.637,0,0,0,1.051.368Z" transform="translate(80.506 47.809)" fill="#ffe5c1" fill-rule="evenodd"/>
        </g>
        <g id="g2607" transform="translate(0.896 53.576)">
          <path id="path2609" d="M-59.846,0l-5.36,1.811c-.341.129-.517.291-.517.453v.007c0,.159.176.321.517.449l5.36,1.811Z" transform="translate(65.723)" fill="#375e7d" fill-rule="evenodd"/>
        </g>
        <g id="g2611" transform="translate(49.271 51.538)">
          <path id="path2613" d="M-73.026-69.828v-5.106a1.755,1.755,0,0,0-1.751-1.751H-80.2v8.607h5.42a1.755,1.755,0,0,0,1.751-1.751" transform="translate(80.197 76.685)" fill="#eb5468" fill-rule="evenodd"/>
        </g>
        <g id="g2615" transform="translate(43.441 0.904)">
          <path id="path2617" d="M-170.109-93.988h-7.762a1.031,1.031,0,0,1-1.027-1.027v-8.2h-7.914c13.44,18.36,9.861,44.585,7.556,50.644h3.694a1.755,1.755,0,0,1,1.751,1.751v1.6h2.676a1.031,1.031,0,0,0,1.027-1.027Z" transform="translate(186.813 103.217)" fill="#dddaec" fill-rule="evenodd"/>
        </g>
        <g id="g2619" transform="translate(35.435 13.306)">
          <path id="path2621" d="M-54.133-60.747h-5.316s2.815-5.1,3.278-5.671.916-.216.956.291-.02,7.878-.02,7.878" transform="translate(59.449 66.712)" fill="none" stroke="#000" stroke-linecap="round" stroke-linejoin="round" stroke-miterlimit="10" stroke-width="2"/>
        </g>
        <g id="g2623" transform="translate(23.181 10.059)">
          <path id="path2625" d="M0-36.686H3.275L6.522-29.9l5.169-10.392h10" transform="translate(0 40.288)" fill="none" stroke="#000" stroke-linecap="round" stroke-linejoin="round" stroke-miterlimit="10" stroke-width="2"/>
        </g>
        <g id="g2627" transform="translate(42.504 27.132)">
          <path id="path2629" d="M0,0,2.291,6.461" fill="none" stroke="#000" stroke-linecap="round" stroke-linejoin="round" stroke-miterlimit="10" stroke-width="2"/>
        </g>
        <g id="g2631" transform="translate(43.917 27.132)">
          <path id="path2633" d="M-32.176,0l-3.16,9.141" transform="translate(35.336)" fill="none" stroke="#000" stroke-linecap="round" stroke-linejoin="round" stroke-miterlimit="10" stroke-width="2"/>
        </g>
        <g id="g2635" transform="translate(28.176 27.132)">
          <path id="path2637" d="M-46.907,0l-4.606,6.107" transform="translate(51.513)" fill="none" stroke="#000" stroke-linecap="round" stroke-linejoin="round" stroke-miterlimit="10" stroke-width="2"/>
        </g>
        <g id="g2639" transform="translate(28.409 27.132)">
          <path id="path2641" d="M0,0,4.714,6.215" fill="none" stroke="#000" stroke-linecap="round" stroke-linejoin="round" stroke-miterlimit="10" stroke-width="2"/>
        </g>
        <g id="g2643" transform="translate(37.655 27.686)">
          <path id="path2645" d="M0,0V4.839" fill="none" stroke="#000" stroke-linecap="round" stroke-linejoin="round" stroke-miterlimit="10" stroke-width="2"/>
        </g>
        <g id="g2647" transform="translate(35.208 30.076)">
          <path id="path2649" d="M-49.281,0H-54.12" transform="translate(54.12)" fill="none" stroke="#000" stroke-linecap="round" stroke-linejoin="round" stroke-miterlimit="10" stroke-width="2"/>
        </g>
        <g id="g2651" transform="translate(23.183 24.993)">
          <path id="path2653" d="M-22.145-106.893a7.42,7.42,0,0,1,0-10.5" transform="translate(24.32 117.389)" fill="none" stroke="#000" stroke-linecap="round" stroke-linejoin="round" stroke-miterlimit="10" stroke-width="2"/>
        </g>
        <g id="g2655" transform="translate(49.493 24.993)">
          <path id="path2657" d="M0-106.893a7.42,7.42,0,0,0,0-10.5" transform="translate(0 117.389)" fill="none" stroke="#000" stroke-linecap="round" stroke-linejoin="round" stroke-miterlimit="10" stroke-width="2"/>
        </g>
        <g id="g2659" transform="translate(24.692 40.484)">
          <path id="path2661" d="M-63.185,0h-6.2" transform="translate(69.389)" fill="none" stroke="#000" stroke-linecap="round" stroke-linejoin="round" stroke-miterlimit="10" stroke-width="2"/>
        </g>
        <g id="g2663" transform="translate(24.692 44.33)">
          <path id="path2665" d="M-63.185,0h-6.2" transform="translate(69.389)" fill="none" stroke="#000" stroke-linecap="round" stroke-linejoin="round" stroke-miterlimit="10" stroke-width="2"/>
        </g>
        <g id="g2667" transform="translate(51.356 0.894)">
          <path id="path2669" d="M-89.511-93.988h-7.762A1.031,1.031,0,0,1-98.3-95.015v-8.2" transform="translate(98.301 103.217)" fill="none" stroke="#000" stroke-linecap="round" stroke-linejoin="round" stroke-miterlimit="10" stroke-width="2"/>
        </g>
        <g id="g2671" transform="translate(51.356 0.894)">
          <path id="path2673" d="M-89.511-93.988h-7.762A1.031,1.031,0,0,1-98.3-95.015v-8.2" transform="translate(98.301 103.217)" fill="none" stroke="#000" stroke-linecap="round" stroke-linejoin="round" stroke-miterlimit="10" stroke-width="2"/>
        </g>
        <g id="g2675" transform="translate(17.444 0.894)">
          <path id="path2677" d="M0-515.744v-49.617a1.027,1.027,0,0,1,1.027-1.027H33.912l8.79,9.229v43.736a1.031,1.031,0,0,1-1.027,1.027H39" transform="translate(0 566.388)" fill="none" stroke="#000" stroke-linecap="round" stroke-linejoin="round" stroke-miterlimit="10" stroke-width="2"/>
        </g>
        <g id="g2679" transform="translate(11.473 5.058)">
          <path id="path2681" d="M0-240.527v-22.592a1.031,1.031,0,0,1,1.027-1.027H5.971M0-217.213V-236.4" transform="translate(0 264.146)" fill="none" stroke="#000" stroke-linecap="round" stroke-linejoin="round" stroke-miterlimit="10" stroke-width="2"/>
        </g>
        <g id="g2683" transform="translate(12.686 56.881)">
          <path id="path2685" d="M-326.109-.31H-357.77a2.092,2.092,0,0,1-.362-.03V2.894a2.092,2.092,0,0,0,.362.03h31.661Z" transform="translate(358.131 0.34)" fill="#ffd064" fill-rule="evenodd"/>
        </g>
        <path id="path2687" d="M504.57-46.183h-4.562v3.234h4.562Z" transform="translate(-455.299 103.094)" fill="#80b4fb" fill-rule="evenodd"/>
        <g id="g2689" transform="translate(49.271 55.161)">
          <path id="path2691" d="M-73.026-32.935v-3.234a1.755,1.755,0,0,1-1.751,1.751H-80.2v3.234h5.42a1.755,1.755,0,0,0,1.751-1.751" transform="translate(80.197 36.169)" fill="#e5384f" fill-rule="evenodd"/>
        </g>
        <g id="g2693" transform="translate(6.772 54.874)">
          <path id="path2695" d="M-60.225-53.378v-3.234a6.623,6.623,0,0,1-1.051-.368l-4.863-1.639v3.234l4.863,1.639a6.611,6.611,0,0,0,1.051.368" transform="translate(66.139 58.62)" fill="#fed1a3" fill-rule="evenodd"/>
        </g>
        <g id="g2697" transform="translate(0.896 54.225)">
          <path id="path2699" d="M-59.846-39.544v-3.234l-1.919-.649-3.44,1.163c-.341.128-.517.291-.517.453v.007c0,.159.176.321.517.449Z" transform="translate(65.723 43.427)" fill="#2b4d66" fill-rule="evenodd"/>
        </g>
        <g id="g2701" transform="translate(0.896 51.537)">
          <path id="path2703" d="M-385.163-.012h15.974a1.755,1.755,0,0,1,1.75,1.751V6.845a1.755,1.755,0,0,1-1.75,1.751h-40.937a3.528,3.528,0,0,1-2.119-.4l-10.222-3.45c-.689-.26-.689-.649,0-.909l10.222-3.45a3.528,3.528,0,0,1,2.119-.4h21.03" transform="translate(422.985 0.013)" fill="none" stroke="#000" stroke-linecap="round" stroke-linejoin="round" stroke-miterlimit="10" stroke-width="2"/>
        </g>
        <g id="g2705" transform="translate(49.271 51.538)">
          <path id="path2707" d="M0,0V8.607" fill="none" stroke="#000" stroke-linecap="round" stroke-linejoin="round" stroke-miterlimit="10" stroke-width="2"/>
        </g>
        <g id="g2709" transform="translate(12.686 51.569)">
          <path id="path2711" d="M0,0V8.547" fill="none" stroke="#000" stroke-linecap="round" stroke-linejoin="round" stroke-miterlimit="10" stroke-width="2"/>
        </g>
        <g id="g2713" transform="translate(6.772 53.576)">
          <path id="path2715" d="M0-46.151v-4.532" transform="translate(0 50.683)" fill="none" stroke="#000" stroke-linecap="round" stroke-linejoin="round" stroke-miterlimit="10" stroke-width="2"/>
        </g>
        <g id="g2717" transform="translate(44.709 51.538)">
          <path id="path2719" d="M0,0V8.607" fill="none" stroke="#000" stroke-linecap="round" stroke-linejoin="round" stroke-miterlimit="10" stroke-width="2"/>
        </g>
      </g>
    </g>
    <path id="Trazado_732733" data-name="Trazado 732733" d="M10.008,9.68a7.026,7.026,0,0,1-.523,2.84,4.388,4.388,0,0,1-1.469,1.863l2.031,1.594-1.023.945-2.4-1.906a4.88,4.88,0,0,1-1.187.141,4.347,4.347,0,0,1-2.383-.66,4.363,4.363,0,0,1-1.613-1.883,6.752,6.752,0,0,1-.59-2.832v-.82a6.953,6.953,0,0,1,.57-2.9A4.347,4.347,0,0,1,3.035,4.137a4.329,4.329,0,0,1,2.387-.668,4.4,4.4,0,0,1,2.418.664,4.284,4.284,0,0,1,1.605,1.91,7.016,7.016,0,0,1,.563,2.91Zm-1.5-.734a5.162,5.162,0,0,0-.8-3.1,2.666,2.666,0,0,0-2.285-1.09A2.643,2.643,0,0,0,3.191,5.84a5,5,0,0,0-.84,3V9.68a5.147,5.147,0,0,0,.816,3.078,2.646,2.646,0,0,0,2.27,1.125,2.652,2.652,0,0,0,2.25-1.059,5.079,5.079,0,0,0,.82-3.035Zm14.156-.3H16.148V7.383h6.516Zm0,3.242H16.148v-1.25h6.516ZM33.4,15H31.945V5.367l-2.914,1.07V5.125L33.172,3.57H33.4Zm4.336,2.266-.82-.562a3.77,3.77,0,0,0,.766-2.109v-1.3h1.414v1.133A3.559,3.559,0,0,1,38.707,16,3.7,3.7,0,0,1,37.734,17.266ZM47.672,6.594a2.641,2.641,0,0,1-.449,1.516,3.057,3.057,0,0,1-1.215,1.039,3.26,3.26,0,0,1,1.41,1.117,2.811,2.811,0,0,1,.52,1.664,2.972,2.972,0,0,1-1,2.352,4.367,4.367,0,0,1-5.25,0A2.986,2.986,0,0,1,40.7,11.93a2.9,2.9,0,0,1,.5-1.664A3.136,3.136,0,0,1,42.6,9.141a2.981,2.981,0,0,1-1.2-1.039,2.679,2.679,0,0,1-.437-1.508,2.94,2.94,0,0,1,.922-2.281,3.915,3.915,0,0,1,4.855,0A2.934,2.934,0,0,1,47.672,6.594Zm-1.18,5.3a2.1,2.1,0,0,0-.605-1.555,2.147,2.147,0,0,0-1.582-.6A2.034,2.034,0,0,0,42.148,11.9a2.019,2.019,0,0,0,.574,1.523,2.565,2.565,0,0,0,3.191,0A2.014,2.014,0,0,0,46.492,11.9ZM44.32,4.656a1.865,1.865,0,0,0-1.379.527,1.937,1.937,0,0,0-.527,1.434,1.928,1.928,0,0,0,.52,1.4,2.064,2.064,0,0,0,2.773,0,1.928,1.928,0,0,0,.52-1.4A1.929,1.929,0,0,0,45.688,5.2,1.839,1.839,0,0,0,44.32,4.656Zm6.1,4.641L51,3.625h5.828V4.961h-4.6l-.344,3.1a3.671,3.671,0,0,1,1.9-.492A3.138,3.138,0,0,1,56.25,8.6a4.026,4.026,0,0,1,.914,2.777,3.886,3.886,0,0,1-.949,2.77,3.46,3.46,0,0,1-2.652,1.012A3.6,3.6,0,0,1,51.1,14.32a3.337,3.337,0,0,1-1.086-2.312h1.367a2.3,2.3,0,0,0,.7,1.473,2.162,2.162,0,0,0,1.484.5,1.95,1.95,0,0,0,1.582-.687,2.874,2.874,0,0,0,.574-1.9A2.638,2.638,0,0,0,55.1,9.559a2.113,2.113,0,0,0-1.652-.691,2.383,2.383,0,0,0-1.484.414l-.383.313Zm13.859.7a3.536,3.536,0,0,1-1.082.867,2.936,2.936,0,0,1-1.379.328,3.031,3.031,0,0,1-1.715-.484,3.149,3.149,0,0,1-1.129-1.363,4.648,4.648,0,0,1-.4-1.941,4.735,4.735,0,0,1,.434-2.055,3.185,3.185,0,0,1,1.23-1.4A3.509,3.509,0,0,1,62.1,3.469a3.177,3.177,0,0,1,2.66,1.262,5.5,5.5,0,0,1,.973,3.441v.422q0,3.32-1.312,4.848a5.043,5.043,0,0,1-3.961,1.566H60.18V13.781h.3a3.979,3.979,0,0,0,2.75-.932A4,4,0,0,0,64.281,10Zm-2.227,0a2.232,2.232,0,0,0,1.34-.445,2.625,2.625,0,0,0,.895-1.1V7.875a3.977,3.977,0,0,0-.617-2.312,1.887,1.887,0,0,0-3.094-.16A3.013,3.013,0,0,0,60,7.328a3.136,3.136,0,0,0,.559,1.918A1.769,1.769,0,0,0,62.055,10Zm12.617-.367,1.875-3.086h1.688l-2.766,4.18L78.32,15H76.648L74.7,11.836,72.742,15h-1.68l2.852-4.273-2.766-4.18H72.82Zm10.789,4.141h5.391V15h-6.9V3.625h1.508ZM99.133,9.633l1.875-3.086H102.7l-2.766,4.18L102.781,15h-1.672l-1.953-3.164L97.2,15h-1.68l2.852-4.273-2.766-4.18h1.672ZM117.156,15h-1.508V9.742h-5.734V15h-1.5V3.625h1.5V8.516h5.734V3.625h1.508Zm4.666-5h-.848V4.381l-1.7.624V4.24l2.415-.907h.132Zm2.529,1.322-.478-.328a2.2,2.2,0,0,0,.447-1.23V9h.825v.661a2.076,2.076,0,0,1-.226.921A2.155,2.155,0,0,1,124.351,11.322Zm2.16-4.648.337-3.308h3.4v.779h-2.684l-.2,1.809a2.141,2.141,0,0,1,1.107-.287,1.831,1.831,0,0,1,1.44.6,2.349,2.349,0,0,1,.533,1.62A2.267,2.267,0,0,1,129.89,9.5a2.018,2.018,0,0,1-1.547.59,2.1,2.1,0,0,1-1.435-.488,1.946,1.946,0,0,1-.633-1.349h.8a1.339,1.339,0,0,0,.406.859,1.261,1.261,0,0,0,.866.289,1.138,1.138,0,0,0,.923-.4,1.677,1.677,0,0,0,.335-1.107,1.539,1.539,0,0,0-.362-1.069,1.232,1.232,0,0,0-.964-.4,1.39,1.39,0,0,0-.866.242l-.223.182Z" transform="translate(705 15752)" fill="#12263f"/>
    <path id="Trazado_732734" data-name="Trazado 732734" d="M10.008,9.68a7.026,7.026,0,0,1-.523,2.84,4.388,4.388,0,0,1-1.469,1.863l2.031,1.594-1.023.945-2.4-1.906a4.88,4.88,0,0,1-1.187.141,4.347,4.347,0,0,1-2.383-.66,4.363,4.363,0,0,1-1.613-1.883,6.752,6.752,0,0,1-.59-2.832v-.82a6.953,6.953,0,0,1,.57-2.9A4.347,4.347,0,0,1,3.035,4.137a4.329,4.329,0,0,1,2.387-.668,4.4,4.4,0,0,1,2.418.664,4.284,4.284,0,0,1,1.605,1.91,7.016,7.016,0,0,1,.563,2.91Zm-1.5-.734a5.162,5.162,0,0,0-.8-3.1,2.666,2.666,0,0,0-2.285-1.09A2.643,2.643,0,0,0,3.191,5.84a5,5,0,0,0-.84,3V9.68a5.147,5.147,0,0,0,.816,3.078,2.646,2.646,0,0,0,2.27,1.125,2.652,2.652,0,0,0,2.25-1.059,5.079,5.079,0,0,0,.82-3.035Zm14.156-.3H16.148V7.383h6.516Zm0,3.242H16.148v-1.25h6.516ZM33.4,15H31.945V5.367l-2.914,1.07V5.125L33.172,3.57H33.4Zm4.336,2.266-.82-.562a3.77,3.77,0,0,0,.766-2.109v-1.3h1.414v1.133A3.559,3.559,0,0,1,38.707,16,3.7,3.7,0,0,1,37.734,17.266ZM47.672,6.594a2.641,2.641,0,0,1-.449,1.516,3.057,3.057,0,0,1-1.215,1.039,3.26,3.26,0,0,1,1.41,1.117,2.811,2.811,0,0,1,.52,1.664,2.972,2.972,0,0,1-1,2.352,4.367,4.367,0,0,1-5.25,0A2.986,2.986,0,0,1,40.7,11.93a2.9,2.9,0,0,1,.5-1.664A3.136,3.136,0,0,1,42.6,9.141a2.981,2.981,0,0,1-1.2-1.039,2.679,2.679,0,0,1-.437-1.508,2.94,2.94,0,0,1,.922-2.281,3.915,3.915,0,0,1,4.855,0A2.934,2.934,0,0,1,47.672,6.594Zm-1.18,5.3a2.1,2.1,0,0,0-.605-1.555,2.147,2.147,0,0,0-1.582-.6A2.034,2.034,0,0,0,42.148,11.9a2.019,2.019,0,0,0,.574,1.523,2.565,2.565,0,0,0,3.191,0A2.014,2.014,0,0,0,46.492,11.9ZM44.32,4.656a1.865,1.865,0,0,0-1.379.527,1.937,1.937,0,0,0-.527,1.434,1.928,1.928,0,0,0,.52,1.4,2.064,2.064,0,0,0,2.773,0,1.928,1.928,0,0,0,.52-1.4A1.929,1.929,0,0,0,45.688,5.2,1.839,1.839,0,0,0,44.32,4.656Zm6.1,4.641L51,3.625h5.828V4.961h-4.6l-.344,3.1a3.671,3.671,0,0,1,1.9-.492A3.138,3.138,0,0,1,56.25,8.6a4.026,4.026,0,0,1,.914,2.777,3.886,3.886,0,0,1-.949,2.77,3.46,3.46,0,0,1-2.652,1.012A3.6,3.6,0,0,1,51.1,14.32a3.337,3.337,0,0,1-1.086-2.312h1.367a2.3,2.3,0,0,0,.7,1.473,2.162,2.162,0,0,0,1.484.5,1.95,1.95,0,0,0,1.582-.687,2.874,2.874,0,0,0,.574-1.9A2.638,2.638,0,0,0,55.1,9.559a2.113,2.113,0,0,0-1.652-.691,2.383,2.383,0,0,0-1.484.414l-.383.313Zm13.859.7a3.536,3.536,0,0,1-1.082.867,2.936,2.936,0,0,1-1.379.328,3.031,3.031,0,0,1-1.715-.484,3.149,3.149,0,0,1-1.129-1.363,4.648,4.648,0,0,1-.4-1.941,4.735,4.735,0,0,1,.434-2.055,3.185,3.185,0,0,1,1.23-1.4A3.509,3.509,0,0,1,62.1,3.469a3.177,3.177,0,0,1,2.66,1.262,5.5,5.5,0,0,1,.973,3.441v.422q0,3.32-1.312,4.848a5.043,5.043,0,0,1-3.961,1.566H60.18V13.781h.3a3.979,3.979,0,0,0,2.75-.932A4,4,0,0,0,64.281,10Zm-2.227,0a2.232,2.232,0,0,0,1.34-.445,2.625,2.625,0,0,0,.895-1.1V7.875a3.977,3.977,0,0,0-.617-2.312,1.887,1.887,0,0,0-3.094-.16A3.013,3.013,0,0,0,60,7.328a3.136,3.136,0,0,0,.559,1.918A1.769,1.769,0,0,0,62.055,10Zm12.617-.367,1.875-3.086h1.688l-2.766,4.18L78.32,15H76.648L74.7,11.836,72.742,15h-1.68l2.852-4.273-2.766-4.18H72.82ZM85.68,8.609h1.086a2.387,2.387,0,0,0,1.609-.539,1.8,1.8,0,0,0,.586-1.414,1.764,1.764,0,0,0-1.992-2,2.072,2.072,0,0,0-1.5.535,1.873,1.873,0,0,0-.559,1.418H83.469a2.9,2.9,0,0,1,.988-2.246,3.6,3.6,0,0,1,2.512-.895,3.558,3.558,0,0,1,2.523.852,3.076,3.076,0,0,1,.914,2.367,2.5,2.5,0,0,1-.48,1.438,2.9,2.9,0,0,1-1.309,1.039,2.8,2.8,0,0,1,1.449.984,2.734,2.734,0,0,1,.512,1.68,3.1,3.1,0,0,1-1,2.43,3.745,3.745,0,0,1-2.6.9,3.844,3.844,0,0,1-2.605-.867,2.877,2.877,0,0,1-1-2.289H84.82a1.859,1.859,0,0,0,.586,1.438,2.229,2.229,0,0,0,1.57.539,2.187,2.187,0,0,0,1.6-.547,2.108,2.108,0,0,0,.555-1.57,1.912,1.912,0,0,0-.609-1.523,2.655,2.655,0,0,0-1.758-.547H85.68ZM99.508,9.633l1.875-3.086h1.688l-2.766,4.18L103.156,15h-1.672l-1.953-3.164L97.578,15H95.9l2.852-4.273-2.766-4.18h1.672Zm9,.75a12.079,12.079,0,0,1,.473-3.391,9.849,9.849,0,0,1,1.41-2.953,6,6,0,0,1,1.945-1.875l.3.953a6.222,6.222,0,0,0-1.871,2.672,11.583,11.583,0,0,0-.8,4.023l-.008.664a11.643,11.643,0,0,0,1.1,5.234,6.252,6.252,0,0,0,1.578,2.078l-.3.883a6.192,6.192,0,0,1-1.984-1.937A10.859,10.859,0,0,1,108.508,10.383Zm12.508-.234a6.61,6.61,0,0,1-.867,3.773,3.6,3.6,0,0,1-5.406.027,6.274,6.274,0,0,1-.906-3.605V8.414a6.463,6.463,0,0,1,.867-3.727,3.668,3.668,0,0,1,5.422-.043,6.237,6.237,0,0,1,.891,3.629ZM119.57,8.172a5.3,5.3,0,0,0-.516-2.676,1.775,1.775,0,0,0-1.633-.84,1.751,1.751,0,0,0-1.617.836,5.171,5.171,0,0,0-.523,2.57v2.313a5.381,5.381,0,0,0,.535,2.723,1.771,1.771,0,0,0,1.621.879,1.747,1.747,0,0,0,1.59-.828,5.186,5.186,0,0,0,.543-2.609Zm3.4,9.094-.82-.562a3.77,3.77,0,0,0,.766-2.109v-1.3h1.414v1.133A3.559,3.559,0,0,1,123.941,16,3.7,3.7,0,0,1,122.969,17.266ZM130.758,15H129.3V5.367l-2.914,1.07V5.125l4.141-1.555h.227Zm4.9-5.7.578-5.672h5.828V4.961h-4.6l-.344,3.1a3.671,3.671,0,0,1,1.9-.492A3.138,3.138,0,0,1,141.484,8.6a4.026,4.026,0,0,1,.914,2.777,3.886,3.886,0,0,1-.949,2.77,3.46,3.46,0,0,1-2.652,1.012,3.6,3.6,0,0,1-2.461-.836,3.337,3.337,0,0,1-1.086-2.312h1.367a2.3,2.3,0,0,0,.7,1.473,2.162,2.162,0,0,0,1.484.5,1.95,1.95,0,0,0,1.582-.687,2.874,2.874,0,0,0,.574-1.9,2.638,2.638,0,0,0-.621-1.832,2.113,2.113,0,0,0-1.652-.691,2.383,2.383,0,0,0-1.484.414l-.383.313Zm11.8,1.164A12.084,12.084,0,0,1,147,13.8a9.876,9.876,0,0,1-1.4,2.949,6.127,6.127,0,0,1-1.973,1.922l-.3-.883a6.281,6.281,0,0,0,1.934-2.863,12.387,12.387,0,0,0,.746-4.309v-.25a12.861,12.861,0,0,0-.344-3.051,10.3,10.3,0,0,0-.957-2.527,5.838,5.838,0,0,0-1.379-1.742l.3-.883A6.1,6.1,0,0,1,145.6,4.07,9.9,9.9,0,0,1,147,7.016,12.364,12.364,0,0,1,147.461,10.461ZM151.916,10h-.848V4.381l-1.7.624V4.24l2.415-.907h.132Zm2.529,1.322-.478-.328a2.2,2.2,0,0,0,.447-1.23V9h.825v.661a2.076,2.076,0,0,1-.226.921A2.155,2.155,0,0,1,154.445,11.322Zm2.16-4.648.337-3.308h3.4v.779h-2.684l-.2,1.809a2.141,2.141,0,0,1,1.107-.287,1.831,1.831,0,0,1,1.44.6,2.349,2.349,0,0,1,.533,1.62,2.267,2.267,0,0,1-.554,1.615,2.018,2.018,0,0,1-1.547.59A2.1,2.1,0,0,1,157,9.6a1.946,1.946,0,0,1-.633-1.349h.8a1.339,1.339,0,0,0,.406.859,1.261,1.261,0,0,0,.866.289,1.138,1.138,0,0,0,.923-.4,1.677,1.677,0,0,0,.335-1.107,1.539,1.539,0,0,0-.362-1.069,1.232,1.232,0,0,0-.964-.4,1.39,1.39,0,0,0-.866.242l-.223.182Z" transform="translate(705 15813)" fill="#12263f"/>
    <path id="Trazado_732735" data-name="Trazado 732735" d="M10.008,9.68a7.026,7.026,0,0,1-.523,2.84,4.388,4.388,0,0,1-1.469,1.863l2.031,1.594-1.023.945-2.4-1.906a4.88,4.88,0,0,1-1.187.141,4.347,4.347,0,0,1-2.383-.66,4.363,4.363,0,0,1-1.613-1.883,6.752,6.752,0,0,1-.59-2.832v-.82a6.953,6.953,0,0,1,.57-2.9A4.347,4.347,0,0,1,3.035,4.137a4.329,4.329,0,0,1,2.387-.668,4.4,4.4,0,0,1,2.418.664,4.284,4.284,0,0,1,1.605,1.91,7.016,7.016,0,0,1,.563,2.91Zm-1.5-.734a5.162,5.162,0,0,0-.8-3.1,2.666,2.666,0,0,0-2.285-1.09A2.643,2.643,0,0,0,3.191,5.84a5,5,0,0,0-.84,3V9.68a5.147,5.147,0,0,0,.816,3.078,2.646,2.646,0,0,0,2.27,1.125,2.652,2.652,0,0,0,2.25-1.059,5.079,5.079,0,0,0,.82-3.035Zm14.156-.3H16.148V7.383h6.516Zm0,3.242H16.148v-1.25h6.516Zm13.117-1.734a6.61,6.61,0,0,1-.867,3.773A3.084,3.084,0,0,1,32.2,15.156a3.107,3.107,0,0,1-2.7-1.207,6.274,6.274,0,0,1-.906-3.605V8.414a6.463,6.463,0,0,1,.867-3.727,3.108,3.108,0,0,1,2.719-1.219,3.136,3.136,0,0,1,2.7,1.176,6.237,6.237,0,0,1,.891,3.629ZM34.336,8.172A5.3,5.3,0,0,0,33.82,5.5a1.775,1.775,0,0,0-1.633-.84,1.751,1.751,0,0,0-1.617.836,5.171,5.171,0,0,0-.523,2.57v2.313a5.381,5.381,0,0,0,.535,2.723,1.771,1.771,0,0,0,1.621.879,1.747,1.747,0,0,0,1.59-.828,5.186,5.186,0,0,0,.543-2.609Zm3.4,9.094-.82-.562a3.77,3.77,0,0,0,.766-2.109v-1.3h1.414v1.133A3.559,3.559,0,0,1,38.707,16,3.7,3.7,0,0,1,37.734,17.266Zm5.141-8.656h1.086A2.387,2.387,0,0,0,45.57,8.07a1.8,1.8,0,0,0,.586-1.414,1.764,1.764,0,0,0-1.992-2,2.072,2.072,0,0,0-1.5.535,1.873,1.873,0,0,0-.559,1.418H40.664a2.9,2.9,0,0,1,.988-2.246,3.6,3.6,0,0,1,2.512-.895,3.558,3.558,0,0,1,2.523.852A3.076,3.076,0,0,1,47.6,6.688a2.5,2.5,0,0,1-.48,1.438,2.9,2.9,0,0,1-1.309,1.039,2.8,2.8,0,0,1,1.449.984,2.734,2.734,0,0,1,.512,1.68,3.1,3.1,0,0,1-1,2.43,3.745,3.745,0,0,1-2.6.9,3.844,3.844,0,0,1-2.605-.867,2.877,2.877,0,0,1-1-2.289h1.453a1.859,1.859,0,0,0,.586,1.438,2.229,2.229,0,0,0,1.57.539,2.187,2.187,0,0,0,1.6-.547,2.108,2.108,0,0,0,.555-1.57,1.912,1.912,0,0,0-.609-1.523,2.655,2.655,0,0,0-1.758-.547H42.875ZM57.211,15H49.758V13.961L53.7,9.586A9.355,9.355,0,0,0,54.9,7.973a2.693,2.693,0,0,0,.332-1.285A2.041,2.041,0,0,0,54.7,5.227a1.885,1.885,0,0,0-1.437-.57,2.232,2.232,0,0,0-1.676.613,2.343,2.343,0,0,0-.6,1.707H49.539a3.355,3.355,0,0,1,1.012-2.539,3.751,3.751,0,0,1,2.707-.969,3.6,3.6,0,0,1,2.508.832,2.838,2.838,0,0,1,.922,2.215q0,1.68-2.141,4L51.5,13.82h5.711Zm7.633-3.82h1.578v1.18H64.844V15H63.391V12.359h-5.18v-.852L63.3,3.625h1.539Zm-4.992,0h3.539V5.6l-.172.313Zm15.008-1.031a6.61,6.61,0,0,1-.867,3.773,3.6,3.6,0,0,1-5.406.027,6.274,6.274,0,0,1-.906-3.605V8.414a6.463,6.463,0,0,1,.867-3.727,3.668,3.668,0,0,1,5.422-.043,6.237,6.237,0,0,1,.891,3.629ZM73.414,8.172A5.3,5.3,0,0,0,72.9,5.5a1.775,1.775,0,0,0-1.633-.84,1.751,1.751,0,0,0-1.617.836,5.171,5.171,0,0,0-.523,2.57v2.313A5.381,5.381,0,0,0,69.66,13.1a1.771,1.771,0,0,0,1.621.879,1.747,1.747,0,0,0,1.59-.828,5.186,5.186,0,0,0,.543-2.609Z" transform="translate(705 15864)" fill="#12263f"/>
    <path id="Trazado_732736" data-name="Trazado 732736" d="M3.321,6.547l.039.938A3.122,3.122,0,0,1,5.868,6.391,2.417,2.417,0,0,1,8.282,7.75a3.2,3.2,0,0,1,1.1-.984,3.242,3.242,0,0,1,1.6-.375q2.781,0,2.828,2.945V15H12.36V9.422a1.941,1.941,0,0,0-.414-1.355,1.823,1.823,0,0,0-1.391-.449A1.916,1.916,0,0,0,9.22,8.1,1.949,1.949,0,0,0,8.6,9.391V15H7.149V9.461a1.613,1.613,0,0,0-1.8-1.844A1.934,1.934,0,0,0,3.4,8.828V15H1.954V6.547Zm13.348-.275H17.3a1.392,1.392,0,0,0,.939-.314,1.051,1.051,0,0,0,.342-.825,1.029,1.029,0,0,0-1.162-1.167,1.209,1.209,0,0,0-.873.312,1.092,1.092,0,0,0-.326.827h-.843a1.693,1.693,0,0,1,.576-1.31,2.1,2.1,0,0,1,1.465-.522,2.075,2.075,0,0,1,1.472.5,1.794,1.794,0,0,1,.533,1.381,1.456,1.456,0,0,1-.28.838,1.692,1.692,0,0,1-.763.606,1.631,1.631,0,0,1,.845.574,1.6,1.6,0,0,1,.3.98,1.81,1.81,0,0,1-.583,1.417,2.184,2.184,0,0,1-1.517.524,2.242,2.242,0,0,1-1.52-.506A1.678,1.678,0,0,1,15.32,8.25h.848a1.084,1.084,0,0,0,.342.838,1.3,1.3,0,0,0,.916.314,1.276,1.276,0,0,0,.934-.319,1.229,1.229,0,0,0,.324-.916,1.116,1.116,0,0,0-.355-.889A1.549,1.549,0,0,0,17.3,6.96h-.633Z" transform="translate(801 15848.5)" fill="#12263f"/>
    <path id="Trazado_732737" data-name="Trazado 732737" d="M18.891,12.758a1.064,1.064,0,0,0-.441-.91,4.249,4.249,0,0,0-1.539-.559,7.277,7.277,0,0,1-1.742-.562,2.479,2.479,0,0,1-.953-.781,1.869,1.869,0,0,1-.309-1.078,2.193,2.193,0,0,1,.879-1.758,3.432,3.432,0,0,1,2.246-.719,3.532,3.532,0,0,1,2.332.742,2.357,2.357,0,0,1,.895,1.9H18.8a1.3,1.3,0,0,0-.5-1.023,1.888,1.888,0,0,0-1.27-.43,1.976,1.976,0,0,0-1.234.344,1.082,1.082,0,0,0-.445.9.877.877,0,0,0,.414.789,5.1,5.1,0,0,0,1.5.508,7.8,7.8,0,0,1,1.754.578,2.558,2.558,0,0,1,1,.809,1.988,1.988,0,0,1,.324,1.152,2.163,2.163,0,0,1-.906,1.816,3.8,3.8,0,0,1-2.352.684,4.257,4.257,0,0,1-1.8-.359,2.922,2.922,0,0,1-1.223-1,2.42,2.42,0,0,1-.441-1.395h1.445a1.5,1.5,0,0,0,.582,1.152,2.258,2.258,0,0,0,1.434.426,2.331,2.331,0,0,0,1.316-.332A1.02,1.02,0,0,0,18.891,12.758Z" transform="translate(794 15879.5)" fill="#12263f"/>
    <path id="Trazado_732738" data-name="Trazado 732738" d="M0,0H42.242" transform="translate(790.5 15874.5)" fill="none" stroke="#12263f" stroke-width="1"/>
  </g>
</svg>
