<svg xmlns="http://www.w3.org/2000/svg" xmlns:xlink="http://www.w3.org/1999/xlink" width="820" height="282" viewBox="0 0 820 282">
  <defs>
    <clipPath id="clip-path">
      <path id="path2577" d="M0-682.665H61.041v61.041H0Z" transform="translate(0 682.665)"/>
    </clipPath>
  </defs>
  <g id="Grupo_1016001" data-name="Grupo 1016001" transform="translate(-390 -19019)">
    <path id="Trazado_737918" data-name="Trazado 737918" d="M0,0H120V103H0Z" transform="translate(1090 19198)" fill="#ffa031"/>
    <path id="Trazado_737919" data-name="Trazado 737919" d="M0,0H130V103H0Z" transform="translate(390 19019)" fill="#ffa031"/>
    <path id="Trazado_732656" data-name="Trazado 732656" d="M0,0H799.764V262.329H0Z" transform="translate(400 19029)" fill="#dee4f0"/>
    <path id="Trazado_737920" data-name="Trazado 737920" d="M7.336,16.328l1.625,1.563L7.6,18.969l-2-1.906a6.181,6.181,0,0,1-.992.086,3.449,3.449,0,0,1-2.676-1.156A4.819,4.819,0,0,1,.828,12.93a10.216,10.216,0,0,1,.184-2.262,7.828,7.828,0,0,1,.844-2.4A5.75,5.75,0,0,1,3.367,6.453a4.623,4.623,0,0,1,3-.984A3.863,3.863,0,0,1,8.328,6,3.452,3.452,0,0,1,9.641,7.488a5.546,5.546,0,0,1,.531,2.2,8.283,8.283,0,0,1-.047,1.344l-.094.68A6.409,6.409,0,0,1,7.336,16.328ZM8.2,11l.07-.828a4.889,4.889,0,0,0-.152-1.578A2.051,2.051,0,0,0,7.445,7.5a1.935,1.935,0,0,0-1.18-.4A2.747,2.747,0,0,0,3.793,8.465a7.731,7.731,0,0,0-1.051,3.973A4.911,4.911,0,0,0,2.9,14.031a2.108,2.108,0,0,0,.668,1.105,1.881,1.881,0,0,0,1.16.4A2.625,2.625,0,0,0,6.9,14.594a5.708,5.708,0,0,0,1.2-2.9Zm7.547,1.375a11.9,11.9,0,0,1,.484-3.426,9.4,9.4,0,0,1,1.422-2.9,5.646,5.646,0,0,1,1.984-1.793l.375,1.109a5.8,5.8,0,0,0-1.785,2.551,11.424,11.424,0,0,0-.746,3.926l-.008.672a12.42,12.42,0,0,0,.668,4.223,6.224,6.224,0,0,0,1.871,2.824l-.375,1.055a5.655,5.655,0,0,1-1.988-1.8,9.4,9.4,0,0,1-1.422-2.9A12.374,12.374,0,0,1,15.742,12.375ZM22.414,17H20.563L22.648,5H24.5Zm2.469.977H23.352L29.836,5.625h1.539Zm10.875-3.32q.133-.773-1-1.074A12.763,12.763,0,0,1,33.2,13.1a2.138,2.138,0,0,1-1.555-2.094,2.378,2.378,0,0,1,1.035-1.887,3.794,3.794,0,0,1,2.387-.73,3.266,3.266,0,0,1,2.191.758,2.417,2.417,0,0,1,.832,1.945l-1.836-.008a1.185,1.185,0,0,0-.32-.918,1.307,1.307,0,0,0-.922-.348,1.817,1.817,0,0,0-1.059.3,1.135,1.135,0,0,0-.512.8q-.109.711,1,.988a10.976,10.976,0,0,1,1.641.512,2.14,2.14,0,0,1,1.492,2.125,2.336,2.336,0,0,1-.527,1.4,3.077,3.077,0,0,1-1.309.914A4.477,4.477,0,0,1,34,17.156a3.437,3.437,0,0,1-2.293-.8,2.512,2.512,0,0,1-.895-2.023l1.789.008a1.361,1.361,0,0,0,.406,1.031,1.57,1.57,0,0,0,1.07.359,2.126,2.126,0,0,0,1.145-.285A1.094,1.094,0,0,0,35.758,14.656Zm2.352,5.977-.289-1.078a8.584,8.584,0,0,0,2.594-3.473,15.816,15.816,0,0,0,1.141-5.176l.031-.969q0-3.289-1.531-4.633L40.5,4.258a4.8,4.8,0,0,1,1.535,1.535,7.271,7.271,0,0,1,.945,2.348,11.348,11.348,0,0,1,.277,2.773,14.4,14.4,0,0,1-.77,4.223,11.3,11.3,0,0,1-1.832,3.453A6.9,6.9,0,0,1,38.109,20.633Zm17.914-9.711H49.289V9.328h6.734Zm0,3.3H49.289v-1.57h6.734Z" transform="translate(580 19075)" fill="#12263f"/>
    <path id="Trazado_737921" data-name="Trazado 737921" d="M7.336,16.328l1.625,1.563L7.6,18.969l-2-1.906a6.181,6.181,0,0,1-.992.086,3.449,3.449,0,0,1-2.676-1.156A4.819,4.819,0,0,1,.828,12.93a10.216,10.216,0,0,1,.184-2.262,7.828,7.828,0,0,1,.844-2.4A5.75,5.75,0,0,1,3.367,6.453a4.623,4.623,0,0,1,3-.984A3.863,3.863,0,0,1,8.328,6,3.452,3.452,0,0,1,9.641,7.488a5.546,5.546,0,0,1,.531,2.2,8.283,8.283,0,0,1-.047,1.344l-.094.68A6.409,6.409,0,0,1,7.336,16.328ZM8.2,11l.07-.828a4.889,4.889,0,0,0-.152-1.578A2.051,2.051,0,0,0,7.445,7.5a1.935,1.935,0,0,0-1.18-.4A2.747,2.747,0,0,0,3.793,8.465a7.731,7.731,0,0,0-1.051,3.973A4.911,4.911,0,0,0,2.9,14.031a2.108,2.108,0,0,0,.668,1.105,1.881,1.881,0,0,0,1.16.4A2.625,2.625,0,0,0,6.9,14.594a5.708,5.708,0,0,0,1.2-2.9Zm7.547,1.375a11.9,11.9,0,0,1,.484-3.426,9.4,9.4,0,0,1,1.422-2.9,5.646,5.646,0,0,1,1.984-1.793l.375,1.109a5.8,5.8,0,0,0-1.785,2.551,11.424,11.424,0,0,0-.746,3.926l-.008.672a12.42,12.42,0,0,0,.668,4.223,6.224,6.224,0,0,0,1.871,2.824l-.375,1.055a5.655,5.655,0,0,1-1.988-1.8,9.4,9.4,0,0,1-1.422-2.9A12.374,12.374,0,0,1,15.742,12.375ZM22.414,17H20.563L22.648,5H24.5Zm2.469.977H23.352L29.836,5.625h1.539Zm10.875-3.32q.133-.773-1-1.074A12.763,12.763,0,0,1,33.2,13.1a2.138,2.138,0,0,1-1.555-2.094,2.378,2.378,0,0,1,1.035-1.887,3.794,3.794,0,0,1,2.387-.73,3.266,3.266,0,0,1,2.191.758,2.417,2.417,0,0,1,.832,1.945l-1.836-.008a1.185,1.185,0,0,0-.32-.918,1.307,1.307,0,0,0-.922-.348,1.817,1.817,0,0,0-1.059.3,1.135,1.135,0,0,0-.512.8q-.109.711,1,.988a10.976,10.976,0,0,1,1.641.512,2.14,2.14,0,0,1,1.492,2.125,2.336,2.336,0,0,1-.527,1.4,3.077,3.077,0,0,1-1.309.914A4.477,4.477,0,0,1,34,17.156a3.437,3.437,0,0,1-2.293-.8,2.512,2.512,0,0,1-.895-2.023l1.789.008a1.361,1.361,0,0,0,.406,1.031,1.57,1.57,0,0,0,1.07.359,2.126,2.126,0,0,0,1.145-.285A1.094,1.094,0,0,0,35.758,14.656ZM43.3,12.5a11.755,11.755,0,0,1-.477,3.348,9.485,9.485,0,0,1-1.445,2.938,5.66,5.66,0,0,1-2.023,1.832l-.375-1.055a6,6,0,0,0,1.855-2.77,12.3,12.3,0,0,0,.684-4.254v-.18A12.484,12.484,0,0,0,40.922,8.4a6.98,6.98,0,0,0-1.7-2.863l-.242-.219.375-1.062a5.6,5.6,0,0,1,1.938,1.719,9.326,9.326,0,0,1,1.438,2.762,11.5,11.5,0,0,1,.563,3.152Zm12.859-1.578H49.422V9.328h6.734Zm0,3.3H49.422v-1.57h6.734Z" transform="translate(580 19153)" fill="#12263f"/>
    <path id="Trazado_737922" data-name="Trazado 737922" d="M7.336,16.328l1.625,1.563L7.6,18.969l-2-1.906a6.181,6.181,0,0,1-.992.086,3.449,3.449,0,0,1-2.676-1.156A4.819,4.819,0,0,1,.828,12.93a10.216,10.216,0,0,1,.184-2.262,7.828,7.828,0,0,1,.844-2.4A5.75,5.75,0,0,1,3.367,6.453a4.623,4.623,0,0,1,3-.984A3.863,3.863,0,0,1,8.328,6,3.452,3.452,0,0,1,9.641,7.488a5.546,5.546,0,0,1,.531,2.2,8.283,8.283,0,0,1-.047,1.344l-.094.68A6.409,6.409,0,0,1,7.336,16.328ZM8.2,11l.07-.828a4.889,4.889,0,0,0-.152-1.578A2.051,2.051,0,0,0,7.445,7.5a1.935,1.935,0,0,0-1.18-.4A2.747,2.747,0,0,0,3.793,8.465a7.731,7.731,0,0,0-1.051,3.973A4.911,4.911,0,0,0,2.9,14.031a2.108,2.108,0,0,0,.668,1.105,1.881,1.881,0,0,0,1.16.4A2.625,2.625,0,0,0,6.9,14.594a5.708,5.708,0,0,0,1.2-2.9Zm7.547,1.375a11.9,11.9,0,0,1,.484-3.426,9.4,9.4,0,0,1,1.422-2.9,5.646,5.646,0,0,1,1.984-1.793l.375,1.109a5.8,5.8,0,0,0-1.785,2.551,11.424,11.424,0,0,0-.746,3.926l-.008.672a12.42,12.42,0,0,0,.668,4.223,6.224,6.224,0,0,0,1.871,2.824l-.375,1.055a5.655,5.655,0,0,1-1.988-1.8,9.4,9.4,0,0,1-1.422-2.9A12.374,12.374,0,0,1,15.742,12.375ZM22.414,17H20.563L22.648,5H24.5Zm2.469.977H23.352L29.836,5.625h1.539Zm10.875-3.32q.133-.773-1-1.074A12.763,12.763,0,0,1,33.2,13.1a2.138,2.138,0,0,1-1.555-2.094,2.378,2.378,0,0,1,1.035-1.887,3.794,3.794,0,0,1,2.387-.73,3.266,3.266,0,0,1,2.191.758,2.417,2.417,0,0,1,.832,1.945l-1.836-.008a1.185,1.185,0,0,0-.32-.918,1.307,1.307,0,0,0-.922-.348,1.817,1.817,0,0,0-1.059.3,1.135,1.135,0,0,0-.512.8q-.109.711,1,.988a10.976,10.976,0,0,1,1.641.512,2.14,2.14,0,0,1,1.492,2.125,2.336,2.336,0,0,1-.527,1.4,3.077,3.077,0,0,1-1.309.914A4.477,4.477,0,0,1,34,17.156a3.437,3.437,0,0,1-2.293-.8,2.512,2.512,0,0,1-.895-2.023l1.789.008a1.361,1.361,0,0,0,.406,1.031,1.57,1.57,0,0,0,1.07.359,2.126,2.126,0,0,0,1.145-.285A1.094,1.094,0,0,0,35.758,14.656ZM43.3,12.5a11.755,11.755,0,0,1-.477,3.348,9.485,9.485,0,0,1-1.445,2.938,5.66,5.66,0,0,1-2.023,1.832l-.375-1.055a6,6,0,0,0,1.855-2.77,12.3,12.3,0,0,0,.684-4.254v-.18A12.484,12.484,0,0,0,40.922,8.4a6.98,6.98,0,0,0-1.7-2.863l-.242-.219.375-1.062a5.6,5.6,0,0,1,1.938,1.719,9.326,9.326,0,0,1,1.438,2.762,11.5,11.5,0,0,1,.563,3.152Zm12.859-1.578H49.422V9.328h6.734Zm0,3.3H49.422v-1.57h6.734Z" transform="translate(580 19240)" fill="#12263f"/>
    <path id="Trazado_737923" data-name="Trazado 737923" d="M18.859,17H16.992L13.438,8.852,12.023,17h-1.93L12.07,5.625h1.867l3.555,8.18,1.422-8.18h1.922Zm7.375-.836a3.066,3.066,0,0,1-2.406.992,2.355,2.355,0,0,1-1.363-.406,2.113,2.113,0,0,1-.773-1.09,3.99,3.99,0,0,1-.137-1.645l.914-5.469H24.32L23.4,14.039a2.911,2.911,0,0,0-.008.563.95.95,0,0,0,.977,1.008,2.236,2.236,0,0,0,1.984-.984l1.063-6.078h1.852L27.8,17H26.07ZM26.922,5h2.227L26.68,7.367l-1.609,0Zm5.984,3.539-.164.9a3.259,3.259,0,0,1,2.5-1.047,2.427,2.427,0,0,1,1.324.367,1.738,1.738,0,0,1,.715.93,3.406,3.406,0,0,1,2.688-1.3,2.195,2.195,0,0,1,1.832.848,3.235,3.235,0,0,1,.449,2.285L41.336,17H39.484l.922-5.492a2.879,2.879,0,0,0,.008-.633,1.034,1.034,0,0,0-1.156-.937A1.949,1.949,0,0,0,37.445,11.2l-.023.172L36.453,17H34.594l.922-5.469a2.806,2.806,0,0,0,.008-.625,1.043,1.043,0,0,0-1.156-.969,2.042,2.042,0,0,0-1.734.93L31.563,17H29.711l1.461-8.453Zm14.219,8.617a3.541,3.541,0,0,1-1.91-.555,3.156,3.156,0,0,1-1.2-1.453,4.32,4.32,0,0,1-.293-2.055l.023-.32a5.657,5.657,0,0,1,.754-2.316A4.3,4.3,0,0,1,46.031,8.9a3.713,3.713,0,0,1,1.984-.508,2.769,2.769,0,0,1,2.379,1.182,4.337,4.337,0,0,1,.6,3l-.109.814h-5.32A2.3,2.3,0,0,0,45.969,15a1.61,1.61,0,0,0,1.313.631,2.847,2.847,0,0,0,2.2-1.039l.938.984a3.563,3.563,0,0,1-1.4,1.176A4.166,4.166,0,0,1,47.125,17.156Zm.789-7.25q-1.469-.047-2.2,2.078l3.508.008.031-.164a2.451,2.451,0,0,0,.008-.7,1.438,1.438,0,0,0-.437-.875A1.385,1.385,0,0,0,47.914,9.906Zm9.32.375a3.411,3.411,0,0,0-.727-.078,2.168,2.168,0,0,0-1.937,1.008L53.555,17H51.7l1.461-8.453,1.758-.008-.187.961a2.419,2.419,0,0,1,2-1.125,3.039,3.039,0,0,1,.711.117Zm.164,2.461a5.562,5.562,0,0,1,.73-2.258,4.335,4.335,0,0,1,1.535-1.57,3.794,3.794,0,0,1,2.078-.523,3.139,3.139,0,0,1,3.027,2.117,4.887,4.887,0,0,1,.254,2.172,5.665,5.665,0,0,1-.73,2.375,4.318,4.318,0,0,1-1.547,1.582,3.848,3.848,0,0,1-2.09.52,3.136,3.136,0,0,1-3.016-2.105,4.824,4.824,0,0,1-.266-2.145Zm1.82,1.07a2.232,2.232,0,0,0,.434,1.316,1.387,1.387,0,0,0,1.1.52,1.948,1.948,0,0,0,1.6-.734,3.863,3.863,0,0,0,.809-2.07l.047-.766a2.7,2.7,0,0,0-.4-1.57,1.4,1.4,0,0,0-1.156-.6,2.024,2.024,0,0,0-1.875,1.164,4.349,4.349,0,0,0-.523,1.672A6.541,6.541,0,0,0,59.219,13.813Zm11-1.047a6.7,6.7,0,0,1,.7-2.344,3.968,3.968,0,0,1,1.352-1.551,3.121,3.121,0,0,1,1.789-.488,2.5,2.5,0,0,1,2.016.961L76.891,5H78.75L76.664,17H75.008l.125-.875a2.946,2.946,0,0,1-2.312,1.039,2.325,2.325,0,0,1-1.887-.91,3.975,3.975,0,0,1-.762-2.379,6.316,6.316,0,0,1,.023-.945Zm1.8.727a2.6,2.6,0,0,0,.3,1.539,1.2,1.2,0,0,0,1.059.586,2.175,2.175,0,0,0,1.852-1.039l.633-3.633a1.445,1.445,0,0,0-1.422-1.008,1.9,1.9,0,0,0-1.711.938A5,5,0,0,0,72.016,13.492Zm10.461,3.664a3.541,3.541,0,0,1-1.91-.555,3.156,3.156,0,0,1-1.2-1.453,4.32,4.32,0,0,1-.293-2.055l.023-.32a5.657,5.657,0,0,1,.754-2.316A4.3,4.3,0,0,1,81.383,8.9a3.713,3.713,0,0,1,1.984-.508,2.769,2.769,0,0,1,2.379,1.182,4.337,4.337,0,0,1,.6,3l-.109.814h-5.32A2.3,2.3,0,0,0,81.32,15a1.61,1.61,0,0,0,1.313.631,2.847,2.847,0,0,0,2.2-1.039l.938.984a3.563,3.563,0,0,1-1.4,1.176A4.166,4.166,0,0,1,82.477,17.156Zm.789-7.25q-1.469-.047-2.2,2.078l3.508.008.031-.164a2.451,2.451,0,0,0,.008-.7,1.437,1.437,0,0,0-.437-.875A1.385,1.385,0,0,0,83.266,9.906Zm15.648,2.9a6.959,6.959,0,0,1-.676,2.3,3.92,3.92,0,0,1-1.32,1.559,3.052,3.052,0,0,1-1.793.5,2.652,2.652,0,0,1-2.078-.937l-.758,4.023H90.43l2.031-11.7,1.7-.008-.141.875a2.927,2.927,0,0,1,2.3-1.023,2.477,2.477,0,0,1,1.4.41,2.531,2.531,0,0,1,.91,1.168,4.734,4.734,0,0,1,.34,1.7A10.386,10.386,0,0,1,98.914,12.8Zm-1.828-.164.039-.57a2.769,2.769,0,0,0-.332-1.562,1.217,1.217,0,0,0-1.066-.57,2.155,2.155,0,0,0-1.812.961l-.656,3.773a1.432,1.432,0,0,0,1.43.977,1.888,1.888,0,0,0,1.551-.719A4.5,4.5,0,0,0,97.086,12.641Zm6.555,4.516a3.541,3.541,0,0,1-1.91-.555,3.156,3.156,0,0,1-1.2-1.453,4.32,4.32,0,0,1-.293-2.055l.023-.32a5.657,5.657,0,0,1,.754-2.316A4.3,4.3,0,0,1,102.547,8.9a3.713,3.713,0,0,1,1.984-.508,2.769,2.769,0,0,1,2.379,1.182,4.337,4.337,0,0,1,.6,3l-.109.814h-5.32A2.3,2.3,0,0,0,102.484,15a1.61,1.61,0,0,0,1.313.631,2.847,2.847,0,0,0,2.2-1.039l.938.984a3.563,3.563,0,0,1-1.4,1.176A4.166,4.166,0,0,1,103.641,17.156Zm.789-7.25q-1.469-.047-2.2,2.078l3.508.008.031-.164a2.451,2.451,0,0,0,.008-.7,1.437,1.437,0,0,0-.437-.875A1.385,1.385,0,0,0,104.43,9.906Zm9.32.375a3.411,3.411,0,0,0-.727-.078,2.168,2.168,0,0,0-1.937,1.008L110.07,17h-1.852l1.461-8.453,1.758-.008-.187.961a2.419,2.419,0,0,1,2-1.125,3.039,3.039,0,0,1,.711.117Zm5.055,4.375q.133-.773-1-1.074a12.763,12.763,0,0,1-1.551-.48,2.138,2.138,0,0,1-1.555-2.094,2.378,2.378,0,0,1,1.035-1.887,3.794,3.794,0,0,1,2.387-.73,3.266,3.266,0,0,1,2.191.758,2.417,2.417,0,0,1,.832,1.945l-1.836-.008a1.185,1.185,0,0,0-.32-.918,1.307,1.307,0,0,0-.922-.348,1.817,1.817,0,0,0-1.059.3,1.135,1.135,0,0,0-.512.8q-.109.711,1,.988a10.976,10.976,0,0,1,1.641.512,2.14,2.14,0,0,1,1.492,2.125,2.336,2.336,0,0,1-.527,1.4,3.077,3.077,0,0,1-1.309.914,4.477,4.477,0,0,1-1.742.293,3.437,3.437,0,0,1-2.293-.8,2.512,2.512,0,0,1-.895-2.023l1.789.008a1.361,1.361,0,0,0,.406,1.031,1.57,1.57,0,0,0,1.07.359,2.126,2.126,0,0,0,1.145-.285A1.094,1.094,0,0,0,118.8,14.656Zm3.477-1.914a5.562,5.562,0,0,1,.73-2.258,4.335,4.335,0,0,1,1.535-1.57,3.794,3.794,0,0,1,2.078-.523,3.139,3.139,0,0,1,3.027,2.117,4.886,4.886,0,0,1,.254,2.172,5.665,5.665,0,0,1-.73,2.375,4.318,4.318,0,0,1-1.547,1.582,3.848,3.848,0,0,1-2.09.52,3.136,3.136,0,0,1-3.016-2.105,4.824,4.824,0,0,1-.266-2.145Zm1.82,1.07a2.232,2.232,0,0,0,.434,1.316,1.387,1.387,0,0,0,1.1.52,1.948,1.948,0,0,0,1.6-.734,3.863,3.863,0,0,0,.809-2.07l.047-.766a2.7,2.7,0,0,0-.4-1.57,1.4,1.4,0,0,0-1.156-.6,2.024,2.024,0,0,0-1.875,1.164,4.349,4.349,0,0,0-.523,1.672A6.541,6.541,0,0,0,124.1,13.813Zm9.828-5.273-.187.992a3.226,3.226,0,0,1,2.508-1.141,2.044,2.044,0,0,1,1.758.848,3.383,3.383,0,0,1,.422,2.3L137.516,17h-1.852l.922-5.484a2.806,2.806,0,0,0,.008-.625,1,1,0,0,0-1.109-.953,2.25,2.25,0,0,0-1.852,1.039L132.578,17h-1.852l1.461-8.453ZM144.484,17a2.507,2.507,0,0,1-.078-.789,3.134,3.134,0,0,1-2.258.945,2.589,2.589,0,0,1-1.824-.707,2.18,2.18,0,0,1-.676-1.754,2.588,2.588,0,0,1,1.156-2.1,5.034,5.034,0,0,1,2.938-.766l1.2.016.109-.578a1.744,1.744,0,0,0,0-.57,1.017,1.017,0,0,0-1.117-.867,1.685,1.685,0,0,0-1.043.3,1.3,1.3,0,0,0-.551.848l-1.852.016a2.318,2.318,0,0,1,.555-1.371,3.289,3.289,0,0,1,1.328-.918,4.5,4.5,0,0,1,1.75-.312,2.956,2.956,0,0,1,2.156.832,2.466,2.466,0,0,1,.641,2.074l-.648,3.961-.062.7a2.5,2.5,0,0,0,.117.9L146.32,17Zm-1.906-1.359a2.041,2.041,0,0,0,1.086-.27,2.862,2.862,0,0,0,.852-.738l.289-1.6-.883-.008a3.1,3.1,0,0,0-1.672.395,1.447,1.447,0,0,0-.711,1.082.957.957,0,0,0,.23.824A1.127,1.127,0,0,0,142.578,15.641Zm10.414-.984q.133-.773-1-1.074a12.763,12.763,0,0,1-1.551-.48,2.138,2.138,0,0,1-1.555-2.094,2.378,2.378,0,0,1,1.035-1.887,3.794,3.794,0,0,1,2.387-.73,3.266,3.266,0,0,1,2.191.758,2.417,2.417,0,0,1,.832,1.945l-1.836-.008a1.185,1.185,0,0,0-.32-.918,1.307,1.307,0,0,0-.922-.348,1.817,1.817,0,0,0-1.059.3,1.136,1.136,0,0,0-.512.8q-.109.711,1,.988a10.976,10.976,0,0,1,1.641.512,2.14,2.14,0,0,1,1.492,2.125,2.336,2.336,0,0,1-.527,1.4,3.077,3.077,0,0,1-1.309.914,4.477,4.477,0,0,1-1.742.293,3.437,3.437,0,0,1-2.293-.8,2.512,2.512,0,0,1-.895-2.023l1.789.008a1.361,1.361,0,0,0,.406,1.031,1.57,1.57,0,0,0,1.07.359,2.126,2.126,0,0,0,1.145-.285A1.094,1.094,0,0,0,152.992,14.656Zm10.844-3.344,1.992-2.766h2.164l-3.234,4.25,1.883,4.2H164.7l-1.18-2.883L161.445,17h-2.156l3.336-4.375L160.8,8.547h1.938Zm8.367,1.453a6.7,6.7,0,0,1,.7-2.344,3.968,3.968,0,0,1,1.352-1.551,3.121,3.121,0,0,1,1.789-.488,2.5,2.5,0,0,1,2.016.961L178.875,5h1.859l-2.086,12h-1.656l.125-.875a2.946,2.946,0,0,1-2.312,1.039,2.325,2.325,0,0,1-1.887-.91,3.975,3.975,0,0,1-.762-2.379,6.316,6.316,0,0,1,.023-.945Zm1.8.727a2.6,2.6,0,0,0,.3,1.539,1.2,1.2,0,0,0,1.059.586,2.175,2.175,0,0,0,1.852-1.039l.633-3.633a1.445,1.445,0,0,0-1.422-1.008,1.9,1.9,0,0,0-1.711.938A5,5,0,0,0,174,13.492Zm7.078-.75a5.562,5.562,0,0,1,.73-2.258,4.335,4.335,0,0,1,1.535-1.57,3.794,3.794,0,0,1,2.078-.523,3.139,3.139,0,0,1,3.027,2.117,4.886,4.886,0,0,1,.254,2.172,5.665,5.665,0,0,1-.73,2.375,4.318,4.318,0,0,1-1.547,1.582,3.848,3.848,0,0,1-2.09.52,3.136,3.136,0,0,1-3.016-2.105,4.824,4.824,0,0,1-.266-2.145Zm1.82,1.07a2.232,2.232,0,0,0,.434,1.316,1.387,1.387,0,0,0,1.1.52,1.948,1.948,0,0,0,1.6-.734,3.863,3.863,0,0,0,.809-2.07l.047-.766a2.7,2.7,0,0,0-.4-1.57,1.4,1.4,0,0,0-1.156-.6,2.024,2.024,0,0,0-1.875,1.164,4.349,4.349,0,0,0-.523,1.672A6.541,6.541,0,0,0,182.9,13.813Zm10.8-7.32-.359,2.055h1.445l-.242,1.406h-1.453l-.8,4.734a1.618,1.618,0,0,0-.008.352q.047.508.625.531a3.53,3.53,0,0,0,.656-.07l-.125,1.484a4.245,4.245,0,0,1-1.164.164,1.729,1.729,0,0,1-1.449-.66,2.389,2.389,0,0,1-.379-1.707l.789-4.828h-1.352l.25-1.406h1.344l.359-2.055ZM199.813,17a2.507,2.507,0,0,1-.078-.789,3.134,3.134,0,0,1-2.258.945,2.589,2.589,0,0,1-1.824-.707,2.18,2.18,0,0,1-.676-1.754,2.588,2.588,0,0,1,1.156-2.1,5.034,5.034,0,0,1,2.938-.766l1.2.016.109-.578a1.744,1.744,0,0,0,0-.57,1.017,1.017,0,0,0-1.117-.867,1.685,1.685,0,0,0-1.043.3,1.3,1.3,0,0,0-.551.848l-1.852.016a2.318,2.318,0,0,1,.555-1.371A3.289,3.289,0,0,1,197.7,8.7a4.5,4.5,0,0,1,1.75-.312,2.956,2.956,0,0,1,2.156.832,2.466,2.466,0,0,1,.641,2.074l-.648,3.961-.062.7a2.5,2.5,0,0,0,.117.9l-.008.141Zm-1.906-1.359a2.041,2.041,0,0,0,1.086-.27,2.862,2.862,0,0,0,.852-.738l.289-1.6-.883-.008a3.1,3.1,0,0,0-1.672.395,1.447,1.447,0,0,0-.711,1.082.957.957,0,0,0,.23.824A1.127,1.127,0,0,0,197.906,15.641Zm9.047.008a1.81,1.81,0,0,0,1.828-1.437l1.75-.008a2.993,2.993,0,0,1-.605,1.523,3.52,3.52,0,0,1-1.332,1.07,3.7,3.7,0,0,1-1.7.359,3.184,3.184,0,0,1-1.852-.562,3.11,3.11,0,0,1-1.117-1.512,4.836,4.836,0,0,1-.234-2.152l.023-.273a5.532,5.532,0,0,1,.715-2.223,4.173,4.173,0,0,1,1.5-1.535,3.766,3.766,0,0,1,2.047-.508,2.957,2.957,0,0,1,2.2.91,3.215,3.215,0,0,1,.82,2.285h-1.734a1.889,1.889,0,0,0-.355-1.187,1.3,1.3,0,0,0-1.027-.492,1.876,1.876,0,0,0-1.711.922,5.146,5.146,0,0,0-.672,2.688Q205.445,15.617,206.953,15.648ZM213.438,17h-1.852l1.469-8.453h1.852ZM213.32,6.383a1.044,1.044,0,0,1,.281-.734,1.03,1.03,0,0,1,.758-.32.985.985,0,0,1,.754.277.96.96,0,0,1,.3.715.988.988,0,0,1-.293.734,1.074,1.074,0,0,1-.746.3,1,1,0,0,1-.75-.27A.929.929,0,0,1,213.32,6.383Zm2.633,6.359a5.562,5.562,0,0,1,.73-2.258,4.335,4.335,0,0,1,1.535-1.57,3.794,3.794,0,0,1,2.078-.523,3.139,3.139,0,0,1,3.027,2.117,4.886,4.886,0,0,1,.254,2.172,5.665,5.665,0,0,1-.73,2.375,4.318,4.318,0,0,1-1.547,1.582,3.848,3.848,0,0,1-2.09.52,3.136,3.136,0,0,1-3.016-2.105,4.824,4.824,0,0,1-.266-2.145Zm1.82,1.07a2.232,2.232,0,0,0,.434,1.316,1.387,1.387,0,0,0,1.1.52,1.948,1.948,0,0,0,1.6-.734,3.863,3.863,0,0,0,.809-2.07l.047-.766a2.7,2.7,0,0,0-.4-1.57,1.4,1.4,0,0,0-1.156-.6,2.024,2.024,0,0,0-1.875,1.164,4.349,4.349,0,0,0-.523,1.672A6.541,6.541,0,0,0,217.773,13.813ZM221.383,5h2.227l-2.469,2.367-1.609,0ZM227.6,8.539l-.187.992a3.226,3.226,0,0,1,2.508-1.141,2.044,2.044,0,0,1,1.758.848,3.383,3.383,0,0,1,.422,2.3L231.188,17h-1.852l.922-5.484a2.806,2.806,0,0,0,.008-.625,1,1,0,0,0-1.109-.953,2.25,2.25,0,0,0-1.852,1.039L226.25,17H224.4l1.461-8.453Zm13.344,2.773,1.992-2.766H245.1l-3.234,4.25L243.75,17h-1.937l-1.18-2.883L238.555,17H236.4l3.336-4.375-1.82-4.078h1.938Zm12.109-4.82L252.7,8.547h1.445L253.9,9.953h-1.453l-.8,4.734a1.618,1.618,0,0,0-.008.352q.047.508.625.531a3.53,3.53,0,0,0,.656-.07l-.125,1.484a4.245,4.245,0,0,1-1.164.164,1.729,1.729,0,0,1-1.449-.66,2.389,2.389,0,0,1-.379-1.707l.789-4.828h-1.352l.25-1.406h1.344l.359-2.055ZM259.172,17a2.508,2.508,0,0,1-.078-.789,3.134,3.134,0,0,1-2.258.945,2.589,2.589,0,0,1-1.824-.707,2.18,2.18,0,0,1-.676-1.754,2.588,2.588,0,0,1,1.156-2.1,5.034,5.034,0,0,1,2.938-.766l1.2.016.109-.578a1.744,1.744,0,0,0,0-.57,1.017,1.017,0,0,0-1.117-.867,1.685,1.685,0,0,0-1.043.3,1.3,1.3,0,0,0-.551.848l-1.852.016a2.318,2.318,0,0,1,.555-1.371,3.289,3.289,0,0,1,1.328-.918,4.5,4.5,0,0,1,1.75-.312,2.956,2.956,0,0,1,2.156.832,2.466,2.466,0,0,1,.641,2.074l-.648,3.961-.062.7a2.5,2.5,0,0,0,.117.9l-.008.141Zm-1.906-1.359a2.041,2.041,0,0,0,1.086-.27,2.861,2.861,0,0,0,.852-.738l.289-1.6-.883-.008a3.1,3.1,0,0,0-1.672.395,1.447,1.447,0,0,0-.711,1.082.957.957,0,0,0,.23.824A1.127,1.127,0,0,0,257.266,15.641Zm10.414-.984q.133-.773-1-1.074a12.762,12.762,0,0,1-1.551-.48,2.138,2.138,0,0,1-1.555-2.094,2.378,2.378,0,0,1,1.035-1.887,3.794,3.794,0,0,1,2.387-.73,3.266,3.266,0,0,1,2.191.758,2.417,2.417,0,0,1,.832,1.945l-1.836-.008a1.185,1.185,0,0,0-.32-.918,1.307,1.307,0,0,0-.922-.348,1.817,1.817,0,0,0-1.059.3,1.135,1.135,0,0,0-.512.8q-.109.711,1,.988a10.975,10.975,0,0,1,1.641.512,2.14,2.14,0,0,1,1.492,2.125,2.336,2.336,0,0,1-.527,1.4,3.077,3.077,0,0,1-1.309.914,4.477,4.477,0,0,1-1.742.293,3.437,3.437,0,0,1-2.293-.8,2.512,2.512,0,0,1-.895-2.023l1.789.008a1.361,1.361,0,0,0,.406,1.031,1.57,1.57,0,0,0,1.07.359,2.126,2.126,0,0,0,1.145-.285A1.094,1.094,0,0,0,267.68,14.656ZM275.734,17a2.508,2.508,0,0,1-.078-.789,3.134,3.134,0,0,1-2.258.945,2.589,2.589,0,0,1-1.824-.707A2.18,2.18,0,0,1,270.9,14.7a2.588,2.588,0,0,1,1.156-2.1,5.034,5.034,0,0,1,2.938-.766l1.2.016.109-.578a1.744,1.744,0,0,0,0-.57,1.017,1.017,0,0,0-1.117-.867,1.685,1.685,0,0,0-1.043.3,1.3,1.3,0,0,0-.551.848l-1.852.016a2.318,2.318,0,0,1,.555-1.371,3.289,3.289,0,0,1,1.328-.918,4.5,4.5,0,0,1,1.75-.312,2.956,2.956,0,0,1,2.156.832,2.466,2.466,0,0,1,.641,2.074l-.648,3.961-.062.7a2.5,2.5,0,0,0,.117.9L277.57,17Zm-1.906-1.359a2.041,2.041,0,0,0,1.086-.27,2.861,2.861,0,0,0,.852-.738l.289-1.6-.883-.008a3.1,3.1,0,0,0-1.672.395,1.447,1.447,0,0,0-.711,1.082.957.957,0,0,0,.23.824A1.127,1.127,0,0,0,273.828,15.641Zm9.711-2.875a6.7,6.7,0,0,1,.7-2.344,3.968,3.968,0,0,1,1.352-1.551,3.121,3.121,0,0,1,1.789-.488,2.5,2.5,0,0,1,2.016.961L290.211,5h1.859l-2.086,12h-1.656l.125-.875a2.946,2.946,0,0,1-2.312,1.039,2.325,2.325,0,0,1-1.887-.91,3.975,3.975,0,0,1-.762-2.379,6.316,6.316,0,0,1,.023-.945Zm1.8.727a2.6,2.6,0,0,0,.3,1.539,1.2,1.2,0,0,0,1.059.586,2.175,2.175,0,0,0,1.852-1.039l.633-3.633a1.445,1.445,0,0,0-1.422-1.008,1.9,1.9,0,0,0-1.711.938A5,5,0,0,0,285.336,13.492ZM295.8,17.156a3.541,3.541,0,0,1-1.91-.555,3.156,3.156,0,0,1-1.2-1.453,4.32,4.32,0,0,1-.293-2.055l.023-.32a5.658,5.658,0,0,1,.754-2.316A4.3,4.3,0,0,1,294.7,8.9a3.713,3.713,0,0,1,1.984-.508,2.769,2.769,0,0,1,2.379,1.182,4.337,4.337,0,0,1,.6,3l-.109.814h-5.32A2.3,2.3,0,0,0,294.641,15a1.61,1.61,0,0,0,1.313.631,2.847,2.847,0,0,0,2.2-1.039l.938.984a3.563,3.563,0,0,1-1.4,1.176A4.166,4.166,0,0,1,295.8,17.156Zm.789-7.25q-1.469-.047-2.2,2.078l3.508.008.031-.164a2.45,2.45,0,0,0,.008-.7,1.437,1.437,0,0,0-.437-.875A1.385,1.385,0,0,0,296.586,9.906Zm13.266.375a3.411,3.411,0,0,0-.727-.078,2.168,2.168,0,0,0-1.937,1.008L306.172,17H304.32l1.461-8.453,1.758-.008-.187.961a2.419,2.419,0,0,1,2-1.125,3.04,3.04,0,0,1,.711.117Zm3.828,6.875a3.541,3.541,0,0,1-1.91-.555,3.156,3.156,0,0,1-1.2-1.453,4.32,4.32,0,0,1-.293-2.055l.023-.32a5.658,5.658,0,0,1,.754-2.316A4.3,4.3,0,0,1,312.586,8.9a3.713,3.713,0,0,1,1.984-.508,2.769,2.769,0,0,1,2.379,1.182,4.337,4.337,0,0,1,.6,3l-.109.814h-5.32A2.3,2.3,0,0,0,312.523,15a1.61,1.61,0,0,0,1.313.631,2.847,2.847,0,0,0,2.2-1.039l.938.984a3.563,3.563,0,0,1-1.4,1.176A4.166,4.166,0,0,1,313.68,17.156Zm.789-7.25q-1.469-.047-2.2,2.078l3.508.008.031-.164a2.45,2.45,0,0,0,.008-.7,1.437,1.437,0,0,0-.437-.875A1.385,1.385,0,0,0,314.469,9.906Zm7.938-3.414-.359,2.055h1.445l-.242,1.406H321.8l-.8,4.734a1.619,1.619,0,0,0-.008.352q.047.508.625.531a3.529,3.529,0,0,0,.656-.07l-.125,1.484a4.245,4.245,0,0,1-1.164.164,1.729,1.729,0,0,1-1.449-.66,2.389,2.389,0,0,1-.379-1.707l.789-4.828h-1.352l.25-1.406h1.344l.359-2.055Zm1.3,6.25a5.562,5.562,0,0,1,.73-2.258,4.335,4.335,0,0,1,1.535-1.57,3.794,3.794,0,0,1,2.078-.523,3.139,3.139,0,0,1,3.027,2.117,4.887,4.887,0,0,1,.254,2.172,5.665,5.665,0,0,1-.73,2.375,4.319,4.319,0,0,1-1.547,1.582,3.848,3.848,0,0,1-2.09.52,3.136,3.136,0,0,1-3.016-2.105,4.824,4.824,0,0,1-.266-2.145Zm1.82,1.07a2.232,2.232,0,0,0,.434,1.316,1.387,1.387,0,0,0,1.1.52,1.948,1.948,0,0,0,1.6-.734,3.863,3.863,0,0,0,.809-2.07l.047-.766a2.7,2.7,0,0,0-.4-1.57,1.4,1.4,0,0,0-1.156-.6,2.024,2.024,0,0,0-1.875,1.164,4.349,4.349,0,0,0-.523,1.672A6.541,6.541,0,0,0,325.531,13.813Zm12.18-3.531a3.411,3.411,0,0,0-.727-.078,2.168,2.168,0,0,0-1.937,1.008L334.031,17H332.18l1.461-8.453,1.758-.008-.187.961a2.419,2.419,0,0,1,2-1.125,3.04,3.04,0,0,1,.711.117Zm3.18-1.742-.187.992a3.226,3.226,0,0,1,2.508-1.141,2.044,2.044,0,0,1,1.758.848,3.383,3.383,0,0,1,.422,2.3L344.477,17h-1.852l.922-5.484a2.806,2.806,0,0,0,.008-.625,1,1,0,0,0-1.109-.953,2.25,2.25,0,0,0-1.852,1.039L339.539,17h-1.852l1.461-8.453Zm5.977,4.2a5.562,5.562,0,0,1,.73-2.258,4.335,4.335,0,0,1,1.535-1.57,3.794,3.794,0,0,1,2.078-.523,3.139,3.139,0,0,1,3.027,2.117,4.887,4.887,0,0,1,.254,2.172,5.665,5.665,0,0,1-.73,2.375,4.319,4.319,0,0,1-1.547,1.582,3.848,3.848,0,0,1-2.09.52,3.136,3.136,0,0,1-3.016-2.105,4.824,4.824,0,0,1-.266-2.145Zm1.82,1.07a2.232,2.232,0,0,0,.434,1.316,1.387,1.387,0,0,0,1.1.52,1.948,1.948,0,0,0,1.6-.734,3.863,3.863,0,0,0,.809-2.07l.047-.766a2.7,2.7,0,0,0-.4-1.57,1.4,1.4,0,0,0-1.156-.6,2.024,2.024,0,0,0-1.875,1.164,4.349,4.349,0,0,0-.523,1.672A6.541,6.541,0,0,0,348.688,13.813Z" transform="translate(645 19066)" fill="#12263f"/>
    <path id="Trazado_737924" data-name="Trazado 737924" d="M48.98,11.359,49.6,5.625h6.109V7.266H51.176l-.312,2.719a3.512,3.512,0,0,1,1.781-.453,3.169,3.169,0,0,1,2.527,1.039,4.118,4.118,0,0,1,.9,2.8,3.79,3.79,0,0,1-1,2.762,3.65,3.65,0,0,1-2.742,1.027,3.822,3.822,0,0,1-2.59-.887,3.206,3.206,0,0,1-1.113-2.34h1.836a2,2,0,0,0,.594,1.27,1.806,1.806,0,0,0,1.266.441,1.632,1.632,0,0,0,1.363-.625,2.7,2.7,0,0,0,.488-1.7,2.384,2.384,0,0,0-.539-1.645,1.885,1.885,0,0,0-1.484-.605,2.074,2.074,0,0,0-1.656.672Zm16,.852a6.2,6.2,0,0,1-.918,3.7,3.242,3.242,0,0,1-2.793,1.246,3.285,3.285,0,0,1-2.777-1.215,5.94,5.94,0,0,1-.957-3.6V10.375a6.11,6.11,0,0,1,.918-3.68,3.827,3.827,0,0,1,5.586-.031,5.924,5.924,0,0,1,.941,3.578Zm-1.9-2.125a4.813,4.813,0,0,0-.437-2.348A1.672,1.672,0,0,0,59.887,7.7a4.448,4.448,0,0,0-.461,2.207v2.578a4.937,4.937,0,0,0,.445,2.375,1.5,1.5,0,0,0,1.4.781,1.469,1.469,0,0,0,1.352-.723,4.645,4.645,0,0,0,.461-2.262Zm10.992,2.125a6.2,6.2,0,0,1-.918,3.7,3.242,3.242,0,0,1-2.793,1.246,3.285,3.285,0,0,1-2.777-1.215,5.94,5.94,0,0,1-.957-3.6V10.375a6.11,6.11,0,0,1,.918-3.68,3.827,3.827,0,0,1,5.586-.031,5.924,5.924,0,0,1,.941,3.578Zm-1.9-2.125a4.813,4.813,0,0,0-.437-2.348A1.672,1.672,0,0,0,68.98,7.7a4.448,4.448,0,0,0-.461,2.207v2.578a4.937,4.937,0,0,0,.445,2.375,1.5,1.5,0,0,0,1.4.781,1.469,1.469,0,0,0,1.352-.723,4.645,4.645,0,0,0,.461-2.262Zm10.992,2.125a6.2,6.2,0,0,1-.918,3.7,3.242,3.242,0,0,1-2.793,1.246,3.285,3.285,0,0,1-2.777-1.215,5.94,5.94,0,0,1-.957-3.6V10.375a6.11,6.11,0,0,1,.918-3.68,3.827,3.827,0,0,1,5.586-.031,5.924,5.924,0,0,1,.941,3.578Zm-1.9-2.125a4.813,4.813,0,0,0-.437-2.348A1.672,1.672,0,0,0,78.074,7.7a4.448,4.448,0,0,0-.461,2.207v2.578a4.937,4.937,0,0,0,.445,2.375,1.5,1.5,0,0,0,1.4.781,1.469,1.469,0,0,0,1.352-.723,4.645,4.645,0,0,0,.461-2.262Zm9.852-.609A3.124,3.124,0,0,1,93.52,8.4,2.062,2.062,0,0,1,95.3,9.25a3.381,3.381,0,0,1,.434,2.313L94.832,17H92.98l.922-5.461a3.191,3.191,0,0,0,.016-.625,1.012,1.012,0,0,0-1.125-.977,2.284,2.284,0,0,0-1.844,1.016L89.895,17H88.043L90.121,5H91.98ZM101.785,17a2.507,2.507,0,0,1-.078-.789,3.134,3.134,0,0,1-2.258.945,2.589,2.589,0,0,1-1.824-.707,2.18,2.18,0,0,1-.676-1.754,2.588,2.588,0,0,1,1.156-2.1,5.034,5.034,0,0,1,2.938-.766l1.2.016.109-.578a1.744,1.744,0,0,0,0-.57,1.017,1.017,0,0,0-1.117-.867,1.685,1.685,0,0,0-1.043.3,1.3,1.3,0,0,0-.551.848l-1.852.016a2.318,2.318,0,0,1,.555-1.371A3.289,3.289,0,0,1,99.676,8.7a4.5,4.5,0,0,1,1.75-.312,2.956,2.956,0,0,1,2.156.832,2.466,2.466,0,0,1,.641,2.074l-.648,3.961-.062.7a2.5,2.5,0,0,0,.117.9l-.008.141Zm-1.906-1.359a2.041,2.041,0,0,0,1.086-.27,2.861,2.861,0,0,0,.852-.738l.289-1.6-.883-.008a3.1,3.1,0,0,0-1.672.395A1.447,1.447,0,0,0,98.84,14.5a.957.957,0,0,0,.23.824A1.127,1.127,0,0,0,99.879,15.641Zm13.289-2.828a6.878,6.878,0,0,1-.691,2.332,3.826,3.826,0,0,1-1.328,1.543,3.133,3.133,0,0,1-1.785.477,2.485,2.485,0,0,1-2.133-1.086l-.3.922h-1.7l2.078-12h1.859l-.844,4.367a2.872,2.872,0,0,1,2.242-.977,2.4,2.4,0,0,1,1.918.9,3.878,3.878,0,0,1,.73,2.375A10.892,10.892,0,0,1,113.168,12.813Zm-1.781-1.047a2.218,2.218,0,0,0-.352-1.332,1.22,1.22,0,0,0-1.016-.5,2.178,2.178,0,0,0-1.891,1.078l-.609,3.5a1.475,1.475,0,0,0,1.477,1.1,1.841,1.841,0,0,0,1.543-.719,4.075,4.075,0,0,0,.777-2.094Q111.379,12.141,111.387,11.766ZM116.02,17h-1.852l1.469-8.453h1.852ZM115.9,6.383a1.044,1.044,0,0,1,.281-.734,1.03,1.03,0,0,1,.758-.32.985.985,0,0,1,.754.277.96.96,0,0,1,.3.715.988.988,0,0,1-.293.734,1.074,1.074,0,0,1-.746.3,1,1,0,0,1-.75-.27A.929.929,0,0,1,115.9,6.383Zm6.336.109-.359,2.055h1.445l-.242,1.406h-1.453l-.8,4.734a1.619,1.619,0,0,0-.008.352q.047.508.625.531a3.529,3.529,0,0,0,.656-.07l-.125,1.484a4.245,4.245,0,0,1-1.164.164,1.729,1.729,0,0,1-1.449-.66,2.389,2.389,0,0,1-.379-1.707l.789-4.828h-1.352l.25-1.406h1.344l.359-2.055ZM128.355,17a2.507,2.507,0,0,1-.078-.789,3.134,3.134,0,0,1-2.258.945,2.589,2.589,0,0,1-1.824-.707,2.18,2.18,0,0,1-.676-1.754,2.588,2.588,0,0,1,1.156-2.1,5.034,5.034,0,0,1,2.938-.766l1.2.016.109-.578a1.744,1.744,0,0,0,0-.57,1.017,1.017,0,0,0-1.117-.867,1.685,1.685,0,0,0-1.043.3,1.3,1.3,0,0,0-.551.848l-1.852.016a2.318,2.318,0,0,1,.555-1.371,3.289,3.289,0,0,1,1.328-.918A4.5,4.5,0,0,1,128,8.391a2.956,2.956,0,0,1,2.156.832,2.466,2.466,0,0,1,.641,2.074l-.648,3.961-.062.7a2.5,2.5,0,0,0,.117.9l-.008.141Zm-1.906-1.359a2.041,2.041,0,0,0,1.086-.27,2.861,2.861,0,0,0,.852-.738l.289-1.6-.883-.008a3.1,3.1,0,0,0-1.672.395,1.447,1.447,0,0,0-.711,1.082.957.957,0,0,0,.23.824A1.127,1.127,0,0,0,126.449,15.641Zm8.539-7.1-.187.992a3.226,3.226,0,0,1,2.508-1.141,2.044,2.044,0,0,1,1.758.848,3.383,3.383,0,0,1,.422,2.3L138.574,17h-1.852l.922-5.484a2.806,2.806,0,0,0,.008-.625,1,1,0,0,0-1.109-.953,2.25,2.25,0,0,0-1.852,1.039L133.637,17h-1.852l1.461-8.453Zm9.68-2.047-.359,2.055h1.445l-.242,1.406h-1.453l-.8,4.734a1.618,1.618,0,0,0-.008.352q.047.508.625.531a3.53,3.53,0,0,0,.656-.07l-.125,1.484a4.245,4.245,0,0,1-1.164.164,1.729,1.729,0,0,1-1.449-.66,2.389,2.389,0,0,1-.379-1.707l.789-4.828h-1.352l.25-1.406h1.344l.359-2.055Zm4.922,10.664a3.541,3.541,0,0,1-1.91-.555,3.156,3.156,0,0,1-1.2-1.453,4.32,4.32,0,0,1-.293-2.055l.023-.32a5.657,5.657,0,0,1,.754-2.316A4.3,4.3,0,0,1,148.5,8.9a3.713,3.713,0,0,1,1.984-.508,2.769,2.769,0,0,1,2.379,1.182,4.337,4.337,0,0,1,.6,3l-.109.814h-5.32A2.3,2.3,0,0,0,148.434,15a1.61,1.61,0,0,0,1.313.631,2.847,2.847,0,0,0,2.2-1.039l.938.984a3.563,3.563,0,0,1-1.4,1.176A4.166,4.166,0,0,1,149.59,17.156Zm.789-7.25q-1.469-.047-2.2,2.078l3.508.008.031-.164a2.451,2.451,0,0,0,.008-.7,1.438,1.438,0,0,0-.437-.875A1.385,1.385,0,0,0,150.379,9.906Zm8.844,4.75q.133-.773-1-1.074a12.763,12.763,0,0,1-1.551-.48,2.138,2.138,0,0,1-1.555-2.094,2.378,2.378,0,0,1,1.035-1.887,3.794,3.794,0,0,1,2.387-.73,3.266,3.266,0,0,1,2.191.758,2.417,2.417,0,0,1,.832,1.945l-1.836-.008a1.185,1.185,0,0,0-.32-.918,1.307,1.307,0,0,0-.922-.348,1.817,1.817,0,0,0-1.059.3,1.136,1.136,0,0,0-.512.8q-.109.711,1,.988a10.976,10.976,0,0,1,1.641.512,2.14,2.14,0,0,1,1.492,2.125,2.336,2.336,0,0,1-.527,1.4,3.077,3.077,0,0,1-1.309.914,4.477,4.477,0,0,1-1.742.293,3.437,3.437,0,0,1-2.293-.8,2.512,2.512,0,0,1-.895-2.023l1.789.008a1.361,1.361,0,0,0,.406,1.031,1.57,1.57,0,0,0,1.07.359,2.126,2.126,0,0,0,1.145-.285A1.094,1.094,0,0,0,159.223,14.656Zm10.844-3.344,1.992-2.766h2.164l-3.234,4.25,1.883,4.2h-1.937l-1.18-2.883L167.676,17H165.52l3.336-4.375-1.82-4.078h1.938ZM183.895,17H182V7.862l-2.789.951V7.219l4.438-1.633h.242ZM195.418,6.68,190.871,17h-1.992l4.539-9.852h-5.883V5.625h7.883Zm8.938,5.531a6.2,6.2,0,0,1-.918,3.7,3.242,3.242,0,0,1-2.793,1.246,3.285,3.285,0,0,1-2.777-1.215,5.94,5.94,0,0,1-.957-3.6V10.375a6.11,6.11,0,0,1,.918-3.68,3.827,3.827,0,0,1,5.586-.031,5.923,5.923,0,0,1,.941,3.578Zm-1.9-2.125a4.813,4.813,0,0,0-.437-2.348,1.672,1.672,0,0,0-2.758-.039,4.448,4.448,0,0,0-.461,2.207v2.578a4.937,4.937,0,0,0,.445,2.375,1.5,1.5,0,0,0,1.4.781A1.469,1.469,0,0,0,202,14.918a4.645,4.645,0,0,0,.461-2.262ZM211.223,17h-1.852l2.086-12h1.852Zm2.469.977H212.16l6.484-12.352h1.539Zm8.875-8.5a3.124,3.124,0,0,1,2.4-1.078,2.062,2.062,0,0,1,1.785.852,3.381,3.381,0,0,1,.434,2.313L226.277,17h-1.852l.922-5.461a3.19,3.19,0,0,0,.016-.625,1.012,1.012,0,0,0-1.125-.977,2.284,2.284,0,0,0-1.844,1.016L221.34,17h-1.852l2.078-12h1.859ZM233.23,17a2.507,2.507,0,0,1-.078-.789,3.134,3.134,0,0,1-2.258.945,2.589,2.589,0,0,1-1.824-.707,2.18,2.18,0,0,1-.676-1.754,2.588,2.588,0,0,1,1.156-2.1,5.034,5.034,0,0,1,2.938-.766l1.2.016.109-.578a1.744,1.744,0,0,0,0-.57,1.017,1.017,0,0,0-1.117-.867,1.685,1.685,0,0,0-1.043.3,1.3,1.3,0,0,0-.551.848l-1.852.016a2.318,2.318,0,0,1,.555-1.371,3.289,3.289,0,0,1,1.328-.918,4.5,4.5,0,0,1,1.75-.312,2.956,2.956,0,0,1,2.156.832,2.466,2.466,0,0,1,.641,2.074l-.648,3.961-.062.7a2.5,2.5,0,0,0,.117.9l-.008.141Zm-1.906-1.359a2.041,2.041,0,0,0,1.086-.27,2.862,2.862,0,0,0,.852-.738l.289-1.6-.883-.008a3.1,3.1,0,0,0-1.672.395,1.447,1.447,0,0,0-.711,1.082.957.957,0,0,0,.23.824A1.127,1.127,0,0,0,231.324,15.641Zm13.289-2.828a6.878,6.878,0,0,1-.691,2.332,3.826,3.826,0,0,1-1.328,1.543,3.133,3.133,0,0,1-1.785.477,2.485,2.485,0,0,1-2.133-1.086l-.3.922h-1.7l2.078-12h1.859l-.844,4.367a2.872,2.872,0,0,1,2.242-.977,2.4,2.4,0,0,1,1.918.9,3.878,3.878,0,0,1,.73,2.375A10.892,10.892,0,0,1,244.613,12.813Zm-1.781-1.047a2.218,2.218,0,0,0-.352-1.332,1.22,1.22,0,0,0-1.016-.5,2.178,2.178,0,0,0-1.891,1.078l-.609,3.5a1.475,1.475,0,0,0,1.477,1.1,1.841,1.841,0,0,0,1.543-.719,4.075,4.075,0,0,0,.777-2.094Q242.824,12.141,242.832,11.766Zm10.9,1.164h-3.992l.273-1.531H254Zm5.234-.164a6.7,6.7,0,0,1,.7-2.344,3.968,3.968,0,0,1,1.352-1.551,3.121,3.121,0,0,1,1.789-.488,2.5,2.5,0,0,1,2.016.961L265.637,5H267.5L265.41,17h-1.656l.125-.875a2.946,2.946,0,0,1-2.312,1.039,2.325,2.325,0,0,1-1.887-.91,3.975,3.975,0,0,1-.762-2.379,6.316,6.316,0,0,1,.023-.945Zm1.8.727a2.6,2.6,0,0,0,.3,1.539,1.2,1.2,0,0,0,1.059.586,2.175,2.175,0,0,0,1.852-1.039l.633-3.633a1.445,1.445,0,0,0-1.422-1.008,1.9,1.9,0,0,0-1.711.938A5,5,0,0,0,260.762,13.492ZM269.387,17h-1.852L269,8.547h1.852ZM271.02,5.055h2.227l-2.469,2.367-1.609,0ZM276.574,17a2.508,2.508,0,0,1-.078-.789,3.134,3.134,0,0,1-2.258.945,2.589,2.589,0,0,1-1.824-.707,2.18,2.18,0,0,1-.676-1.754,2.588,2.588,0,0,1,1.156-2.1,5.034,5.034,0,0,1,2.938-.766l1.2.016.109-.578a1.744,1.744,0,0,0,0-.57,1.017,1.017,0,0,0-1.117-.867,1.685,1.685,0,0,0-1.043.3,1.3,1.3,0,0,0-.551.848l-1.852.016a2.318,2.318,0,0,1,.555-1.371,3.289,3.289,0,0,1,1.328-.918,4.5,4.5,0,0,1,1.75-.312,2.956,2.956,0,0,1,2.156.832,2.466,2.466,0,0,1,.641,2.074l-.648,3.961-.062.7a2.5,2.5,0,0,0,.117.9L278.41,17Zm-1.906-1.359a2.041,2.041,0,0,0,1.086-.27,2.861,2.861,0,0,0,.852-.738l.289-1.6-.883-.008a3.1,3.1,0,0,0-1.672.395,1.447,1.447,0,0,0-.711,1.082.957.957,0,0,0,.23.824A1.127,1.127,0,0,0,274.668,15.641Zm13.172-4.328,1.992-2.766H292l-3.234,4.25,1.883,4.2h-1.937l-1.18-2.883L285.449,17h-2.156l3.336-4.375-1.82-4.078h1.938Zm16.1.9a6.2,6.2,0,0,1-.918,3.7,3.242,3.242,0,0,1-2.793,1.246,3.285,3.285,0,0,1-2.777-1.215,5.94,5.94,0,0,1-.957-3.6V10.375a6.11,6.11,0,0,1,.918-3.68A3.827,3.827,0,0,1,303,6.664a5.924,5.924,0,0,1,.941,3.578Zm-1.9-2.125a4.813,4.813,0,0,0-.437-2.348,1.672,1.672,0,0,0-2.758-.039,4.448,4.448,0,0,0-.461,2.207v2.578a4.937,4.937,0,0,0,.445,2.375,1.5,1.5,0,0,0,1.4.781,1.469,1.469,0,0,0,1.352-.723,4.645,4.645,0,0,0,.461-2.262Zm3.969,9.477-1.023-.609a5.52,5.52,0,0,0,.621-1.238,3.7,3.7,0,0,0,.176-1.074V15.164H307.5l-.008,1.367a3.811,3.811,0,0,1-.418,1.66A4.124,4.124,0,0,1,306.012,19.563ZM316.3,8.625a2.644,2.644,0,0,1-.43,1.488,2.98,2.98,0,0,1-1.172,1.027,3.246,3.246,0,0,1,1.371,1.133,2.858,2.858,0,0,1,.48,1.625,2.984,2.984,0,0,1-1.016,2.379,4.606,4.606,0,0,1-5.418,0A2.982,2.982,0,0,1,309.1,13.9a2.891,2.891,0,0,1,.484-1.641,3.111,3.111,0,0,1,1.359-1.117,2.963,2.963,0,0,1-1.16-1.027,2.662,2.662,0,0,1-.426-1.488,2.959,2.959,0,0,1,.938-2.3,4.2,4.2,0,0,1,5.07,0A2.959,2.959,0,0,1,316.3,8.625Zm-1.648,5.18a1.875,1.875,0,0,0-.5-1.363,1.771,1.771,0,0,0-1.332-.52,1.752,1.752,0,0,0-1.324.516A1.889,1.889,0,0,0,311,13.8a1.83,1.83,0,0,0,.488,1.336,2.081,2.081,0,0,0,2.688.016A1.836,1.836,0,0,0,314.652,13.8ZM314.41,8.7a1.765,1.765,0,0,0-.43-1.223,1.651,1.651,0,0,0-2.3-.023,1.766,1.766,0,0,0-.422,1.246,1.759,1.759,0,0,0,.426,1.242,1.671,1.671,0,0,0,2.3,0A1.759,1.759,0,0,0,314.41,8.7Z" transform="translate(645 19144)" fill="#12263f"/>
    <path id="Trazado_737925" data-name="Trazado 737925" d="M18.379,6.68,13.832,17H11.84l4.539-9.852H10.5V5.625h7.883Zm1.914,12.883-1.023-.609a5.52,5.52,0,0,0,.621-1.238,3.7,3.7,0,0,0,.176-1.074V15.164h1.711l-.008,1.367a3.81,3.81,0,0,1-.418,1.66A4.124,4.124,0,0,1,20.293,19.563ZM30.582,8.625a2.644,2.644,0,0,1-.43,1.488,2.98,2.98,0,0,1-1.172,1.027,3.246,3.246,0,0,1,1.371,1.133,2.858,2.858,0,0,1,.48,1.625,2.984,2.984,0,0,1-1.016,2.379,3.986,3.986,0,0,1-2.7.879,4,4,0,0,1-2.715-.883,2.982,2.982,0,0,1-1.02-2.375,2.891,2.891,0,0,1,.484-1.641,3.112,3.112,0,0,1,1.359-1.117,2.964,2.964,0,0,1-1.16-1.027,2.662,2.662,0,0,1-.426-1.488,2.959,2.959,0,0,1,.938-2.3,3.622,3.622,0,0,1,2.531-.852,3.633,3.633,0,0,1,2.539.852A2.959,2.959,0,0,1,30.582,8.625ZM28.934,13.8a1.875,1.875,0,0,0-.5-1.363,1.771,1.771,0,0,0-1.332-.52,1.752,1.752,0,0,0-1.324.516,1.889,1.889,0,0,0-.5,1.367,1.83,1.83,0,0,0,.488,1.336,2.081,2.081,0,0,0,2.688.016A1.836,1.836,0,0,0,28.934,13.8ZM28.691,8.7a1.765,1.765,0,0,0-.43-1.223,1.651,1.651,0,0,0-2.3-.023A1.766,1.766,0,0,0,25.535,8.7a1.759,1.759,0,0,0,.426,1.242,1.671,1.671,0,0,0,2.3,0A1.759,1.759,0,0,0,28.691,8.7ZM40.082,6.68,35.535,17H33.543l4.539-9.852H32.2V5.625h7.883ZM46.793,17H44.941L47.027,5h1.852Zm2.469.977H47.73L54.215,5.625h1.539Zm10.875-3.32q.133-.773-1-1.074a12.763,12.763,0,0,1-1.551-.48,2.138,2.138,0,0,1-1.555-2.094,2.378,2.378,0,0,1,1.035-1.887,3.794,3.794,0,0,1,2.387-.73,3.266,3.266,0,0,1,2.191.758,2.417,2.417,0,0,1,.832,1.945l-1.836-.008a1.185,1.185,0,0,0-.32-.918,1.307,1.307,0,0,0-.922-.348,1.817,1.817,0,0,0-1.059.3,1.135,1.135,0,0,0-.512.8q-.109.711,1,.988a10.976,10.976,0,0,1,1.641.512,2.14,2.14,0,0,1,1.492,2.125,2.336,2.336,0,0,1-.527,1.4,3.077,3.077,0,0,1-1.309.914,4.477,4.477,0,0,1-1.742.293,3.437,3.437,0,0,1-2.293-.8,2.512,2.512,0,0,1-.895-2.023l1.789.008a1.361,1.361,0,0,0,.406,1.031,1.57,1.57,0,0,0,1.07.359,2.126,2.126,0,0,0,1.145-.285A1.094,1.094,0,0,0,60.137,14.656Z" transform="translate(645 19240)" fill="#12263f"/>
    <path id="Trazado_737926" data-name="Trazado 737926" d="M61.773,8.625a2.644,2.644,0,0,1-.43,1.488,2.98,2.98,0,0,1-1.172,1.027,3.246,3.246,0,0,1,1.371,1.133,2.858,2.858,0,0,1,.48,1.625,2.984,2.984,0,0,1-1.016,2.379,4.606,4.606,0,0,1-5.418,0A2.982,2.982,0,0,1,54.57,13.9a2.891,2.891,0,0,1,.484-1.641,3.112,3.112,0,0,1,1.359-1.117,2.964,2.964,0,0,1-1.16-1.027,2.662,2.662,0,0,1-.426-1.488,2.959,2.959,0,0,1,.938-2.3,4.2,4.2,0,0,1,5.07,0A2.959,2.959,0,0,1,61.773,8.625ZM60.125,13.8a1.875,1.875,0,0,0-.5-1.363,1.771,1.771,0,0,0-1.332-.52,1.752,1.752,0,0,0-1.324.516,1.889,1.889,0,0,0-.5,1.367,1.83,1.83,0,0,0,.488,1.336,2.081,2.081,0,0,0,2.688.016A1.836,1.836,0,0,0,60.125,13.8ZM59.883,8.7a1.765,1.765,0,0,0-.43-1.223,1.651,1.651,0,0,0-2.3-.023A1.766,1.766,0,0,0,56.727,8.7a1.759,1.759,0,0,0,.426,1.242,1.671,1.671,0,0,0,2.3,0A1.759,1.759,0,0,0,59.883,8.7ZM69.609,5.57v1.57h-.234a3.768,3.768,0,0,0-2.547.875A3.661,3.661,0,0,0,65.7,10.43a3.083,3.083,0,0,1,2.336-.961,2.912,2.912,0,0,1,2.379,1.063,4.185,4.185,0,0,1,.871,2.742,3.912,3.912,0,0,1-1.02,2.809,3.519,3.519,0,0,1-2.676,1.074A3.438,3.438,0,0,1,64.824,15.9a4.948,4.948,0,0,1-1.059-3.3v-.648a6.962,6.962,0,0,1,1.457-4.687,5.224,5.224,0,0,1,4.191-1.7ZM67.57,11a2,2,0,0,0-1.145.352,2.055,2.055,0,0,0-.762.938v.578a3.405,3.405,0,0,0,.531,2.012,1.62,1.62,0,0,0,1.375.746,1.6,1.6,0,0,0,1.336-.633,2.635,2.635,0,0,0,.492-1.664,2.673,2.673,0,0,0-.5-1.68A1.594,1.594,0,0,0,67.57,11ZM83.2,12.945h1.414v1.523H83.2V17H81.3V14.469H76.391l-.055-1.156,4.906-7.687H83.2Zm-4.875,0H81.3V8.2l-.141.25Zm14.961-.734a6.2,6.2,0,0,1-.918,3.7,3.242,3.242,0,0,1-2.793,1.246A3.285,3.285,0,0,1,86.8,15.941a5.94,5.94,0,0,1-.957-3.6V10.375a6.11,6.11,0,0,1,.918-3.68,3.827,3.827,0,0,1,5.586-.031,5.924,5.924,0,0,1,.941,3.578Zm-1.9-2.125a4.813,4.813,0,0,0-.437-2.348A1.672,1.672,0,0,0,88.2,7.7a4.448,4.448,0,0,0-.461,2.207v2.578a4.937,4.937,0,0,0,.445,2.375,1.5,1.5,0,0,0,1.4.781,1.469,1.469,0,0,0,1.352-.723,4.645,4.645,0,0,0,.461-2.262Zm10.992,2.125a6.2,6.2,0,0,1-.918,3.7,3.242,3.242,0,0,1-2.793,1.246,3.285,3.285,0,0,1-2.777-1.215,5.94,5.94,0,0,1-.957-3.6V10.375a6.11,6.11,0,0,1,.918-3.68,3.827,3.827,0,0,1,5.586-.031,5.924,5.924,0,0,1,.941,3.578Zm-1.9-2.125a4.813,4.813,0,0,0-.437-2.348A1.672,1.672,0,0,0,97.289,7.7a4.448,4.448,0,0,0-.461,2.207v2.578a4.937,4.937,0,0,0,.445,2.375,1.5,1.5,0,0,0,1.4.781,1.469,1.469,0,0,0,1.352-.723,4.645,4.645,0,0,0,.461-2.262Zm11.852,4.57q.133-.773-1-1.074a12.763,12.763,0,0,1-1.551-.48,2.138,2.138,0,0,1-1.555-2.094,2.378,2.378,0,0,1,1.035-1.887,3.794,3.794,0,0,1,2.387-.73,3.266,3.266,0,0,1,2.191.758,2.417,2.417,0,0,1,.832,1.945l-1.836-.008a1.185,1.185,0,0,0-.32-.918,1.307,1.307,0,0,0-.922-.348,1.817,1.817,0,0,0-1.059.3,1.135,1.135,0,0,0-.512.8q-.109.711,1,.988a10.976,10.976,0,0,1,1.641.512,2.14,2.14,0,0,1,1.492,2.125,2.336,2.336,0,0,1-.527,1.4,3.077,3.077,0,0,1-1.309.914,4.477,4.477,0,0,1-1.742.293,3.437,3.437,0,0,1-2.293-.8,2.512,2.512,0,0,1-.895-2.023l1.789.008a1.361,1.361,0,0,0,.406,1.031,1.57,1.57,0,0,0,1.07.359,2.126,2.126,0,0,0,1.145-.285A1.094,1.094,0,0,0,112.336,14.656Z" transform="translate(743 19085)" fill="#12263f"/>
    <path id="Trazado_737927" data-name="Trazado 737927" d="M43.984,8.625a2.644,2.644,0,0,1-.43,1.488,2.98,2.98,0,0,1-1.172,1.027,3.246,3.246,0,0,1,1.371,1.133,2.858,2.858,0,0,1,.48,1.625,2.984,2.984,0,0,1-1.016,2.379,4.606,4.606,0,0,1-5.418,0,2.982,2.982,0,0,1-1.02-2.375,2.891,2.891,0,0,1,.484-1.641,3.112,3.112,0,0,1,1.359-1.117,2.964,2.964,0,0,1-1.16-1.027,2.662,2.662,0,0,1-.426-1.488,2.959,2.959,0,0,1,.938-2.3,4.2,4.2,0,0,1,5.07,0A2.959,2.959,0,0,1,43.984,8.625ZM42.336,13.8a1.875,1.875,0,0,0-.5-1.363,1.771,1.771,0,0,0-1.332-.52,1.752,1.752,0,0,0-1.324.516,1.889,1.889,0,0,0-.5,1.367,1.83,1.83,0,0,0,.488,1.336,2.081,2.081,0,0,0,2.688.016A1.836,1.836,0,0,0,42.336,13.8ZM42.094,8.7a1.765,1.765,0,0,0-.43-1.223,1.651,1.651,0,0,0-2.3-.023A1.766,1.766,0,0,0,38.938,8.7a1.759,1.759,0,0,0,.426,1.242,1.671,1.671,0,0,0,2.3,0A1.759,1.759,0,0,0,42.094,8.7ZM51.82,5.57v1.57h-.234a3.768,3.768,0,0,0-2.547.875,3.661,3.661,0,0,0-1.133,2.414,3.083,3.083,0,0,1,2.336-.961,2.912,2.912,0,0,1,2.379,1.063,4.185,4.185,0,0,1,.871,2.742,3.912,3.912,0,0,1-1.02,2.809A3.519,3.519,0,0,1,49.8,17.156,3.438,3.438,0,0,1,47.035,15.9a4.948,4.948,0,0,1-1.059-3.3v-.648a6.962,6.962,0,0,1,1.457-4.687,5.224,5.224,0,0,1,4.191-1.7ZM49.781,11a2,2,0,0,0-1.145.352,2.055,2.055,0,0,0-.762.938v.578a3.405,3.405,0,0,0,.531,2.012,1.62,1.62,0,0,0,1.375.746,1.6,1.6,0,0,0,1.336-.633,2.635,2.635,0,0,0,.492-1.664,2.673,2.673,0,0,0-.5-1.68A1.594,1.594,0,0,0,49.781,11Zm15.633,1.945h1.414v1.523H65.414V17h-1.9V14.469H58.6l-.055-1.156,4.906-7.687h1.961Zm-4.875,0h2.977V8.2l-.141.25ZM75.5,12.211a6.2,6.2,0,0,1-.918,3.7,3.242,3.242,0,0,1-2.793,1.246,3.285,3.285,0,0,1-2.777-1.215,5.94,5.94,0,0,1-.957-3.6V10.375a6.11,6.11,0,0,1,.918-3.68,3.827,3.827,0,0,1,5.586-.031,5.924,5.924,0,0,1,.941,3.578Zm-1.9-2.125a4.813,4.813,0,0,0-.437-2.348A1.672,1.672,0,0,0,70.406,7.7a4.448,4.448,0,0,0-.461,2.207v2.578a4.937,4.937,0,0,0,.445,2.375,1.5,1.5,0,0,0,1.4.781,1.469,1.469,0,0,0,1.352-.723,4.645,4.645,0,0,0,.461-2.262Zm10.992,2.125a6.2,6.2,0,0,1-.918,3.7,3.242,3.242,0,0,1-2.793,1.246,3.285,3.285,0,0,1-2.777-1.215,5.94,5.94,0,0,1-.957-3.6V10.375a6.11,6.11,0,0,1,.918-3.68,3.827,3.827,0,0,1,5.586-.031,5.924,5.924,0,0,1,.941,3.578Zm-1.9-2.125a4.813,4.813,0,0,0-.437-2.348A1.672,1.672,0,0,0,79.5,7.7a4.448,4.448,0,0,0-.461,2.207v2.578a4.937,4.937,0,0,0,.445,2.375,1.5,1.5,0,0,0,1.4.781,1.469,1.469,0,0,0,1.352-.723,4.645,4.645,0,0,0,.461-2.262Zm11.852,4.57q.133-.773-1-1.074a12.763,12.763,0,0,1-1.551-.48,2.138,2.138,0,0,1-1.555-2.094,2.378,2.378,0,0,1,1.035-1.887,3.794,3.794,0,0,1,2.387-.73,3.266,3.266,0,0,1,2.191.758,2.417,2.417,0,0,1,.832,1.945l-1.836-.008a1.185,1.185,0,0,0-.32-.918A1.307,1.307,0,0,0,93.8,9.82a1.817,1.817,0,0,0-1.059.3,1.135,1.135,0,0,0-.512.8q-.109.711,1,.988a10.976,10.976,0,0,1,1.641.512,2.14,2.14,0,0,1,1.492,2.125,2.336,2.336,0,0,1-.527,1.4,3.077,3.077,0,0,1-1.309.914,4.477,4.477,0,0,1-1.742.293,3.437,3.437,0,0,1-2.293-.8,2.512,2.512,0,0,1-.895-2.023l1.789.008a1.361,1.361,0,0,0,.406,1.031,1.57,1.57,0,0,0,1.07.359,2.126,2.126,0,0,0,1.145-.285A1.094,1.094,0,0,0,94.547,14.656Zm7.375,3.32h-1.531l6.484-12.352h1.539Zm10.172-5.211a6.7,6.7,0,0,1,.7-2.344,3.968,3.968,0,0,1,1.352-1.551,3.121,3.121,0,0,1,1.789-.488,2.5,2.5,0,0,1,2.016.961L118.766,5h1.859l-2.086,12h-1.656l.125-.875a2.946,2.946,0,0,1-2.312,1.039,2.325,2.325,0,0,1-1.887-.91,3.975,3.975,0,0,1-.762-2.379,6.316,6.316,0,0,1,.023-.945Zm1.8.727a2.6,2.6,0,0,0,.3,1.539,1.2,1.2,0,0,0,1.059.586,2.175,2.175,0,0,0,1.852-1.039l.633-3.633a1.445,1.445,0,0,0-1.422-1.008,1.9,1.9,0,0,0-1.711.938A5,5,0,0,0,113.891,13.492ZM122.516,17h-1.852l1.469-8.453h1.852Zm1.633-11.945h2.227l-2.469,2.367-1.609,0ZM129.7,17a2.507,2.507,0,0,1-.078-.789,3.134,3.134,0,0,1-2.258.945,2.589,2.589,0,0,1-1.824-.707,2.18,2.18,0,0,1-.676-1.754,2.588,2.588,0,0,1,1.156-2.1,5.034,5.034,0,0,1,2.938-.766l1.2.016.109-.578a1.744,1.744,0,0,0,0-.57,1.017,1.017,0,0,0-1.117-.867,1.685,1.685,0,0,0-1.043.3,1.3,1.3,0,0,0-.551.848l-1.852.016a2.318,2.318,0,0,1,.555-1.371,3.289,3.289,0,0,1,1.328-.918,4.5,4.5,0,0,1,1.75-.312,2.956,2.956,0,0,1,2.156.832,2.466,2.466,0,0,1,.641,2.074l-.648,3.961-.062.7a2.5,2.5,0,0,0,.117.9l-.008.141ZM127.8,15.641a2.041,2.041,0,0,0,1.086-.27,2.862,2.862,0,0,0,.852-.738l.289-1.6-.883-.008a3.1,3.1,0,0,0-1.672.395,1.447,1.447,0,0,0-.711,1.082.957.957,0,0,0,.23.824A1.127,1.127,0,0,0,127.8,15.641Z" transform="translate(743 19163)" fill="#12263f"/>
    <path id="Trazado_737928" data-name="Trazado 737928" d="M0,0H360.5" transform="translate(647.5 19084.5)" fill="none" stroke="#12263f" stroke-width="1"/>
    <path id="Trazado_737929" data-name="Trazado 737929" d="M0,0H360.5" transform="translate(647.5 19162.5)" fill="none" stroke="#12263f" stroke-width="1"/>
    <g id="g2571" transform="translate(433.959 19732.664)">
      <g id="g2573" transform="translate(0 -682.665)">
        <g id="g2575" clip-path="url(#clip-path)">
          <g id="g2581" transform="translate(17.444 0.904)">
            <path id="path2583" d="M-345.346,0H-378.23a1.027,1.027,0,0,0-1.027,1.027V50.644l39,3.349h2.676a1.031,1.031,0,0,0,1.027-1.027V9.229l-6.012-3.39Z" transform="translate(379.258)" fill="#f9f7f8" fill-rule="evenodd"/>
          </g>
          <g id="g2585" transform="translate(42.1 51.538)">
            <path id="path2587" d="M-73.026,0h-4.562L-80.2,4.019l2.609,4.589h4.562l1.994-4.3Z" transform="translate(80.197)" fill="#a1d4ff" fill-rule="evenodd"/>
          </g>
          <g id="g2589" transform="translate(11.473 5.058)">
            <path id="path2591" d="M-60.81-473.345v-46.481h-4.944a1.031,1.031,0,0,0-1.027,1.027v45.906l.162-.054a6.624,6.624,0,0,1,1.051-.368,6.864,6.864,0,0,1,1.068-.03Z" transform="translate(66.781 519.825)" fill="#a1d4ff" fill-rule="evenodd"/>
          </g>
          <g id="g2593" transform="translate(10.73 51.537)">
            <path id="path2595" d="M-346.03-.011h-30.955a6.863,6.863,0,0,0-1.068.03l-1.956,4.273,1.956,4.273a2.092,2.092,0,0,0,.362.03h31.661Z" transform="translate(380.008 0.013)" fill="#ffe07d" fill-rule="evenodd"/>
          </g>
          <g id="g2597" transform="translate(51.356 0.894)">
            <path id="path2599" d="M-89.511-93.988l-8.79-9.229v8.2a1.031,1.031,0,0,0,1.027,1.027Z" transform="translate(98.301 103.217)" fill="#a1d4ff" fill-rule="evenodd"/>
          </g>
          <path id="path2601" d="M164.685-579.55H161.7V-626.1h2.986Z" transform="translate(-147.241 631.16)" fill="#80b4fb"/>
          <g id="g2603" transform="translate(5.484 51.569)">
            <path id="path2605" d="M-73.308-43.534l0-4.275a6.619,6.619,0,0,0-1.051.368l-.162.054-4.7,1.585-1.288,2.265,1.288,2.267,4.863,1.639a6.637,6.637,0,0,0,1.051.368Z" transform="translate(80.506 47.809)" fill="#ffe5c1" fill-rule="evenodd"/>
          </g>
          <g id="g2607" transform="translate(0.896 53.576)">
            <path id="path2609" d="M-59.846,0l-5.36,1.811c-.341.129-.517.291-.517.453v.007c0,.159.176.321.517.449l5.36,1.811Z" transform="translate(65.723)" fill="#375e7d" fill-rule="evenodd"/>
          </g>
          <g id="g2611" transform="translate(49.271 51.538)">
            <path id="path2613" d="M-73.026-69.828v-5.106a1.755,1.755,0,0,0-1.751-1.751H-80.2v8.607h5.42a1.755,1.755,0,0,0,1.751-1.751" transform="translate(80.197 76.685)" fill="#eb5468" fill-rule="evenodd"/>
          </g>
          <g id="g2615" transform="translate(43.441 0.904)">
            <path id="path2617" d="M-170.109-93.988h-7.762a1.031,1.031,0,0,1-1.027-1.027v-8.2h-7.914c13.44,18.36,9.861,44.585,7.556,50.644h3.694a1.755,1.755,0,0,1,1.751,1.751v1.6h2.676a1.031,1.031,0,0,0,1.027-1.027Z" transform="translate(186.813 103.217)" fill="#dddaec" fill-rule="evenodd"/>
          </g>
          <g id="g2619" transform="translate(35.435 13.306)">
            <path id="path2621" d="M-54.133-60.747h-5.316s2.815-5.1,3.278-5.671.916-.216.956.291-.02,7.878-.02,7.878" transform="translate(59.449 66.712)" fill="none" stroke="#000" stroke-linecap="round" stroke-linejoin="round" stroke-miterlimit="10" stroke-width="2"/>
          </g>
          <g id="g2623" transform="translate(23.181 10.059)">
            <path id="path2625" d="M0-36.686H3.275L6.522-29.9l5.169-10.392h10" transform="translate(0 40.288)" fill="none" stroke="#000" stroke-linecap="round" stroke-linejoin="round" stroke-miterlimit="10" stroke-width="2"/>
          </g>
          <g id="g2627" transform="translate(42.504 27.132)">
            <path id="path2629" d="M0,0,2.291,6.461" fill="none" stroke="#000" stroke-linecap="round" stroke-linejoin="round" stroke-miterlimit="10" stroke-width="2"/>
          </g>
          <g id="g2631" transform="translate(43.917 27.132)">
            <path id="path2633" d="M-32.176,0l-3.16,9.141" transform="translate(35.336)" fill="none" stroke="#000" stroke-linecap="round" stroke-linejoin="round" stroke-miterlimit="10" stroke-width="2"/>
          </g>
          <g id="g2635" transform="translate(28.176 27.132)">
            <path id="path2637" d="M-46.907,0l-4.606,6.107" transform="translate(51.513)" fill="none" stroke="#000" stroke-linecap="round" stroke-linejoin="round" stroke-miterlimit="10" stroke-width="2"/>
          </g>
          <g id="g2639" transform="translate(28.409 27.132)">
            <path id="path2641" d="M0,0,4.714,6.215" fill="none" stroke="#000" stroke-linecap="round" stroke-linejoin="round" stroke-miterlimit="10" stroke-width="2"/>
          </g>
          <g id="g2643" transform="translate(37.655 27.686)">
            <path id="path2645" d="M0,0V4.839" fill="none" stroke="#000" stroke-linecap="round" stroke-linejoin="round" stroke-miterlimit="10" stroke-width="2"/>
          </g>
          <g id="g2647" transform="translate(35.208 30.076)">
            <path id="path2649" d="M-49.281,0H-54.12" transform="translate(54.12)" fill="none" stroke="#000" stroke-linecap="round" stroke-linejoin="round" stroke-miterlimit="10" stroke-width="2"/>
          </g>
          <g id="g2651" transform="translate(23.183 24.993)">
            <path id="path2653" d="M-22.145-106.893a7.42,7.42,0,0,1,0-10.5" transform="translate(24.32 117.389)" fill="none" stroke="#000" stroke-linecap="round" stroke-linejoin="round" stroke-miterlimit="10" stroke-width="2"/>
          </g>
          <g id="g2655" transform="translate(49.493 24.993)">
            <path id="path2657" d="M0-106.893a7.42,7.42,0,0,0,0-10.5" transform="translate(0 117.389)" fill="none" stroke="#000" stroke-linecap="round" stroke-linejoin="round" stroke-miterlimit="10" stroke-width="2"/>
          </g>
          <g id="g2659" transform="translate(24.692 40.484)">
            <path id="path2661" d="M-63.185,0h-6.2" transform="translate(69.389)" fill="none" stroke="#000" stroke-linecap="round" stroke-linejoin="round" stroke-miterlimit="10" stroke-width="2"/>
          </g>
          <g id="g2663" transform="translate(24.692 44.33)">
            <path id="path2665" d="M-63.185,0h-6.2" transform="translate(69.389)" fill="none" stroke="#000" stroke-linecap="round" stroke-linejoin="round" stroke-miterlimit="10" stroke-width="2"/>
          </g>
          <g id="g2667" transform="translate(51.356 0.894)">
            <path id="path2669" d="M-89.511-93.988h-7.762A1.031,1.031,0,0,1-98.3-95.015v-8.2" transform="translate(98.301 103.217)" fill="none" stroke="#000" stroke-linecap="round" stroke-linejoin="round" stroke-miterlimit="10" stroke-width="2"/>
          </g>
          <g id="g2671" transform="translate(51.356 0.894)">
            <path id="path2673" d="M-89.511-93.988h-7.762A1.031,1.031,0,0,1-98.3-95.015v-8.2" transform="translate(98.301 103.217)" fill="none" stroke="#000" stroke-linecap="round" stroke-linejoin="round" stroke-miterlimit="10" stroke-width="2"/>
          </g>
          <g id="g2675" transform="translate(17.444 0.894)">
            <path id="path2677" d="M0-515.744v-49.617a1.027,1.027,0,0,1,1.027-1.027H33.912l8.79,9.229v43.736a1.031,1.031,0,0,1-1.027,1.027H39" transform="translate(0 566.388)" fill="none" stroke="#000" stroke-linecap="round" stroke-linejoin="round" stroke-miterlimit="10" stroke-width="2"/>
          </g>
          <g id="g2679" transform="translate(11.473 5.058)">
            <path id="path2681" d="M0-240.527v-22.592a1.031,1.031,0,0,1,1.027-1.027H5.971M0-217.213V-236.4" transform="translate(0 264.146)" fill="none" stroke="#000" stroke-linecap="round" stroke-linejoin="round" stroke-miterlimit="10" stroke-width="2"/>
          </g>
          <g id="g2683" transform="translate(12.686 56.881)">
            <path id="path2685" d="M-326.109-.31H-357.77a2.092,2.092,0,0,1-.362-.03V2.894a2.092,2.092,0,0,0,.362.03h31.661Z" transform="translate(358.131 0.34)" fill="#ffd064" fill-rule="evenodd"/>
          </g>
          <path id="path2687" d="M504.57-46.183h-4.562v3.234h4.562Z" transform="translate(-455.299 103.094)" fill="#80b4fb" fill-rule="evenodd"/>
          <g id="g2689" transform="translate(49.271 55.161)">
            <path id="path2691" d="M-73.026-32.935v-3.234a1.755,1.755,0,0,1-1.751,1.751H-80.2v3.234h5.42a1.755,1.755,0,0,0,1.751-1.751" transform="translate(80.197 36.169)" fill="#e5384f" fill-rule="evenodd"/>
          </g>
          <g id="g2693" transform="translate(6.772 54.874)">
            <path id="path2695" d="M-60.225-53.378v-3.234a6.623,6.623,0,0,1-1.051-.368l-4.863-1.639v3.234l4.863,1.639a6.611,6.611,0,0,0,1.051.368" transform="translate(66.139 58.62)" fill="#fed1a3" fill-rule="evenodd"/>
          </g>
          <g id="g2697" transform="translate(0.896 54.225)">
            <path id="path2699" d="M-59.846-39.544v-3.234l-1.919-.649-3.44,1.163c-.341.128-.517.291-.517.453v.007c0,.159.176.321.517.449Z" transform="translate(65.723 43.427)" fill="#2b4d66" fill-rule="evenodd"/>
          </g>
          <g id="g2701" transform="translate(0.896 51.537)">
            <path id="path2703" d="M-385.163-.012h15.974a1.755,1.755,0,0,1,1.75,1.751V6.845a1.755,1.755,0,0,1-1.75,1.751h-40.937a3.528,3.528,0,0,1-2.119-.4l-10.222-3.45c-.689-.26-.689-.649,0-.909l10.222-3.45a3.528,3.528,0,0,1,2.119-.4h21.03" transform="translate(422.985 0.013)" fill="none" stroke="#000" stroke-linecap="round" stroke-linejoin="round" stroke-miterlimit="10" stroke-width="2"/>
          </g>
          <g id="g2705" transform="translate(49.271 51.538)">
            <path id="path2707" d="M0,0V8.607" fill="none" stroke="#000" stroke-linecap="round" stroke-linejoin="round" stroke-miterlimit="10" stroke-width="2"/>
          </g>
          <g id="g2709" transform="translate(12.686 51.569)">
            <path id="path2711" d="M0,0V8.547" fill="none" stroke="#000" stroke-linecap="round" stroke-linejoin="round" stroke-miterlimit="10" stroke-width="2"/>
          </g>
          <g id="g2713" transform="translate(6.772 53.576)">
            <path id="path2715" d="M0-46.151v-4.532" transform="translate(0 50.683)" fill="none" stroke="#000" stroke-linecap="round" stroke-linejoin="round" stroke-miterlimit="10" stroke-width="2"/>
          </g>
          <g id="g2717" transform="translate(44.709 51.538)">
            <path id="path2719" d="M0,0V8.607" fill="none" stroke="#000" stroke-linecap="round" stroke-linejoin="round" stroke-miterlimit="10" stroke-width="2"/>
          </g>
        </g>
      </g>
    </g>
  </g>
</svg>
