<svg xmlns="http://www.w3.org/2000/svg" width="715" height="331.068" viewBox="0 0 715 331.068">
  <g id="Grupo_1014705" data-name="Grupo 1014705" transform="translate(-390 -26802)">
    <path id="Trazado_732973" data-name="Trazado 732973" d="M115.748,331.041H257.034V311.689H96.952V428.113h18.8V331.041Z" transform="translate(293.049 26704.955)" fill="#3076b6"/>
    <path id="Trazado_732974" data-name="Trazado 732974" d="M237.228,299.513H378.513v-19.35H218.431V396.586h18.8V299.513Z" transform="translate(355.871 26688.514)" fill="#008b8a"/>
    <path id="Trazado_732975" data-name="Trazado 732975" d="M358.117,268.207H501.861V249.085H338.993V364.144h19.124V268.207Z" transform="translate(418.499 26672.623)" fill="#ffa031"/>
    <path id="Trazado_732976" data-name="Trazado 732976" d="M479.6,236.681H623.339V217.557H460.473v115.06H479.6V236.681Z" transform="translate(480.782 26656.34)" fill="#4db1f0"/>
    <g id="Trazado_733818" data-name="Trazado 733818" transform="translate(433 27067)" fill="#fff">
      <path d="M 115.5 51.5 L 1.5 51.5 L 1.5 1.5 L 115.5 1.5 L 115.5 51.5 Z" stroke="none"/>
      <path d="M 3 3 L 3 50 L 114 50 L 114 3 L 3 3 M 0 0 L 117 0 L 117 53 L 0 53 L 0 0 Z" stroke="none" fill="#3076b6"/>
    </g>
    <g id="Trazado_733819" data-name="Trazado 733819" transform="translate(390 26945)" fill="#fff">
      <path d="M 158.5 51.5 L 1.5 51.5 L 1.5 1.5 L 158.5 1.5 L 158.5 51.5 Z" stroke="none"/>
      <path d="M 3 3 L 3 50 L 157 50 L 157 3 L 3 3 M 0 0 L 160 0 L 160 53 L 0 53 L 0 0 Z" stroke="none" fill="#3076b6"/>
    </g>
    <g id="Trazado_733820" data-name="Trazado 733820" transform="translate(574 26898)" fill="#fff">
      <path d="M 158.5 50.5 L 1.5 50.5 L 1.5 1.5 L 158.5 1.5 L 158.5 50.5 Z" stroke="none"/>
      <path d="M 3 3 L 3 49 L 157 49 L 157 3 L 3 3 M 0 0 L 160 0 L 160 52 L 0 52 L 0 0 Z" stroke="none" fill="#008b8a"/>
    </g>
    <g id="Trazado_733821" data-name="Trazado 733821" transform="translate(757 26850)" fill="#fff">
      <path d="M 162.5 50.5 L 1.5 50.5 L 1.5 1.5 L 162.5 1.5 L 162.5 50.5 Z" stroke="none"/>
      <path d="M 3 3 L 3 49 L 161 49 L 161 3 L 3 3 M 0 0 L 164 0 L 164 52 L 0 52 L 0 0 Z" stroke="none" fill="#ffa031"/>
    </g>
    <g id="Trazado_733822" data-name="Trazado 733822" transform="translate(942 26802)" fill="#fff">
      <path d="M 161.5 50.5 L 1.5 50.5 L 1.5 1.5 L 161.5 1.5 L 161.5 50.5 Z" stroke="none"/>
      <path d="M 3 3 L 3 49 L 160 49 L 160 3 L 3 3 M 0 0 L 163 0 L 163 52 L 0 52 L 0 0 Z" stroke="none" fill="#4db1f0"/>
    </g>
    <g id="Trazado_733823" data-name="Trazado 733823" transform="translate(602 27030)" fill="#fff">
      <path d="M 131.5 53.5 L 1.5 53.5 L 1.5 1.5 L 131.5 1.5 L 131.5 53.5 Z" stroke="none"/>
      <path d="M 3 3 L 3 52 L 130 52 L 130 3 L 3 3 M 0 0 L 133 0 L 133 55 L 0 55 L 0 0 Z" stroke="none" fill="#008b8a"/>
    </g>
    <path id="Trazado_733824" data-name="Trazado 733824" d="M1.182,0V-15.641H6.22a7.411,7.411,0,0,1,3.728.94,6.607,6.607,0,0,1,2.583,2.653,8.011,8.011,0,0,1,.94,3.84v.72a8.057,8.057,0,0,1-.908,3.851A6.635,6.635,0,0,1,10.006-.972,7.248,7.248,0,0,1,6.327,0ZM4.952-12.729V-2.9H6.263A2.933,2.933,0,0,0,8.755-4.055a5.659,5.659,0,0,0,.87-3.432v-.677a5.613,5.613,0,0,0-.87-3.416A2.984,2.984,0,0,0,6.22-12.729ZM28.671-7.5a9.243,9.243,0,0,1-.72,3.787,6.582,6.582,0,0,1-1.987,2.594l2.524,2L26.157,2.857,22.795.15a6.989,6.989,0,0,1-.945.064A6.779,6.779,0,0,1,18.3-.709a6.283,6.283,0,0,1-2.412-2.643A8.975,8.975,0,0,1,15-7.3v-.827a9.255,9.255,0,0,1,.843-4.061A6.284,6.284,0,0,1,18.246-14.9a6.727,6.727,0,0,1,3.583-.956,6.7,6.7,0,0,1,3.545.945A6.369,6.369,0,0,1,27.8-12.219a9,9,0,0,1,.875,4Zm-3.835-.655a6.577,6.577,0,0,0-.779-3.54A2.5,2.5,0,0,0,21.828-12.9a2.481,2.481,0,0,0-2.245,1.192,6.662,6.662,0,0,0-.763,3.491v.72a6.76,6.76,0,0,0,.763,3.54,2.5,2.5,0,0,0,2.267,1.23,2.461,2.461,0,0,0,2.208-1.214,6.617,6.617,0,0,0,.779-3.491Zm19,.655a9.223,9.223,0,0,1-.849,4.05A6.272,6.272,0,0,1,40.579-.736a6.715,6.715,0,0,1-3.561.951A6.81,6.81,0,0,1,33.473-.7,6.261,6.261,0,0,1,31.061-3.33a8.958,8.958,0,0,1-.908-3.921v-.881A9.264,9.264,0,0,1,31-12.187,6.257,6.257,0,0,1,33.414-14.9,6.762,6.762,0,0,1,37-15.855a6.7,6.7,0,0,1,3.545.945,6.369,6.369,0,0,1,2.422,2.691,9,9,0,0,1,.875,4ZM40-8.153a6.577,6.577,0,0,0-.779-3.54A2.5,2.5,0,0,0,37-12.9q-2.836,0-3,4.254L33.988-7.5a6.764,6.764,0,0,0,.763,3.534,2.494,2.494,0,0,0,2.267,1.235,2.464,2.464,0,0,0,2.2-1.214A6.58,6.58,0,0,0,40-7.434Z" transform="translate(469 27102)" fill="#12263f"/>
    <path id="Trazado_733825" data-name="Trazado 733825" d="M1.182,0V-15.641H6.22a7.411,7.411,0,0,1,3.728.94,6.607,6.607,0,0,1,2.583,2.653,8.011,8.011,0,0,1,.94,3.84v.72a8.057,8.057,0,0,1-.908,3.851A6.635,6.635,0,0,1,10.006-.972,7.248,7.248,0,0,1,6.327,0ZM4.952-12.729V-2.9H6.263A2.933,2.933,0,0,0,8.755-4.055a5.659,5.659,0,0,0,.87-3.432v-.677a5.613,5.613,0,0,0-.87-3.416A2.984,2.984,0,0,0,6.22-12.729ZM15.4,0V-15.641h5.618a7.956,7.956,0,0,1,4.592,1.106,3.682,3.682,0,0,1,1.574,3.212,3.721,3.721,0,0,1-.559,2.073,3.255,3.255,0,0,1-1.644,1.268,3.3,3.3,0,0,1,1.88,1.2,3.5,3.5,0,0,1,.655,2.148,4.141,4.141,0,0,1-1.456,3.454A6.927,6.927,0,0,1,21.753,0Zm3.771-6.649V-2.9h2.471a2.35,2.35,0,0,0,1.568-.467,1.635,1.635,0,0,0,.548-1.316,1.734,1.734,0,0,0-1.944-1.966Zm0-2.471h1.966A2.793,2.793,0,0,0,22.9-9.573a1.606,1.606,0,0,0,.526-1.3,1.686,1.686,0,0,0-.569-1.428,3.047,3.047,0,0,0-1.837-.436H19.175ZM42.84-7.5a9.223,9.223,0,0,1-.849,4.05A6.272,6.272,0,0,1,39.58-.736a6.715,6.715,0,0,1-3.561.951A6.81,6.81,0,0,1,32.474-.7,6.261,6.261,0,0,1,30.062-3.33a8.958,8.958,0,0,1-.908-3.921v-.881A9.264,9.264,0,0,1,30-12.187,6.257,6.257,0,0,1,32.415-14.9,6.762,6.762,0,0,1,36-15.855a6.7,6.7,0,0,1,3.545.945,6.369,6.369,0,0,1,2.422,2.691,9,9,0,0,1,.875,4ZM39-8.153a6.577,6.577,0,0,0-.779-3.54A2.5,2.5,0,0,0,36-12.9q-2.836,0-3,4.254L32.989-7.5a6.764,6.764,0,0,0,.763,3.534,2.494,2.494,0,0,0,2.267,1.235,2.464,2.464,0,0,0,2.2-1.214A6.58,6.58,0,0,0,39-7.434Z" transform="translate(448 26980)" fill="#12263f"/>
    <path id="Trazado_733826" data-name="Trazado 733826" d="M-24.061-3.59A1.338,1.338,0,0,0-24.566-4.7a6.284,6.284,0,0,0-1.777-.826,17.044,17.044,0,0,1-2.078-.826q-2.625-1.29-2.625-3.544a3.178,3.178,0,0,1,.654-1.981,4.23,4.23,0,0,1,1.851-1.336,7.2,7.2,0,0,1,2.69-.478,6.3,6.3,0,0,1,2.612.52,4.135,4.135,0,0,1,1.8,1.48A3.864,3.864,0,0,1-20.8-9.5h-3.247a1.633,1.633,0,0,0-.506-1.28,1.971,1.971,0,0,0-1.368-.455,2.222,2.222,0,0,0-1.378.385,1.181,1.181,0,0,0-.506.979,1.189,1.189,0,0,0,.557.942,7.02,7.02,0,0,0,1.958.872,11.991,11.991,0,0,1,2.3.969A3.866,3.866,0,0,1-20.8-3.609,3.3,3.3,0,0,1-22.14-.826,5.942,5.942,0,0,1-25.8.186,7.27,7.27,0,0,1-28.778-.4a4.483,4.483,0,0,1-2-1.614,4.206,4.206,0,0,1-.673-2.361h3.266a2.072,2.072,0,0,0,.561,1.6,2.653,2.653,0,0,0,1.823.515,2.1,2.1,0,0,0,1.276-.348A1.148,1.148,0,0,0-24.061-3.59Zm4.388-1.521a5.925,5.925,0,0,1,.584-2.677,4.18,4.18,0,0,1,1.679-1.8,5.057,5.057,0,0,1,2.57-.631,4.616,4.616,0,0,1,3.553,1.4,5.358,5.358,0,0,1,1.3,3.8v.111a5.2,5.2,0,0,1-1.3,3.725A4.628,4.628,0,0,1-14.821.186,4.681,4.681,0,0,1-18.262-1.1a5.026,5.026,0,0,1-1.4-3.484Zm3.126.195a3.735,3.735,0,0,0,.436,2.041,1.453,1.453,0,0,0,1.29.649q1.67,0,1.707-2.57v-.315q0-2.7-1.726-2.7-1.568,0-1.7,2.329Zm2.134-9.333h3.3l-2.579,2.913-2.551,0ZM-5.311,0H-8.447V-14.25h3.136ZM-.088,0H-3.224V-10.038H-.088ZM-3.409-12.636a1.408,1.408,0,0,1,.482-1.1,1.813,1.813,0,0,1,1.252-.429,1.813,1.813,0,0,1,1.252.429,1.408,1.408,0,0,1,.482,1.1,1.408,1.408,0,0,1-.482,1.1,1.813,1.813,0,0,1-1.252.429,1.813,1.813,0,0,1-1.252-.429A1.408,1.408,0,0,1-3.409-12.636ZM1.443-5.093a6.132,6.132,0,0,1,1.03-3.757,3.39,3.39,0,0,1,2.876-1.373A2.883,2.883,0,0,1,7.612-9.166V-14.25h3.136V0H7.937L7.779-1.076A2.96,2.96,0,0,1,5.33.186,3.383,3.383,0,0,1,2.491-1.187,6.326,6.326,0,0,1,1.443-5.093ZM4.569-4.9q0,2.672,1.559,2.672A1.539,1.539,0,0,0,7.612-3.1V-6.921a1.5,1.5,0,0,0-1.466-.891q-1.447,0-1.568,2.338Zm7.561-.213a5.925,5.925,0,0,1,.584-2.677,4.18,4.18,0,0,1,1.679-1.8,5.057,5.057,0,0,1,2.57-.631,4.616,4.616,0,0,1,3.553,1.4,5.358,5.358,0,0,1,1.3,3.8v.111a5.2,5.2,0,0,1-1.3,3.725A4.628,4.628,0,0,1,16.982.186,4.681,4.681,0,0,1,13.54-1.1a5.026,5.026,0,0,1-1.4-3.484Zm3.126.195a3.735,3.735,0,0,0,.436,2.041,1.453,1.453,0,0,0,1.29.649q1.67,0,1.707-2.57v-.315q0-2.7-1.726-2.7-1.568,0-1.7,2.329Zm13.192,2.1a.722.722,0,0,0-.417-.64,6.35,6.35,0,0,0-1.586-.5,7.234,7.234,0,0,1-1.93-.682,3.232,3.232,0,0,1-1.16-1.025,2.448,2.448,0,0,1-.4-1.382A2.774,2.774,0,0,1,24.1-9.328a4.7,4.7,0,0,1,2.987-.9,5.208,5.208,0,0,1,3.191.9,2.814,2.814,0,0,1,1.206,2.366H28.347q0-1.206-1.271-1.206a1.26,1.26,0,0,0-.826.274.847.847,0,0,0-.334.682.778.778,0,0,0,.408.677,3.857,3.857,0,0,0,1.3.427,11.264,11.264,0,0,1,1.573.4,2.857,2.857,0,0,1,2.264,2.792,2.629,2.629,0,0,1-1.22,2.236,5.35,5.35,0,0,1-3.159.863,5.46,5.46,0,0,1-2.3-.464A3.847,3.847,0,0,1,23.207-1.54a2.857,2.857,0,0,1-.566-1.679h2.922A1.208,1.208,0,0,0,26.028-2.2a1.908,1.908,0,0,0,1.141.32,1.5,1.5,0,0,0,.96-.26A.831.831,0,0,0,28.449-2.82ZM-24.891,8.466v2.5h1.651v2.171h-1.651v4.592a1.173,1.173,0,0,0,.2.789,1.1,1.1,0,0,0,.807.223,4.587,4.587,0,0,0,.779-.056v2.236a5.77,5.77,0,0,1-1.763.269,3.275,3.275,0,0,1-2.384-.761,3.118,3.118,0,0,1-.77-2.31V13.133H-29.3V10.962h1.28v-2.5Zm2.208,7.422a5.925,5.925,0,0,1,.584-2.677,4.18,4.18,0,0,1,1.679-1.8,5.057,5.057,0,0,1,2.57-.631,4.616,4.616,0,0,1,3.553,1.4,5.358,5.358,0,0,1,1.3,3.8v.111a5.2,5.2,0,0,1-1.3,3.725,4.628,4.628,0,0,1-3.53,1.378A4.681,4.681,0,0,1-21.273,19.9a5.026,5.026,0,0,1-1.4-3.484Zm3.126.195a3.735,3.735,0,0,0,.436,2.041,1.453,1.453,0,0,0,1.29.649q1.67,0,1.707-2.57v-.315q0-2.7-1.726-2.7-1.568,0-1.7,2.329ZM-7.979,8.466v2.5h1.651v2.171H-7.979v4.592a1.173,1.173,0,0,0,.2.789,1.1,1.1,0,0,0,.807.223,4.587,4.587,0,0,0,.779-.056v2.236a5.77,5.77,0,0,1-1.763.269,3.275,3.275,0,0,1-2.384-.761,3.118,3.118,0,0,1-.77-2.31V13.133h-1.28V10.962h1.28v-2.5ZM.557,21a3.53,3.53,0,0,1-.3-.9,2.907,2.907,0,0,1-2.412,1.085,3.562,3.562,0,0,1-2.412-.858,2.731,2.731,0,0,1-.993-2.157A2.807,2.807,0,0,1-4.351,15.7a6.144,6.144,0,0,1,3.507-.835H.121v-.531q0-1.389-1.2-1.389a.978.978,0,0,0-1.113,1.1H-5.316a2.8,2.8,0,0,1,1.239-2.363,5.2,5.2,0,0,1,3.159-.908,4.563,4.563,0,0,1,3.034.937,3.258,3.258,0,0,1,1.141,2.57v4.444a4.551,4.551,0,0,0,.427,2.115V21ZM-1.4,18.959a1.744,1.744,0,0,0,.969-.25,1.57,1.57,0,0,0,.552-.566v-1.6H-.789q-1.633,0-1.633,1.466a.9.9,0,0,0,.288.691A1.041,1.041,0,0,0-1.4,18.959ZM8.285,21H5.149V6.75H8.285Zm6.782.186a5.16,5.16,0,0,1-3.739-1.378A4.757,4.757,0,0,1,9.9,16.222v-.26a6.165,6.165,0,0,1,.571-2.718,4.175,4.175,0,0,1,1.665-1.823,5.027,5.027,0,0,1,2.6-.645,4.345,4.345,0,0,1,3.34,1.313,5.159,5.159,0,0,1,1.225,3.66v1.215H13.081a2.253,2.253,0,0,0,.733,1.327,2.181,2.181,0,0,0,1.466.482A2.81,2.81,0,0,0,17.6,17.734l1.429,1.688a3.994,3.994,0,0,1-1.656,1.285A5.6,5.6,0,0,1,15.066,21.186Zm-.353-8q-1.373,0-1.633,1.818h3.154v-.241a1.549,1.549,0,0,0-.38-1.164A1.514,1.514,0,0,0,14.714,13.188Zm11.1,4.991a.722.722,0,0,0-.417-.64,6.35,6.35,0,0,0-1.586-.5,7.234,7.234,0,0,1-1.93-.682,3.232,3.232,0,0,1-1.16-1.025,2.448,2.448,0,0,1-.4-1.382,2.774,2.774,0,0,1,1.141-2.278,4.7,4.7,0,0,1,2.987-.9,5.208,5.208,0,0,1,3.191.9,2.814,2.814,0,0,1,1.206,2.366H25.708q0-1.206-1.271-1.206a1.26,1.26,0,0,0-.826.274.847.847,0,0,0-.334.682.778.778,0,0,0,.408.677,3.857,3.857,0,0,0,1.3.427,11.264,11.264,0,0,1,1.573.4,2.857,2.857,0,0,1,2.264,2.792,2.629,2.629,0,0,1-1.22,2.236,5.35,5.35,0,0,1-3.159.863,5.46,5.46,0,0,1-2.3-.464,3.847,3.847,0,0,1-1.577-1.262A2.857,2.857,0,0,1,20,17.781h2.922a1.208,1.208,0,0,0,.464,1.016,1.908,1.908,0,0,0,1.141.32,1.5,1.5,0,0,0,.96-.26A.831.831,0,0,0,25.81,18.18Z" transform="translate(653 26919)" fill="#12263f"/>
    <path id="Trazado_733827" data-name="Trazado 733827" d="M-25.327-3.779a1.408,1.408,0,0,0-.532-1.172,6.615,6.615,0,0,0-1.87-.869,17.941,17.941,0,0,1-2.187-.869q-2.764-1.357-2.764-3.73a3.345,3.345,0,0,1,.688-2.085,4.453,4.453,0,0,1,1.948-1.406,7.582,7.582,0,0,1,2.832-.5,6.632,6.632,0,0,1,2.749.547,4.352,4.352,0,0,1,1.89,1.558A4.068,4.068,0,0,1-21.9-10h-3.418a1.719,1.719,0,0,0-.532-1.348,2.075,2.075,0,0,0-1.44-.479,2.339,2.339,0,0,0-1.45.405,1.243,1.243,0,0,0-.532,1.03,1.252,1.252,0,0,0,.586.991,7.389,7.389,0,0,0,2.061.918A12.623,12.623,0,0,1-24.2-7.461,4.07,4.07,0,0,1-21.9-3.8a3.472,3.472,0,0,1-1.406,2.93A6.255,6.255,0,0,1-27.163.2a7.653,7.653,0,0,1-3.13-.62,4.719,4.719,0,0,1-2.109-1.7,4.428,4.428,0,0,1-.708-2.485h3.438a2.181,2.181,0,0,0,.591,1.685,2.793,2.793,0,0,0,1.919.542,2.206,2.206,0,0,0,1.343-.366A1.209,1.209,0,0,0-25.327-3.779Zm4.619-1.6A6.236,6.236,0,0,1-20.093-8.2a4.4,4.4,0,0,1,1.768-1.9,5.323,5.323,0,0,1,2.705-.664,4.858,4.858,0,0,1,3.74,1.47,5.64,5.64,0,0,1,1.367,4v.117a5.472,5.472,0,0,1-1.372,3.921A4.871,4.871,0,0,1-15.6.2a4.927,4.927,0,0,1-3.623-1.353A5.29,5.29,0,0,1-20.7-4.824Zm3.291.205a3.932,3.932,0,0,0,.459,2.148,1.529,1.529,0,0,0,1.357.684q1.758,0,1.8-2.705v-.332q0-2.842-1.816-2.842-1.65,0-1.787,2.451ZM-15.171-15h3.477l-2.715,3.066-2.686,0Zm9.58,15h-3.3V-15h3.3Zm5.5,0h-3.3V-10.566h3.3Zm-3.5-13.3a1.482,1.482,0,0,1,.508-1.159,1.909,1.909,0,0,1,1.318-.452,1.909,1.909,0,0,1,1.318.452A1.482,1.482,0,0,1,.063-13.3a1.482,1.482,0,0,1-.508,1.159,1.909,1.909,0,0,1-1.318.452,1.909,1.909,0,0,1-1.318-.452A1.482,1.482,0,0,1-3.589-13.3ZM1.519-5.361A6.455,6.455,0,0,1,2.6-9.316,3.568,3.568,0,0,1,5.63-10.762,3.035,3.035,0,0,1,8.013-9.648V-15h3.3V0H8.354L8.188-1.133A3.116,3.116,0,0,1,5.61.2,3.562,3.562,0,0,1,2.622-1.25,6.659,6.659,0,0,1,1.519-5.361Zm3.291.205q0,2.813,1.641,2.813a1.62,1.62,0,0,0,1.563-.918V-7.285A1.576,1.576,0,0,0,6.47-8.223q-1.523,0-1.65,2.461Zm7.959-.225A6.236,6.236,0,0,1,13.384-8.2a4.4,4.4,0,0,1,1.768-1.9,5.323,5.323,0,0,1,2.705-.664,4.858,4.858,0,0,1,3.74,1.47,5.64,5.64,0,0,1,1.367,4v.117a5.472,5.472,0,0,1-1.372,3.921A4.871,4.871,0,0,1,17.876.2a4.927,4.927,0,0,1-3.623-1.353,5.29,5.29,0,0,1-1.475-3.667Zm3.291.205a3.932,3.932,0,0,0,.459,2.148,1.529,1.529,0,0,0,1.357.684q1.758,0,1.8-2.705v-.332q0-2.842-1.816-2.842-1.65,0-1.787,2.451ZM29.946-2.969a.76.76,0,0,0-.439-.674,6.685,6.685,0,0,0-1.67-.527,7.615,7.615,0,0,1-2.031-.718,3.4,3.4,0,0,1-1.221-1.079,2.577,2.577,0,0,1-.42-1.455,2.92,2.92,0,0,1,1.2-2.4,4.948,4.948,0,0,1,3.145-.942,5.482,5.482,0,0,1,3.359.947,2.962,2.962,0,0,1,1.27,2.49h-3.3q0-1.27-1.338-1.27a1.326,1.326,0,0,0-.869.288.892.892,0,0,0-.352.718.819.819,0,0,0,.43.713,4.06,4.06,0,0,0,1.372.449,11.857,11.857,0,0,1,1.655.42A3.007,3.007,0,0,1,33.12-3.066,2.767,2.767,0,0,1,31.836-.713,5.631,5.631,0,0,1,28.511.2a5.747,5.747,0,0,1-2.422-.488,4.05,4.05,0,0,1-1.66-1.328,3.007,3.007,0,0,1-.6-1.768h3.076A1.272,1.272,0,0,0,27.4-2.319a2.009,2.009,0,0,0,1.2.337,1.58,1.58,0,0,0,1.011-.273A.875.875,0,0,0,29.946-2.969Zm-89.814,22a.76.76,0,0,0-.439-.674,6.684,6.684,0,0,0-1.67-.527,7.615,7.615,0,0,1-2.031-.718,3.4,3.4,0,0,1-1.221-1.079,2.577,2.577,0,0,1-.42-1.455,2.92,2.92,0,0,1,1.2-2.4,4.948,4.948,0,0,1,3.145-.942,5.482,5.482,0,0,1,3.359.947,2.962,2.962,0,0,1,1.27,2.49h-3.3q0-1.27-1.338-1.27a1.326,1.326,0,0,0-.869.288.892.892,0,0,0-.352.718.819.819,0,0,0,.43.713,4.06,4.06,0,0,0,1.372.449,11.857,11.857,0,0,1,1.655.42,3.007,3.007,0,0,1,2.383,2.939,2.767,2.767,0,0,1-1.284,2.354A5.632,5.632,0,0,1-61.3,22.2a5.747,5.747,0,0,1-2.422-.488,4.05,4.05,0,0,1-1.66-1.328,3.007,3.007,0,0,1-.6-1.768h3.076a1.272,1.272,0,0,0,.488,1.069,2.009,2.009,0,0,0,1.2.337,1.58,1.58,0,0,0,1.011-.273A.875.875,0,0,0-59.868,19.031Zm9.824,3.164a5.432,5.432,0,0,1-3.936-1.45,5.008,5.008,0,0,1-1.5-3.774V16.7a6.489,6.489,0,0,1,.6-2.861,4.395,4.395,0,0,1,1.753-1.919,5.292,5.292,0,0,1,2.734-.679A4.574,4.574,0,0,1-46.88,12.62a5.43,5.43,0,0,1,1.289,3.853v1.279h-6.543a2.372,2.372,0,0,0,.771,1.4,2.3,2.3,0,0,0,1.543.508,2.958,2.958,0,0,0,2.441-1.094l1.5,1.777a4.2,4.2,0,0,1-1.743,1.353A5.891,5.891,0,0,1-50.044,22.2Zm-.371-8.418q-1.445,0-1.719,1.914h3.32v-.254a1.63,1.63,0,0,0-.4-1.226A1.593,1.593,0,0,0-50.415,13.777Zm5.732,2.861A6.455,6.455,0,0,1-43.6,12.684a3.568,3.568,0,0,1,3.027-1.445,3.035,3.035,0,0,1,2.383,1.113V7h3.3V22h-2.959l-.166-1.133A3.116,3.116,0,0,1-40.591,22.2a3.562,3.562,0,0,1-2.988-1.445A6.659,6.659,0,0,1-44.683,16.639Zm3.291.205q0,2.813,1.641,2.813a1.62,1.62,0,0,0,1.563-.918V14.715a1.576,1.576,0,0,0-1.543-.937q-1.523,0-1.65,2.461ZM-29.546,22h-3.3V11.434h3.3Zm-3.5-13.3a1.482,1.482,0,0,1,.508-1.159,1.909,1.909,0,0,1,1.318-.452A1.909,1.909,0,0,1-29.9,7.54,1.482,1.482,0,0,1-29.39,8.7,1.482,1.482,0,0,1-29.9,9.859a1.909,1.909,0,0,1-1.318.452,1.909,1.909,0,0,1-1.318-.452A1.482,1.482,0,0,1-33.042,8.7Zm8.633,2.734.107,1.24a3.633,3.633,0,0,1,3.018-1.436,2.675,2.675,0,0,1,2.705,1.592,3.517,3.517,0,0,1,3.105-1.592q3.213,0,3.3,3.887V22h-3.3V15.33a2.014,2.014,0,0,0-.273-1.182,1.164,1.164,0,0,0-1-.371,1.559,1.559,0,0,0-1.455.869l.01.137V22h-3.3V15.35a2.117,2.117,0,0,0-.264-1.2,1.161,1.161,0,0,0-1.006-.371,1.578,1.578,0,0,0-1.445.869V22H-27.5V11.434ZM-5.181,22.2a5.432,5.432,0,0,1-3.936-1.45,5.008,5.008,0,0,1-1.5-3.774V16.7a6.489,6.489,0,0,1,.6-2.861,4.395,4.395,0,0,1,1.753-1.919,5.292,5.292,0,0,1,2.734-.679A4.574,4.574,0,0,1-2.017,12.62,5.43,5.43,0,0,1-.728,16.473v1.279H-7.271a2.372,2.372,0,0,0,.771,1.4,2.3,2.3,0,0,0,1.543.508,2.958,2.958,0,0,0,2.441-1.094l1.5,1.777a4.2,4.2,0,0,1-1.743,1.353A5.891,5.891,0,0,1-5.181,22.2Zm-.371-8.418q-1.445,0-1.719,1.914h3.32v-.254a1.63,1.63,0,0,0-.4-1.226A1.593,1.593,0,0,0-5.552,13.777Zm9.17-2.344.107,1.24a3.583,3.583,0,0,1,3.018-1.436,3.015,3.015,0,0,1,2.466.986,4.7,4.7,0,0,1,.845,2.969V22h-3.3V15.33a1.783,1.783,0,0,0-.322-1.177,1.491,1.491,0,0,0-1.172-.376,1.569,1.569,0,0,0-1.436.762V22H.532V11.434Zm12.09-2.627v2.627h1.738v2.285H15.708v4.834a1.234,1.234,0,0,0,.215.83,1.152,1.152,0,0,0,.85.234,4.828,4.828,0,0,0,.82-.059v2.354a6.074,6.074,0,0,1-1.855.283,3.448,3.448,0,0,1-2.51-.8,3.282,3.282,0,0,1-.811-2.432V13.719H11.069V11.434h1.348V8.807ZM24.692,22a3.716,3.716,0,0,1-.312-.947A3.06,3.06,0,0,1,21.841,22.2a3.749,3.749,0,0,1-2.539-.9,2.875,2.875,0,0,1-1.045-2.271,2.955,2.955,0,0,1,1.27-2.6,6.468,6.468,0,0,1,3.691-.879h1.016v-.559q0-1.462-1.26-1.462A1.03,1.03,0,0,0,21.8,14.681H18.511a2.95,2.95,0,0,1,1.3-2.487,5.479,5.479,0,0,1,3.325-.956,4.8,4.8,0,0,1,3.193.986,3.429,3.429,0,0,1,1.2,2.705v4.678a4.79,4.79,0,0,0,.449,2.227V22Zm-2.061-2.148a1.836,1.836,0,0,0,1.021-.264,1.653,1.653,0,0,0,.581-.6V17.3h-.957q-1.719,0-1.719,1.543a.942.942,0,0,0,.3.728A1.1,1.1,0,0,0,22.632,19.852ZM39.165,16.8A6.44,6.44,0,0,1,38.091,20.8a3.6,3.6,0,0,1-3.027,1.4,3.122,3.122,0,0,1-2.6-1.279L32.329,22H29.38V7h3.291v5.283a3.013,3.013,0,0,1,2.373-1.045,3.6,3.6,0,0,1,3.047,1.416,6.473,6.473,0,0,1,1.074,3.984Zm-3.3-.21a4.3,4.3,0,0,0-.405-2.169,1.366,1.366,0,0,0-1.245-.648,1.576,1.576,0,0,0-1.543.848v4.192a1.585,1.585,0,0,0,1.563.838,1.4,1.4,0,0,0,1.475-1.131A8.121,8.121,0,0,0,35.864,16.595ZM44.087,22h-3.3V7h3.3Zm7.139.2a5.432,5.432,0,0,1-3.936-1.45,5.008,5.008,0,0,1-1.5-3.774V16.7a6.489,6.489,0,0,1,.6-2.861,4.395,4.395,0,0,1,1.753-1.919,5.292,5.292,0,0,1,2.734-.679A4.574,4.574,0,0,1,54.39,12.62a5.43,5.43,0,0,1,1.289,3.853v1.279H49.136a2.372,2.372,0,0,0,.771,1.4,2.3,2.3,0,0,0,1.543.508,2.958,2.958,0,0,0,2.441-1.094l1.5,1.777a4.2,4.2,0,0,1-1.743,1.353A5.891,5.891,0,0,1,51.226,22.2Zm-.371-8.418q-1.445,0-1.719,1.914h3.32v-.254a1.63,1.63,0,0,0-.4-1.226A1.593,1.593,0,0,0,50.854,13.777Zm11.68,5.254a.76.76,0,0,0-.439-.674,6.684,6.684,0,0,0-1.67-.527,7.615,7.615,0,0,1-2.031-.718,3.4,3.4,0,0,1-1.221-1.079,2.577,2.577,0,0,1-.42-1.455,2.92,2.92,0,0,1,1.2-2.4,4.948,4.948,0,0,1,3.145-.942,5.482,5.482,0,0,1,3.359.947,2.962,2.962,0,0,1,1.27,2.49h-3.3q0-1.27-1.338-1.27a1.326,1.326,0,0,0-.869.288.892.892,0,0,0-.352.718.819.819,0,0,0,.43.713,4.06,4.06,0,0,0,1.372.449,11.857,11.857,0,0,1,1.655.42,3.007,3.007,0,0,1,2.383,2.939,2.767,2.767,0,0,1-1.284,2.354A5.632,5.632,0,0,1,61.1,22.2a5.747,5.747,0,0,1-2.422-.488,4.05,4.05,0,0,1-1.66-1.328,3.007,3.007,0,0,1-.6-1.768H59.5a1.272,1.272,0,0,0,.488,1.069,2.009,2.009,0,0,0,1.2.337,1.58,1.58,0,0,0,1.011-.273A.875.875,0,0,0,62.534,19.031Z" transform="translate(839 26872)" fill="#12263f"/>
    <path id="Trazado_733828" data-name="Trazado 733828" d="M-43.45-10.994H-47.5V0h-3.256V-10.994h-3.98v-2.514H-43.45ZM-38.19.186a5.16,5.16,0,0,1-3.739-1.378,4.757,4.757,0,0,1-1.429-3.586v-.26a6.165,6.165,0,0,1,.571-2.718,4.175,4.175,0,0,1,1.665-1.823,5.027,5.027,0,0,1,2.6-.645,4.345,4.345,0,0,1,3.34,1.313,5.159,5.159,0,0,1,1.225,3.66v1.215h-6.216a2.253,2.253,0,0,0,.733,1.327,2.181,2.181,0,0,0,1.466.482,2.81,2.81,0,0,0,2.319-1.039l1.429,1.688A3.994,3.994,0,0,1-35.885-.292,5.6,5.6,0,0,1-38.19.186Zm-.353-8q-1.373,0-1.633,1.818h3.154v-.241A1.549,1.549,0,0,0-37.4-7.4,1.514,1.514,0,0,0-38.543-7.812Zm8.795-2.227.1,1.178a3.451,3.451,0,0,1,2.867-1.364,2.541,2.541,0,0,1,2.57,1.512,3.341,3.341,0,0,1,2.95-1.512q3.052,0,3.136,3.692V0h-3.136V-6.336a1.914,1.914,0,0,0-.26-1.123,1.106,1.106,0,0,0-.946-.353,1.481,1.481,0,0,0-1.382.826l.009.13V0h-3.136V-6.318a2.011,2.011,0,0,0-.25-1.141,1.1,1.1,0,0,0-.956-.353,1.5,1.5,0,0,0-1.373.826V0h-3.126V-10.038ZM-7.018-4.945A6.053,6.053,0,0,1-8.071-1.211a3.376,3.376,0,0,1-2.844,1.4A2.894,2.894,0,0,1-13.188-.826V3.859h-3.126v-13.9h2.922l.093.928a2.894,2.894,0,0,1,2.366-1.113A3.4,3.4,0,0,1-8.048-8.855a6.128,6.128,0,0,1,1.03,3.762Zm-3.126-.195q0-2.672-1.559-2.672a1.471,1.471,0,0,0-1.484.8v3.952a1.519,1.519,0,0,0,1.5.835q1.494,0,1.54-2.579ZM-.784.186A5.16,5.16,0,0,1-4.523-1.192,4.757,4.757,0,0,1-5.951-4.778v-.26a6.165,6.165,0,0,1,.571-2.718A4.175,4.175,0,0,1-3.716-9.579a5.027,5.027,0,0,1,2.6-.645,4.345,4.345,0,0,1,3.34,1.313,5.159,5.159,0,0,1,1.225,3.66v1.215H-2.769a2.253,2.253,0,0,0,.733,1.327,2.181,2.181,0,0,0,1.466.482A2.81,2.81,0,0,0,1.749-3.266L3.177-1.577A3.994,3.994,0,0,1,1.521-.292,5.6,5.6,0,0,1-.784.186Zm-.353-8q-1.373,0-1.633,1.818H.385v-.241A1.549,1.549,0,0,0,0-7.4,1.514,1.514,0,0,0-1.136-7.812Zm11.912.6-1.03-.074a1.85,1.85,0,0,0-1.893.928V0H4.727V-10.038H7.658l.1,1.29a2.421,2.421,0,0,1,2.2-1.475,3.049,3.049,0,0,1,.872.111ZM17.279,0a3.53,3.53,0,0,1-.3-.9A2.907,2.907,0,0,1,14.57.186a3.562,3.562,0,0,1-2.412-.858,2.731,2.731,0,0,1-.993-2.157A2.807,2.807,0,0,1,12.371-5.3a6.144,6.144,0,0,1,3.507-.835h.965v-.531q0-1.389-1.2-1.389a.978.978,0,0,0-1.113,1.1H11.406a2.8,2.8,0,0,1,1.239-2.363,5.2,5.2,0,0,1,3.159-.908,4.563,4.563,0,0,1,3.034.937,3.258,3.258,0,0,1,1.141,2.57v4.444a4.551,4.551,0,0,0,.427,2.115V0ZM15.322-2.041a1.744,1.744,0,0,0,.969-.25,1.57,1.57,0,0,0,.552-.566v-1.6h-.909Q14.3-4.462,14.3-3a.9.9,0,0,0,.288.691A1.041,1.041,0,0,0,15.322-2.041ZM25.35-12.534v2.5H27v2.171H25.35v4.592a1.173,1.173,0,0,0,.2.789,1.1,1.1,0,0,0,.807.223,4.587,4.587,0,0,0,.779-.056V-.083a5.77,5.77,0,0,1-1.763.269,3.275,3.275,0,0,1-2.384-.761,3.118,3.118,0,0,1-.77-2.31V-7.867h-1.28v-2.171h1.28v-2.5ZM34.21-1.085A3.223,3.223,0,0,1,31.529.186a3.161,3.161,0,0,1-2.5-.96,4.038,4.038,0,0,1-.849-2.76v-6.5h3.126v6.522a1.124,1.124,0,0,0,1.252,1.29A1.634,1.634,0,0,0,34.09-3v-7.042h3.145V0H34.3ZM45.018-7.208l-1.03-.074a1.85,1.85,0,0,0-1.893.928V0H38.969V-10.038H41.9l.1,1.29a2.421,2.421,0,0,1,2.2-1.475,3.049,3.049,0,0,1,.872.111ZM51.522,0a3.53,3.53,0,0,1-.3-.9A2.907,2.907,0,0,1,48.813.186,3.562,3.562,0,0,1,46.4-.673a2.731,2.731,0,0,1-.993-2.157A2.807,2.807,0,0,1,46.614-5.3a6.144,6.144,0,0,1,3.507-.835h.965v-.531q0-1.389-1.2-1.389a.978.978,0,0,0-1.113,1.1H45.649a2.8,2.8,0,0,1,1.239-2.363,5.2,5.2,0,0,1,3.159-.908,4.563,4.563,0,0,1,3.034.937,3.258,3.258,0,0,1,1.141,2.57v4.444a4.551,4.551,0,0,0,.427,2.115V0ZM49.564-2.041a1.744,1.744,0,0,0,.969-.25,1.57,1.57,0,0,0,.552-.566v-1.6h-.909q-1.633,0-1.633,1.466a.9.9,0,0,0,.288.691A1.041,1.041,0,0,0,49.564-2.041Z" transform="translate(1021 26835)" fill="#12263f"/>
    <path id="Trazado_733829" data-name="Trazado 733829" d="M-25.327-3.779a1.408,1.408,0,0,0-.532-1.172,6.615,6.615,0,0,0-1.87-.869,17.941,17.941,0,0,1-2.187-.869q-2.764-1.357-2.764-3.73a3.345,3.345,0,0,1,.688-2.085,4.453,4.453,0,0,1,1.948-1.406,7.582,7.582,0,0,1,2.832-.5,6.632,6.632,0,0,1,2.749.547,4.352,4.352,0,0,1,1.89,1.558A4.068,4.068,0,0,1-21.9-10h-3.418a1.719,1.719,0,0,0-.532-1.348,2.075,2.075,0,0,0-1.44-.479,2.339,2.339,0,0,0-1.45.405,1.243,1.243,0,0,0-.532,1.03,1.252,1.252,0,0,0,.586.991,7.389,7.389,0,0,0,2.061.918A12.623,12.623,0,0,1-24.2-7.461,4.07,4.07,0,0,1-21.9-3.8a3.472,3.472,0,0,1-1.406,2.93A6.255,6.255,0,0,1-27.163.2a7.653,7.653,0,0,1-3.13-.62,4.719,4.719,0,0,1-2.109-1.7,4.428,4.428,0,0,1-.708-2.485h3.438a2.181,2.181,0,0,0,.591,1.685,2.793,2.793,0,0,0,1.919.542,2.206,2.206,0,0,0,1.343-.366A1.209,1.209,0,0,0-25.327-3.779Zm4.619-1.6A6.236,6.236,0,0,1-20.093-8.2a4.4,4.4,0,0,1,1.768-1.9,5.323,5.323,0,0,1,2.705-.664,4.858,4.858,0,0,1,3.74,1.47,5.64,5.64,0,0,1,1.367,4v.117a5.472,5.472,0,0,1-1.372,3.921A4.871,4.871,0,0,1-15.6.2a4.927,4.927,0,0,1-3.623-1.353A5.29,5.29,0,0,1-20.7-4.824Zm3.291.205a3.932,3.932,0,0,0,.459,2.148,1.529,1.529,0,0,0,1.357.684q1.758,0,1.8-2.705v-.332q0-2.842-1.816-2.842-1.65,0-1.787,2.451ZM-15.171-15h3.477l-2.715,3.066-2.686,0Zm9.58,15h-3.3V-15h3.3Zm5.5,0h-3.3V-10.566h3.3Zm-3.5-13.3a1.482,1.482,0,0,1,.508-1.159,1.909,1.909,0,0,1,1.318-.452,1.909,1.909,0,0,1,1.318.452A1.482,1.482,0,0,1,.063-13.3a1.482,1.482,0,0,1-.508,1.159,1.909,1.909,0,0,1-1.318.452,1.909,1.909,0,0,1-1.318-.452A1.482,1.482,0,0,1-3.589-13.3ZM1.519-5.361A6.455,6.455,0,0,1,2.6-9.316,3.568,3.568,0,0,1,5.63-10.762,3.035,3.035,0,0,1,8.013-9.648V-15h3.3V0H8.354L8.188-1.133A3.116,3.116,0,0,1,5.61.2,3.562,3.562,0,0,1,2.622-1.25,6.659,6.659,0,0,1,1.519-5.361Zm3.291.205q0,2.813,1.641,2.813a1.62,1.62,0,0,0,1.563-.918V-7.285A1.576,1.576,0,0,0,6.47-8.223q-1.523,0-1.65,2.461Zm7.959-.225A6.236,6.236,0,0,1,13.384-8.2a4.4,4.4,0,0,1,1.768-1.9,5.323,5.323,0,0,1,2.705-.664,4.858,4.858,0,0,1,3.74,1.47,5.64,5.64,0,0,1,1.367,4v.117a5.472,5.472,0,0,1-1.372,3.921A4.871,4.871,0,0,1,17.876.2a4.927,4.927,0,0,1-3.623-1.353,5.29,5.29,0,0,1-1.475-3.667Zm3.291.205a3.932,3.932,0,0,0,.459,2.148,1.529,1.529,0,0,0,1.357.684q1.758,0,1.8-2.705v-.332q0-2.842-1.816-2.842-1.65,0-1.787,2.451ZM29.946-2.969a.76.76,0,0,0-.439-.674,6.685,6.685,0,0,0-1.67-.527,7.615,7.615,0,0,1-2.031-.718,3.4,3.4,0,0,1-1.221-1.079,2.577,2.577,0,0,1-.42-1.455,2.92,2.92,0,0,1,1.2-2.4,4.948,4.948,0,0,1,3.145-.942,5.482,5.482,0,0,1,3.359.947,2.962,2.962,0,0,1,1.27,2.49h-3.3q0-1.27-1.338-1.27a1.326,1.326,0,0,0-.869.288.892.892,0,0,0-.352.718.819.819,0,0,0,.43.713,4.06,4.06,0,0,0,1.372.449,11.857,11.857,0,0,1,1.655.42A3.007,3.007,0,0,1,33.12-3.066,2.767,2.767,0,0,1,31.836-.713,5.631,5.631,0,0,1,28.511.2a5.747,5.747,0,0,1-2.422-.488,4.05,4.05,0,0,1-1.66-1.328,3.007,3.007,0,0,1-.6-1.768h3.076A1.272,1.272,0,0,0,27.4-2.319a2.009,2.009,0,0,0,1.2.337,1.58,1.58,0,0,0,1.011-.273A.875.875,0,0,0,29.946-2.969Zm-80.825,22a.76.76,0,0,0-.439-.674,6.684,6.684,0,0,0-1.67-.527,7.615,7.615,0,0,1-2.031-.718,3.4,3.4,0,0,1-1.221-1.079,2.577,2.577,0,0,1-.42-1.455,2.92,2.92,0,0,1,1.2-2.4,4.948,4.948,0,0,1,3.145-.942,5.482,5.482,0,0,1,3.359.947,2.962,2.962,0,0,1,1.27,2.49h-3.3q0-1.27-1.338-1.27a1.326,1.326,0,0,0-.869.288.892.892,0,0,0-.352.718.819.819,0,0,0,.43.713,4.06,4.06,0,0,0,1.372.449,11.857,11.857,0,0,1,1.655.42,3.007,3.007,0,0,1,2.383,2.939,2.767,2.767,0,0,1-1.284,2.354,5.632,5.632,0,0,1-3.325.908,5.747,5.747,0,0,1-2.422-.488,4.05,4.05,0,0,1-1.66-1.328,3.007,3.007,0,0,1-.6-1.768h3.076a1.272,1.272,0,0,0,.488,1.069,2.009,2.009,0,0,0,1.2.337,1.58,1.58,0,0,0,1.011-.273A.875.875,0,0,0-50.879,19.031Zm11.006,1.826A3.393,3.393,0,0,1-42.7,22.2a3.328,3.328,0,0,1-2.632-1.011,4.251,4.251,0,0,1-.894-2.905V11.434h3.291V18.3a1.183,1.183,0,0,0,1.318,1.357A1.72,1.72,0,0,0-40,18.846V11.434h3.311V22h-3.086Zm10.518-1.826a.76.76,0,0,0-.439-.674,6.684,6.684,0,0,0-1.67-.527,7.615,7.615,0,0,1-2.031-.718,3.4,3.4,0,0,1-1.221-1.079,2.577,2.577,0,0,1-.42-1.455,2.92,2.92,0,0,1,1.2-2.4,4.948,4.948,0,0,1,3.145-.942,5.482,5.482,0,0,1,3.359.947,2.962,2.962,0,0,1,1.27,2.49h-3.3q0-1.27-1.338-1.27a1.326,1.326,0,0,0-.869.288.892.892,0,0,0-.352.718.819.819,0,0,0,.43.713,4.06,4.06,0,0,0,1.372.449,11.857,11.857,0,0,1,1.655.42,3.007,3.007,0,0,1,2.383,2.939,2.767,2.767,0,0,1-1.284,2.354,5.631,5.631,0,0,1-3.325.908,5.747,5.747,0,0,1-2.422-.488,4.05,4.05,0,0,1-1.66-1.328,3.007,3.007,0,0,1-.6-1.768h3.076a1.272,1.272,0,0,0,.488,1.069,2.009,2.009,0,0,0,1.2.337,1.58,1.58,0,0,0,1.011-.273A.875.875,0,0,0-29.355,19.031Zm14.521-2.236a6.372,6.372,0,0,1-1.108,3.931,3.554,3.554,0,0,1-2.993,1.47,3.046,3.046,0,0,1-2.393-1.064v4.932h-3.291V11.434h3.076l.1.977a3.046,3.046,0,0,1,2.49-1.172,3.582,3.582,0,0,1,3.037,1.44,6.45,6.45,0,0,1,1.084,3.96Zm-3.291-.205q0-2.812-1.641-2.812a1.549,1.549,0,0,0-1.562.84v4.16a1.6,1.6,0,0,0,1.582.879q1.572,0,1.621-2.715ZM-8.271,22.2a5.432,5.432,0,0,1-3.936-1.45,5.008,5.008,0,0,1-1.5-3.774V16.7a6.489,6.489,0,0,1,.6-2.861,4.395,4.395,0,0,1,1.753-1.919,5.292,5.292,0,0,1,2.734-.679A4.574,4.574,0,0,1-5.107,12.62a5.43,5.43,0,0,1,1.289,3.853v1.279h-6.543a2.372,2.372,0,0,0,.771,1.4,2.3,2.3,0,0,0,1.543.508,2.958,2.958,0,0,0,2.441-1.094l1.5,1.777a4.2,4.2,0,0,1-1.743,1.353A5.891,5.891,0,0,1-8.271,22.2Zm-.371-8.418q-1.445,0-1.719,1.914h3.32v-.254a1.63,1.63,0,0,0-.4-1.226A1.593,1.593,0,0,0-8.643,13.777Zm9.17-2.344.107,1.24a3.583,3.583,0,0,1,3.018-1.436,3.015,3.015,0,0,1,2.466.986,4.7,4.7,0,0,1,.845,2.969V22h-3.3V15.33a1.783,1.783,0,0,0-.322-1.177,1.491,1.491,0,0,0-1.172-.376,1.569,1.569,0,0,0-1.436.762V22H-2.559V11.434Zm7.842,5.205a6.455,6.455,0,0,1,1.084-3.955,3.568,3.568,0,0,1,3.027-1.445,3.035,3.035,0,0,1,2.383,1.113V7h3.3V22H15.205l-.166-1.133A3.116,3.116,0,0,1,12.461,22.2,3.562,3.562,0,0,1,9.473,20.75,6.659,6.659,0,0,1,8.369,16.639Zm3.291.205q0,2.813,1.641,2.813a1.62,1.62,0,0,0,1.563-.918V14.715a1.576,1.576,0,0,0-1.543-.937q-1.523,0-1.65,2.461ZM23.506,22h-3.3V11.434h3.3ZM20.01,8.7a1.482,1.482,0,0,1,.508-1.159,2.149,2.149,0,0,1,2.637,0,1.577,1.577,0,0,1,0,2.319,2.149,2.149,0,0,1-2.637,0A1.482,1.482,0,0,1,20.01,8.7Zm5.107,7.939A6.455,6.455,0,0,1,26.2,12.684a3.568,3.568,0,0,1,3.027-1.445,3.035,3.035,0,0,1,2.383,1.113V7h3.3V22H31.953l-.166-1.133A3.116,3.116,0,0,1,29.209,22.2a3.562,3.562,0,0,1-2.988-1.445A6.659,6.659,0,0,1,25.117,16.639Zm3.291.205q0,2.813,1.641,2.813a1.62,1.62,0,0,0,1.563-.918V14.715a1.576,1.576,0,0,0-1.543-.937q-1.523,0-1.65,2.461Zm7.959-.225a6.236,6.236,0,0,1,.615-2.817,4.4,4.4,0,0,1,1.768-1.9,5.323,5.323,0,0,1,2.705-.664,4.858,4.858,0,0,1,3.74,1.47,5.64,5.64,0,0,1,1.367,4v.117a5.472,5.472,0,0,1-1.372,3.921,4.871,4.871,0,0,1-3.716,1.45,4.927,4.927,0,0,1-3.623-1.353,5.29,5.29,0,0,1-1.475-3.667Zm3.291.205a3.932,3.932,0,0,0,.459,2.148,1.529,1.529,0,0,0,1.357.684q1.758,0,1.8-2.705v-.332q0-2.842-1.816-2.842-1.65,0-1.787,2.451Zm13.887,2.207a.76.76,0,0,0-.439-.674,6.684,6.684,0,0,0-1.67-.527,7.615,7.615,0,0,1-2.031-.718,3.4,3.4,0,0,1-1.221-1.079,2.577,2.577,0,0,1-.42-1.455,2.92,2.92,0,0,1,1.2-2.4,4.948,4.948,0,0,1,3.145-.942,5.482,5.482,0,0,1,3.359.947,2.962,2.962,0,0,1,1.27,2.49h-3.3q0-1.27-1.338-1.27a1.326,1.326,0,0,0-.869.288.892.892,0,0,0-.352.718.819.819,0,0,0,.43.713,4.06,4.06,0,0,0,1.372.449,11.857,11.857,0,0,1,1.655.42,3.007,3.007,0,0,1,2.383,2.939,2.767,2.767,0,0,1-1.284,2.354,5.632,5.632,0,0,1-3.325.908,5.747,5.747,0,0,1-2.422-.488,4.05,4.05,0,0,1-1.66-1.328,3.007,3.007,0,0,1-.6-1.768h3.076A1.272,1.272,0,0,0,51,19.681a2.009,2.009,0,0,0,1.2.337,1.58,1.58,0,0,0,1.011-.273A.875.875,0,0,0,53.545,19.031Z" transform="translate(668 27053)" fill="#12263f"/>
    <g id="Trazado_733830" data-name="Trazado 733830" transform="translate(787 26984)" fill="#fff">
      <path d="M 132.5 50.5 L 1.5 50.5 L 1.5 1.5 L 132.5 1.5 L 132.5 50.5 Z" stroke="none"/>
      <path d="M 3 3 L 3 49 L 131 49 L 131 3 L 3 3 M 0 0 L 134 0 L 134 52 L 0 52 L 0 0 Z" stroke="none" fill="#ffa031"/>
    </g>
    <g id="Trazado_733831" data-name="Trazado 733831" transform="translate(971 26936)" fill="#fff">
      <path d="M 131.5 51.5 L 1.5 51.5 L 1.5 1.5 L 131.5 1.5 L 131.5 51.5 Z" stroke="none"/>
      <path d="M 3 3 L 3 50 L 130 50 L 130 3 L 3 3 M 0 0 L 133 0 L 133 53 L 0 53 L 0 0 Z" stroke="none" fill="#4db1f0"/>
    </g>
    <path id="Trazado_733832" data-name="Trazado 733832" d="M-33.63-1.67a5.236,5.236,0,0,1-2.2,1.345A9.483,9.483,0,0,1-39,.186a5.657,5.657,0,0,1-4.24-1.624,6.572,6.572,0,0,1-1.7-4.518l-.009-1.169a8.061,8.061,0,0,1,.705-3.484A5.236,5.236,0,0,1-42.226-12.9a5.708,5.708,0,0,1,3.038-.8,5.984,5.984,0,0,1,3.92,1.155A4.894,4.894,0,0,1-33.64-9.1h-3.136a2.561,2.561,0,0,0-.724-1.614,2.335,2.335,0,0,0-1.577-.482,2.125,2.125,0,0,0-1.893,1.039,5.548,5.548,0,0,0-.677,2.969v.816a5.431,5.431,0,0,0,.691,3.038,2.445,2.445,0,0,0,2.176,1.016,2.736,2.736,0,0,0,1.893-.566v-2.1H-39.15V-7.218h5.52Zm7.821-5.539-1.03-.074a1.85,1.85,0,0,0-1.893.928V0h-3.126V-10.038h2.932l.1,1.29a2.421,2.421,0,0,1,2.2-1.475,3.049,3.049,0,0,1,.872.111ZM-19.306,0a3.53,3.53,0,0,1-.3-.9A2.907,2.907,0,0,1-22.015.186a3.562,3.562,0,0,1-2.412-.858A2.731,2.731,0,0,1-25.42-2.83,2.807,2.807,0,0,1-24.214-5.3a6.144,6.144,0,0,1,3.507-.835h.965v-.531q0-1.389-1.2-1.389a.978.978,0,0,0-1.113,1.1h-3.126A2.8,2.8,0,0,1-23.94-9.316a5.2,5.2,0,0,1,3.159-.908,4.563,4.563,0,0,1,3.034.937,3.258,3.258,0,0,1,1.141,2.57v4.444A4.551,4.551,0,0,0-16.18-.158V0Zm-1.958-2.041a1.744,1.744,0,0,0,.969-.25,1.57,1.57,0,0,0,.552-.566v-1.6h-.909q-1.633,0-1.633,1.466A.9.9,0,0,0-22-2.305,1.041,1.041,0,0,0-21.264-2.041ZM-9.621-2.82a.722.722,0,0,0-.417-.64,6.35,6.35,0,0,0-1.586-.5,7.234,7.234,0,0,1-1.93-.682,3.232,3.232,0,0,1-1.16-1.025,2.448,2.448,0,0,1-.4-1.382,2.774,2.774,0,0,1,1.141-2.278,4.7,4.7,0,0,1,2.987-.9,5.208,5.208,0,0,1,3.191.9A2.814,2.814,0,0,1-6.587-6.958H-9.723q0-1.206-1.271-1.206a1.26,1.26,0,0,0-.826.274.847.847,0,0,0-.334.682.778.778,0,0,0,.408.677,3.857,3.857,0,0,0,1.3.427,11.264,11.264,0,0,1,1.573.4A2.857,2.857,0,0,1-6.605-2.913,2.629,2.629,0,0,1-7.825-.677a5.35,5.35,0,0,1-3.159.863,5.46,5.46,0,0,1-2.3-.464A3.847,3.847,0,0,1-14.862-1.54a2.857,2.857,0,0,1-.566-1.679h2.922A1.208,1.208,0,0,0-12.042-2.2a1.908,1.908,0,0,0,1.141.32,1.5,1.5,0,0,0,.96-.26A.831.831,0,0,0-9.621-2.82ZM.51,0a3.53,3.53,0,0,1-.3-.9A2.907,2.907,0,0,1-2.2.186,3.562,3.562,0,0,1-4.611-.673,2.731,2.731,0,0,1-5.6-2.83,2.807,2.807,0,0,1-4.4-5.3,6.144,6.144,0,0,1-.891-6.132H.074v-.531q0-1.389-1.2-1.389a.978.978,0,0,0-1.113,1.1H-5.362A2.8,2.8,0,0,1-4.124-9.316a5.2,5.2,0,0,1,3.159-.908,4.563,4.563,0,0,1,3.034.937A3.258,3.258,0,0,1,3.21-6.717v4.444A4.551,4.551,0,0,0,3.637-.158V0ZM-1.447-2.041a1.744,1.744,0,0,0,.969-.25,1.57,1.57,0,0,0,.552-.566v-1.6H-.835Q-2.468-4.462-2.468-3a.9.9,0,0,0,.288.691A1.041,1.041,0,0,0-1.447-2.041ZM10.2-2.82a.722.722,0,0,0-.417-.64,6.35,6.35,0,0,0-1.586-.5,7.234,7.234,0,0,1-1.93-.682A3.232,3.232,0,0,1,5.1-5.668a2.448,2.448,0,0,1-.4-1.382A2.774,2.774,0,0,1,5.845-9.328a4.7,4.7,0,0,1,2.987-.9,5.208,5.208,0,0,1,3.191.9,2.814,2.814,0,0,1,1.206,2.366H10.094q0-1.206-1.271-1.206A1.26,1.26,0,0,0,8-7.89a.847.847,0,0,0-.334.682.778.778,0,0,0,.408.677,3.857,3.857,0,0,0,1.3.427,11.264,11.264,0,0,1,1.573.4,2.857,2.857,0,0,1,2.264,2.792,2.629,2.629,0,0,1-1.22,2.236A5.35,5.35,0,0,1,8.832.186a5.46,5.46,0,0,1-2.3-.464A3.847,3.847,0,0,1,4.954-1.54a2.857,2.857,0,0,1-.566-1.679H7.311A1.208,1.208,0,0,0,7.774-2.2a1.908,1.908,0,0,0,1.141.32,1.5,1.5,0,0,0,.96-.26A.831.831,0,0,0,10.2-2.82Zm13.22-1.559,1.67-5.659h3.349L24.344,1.679l-.176.427a3.108,3.108,0,0,1-3.08,1.948,4.9,4.9,0,0,1-1.29-.185V1.642h.408a2.138,2.138,0,0,0,1.007-.19,1.155,1.155,0,0,0,.515-.682L21.978.1,18.49-10.038h3.34Zm6.9,5.539H28.1l4.611-14.667h2.227Zm5.2-6.271a5.925,5.925,0,0,1,.584-2.677,4.18,4.18,0,0,1,1.679-1.8,5.057,5.057,0,0,1,2.57-.631,4.616,4.616,0,0,1,3.553,1.4,5.358,5.358,0,0,1,1.3,3.8v.111a5.2,5.2,0,0,1-1.3,3.725A4.628,4.628,0,0,1,40.375.186,4.681,4.681,0,0,1,36.933-1.1a5.026,5.026,0,0,1-1.4-3.484Zm3.126.195a3.735,3.735,0,0,0,.436,2.041,1.453,1.453,0,0,0,1.29.649q1.67,0,1.707-2.57v-.315q0-2.7-1.726-2.7-1.568,0-1.7,2.329ZM-19.663,21a3.53,3.53,0,0,1-.3-.9,2.907,2.907,0,0,1-2.412,1.085,3.562,3.562,0,0,1-2.412-.858,2.731,2.731,0,0,1-.993-2.157A2.807,2.807,0,0,1-24.571,15.7a6.144,6.144,0,0,1,3.507-.835h.965v-.531q0-1.389-1.2-1.389a.978.978,0,0,0-1.113,1.1h-3.126A2.8,2.8,0,0,1-24.3,11.684a5.2,5.2,0,0,1,3.159-.908,4.563,4.563,0,0,1,3.034.937,3.258,3.258,0,0,1,1.141,2.57v4.444a4.551,4.551,0,0,0,.427,2.115V21Zm-1.958-2.041a1.744,1.744,0,0,0,.969-.25,1.57,1.57,0,0,0,.552-.566v-1.6h-.909q-1.633,0-1.633,1.466a.9.9,0,0,0,.288.691A1.041,1.041,0,0,0-21.621,18.959Zm10.632-.186a1.391,1.391,0,0,0,1.021-.357,1.31,1.31,0,0,0,.353-1h2.932a3.47,3.47,0,0,1-1.183,2.709,4.4,4.4,0,0,1-3.048,1.058,4.455,4.455,0,0,1-3.451-1.373,5.41,5.41,0,0,1-1.262-3.8v-.13a6.114,6.114,0,0,1,.561-2.686A4.087,4.087,0,0,1-13.448,11.4a4.827,4.827,0,0,1,2.5-.626,4.344,4.344,0,0,1,3.108,1.085A3.85,3.85,0,0,1-6.684,14.8H-9.616a1.716,1.716,0,0,0-.38-1.2,1.313,1.313,0,0,0-1.021-.417q-1.215,0-1.419,1.549a10.932,10.932,0,0,0-.065,1.354,4.294,4.294,0,0,0,.362,2.1A1.253,1.253,0,0,0-10.989,18.773ZM-.506,21.186a5.16,5.16,0,0,1-3.739-1.378,4.757,4.757,0,0,1-1.429-3.586v-.26A6.165,6.165,0,0,1-5.1,13.244a4.175,4.175,0,0,1,1.665-1.823,5.027,5.027,0,0,1,2.6-.645A4.345,4.345,0,0,1,2.5,12.089a5.159,5.159,0,0,1,1.225,3.66v1.215H-2.491a2.253,2.253,0,0,0,.733,1.327,2.181,2.181,0,0,0,1.466.482,2.81,2.81,0,0,0,2.319-1.039l1.429,1.688A3.994,3.994,0,0,1,1.8,20.708,5.6,5.6,0,0,1-.506,21.186Zm-.353-8q-1.373,0-1.633,1.818H.663v-.241A1.549,1.549,0,0,0,.283,13.6,1.514,1.514,0,0,0-.858,13.188ZM8.28,21H5.144V10.962H8.28ZM4.959,8.364a1.408,1.408,0,0,1,.482-1.1,1.813,1.813,0,0,1,1.252-.429,1.813,1.813,0,0,1,1.252.429,1.5,1.5,0,0,1,0,2.2A1.813,1.813,0,0,1,6.694,9.9a1.813,1.813,0,0,1-1.252-.429A1.408,1.408,0,0,1,4.959,8.364Zm8.888.1v2.5H15.5v2.171H13.846v4.592a1.173,1.173,0,0,0,.2.789,1.1,1.1,0,0,0,.807.223,4.587,4.587,0,0,0,.779-.056v2.236a5.77,5.77,0,0,1-1.763.269,3.275,3.275,0,0,1-2.384-.761,3.118,3.118,0,0,1-.77-2.31V13.133H9.44V10.962h1.28v-2.5Zm7.737,12.719a5.16,5.16,0,0,1-3.739-1.378,4.757,4.757,0,0,1-1.429-3.586v-.26a6.165,6.165,0,0,1,.571-2.718,4.175,4.175,0,0,1,1.665-1.823,5.027,5.027,0,0,1,2.6-.645,4.345,4.345,0,0,1,3.34,1.313,5.159,5.159,0,0,1,1.225,3.66v1.215H19.6a2.253,2.253,0,0,0,.733,1.327,2.181,2.181,0,0,0,1.466.482,2.81,2.81,0,0,0,2.319-1.039l1.429,1.688a3.994,3.994,0,0,1-1.656,1.285A5.6,5.6,0,0,1,21.584,21.186Zm-.353-8q-1.373,0-1.633,1.818h3.154v-.241a1.549,1.549,0,0,0-.38-1.164A1.514,1.514,0,0,0,21.231,13.188Z" transform="translate(852 27006)" fill="#12263f"/>
    <path id="Trazado_733833" data-name="Trazado 733833" d="M-8.582-4.583V0h-3.256V-13.508h5.39a6.278,6.278,0,0,1,2.741.571A4.3,4.3,0,0,1-1.86-11.314a4.434,4.434,0,0,1,.654,2.389A3.909,3.909,0,0,1-2.621-5.766,5.87,5.87,0,0,1-6.5-4.583Zm0-2.514h2.134A2.012,2.012,0,0,0-5.005-7.57a1.758,1.758,0,0,0,.5-1.336,2.173,2.173,0,0,0-.51-1.512,1.807,1.807,0,0,0-1.392-.575H-8.582ZM11.819,0H8.582V-5.641h-4.8V0H.529V-13.508H3.785v5.362h4.8v-5.362h3.238Z" transform="translate(1037 26969)" fill="#12263f"/>
  </g>
</svg>
