<svg xmlns="http://www.w3.org/2000/svg" width="820" height="123" viewBox="0 0 820 123">
  <g id="Grupo_1016010" data-name="Grupo 1016010" transform="translate(-390 -29309)">
    <rect id="Rectángulo_350259" data-name="Rectángulo 350259" width="120" height="103" transform="translate(1090 29329)" fill="#4db1f0"/>
    <rect id="Rectángulo_350258" data-name="Rectángulo 350258" width="130" height="103" transform="translate(390 29309)" fill="#4db1f0"/>
    <path id="Trazado_733002" data-name="Trazado 733002" d="M0,0H799.764V103H0Z" transform="translate(400 29319)" fill="#dee4f0"/>
    <text id="Masa_de_sólidos_en_tanque_C_10.000_50.000_mg" data-name="Masa de sólidos en tanque C  =  (10.000 + 50.000) mg" transform="translate(600 29344)" fill="#12263f" font-size="16" font-family="Roboto-Italic, Roboto" font-style="italic"><tspan x="0" y="17">Masa de sólidos en tanque C</tspan><tspan y="17" xml:space="preserve" font-family="Roboto-Regular, Roboto" font-style="normal">  =  (10.000 + 50.000) mg</tspan></text>
    <text id="Masa_de_sólidos_en_tanque_C_60.000_mg" data-name="Masa de sólidos en tanque C  =  60.000 mg" transform="translate(600 29379)" fill="#12263f" font-size="16" font-family="Roboto-Italic, Roboto" font-style="italic"><tspan x="0" y="17">Masa de sólidos en tanque C</tspan><tspan y="17" xml:space="preserve" font-family="Roboto-Regular, Roboto" font-style="normal">  =  60.000 mg</tspan></text>
    <g id="Layer_2" transform="translate(430.424 29336.717)">
      <g id="Grupo_1013935" data-name="Grupo 1013935" transform="translate(8.655 5.283)">
        <path id="Trazado_732981" data-name="Trazado 732981" d="M86.8,45.947a18.167,18.167,0,1,1-36.333,0c0-7.823,11.045-28.233,15.911-36.845a2.591,2.591,0,0,1,4.512,0C75.759,17.714,86.8,38.124,86.8,45.947Z" transform="translate(-40.674 -7.199)" fill="#71c1e8"/>
        <path id="Trazado_732982" data-name="Trazado 732982" d="M94.44,114.66l-6.429-1.071a1.633,1.633,0,0,0-1.005.153,4.058,4.058,0,0,0-1.263-2.2,1.629,1.629,0,0,0,.6-.719l2.439-5.674a2.816,2.816,0,0,0-1.792-3.809,13.979,13.979,0,0,0-7.924,0,2.818,2.818,0,0,0-1.8,3.812l2.44,5.676a1.632,1.632,0,0,0,.6.719,4.06,4.06,0,0,0-1.263,2.2,1.656,1.656,0,0,0-1.005-.153l-6.429,1.071a2.818,2.818,0,0,0-2.273,3.431,13.964,13.964,0,0,0,3.966,6.922,2.817,2.817,0,0,0,4.214-.36l3.925-5.332a1.662,1.662,0,0,0,.317-.906,4.02,4.02,0,0,0,2.533,0,1.633,1.633,0,0,0,.317.906l3.925,5.332a2.817,2.817,0,0,0,4.214.361,13.967,13.967,0,0,0,3.966-6.922A2.818,2.818,0,0,0,94.44,114.66Z" transform="translate(-55.061 -78.396)" fill="#4ba5c8"/>
        <g id="Grupo_1013928" data-name="Grupo 1013928" transform="translate(15.839 24.01)">
          <path id="Trazado_732983" data-name="Trazado 732983" d="M118.055,109.862l-2.439,5.674a4.723,4.723,0,0,0-3.626,0l-2.44-5.676a1.176,1.176,0,0,1,.758-1.591,12.34,12.34,0,0,1,7,0A1.175,1.175,0,0,1,118.055,109.862Z" transform="translate(-101.678 -107.764)" fill="#f0c020"/>
          <path id="Trazado_732984" data-name="Trazado 732984" d="M77.238,163.474l6.429-1.071a4.722,4.722,0,0,0,1.813,3.141l-3.925,5.333a1.176,1.176,0,0,1-1.762.145,12.339,12.339,0,0,1-3.5-6.111,1.176,1.176,0,0,1,.946-1.436Z" transform="translate(-76.26 -149.602)" fill="#f0c020"/>
          <path id="Trazado_732985" data-name="Trazado 732985" d="M148.652,163.474l-6.429-1.071a4.722,4.722,0,0,1-1.813,3.141l3.925,5.332a1.176,1.176,0,0,0,1.762.145,12.339,12.339,0,0,0,3.5-6.111A1.176,1.176,0,0,0,148.652,163.474Z" transform="translate(-125.381 -149.602)" fill="#f0c020"/>
          <circle id="Elipse_8956" data-name="Elipse 8956" cx="2.423" cy="2.423" r="2.423" transform="translate(9.701 9.726)" fill="#f0c020"/>
        </g>
        <g id="Grupo_1013929" data-name="Grupo 1013929" transform="translate(0.586 5.036)">
          <path id="Trazado_732986" data-name="Trazado 732986" d="M23.572,37.3a6.208,6.208,0,1,1-12.417,0c0-2.586,3.531-7.688,5.267-10.04a1.17,1.17,0,0,1,1.883,0C20.041,29.608,23.572,34.71,23.572,37.3Z" transform="translate(-11.155 -26.78)" fill="#71c1e8"/>
        </g>
        <g id="Grupo_1013930" data-name="Grupo 1013930" transform="translate(42.924 5.036)">
          <path id="Trazado_732987" data-name="Trazado 732987" d="M204.287,37.3a6.208,6.208,0,1,1-12.417,0c0-2.586,3.531-7.688,5.267-10.04a1.17,1.17,0,0,1,1.883,0C200.756,29.608,204.287,34.71,204.287,37.3Z" transform="translate(-191.87 -26.78)" fill="#71c1e8"/>
        </g>
        <g id="Grupo_1013931" data-name="Grupo 1013931" transform="translate(27.377 2.47)">
          <path id="Trazado_732988" data-name="Trazado 732988" d="M126.1,68.512a.586.586,0,1,1,0-1.171q.34,0,.677-.015a.586.586,0,1,1,.051,1.17C126.585,68.507,126.34,68.512,126.1,68.512Zm3.025-.29a.586.586,0,0,1-.111-1.161A15.262,15.262,0,0,0,141.336,52.1c0-4.956-5.806-18.191-15.532-35.4a.586.586,0,1,1,1.02-.576C136.645,33.5,142.508,46.954,142.508,52.1a16.435,16.435,0,0,1-13.272,16.108.6.6,0,0,1-.113.011Z" transform="translate(-125.512 -15.824)" fill="#c5e5fe"/>
        </g>
        <g id="Grupo_1013932" data-name="Grupo 1013932" transform="translate(6.208 7.628)">
          <path id="Trazado_732989" data-name="Trazado 732989" d="M35.741,50.217a.586.586,0,0,1,0-1.171,3.284,3.284,0,0,0,3.28-3.28c0-.4-.443-1.8-2.1-4.49a.586.586,0,0,1,1-.615c1.445,2.345,2.274,4.205,2.274,5.1A4.456,4.456,0,0,1,35.741,50.217Zm.4-10.626a.585.585,0,0,1-.484-.255q-.192-.281-.4-.572a.586.586,0,1,1,.959-.672q.208.3.4.584a.586.586,0,0,1-.483.916Z" transform="translate(-35.155 -37.842)" fill="#c5e5fe"/>
        </g>
        <g id="Grupo_1013933" data-name="Grupo 1013933" transform="translate(48.547 7.628)">
          <path id="Trazado_732990" data-name="Trazado 732990" d="M216.456,50.218a.586.586,0,0,1,0-1.171,3.284,3.284,0,0,0,3.28-3.28c0-.4-.443-1.8-2.1-4.49a.586.586,0,1,1,1-.615c1.445,2.345,2.274,4.205,2.274,5.1A4.456,4.456,0,0,1,216.456,50.218Zm.4-10.626a.585.585,0,0,1-.484-.255q-.192-.281-.4-.572a.586.586,0,0,1,.959-.673q.208.3.4.584a.586.586,0,0,1-.483.916Z" transform="translate(-215.87 -37.843)" fill="#c5e5fe"/>
        </g>
        <g id="Grupo_1013934" data-name="Grupo 1013934" transform="translate(0)">
          <path id="Trazado_732991" data-name="Trazado 732991" d="M116.677,108.187l-2.439,5.674a.588.588,0,0,1-.764.309,4.158,4.158,0,0,0-3.177,0,.6.6,0,0,1-.761-.309l-2.441-5.677a1.765,1.765,0,0,1,1.132-2.383,12.97,12.97,0,0,1,7.326,0A1.763,1.763,0,0,1,116.677,108.187Zm-1.455-1.258a11.817,11.817,0,0,0-6.665,0,.59.59,0,0,0-.384.8L110.4,112.9a5.312,5.312,0,0,1,2.98,0l2.223-5.166v0A.591.591,0,0,0,115.222,106.929Z" transform="translate(-83.923 -81.85)"/>
          <path id="Trazado_732992" data-name="Trazado 732992" d="M75.228,160.981l6.429-1.071a.585.585,0,0,1,.677.5,4.126,4.126,0,0,0,1.589,2.753.59.59,0,0,1,.116.812l-1.11,1.509a.586.586,0,1,1-.944-.693l.791-1.074a5.268,5.268,0,0,1-1.49-2.557l-5.865.977a.59.59,0,0,0-.472.724,11.747,11.747,0,0,0,3.333,5.82l0,0a.592.592,0,0,0,.921-.117,0,0,0,0,1,0,0,.6.6,0,0,1,.818-.124.589.589,0,0,1,.124.82,1.761,1.761,0,0,1-2.67.275l0,0a12.913,12.913,0,0,1-3.668-6.4,1.762,1.762,0,0,1,1.42-2.149Z" transform="translate(-58.507 -123.678)"/>
          <path id="Trazado_732993" data-name="Trazado 732993" d="M138.024,163.979a.586.586,0,0,1,.117-.811,4.148,4.148,0,0,0,1.588-2.753.583.583,0,0,1,.675-.5l6.431,1.071h0a1.757,1.757,0,0,1,1.417,2.148,12.923,12.923,0,0,1-3.669,6.4,1.761,1.761,0,0,1-2.638-.223Zm1.265-.258,3.6,4.9a.593.593,0,0,0,.888.068,11.753,11.753,0,0,0,3.334-5.822.589.589,0,0,0-.471-.724l-5.866-.977A5.276,5.276,0,0,1,139.289,163.722Z" transform="translate(-107.629 -123.681)"/>
          <path id="Trazado_732994" data-name="Trazado 732994" d="M121.188,149.788a3.008,3.008,0,1,1-3.008-3.008A3.012,3.012,0,0,1,121.188,149.788Zm-1.171,0a1.837,1.837,0,1,0-1.837,1.839A1.84,1.84,0,0,0,120.017,149.788Z" transform="translate(-90.217 -113.63)"/>
          <path id="Trazado_732995" data-name="Trazado 732995" d="M47.971,44.031s0,0,0,0c.013-3.163,1.648-8.33,5-15.8a.6.6,0,0,1,.775-.3.588.588,0,0,1,.293.775c-1.665,3.686-4.915,11.3-4.9,15.32v0a17.581,17.581,0,0,0,35.162,0c0-7.7-11.074-28.13-15.835-36.557a2,2,0,0,0-3.489,0c-2.876,5.06-6.3,11.479-8.961,17.005a.592.592,0,0,1-.782.274.585.585,0,0,1-.274-.782c2.728-5.655,5.858-11.506,9-17.068a3.176,3.176,0,0,1,5.532,0C74.3,15.405,85.476,36.054,85.476,44.031a18.752,18.752,0,0,1-37.5,0Z" transform="translate(-38.76 -5.283)"/>
          <path id="Trazado_732996" data-name="Trazado 732996" d="M74.386,93.5a.586.586,0,1,1-1.061-.5.6.6,0,0,1,.78-.281A.583.583,0,0,1,74.386,93.5Z" transform="translate(-58.132 -72.196)"/>
          <path id="Trazado_732997" data-name="Trazado 732997" d="M15.449,42.174a6.8,6.8,0,0,1-6.794-6.794c0-2.694,3.372-7.665,5.382-10.388a1.754,1.754,0,0,1,2.825,0c2.01,2.723,5.381,7.694,5.381,10.388A6.8,6.8,0,0,1,15.449,42.174Zm5.623-6.794c0-1.7-1.926-5.321-5.153-9.692a.584.584,0,0,0-.94,0c-3.226,4.371-5.153,7.995-5.153,9.692a5.623,5.623,0,0,0,11.246,0Z" transform="translate(-8.655 -19.828)"/>
          <path id="Trazado_732998" data-name="Trazado 732998" d="M202.464,33.156a.586.586,0,0,1-1.1.412,40.014,40.014,0,0,0-4.735-7.884h0a.583.583,0,0,0-.938,0c-3.226,4.371-5.153,7.995-5.153,9.692A5.629,5.629,0,0,0,196.157,41h.006a5.629,5.629,0,0,0,5.133-3.327.6.6,0,0,1,.776-.3.586.586,0,0,1,.3.773,6.805,6.805,0,0,1-6.192,4.02h-.012a6.8,6.8,0,0,1-6.794-6.794c0-2.694,3.372-7.665,5.381-10.388a1.754,1.754,0,0,1,2.815-.013l.011.012A39.928,39.928,0,0,1,202.464,33.156Z" transform="translate(-147.031 -19.826)"/>
          <path id="Trazado_732999" data-name="Trazado 732999" d="M242.953,70.308a.586.586,0,1,1-.611.56s0,0,0,0A.579.579,0,0,1,242.953,70.308Z" transform="translate(-187.593 -55.073)"/>
          <path id="Trazado_733000" data-name="Trazado 733000" d="M103.379,187.937a.586.586,0,1,1-.82.124A.6.6,0,0,1,103.379,187.937Z" transform="translate(-80.471 -145.061)"/>
        </g>
      </g>
    </g>
  </g>
</svg>
