<svg xmlns="http://www.w3.org/2000/svg" width="74.48" height="31" viewBox="0 0 74.48 31">
  <g id="Grupo_1015994" data-name="Grupo 1015994" transform="translate(9668.469 -20180)">
    <path id="Trazado_737845" data-name="Trazado 737845" d="M-8.648-5.727-7.2-11.375h5.672l-.211,1.336H-6.2L-7.07-6.93a3.481,3.481,0,0,1,1.859-.492A2.553,2.553,0,0,1-3.039-6.355,3.864,3.864,0,0,1-2.422-3.68,4.274,4.274,0,0,1-3.664-.867,3.651,3.651,0,0,1-6.391.164a2.975,2.975,0,0,1-2.2-.875A3.307,3.307,0,0,1-9.469-3h1.32a2.266,2.266,0,0,0,.531,1.453,1.718,1.718,0,0,0,1.289.531,2.1,2.1,0,0,0,1.684-.711,3.282,3.282,0,0,0,.809-1.945A2.5,2.5,0,0,0-4.2-5.41a1.671,1.671,0,0,0-1.4-.715,2.4,2.4,0,0,0-1.012.172,3.758,3.758,0,0,0-.879.539Zm7.016,8-.812-.586A5.16,5.16,0,0,0-1.32-.531l.2-1.18H.266L.1-.656A4.521,4.521,0,0,1-1.633,2.273ZM8.258-3.82H9.789l-.211,1.18H8.055L7.594,0H6.172l.461-2.641H1.6l.164-.93,6.25-7.8H9.563Zm-4.8,0H6.836L7.852-9.414l-.227.328Z" transform="translate(-9659 20200)" fill="#12263f"/>
    <path id="Trazado_737843" data-name="Trazado 737843" d="M6.406,13.1,5.3,14.094,4.8,17H3.383L5.469,5H6.883l-1.25,7.172L6.5,11.3l3-2.75h1.836l-3.883,3.6L10.125,17H8.578Zm5.328-.344a6.889,6.889,0,0,1,.746-2.4A3.9,3.9,0,0,1,13.84,8.848a3.151,3.151,0,0,1,1.754-.465,2.6,2.6,0,0,1,2.219,1.109l.281-.945h1.3L17.984,16.82a4.113,4.113,0,0,1-1.312,2.59,3.7,3.7,0,0,1-2.68.926,3.8,3.8,0,0,1-1.645-.406,3.127,3.127,0,0,1-1.238-1.07l.8-.867a2.536,2.536,0,0,0,3.73.6,2.9,2.9,0,0,0,.926-1.687l.156-.75a3.2,3.2,0,0,1-2.414,1,2.486,2.486,0,0,1-1.371-.426,2.589,2.589,0,0,1-.9-1.164,4.759,4.759,0,0,1-.352-1.7A8.733,8.733,0,0,1,11.734,12.758Zm1.367.8a2.974,2.974,0,0,0,.387,1.728,1.461,1.461,0,0,0,1.238.644,2.561,2.561,0,0,0,2.18-1.241l.664-3.878a1.776,1.776,0,0,0-1.7-1.2,2.194,2.194,0,0,0-1.887.936,4.878,4.878,0,0,0-.871,2.614Z" transform="translate(-9626.5 20175)" fill="#12263f"/>
    <path id="Trazado_737844" data-name="Trazado 737844" d="M10.07,9.578A3.275,3.275,0,0,1,12.625,8.4a2.058,2.058,0,0,1,1.762.816,3.217,3.217,0,0,1,.426,2.246L13.891,17H12.477l.93-5.562a2.968,2.968,0,0,0,.008-.711,1.168,1.168,0,0,0-1.289-1.117,2.6,2.6,0,0,0-2.234,1.359L8.844,17H7.43L9.516,5H10.93Z" transform="translate(-9626.5 20194)" fill="#12263f"/>
    <path id="Trazado_737842" data-name="Trazado 737842" d="M0,1,42,0" transform="translate(-9636 20193.5)" fill="none" stroke="#12263f" stroke-width="1"/>
  </g>
</svg>
