<svg xmlns="http://www.w3.org/2000/svg" width="820" height="123" viewBox="0 0 820 123">
  <g id="Grupo_1015987" data-name="Grupo 1015987" transform="translate(-390 -30760)">
    <path id="Trazado_737824" data-name="Trazado 737824" d="M0,0H120V103H0Z" transform="translate(1090 30780)" fill="#3076b6"/>
    <path id="Trazado_737825" data-name="Trazado 737825" d="M0,0H130V103H0Z" transform="translate(390 30760)" fill="#3076b6"/>
    <path id="Trazado_733007" data-name="Trazado 733007" d="M0,0H799.764V103H0Z" transform="translate(400 30770)" fill="#dee4f0"/>
    <path id="Trazado_737826" data-name="Trazado 737826" d="M9.688,11.391a4.185,4.185,0,0,1-1.332,2.785,4.365,4.365,0,0,1-2.98.98,4.008,4.008,0,0,1-3.23-1.445A5.815,5.815,0,0,1,.93,9.844V8.75A6.481,6.481,0,0,1,1.5,5.961,4.231,4.231,0,0,1,3.1,4.113a4.47,4.47,0,0,1,2.406-.645A4.11,4.11,0,0,1,8.414,4.48a4.235,4.235,0,0,1,1.273,2.8H8.18a3.268,3.268,0,0,0-.848-1.975A2.565,2.565,0,0,0,5.508,4.7,2.684,2.684,0,0,0,3.254,5.759a4.882,4.882,0,0,0-.816,3.026v1.1a5.018,5.018,0,0,0,.773,2.948A2.5,2.5,0,0,0,5.375,13.93a2.887,2.887,0,0,0,1.918-.566,3.143,3.143,0,0,0,.887-1.973ZM16.727,15a3.036,3.036,0,0,1-.2-.891,3.225,3.225,0,0,1-2.406,1.047,2.984,2.984,0,0,1-2.051-.707,2.287,2.287,0,0,1-.8-1.793,2.39,2.39,0,0,1,1-2.051,4.733,4.733,0,0,1,2.824-.73H16.5V9.211A1.623,1.623,0,0,0,16.047,8a1.821,1.821,0,0,0-1.336-.449,2.107,2.107,0,0,0-1.3.391,1.151,1.151,0,0,0-.523.945H11.438a2,2,0,0,1,.449-1.223,3.066,3.066,0,0,1,1.219-.934A4.1,4.1,0,0,1,14.8,6.391a3.342,3.342,0,0,1,2.289.73,2.635,2.635,0,0,1,.859,2.012v3.891a4.757,4.757,0,0,0,.3,1.852V15Zm-2.4-1.1a2.54,2.54,0,0,0,1.289-.352,2.127,2.127,0,0,0,.883-.914V10.9H15.367q-2.656,0-2.656,1.555a1.316,1.316,0,0,0,.453,1.063A1.742,1.742,0,0,0,14.328,13.9ZM24.3,7.844a4.331,4.331,0,0,0-.711-.055A1.9,1.9,0,0,0,21.656,9v6H20.211V6.547h1.406l.023.977a2.251,2.251,0,0,1,2.016-1.133A1.477,1.477,0,0,1,24.3,6.5Zm.836,2.859a4.968,4.968,0,0,1,.914-3.145,3.151,3.151,0,0,1,4.836-.074l.07-.937h1.32V14.8a3.439,3.439,0,0,1-.973,2.586,3.589,3.589,0,0,1-2.613.945,4.348,4.348,0,0,1-1.789-.391,3.08,3.08,0,0,1-1.336-1.07l.75-.867a2.826,2.826,0,0,0,2.273,1.148,2.214,2.214,0,0,0,1.645-.594,2.269,2.269,0,0,0,.59-1.672v-.727a2.971,2.971,0,0,1-2.367,1,2.887,2.887,0,0,1-2.4-1.2A5.224,5.224,0,0,1,25.133,10.7Zm1.453.164a3.79,3.79,0,0,0,.586,2.246,1.9,1.9,0,0,0,1.641.816,2.117,2.117,0,0,0,2.008-1.242V8.828a2.142,2.142,0,0,0-1.992-1.211,1.921,1.921,0,0,0-1.648.82A4.128,4.128,0,0,0,26.586,10.867ZM39.672,15a3.036,3.036,0,0,1-.2-.891,3.225,3.225,0,0,1-2.406,1.047,2.984,2.984,0,0,1-2.051-.707,2.287,2.287,0,0,1-.8-1.793,2.39,2.39,0,0,1,1-2.051,4.733,4.733,0,0,1,2.824-.73h1.406V9.211A1.623,1.623,0,0,0,38.992,8a1.821,1.821,0,0,0-1.336-.449,2.107,2.107,0,0,0-1.3.391,1.151,1.151,0,0,0-.523.945H34.383a2,2,0,0,1,.449-1.223,3.066,3.066,0,0,1,1.219-.934,4.1,4.1,0,0,1,1.691-.344,3.342,3.342,0,0,1,2.289.73,2.635,2.635,0,0,1,.859,2.012v3.891a4.757,4.757,0,0,0,.3,1.852V15Zm-2.4-1.1a2.54,2.54,0,0,0,1.289-.352,2.127,2.127,0,0,0,.883-.914V10.9H38.313q-2.656,0-2.656,1.555a1.316,1.316,0,0,0,.453,1.063A1.742,1.742,0,0,0,37.273,13.9Zm13.234.078a2.082,2.082,0,0,0,1.352-.469,1.649,1.649,0,0,0,.641-1.172h1.367a2.621,2.621,0,0,1-.5,1.383,3.293,3.293,0,0,1-1.23,1.047,3.55,3.55,0,0,1-1.629.391A3.482,3.482,0,0,1,47.762,14a4.59,4.59,0,0,1-1.02-3.152v-.242a5.089,5.089,0,0,1,.453-2.2,3.451,3.451,0,0,1,1.3-1.492,3.7,3.7,0,0,1,2-.531,3.39,3.39,0,0,1,2.363.852,3.043,3.043,0,0,1,1,2.211H52.5a1.992,1.992,0,0,0-.621-1.348A1.932,1.932,0,0,0,50.5,7.578a2.023,2.023,0,0,0-1.707.793,3.724,3.724,0,0,0-.605,2.293v.273a3.65,3.65,0,0,0,.6,2.25A2.033,2.033,0,0,0,50.508,13.977Zm4.6-3.281A4.993,4.993,0,0,1,55.6,8.461,3.643,3.643,0,0,1,56.957,6.93a3.7,3.7,0,0,1,1.988-.539,3.565,3.565,0,0,1,2.793,1.2,4.6,4.6,0,0,1,1.066,3.18v.1a5.036,5.036,0,0,1-.473,2.215,3.589,3.589,0,0,1-1.352,1.527,3.743,3.743,0,0,1-2.02.547,3.556,3.556,0,0,1-2.785-1.2A4.575,4.575,0,0,1,55.109,10.8Zm1.453.172a3.616,3.616,0,0,0,.652,2.258,2.211,2.211,0,0,0,3.5-.012,3.955,3.955,0,0,0,.648-2.418,3.61,3.61,0,0,0-.66-2.254,2.1,2.1,0,0,0-1.754-.863,2.075,2.075,0,0,0-1.727.852A3.925,3.925,0,0,0,56.563,10.867Zm9.422-4.32.047,1.063a3.08,3.08,0,0,1,2.531-1.219q2.68,0,2.7,3.023V15H69.82V9.406A1.946,1.946,0,0,0,69.4,8.055a1.675,1.675,0,0,0-1.277-.437,2.086,2.086,0,0,0-1.234.375,2.546,2.546,0,0,0-.828.984V15H64.617V6.547ZM75.406,4.5V6.547h1.578V7.664H75.406v5.249a1.173,1.173,0,0,0,.211.763.888.888,0,0,0,.719.254,3.5,3.5,0,0,0,.688-.094V15a4.215,4.215,0,0,1-1.109.155,1.8,1.8,0,0,1-1.461-.586,2.517,2.517,0,0,1-.492-1.664V7.664H72.422V6.547h1.539V4.5ZM83.891,15a3.036,3.036,0,0,1-.2-.891,3.225,3.225,0,0,1-2.406,1.047,2.984,2.984,0,0,1-2.051-.707,2.288,2.288,0,0,1-.8-1.793,2.39,2.39,0,0,1,1-2.051,4.733,4.733,0,0,1,2.824-.73h1.406V9.211A1.623,1.623,0,0,0,83.211,8a1.821,1.821,0,0,0-1.336-.449,2.108,2.108,0,0,0-1.3.391,1.151,1.151,0,0,0-.523.945H78.6a2,2,0,0,1,.449-1.223,3.066,3.066,0,0,1,1.219-.934,4.1,4.1,0,0,1,1.691-.344,3.342,3.342,0,0,1,2.289.73,2.635,2.635,0,0,1,.859,2.012v3.891a4.757,4.757,0,0,0,.3,1.852V15Zm-2.4-1.1a2.54,2.54,0,0,0,1.289-.352,2.127,2.127,0,0,0,.883-.914V10.9H82.531q-2.656,0-2.656,1.555a1.316,1.316,0,0,0,.453,1.063A1.742,1.742,0,0,0,81.492,13.9Zm7.242-7.352.039.938a3.122,3.122,0,0,1,2.508-1.094A2.417,2.417,0,0,1,93.7,7.75a3.2,3.2,0,0,1,1.1-.984,3.242,3.242,0,0,1,1.6-.375q2.781,0,2.828,2.945V15H97.773V9.422a1.941,1.941,0,0,0-.414-1.355,1.823,1.823,0,0,0-1.391-.449,1.916,1.916,0,0,0-1.336.48,1.949,1.949,0,0,0-.617,1.293V15H92.563V9.461a1.613,1.613,0,0,0-1.8-1.844,1.934,1.934,0,0,0-1.945,1.211V15H87.367V6.547ZM102.969,15h-1.445V6.547h1.445ZM101.406,4.3a.863.863,0,0,1,.215-.594.807.807,0,0,1,.637-.242.819.819,0,0,1,.641.242.854.854,0,0,1,.219.594.826.826,0,0,1-.219.586.834.834,0,0,1-.641.234.821.821,0,0,1-.637-.234A.834.834,0,0,1,101.406,4.3Zm5.242,2.242.047,1.063a3.08,3.08,0,0,1,2.531-1.219q2.68,0,2.7,3.023V15h-1.445V9.406a1.946,1.946,0,0,0-.418-1.352,1.675,1.675,0,0,0-1.277-.437,2.086,2.086,0,0,0-1.234.375,2.546,2.546,0,0,0-.828.984V15h-1.445V6.547ZM119.328,15a3.036,3.036,0,0,1-.2-.891,3.225,3.225,0,0,1-2.406,1.047,2.984,2.984,0,0,1-2.051-.707,2.288,2.288,0,0,1-.8-1.793,2.39,2.39,0,0,1,1-2.051,4.733,4.733,0,0,1,2.824-.73H119.1V9.211A1.623,1.623,0,0,0,118.648,8a1.821,1.821,0,0,0-1.336-.449,2.108,2.108,0,0,0-1.3.391,1.151,1.151,0,0,0-.523.945h-1.453a2,2,0,0,1,.449-1.223,3.066,3.066,0,0,1,1.219-.934,4.1,4.1,0,0,1,1.691-.344,3.342,3.342,0,0,1,2.289.73,2.635,2.635,0,0,1,.859,2.012v3.891a4.757,4.757,0,0,0,.3,1.852V15Zm-2.4-1.1a2.54,2.54,0,0,0,1.289-.352,2.127,2.127,0,0,0,.883-.914V10.9h-1.133q-2.656,0-2.656,1.555a1.316,1.316,0,0,0,.453,1.063A1.742,1.742,0,0,0,116.93,13.9Zm7.25-7.352.047,1.063a3.08,3.08,0,0,1,2.531-1.219q2.68,0,2.7,3.023V15h-1.445V9.406a1.946,1.946,0,0,0-.418-1.352,1.675,1.675,0,0,0-1.277-.437,2.086,2.086,0,0,0-1.234.375,2.546,2.546,0,0,0-.828.984V15h-1.445V6.547ZM133.6,4.5V6.547h1.578V7.664H133.6v5.249a1.173,1.173,0,0,0,.211.763.888.888,0,0,0,.719.254,3.5,3.5,0,0,0,.688-.094V15a4.215,4.215,0,0,1-1.109.155,1.8,1.8,0,0,1-1.461-.586,2.517,2.517,0,0,1-.492-1.664V7.664h-1.539V6.547h1.539V4.5Zm6.773,10.656a3.693,3.693,0,0,1-2.8-1.129,4.19,4.19,0,0,1-1.078-3.02v-.266a5.073,5.073,0,0,1,.48-2.246,3.748,3.748,0,0,1,1.344-1.547,3.378,3.378,0,0,1,1.871-.559,3.166,3.166,0,0,1,2.563,1.086,4.7,4.7,0,0,1,.914,3.109v.6h-5.727a3,3,0,0,0,.73,2.02,2.3,2.3,0,0,0,1.777.77,2.517,2.517,0,0,0,1.3-.312,3.258,3.258,0,0,0,.93-.828l.883.688A3.55,3.55,0,0,1,140.375,15.156Zm-.18-7.578a1.928,1.928,0,0,0-1.469.637A3.1,3.1,0,0,0,137.992,10h4.234V9.891a2.753,2.753,0,0,0-.594-1.707A1.815,1.815,0,0,0,140.2,7.578Zm15.719,1.063H149.4V7.383h6.516Zm0,3.242H149.4v-1.25h6.516Z" transform="translate(620 30816)" fill="#12263f"/>
    <path id="Trazado_737827" data-name="Trazado 737827" d="M3.388,6.547l.039.938A3.122,3.122,0,0,1,5.935,6.391,2.417,2.417,0,0,1,8.349,7.75a3.2,3.2,0,0,1,1.1-.984,3.242,3.242,0,0,1,1.6-.375q2.781,0,2.828,2.945V15H12.427V9.422a1.941,1.941,0,0,0-.414-1.355,1.823,1.823,0,0,0-1.391-.449,1.916,1.916,0,0,0-1.336.48,1.949,1.949,0,0,0-.617,1.293V15H7.216V9.461a1.613,1.613,0,0,0-1.8-1.844A1.934,1.934,0,0,0,3.466,8.828V15H2.021V6.547ZM21.271,15a3.036,3.036,0,0,1-.2-.891,3.225,3.225,0,0,1-2.406,1.047,2.984,2.984,0,0,1-2.051-.707,2.287,2.287,0,0,1-.8-1.793,2.39,2.39,0,0,1,1-2.051,4.733,4.733,0,0,1,2.824-.73h1.406V9.211A1.623,1.623,0,0,0,20.591,8a1.821,1.821,0,0,0-1.336-.449,2.108,2.108,0,0,0-1.3.391,1.151,1.151,0,0,0-.523.945H15.981a2,2,0,0,1,.449-1.223,3.066,3.066,0,0,1,1.219-.934,4.1,4.1,0,0,1,1.691-.344,3.342,3.342,0,0,1,2.289.73,2.635,2.635,0,0,1,.859,2.012v3.891a4.757,4.757,0,0,0,.3,1.852V15Zm-2.4-1.1a2.54,2.54,0,0,0,1.289-.352,2.127,2.127,0,0,0,.883-.914V10.9H19.911q-2.656,0-2.656,1.555a1.316,1.316,0,0,0,.453,1.063A1.742,1.742,0,0,0,18.872,13.9Zm10.8-1.141a1.064,1.064,0,0,0-.441-.91,4.249,4.249,0,0,0-1.539-.559,7.277,7.277,0,0,1-1.742-.562A2.479,2.479,0,0,1,25,9.945a1.869,1.869,0,0,1-.309-1.078,2.193,2.193,0,0,1,.879-1.758,3.432,3.432,0,0,1,2.246-.719,3.532,3.532,0,0,1,2.332.742,2.357,2.357,0,0,1,.895,1.9H29.591a1.3,1.3,0,0,0-.5-1.023,1.888,1.888,0,0,0-1.27-.43,1.976,1.976,0,0,0-1.234.344,1.082,1.082,0,0,0-.445.9.877.877,0,0,0,.414.789,5.1,5.1,0,0,0,1.5.508A7.8,7.8,0,0,1,29.8,10.7a2.558,2.558,0,0,1,1,.809,1.988,1.988,0,0,1,.324,1.152,2.163,2.163,0,0,1-.906,1.816,3.8,3.8,0,0,1-2.352.684,4.257,4.257,0,0,1-1.8-.359,2.922,2.922,0,0,1-1.223-1A2.42,2.42,0,0,1,24.4,12.4h1.445a1.5,1.5,0,0,0,.582,1.152,2.258,2.258,0,0,0,1.434.426,2.331,2.331,0,0,0,1.316-.332A1.02,1.02,0,0,0,29.677,12.758ZM38.224,15a3.036,3.036,0,0,1-.2-.891,3.225,3.225,0,0,1-2.406,1.047,2.984,2.984,0,0,1-2.051-.707,2.287,2.287,0,0,1-.8-1.793,2.39,2.39,0,0,1,1-2.051,4.733,4.733,0,0,1,2.824-.73H38V9.211A1.623,1.623,0,0,0,37.544,8a1.821,1.821,0,0,0-1.336-.449,2.107,2.107,0,0,0-1.3.391,1.151,1.151,0,0,0-.523.945H32.935a2,2,0,0,1,.449-1.223A3.066,3.066,0,0,1,34.6,6.734a4.1,4.1,0,0,1,1.691-.344,3.342,3.342,0,0,1,2.289.73,2.635,2.635,0,0,1,.859,2.012v3.891a4.757,4.757,0,0,0,.3,1.852V15Zm-2.4-1.1a2.54,2.54,0,0,0,1.289-.352A2.127,2.127,0,0,0,38,12.633V10.9H36.864q-2.656,0-2.656,1.555a1.316,1.316,0,0,0,.453,1.063A1.742,1.742,0,0,0,35.825,13.9Zm9.492-3.2a4.952,4.952,0,0,1,.922-3.129A3.137,3.137,0,0,1,51,7.406V3H52.45V15H51.122l-.07-.906a2.943,2.943,0,0,1-2.414,1.063,2.887,2.887,0,0,1-2.395-1.2,5.008,5.008,0,0,1-.926-3.141Zm1.445.164a3.749,3.749,0,0,0,.594,2.25A1.92,1.92,0,0,0,49,13.93,2.108,2.108,0,0,0,51,12.7V8.813a2.125,2.125,0,0,0-1.992-1.2,1.929,1.929,0,0,0-1.656.82A4.128,4.128,0,0,0,46.763,10.867ZM58.2,15.156a3.693,3.693,0,0,1-2.8-1.129,4.19,4.19,0,0,1-1.078-3.02v-.266a5.073,5.073,0,0,1,.48-2.246,3.748,3.748,0,0,1,1.344-1.547,3.378,3.378,0,0,1,1.871-.559,3.166,3.166,0,0,1,2.563,1.086,4.7,4.7,0,0,1,.914,3.109v.6H55.771a3,3,0,0,0,.73,2.02,2.3,2.3,0,0,0,1.777.77,2.517,2.517,0,0,0,1.3-.312,3.259,3.259,0,0,0,.93-.828l.883.688A3.55,3.55,0,0,1,58.2,15.156Zm-.18-7.578a1.928,1.928,0,0,0-1.469.637A3.1,3.1,0,0,0,55.817,10h4.234V9.891a2.753,2.753,0,0,0-.594-1.707A1.815,1.815,0,0,0,58.021,7.578Zm12.5,6.4a2.082,2.082,0,0,0,1.352-.469,1.649,1.649,0,0,0,.641-1.172H73.88a2.621,2.621,0,0,1-.5,1.383,3.293,3.293,0,0,1-1.23,1.047,3.55,3.55,0,0,1-1.629.391A3.482,3.482,0,0,1,67.774,14a4.59,4.59,0,0,1-1.02-3.152v-.242a5.089,5.089,0,0,1,.453-2.2,3.451,3.451,0,0,1,1.3-1.492,3.7,3.7,0,0,1,2-.531,3.39,3.39,0,0,1,2.363.852,3.043,3.043,0,0,1,1,2.211H72.513a1.992,1.992,0,0,0-.621-1.348,1.932,1.932,0,0,0-1.379-.527,2.023,2.023,0,0,0-1.707.793,3.724,3.724,0,0,0-.605,2.293v.273a3.65,3.65,0,0,0,.6,2.25A2.033,2.033,0,0,0,70.521,13.977Zm4.6-3.281a4.993,4.993,0,0,1,.488-2.234A3.643,3.643,0,0,1,76.97,6.93a3.7,3.7,0,0,1,1.988-.539,3.565,3.565,0,0,1,2.793,1.2,4.6,4.6,0,0,1,1.066,3.18v.1a5.036,5.036,0,0,1-.473,2.215,3.589,3.589,0,0,1-1.352,1.527,3.743,3.743,0,0,1-2.02.547,3.556,3.556,0,0,1-2.785-1.2A4.575,4.575,0,0,1,75.122,10.8Zm1.453.172a3.616,3.616,0,0,0,.652,2.258,2.211,2.211,0,0,0,3.5-.012,3.955,3.955,0,0,0,.648-2.418,3.61,3.61,0,0,0-.66-2.254,2.1,2.1,0,0,0-1.754-.863,2.075,2.075,0,0,0-1.727.852A3.925,3.925,0,0,0,76.575,10.867ZM86,6.547l.047,1.063a3.08,3.08,0,0,1,2.531-1.219q2.68,0,2.7,3.023V15H89.833V9.406a1.946,1.946,0,0,0-.418-1.352,1.675,1.675,0,0,0-1.277-.437,2.086,2.086,0,0,0-1.234.375,2.546,2.546,0,0,0-.828.984V15H84.63V6.547ZM95.419,4.5V6.547H97V7.664H95.419v5.249a1.173,1.173,0,0,0,.211.763.888.888,0,0,0,.719.254,3.5,3.5,0,0,0,.688-.094V15a4.215,4.215,0,0,1-1.109.155,1.8,1.8,0,0,1-1.461-.586,2.517,2.517,0,0,1-.492-1.664V7.664H92.435V6.547h1.539V4.5ZM103.9,15a3.036,3.036,0,0,1-.2-.891,3.225,3.225,0,0,1-2.406,1.047,2.984,2.984,0,0,1-2.051-.707,2.288,2.288,0,0,1-.8-1.793,2.39,2.39,0,0,1,1-2.051,4.733,4.733,0,0,1,2.824-.73h1.406V9.211A1.623,1.623,0,0,0,103.224,8a1.821,1.821,0,0,0-1.336-.449,2.108,2.108,0,0,0-1.3.391,1.151,1.151,0,0,0-.523.945H98.614a2,2,0,0,1,.449-1.223,3.066,3.066,0,0,1,1.219-.934,4.1,4.1,0,0,1,1.691-.344,3.342,3.342,0,0,1,2.289.73,2.635,2.635,0,0,1,.859,2.012v3.891a4.757,4.757,0,0,0,.3,1.852V15Zm-2.4-1.1a2.54,2.54,0,0,0,1.289-.352,2.127,2.127,0,0,0,.883-.914V10.9h-1.133q-2.656,0-2.656,1.555a1.316,1.316,0,0,0,.453,1.063A1.742,1.742,0,0,0,101.5,13.9Zm7.242-7.352.039.938a3.122,3.122,0,0,1,2.508-1.094,2.417,2.417,0,0,1,2.414,1.359,3.2,3.2,0,0,1,1.1-.984,3.242,3.242,0,0,1,1.6-.375q2.781,0,2.828,2.945V15h-1.445V9.422a1.941,1.941,0,0,0-.414-1.355,1.823,1.823,0,0,0-1.391-.449,1.916,1.916,0,0,0-1.336.48,1.949,1.949,0,0,0-.617,1.293V15h-1.453V9.461a1.613,1.613,0,0,0-1.8-1.844,1.934,1.934,0,0,0-1.945,1.211V15H107.38V6.547ZM122.981,15h-1.445V6.547h1.445ZM121.419,4.3a.863.863,0,0,1,.215-.594.807.807,0,0,1,.637-.242.819.819,0,0,1,.641.242.854.854,0,0,1,.219.594.826.826,0,0,1-.219.586.834.834,0,0,1-.641.234.821.821,0,0,1-.637-.234A.834.834,0,0,1,121.419,4.3Zm5.242,2.242.047,1.063a3.08,3.08,0,0,1,2.531-1.219q2.68,0,2.7,3.023V15H130.5V9.406a1.946,1.946,0,0,0-.418-1.352,1.675,1.675,0,0,0-1.277-.437,2.086,2.086,0,0,0-1.234.375,2.546,2.546,0,0,0-.828.984V15h-1.445V6.547ZM139.341,15a3.036,3.036,0,0,1-.2-.891,3.225,3.225,0,0,1-2.406,1.047,2.984,2.984,0,0,1-2.051-.707,2.287,2.287,0,0,1-.8-1.793,2.39,2.39,0,0,1,1-2.051,4.733,4.733,0,0,1,2.824-.73h1.406V9.211A1.623,1.623,0,0,0,138.661,8a1.821,1.821,0,0,0-1.336-.449,2.107,2.107,0,0,0-1.3.391,1.151,1.151,0,0,0-.523.945h-1.453a2,2,0,0,1,.449-1.223,3.066,3.066,0,0,1,1.219-.934,4.1,4.1,0,0,1,1.691-.344,3.342,3.342,0,0,1,2.289.73,2.635,2.635,0,0,1,.859,2.012v3.891a4.757,4.757,0,0,0,.3,1.852V15Zm-2.4-1.1a2.54,2.54,0,0,0,1.289-.352,2.127,2.127,0,0,0,.883-.914V10.9h-1.133q-2.656,0-2.656,1.555a1.316,1.316,0,0,0,.453,1.063A1.742,1.742,0,0,0,136.942,13.9Zm7.25-7.352.047,1.063a3.08,3.08,0,0,1,2.531-1.219q2.68,0,2.7,3.023V15h-1.445V9.406a1.946,1.946,0,0,0-.418-1.352,1.675,1.675,0,0,0-1.277-.437,2.086,2.086,0,0,0-1.234.375,2.546,2.546,0,0,0-.828.984V15h-1.445V6.547ZM153.614,4.5V6.547h1.578V7.664h-1.578v5.249a1.173,1.173,0,0,0,.211.763.888.888,0,0,0,.719.254,3.5,3.5,0,0,0,.688-.094V15a4.215,4.215,0,0,1-1.109.155,1.8,1.8,0,0,1-1.461-.586,2.517,2.517,0,0,1-.492-1.664V7.664H150.63V6.547h1.539V4.5Zm6.773,10.656a3.693,3.693,0,0,1-2.8-1.129,4.19,4.19,0,0,1-1.078-3.02v-.266a5.073,5.073,0,0,1,.48-2.246,3.748,3.748,0,0,1,1.344-1.547,3.378,3.378,0,0,1,1.871-.559,3.166,3.166,0,0,1,2.563,1.086,4.7,4.7,0,0,1,.914,3.109v.6h-5.727a3,3,0,0,0,.73,2.02,2.3,2.3,0,0,0,1.777.77,2.517,2.517,0,0,0,1.3-.312,3.258,3.258,0,0,0,.93-.828l.883.688A3.55,3.55,0,0,1,160.388,15.156Zm-.18-7.578a1.928,1.928,0,0,0-1.469.637A3.1,3.1,0,0,0,158,10h4.234V9.891a2.753,2.753,0,0,0-.594-1.707A1.815,1.815,0,0,0,160.208,7.578Z" transform="translate(797.5 30807)" fill="#12263f"/>
    <path id="Trazado_737828" data-name="Trazado 737828" d="M40.8,4.5V6.547h1.578V7.664H40.8v5.249a1.173,1.173,0,0,0,.211.763.888.888,0,0,0,.719.254,3.5,3.5,0,0,0,.688-.094V15a4.215,4.215,0,0,1-1.109.155,1.8,1.8,0,0,1-1.461-.586,2.517,2.517,0,0,1-.492-1.664V7.664H37.813V6.547h1.539V4.5ZM45.634,15H44.188V6.547h1.445ZM44.071,4.3a.863.863,0,0,1,.215-.594.807.807,0,0,1,.637-.242.819.819,0,0,1,.641.242.854.854,0,0,1,.219.594.826.826,0,0,1-.219.586.834.834,0,0,1-.641.234.821.821,0,0,1-.637-.234A.834.834,0,0,1,44.071,4.3Zm7.383,10.852a3.693,3.693,0,0,1-2.8-1.129,4.19,4.19,0,0,1-1.078-3.02v-.266A5.073,5.073,0,0,1,48.06,8.5,3.748,3.748,0,0,1,49.4,6.949a3.378,3.378,0,0,1,1.871-.559,3.166,3.166,0,0,1,2.563,1.086,4.7,4.7,0,0,1,.914,3.109v.6H49.024a3,3,0,0,0,.73,2.02,2.3,2.3,0,0,0,1.777.77,2.517,2.517,0,0,0,1.3-.312,3.259,3.259,0,0,0,.93-.828l.883.688A3.55,3.55,0,0,1,51.454,15.156Zm-.18-7.578a1.928,1.928,0,0,0-1.469.637A3.1,3.1,0,0,0,49.071,10h4.234V9.891a2.753,2.753,0,0,0-.594-1.707A1.815,1.815,0,0,0,51.274,7.578Zm6.508-1.031.039.938a3.122,3.122,0,0,1,2.508-1.094A2.417,2.417,0,0,1,62.743,7.75a3.2,3.2,0,0,1,1.1-.984,3.242,3.242,0,0,1,1.6-.375q2.781,0,2.828,2.945V15H66.821V9.422a1.941,1.941,0,0,0-.414-1.355,1.823,1.823,0,0,0-1.391-.449,1.916,1.916,0,0,0-1.336.48,1.949,1.949,0,0,0-.617,1.293V15H61.61V9.461a1.613,1.613,0,0,0-1.8-1.844A1.934,1.934,0,0,0,57.86,8.828V15H56.415V6.547Zm19.8,4.32a5.062,5.062,0,0,1-.883,3.109,2.829,2.829,0,0,1-2.391,1.18,3.1,3.1,0,0,1-2.422-.977v4.07H70.446V6.547h1.32l.07.938A2.977,2.977,0,0,1,74.29,6.391,2.882,2.882,0,0,1,76.7,7.539a5.117,5.117,0,0,1,.887,3.2ZM76.142,10.7a3.735,3.735,0,0,0-.609-2.258,1.963,1.963,0,0,0-1.672-.828,2.125,2.125,0,0,0-1.969,1.164V12.82a2.129,2.129,0,0,0,1.984,1.156,1.954,1.954,0,0,0,1.652-.824A4.077,4.077,0,0,0,76.142,10.7Zm2.9-.008a4.993,4.993,0,0,1,.488-2.234A3.643,3.643,0,0,1,80.888,6.93a3.7,3.7,0,0,1,1.988-.539,3.565,3.565,0,0,1,2.793,1.2,4.6,4.6,0,0,1,1.066,3.18v.1a5.036,5.036,0,0,1-.473,2.215,3.589,3.589,0,0,1-1.352,1.527,3.743,3.743,0,0,1-2.02.547,3.556,3.556,0,0,1-2.785-1.2A4.575,4.575,0,0,1,79.04,10.8Zm1.453.172a3.616,3.616,0,0,0,.652,2.258,2.211,2.211,0,0,0,3.5-.012A3.955,3.955,0,0,0,85.29,10.7a3.61,3.61,0,0,0-.66-2.254,2.1,2.1,0,0,0-1.754-.863,2.075,2.075,0,0,0-1.727.852A3.925,3.925,0,0,0,80.493,10.867Z" transform="translate(817.5 30826)" fill="#12263f"/>
    <path id="Trazado_737829" data-name="Trazado 737829" d="M0,0H200" transform="translate(780 30825.5)" fill="none" stroke="#12263f" stroke-width="1"/>
    <path id="Trazado_732657" data-name="Trazado 732657" d="M142.833,7.164H110.552a6.053,6.053,0,0,0-6.053,6.053v11.1h21.184a6.053,6.053,0,0,1,6.052,6.053v1.009h3.027L140.95,42.2a1.008,1.008,0,0,0,1.882-.5V31.375a6.053,6.053,0,0,0,6.053-6.053v-12.1a6.052,6.052,0,0,0-6.052-6.053Zm0,0" transform="translate(344.632 30786.846)" fill="#c2d197"/>
    <path id="Trazado_732658" data-name="Trazado 732658" d="M315.518,140.54a1.009,1.009,0,1,1-1.009-1.008A1.009,1.009,0,0,1,315.518,140.54Zm0,0" transform="translate(165.895 30673.645)" fill="#9cb16a"/>
    <path id="Trazado_732659" data-name="Trazado 732659" d="M343.385,140.54a1.009,1.009,0,1,1-1.008-1.008A1.009,1.009,0,0,1,343.385,140.54Zm0,0" transform="translate(142.063 30673.645)" fill="#9cb16a"/>
    <path id="Trazado_732660" data-name="Trazado 732660" d="M371.252,140.54a1.009,1.009,0,1,1-1.009-1.008A1.009,1.009,0,0,1,371.252,140.54Zm0,0" transform="translate(118.23 30673.645)" fill="#9cb16a"/>
    <path id="Trazado_732661" data-name="Trazado 732661" d="M138.05,62.911a1.009,1.009,0,0,0-1.426,0l-1.3,1.3-1.3-1.3a1.009,1.009,0,1,0-1.451,1.4l.024.025,1.3,1.3-1.3,1.3a1.009,1.009,0,0,0,1.4,1.451l.025-.025,1.3-1.3,1.3,1.3a1.009,1.009,0,0,0,1.426-1.427l-1.3-1.3,1.3-1.3a1,1,0,0,0,.017-1.421A.016.016,0,0,0,138.05,62.911Zm0,0" transform="translate(320.874 30739.434)" fill="#9cb16a"/>
    <path id="Trazado_732662" data-name="Trazado 732662" d="M198.763,46.88a1.008,1.008,0,0,0-1.009-1.009h-9.079a1.009,1.009,0,0,0-1,.865l-.552,3.864-.568-1.147a1.009,1.009,0,1,0-1.805.9l2.018,4.035a1.009,1.009,0,0,0,.9.558.965.965,0,0,0,.161-.014,1.008,1.008,0,0,0,.837-.854l.885-6.195h8.2A1.008,1.008,0,0,0,198.763,46.88Zm0,0" transform="translate(276.092 30753.742)" fill="#9cb16a"/>
    <path id="Trazado_732663" data-name="Trazado 732663" d="M230.751,70.212l-1.281,1.254-1.226-1.311a1.009,1.009,0,1,0-1.472,1.38l1.255,1.344-1.311,1.284a1.01,1.01,0,0,0,1.412,1.443l4.035-3.95a1.009,1.009,0,0,0-1.412-1.443Zm0,0" transform="translate(240.372 30733.248)" fill="#9cb16a"/>
    <path id="Trazado_732664" data-name="Trazado 732664" d="M280.228,68.787h-1.009V67.779a1.009,1.009,0,1,0-2.018,0v1.009h-1.009a1.009,1.009,0,0,0,0,2.018H277.2v1.009a1.009,1.009,0,0,0,2.018,0V70.8h1.009a1.009,1.009,0,1,0,0-2.018Zm0,0" transform="translate(198.662 30735.871)" fill="#9cb16a"/>
    <path id="Trazado_732665" data-name="Trazado 732665" d="M332.478,70.8h-1.6l2.313-2.313a1.009,1.009,0,0,0-.713-1.722h-4.035a1.009,1.009,0,1,0,0,2.018h1.6L327.73,71.1a1.009,1.009,0,0,0,.713,1.722h4.035a1.009,1.009,0,1,0,0-2.018Zm0,0" transform="translate(153.979 30735.871)" fill="#9cb16a"/>
    <path id="Trazado_732666" data-name="Trazado 732666" d="M126.693,114.543H104.5v1.6h21.184a6.053,6.053,0,0,1,6.053,6.053v1.009h1.008V120.6a6.052,6.052,0,0,0-6.053-6.052Zm0,0" transform="translate(344.631 30695.014)" fill="#9cb16a"/>
    <path id="Trazado_732667" data-name="Trazado 732667" d="M138.05,52.147a1.009,1.009,0,0,0-1.426,0l-1.3,1.3-1.3-1.3a1.009,1.009,0,0,0-1.427,1.426l1.3,1.3-1.3,1.3a1.009,1.009,0,0,0,1.4,1.451l.025-.025,1.3-1.3,1.3,1.3a1.009,1.009,0,1,0,1.451-1.4l-.025-.025-1.3-1.3,1.3-1.3A1.008,1.008,0,0,0,138.05,52.147Zm0,0" transform="translate(320.874 30748.629)" fill="#075057"/>
    <path id="Trazado_732668" data-name="Trazado 732668" d="M198.763,36.04a1.008,1.008,0,0,0-1.009-1.009h-9.079a1.009,1.009,0,0,0-1,.865l-.552,3.864-.568-1.146a1.009,1.009,0,1,0-1.805.9l2.018,4.035a1.009,1.009,0,0,0,.9.558,1.028,1.028,0,0,0,.161-.013,1.009,1.009,0,0,0,.838-.853l.885-6.2h8.2a1.008,1.008,0,0,0,1.008-1.009Zm0,0" transform="translate(276.092 30763.014)" fill="#075057"/>
    <path id="Trazado_732669" data-name="Trazado 732669" d="M230.751,59.263l-1.281,1.255-1.226-1.312a1.009,1.009,0,0,0-1.507,1.341l.036.038,1.255,1.344-1.311,1.284a1.009,1.009,0,1,0,1.412,1.442l4.035-3.95a1.009,1.009,0,0,0-1.412-1.442Zm0,0" transform="translate(240.372 30742.627)" fill="#075057"/>
    <path id="Trazado_732670" data-name="Trazado 732670" d="M280.228,57.947h-1.009V56.938a1.009,1.009,0,0,0-2.018,0v1.009h-1.009a1.009,1.009,0,0,0,0,2.018H277.2v1.009a1.009,1.009,0,0,0,2.018,0V59.965h1.009a1.009,1.009,0,1,0,0-2.018Zm0,0" transform="translate(198.662 30745.141)" fill="#075057"/>
    <path id="Trazado_732671" data-name="Trazado 732671" d="M332.478,59.965h-1.6l2.313-2.313a1.009,1.009,0,0,0-.713-1.722h-4.035a1.009,1.009,0,1,0,0,2.018h1.6l-2.313,2.313a1.009,1.009,0,0,0,.713,1.722h4.035a1.009,1.009,0,1,0,0-2.018Zm0,0" transform="translate(153.979 30745.141)" fill="#075057"/>
    <path id="Trazado_732672" data-name="Trazado 732672" d="M13.017,125.6H42.272a6.053,6.053,0,0,1,6.053,6.053v12.1a6.053,6.053,0,0,1-6.053,6.053H27.141l-12.4,12.4a1.009,1.009,0,0,1-1.723-.713V149.809a6.053,6.053,0,0,1-6.053-6.053v-12.1a6.053,6.053,0,0,1,6.053-6.053Zm0,0" transform="translate(428.044 30685.561)" fill="#ffa031"/>
    <g id="Grupo_1013892" data-name="Grupo 1013892" transform="translate(438.035 30814.184)">
      <path id="Trazado_732673" data-name="Trazado 732673" d="M33.92,204.248a1.009,1.009,0,0,0,0-2.018H28.876a1.008,1.008,0,0,0-1.009,1.009v8.07a1.009,1.009,0,0,0,1.009,1.009H33.92a1.009,1.009,0,0,0,0-2.018H29.885v-2.018h3.026a1.009,1.009,0,1,0,0-2.018H29.885v-2.018Zm0,0" transform="translate(-27.867 -194.16)" fill="#c66b00"/>
      <path id="Trazado_732674" data-name="Trazado 732674" d="M132.463,216.162a3.009,3.009,0,0,0-2.018.787,3.013,3.013,0,0,0-5.044,2.239v4.035a1.009,1.009,0,1,0,2.018,0v-4.035a1.009,1.009,0,0,1,2.018,0v4.035a1.009,1.009,0,1,0,2.018,0v-4.035a1.009,1.009,0,0,1,2.018,0v4.035a1.009,1.009,0,1,0,2.018,0v-4.035a3.027,3.027,0,0,0-3.027-3.026Zm0,0" transform="translate(-111.279 -206.074)" fill="#c66b00"/>
      <path id="Trazado_732675" data-name="Trazado 732675" d="M199.1,218.182h1.009a1.009,1.009,0,0,0,0-2.018H199.1a4.035,4.035,0,1,0,0,8.07h1.009a1.009,1.009,0,0,0,0-2.018H199.1a2.017,2.017,0,1,1,0-4.035Zm0,0" transform="translate(-170.856 -206.076)" fill="#c66b00"/>
      <path id="Trazado_732676" data-name="Trazado 732676" d="M227.978,153.558h-3.026a1.009,1.009,0,0,1,1.009-1.009,3.026,3.026,0,1,0-3.026-3.026,1.009,1.009,0,0,0,2.018,0,1.009,1.009,0,1,1,1.009,1.009,3.027,3.027,0,0,0-3.027,3.027v1.008a1.009,1.009,0,0,0,1.009,1.009h4.035a1.009,1.009,0,1,0,0-2.018Zm0,0" transform="translate(-194.688 -146.497)" fill="#c66b00"/>
      <path id="Trazado_732677" data-name="Trazado 732677" d="M86.628,223.129H84.61a1.009,1.009,0,0,0,0,2.018h2.018a1.009,1.009,0,1,0,0-2.018Zm0,0" transform="translate(-75.531 -212.033)" fill="#c66b00"/>
      <path id="Trazado_732678" data-name="Trazado 732678" d="M86.628,244.031H84.61a1.009,1.009,0,0,0,0,2.018h2.018a1.009,1.009,0,1,0,0-2.018Zm0,0" transform="translate(-75.531 -229.908)" fill="#c66b00"/>
      <path id="Trazado_732679" data-name="Trazado 732679" d="M57.752,161.438a1.009,1.009,0,1,1-1.009-1.009A1.009,1.009,0,0,1,57.752,161.438Zm0,0" transform="translate(-51.699 -158.412)" fill="#c66b00"/>
      <path id="Trazado_732680" data-name="Trazado 732680" d="M85.619,161.438a1.009,1.009,0,1,1-1.009-1.009A1.009,1.009,0,0,1,85.619,161.438Zm0,0" transform="translate(-75.531 -158.412)" fill="#c66b00"/>
      <path id="Trazado_732681" data-name="Trazado 732681" d="M113.483,161.438a1.009,1.009,0,1,1-1.009-1.009A1.009,1.009,0,0,1,113.483,161.438Zm0,0" transform="translate(-99.36 -158.412)" fill="#c66b00"/>
      <path id="Trazado_732682" data-name="Trazado 732682" d="M141.35,161.438a1.009,1.009,0,1,1-1.009-1.009A1.008,1.008,0,0,1,141.35,161.438Zm0,0" transform="translate(-123.192 -158.412)" fill="#c66b00"/>
      <path id="Trazado_732683" data-name="Trazado 732683" d="M169.217,161.438a1.009,1.009,0,1,1-1.008-1.009A1.008,1.008,0,0,1,169.217,161.438Zm0,0" transform="translate(-147.024 -158.412)" fill="#c66b00"/>
    </g>
    <path id="Trazado_732684" data-name="Trazado 732684" d="M33.92,197.279a1.009,1.009,0,0,0,0-2.018H28.876a1.009,1.009,0,0,0-1.009,1.009v8.07a1.008,1.008,0,0,0,1.009,1.009H33.92a1.009,1.009,0,0,0,0-2.018H29.885v-2.018h3.026a1.009,1.009,0,1,0,0-2.018H29.885v-2.018Zm0,0" transform="translate(410.168 30625.984)" fill="#9e0c09"/>
    <path id="Trazado_732685" data-name="Trazado 732685" d="M132.463,209.195a3.009,3.009,0,0,0-2.018.787,3.013,3.013,0,0,0-5.044,2.24v4.035a1.009,1.009,0,1,0,2.018,0v-4.035a1.009,1.009,0,1,1,2.018,0v4.035a1.009,1.009,0,1,0,2.018,0v-4.035a1.009,1.009,0,1,1,2.018,0v4.035a1.009,1.009,0,1,0,2.018,0v-4.035a3.027,3.027,0,0,0-3.027-3.027Zm0,0" transform="translate(326.756 30614.068)" fill="#9e0c09"/>
    <path id="Trazado_732686" data-name="Trazado 732686" d="M199.1,211.213h1.009a1.009,1.009,0,0,0,0-2.018H199.1a4.035,4.035,0,1,0,0,8.07h1.009a1.009,1.009,0,0,0,0-2.018H199.1a2.018,2.018,0,0,1,0-4.035Zm0,0" transform="translate(267.179 30614.068)" fill="#9e0c09"/>
    <path id="Trazado_732687" data-name="Trazado 732687" d="M227.978,146.589h-3.026a1.009,1.009,0,0,1,1.009-1.009,3.026,3.026,0,1,0-3.026-3.026,1.009,1.009,0,1,0,2.018,0,1.009,1.009,0,1,1,1.009,1.009,3.026,3.026,0,0,0-3.027,3.026V147.6a1.009,1.009,0,0,0,1.009,1.009h4.035a1.009,1.009,0,1,0,0-2.018Zm0,0" transform="translate(243.347 30673.648)" fill="#9e0c09"/>
    <path id="Trazado_732688" data-name="Trazado 732688" d="M86.628,216.164H84.61a1.009,1.009,0,0,0,0,2.018h2.018a1.009,1.009,0,1,0,0-2.018Zm0,0" transform="translate(362.504 30608.107)" fill="#9e0c09"/>
    <path id="Trazado_732689" data-name="Trazado 732689" d="M86.628,237.063H84.61a1.009,1.009,0,0,0,0,2.018h2.018a1.009,1.009,0,1,0,0-2.018Zm0,0" transform="translate(362.504 30590.234)" fill="#9e0c09"/>
    <path id="Trazado_732690" data-name="Trazado 732690" d="M315.518,133.571a1.009,1.009,0,1,1-1.009-1.009A1.008,1.008,0,0,1,315.518,133.571Zm0,0" transform="translate(165.895 30679.604)" fill="#075057"/>
    <path id="Trazado_732691" data-name="Trazado 732691" d="M343.385,133.571a1.009,1.009,0,1,1-1.008-1.009A1.008,1.008,0,0,1,343.385,133.571Zm0,0" transform="translate(142.063 30679.604)" fill="#075057"/>
    <path id="Trazado_732692" data-name="Trazado 732692" d="M371.252,133.571a1.009,1.009,0,1,1-1.009-1.009A1.009,1.009,0,0,1,371.252,133.571Zm0,0" transform="translate(118.23 30679.604)" fill="#075057"/>
    <path id="Trazado_732693" data-name="Trazado 732693" d="M57.752,154.474a1.009,1.009,0,1,1-1.009-1.009A1.009,1.009,0,0,1,57.752,154.474Zm0,0" transform="translate(386.336 30661.729)" fill="#9e0c09"/>
    <path id="Trazado_732694" data-name="Trazado 732694" d="M85.619,154.474a1.009,1.009,0,1,1-1.009-1.009A1.009,1.009,0,0,1,85.619,154.474Zm0,0" transform="translate(362.504 30661.729)" fill="#9e0c09"/>
    <path id="Trazado_732695" data-name="Trazado 732695" d="M113.483,154.474a1.009,1.009,0,1,1-1.009-1.009A1.009,1.009,0,0,1,113.483,154.474Zm0,0" transform="translate(338.676 30661.729)" fill="#9e0c09"/>
    <path id="Trazado_732696" data-name="Trazado 732696" d="M141.35,154.474a1.009,1.009,0,1,1-1.009-1.009A1.009,1.009,0,0,1,141.35,154.474Zm0,0" transform="translate(314.843 30661.729)" fill="#9e0c09"/>
    <path id="Trazado_732697" data-name="Trazado 732697" d="M169.217,154.474a1.009,1.009,0,1,1-1.008-1.009A1.009,1.009,0,0,1,169.217,154.474Zm0,0" transform="translate(291.011 30661.729)" fill="#9e0c09"/>
    <path id="Trazado_732698" data-name="Trazado 732698" d="M138.05,52.147a1.009,1.009,0,0,0-1.426,0l-1.3,1.3-1.3-1.3a1.009,1.009,0,0,0-1.427,1.426l1.3,1.3-1.3,1.3a1.009,1.009,0,0,0,1.4,1.451l.025-.025,1.3-1.3,1.3,1.3a1.009,1.009,0,1,0,1.451-1.4l-.025-.025-1.3-1.3,1.3-1.3A1.008,1.008,0,0,0,138.05,52.147Zm0,0" transform="translate(320.874 30748.629)"/>
    <path id="Trazado_732699" data-name="Trazado 732699" d="M198.749,36.04a1.008,1.008,0,0,0-1.009-1.009h-9.079a1.009,1.009,0,0,0-1,.865l-.552,3.864-.568-1.146a1.009,1.009,0,1,0-1.812.888l.007.014,2.017,4.035a1.01,1.01,0,0,0,.9.558,1.022,1.022,0,0,0,.161-.013,1.009,1.009,0,0,0,.838-.853l.885-6.2h8.2a1.008,1.008,0,0,0,1.009-1.009Zm0,0" transform="translate(276.106 30763.014)"/>
    <path id="Trazado_732700" data-name="Trazado 732700" d="M226.7,64.639a1.01,1.01,0,0,0,1.427.015l4.035-3.95a1.009,1.009,0,0,0-1.412-1.443l-1.281,1.255L228.247,59.2a1.009,1.009,0,1,0-1.507,1.341l.036.038,1.253,1.343-1.311,1.285a1.009,1.009,0,0,0-.015,1.427h0Zm0,0" transform="translate(240.37 30742.629)"/>
    <path id="Trazado_732701" data-name="Trazado 732701" d="M278.21,61.982a1.009,1.009,0,0,0,1.008-1.009V59.965h1.009a1.009,1.009,0,0,0,0-2.018h-1.009V56.938a1.009,1.009,0,0,0-2.018,0v1.009h-1.009a1.009,1.009,0,0,0,0,2.018H277.2v1.009A1.009,1.009,0,0,0,278.21,61.982Zm0,0" transform="translate(198.663 30745.141)"/>
    <path id="Trazado_732702" data-name="Trazado 732702" d="M333.486,60.974a1.009,1.009,0,0,0-1.009-1.009h-1.6l2.313-2.313a1.009,1.009,0,0,0-.713-1.722h-4.035a1.009,1.009,0,0,0,0,2.018h1.6l-2.313,2.313a1.009,1.009,0,0,0,.713,1.722h4.035A1.009,1.009,0,0,0,333.486,60.974Zm0,0" transform="translate(153.979 30745.141)"/>
    <path id="Trazado_732703" data-name="Trazado 732703" d="M59.518,18.357a1.009,1.009,0,0,0-1.009,1.009,5.05,5.05,0,0,1-5.044,5.044,1.009,1.009,0,0,0-1.009,1.009V35.742L46.27,24.915a1.009,1.009,0,0,0-.876-.5H43.377a7.069,7.069,0,0,0-7.061-7.061H16.14V7.261a5.05,5.05,0,0,1,5.044-5.044H53.465a5.05,5.05,0,0,1,5.044,5.044,1.009,1.009,0,0,0,2.018,0A7.069,7.069,0,0,0,53.465.2H21.184a7.07,7.07,0,0,0-7.062,7.061V17.349H7.061A7.069,7.069,0,0,0,0,24.41a1.009,1.009,0,0,0,2.018,0,5.05,5.05,0,0,1,5.044-5.044H36.316a5.05,5.05,0,0,1,5.044,5.044v12.1a5.05,5.05,0,0,1-5.044,5.044H21.184a1.009,1.009,0,0,0-.713.3l-12.4,12.4V42.568a1.009,1.009,0,0,0-1.009-1.009,5.049,5.049,0,0,1-5.044-5.044,1.009,1.009,0,0,0-2.018,0,7.073,7.073,0,0,0,6.053,6.99V56.691a1.01,1.01,0,0,0,.622.932,1,1,0,0,0,.387.076,1.009,1.009,0,0,0,.713-.3L21.6,43.577H36.316a7.069,7.069,0,0,0,7.061-7.061V26.428H44.81l7.78,13.619a1.007,1.007,0,0,0,.876.5,1.056,1.056,0,0,0,.259-.033,1.008,1.008,0,0,0,.749-.976V26.356a7.073,7.073,0,0,0,6.053-6.989,1.008,1.008,0,0,0-1.009-1.009Zm0,0" transform="translate(434 30792.801)"/>
    <path id="Trazado_732704" data-name="Trazado 732704" d="M27.867,196.27v8.07a1.009,1.009,0,0,0,1.009,1.009H33.92a1.009,1.009,0,0,0,0-2.018H29.885v-2.017h3.026a1.009,1.009,0,0,0,0-2.018H29.885v-2.018H33.92a1.009,1.009,0,0,0,0-2.018H28.876A1.009,1.009,0,0,0,27.867,196.27Zm0,0" transform="translate(410.168 30625.984)"/>
    <path id="Trazado_732705" data-name="Trazado 732705" d="M125.4,212.222v4.035a1.009,1.009,0,0,0,2.018,0v-4.035a1.009,1.009,0,1,1,2.018,0v4.035a1.009,1.009,0,0,0,2.018,0v-4.035a1.009,1.009,0,1,1,2.018,0v4.035a1.009,1.009,0,0,0,2.018,0v-4.035a3.013,3.013,0,0,0-5.044-2.239,3.013,3.013,0,0,0-5.044,2.239Zm0,0" transform="translate(326.756 30614.068)"/>
    <path id="Trazado_732706" data-name="Trazado 732706" d="M199.1,217.266h1.009a1.009,1.009,0,0,0,0-2.018H199.1a2.018,2.018,0,0,1,0-4.035h1.009a1.009,1.009,0,0,0,0-2.018H199.1a4.035,4.035,0,1,0,0,8.07Zm0,0" transform="translate(267.179 30614.068)"/>
    <path id="Trazado_732707" data-name="Trazado 732707" d="M225.96,143.566a3.026,3.026,0,0,0-3.026,3.026V147.6a1.008,1.008,0,0,0,1.009,1.008h4.035a1.009,1.009,0,1,0,0-2.018h-3.026a1.008,1.008,0,0,1,1.008-1.008,3.026,3.026,0,1,0-3.026-3.027,1.009,1.009,0,1,0,2.018,0,1.009,1.009,0,1,1,1.009,1.009Zm0,0" transform="translate(243.347 30673.645)"/>
    <path id="Trazado_732708" data-name="Trazado 732708" d="M84.61,218.182h2.018a1.009,1.009,0,1,0,0-2.018H84.61a1.009,1.009,0,0,0,0,2.018Zm0,0" transform="translate(362.504 30608.107)"/>
    <path id="Trazado_732709" data-name="Trazado 732709" d="M84.61,239.08h2.018a1.009,1.009,0,1,0,0-2.018H84.61a1.009,1.009,0,0,0,0,2.018Zm0,0" transform="translate(362.504 30590.236)"/>
    <path id="Trazado_732710" data-name="Trazado 732710" d="M315.518,126.607a1.009,1.009,0,1,1-1.009-1.009A1.009,1.009,0,0,1,315.518,126.607Zm0,0" transform="translate(165.895 30685.561)"/>
    <path id="Trazado_732711" data-name="Trazado 732711" d="M343.385,126.607a1.009,1.009,0,1,1-1.008-1.009A1.009,1.009,0,0,1,343.385,126.607Zm0,0" transform="translate(142.063 30685.561)"/>
    <path id="Trazado_732712" data-name="Trazado 732712" d="M371.252,126.607a1.009,1.009,0,1,1-1.009-1.009A1.009,1.009,0,0,1,371.252,126.607Zm0,0" transform="translate(118.23 30685.561)"/>
    <path id="Trazado_732713" data-name="Trazado 732713" d="M57.752,154.474a1.009,1.009,0,1,1-1.009-1.009A1.009,1.009,0,0,1,57.752,154.474Zm0,0" transform="translate(386.336 30661.729)"/>
    <path id="Trazado_732714" data-name="Trazado 732714" d="M85.619,154.474a1.009,1.009,0,1,1-1.009-1.009A1.009,1.009,0,0,1,85.619,154.474Zm0,0" transform="translate(362.504 30661.729)"/>
    <path id="Trazado_732715" data-name="Trazado 732715" d="M113.483,154.474a1.009,1.009,0,1,1-1.009-1.009A1.009,1.009,0,0,1,113.483,154.474Zm0,0" transform="translate(338.676 30661.729)"/>
    <path id="Trazado_732716" data-name="Trazado 732716" d="M141.35,154.474a1.009,1.009,0,1,1-1.009-1.009A1.009,1.009,0,0,1,141.35,154.474Zm0,0" transform="translate(314.843 30661.729)"/>
    <path id="Trazado_732717" data-name="Trazado 732717" d="M169.215,154.586a1.009,1.009,0,1,0-1.118.886,1.009,1.009,0,0,0,1.118-.886Zm0,0" transform="translate(291.007 30661.73)"/>
  </g>
</svg>
