<svg xmlns="http://www.w3.org/2000/svg" width="148.281" height="34.338" viewBox="0 0 148.281 34.338">
  <g id="Grupo_1015994" data-name="Grupo 1015994" transform="translate(9631.426 -20276)">
    <path id="Trazado_737842" data-name="Trazado 737842" d="M-24.652,0h-1.422L-24.4-9.594l-3.023,1.063.242-1.375,4.219-1.523h.25Zm7.766.156a2.567,2.567,0,0,1-2.156-1.02A4.526,4.526,0,0,1-19.7-3.711q.016-.578.086-1.141l.281-1.9a7.043,7.043,0,0,1,1.43-3.625,3.418,3.418,0,0,1,2.781-1.156,2.6,2.6,0,0,1,2.168,1,4.426,4.426,0,0,1,.66,2.8q-.023.586-.094,1.148L-12.66-4.75A7.463,7.463,0,0,1-14.121-.992,3.4,3.4,0,0,1-16.887.156Zm3.133-7a12.092,12.092,0,0,0,.1-1.469q-.039-1.984-1.539-2.039a2.053,2.053,0,0,0-1.77.809,5.606,5.606,0,0,0-.941,2.66l-.336,2.266a11.525,11.525,0,0,0-.1,1.477q.039,2.07,1.531,2.125a2.007,2.007,0,0,0,1.715-.766,5.429,5.429,0,0,0,.965-2.578Zm5.664,7a2.567,2.567,0,0,1-2.156-1.02A4.526,4.526,0,0,1-10.9-3.711q.016-.578.086-1.141l.281-1.9a7.043,7.043,0,0,1,1.43-3.625,3.418,3.418,0,0,1,2.781-1.156,2.6,2.6,0,0,1,2.168,1,4.426,4.426,0,0,1,.66,2.8q-.023.586-.094,1.148L-3.863-4.75A7.463,7.463,0,0,1-5.324-.992,3.4,3.4,0,0,1-8.09.156Zm3.133-7a12.092,12.092,0,0,0,.1-1.469q-.039-1.984-1.539-2.039a2.053,2.053,0,0,0-1.77.809,5.606,5.606,0,0,0-.941,2.66l-.336,2.266a11.525,11.525,0,0,0-.1,1.477Q-9.5-1.07-8.012-1.016A2.007,2.007,0,0,0-6.3-1.781a5.429,5.429,0,0,0,.965-2.578ZM4.215-3.9l-1.109.992L2.605,0H1.191L3.277-12H4.691L3.441-4.828,4.309-5.7l3-2.75H9.145l-3.883,3.6L7.934,0H6.387Zm5.328-.344a6.889,6.889,0,0,1,.746-2.4,3.9,3.9,0,0,1,1.359-1.508A3.151,3.151,0,0,1,13.4-8.617a2.6,2.6,0,0,1,2.219,1.109l.281-.945h1.3L15.793-.18A4.113,4.113,0,0,1,14.48,2.41a3.7,3.7,0,0,1-2.68.926,3.8,3.8,0,0,1-1.645-.406,3.127,3.127,0,0,1-1.238-1.07l.8-.867a2.419,2.419,0,0,0,2.023,1.164,2.425,2.425,0,0,0,1.707-.562,2.9,2.9,0,0,0,.926-1.687l.156-.75a3.2,3.2,0,0,1-2.414,1A2.486,2.486,0,0,1,10.75-.27a2.589,2.589,0,0,1-.9-1.164,4.759,4.759,0,0,1-.352-1.7A8.733,8.733,0,0,1,9.543-4.242Zm1.367.8A2.974,2.974,0,0,0,11.3-1.714a1.461,1.461,0,0,0,1.238.644,2.561,2.561,0,0,0,2.18-1.241l.664-3.878a1.776,1.776,0,0,0-1.7-1.2,2.194,2.194,0,0,0-1.887.936,4.878,4.878,0,0,0-.871,2.614ZM25.473-5.375l2.3-3.078H29.5L26.113-4.2,28.176,0H26.637l-1.4-3.156L22.855,0H21.129l3.492-4.344-2-4.109h1.547Z" transform="translate(-9604 20298)" fill="#12263f"/>
    <path id="Trazado_737843" data-name="Trazado 737843" d="M29.41,17H27.957V7.367l-2.914,1.07V7.125L29.184,5.57h.227ZM39.543,9.578A3.275,3.275,0,0,1,42.1,8.4a2.058,2.058,0,0,1,1.762.816,3.217,3.217,0,0,1,.426,2.246L43.363,17H41.949l.93-5.562a2.968,2.968,0,0,0,.008-.711A1.168,1.168,0,0,0,41.6,9.609a2.6,2.6,0,0,0-2.234,1.359L38.316,17H36.9L38.988,5H40.4Z" transform="translate(-9551 20271)" fill="#12263f"/>
    <path id="Trazado_737844" data-name="Trazado 737844" d="M9.207,11.3l.578-5.672h5.828V6.961h-4.6l-.344,3.1a3.671,3.671,0,0,1,1.9-.492A3.138,3.138,0,0,1,15.035,10.6a4.026,4.026,0,0,1,.914,2.777A3.886,3.886,0,0,1,15,16.145a3.46,3.46,0,0,1-2.652,1.012,3.6,3.6,0,0,1-2.461-.836A3.337,3.337,0,0,1,8.8,14.008h1.367a2.3,2.3,0,0,0,.7,1.473,2.162,2.162,0,0,0,1.484.5,1.95,1.95,0,0,0,1.582-.687,2.874,2.874,0,0,0,.574-1.9,2.638,2.638,0,0,0-.621-1.832,2.113,2.113,0,0,0-1.652-.691,2.383,2.383,0,0,0-1.484.414l-.383.313Zm8.422,7.969-.82-.562a3.77,3.77,0,0,0,.766-2.109v-1.3h1.414v1.133A3.559,3.559,0,0,1,18.6,18,3.7,3.7,0,0,1,17.629,19.266ZM26.77,13.18h1.578v1.18H26.77V17H25.316V14.359h-5.18v-.852L25.23,5.625H26.77Zm-4.992,0h3.539V7.6l-.172.313ZM35.941,13.1l-1.109.992L34.332,17H32.918L35,5h1.414l-1.25,7.172.867-.875,3-2.75h1.836l-3.883,3.6L39.66,17H38.113Zm5.328-.344a6.889,6.889,0,0,1,.746-2.4,3.9,3.9,0,0,1,1.359-1.508,3.151,3.151,0,0,1,1.754-.465,2.6,2.6,0,0,1,2.219,1.109l.281-.945h1.3L47.52,16.82a4.113,4.113,0,0,1-1.312,2.59,3.7,3.7,0,0,1-2.68.926,3.8,3.8,0,0,1-1.645-.406,3.127,3.127,0,0,1-1.238-1.07l.8-.867a2.536,2.536,0,0,0,3.73.6,2.9,2.9,0,0,0,.926-1.687l.156-.75a3.2,3.2,0,0,1-2.414,1,2.486,2.486,0,0,1-1.371-.426,2.589,2.589,0,0,1-.9-1.164,4.759,4.759,0,0,1-.352-1.7A8.733,8.733,0,0,1,41.27,12.758Zm1.367.8a2.974,2.974,0,0,0,.387,1.728,1.461,1.461,0,0,0,1.238.644,2.561,2.561,0,0,0,2.18-1.241l.664-3.878a1.776,1.776,0,0,0-1.7-1.2,2.194,2.194,0,0,0-1.887.936,4.878,4.878,0,0,0-.871,2.614Z" transform="translate(-9545 20290)" fill="#12263f"/>
    <path id="Trazado_737845" data-name="Trazado 737845" d="M0,0H66.355" transform="translate(-9549.5 20289.5)" fill="none" stroke="#12263f" stroke-width="1"/>
  </g>
</svg>
