<svg xmlns="http://www.w3.org/2000/svg" width="215.255" height="33.879" viewBox="0 0 215.255 33.879">
  <g id="Grupo_1016017" data-name="Grupo 1016017" transform="translate(-670.5 -34749.461)">
    <path id="Trazado_737899" data-name="Trazado 737899" d="M12.7,5.625,14.7,14.891l5.219-9.266h1.93L19.867,17H18.406l.781-4.5.93-4.578L14.961,17H13.836L11.8,7.742l-.7,4.906L10.344,17H8.875L10.852,5.625ZM27.453,17a1.893,1.893,0,0,1-.055-.445l.023-.445a3.465,3.465,0,0,1-2.469,1.047,2.526,2.526,0,0,1-1.816-.707,2.14,2.14,0,0,1-.637-1.73,2.6,2.6,0,0,1,1.176-2.1,5.005,5.005,0,0,1,2.887-.754l1.477.008.094-.672A1.545,1.545,0,0,0,27.84,10a1.414,1.414,0,0,0-1.113-.457,2.181,2.181,0,0,0-1.285.355,1.513,1.513,0,0,0-.684.98l-1.422.008a2.266,2.266,0,0,1,.578-1.316,3.363,3.363,0,0,1,1.3-.891,4.215,4.215,0,0,1,1.648-.3,2.8,2.8,0,0,1,2.055.8,2.484,2.484,0,0,1,.617,2.043l-.687,4.188-.039.6a2.949,2.949,0,0,0,.094.852L28.891,17Zm-2.219-1.094a2.466,2.466,0,0,0,1.285-.324,3.254,3.254,0,0,0,1.043-.941l.3-1.742-1.07-.008a4.054,4.054,0,0,0-2.047.422,1.554,1.554,0,0,0-.8,1.2,1.21,1.21,0,0,0,.277.988A1.321,1.321,0,0,0,25.234,15.906Zm10.8-1.2q.117-.875-.961-1.234l-1.469-.43q-1.859-.641-1.8-2.125a2.341,2.341,0,0,1,1.02-1.832,3.631,3.631,0,0,1,2.27-.7,3.027,3.027,0,0,1,2.082.746,2.363,2.363,0,0,1,.77,1.9l-1.406-.008a1.319,1.319,0,0,0-.4-1.031,1.576,1.576,0,0,0-1.1-.414,2.059,2.059,0,0,0-1.266.359,1.316,1.316,0,0,0-.57.922q-.1.734.9,1.07l.711.2a4.577,4.577,0,0,1,2.063.977,1.865,1.865,0,0,1,.563,1.492,2.37,2.37,0,0,1-.516,1.375,2.948,2.948,0,0,1-1.25.895,4.18,4.18,0,0,1-1.664.285,3.3,3.3,0,0,1-2.219-.785,2.427,2.427,0,0,1-.844-1.98l1.414.008a1.5,1.5,0,0,0,.453,1.141,1.732,1.732,0,0,0,1.242.43,2.436,2.436,0,0,0,1.336-.324A1.247,1.247,0,0,0,36.039,14.711ZM44.055,17A1.894,1.894,0,0,1,44,16.555l.023-.445a3.465,3.465,0,0,1-2.469,1.047,2.526,2.526,0,0,1-1.816-.707,2.14,2.14,0,0,1-.637-1.73,2.6,2.6,0,0,1,1.176-2.1,5.005,5.005,0,0,1,2.887-.754l1.477.008.094-.672a1.545,1.545,0,0,0-.293-1.2,1.414,1.414,0,0,0-1.113-.457,2.181,2.181,0,0,0-1.285.355,1.513,1.513,0,0,0-.684.98l-1.422.008a2.266,2.266,0,0,1,.578-1.316,3.363,3.363,0,0,1,1.3-.891,4.215,4.215,0,0,1,1.648-.3,2.8,2.8,0,0,1,2.055.8,2.484,2.484,0,0,1,.617,2.043l-.687,4.188-.039.6a2.949,2.949,0,0,0,.094.852L45.492,17Zm-2.219-1.094a2.466,2.466,0,0,0,1.285-.324,3.254,3.254,0,0,0,1.043-.941l.3-1.742-1.07-.008a4.054,4.054,0,0,0-2.047.422,1.554,1.554,0,0,0-.8,1.2,1.21,1.21,0,0,0,.277.988A1.321,1.321,0,0,0,41.836,15.906Zm13.063.078a2.145,2.145,0,0,0,1.367-.441,2.1,2.1,0,0,0,.8-1.2l1.336-.008a3.014,3.014,0,0,1-.637,1.453,3.68,3.68,0,0,1-2.926,1.367,3.017,3.017,0,0,1-1.785-.551,3.084,3.084,0,0,1-1.074-1.492,4.972,4.972,0,0,1-.234-2.152l.039-.391a5.605,5.605,0,0,1,.711-2.18,4.11,4.11,0,0,1,1.469-1.5,3.648,3.648,0,0,1,2-.5,2.857,2.857,0,0,1,2.125.891,3.08,3.08,0,0,1,.8,2.18l-1.32-.008a2.029,2.029,0,0,0-.461-1.34,1.607,1.607,0,0,0-1.2-.543,2.254,2.254,0,0,0-1.832.82,4.3,4.3,0,0,0-.91,2.359l-.023.2a6.776,6.776,0,0,0-.016,1.031,2.355,2.355,0,0,0,.516,1.445A1.656,1.656,0,0,0,54.9,15.984Zm9.328-7.594a3.047,3.047,0,0,1,1.82.578,3.285,3.285,0,0,1,1.121,1.551,4.8,4.8,0,0,1,.246,2.16l-.016.172a5.685,5.685,0,0,1-.734,2.23,4.309,4.309,0,0,1-1.516,1.551,3.7,3.7,0,0,1-2.039.523,3.052,3.052,0,0,1-1.816-.578,3.21,3.21,0,0,1-1.113-1.531,4.931,4.931,0,0,1-.25-2.133,5.76,5.76,0,0,1,.711-2.359,4.409,4.409,0,0,1,1.527-1.621A3.652,3.652,0,0,1,64.227,8.391Zm-2.875,4.531a4.8,4.8,0,0,0,0,1.023,2.507,2.507,0,0,0,.551,1.469,1.653,1.653,0,0,0,1.262.57,2.253,2.253,0,0,0,1.3-.348,2.919,2.919,0,0,0,1-1.121,4.721,4.721,0,0,0,.523-1.664,7.5,7.5,0,0,0,.023-1.211,2.6,2.6,0,0,0-.57-1.492,1.69,1.69,0,0,0-1.266-.578,2.3,2.3,0,0,0-1.859.859,4.245,4.245,0,0,0-.945,2.313Zm9.914-4.383-.2,1.07a3.333,3.333,0,0,1,2.594-1.219,2.1,2.1,0,0,1,1.766.828,3.217,3.217,0,0,1,.422,2.242L74.922,17H73.508l.93-5.557a2.962,2.962,0,0,0,.008-.71,1.168,1.168,0,0,0-1.289-1.116,2.661,2.661,0,0,0-2.234,1.358L69.875,17H68.461L69.93,8.547ZM80.836,6.5l-.359,2.047h1.539l-.2,1.117H80.289l-.883,5.258a1.833,1.833,0,0,0-.008.375.6.6,0,0,0,.664.609,4.05,4.05,0,0,0,.688-.078l-.109,1.18a3.847,3.847,0,0,1-1.031.141,1.476,1.476,0,0,1-1.266-.621,2.4,2.4,0,0,1-.328-1.629l.859-5.234H77.383l.2-1.117H79.07L79.43,6.5ZM87.422,17a1.893,1.893,0,0,1-.055-.445l.023-.445a3.465,3.465,0,0,1-2.469,1.047,2.526,2.526,0,0,1-1.816-.707,2.14,2.14,0,0,1-.637-1.73,2.6,2.6,0,0,1,1.176-2.1,5.005,5.005,0,0,1,2.887-.754l1.477.008L88.1,11.2a1.545,1.545,0,0,0-.293-1.2A1.414,1.414,0,0,0,86.7,9.547,2.181,2.181,0,0,0,85.41,9.9a1.513,1.513,0,0,0-.684.98l-1.422.008a2.266,2.266,0,0,1,.578-1.316,3.363,3.363,0,0,1,1.3-.891,4.215,4.215,0,0,1,1.648-.3,2.8,2.8,0,0,1,2.055.8,2.484,2.484,0,0,1,.617,2.043l-.687,4.188-.039.6a2.949,2.949,0,0,0,.094.852L88.859,17ZM85.2,15.906a2.466,2.466,0,0,0,1.285-.324,3.254,3.254,0,0,0,1.043-.941l.3-1.742-1.07-.008a4.054,4.054,0,0,0-2.047.422,1.554,1.554,0,0,0-.8,1.2,1.21,1.21,0,0,0,.277.988A1.321,1.321,0,0,0,85.2,15.906Zm8.359-7.367-.18.945a3.305,3.305,0,0,1,2.57-1.094,2.608,2.608,0,0,1,1.363.367,1.8,1.8,0,0,1,.77.992,3.49,3.49,0,0,1,2.8-1.359,2.235,2.235,0,0,1,1.867.852,3.042,3.042,0,0,1,.445,2.2L102.273,17h-1.406l.922-5.57a2.943,2.943,0,0,0,0-.742Q101.641,9.625,100.4,9.6a2.136,2.136,0,0,0-1.4.48,2.222,2.222,0,0,0-.809,1.3L97.227,17H95.8l.938-5.562A1.786,1.786,0,0,0,96.48,10.1a1.377,1.377,0,0,0-1.129-.484,2.315,2.315,0,0,0-2.1,1.2L92.18,17H90.766l1.469-8.453ZM105.984,17h-1.406l1.469-8.453h1.406Zm1.164-11.539a.774.774,0,0,1,.6.215.8.8,0,0,1,.238.605.834.834,0,0,1-.836.852.779.779,0,0,1-.6-.211.764.764,0,0,1-.227-.594.886.886,0,0,1,.234-.609A.826.826,0,0,1,107.148,5.461ZM111.1,8.539l-.2,1.07a3.333,3.333,0,0,1,2.594-1.219,2.1,2.1,0,0,1,1.766.828,3.217,3.217,0,0,1,.422,2.242L114.758,17h-1.414l.93-5.557a2.962,2.962,0,0,0,.008-.71,1.168,1.168,0,0,0-1.289-1.116,2.661,2.661,0,0,0-2.234,1.358L109.711,17H108.3l1.469-8.453ZM122.109,17a1.893,1.893,0,0,1-.055-.445l.023-.445a3.465,3.465,0,0,1-2.469,1.047,2.526,2.526,0,0,1-1.816-.707,2.14,2.14,0,0,1-.637-1.73,2.6,2.6,0,0,1,1.176-2.1,5.005,5.005,0,0,1,2.887-.754l1.477.008.094-.672A1.545,1.545,0,0,0,122.5,10a1.414,1.414,0,0,0-1.113-.457A2.181,2.181,0,0,0,120.1,9.9a1.513,1.513,0,0,0-.684.98l-1.422.008a2.266,2.266,0,0,1,.578-1.316,3.363,3.363,0,0,1,1.3-.891,4.215,4.215,0,0,1,1.648-.3,2.8,2.8,0,0,1,2.055.8,2.484,2.484,0,0,1,.617,2.043l-.687,4.188-.039.6a2.949,2.949,0,0,0,.094.852l-.016.133Zm-2.219-1.094a2.466,2.466,0,0,0,1.285-.324,3.254,3.254,0,0,0,1.043-.941l.3-1.742-1.07-.008a4.054,4.054,0,0,0-2.047.422,1.554,1.554,0,0,0-.8,1.2,1.21,1.21,0,0,0,.277.988A1.321,1.321,0,0,0,119.891,15.906Zm8.375-7.367-.2,1.07a3.333,3.333,0,0,1,2.594-1.219,2.1,2.1,0,0,1,1.766.828,3.217,3.217,0,0,1,.422,2.242L131.922,17h-1.414l.93-5.557a2.962,2.962,0,0,0,.008-.71,1.168,1.168,0,0,0-1.289-1.116,2.661,2.661,0,0,0-2.234,1.358L126.875,17h-1.414l1.469-8.453Zm9.57-2.039-.359,2.047h1.539l-.2,1.117h-1.531l-.883,5.258a1.833,1.833,0,0,0-.008.375.6.6,0,0,0,.664.609,4.05,4.05,0,0,0,.688-.078l-.109,1.18a3.847,3.847,0,0,1-1.031.141,1.476,1.476,0,0,1-1.266-.621,2.4,2.4,0,0,1-.328-1.629l.859-5.234h-1.492l.2-1.117h1.492L136.43,6.5Zm5.07,10.656a3.048,3.048,0,0,1-2.469-1.164,4.006,4.006,0,0,1-.75-2.9l.039-.336a5.624,5.624,0,0,1,.746-2.3,4.339,4.339,0,0,1,1.5-1.566,3.491,3.491,0,0,1,1.906-.5,2.688,2.688,0,0,1,2.047.867,3.566,3.566,0,0,1,.813,2.266,6.621,6.621,0,0,1-.031,1.016l-.086.648h-5.523a2.855,2.855,0,0,0,.379,1.953,1.8,1.8,0,0,0,1.551.836,3.007,3.007,0,0,0,2.313-1.125l.813.688a3.718,3.718,0,0,1-1.371,1.2A3.886,3.886,0,0,1,142.906,17.156Zm.9-7.586a2.066,2.066,0,0,0-1.527.594A4.22,4.22,0,0,0,141.242,12l4.109.008.031-.125a2.313,2.313,0,0,0-.316-1.637A1.488,1.488,0,0,0,143.8,9.57ZM155.2,6.5l-.359,2.047h1.539l-.2,1.117h-1.531l-.883,5.258a1.833,1.833,0,0,0-.008.375.6.6,0,0,0,.664.609,4.05,4.05,0,0,0,.688-.078l-.109,1.18a3.847,3.847,0,0,1-1.031.141,1.476,1.476,0,0,1-1.266-.621,2.4,2.4,0,0,1-.328-1.629l.859-5.234H151.75l.2-1.117h1.492L153.8,6.5ZM161.789,17a1.894,1.894,0,0,1-.055-.445l.023-.445a3.465,3.465,0,0,1-2.469,1.047,2.526,2.526,0,0,1-1.816-.707,2.14,2.14,0,0,1-.637-1.73,2.6,2.6,0,0,1,1.176-2.1,5.005,5.005,0,0,1,2.887-.754l1.477.008.094-.672a1.545,1.545,0,0,0-.293-1.2,1.414,1.414,0,0,0-1.113-.457,2.181,2.181,0,0,0-1.285.355,1.513,1.513,0,0,0-.684.98l-1.422.008a2.266,2.266,0,0,1,.578-1.316,3.363,3.363,0,0,1,1.3-.891,4.215,4.215,0,0,1,1.648-.3,2.8,2.8,0,0,1,2.055.8,2.484,2.484,0,0,1,.617,2.043l-.687,4.188-.039.6a2.949,2.949,0,0,0,.094.852l-.016.133Zm-2.219-1.094a2.466,2.466,0,0,0,1.285-.324,3.254,3.254,0,0,0,1.043-.941l.3-1.742-1.07-.008a4.054,4.054,0,0,0-2.047.422,1.554,1.554,0,0,0-.8,1.2,1.21,1.21,0,0,0,.277.988A1.321,1.321,0,0,0,159.57,15.906Zm8.375-7.367-.2,1.07a3.333,3.333,0,0,1,2.594-1.219,2.1,2.1,0,0,1,1.766.828,3.217,3.217,0,0,1,.422,2.242L171.6,17h-1.414l.93-5.557a2.962,2.962,0,0,0,.008-.71,1.168,1.168,0,0,0-1.289-1.116,2.661,2.661,0,0,0-2.234,1.358L166.555,17h-1.414l1.469-8.453Zm10.164-.156a2.643,2.643,0,0,1,2.18,1.023l.258-.859h1.3l-2.031,11.7h-1.406l.766-4.031a3.2,3.2,0,0,1-2.359.938,2.356,2.356,0,0,1-1.9-.9,3.929,3.929,0,0,1-.766-2.383,6.917,6.917,0,0,1,.227-2.043,5.907,5.907,0,0,1,.816-1.875,3.641,3.641,0,0,1,1.285-1.2A3.2,3.2,0,0,1,178.109,8.383Zm-2.5,4.539-.039.656a2.963,2.963,0,0,0,.41,1.762,1.458,1.458,0,0,0,1.246.645,2.571,2.571,0,0,0,2.117-1.141l.734-4.156a1.8,1.8,0,0,0-1.687-1.117,2.232,2.232,0,0,0-1.8.82A4.861,4.861,0,0,0,175.609,12.922Zm12.438,3.242a3.265,3.265,0,0,1-2.523.992,2.107,2.107,0,0,1-1.793-.867,3.317,3.317,0,0,1-.434-2.281l.906-5.461h1.414l-.914,5.484a3.642,3.642,0,0,0-.016.672,1.4,1.4,0,0,0,.336.883,1.146,1.146,0,0,0,.828.344A2.536,2.536,0,0,0,188.2,14.7l1.063-6.156h1.414L189.2,17h-1.336Zm6.922.992a3.048,3.048,0,0,1-2.469-1.164,4.006,4.006,0,0,1-.75-2.9l.039-.336a5.624,5.624,0,0,1,.746-2.3,4.339,4.339,0,0,1,1.5-1.566,3.491,3.491,0,0,1,1.906-.5,2.688,2.688,0,0,1,2.047.867,3.566,3.566,0,0,1,.813,2.266,6.621,6.621,0,0,1-.031,1.016l-.086.648h-5.523a2.855,2.855,0,0,0,.379,1.953,1.8,1.8,0,0,0,1.551.836,3.007,3.007,0,0,0,2.313-1.125l.813.688a3.718,3.718,0,0,1-1.371,1.2A3.886,3.886,0,0,1,194.969,17.156Zm.9-7.586a2.066,2.066,0,0,0-1.527.594A4.22,4.22,0,0,0,193.3,12l4.109.008.031-.125a2.313,2.313,0,0,0-.316-1.637A1.488,1.488,0,0,0,195.867,9.57ZM205.32,17h-1.461l1.977-11.375H207.3Z" transform="translate(670 34744)" fill="#fff"/>
    <path id="Trazado_737900" data-name="Trazado 737900" d="M5.387,14.992,10,5.625H11.66L5.785,17h-1.3L2.184,5.625H3.723Zm10.047-6.6a3.047,3.047,0,0,1,1.82.578,3.285,3.285,0,0,1,1.121,1.551,4.8,4.8,0,0,1,.246,2.16l-.016.172a5.685,5.685,0,0,1-.734,2.23,4.309,4.309,0,0,1-1.516,1.551,3.7,3.7,0,0,1-2.039.523,3.052,3.052,0,0,1-1.816-.578,3.21,3.21,0,0,1-1.113-1.531,4.931,4.931,0,0,1-.25-2.133,5.76,5.76,0,0,1,.711-2.359,4.409,4.409,0,0,1,1.527-1.621A3.652,3.652,0,0,1,15.434,8.391Zm-2.875,4.531a4.8,4.8,0,0,0,0,1.023,2.507,2.507,0,0,0,.551,1.469,1.653,1.653,0,0,0,1.262.57,2.253,2.253,0,0,0,1.3-.348,2.919,2.919,0,0,0,1-1.121,4.721,4.721,0,0,0,.523-1.664,7.494,7.494,0,0,0,.023-1.211,2.6,2.6,0,0,0-.57-1.492,1.69,1.69,0,0,0-1.266-.578,2.3,2.3,0,0,0-1.859.859,4.245,4.245,0,0,0-.945,2.313ZM21.2,17H19.793L21.871,5h1.414Zm7.68-.836a3.265,3.265,0,0,1-2.523.992,2.107,2.107,0,0,1-1.793-.867,3.317,3.317,0,0,1-.434-2.281l.906-5.461h1.414l-.914,5.484a3.643,3.643,0,0,0-.016.672,1.4,1.4,0,0,0,.336.883,1.146,1.146,0,0,0,.828.344A2.537,2.537,0,0,0,29.027,14.7L30.09,8.547H31.5L30.035,17H28.7Zm6.055-7.625-.18.945a3.305,3.305,0,0,1,2.57-1.094,2.608,2.608,0,0,1,1.363.367,1.8,1.8,0,0,1,.77.992,3.49,3.49,0,0,1,2.8-1.359,2.235,2.235,0,0,1,1.867.852,3.042,3.042,0,0,1,.445,2.2L43.645,17H42.238l.922-5.57a2.943,2.943,0,0,0,0-.742Q43.012,9.625,41.77,9.6a2.136,2.136,0,0,0-1.4.48,2.222,2.222,0,0,0-.809,1.3L38.6,17H37.176l.938-5.562a1.786,1.786,0,0,0-.262-1.336,1.377,1.377,0,0,0-1.129-.484,2.315,2.315,0,0,0-2.1,1.2L33.551,17H32.137l1.469-8.453ZM49.48,17.156a3.048,3.048,0,0,1-2.469-1.164,4.006,4.006,0,0,1-.75-2.9l.039-.336a5.624,5.624,0,0,1,.746-2.3,4.339,4.339,0,0,1,1.5-1.566,3.491,3.491,0,0,1,1.906-.5,2.688,2.688,0,0,1,2.047.867,3.566,3.566,0,0,1,.813,2.266,6.621,6.621,0,0,1-.031,1.016l-.086.648H47.668a2.856,2.856,0,0,0,.379,1.953,1.8,1.8,0,0,0,1.551.836,3.007,3.007,0,0,0,2.313-1.125l.813.688a3.718,3.718,0,0,1-1.371,1.2A3.886,3.886,0,0,1,49.48,17.156Zm.9-7.586a2.066,2.066,0,0,0-1.527.594A4.22,4.22,0,0,0,47.816,12l4.109.008.031-.125a2.313,2.313,0,0,0-.316-1.637A1.488,1.488,0,0,0,50.379,9.57Zm6.547-1.031-.2,1.07a3.333,3.333,0,0,1,2.594-1.219,2.1,2.1,0,0,1,1.766.828,3.217,3.217,0,0,1,.422,2.242L60.582,17H59.168l.93-5.557a2.962,2.962,0,0,0,.008-.71,1.168,1.168,0,0,0-1.289-1.116,2.661,2.661,0,0,0-2.234,1.358L55.535,17H54.121L55.59,8.547ZM67.09,12.758A6.578,6.578,0,0,1,67.8,10.43a4.03,4.03,0,0,1,1.367-1.555,3.127,3.127,0,0,1,1.789-.492,2.64,2.64,0,0,1,2.172,1.031L73.941,5h1.414L73.277,17H71.988l.148-.906a3.116,3.116,0,0,1-2.469,1.063,2.335,2.335,0,0,1-1.867-.918,4,4,0,0,1-.75-2.379A7.6,7.6,0,0,1,67.09,12.758Zm1.359.808a2.929,2.929,0,0,0,.4,1.732,1.437,1.437,0,0,0,1.234.632,2.554,2.554,0,0,0,2.18-1.233l.672-3.9a1.754,1.754,0,0,0-1.7-1.186,2.143,2.143,0,0,0-1.473.5,3.256,3.256,0,0,0-.969,1.475A6.082,6.082,0,0,0,68.449,13.565Zm10.719,3.591A3.048,3.048,0,0,1,76.7,15.992a4.006,4.006,0,0,1-.75-2.9l.039-.336a5.624,5.624,0,0,1,.746-2.3,4.339,4.339,0,0,1,1.5-1.566,3.491,3.491,0,0,1,1.906-.5,2.688,2.688,0,0,1,2.047.867A3.566,3.566,0,0,1,83,11.523a6.62,6.62,0,0,1-.031,1.016l-.086.648H77.355a2.856,2.856,0,0,0,.379,1.953,1.8,1.8,0,0,0,1.551.836A3.007,3.007,0,0,0,81.6,14.852l.813.688a3.718,3.718,0,0,1-1.371,1.2A3.886,3.886,0,0,1,79.168,17.156Zm.9-7.586a2.066,2.066,0,0,0-1.527.594A4.22,4.22,0,0,0,77.5,12l4.109.008.031-.125a2.313,2.313,0,0,0-.316-1.637A1.488,1.488,0,0,0,80.066,9.57ZM92.9,17a1.893,1.893,0,0,1-.055-.445l.023-.445A3.465,3.465,0,0,1,90.4,17.156a2.526,2.526,0,0,1-1.816-.707,2.14,2.14,0,0,1-.637-1.73,2.6,2.6,0,0,1,1.176-2.1,5.005,5.005,0,0,1,2.887-.754l1.477.008.094-.672a1.545,1.545,0,0,0-.293-1.2,1.414,1.414,0,0,0-1.113-.457,2.181,2.181,0,0,0-1.285.355,1.513,1.513,0,0,0-.684.98l-1.422.008a2.266,2.266,0,0,1,.578-1.316,3.363,3.363,0,0,1,1.3-.891,4.215,4.215,0,0,1,1.648-.3,2.8,2.8,0,0,1,2.055.8,2.484,2.484,0,0,1,.617,2.043L94.3,15.414l-.039.6a2.949,2.949,0,0,0,.094.852L94.34,17Zm-2.219-1.094a2.466,2.466,0,0,0,1.285-.324,3.254,3.254,0,0,0,1.043-.941l.3-1.742-1.07-.008a4.054,4.054,0,0,0-2.047.422,1.554,1.554,0,0,0-.8,1.2,1.21,1.21,0,0,0,.277.988A1.321,1.321,0,0,0,90.684,15.906Zm5.984-3.148a6.889,6.889,0,0,1,.746-2.4,3.9,3.9,0,0,1,1.359-1.508,3.151,3.151,0,0,1,1.754-.465,2.6,2.6,0,0,1,2.219,1.109l.281-.945h1.3l-1.406,8.273a4.113,4.113,0,0,1-1.312,2.59,3.7,3.7,0,0,1-2.68.926,3.8,3.8,0,0,1-1.645-.406,3.127,3.127,0,0,1-1.238-1.07l.8-.867a2.536,2.536,0,0,0,3.73.6,2.9,2.9,0,0,0,.926-1.687l.156-.75a3.2,3.2,0,0,1-2.414,1,2.486,2.486,0,0,1-1.371-.426,2.589,2.589,0,0,1-.9-1.164,4.759,4.759,0,0,1-.352-1.7A8.734,8.734,0,0,1,96.668,12.758Zm1.367.8a2.974,2.974,0,0,0,.387,1.728,1.461,1.461,0,0,0,1.238.644,2.561,2.561,0,0,0,2.18-1.241l.664-3.878a1.776,1.776,0,0,0-1.7-1.2,2.194,2.194,0,0,0-1.887.936,4.878,4.878,0,0,0-.871,2.614Zm12.375,2.606a3.265,3.265,0,0,1-2.523.992,2.107,2.107,0,0,1-1.793-.867,3.317,3.317,0,0,1-.434-2.281l.906-5.461h1.414l-.914,5.484a3.643,3.643,0,0,0-.016.672,1.4,1.4,0,0,0,.336.883,1.146,1.146,0,0,0,.828.344,2.537,2.537,0,0,0,2.344-1.227l1.063-6.156h1.414L111.566,17H110.23Zm8.438.836a1.893,1.893,0,0,1-.055-.445l.023-.445a3.465,3.465,0,0,1-2.469,1.047,2.526,2.526,0,0,1-1.816-.707,2.14,2.14,0,0,1-.637-1.73,2.6,2.6,0,0,1,1.176-2.1,5.005,5.005,0,0,1,2.887-.754l1.477.008.094-.672a1.545,1.545,0,0,0-.293-1.2,1.414,1.414,0,0,0-1.113-.457,2.181,2.181,0,0,0-1.285.355,1.513,1.513,0,0,0-.684.98l-1.422.008a2.266,2.266,0,0,1,.578-1.316,3.363,3.363,0,0,1,1.3-.891,4.215,4.215,0,0,1,1.648-.3,2.8,2.8,0,0,1,2.055.8,2.484,2.484,0,0,1,.617,2.043l-.687,4.188-.039.6a2.949,2.949,0,0,0,.094.852l-.016.133Zm-2.219-1.094a2.466,2.466,0,0,0,1.285-.324,3.254,3.254,0,0,0,1.043-.941l.3-1.742-1.07-.008a4.054,4.054,0,0,0-2.047.422,1.554,1.554,0,0,0-.8,1.2,1.21,1.21,0,0,0,.277.988A1.321,1.321,0,0,0,116.629,15.906Zm13.148,1.25a3.048,3.048,0,0,1-2.469-1.164,4.006,4.006,0,0,1-.75-2.9l.039-.336a5.624,5.624,0,0,1,.746-2.3,4.339,4.339,0,0,1,1.5-1.566,3.491,3.491,0,0,1,1.906-.5,2.688,2.688,0,0,1,2.047.867,3.566,3.566,0,0,1,.813,2.266,6.621,6.621,0,0,1-.031,1.016l-.086.648h-5.523a2.856,2.856,0,0,0,.379,1.953,1.8,1.8,0,0,0,1.551.836,3.007,3.007,0,0,0,2.313-1.125l.813.688a3.718,3.718,0,0,1-1.371,1.2A3.886,3.886,0,0,1,129.777,17.156Zm.9-7.586a2.066,2.066,0,0,0-1.527.594A4.22,4.22,0,0,0,128.113,12l4.109.008.031-.125a2.313,2.313,0,0,0-.316-1.637A1.488,1.488,0,0,0,130.676,9.57Zm6.547-1.031-.2,1.07a3.333,3.333,0,0,1,2.594-1.219,2.1,2.1,0,0,1,1.766.828,3.217,3.217,0,0,1,.422,2.242L140.879,17h-1.414l.93-5.557a2.962,2.962,0,0,0,.008-.71,1.168,1.168,0,0,0-1.289-1.116,2.661,2.661,0,0,0-2.234,1.358L135.832,17h-1.414l1.469-8.453ZM150.715,6.5l-.359,2.047h1.539l-.2,1.117h-1.531l-.883,5.258a1.833,1.833,0,0,0-.008.375.6.6,0,0,0,.664.609,4.05,4.05,0,0,0,.688-.078l-.109,1.18a3.847,3.847,0,0,1-1.031.141,1.476,1.476,0,0,1-1.266-.621,2.4,2.4,0,0,1-.328-1.629l.859-5.234h-1.492l.2-1.117h1.492l.359-2.047ZM157.3,17a1.894,1.894,0,0,1-.055-.445l.023-.445a3.465,3.465,0,0,1-2.469,1.047,2.526,2.526,0,0,1-1.816-.707,2.14,2.14,0,0,1-.637-1.73,2.6,2.6,0,0,1,1.176-2.1,5.005,5.005,0,0,1,2.887-.754l1.477.008.094-.672a1.545,1.545,0,0,0-.293-1.2,1.414,1.414,0,0,0-1.113-.457,2.181,2.181,0,0,0-1.285.355,1.513,1.513,0,0,0-.684.98l-1.422.008a2.266,2.266,0,0,1,.578-1.316,3.363,3.363,0,0,1,1.3-.891,4.215,4.215,0,0,1,1.648-.3,2.8,2.8,0,0,1,2.055.8,2.484,2.484,0,0,1,.617,2.043l-.687,4.188-.039.6a2.949,2.949,0,0,0,.094.852l-.016.133Zm-2.219-1.094a2.466,2.466,0,0,0,1.285-.324,3.254,3.254,0,0,0,1.043-.941l.3-1.742-1.07-.008a4.054,4.054,0,0,0-2.047.422,1.554,1.554,0,0,0-.8,1.2,1.21,1.21,0,0,0,.277.988A1.321,1.321,0,0,0,155.082,15.906Zm8.375-7.367-.2,1.07a3.333,3.333,0,0,1,2.594-1.219,2.1,2.1,0,0,1,1.766.828,3.217,3.217,0,0,1,.422,2.242L167.113,17H165.7l.93-5.557a2.962,2.962,0,0,0,.008-.71,1.168,1.168,0,0,0-1.289-1.116,2.661,2.661,0,0,0-2.234,1.358L162.066,17h-1.414l1.469-8.453Zm10.164-.156a2.643,2.643,0,0,1,2.18,1.023l.258-.859h1.3l-2.031,11.7h-1.406l.766-4.031a3.2,3.2,0,0,1-2.359.938,2.356,2.356,0,0,1-1.9-.9,3.929,3.929,0,0,1-.766-2.383,6.917,6.917,0,0,1,.227-2.043,5.907,5.907,0,0,1,.816-1.875A3.641,3.641,0,0,1,172,8.758,3.2,3.2,0,0,1,173.621,8.383Zm-2.5,4.539-.039.656a2.963,2.963,0,0,0,.41,1.762,1.458,1.458,0,0,0,1.246.645,2.571,2.571,0,0,0,2.117-1.141l.734-4.156A1.8,1.8,0,0,0,173.9,9.57a2.232,2.232,0,0,0-1.8.82A4.861,4.861,0,0,0,171.121,12.922Zm12.438,3.242a3.265,3.265,0,0,1-2.523.992,2.107,2.107,0,0,1-1.793-.867,3.317,3.317,0,0,1-.434-2.281l.906-5.461h1.414l-.914,5.484a3.642,3.642,0,0,0-.016.672,1.4,1.4,0,0,0,.336.883,1.146,1.146,0,0,0,.828.344,2.536,2.536,0,0,0,2.344-1.227l1.063-6.156h1.414L184.715,17h-1.336Zm6.922.992a3.048,3.048,0,0,1-2.469-1.164,4.006,4.006,0,0,1-.75-2.9l.039-.336a5.624,5.624,0,0,1,.746-2.3,4.339,4.339,0,0,1,1.5-1.566,3.491,3.491,0,0,1,1.906-.5,2.688,2.688,0,0,1,2.047.867,3.566,3.566,0,0,1,.813,2.266,6.621,6.621,0,0,1-.031,1.016l-.086.648h-5.523a2.855,2.855,0,0,0,.379,1.953,1.8,1.8,0,0,0,1.551.836,3.007,3.007,0,0,0,2.313-1.125l.813.688a3.718,3.718,0,0,1-1.371,1.2A3.886,3.886,0,0,1,190.48,17.156Zm.9-7.586a2.066,2.066,0,0,0-1.527.594A4.22,4.22,0,0,0,188.816,12l4.109.008.031-.125a2.313,2.313,0,0,0-.316-1.637A1.488,1.488,0,0,0,191.379,9.57ZM200.832,17h-1.461l1.977-11.375h1.461Z" transform="translate(675 34763)" fill="#fff"/>
    <path id="Trazado_737901" data-name="Trazado 737901" d="M0,0H215.255" transform="translate(670.5 34762.5)" fill="none" stroke="#fff" stroke-width="1"/>
  </g>
</svg>
