<svg xmlns="http://www.w3.org/2000/svg" width="106" height="35.726" viewBox="0 0 106 35.726">
  <g id="Grupo_1015992" data-name="Grupo 1015992" transform="translate(-979.5 -3540.274)">
    <path id="Trazado_737827" data-name="Trazado 737827" d="M0,0H106" transform="translate(979.5 3558.5)" fill="none" stroke="#707070" stroke-width="1"/>
    <path id="Trazado_737830" data-name="Trazado 737830" d="M3.047-6.555H4.2A2.069,2.069,0,0,0,5.59-7.008,1.617,1.617,0,0,0,6.1-8.3a1.762,1.762,0,0,0-.426-1.262,1.714,1.714,0,0,0-1.3-.449,1.813,1.813,0,0,0-1.258.441,1.475,1.475,0,0,0-.492,1.152H.727a2.874,2.874,0,0,1,.465-1.594,3.123,3.123,0,0,1,1.3-1.121,4.225,4.225,0,0,1,1.863-.4,3.912,3.912,0,0,1,2.676.855A3,3,0,0,1,8-8.3a2.417,2.417,0,0,1-.488,1.441A3.062,3.062,0,0,1,6.25-5.836,2.791,2.791,0,0,1,7.676-4.828a2.759,2.759,0,0,1,.488,1.641A3.055,3.055,0,0,1,7.113-.75,4.08,4.08,0,0,1,4.352.156,4.049,4.049,0,0,1,1.664-.719,2.882,2.882,0,0,1,.617-3.047h1.9a1.588,1.588,0,0,0,.5,1.219,1.911,1.911,0,0,0,1.355.469,1.971,1.971,0,0,0,1.391-.469,1.758,1.758,0,0,0,.508-1.359A1.776,1.776,0,0,0,5.742-4.57a2.271,2.271,0,0,0-1.578-.484H3.047Zm7.406.914.617-5.734H17.18v1.641H12.648l-.312,2.719a3.512,3.512,0,0,1,1.781-.453A3.169,3.169,0,0,1,16.645-6.43a4.118,4.118,0,0,1,.9,2.8,3.79,3.79,0,0,1-1,2.762A3.65,3.65,0,0,1,13.8.156a3.822,3.822,0,0,1-2.59-.887A3.206,3.206,0,0,1,10.1-3.07h1.836a2,2,0,0,0,.594,1.27,1.806,1.806,0,0,0,1.266.441,1.632,1.632,0,0,0,1.363-.625,2.7,2.7,0,0,0,.488-1.7,2.384,2.384,0,0,0-.539-1.645,1.885,1.885,0,0,0-1.484-.605,2.469,2.469,0,0,0-.875.137,2.478,2.478,0,0,0-.781.535ZM20.344-2a1.084,1.084,0,0,1,.82.3,1.045,1.045,0,0,1,.289.754,1.008,1.008,0,0,1-.289.738,1.1,1.1,0,0,1-.82.293,1.1,1.1,0,0,1-.8-.289.991.991,0,0,1-.3-.742,1.045,1.045,0,0,1,.289-.754A1.074,1.074,0,0,1,20.344-2ZM25.7-6.555h1.156a2.069,2.069,0,0,0,1.387-.453A1.617,1.617,0,0,0,28.758-8.3a1.762,1.762,0,0,0-.426-1.262,1.714,1.714,0,0,0-1.3-.449,1.813,1.813,0,0,0-1.258.441,1.475,1.475,0,0,0-.492,1.152h-1.9a2.874,2.874,0,0,1,.465-1.594,3.123,3.123,0,0,1,1.3-1.121,4.225,4.225,0,0,1,1.863-.4,3.912,3.912,0,0,1,2.676.855A3,3,0,0,1,30.656-8.3a2.417,2.417,0,0,1-.488,1.441,3.062,3.062,0,0,1-1.262,1.02,2.791,2.791,0,0,1,1.426,1.008,2.759,2.759,0,0,1,.488,1.641A3.055,3.055,0,0,1,29.77-.75a4.08,4.08,0,0,1-2.762.906A4.049,4.049,0,0,1,24.32-.719a2.882,2.882,0,0,1-1.047-2.328h1.9a1.588,1.588,0,0,0,.5,1.219,1.911,1.911,0,0,0,1.355.469,1.971,1.971,0,0,0,1.391-.469,1.758,1.758,0,0,0,.508-1.359A1.776,1.776,0,0,0,28.4-4.57a2.271,2.271,0,0,0-1.578-.484H25.7ZM37.742,0H35.852V-9.138l-2.789.951V-9.781L37.5-11.414h.242Zm15.1-4.2a6.959,6.959,0,0,1-.676,2.3A3.92,3.92,0,0,1,50.848-.34a3.052,3.052,0,0,1-1.793.5,2.652,2.652,0,0,1-2.078-.937L46.219,3.25H44.359l2.031-11.7,1.7-.008-.141.875a2.927,2.927,0,0,1,2.3-1.023,2.477,2.477,0,0,1,1.4.41,2.532,2.532,0,0,1,.91,1.168,4.734,4.734,0,0,1,.34,1.7A10.386,10.386,0,0,1,52.844-4.2Zm-1.828-.164.039-.57a2.769,2.769,0,0,0-.332-1.562,1.217,1.217,0,0,0-1.066-.57,2.155,2.155,0,0,0-1.812.961l-.656,3.773a1.432,1.432,0,0,0,1.43.977,1.888,1.888,0,0,0,1.551-.719A4.5,4.5,0,0,0,51.016-4.359ZM55.711,0H53.859l1.469-8.453H57.18Zm-.117-10.617a1.044,1.044,0,0,1,.281-.734,1.03,1.03,0,0,1,.758-.32.985.985,0,0,1,.754.277.96.96,0,0,1,.3.715.988.988,0,0,1-.293.734,1.074,1.074,0,0,1-.746.3,1,1,0,0,1-.75-.27A.929.929,0,0,1,55.594-10.617ZM61.609.156A3.541,3.541,0,0,1,59.7-.4a3.156,3.156,0,0,1-1.2-1.453,4.32,4.32,0,0,1-.293-2.055l.023-.32a5.657,5.657,0,0,1,.754-2.316A4.3,4.3,0,0,1,60.516-8.1,3.713,3.713,0,0,1,62.5-8.609a2.769,2.769,0,0,1,2.379,1.182,4.337,4.337,0,0,1,.6,3l-.109.814h-5.32A2.3,2.3,0,0,0,60.453-2a1.61,1.61,0,0,0,1.313.631,2.847,2.847,0,0,0,2.2-1.039l.938.984a3.563,3.563,0,0,1-1.4,1.176A4.166,4.166,0,0,1,61.609.156Zm.789-7.25q-1.469-.047-2.2,2.078l3.508.008.031-.164a2.451,2.451,0,0,0,.008-.7A1.438,1.438,0,0,0,63.3-6.75,1.385,1.385,0,0,0,62.4-7.094Zm8.844,4.75q.133-.773-1-1.074a12.763,12.763,0,0,1-1.551-.48,2.138,2.138,0,0,1-1.555-2.094,2.378,2.378,0,0,1,1.035-1.887,3.794,3.794,0,0,1,2.387-.73,3.266,3.266,0,0,1,2.191.758,2.417,2.417,0,0,1,.832,1.945l-1.836-.008a1.185,1.185,0,0,0-.32-.918A1.307,1.307,0,0,0,70.5-7.18a1.817,1.817,0,0,0-1.059.3,1.135,1.135,0,0,0-.512.8q-.109.711,1,.988a10.976,10.976,0,0,1,1.641.512,2.14,2.14,0,0,1,1.492,2.125,2.336,2.336,0,0,1-.527,1.4,3.077,3.077,0,0,1-1.309.914,4.477,4.477,0,0,1-1.742.293,3.437,3.437,0,0,1-2.293-.8A2.512,2.512,0,0,1,66.3-2.672l1.789.008a1.361,1.361,0,0,0,.406,1.031,1.57,1.57,0,0,0,1.07.359,2.126,2.126,0,0,0,1.145-.285A1.094,1.094,0,0,0,71.242-2.344Zm4.683-6.48H76.6a1.207,1.207,0,0,0,.809-.264.943.943,0,0,0,.3-.752,1.028,1.028,0,0,0-.248-.736,1,1,0,0,0-.759-.262,1.057,1.057,0,0,0-.734.257.86.86,0,0,0-.287.672H74.572a1.676,1.676,0,0,1,.271-.93,1.822,1.822,0,0,1,.756-.654,2.464,2.464,0,0,1,1.087-.235,2.282,2.282,0,0,1,1.561.5,1.751,1.751,0,0,1,.567,1.388A1.41,1.41,0,0,1,78.53-9a1.786,1.786,0,0,1-.736.595,1.628,1.628,0,0,1,.832.588,1.609,1.609,0,0,1,.285.957A1.782,1.782,0,0,1,78.3-5.437a2.38,2.38,0,0,1-1.611.529,2.362,2.362,0,0,1-1.568-.51,1.681,1.681,0,0,1-.611-1.358h1.107a.926.926,0,0,0,.294.711,1.115,1.115,0,0,0,.791.273,1.15,1.15,0,0,0,.811-.273,1.026,1.026,0,0,0,.3-.793,1.036,1.036,0,0,0-.31-.807,1.325,1.325,0,0,0-.921-.283h-.652Z" transform="translate(998 3552)" fill="#12263f"/>
    <path id="Trazado_737831" data-name="Trazado 737831" d="M5.992,0H4.1V-9.138l-2.789.951V-9.781L5.75-11.414h.242ZM16.375-8.461l-.164.9a3.259,3.259,0,0,1,2.5-1.047,2.427,2.427,0,0,1,1.324.367,1.738,1.738,0,0,1,.715.93,3.406,3.406,0,0,1,2.688-1.3,2.195,2.195,0,0,1,1.832.848,3.235,3.235,0,0,1,.449,2.285L24.8,0H22.953l.922-5.492a2.879,2.879,0,0,0,.008-.633,1.034,1.034,0,0,0-1.156-.937A1.949,1.949,0,0,0,20.914-5.8l-.023.172L19.922,0H18.063l.922-5.469a2.806,2.806,0,0,0,.008-.625,1.043,1.043,0,0,0-1.156-.969,2.042,2.042,0,0,0-1.734.93L15.031,0H13.18l1.461-8.453Zm12.043-.362h.674a1.207,1.207,0,0,0,.809-.264.943.943,0,0,0,.3-.752,1.028,1.028,0,0,0-.248-.736,1,1,0,0,0-.759-.262,1.057,1.057,0,0,0-.734.257.86.86,0,0,0-.287.672H27.064a1.676,1.676,0,0,1,.271-.93,1.822,1.822,0,0,1,.756-.654,2.464,2.464,0,0,1,1.087-.235,2.282,2.282,0,0,1,1.561.5,1.751,1.751,0,0,1,.567,1.388A1.41,1.41,0,0,1,31.022-9a1.786,1.786,0,0,1-.736.595,1.628,1.628,0,0,1,.832.588,1.61,1.61,0,0,1,.285.957,1.782,1.782,0,0,1-.613,1.422,2.38,2.38,0,0,1-1.611.529,2.362,2.362,0,0,1-1.568-.51A1.681,1.681,0,0,1,27-6.777h1.107a.926.926,0,0,0,.294.711,1.115,1.115,0,0,0,.791.273A1.15,1.15,0,0,0,30-6.066a1.026,1.026,0,0,0,.3-.793,1.036,1.036,0,0,0-.31-.807,1.325,1.325,0,0,0-.921-.283h-.652Z" transform="translate(1019 3576)" fill="#12263f"/>
  </g>
</svg>
