<svg xmlns="http://www.w3.org/2000/svg" width="215" height="31.156" viewBox="0 0 215 31.156">
  <g id="Grupo_1016018" data-name="Grupo 1016018" transform="translate(-670.5 -34799)">
    <path id="Trazado_737902" data-name="Trazado 737902" d="M65.27,15H63.816V5.367L60.9,6.438V5.125L65.043,3.57h.227ZM70.535,3.867l-.164,2.875H69.363L69.371,3h1.164ZM72.957,9.3l.578-5.672h5.828V4.961h-4.6l-.344,3.1a3.671,3.671,0,0,1,1.9-.492A3.138,3.138,0,0,1,78.785,8.6a4.026,4.026,0,0,1,.914,2.777,3.886,3.886,0,0,1-.949,2.77A3.46,3.46,0,0,1,76.1,15.156a3.6,3.6,0,0,1-2.461-.836,3.337,3.337,0,0,1-1.086-2.312h1.367a2.3,2.3,0,0,0,.7,1.473,2.162,2.162,0,0,0,1.484.5,1.95,1.95,0,0,0,1.582-.687,2.874,2.874,0,0,0,.574-1.9,2.638,2.638,0,0,0-.621-1.832,2.113,2.113,0,0,0-1.652-.691,2.383,2.383,0,0,0-1.484.414l-.383.313Zm10.422-.687h1.086a2.387,2.387,0,0,0,1.609-.539,1.8,1.8,0,0,0,.586-1.414,1.764,1.764,0,0,0-1.992-2,2.072,2.072,0,0,0-1.5.535,1.873,1.873,0,0,0-.559,1.418H81.168a2.9,2.9,0,0,1,.988-2.246,3.6,3.6,0,0,1,2.512-.895,3.558,3.558,0,0,1,2.523.852,3.076,3.076,0,0,1,.914,2.367,2.5,2.5,0,0,1-.48,1.438,2.9,2.9,0,0,1-1.309,1.039,2.8,2.8,0,0,1,1.449.984,2.734,2.734,0,0,1,.512,1.68,3.1,3.1,0,0,1-1,2.43,3.745,3.745,0,0,1-2.6.9,3.844,3.844,0,0,1-2.605-.867,2.877,2.877,0,0,1-1-2.289H82.52a1.859,1.859,0,0,0,.586,1.438,2.229,2.229,0,0,0,1.57.539,2.187,2.187,0,0,0,1.6-.547,2.108,2.108,0,0,0,.555-1.57,1.912,1.912,0,0,0-.609-1.523,2.655,2.655,0,0,0-1.758-.547H83.379Zm14.016,1.539a6.61,6.61,0,0,1-.867,3.773,3.6,3.6,0,0,1-5.406.027,6.274,6.274,0,0,1-.906-3.605V8.414a6.463,6.463,0,0,1,.867-3.727A3.668,3.668,0,0,1,96.5,4.645a6.237,6.237,0,0,1,.891,3.629ZM95.949,8.172A5.3,5.3,0,0,0,95.434,5.5a1.775,1.775,0,0,0-1.633-.84,1.751,1.751,0,0,0-1.617.836,5.171,5.171,0,0,0-.523,2.57v2.313A5.381,5.381,0,0,0,92.2,13.1a1.771,1.771,0,0,0,1.621.879,1.747,1.747,0,0,0,1.59-.828,5.186,5.186,0,0,0,.543-2.609Zm3.477,6.07a.905.905,0,0,1,.223-.625.848.848,0,0,1,.668-.25.874.874,0,0,1,.676.25.887.887,0,0,1,.23.625.839.839,0,0,1-.23.6.89.89,0,0,1-.676.242.8.8,0,0,1-.891-.844Zm11.164-4.094a6.61,6.61,0,0,1-.867,3.773,3.6,3.6,0,0,1-5.406.027,6.274,6.274,0,0,1-.906-3.605V8.414a6.463,6.463,0,0,1,.867-3.727,3.668,3.668,0,0,1,5.422-.043,6.237,6.237,0,0,1,.891,3.629Zm-1.445-1.977a5.3,5.3,0,0,0-.516-2.676A1.775,1.775,0,0,0,107,4.656a1.751,1.751,0,0,0-1.617.836,5.171,5.171,0,0,0-.523,2.57v2.313a5.381,5.381,0,0,0,.535,2.723,1.771,1.771,0,0,0,1.621.879,1.747,1.747,0,0,0,1.59-.828,5.186,5.186,0,0,0,.543-2.609Zm10.43,1.977a6.61,6.61,0,0,1-.867,3.773,3.6,3.6,0,0,1-5.406.027,6.274,6.274,0,0,1-.906-3.605V8.414a6.463,6.463,0,0,1,.867-3.727,3.668,3.668,0,0,1,5.422-.043,6.237,6.237,0,0,1,.891,3.629Zm-1.445-1.977a5.3,5.3,0,0,0-.516-2.676,1.775,1.775,0,0,0-1.633-.84,1.751,1.751,0,0,0-1.617.836,5.171,5.171,0,0,0-.523,2.57v2.313a5.381,5.381,0,0,0,.535,2.723,1.771,1.771,0,0,0,1.621.879,1.747,1.747,0,0,0,1.59-.828,5.186,5.186,0,0,0,.543-2.609Zm10.43,1.977a6.61,6.61,0,0,1-.867,3.773,3.6,3.6,0,0,1-5.406.027,6.274,6.274,0,0,1-.906-3.605V8.414a6.463,6.463,0,0,1,.867-3.727,3.668,3.668,0,0,1,5.422-.043,6.237,6.237,0,0,1,.891,3.629Zm-1.445-1.977A5.3,5.3,0,0,0,126.6,5.5a1.775,1.775,0,0,0-1.633-.84,1.751,1.751,0,0,0-1.617.836,5.171,5.171,0,0,0-.523,2.57v2.313a5.381,5.381,0,0,0,.535,2.723,1.771,1.771,0,0,0,1.621.879,1.747,1.747,0,0,0,1.59-.828,5.186,5.186,0,0,0,.543-2.609Zm8.766-1.625.039.938a3.122,3.122,0,0,1,2.508-1.094A2.417,2.417,0,0,1,140.84,7.75a3.2,3.2,0,0,1,1.1-.984,3.242,3.242,0,0,1,1.6-.375q2.781,0,2.828,2.945V15h-1.445V9.422a1.941,1.941,0,0,0-.414-1.355,1.823,1.823,0,0,0-1.391-.449,1.917,1.917,0,0,0-1.336.48,1.949,1.949,0,0,0-.617,1.293V15h-1.453V9.461a1.613,1.613,0,0,0-1.8-1.844,1.934,1.934,0,0,0-1.945,1.211V15h-1.445V6.547ZM148.2,10.7a4.968,4.968,0,0,1,.914-3.145,3.151,3.151,0,0,1,4.836-.074l.07-.937h1.32V14.8a3.439,3.439,0,0,1-.973,2.586,3.589,3.589,0,0,1-2.613.945,4.348,4.348,0,0,1-1.789-.391,3.08,3.08,0,0,1-1.336-1.07l.75-.867a2.826,2.826,0,0,0,2.273,1.148,2.214,2.214,0,0,0,1.645-.594,2.269,2.269,0,0,0,.59-1.672v-.727a2.971,2.971,0,0,1-2.367,1,2.887,2.887,0,0,1-2.4-1.2A5.224,5.224,0,0,1,148.2,10.7Zm1.453.164a3.79,3.79,0,0,0,.586,2.246,1.9,1.9,0,0,0,1.641.816,2.117,2.117,0,0,0,2.008-1.242V8.828a2.142,2.142,0,0,0-1.992-1.211,1.921,1.921,0,0,0-1.648.82A4.128,4.128,0,0,0,149.652,10.867Z" transform="translate(670 34796)" fill="#fff"/>
    <path id="Trazado_737903" data-name="Trazado 737903" d="M87.008,15H79.555V13.961l3.938-4.375A9.354,9.354,0,0,0,84.7,7.973a2.693,2.693,0,0,0,.332-1.285,2.041,2.041,0,0,0-.539-1.461,1.885,1.885,0,0,0-1.437-.57,2.232,2.232,0,0,0-1.676.613,2.343,2.343,0,0,0-.6,1.707H79.336a3.355,3.355,0,0,1,1.012-2.539,3.751,3.751,0,0,1,2.707-.969,3.6,3.6,0,0,1,2.508.832,2.838,2.838,0,0,1,.922,2.215q0,1.68-2.141,4L81.3,13.82h5.711Zm6.281,0H91.836V5.367l-2.914,1.07V5.125L93.063,3.57h.227Zm11.367-4.852a6.61,6.61,0,0,1-.867,3.773,3.6,3.6,0,0,1-5.406.027,6.274,6.274,0,0,1-.906-3.605V8.414a6.463,6.463,0,0,1,.867-3.727,3.668,3.668,0,0,1,5.422-.043,6.237,6.237,0,0,1,.891,3.629Zm-1.445-1.977A5.3,5.3,0,0,0,102.7,5.5a1.775,1.775,0,0,0-1.633-.84,1.751,1.751,0,0,0-1.617.836,5.171,5.171,0,0,0-.523,2.57v2.313a5.381,5.381,0,0,0,.535,2.723,1.771,1.771,0,0,0,1.621.879,1.747,1.747,0,0,0,1.59-.828,5.186,5.186,0,0,0,.543-2.609Zm10.43,1.977a6.61,6.61,0,0,1-.867,3.773,3.6,3.6,0,0,1-5.406.027,6.274,6.274,0,0,1-.906-3.605V8.414a6.463,6.463,0,0,1,.867-3.727,3.668,3.668,0,0,1,5.422-.043,6.237,6.237,0,0,1,.891,3.629ZM112.2,8.172A5.3,5.3,0,0,0,111.68,5.5a1.775,1.775,0,0,0-1.633-.84,1.751,1.751,0,0,0-1.617.836,5.171,5.171,0,0,0-.523,2.57v2.313a5.381,5.381,0,0,0,.535,2.723,1.771,1.771,0,0,0,1.621.879,1.747,1.747,0,0,0,1.59-.828,5.186,5.186,0,0,0,.543-2.609ZM121.172,15h-1.445V3h1.445Z" transform="translate(678 34815)" fill="#fff"/>
    <path id="Trazado_737904" data-name="Trazado 737904" d="M0,0H215" transform="translate(670.5 34814.5)" fill="none" stroke="#fff" stroke-width="1"/>
  </g>
</svg>
