<svg xmlns="http://www.w3.org/2000/svg" width="228.172" height="34.885" viewBox="0 0 228.172 34.885">
  <g id="Grupo_1016001" data-name="Grupo 1016001" transform="translate(9302.672 7970.885)">
    <path id="Trazado_737867" data-name="Trazado 737867" d="M5.7,15H4.242V5.367L1.328,6.438V5.125L5.469,3.57H5.7Zm4.9-5.7.578-5.672H17V4.961H12.4l-.344,3.1a3.671,3.671,0,0,1,1.9-.492A3.138,3.138,0,0,1,16.422,8.6a4.026,4.026,0,0,1,.914,2.777,3.886,3.886,0,0,1-.949,2.77,3.46,3.46,0,0,1-2.652,1.012,3.6,3.6,0,0,1-2.461-.836,3.337,3.337,0,0,1-1.086-2.312h1.367a2.3,2.3,0,0,0,.7,1.473,2.162,2.162,0,0,0,1.484.5,1.95,1.95,0,0,0,1.582-.687,2.874,2.874,0,0,0,.574-1.9,2.638,2.638,0,0,0-.621-1.832,2.113,2.113,0,0,0-1.652-.691,2.383,2.383,0,0,0-1.484.414l-.383.313Zm8.984,0,.578-5.672h5.828V4.961h-4.6l-.344,3.1a3.671,3.671,0,0,1,1.9-.492A3.138,3.138,0,0,1,25.406,8.6a4.026,4.026,0,0,1,.914,2.777,3.886,3.886,0,0,1-.949,2.77,3.46,3.46,0,0,1-2.652,1.012,3.6,3.6,0,0,1-2.461-.836,3.337,3.337,0,0,1-1.086-2.312h1.367a2.3,2.3,0,0,0,.7,1.473,2.162,2.162,0,0,0,1.484.5,1.95,1.95,0,0,0,1.582-.687,2.874,2.874,0,0,0,.574-1.9,2.638,2.638,0,0,0-.621-1.832A2.113,2.113,0,0,0,22.6,8.867a2.383,2.383,0,0,0-1.484.414l-.383.313Zm15.453.852a6.61,6.61,0,0,1-.867,3.773,3.084,3.084,0,0,1-2.711,1.234,3.107,3.107,0,0,1-2.7-1.207,6.274,6.274,0,0,1-.906-3.605V8.414a6.463,6.463,0,0,1,.867-3.727,3.108,3.108,0,0,1,2.719-1.219,3.136,3.136,0,0,1,2.7,1.176,6.237,6.237,0,0,1,.891,3.629ZM33.586,8.172A5.3,5.3,0,0,0,33.07,5.5a1.775,1.775,0,0,0-1.633-.84,1.751,1.751,0,0,0-1.617.836,5.171,5.171,0,0,0-.523,2.57v2.313a5.381,5.381,0,0,0,.535,2.723,1.771,1.771,0,0,0,1.621.879,1.747,1.747,0,0,0,1.59-.828,5.186,5.186,0,0,0,.543-2.609Zm8.766-1.625.039.938A3.122,3.122,0,0,1,44.9,6.391,2.417,2.417,0,0,1,47.313,7.75a3.2,3.2,0,0,1,1.1-.984,3.242,3.242,0,0,1,1.6-.375q2.781,0,2.828,2.945V15H51.391V9.422a1.941,1.941,0,0,0-.414-1.355,1.823,1.823,0,0,0-1.391-.449,1.917,1.917,0,0,0-1.336.48,1.949,1.949,0,0,0-.617,1.293V15H46.18V9.461a1.613,1.613,0,0,0-1.8-1.844A1.934,1.934,0,0,0,42.43,8.828V15H40.984V6.547ZM55.7,6.272h.633a1.392,1.392,0,0,0,.939-.314,1.051,1.051,0,0,0,.342-.825,1.029,1.029,0,0,0-1.162-1.167,1.209,1.209,0,0,0-.873.312,1.092,1.092,0,0,0-.326.827h-.843a1.693,1.693,0,0,1,.576-1.31,2.1,2.1,0,0,1,1.465-.522,2.075,2.075,0,0,1,1.472.5,1.794,1.794,0,0,1,.533,1.381,1.456,1.456,0,0,1-.28.838,1.692,1.692,0,0,1-.763.606,1.631,1.631,0,0,1,.845.574,1.6,1.6,0,0,1,.3.98,1.81,1.81,0,0,1-.583,1.417,2.184,2.184,0,0,1-1.517.524,2.242,2.242,0,0,1-1.52-.506A1.678,1.678,0,0,1,54.35,8.25H55.2a1.084,1.084,0,0,0,.342.838,1.3,1.3,0,0,0,.916.314,1.276,1.276,0,0,0,.934-.319,1.229,1.229,0,0,0,.324-.916,1.116,1.116,0,0,0-.355-.889,1.549,1.549,0,0,0-1.025-.319H55.7Zm11.354,3.36,1.875-3.086h1.688l-2.766,4.18L70.7,15H69.03l-1.953-3.164L65.123,15h-1.68L66.3,10.727,63.53,6.547H65.2Z" transform="translate(-9304 -7963)" fill="#12263f"/>
    <path id="Trazado_737868" data-name="Trazado 737868" d="M0,0H146" transform="translate(-9220.5 -7953.5)" fill="none" stroke="#707070" stroke-width="1"/>
    <path id="Trazado_737869" data-name="Trazado 737869" d="M2.666-5.592h.95a2.088,2.088,0,0,0,1.408-.472A1.576,1.576,0,0,0,5.537-7.3a1.544,1.544,0,0,0-1.743-1.75,1.813,1.813,0,0,0-1.309.468A1.639,1.639,0,0,0,2-7.342H.731A2.539,2.539,0,0,1,1.6-9.307a3.15,3.15,0,0,1,2.2-.783A3.113,3.113,0,0,1,6-9.345a2.692,2.692,0,0,1,.8,2.071,2.185,2.185,0,0,1-.42,1.258,2.538,2.538,0,0,1-1.145.909A2.446,2.446,0,0,1,6.5-4.245a2.392,2.392,0,0,1,.448,1.47A2.715,2.715,0,0,1,6.077-.649,3.277,3.277,0,0,1,3.8.137a3.363,3.363,0,0,1-2.28-.759,2.517,2.517,0,0,1-.878-2H1.914a1.627,1.627,0,0,0,.513,1.258A1.95,1.95,0,0,0,3.8-.9a1.914,1.914,0,0,0,1.4-.479,1.844,1.844,0,0,0,.485-1.374,1.673,1.673,0,0,0-.533-1.333A2.323,2.323,0,0,0,3.616-4.56h-.95Zm6.6.6.506-4.963h5.1v1.169H10.849l-.3,2.714A3.212,3.212,0,0,1,12.209-6.5a2.746,2.746,0,0,1,2.16.9,3.523,3.523,0,0,1,.8,2.43,3.4,3.4,0,0,1-.831,2.423,3.027,3.027,0,0,1-2.321.885A3.146,3.146,0,0,1,9.864-.595a2.919,2.919,0,0,1-.95-2.023h1.2a2.009,2.009,0,0,0,.608,1.289,1.892,1.892,0,0,0,1.3.434A1.706,1.706,0,0,0,13.4-1.5a2.515,2.515,0,0,0,.5-1.661,2.308,2.308,0,0,0-.543-1.6,1.849,1.849,0,0,0-1.446-.6,2.085,2.085,0,0,0-1.3.362l-.335.273ZM16.707-.663A.792.792,0,0,1,16.9-1.21a.742.742,0,0,1,.584-.219.765.765,0,0,1,.591.219.776.776,0,0,1,.2.547.734.734,0,0,1-.2.526.778.778,0,0,1-.591.212A.755.755,0,0,1,16.9-.137.748.748,0,0,1,16.707-.663Zm5.366-4.929h.95a2.088,2.088,0,0,0,1.408-.472A1.576,1.576,0,0,0,24.944-7.3,1.544,1.544,0,0,0,23.2-9.051a1.813,1.813,0,0,0-1.309.468A1.639,1.639,0,0,0,21.4-7.342H20.139A2.539,2.539,0,0,1,21-9.307a3.15,3.15,0,0,1,2.2-.783,3.113,3.113,0,0,1,2.208.745,2.692,2.692,0,0,1,.8,2.071,2.185,2.185,0,0,1-.42,1.258,2.538,2.538,0,0,1-1.145.909,2.446,2.446,0,0,1,1.268.861,2.392,2.392,0,0,1,.448,1.47,2.715,2.715,0,0,1-.875,2.126,3.277,3.277,0,0,1-2.276.786,3.363,3.363,0,0,1-2.28-.759,2.517,2.517,0,0,1-.878-2h1.271a1.627,1.627,0,0,0,.513,1.258A1.95,1.95,0,0,0,23.208-.9a1.914,1.914,0,0,0,1.4-.479,1.844,1.844,0,0,0,.485-1.374,1.673,1.673,0,0,0-.533-1.333,2.323,2.323,0,0,0-1.538-.479h-.95ZM32.252,0H30.98V-8.429l-2.55.937V-8.641L32.054-10h.2ZM45.8-3.616A4.429,4.429,0,0,1,45.028-.9,2.476,2.476,0,0,1,42.937.137a2.713,2.713,0,0,1-2.119-.854V2.844H39.553V-7.4h1.155l.062.82a2.605,2.605,0,0,1,2.146-.957,2.522,2.522,0,0,1,2.109,1,4.477,4.477,0,0,1,.776,2.8ZM44.536-3.76A3.268,3.268,0,0,0,44-5.735,1.718,1.718,0,0,0,42.54-6.46a1.859,1.859,0,0,0-1.723,1.019v3.534A1.863,1.863,0,0,0,42.554-.9,1.71,1.71,0,0,0,44-1.617,3.567,3.567,0,0,0,44.536-3.76ZM48.781,0H47.517V-7.4h1.265ZM47.414-9.358a.755.755,0,0,1,.188-.52.706.706,0,0,1,.557-.212.717.717,0,0,1,.561.212.747.747,0,0,1,.191.52.722.722,0,0,1-.191.513.73.73,0,0,1-.561.205.718.718,0,0,1-.557-.205A.73.73,0,0,1,47.414-9.358Zm6.46,9.5a3.232,3.232,0,0,1-2.447-.988,3.666,3.666,0,0,1-.943-2.642v-.232a4.438,4.438,0,0,1,.42-1.965A3.28,3.28,0,0,1,52.08-7.044a2.956,2.956,0,0,1,1.637-.489,2.77,2.77,0,0,1,2.242.95,4.114,4.114,0,0,1,.8,2.721v.526H51.748a2.629,2.629,0,0,0,.639,1.767A2.009,2.009,0,0,0,53.942-.9a2.2,2.2,0,0,0,1.135-.273,2.851,2.851,0,0,0,.813-.725l.772.6A3.106,3.106,0,0,1,53.874.137Zm-.157-6.631a1.687,1.687,0,0,0-1.285.557,2.708,2.708,0,0,0-.643,1.562h3.705v-.1a2.409,2.409,0,0,0-.52-1.494A1.588,1.588,0,0,0,53.717-6.494Zm8.812,4.532a.931.931,0,0,0-.386-.8A3.718,3.718,0,0,0,60.8-3.247a6.367,6.367,0,0,1-1.524-.492,2.169,2.169,0,0,1-.834-.684,1.635,1.635,0,0,1-.27-.943A1.919,1.919,0,0,1,58.936-6.9,3,3,0,0,1,60.9-7.533a3.091,3.091,0,0,1,2.041.649,2.063,2.063,0,0,1,.783,1.661H62.453a1.142,1.142,0,0,0-.441-.9A1.652,1.652,0,0,0,60.9-6.494a1.729,1.729,0,0,0-1.08.3.947.947,0,0,0-.39.786.767.767,0,0,0,.362.69,4.458,4.458,0,0,0,1.309.444,6.821,6.821,0,0,1,1.535.506,2.239,2.239,0,0,1,.872.708,1.74,1.74,0,0,1,.284,1.008A1.893,1.893,0,0,1,63-.461a3.326,3.326,0,0,1-2.058.6A3.725,3.725,0,0,1,59.37-.178a2.557,2.557,0,0,1-1.07-.878,2.117,2.117,0,0,1-.386-1.22h1.265a1.309,1.309,0,0,0,.509,1.008A1.976,1.976,0,0,0,60.942-.9a2.039,2.039,0,0,0,1.152-.291A.893.893,0,0,0,62.528-1.962Zm3.51-6.3h.554a1.218,1.218,0,0,0,.821-.275.919.919,0,0,0,.3-.722A.9.9,0,0,0,66.7-10.279a1.058,1.058,0,0,0-.764.273.956.956,0,0,0-.285.724H64.91a1.481,1.481,0,0,1,.5-1.146,1.837,1.837,0,0,1,1.282-.457,1.816,1.816,0,0,1,1.288.435,1.57,1.57,0,0,1,.467,1.208,1.274,1.274,0,0,1-.245.734,1.481,1.481,0,0,1-.668.53,1.427,1.427,0,0,1,.74.5,1.4,1.4,0,0,1,.261.857,1.584,1.584,0,0,1-.51,1.24A1.911,1.911,0,0,1,66.7-4.92a1.962,1.962,0,0,1-1.33-.443,1.468,1.468,0,0,1-.512-1.168H65.6a.949.949,0,0,0,.3.734,1.137,1.137,0,0,0,.8.275,1.116,1.116,0,0,0,.817-.279,1.076,1.076,0,0,0,.283-.8.976.976,0,0,0-.311-.778,1.355,1.355,0,0,0-.9-.279h-.554Z" transform="translate(-9182 -7960)" fill="#12263f"/>
    <path id="Trazado_737870" data-name="Trazado 737870" d="M4.983,0H3.712V-8.429l-2.55.937V-8.641L4.785-10h.2Zm8.49-7.4.034.82A2.732,2.732,0,0,1,15.7-7.533a2.115,2.115,0,0,1,2.112,1.189,2.8,2.8,0,0,1,.96-.861,2.837,2.837,0,0,1,1.4-.328q2.434,0,2.475,2.577V0H21.383V-4.881a1.7,1.7,0,0,0-.362-1.186A1.6,1.6,0,0,0,19.8-6.46a1.677,1.677,0,0,0-1.169.42,1.706,1.706,0,0,0-.54,1.131V0H16.823V-4.847A1.411,1.411,0,0,0,15.244-6.46a1.692,1.692,0,0,0-1.7,1.06V0H12.277V-7.4Zm11.679-.865h.554a1.218,1.218,0,0,0,.821-.275.919.919,0,0,0,.3-.722.9.9,0,0,0-1.017-1.021,1.058,1.058,0,0,0-.764.273.956.956,0,0,0-.285.724h-.738a1.481,1.481,0,0,1,.5-1.146,1.838,1.838,0,0,1,1.282-.457,1.816,1.816,0,0,1,1.288.435,1.57,1.57,0,0,1,.467,1.208,1.274,1.274,0,0,1-.245.734,1.481,1.481,0,0,1-.668.53,1.427,1.427,0,0,1,.74.5,1.4,1.4,0,0,1,.261.857,1.584,1.584,0,0,1-.51,1.24,1.911,1.911,0,0,1-1.328.459,1.962,1.962,0,0,1-1.33-.443,1.468,1.468,0,0,1-.512-1.168h.742a.949.949,0,0,0,.3.734,1.137,1.137,0,0,0,.8.275,1.116,1.116,0,0,0,.817-.279,1.076,1.076,0,0,0,.283-.8A.976.976,0,0,0,26.6-7.38a1.355,1.355,0,0,0-.9-.279h-.554Z" transform="translate(-9161 -7936)" fill="#12263f"/>
  </g>
</svg>
