<svg xmlns="http://www.w3.org/2000/svg" width="223.633" height="34.89" viewBox="0 0 223.633 34.89">
  <g id="Grupo_1015992" data-name="Grupo 1015992" transform="translate(9362.133 8231.89)">
    <path id="Trazado_737883" data-name="Trazado 737883" d="M8.641,17H7.219L8.891,7.406,5.867,8.469l.242-1.375L10.328,5.57h.25Zm5.789-5.727,1.445-5.648h5.672l-.211,1.336H16.883l-.875,3.109a3.481,3.481,0,0,1,1.859-.492,2.553,2.553,0,0,1,2.172,1.066,3.864,3.864,0,0,1,.617,2.676,4.274,4.274,0,0,1-1.242,2.813,3.651,3.651,0,0,1-2.727,1.031,2.975,2.975,0,0,1-2.2-.875A3.307,3.307,0,0,1,13.609,14h1.32a2.266,2.266,0,0,0,.531,1.453,1.718,1.718,0,0,0,1.289.531,2.1,2.1,0,0,0,1.684-.711,3.282,3.282,0,0,0,.809-1.945,2.5,2.5,0,0,0-.367-1.738,1.671,1.671,0,0,0-1.4-.715,2.4,2.4,0,0,0-1.012.172,3.758,3.758,0,0,0-.879.539Zm8.8,0,1.445-5.648h5.672l-.211,1.336H25.68L24.8,10.07a3.481,3.481,0,0,1,1.859-.492,2.553,2.553,0,0,1,2.172,1.066,3.864,3.864,0,0,1,.617,2.676,4.274,4.274,0,0,1-1.242,2.813,3.651,3.651,0,0,1-2.727,1.031,2.975,2.975,0,0,1-2.2-.875A3.307,3.307,0,0,1,22.406,14h1.32a2.266,2.266,0,0,0,.531,1.453,1.718,1.718,0,0,0,1.289.531,2.1,2.1,0,0,0,1.684-.711,3.282,3.282,0,0,0,.809-1.945,2.5,2.5,0,0,0-.367-1.738,1.671,1.671,0,0,0-1.4-.715,2.4,2.4,0,0,0-1.012.172,3.758,3.758,0,0,0-.879.539ZM34,17.156a2.567,2.567,0,0,1-2.156-1.02,4.526,4.526,0,0,1-.656-2.848q.016-.578.086-1.141l.281-1.9a7.043,7.043,0,0,1,1.43-3.625,3.418,3.418,0,0,1,2.781-1.156,2.6,2.6,0,0,1,2.168,1,4.426,4.426,0,0,1,.66,2.8q-.023.586-.094,1.148l-.273,1.836a7.463,7.463,0,0,1-1.461,3.758A3.4,3.4,0,0,1,34,17.156Zm3.133-7a12.092,12.092,0,0,0,.1-1.469Q37.2,6.7,35.7,6.648a2.053,2.053,0,0,0-1.77.809,5.606,5.606,0,0,0-.941,2.66l-.336,2.266a11.525,11.525,0,0,0-.1,1.477q.039,2.07,1.531,2.125a2.007,2.007,0,0,0,1.715-.766,5.429,5.429,0,0,0,.965-2.578Zm8.93-1.617-.18.945a3.305,3.305,0,0,1,2.57-1.094,2.608,2.608,0,0,1,1.363.367,1.8,1.8,0,0,1,.77.992,3.49,3.49,0,0,1,2.8-1.359,2.235,2.235,0,0,1,1.867.852,3.042,3.042,0,0,1,.445,2.2L54.773,17H53.367l.922-5.57a2.943,2.943,0,0,0,0-.742Q54.141,9.625,52.9,9.6a2.136,2.136,0,0,0-1.4.48,2.222,2.222,0,0,0-.809,1.3L49.727,17H48.3l.938-5.562A1.786,1.786,0,0,0,48.98,10.1a1.377,1.377,0,0,0-1.129-.484,2.315,2.315,0,0,0-2.1,1.2L44.68,17H43.266l1.469-8.453Zm12.544-.267.547,0a1.615,1.615,0,0,0,1.014-.317,1.2,1.2,0,0,0,.472-.859,1.058,1.058,0,0,0-.2-.832.941.941,0,0,0-.743-.312,1.268,1.268,0,0,0-.882.3,1.338,1.338,0,0,0-.444.841l-.816,0a1.89,1.89,0,0,1,.7-1.333,2.219,2.219,0,0,1,1.483-.5,1.773,1.773,0,0,1,1.31.522,1.656,1.656,0,0,1,.412,1.328,1.535,1.535,0,0,1-.36.857,2.4,2.4,0,0,1-.884.643,1.311,1.311,0,0,1,.674.576,1.608,1.608,0,0,1,.187.923,2.037,2.037,0,0,1-.713,1.445,2.242,2.242,0,0,1-1.556.529,1.886,1.886,0,0,1-1.358-.529,1.676,1.676,0,0,1-.469-1.317l.825,0a1.108,1.108,0,0,0,.246.823,1.05,1.05,0,0,0,.793.33,1.326,1.326,0,0,0,.971-.333,1.388,1.388,0,0,0,.442-.939,1.015,1.015,0,0,0-.246-.845,1.241,1.241,0,0,0-.884-.321l-.633,0Zm11.032,3.353,2.3-3.078H73.67L70.28,12.8,72.342,17H70.8l-1.4-3.156L67.022,17H65.3l3.492-4.344-2-4.109h1.547Z" transform="translate(-9368 -8226)" fill="#12263f"/>
    <path id="Trazado_737884" data-name="Trazado 737884" d="M0,0H146" transform="translate(-9284.5 -8214.5)" fill="none" stroke="#707070" stroke-width="1"/>
    <path id="Trazado_737885" data-name="Trazado 737885" d="M2.844-5.592l.82.007A2.423,2.423,0,0,0,5.185-6.06a1.8,1.8,0,0,0,.708-1.289A1.587,1.587,0,0,0,5.6-8.6a1.412,1.412,0,0,0-1.114-.468,1.9,1.9,0,0,0-1.323.455A2.008,2.008,0,0,0,2.5-7.349l-1.224.007a2.836,2.836,0,0,1,1.049-2A3.329,3.329,0,0,1,4.546-10.1a2.66,2.66,0,0,1,1.965.783A2.484,2.484,0,0,1,7.13-7.321a2.3,2.3,0,0,1-.54,1.285,3.6,3.6,0,0,1-1.326.964,1.967,1.967,0,0,1,1.012.865,2.413,2.413,0,0,1,.28,1.384A3.055,3.055,0,0,1,5.486-.656,3.364,3.364,0,0,1,3.151.137,2.83,2.83,0,0,1,1.114-.656a2.514,2.514,0,0,1-.7-1.976l1.237.007a1.662,1.662,0,0,0,.369,1.234,1.575,1.575,0,0,0,1.189.5,1.989,1.989,0,0,0,1.456-.5A2.082,2.082,0,0,0,5.325-2.8a1.523,1.523,0,0,0-.369-1.268A1.861,1.861,0,0,0,3.63-4.553L2.68-4.56Zm6.351.581,1.265-4.942h4.963l-.185,1.169h-3.9l-.766,2.721A3.046,3.046,0,0,1,12.2-6.494a2.234,2.234,0,0,1,1.9.933,3.381,3.381,0,0,1,.54,2.341A3.739,3.739,0,0,1,13.556-.759a3.2,3.2,0,0,1-2.386.9A2.6,2.6,0,0,1,9.249-.622a2.894,2.894,0,0,1-.772-2H9.632A1.983,1.983,0,0,0,10.1-1.354a1.5,1.5,0,0,0,1.128.465A1.84,1.84,0,0,0,12.7-1.511a2.872,2.872,0,0,0,.708-1.7,2.186,2.186,0,0,0-.321-1.521,1.462,1.462,0,0,0-1.224-.625,2.1,2.1,0,0,0-.885.15,3.288,3.288,0,0,0-.769.472Zm7.321,3.575a.74.74,0,0,1,.554.205.706.706,0,0,1,.212.547.739.739,0,0,1-.226.543.813.813,0,0,1-.547.222.706.706,0,0,1-.54-.188.706.706,0,0,1-.212-.537.775.775,0,0,1,.212-.557A.768.768,0,0,1,16.516-1.436Zm5.366-4.156.82.007a2.423,2.423,0,0,0,1.521-.475,1.8,1.8,0,0,0,.708-1.289A1.587,1.587,0,0,0,24.637-8.6a1.412,1.412,0,0,0-1.114-.468A1.9,1.9,0,0,0,22.2-8.61a2.008,2.008,0,0,0-.667,1.261l-1.224.007a2.836,2.836,0,0,1,1.049-2,3.329,3.329,0,0,1,2.225-.755,2.66,2.66,0,0,1,1.965.783,2.484,2.484,0,0,1,.619,1.993,2.3,2.3,0,0,1-.54,1.285,3.6,3.6,0,0,1-1.326.964,1.967,1.967,0,0,1,1.012.865,2.413,2.413,0,0,1,.28,1.384,3.055,3.055,0,0,1-1.07,2.167,3.364,3.364,0,0,1-2.334.793,2.83,2.83,0,0,1-2.037-.793,2.514,2.514,0,0,1-.7-1.976l1.237.007a1.662,1.662,0,0,0,.369,1.234,1.575,1.575,0,0,0,1.189.5,1.989,1.989,0,0,0,1.456-.5A2.082,2.082,0,0,0,24.363-2.8a1.523,1.523,0,0,0-.369-1.268,1.861,1.861,0,0,0-1.326-.482l-.95-.007ZM30.864,0H29.62l1.463-8.395-2.646.93.212-1.2L32.341-10h.219ZM44.775-3.664a5.868,5.868,0,0,1-.608,2.03A3.455,3.455,0,0,1,43-.284a2.676,2.676,0,0,1-1.545.427,2.463,2.463,0,0,1-1.969-.868l-.663,3.568H37.584L39.361-7.4,40.482-7.4l-.137.827a2.806,2.806,0,0,1,2.194-.957,2.063,2.063,0,0,1,1.661.786,3.46,3.46,0,0,1,.629,2.092,7.361,7.361,0,0,1-.034.848ZM43.559-3.8l.034-.573A2.6,2.6,0,0,0,43.213-5.9a1.334,1.334,0,0,0-1.1-.556,2.194,2.194,0,0,0-1.853,1.017L39.642-1.9a1.548,1.548,0,0,0,1.5,1.01,1.946,1.946,0,0,0,1.569-.72A4.18,4.18,0,0,0,43.559-3.8ZM47.106,0h-1.23l1.285-7.4h1.23Zm1.019-10.1a.677.677,0,0,1,.523.188.7.7,0,0,1,.208.53.743.743,0,0,1-.208.526.748.748,0,0,1-.523.219.682.682,0,0,1-.526-.185.669.669,0,0,1-.2-.52.775.775,0,0,1,.205-.533A.723.723,0,0,1,48.125-10.1ZM52.329.137a2.667,2.667,0,0,1-2.16-1.019,3.505,3.505,0,0,1-.656-2.536l.034-.294a4.921,4.921,0,0,1,.653-2.01,3.8,3.8,0,0,1,1.309-1.371,3.054,3.054,0,0,1,1.668-.441,2.352,2.352,0,0,1,1.791.759,3.121,3.121,0,0,1,.711,1.982,5.793,5.793,0,0,1-.027.889l-.075.567H50.743a2.5,2.5,0,0,0,.332,1.709A1.57,1.57,0,0,0,52.432-.9a2.631,2.631,0,0,0,2.023-.984l.711.6a3.253,3.253,0,0,1-1.2,1.049A3.4,3.4,0,0,1,52.329.137ZM53.115-6.5a1.807,1.807,0,0,0-1.336.52,3.693,3.693,0,0,0-.906,1.606l3.6.007.027-.109a2.024,2.024,0,0,0-.277-1.432A1.3,1.3,0,0,0,53.115-6.5ZM60.97-2q.1-.766-.841-1.08l-1.285-.376q-1.627-.561-1.572-1.859a2.048,2.048,0,0,1,.892-1.6,3.177,3.177,0,0,1,1.986-.612,2.649,2.649,0,0,1,1.822.653,2.068,2.068,0,0,1,.673,1.665l-1.23-.007a1.154,1.154,0,0,0-.349-.9,1.379,1.379,0,0,0-.964-.362,1.8,1.8,0,0,0-1.107.314,1.151,1.151,0,0,0-.5.807q-.089.643.786.937l.622.171a4.005,4.005,0,0,1,1.8.854A1.632,1.632,0,0,1,62.2-2.1a2.074,2.074,0,0,1-.451,1.2,2.58,2.58,0,0,1-1.094.783A3.658,3.658,0,0,1,59.2.137,2.885,2.885,0,0,1,57.258-.55a2.124,2.124,0,0,1-.738-1.733l1.237.007a1.311,1.311,0,0,0,.4,1A1.515,1.515,0,0,0,59.24-.9a2.132,2.132,0,0,0,1.169-.284A1.091,1.091,0,0,0,60.97-2ZM64.9-8.262l.478,0a1.413,1.413,0,0,0,.887-.277,1.05,1.05,0,0,0,.413-.752.926.926,0,0,0-.171-.728.823.823,0,0,0-.65-.273,1.11,1.11,0,0,0-.772.265,1.171,1.171,0,0,0-.389.736l-.714,0a1.654,1.654,0,0,1,.612-1.166,1.942,1.942,0,0,1,1.3-.441,1.552,1.552,0,0,1,1.146.457A1.449,1.449,0,0,1,67.4-9.271a1.343,1.343,0,0,1-.315.75,2.1,2.1,0,0,1-.774.562,1.148,1.148,0,0,1,.59.5,1.407,1.407,0,0,1,.163.807,1.782,1.782,0,0,1-.624,1.264,1.962,1.962,0,0,1-1.362.463A1.65,1.65,0,0,1,63.9-5.383a1.467,1.467,0,0,1-.411-1.152l.722,0a.969.969,0,0,0,.215.72.919.919,0,0,0,.694.289,1.16,1.16,0,0,0,.849-.291,1.215,1.215,0,0,0,.387-.821.888.888,0,0,0-.215-.74,1.085,1.085,0,0,0-.774-.281l-.554,0Z" transform="translate(-9246 -8221)" fill="#12263f"/>
    <path id="Trazado_737886" data-name="Trazado 737886" d="M4.129,0H2.885L4.348-8.395,1.7-7.465l.212-1.2L5.605-10h.219Zm9.652-7.4-.157.827a2.892,2.892,0,0,1,2.249-.957,2.282,2.282,0,0,1,1.193.321,1.576,1.576,0,0,1,.673.868,3.054,3.054,0,0,1,2.454-1.189,1.956,1.956,0,0,1,1.634.745,2.662,2.662,0,0,1,.39,1.928L21.4,0h-1.23l.807-4.874a2.575,2.575,0,0,0,0-.649q-.13-.93-1.217-.95a1.869,1.869,0,0,0-1.227.42,1.945,1.945,0,0,0-.708,1.138L16.987,0H15.743l.82-4.867a1.563,1.563,0,0,0-.229-1.169,1.2,1.2,0,0,0-.988-.424,2.026,2.026,0,0,0-1.839,1.053L12.571,0H11.334l1.285-7.4Zm10.976-.858.478,0a1.413,1.413,0,0,0,.887-.277,1.05,1.05,0,0,0,.413-.752.926.926,0,0,0-.171-.728.823.823,0,0,0-.65-.273,1.11,1.11,0,0,0-.772.265,1.171,1.171,0,0,0-.389.736l-.714,0a1.654,1.654,0,0,1,.612-1.166,1.942,1.942,0,0,1,1.3-.441,1.552,1.552,0,0,1,1.146.457,1.449,1.449,0,0,1,.361,1.162,1.343,1.343,0,0,1-.315.75,2.1,2.1,0,0,1-.774.562,1.147,1.147,0,0,1,.59.5,1.407,1.407,0,0,1,.163.807A1.782,1.782,0,0,1,26.3-5.383a1.962,1.962,0,0,1-1.362.463,1.65,1.65,0,0,1-1.188-.463,1.467,1.467,0,0,1-.411-1.152l.722,0a.969.969,0,0,0,.215.72.919.919,0,0,0,.694.289,1.16,1.16,0,0,0,.849-.291,1.215,1.215,0,0,0,.387-.821.888.888,0,0,0-.215-.74,1.085,1.085,0,0,0-.774-.281l-.554,0Z" transform="translate(-9225 -8197)" fill="#12263f"/>
  </g>
</svg>
