<svg xmlns="http://www.w3.org/2000/svg" width="820" height="123" viewBox="0 0 820 123">
  <g id="Grupo_1015998" data-name="Grupo 1015998" transform="translate(-390 -33879)">
    <path id="Trazado_737861" data-name="Trazado 737861" d="M0,0H120V103H0Z" transform="translate(1090 33899)" fill="#3076b6"/>
    <path id="Trazado_737863" data-name="Trazado 737863" d="M0,0H130V103H0Z" transform="translate(390 33879)" fill="#3076b6"/>
    <path id="Trazado_733091" data-name="Trazado 733091" d="M0,0H799.764V103H0Z" transform="translate(400 33889)" fill="#dee4f0"/>
    <path id="Trazado_737862" data-name="Trazado 737862" d="M3.258,3.625l3.719,9.281L10.7,3.625h1.945V15h-1.5V10.57l.141-4.781L7.547,15H6.4L2.672,5.813,2.82,10.57V15H1.32V3.625ZM20.281,15a3.036,3.036,0,0,1-.2-.891,3.225,3.225,0,0,1-2.406,1.047,2.984,2.984,0,0,1-2.051-.707,2.287,2.287,0,0,1-.8-1.793,2.39,2.39,0,0,1,1-2.051,4.733,4.733,0,0,1,2.824-.73h1.406V9.211A1.623,1.623,0,0,0,19.6,8a1.821,1.821,0,0,0-1.336-.449,2.108,2.108,0,0,0-1.3.391,1.151,1.151,0,0,0-.523.945H14.992a2,2,0,0,1,.449-1.223,3.066,3.066,0,0,1,1.219-.934,4.1,4.1,0,0,1,1.691-.344,3.342,3.342,0,0,1,2.289.73A2.635,2.635,0,0,1,21.5,9.133v3.891a4.757,4.757,0,0,0,.3,1.852V15Zm-2.4-1.1a2.54,2.54,0,0,0,1.289-.352,2.127,2.127,0,0,0,.883-.914V10.9H18.922q-2.656,0-2.656,1.555a1.316,1.316,0,0,0,.453,1.063A1.742,1.742,0,0,0,17.883,13.9Zm10.8-1.141a1.064,1.064,0,0,0-.441-.91,4.249,4.249,0,0,0-1.539-.559,7.277,7.277,0,0,1-1.742-.562,2.479,2.479,0,0,1-.953-.781A1.869,1.869,0,0,1,23.7,8.867a2.193,2.193,0,0,1,.879-1.758,3.432,3.432,0,0,1,2.246-.719,3.532,3.532,0,0,1,2.332.742,2.357,2.357,0,0,1,.895,1.9H28.6a1.3,1.3,0,0,0-.5-1.023,1.888,1.888,0,0,0-1.27-.43,1.976,1.976,0,0,0-1.234.344,1.082,1.082,0,0,0-.445.9.877.877,0,0,0,.414.789,5.1,5.1,0,0,0,1.5.508,7.8,7.8,0,0,1,1.754.578,2.558,2.558,0,0,1,1,.809,1.988,1.988,0,0,1,.324,1.152,2.163,2.163,0,0,1-.906,1.816,3.8,3.8,0,0,1-2.352.684,4.257,4.257,0,0,1-1.8-.359,2.922,2.922,0,0,1-1.223-1,2.42,2.42,0,0,1-.441-1.395h1.445a1.5,1.5,0,0,0,.582,1.152,2.258,2.258,0,0,0,1.434.426,2.331,2.331,0,0,0,1.316-.332A1.02,1.02,0,0,0,28.688,12.758ZM37.234,15a3.036,3.036,0,0,1-.2-.891,3.225,3.225,0,0,1-2.406,1.047,2.984,2.984,0,0,1-2.051-.707,2.287,2.287,0,0,1-.8-1.793,2.39,2.39,0,0,1,1-2.051,4.733,4.733,0,0,1,2.824-.73h1.406V9.211A1.623,1.623,0,0,0,36.555,8a1.821,1.821,0,0,0-1.336-.449,2.107,2.107,0,0,0-1.3.391,1.151,1.151,0,0,0-.523.945H31.945a2,2,0,0,1,.449-1.223,3.066,3.066,0,0,1,1.219-.934A4.1,4.1,0,0,1,35.3,6.391a3.342,3.342,0,0,1,2.289.73,2.635,2.635,0,0,1,.859,2.012v3.891a4.757,4.757,0,0,0,.3,1.852V15Zm-2.4-1.1a2.54,2.54,0,0,0,1.289-.352,2.127,2.127,0,0,0,.883-.914V10.9H35.875q-2.656,0-2.656,1.555a1.316,1.316,0,0,0,.453,1.063A1.742,1.742,0,0,0,34.836,13.9Zm9.492-3.2a4.952,4.952,0,0,1,.922-3.129,3.137,3.137,0,0,1,4.766-.168V3h1.445V15H50.133l-.07-.906a2.943,2.943,0,0,1-2.414,1.063,2.887,2.887,0,0,1-2.395-1.2,5.008,5.008,0,0,1-.926-3.141Zm1.445.164a3.749,3.749,0,0,0,.594,2.25,1.92,1.92,0,0,0,1.641.813A2.108,2.108,0,0,0,50.016,12.7V8.813a2.125,2.125,0,0,0-1.992-1.2,1.929,1.929,0,0,0-1.656.82A4.128,4.128,0,0,0,45.773,10.867Zm11.438,4.289a3.693,3.693,0,0,1-2.8-1.129,4.19,4.19,0,0,1-1.078-3.02v-.266a5.073,5.073,0,0,1,.48-2.246A3.748,3.748,0,0,1,55.16,6.949a3.378,3.378,0,0,1,1.871-.559,3.166,3.166,0,0,1,2.563,1.086,4.7,4.7,0,0,1,.914,3.109v.6H54.781a3,3,0,0,0,.73,2.02,2.3,2.3,0,0,0,1.777.77,2.517,2.517,0,0,0,1.3-.312,3.259,3.259,0,0,0,.93-.828l.883.688A3.55,3.55,0,0,1,57.211,15.156Zm-.18-7.578a1.928,1.928,0,0,0-1.469.637A3.1,3.1,0,0,0,54.828,10h4.234V9.891a2.753,2.753,0,0,0-.594-1.707A1.815,1.815,0,0,0,57.031,7.578Zm12.5,6.4a2.082,2.082,0,0,0,1.352-.469,1.649,1.649,0,0,0,.641-1.172h1.367a2.621,2.621,0,0,1-.5,1.383,3.293,3.293,0,0,1-1.23,1.047,3.55,3.55,0,0,1-1.629.391A3.482,3.482,0,0,1,66.785,14a4.59,4.59,0,0,1-1.02-3.152v-.242a5.089,5.089,0,0,1,.453-2.2,3.451,3.451,0,0,1,1.3-1.492,3.7,3.7,0,0,1,2-.531,3.39,3.39,0,0,1,2.363.852,3.043,3.043,0,0,1,1,2.211H71.523A1.992,1.992,0,0,0,70.9,8.105a1.932,1.932,0,0,0-1.379-.527,2.023,2.023,0,0,0-1.707.793,3.724,3.724,0,0,0-.605,2.293v.273a3.65,3.65,0,0,0,.6,2.25A2.033,2.033,0,0,0,69.531,13.977Zm4.6-3.281a4.993,4.993,0,0,1,.488-2.234A3.643,3.643,0,0,1,75.98,6.93a3.7,3.7,0,0,1,1.988-.539,3.565,3.565,0,0,1,2.793,1.2,4.6,4.6,0,0,1,1.066,3.18v.1a5.036,5.036,0,0,1-.473,2.215A3.589,3.589,0,0,1,80,14.609a3.743,3.743,0,0,1-2.02.547,3.556,3.556,0,0,1-2.785-1.2A4.575,4.575,0,0,1,74.133,10.8Zm1.453.172a3.616,3.616,0,0,0,.652,2.258,2.211,2.211,0,0,0,3.5-.012,3.955,3.955,0,0,0,.648-2.418,3.61,3.61,0,0,0-.66-2.254,2.1,2.1,0,0,0-1.754-.863,2.075,2.075,0,0,0-1.727.852A3.925,3.925,0,0,0,75.586,10.867Zm9.422-4.32.047,1.063a3.08,3.08,0,0,1,2.531-1.219q2.68,0,2.7,3.023V15H88.844V9.406a1.946,1.946,0,0,0-.418-1.352,1.675,1.675,0,0,0-1.277-.437,2.086,2.086,0,0,0-1.234.375,2.546,2.546,0,0,0-.828.984V15H83.641V6.547ZM94.43,4.5V6.547h1.578V7.664H94.43v5.249a1.173,1.173,0,0,0,.211.763.888.888,0,0,0,.719.254,3.5,3.5,0,0,0,.688-.094V15a4.215,4.215,0,0,1-1.109.155,1.8,1.8,0,0,1-1.461-.586,2.517,2.517,0,0,1-.492-1.664V7.664H91.445V6.547h1.539V4.5ZM102.914,15a3.036,3.036,0,0,1-.2-.891,3.225,3.225,0,0,1-2.406,1.047,2.984,2.984,0,0,1-2.051-.707,2.288,2.288,0,0,1-.8-1.793,2.39,2.39,0,0,1,1-2.051,4.733,4.733,0,0,1,2.824-.73h1.406V9.211A1.623,1.623,0,0,0,102.234,8a1.821,1.821,0,0,0-1.336-.449,2.108,2.108,0,0,0-1.3.391,1.151,1.151,0,0,0-.523.945H97.625a2,2,0,0,1,.449-1.223,3.066,3.066,0,0,1,1.219-.934,4.1,4.1,0,0,1,1.691-.344,3.342,3.342,0,0,1,2.289.73,2.635,2.635,0,0,1,.859,2.012v3.891a4.757,4.757,0,0,0,.3,1.852V15Zm-2.4-1.1a2.54,2.54,0,0,0,1.289-.352,2.127,2.127,0,0,0,.883-.914V10.9h-1.133q-2.656,0-2.656,1.555a1.316,1.316,0,0,0,.453,1.063A1.742,1.742,0,0,0,100.516,13.9Zm7.242-7.352.039.938A3.122,3.122,0,0,1,110.3,6.391a2.417,2.417,0,0,1,2.414,1.359,3.2,3.2,0,0,1,1.1-.984,3.242,3.242,0,0,1,1.6-.375q2.781,0,2.828,2.945V15H116.8V9.422a1.941,1.941,0,0,0-.414-1.355,1.823,1.823,0,0,0-1.391-.449,1.916,1.916,0,0,0-1.336.48,1.949,1.949,0,0,0-.617,1.293V15h-1.453V9.461a1.613,1.613,0,0,0-1.8-1.844,1.934,1.934,0,0,0-1.945,1.211V15h-1.445V6.547ZM121.992,15h-1.445V6.547h1.445ZM120.43,4.3a.863.863,0,0,1,.215-.594.807.807,0,0,1,.637-.242.819.819,0,0,1,.641.242.854.854,0,0,1,.219.594.826.826,0,0,1-.219.586.834.834,0,0,1-.641.234.821.821,0,0,1-.637-.234A.834.834,0,0,1,120.43,4.3Zm5.242,2.242.047,1.063a3.08,3.08,0,0,1,2.531-1.219q2.68,0,2.7,3.023V15h-1.445V9.406a1.946,1.946,0,0,0-.418-1.352,1.675,1.675,0,0,0-1.277-.437,2.086,2.086,0,0,0-1.234.375,2.546,2.546,0,0,0-.828.984V15H124.3V6.547ZM138.352,15a3.036,3.036,0,0,1-.2-.891,3.225,3.225,0,0,1-2.406,1.047,2.984,2.984,0,0,1-2.051-.707,2.287,2.287,0,0,1-.8-1.793,2.39,2.39,0,0,1,1-2.051,4.733,4.733,0,0,1,2.824-.73h1.406V9.211A1.623,1.623,0,0,0,137.672,8a1.821,1.821,0,0,0-1.336-.449,2.107,2.107,0,0,0-1.3.391,1.151,1.151,0,0,0-.523.945h-1.453a2,2,0,0,1,.449-1.223,3.066,3.066,0,0,1,1.219-.934,4.1,4.1,0,0,1,1.691-.344,3.342,3.342,0,0,1,2.289.73,2.635,2.635,0,0,1,.859,2.012v3.891a4.757,4.757,0,0,0,.3,1.852V15Zm-2.4-1.1a2.54,2.54,0,0,0,1.289-.352,2.127,2.127,0,0,0,.883-.914V10.9h-1.133q-2.656,0-2.656,1.555a1.316,1.316,0,0,0,.453,1.063A1.742,1.742,0,0,0,135.953,13.9Zm7.25-7.352.047,1.063a3.08,3.08,0,0,1,2.531-1.219q2.68,0,2.7,3.023V15h-1.445V9.406a1.946,1.946,0,0,0-.418-1.352,1.675,1.675,0,0,0-1.277-.437,2.086,2.086,0,0,0-1.234.375,2.546,2.546,0,0,0-.828.984V15h-1.445V6.547ZM152.625,4.5V6.547H154.2V7.664h-1.578v5.249a1.173,1.173,0,0,0,.211.763.888.888,0,0,0,.719.254,3.5,3.5,0,0,0,.688-.094V15a4.215,4.215,0,0,1-1.109.155,1.8,1.8,0,0,1-1.461-.586,2.517,2.517,0,0,1-.492-1.664V7.664h-1.539V6.547h1.539V4.5ZM159.4,15.156a3.693,3.693,0,0,1-2.8-1.129,4.19,4.19,0,0,1-1.078-3.02v-.266A5.073,5.073,0,0,1,156,8.5a3.748,3.748,0,0,1,1.344-1.547,3.378,3.378,0,0,1,1.871-.559,3.166,3.166,0,0,1,2.563,1.086,4.7,4.7,0,0,1,.914,3.109v.6h-5.727a3,3,0,0,0,.73,2.02,2.3,2.3,0,0,0,1.777.77,2.517,2.517,0,0,0,1.3-.312,3.258,3.258,0,0,0,.93-.828l.883.688A3.55,3.55,0,0,1,159.4,15.156Zm-.18-7.578a1.928,1.928,0,0,0-1.469.637A3.1,3.1,0,0,0,157.016,10h4.234V9.891a2.753,2.753,0,0,0-.594-1.707A1.815,1.815,0,0,0,159.219,7.578Zm15.719,1.063h-6.516V7.383h6.516Zm0,3.242h-6.516v-1.25h6.516Zm14.727-.492a4.185,4.185,0,0,1-1.332,2.785,4.365,4.365,0,0,1-2.98.98,4.008,4.008,0,0,1-3.23-1.445,5.815,5.815,0,0,1-1.215-3.867V8.75a6.481,6.481,0,0,1,.566-2.789,4.231,4.231,0,0,1,1.605-1.848,4.47,4.47,0,0,1,2.406-.645,4.11,4.11,0,0,1,2.906,1.012,4.235,4.235,0,0,1,1.273,2.8h-1.508a3.268,3.268,0,0,0-.848-1.975,2.565,2.565,0,0,0-1.824-.611,2.684,2.684,0,0,0-2.254,1.063,4.882,4.882,0,0,0-.816,3.026v1.1a5.018,5.018,0,0,0,.773,2.948,2.5,2.5,0,0,0,2.164,1.095,2.887,2.887,0,0,0,1.918-.566,3.143,3.143,0,0,0,.887-1.973ZM196.7,15a3.036,3.036,0,0,1-.2-.891,3.225,3.225,0,0,1-2.406,1.047,2.984,2.984,0,0,1-2.051-.707,2.287,2.287,0,0,1-.8-1.793,2.39,2.39,0,0,1,1-2.051,4.733,4.733,0,0,1,2.824-.73h1.406V9.211A1.623,1.623,0,0,0,196.023,8a1.821,1.821,0,0,0-1.336-.449,2.107,2.107,0,0,0-1.3.391,1.151,1.151,0,0,0-.523.945h-1.453a2,2,0,0,1,.449-1.223,3.066,3.066,0,0,1,1.219-.934,4.1,4.1,0,0,1,1.691-.344,3.342,3.342,0,0,1,2.289.73,2.635,2.635,0,0,1,.859,2.012v3.891a4.757,4.757,0,0,0,.3,1.852V15Zm-2.4-1.1a2.54,2.54,0,0,0,1.289-.352,2.127,2.127,0,0,0,.883-.914V10.9h-1.133q-2.656,0-2.656,1.555a1.316,1.316,0,0,0,.453,1.063A1.742,1.742,0,0,0,194.3,13.9Zm9.969-6.055a4.331,4.331,0,0,0-.711-.055A1.9,1.9,0,0,0,201.633,9v6h-1.445V6.547h1.406l.023.977a2.251,2.251,0,0,1,2.016-1.133,1.477,1.477,0,0,1,.641.109Zm.836,2.859a4.968,4.968,0,0,1,.914-3.145,3.151,3.151,0,0,1,4.836-.074l.07-.937h1.32V14.8a3.439,3.439,0,0,1-.973,2.586,3.589,3.589,0,0,1-2.613.945,4.348,4.348,0,0,1-1.789-.391,3.08,3.08,0,0,1-1.336-1.07l.75-.867a2.826,2.826,0,0,0,2.273,1.148,2.214,2.214,0,0,0,1.645-.594,2.269,2.269,0,0,0,.59-1.672v-.727a2.971,2.971,0,0,1-2.367,1,2.887,2.887,0,0,1-2.4-1.2A5.224,5.224,0,0,1,205.109,10.7Zm1.453.164a3.79,3.79,0,0,0,.586,2.246,1.9,1.9,0,0,0,1.641.816,2.117,2.117,0,0,0,2.008-1.242V8.828A2.142,2.142,0,0,0,208.8,7.617a1.921,1.921,0,0,0-1.648.82A4.128,4.128,0,0,0,206.563,10.867ZM219.648,15a3.036,3.036,0,0,1-.2-.891,3.225,3.225,0,0,1-2.406,1.047,2.984,2.984,0,0,1-2.051-.707,2.287,2.287,0,0,1-.8-1.793,2.39,2.39,0,0,1,1-2.051,4.733,4.733,0,0,1,2.824-.73h1.406V9.211A1.623,1.623,0,0,0,218.969,8a1.821,1.821,0,0,0-1.336-.449,2.107,2.107,0,0,0-1.3.391,1.151,1.151,0,0,0-.523.945h-1.453a2,2,0,0,1,.449-1.223,3.066,3.066,0,0,1,1.219-.934,4.1,4.1,0,0,1,1.691-.344,3.342,3.342,0,0,1,2.289.73,2.635,2.635,0,0,1,.859,2.012v3.891a4.757,4.757,0,0,0,.3,1.852V15Zm-2.4-1.1a2.54,2.54,0,0,0,1.289-.352,2.127,2.127,0,0,0,.883-.914V10.9h-1.133q-2.656,0-2.656,1.555a1.316,1.316,0,0,0,.453,1.063A1.742,1.742,0,0,0,217.25,13.9Zm13.234.078a2.082,2.082,0,0,0,1.352-.469,1.649,1.649,0,0,0,.641-1.172h1.367a2.621,2.621,0,0,1-.5,1.383,3.293,3.293,0,0,1-1.23,1.047,3.55,3.55,0,0,1-1.629.391A3.482,3.482,0,0,1,227.738,14a4.59,4.59,0,0,1-1.02-3.152v-.242a5.089,5.089,0,0,1,.453-2.2,3.451,3.451,0,0,1,1.3-1.492,3.7,3.7,0,0,1,2-.531,3.39,3.39,0,0,1,2.363.852,3.043,3.043,0,0,1,1,2.211h-1.367a1.992,1.992,0,0,0-.621-1.348,1.932,1.932,0,0,0-1.379-.527,2.023,2.023,0,0,0-1.707.793,3.724,3.724,0,0,0-.605,2.293v.273a3.65,3.65,0,0,0,.6,2.25A2.033,2.033,0,0,0,230.484,13.977Zm4.6-3.281a4.993,4.993,0,0,1,.488-2.234,3.642,3.642,0,0,1,1.359-1.531,3.7,3.7,0,0,1,1.988-.539,3.565,3.565,0,0,1,2.793,1.2,4.6,4.6,0,0,1,1.066,3.18v.1a5.036,5.036,0,0,1-.473,2.215,3.589,3.589,0,0,1-1.352,1.527,3.743,3.743,0,0,1-2.02.547,3.556,3.556,0,0,1-2.785-1.2,4.575,4.575,0,0,1-1.066-3.164Zm1.453.172a3.616,3.616,0,0,0,.652,2.258,2.211,2.211,0,0,0,3.5-.012,3.954,3.954,0,0,0,.648-2.418,3.61,3.61,0,0,0-.66-2.254,2.1,2.1,0,0,0-1.754-.863,2.075,2.075,0,0,0-1.727.852A3.925,3.925,0,0,0,236.539,10.867Zm9.422-4.32.047,1.063a3.08,3.08,0,0,1,2.531-1.219q2.68,0,2.7,3.023V15H249.8V9.406a1.946,1.946,0,0,0-.418-1.352,1.675,1.675,0,0,0-1.277-.437,2.086,2.086,0,0,0-1.234.375,2.546,2.546,0,0,0-.828.984V15h-1.445V6.547ZM255.383,4.5V6.547h1.578V7.664h-1.578v5.249a1.173,1.173,0,0,0,.211.763.888.888,0,0,0,.719.254,3.5,3.5,0,0,0,.688-.094V15a4.215,4.215,0,0,1-1.109.155,1.8,1.8,0,0,1-1.461-.586,2.517,2.517,0,0,1-.492-1.664V7.664H252.4V6.547h1.539V4.5ZM263.867,15a3.036,3.036,0,0,1-.2-.891,3.225,3.225,0,0,1-2.406,1.047,2.984,2.984,0,0,1-2.051-.707,2.288,2.288,0,0,1-.8-1.793,2.39,2.39,0,0,1,1-2.051,4.733,4.733,0,0,1,2.824-.73h1.406V9.211A1.623,1.623,0,0,0,263.188,8a1.821,1.821,0,0,0-1.336-.449,2.108,2.108,0,0,0-1.3.391,1.151,1.151,0,0,0-.523.945h-1.453a2,2,0,0,1,.449-1.223,3.066,3.066,0,0,1,1.219-.934,4.1,4.1,0,0,1,1.691-.344,3.342,3.342,0,0,1,2.289.73,2.635,2.635,0,0,1,.859,2.012v3.891a4.757,4.757,0,0,0,.3,1.852V15Zm-2.4-1.1a2.54,2.54,0,0,0,1.289-.352,2.126,2.126,0,0,0,.883-.914V10.9h-1.133q-2.656,0-2.656,1.555a1.316,1.316,0,0,0,.453,1.063A1.742,1.742,0,0,0,261.469,13.9Zm7.242-7.352.039.938a3.122,3.122,0,0,1,2.508-1.094,2.417,2.417,0,0,1,2.414,1.359,3.2,3.2,0,0,1,1.1-.984,3.242,3.242,0,0,1,1.6-.375q2.781,0,2.828,2.945V15H277.75V9.422a1.941,1.941,0,0,0-.414-1.355,1.823,1.823,0,0,0-1.391-.449,1.916,1.916,0,0,0-1.336.48,1.949,1.949,0,0,0-.617,1.293V15h-1.453V9.461a1.613,1.613,0,0,0-1.8-1.844,1.934,1.934,0,0,0-1.945,1.211V15h-1.445V6.547ZM282.945,15H281.5V6.547h1.445ZM281.383,4.3a.863.863,0,0,1,.215-.594.807.807,0,0,1,.637-.242.819.819,0,0,1,.641.242.854.854,0,0,1,.219.594.826.826,0,0,1-.219.586.834.834,0,0,1-.641.234.821.821,0,0,1-.637-.234A.834.834,0,0,1,281.383,4.3Zm5.242,2.242.047,1.063A3.08,3.08,0,0,1,289.2,6.391q2.68,0,2.7,3.023V15h-1.445V9.406a1.946,1.946,0,0,0-.418-1.352,1.675,1.675,0,0,0-1.277-.437,2.086,2.086,0,0,0-1.234.375,2.546,2.546,0,0,0-.828.984V15h-1.445V6.547ZM299.3,15a3.036,3.036,0,0,1-.2-.891,3.225,3.225,0,0,1-2.406,1.047,2.984,2.984,0,0,1-2.051-.707,2.288,2.288,0,0,1-.8-1.793,2.39,2.39,0,0,1,1-2.051,4.733,4.733,0,0,1,2.824-.73h1.406V9.211A1.623,1.623,0,0,0,298.625,8a1.821,1.821,0,0,0-1.336-.449,2.108,2.108,0,0,0-1.3.391,1.151,1.151,0,0,0-.523.945h-1.453a2,2,0,0,1,.449-1.223,3.066,3.066,0,0,1,1.219-.934,4.1,4.1,0,0,1,1.691-.344,3.342,3.342,0,0,1,2.289.73,2.635,2.635,0,0,1,.859,2.012v3.891a4.757,4.757,0,0,0,.3,1.852V15Zm-2.4-1.1a2.54,2.54,0,0,0,1.289-.352,2.126,2.126,0,0,0,.883-.914V10.9h-1.133q-2.656,0-2.656,1.555a1.316,1.316,0,0,0,.453,1.063A1.742,1.742,0,0,0,296.906,13.9Zm7.25-7.352.047,1.063a3.08,3.08,0,0,1,2.531-1.219q2.68,0,2.7,3.023V15h-1.445V9.406a1.946,1.946,0,0,0-.418-1.352,1.675,1.675,0,0,0-1.277-.437,2.086,2.086,0,0,0-1.234.375,2.546,2.546,0,0,0-.828.984V15h-1.445V6.547ZM313.578,4.5V6.547h1.578V7.664h-1.578v5.249a1.173,1.173,0,0,0,.211.763.888.888,0,0,0,.719.254,3.5,3.5,0,0,0,.688-.094V15a4.215,4.215,0,0,1-1.109.155,1.8,1.8,0,0,1-1.461-.586,2.517,2.517,0,0,1-.492-1.664V7.664h-1.539V6.547h1.539V4.5Zm6.773,10.656a3.693,3.693,0,0,1-2.8-1.129,4.19,4.19,0,0,1-1.078-3.02v-.266a5.073,5.073,0,0,1,.48-2.246A3.748,3.748,0,0,1,318.3,6.949a3.378,3.378,0,0,1,1.871-.559,3.166,3.166,0,0,1,2.563,1.086,4.7,4.7,0,0,1,.914,3.109v.6h-5.727a3,3,0,0,0,.73,2.02,2.3,2.3,0,0,0,1.777.77,2.517,2.517,0,0,0,1.3-.312,3.259,3.259,0,0,0,.93-.828l.883.688A3.55,3.55,0,0,1,320.352,15.156Zm-.18-7.578a1.928,1.928,0,0,0-1.469.637A3.1,3.1,0,0,0,317.969,10H322.2V9.891a2.753,2.753,0,0,0-.594-1.707A1.815,1.815,0,0,0,320.172,7.578Zm11.945,2.055,1.875-3.086h1.688l-2.766,4.18L335.766,15h-1.672l-1.953-3.164L330.188,15h-1.68l2.852-4.273-2.766-4.18h1.672ZM343.133,4.5V6.547h1.578V7.664h-1.578v5.249a1.173,1.173,0,0,0,.211.763.888.888,0,0,0,.719.254,3.5,3.5,0,0,0,.688-.094V15a4.215,4.215,0,0,1-1.109.155,1.8,1.8,0,0,1-1.461-.586,2.517,2.517,0,0,1-.492-1.664V7.664h-1.539V6.547h1.539V4.5ZM347.969,15h-1.445V6.547h1.445ZM346.406,4.3a.863.863,0,0,1,.215-.594.807.807,0,0,1,.637-.242.819.819,0,0,1,.641.242.854.854,0,0,1,.219.594.826.826,0,0,1-.219.586.834.834,0,0,1-.641.234.821.821,0,0,1-.637-.234A.834.834,0,0,1,346.406,4.3Zm7.383,10.852a3.693,3.693,0,0,1-2.8-1.129,4.19,4.19,0,0,1-1.078-3.02v-.266a5.073,5.073,0,0,1,.48-2.246,3.748,3.748,0,0,1,1.344-1.547,3.378,3.378,0,0,1,1.871-.559,3.166,3.166,0,0,1,2.563,1.086,4.7,4.7,0,0,1,.914,3.109v.6h-5.727a3,3,0,0,0,.73,2.02,2.3,2.3,0,0,0,1.777.77,2.517,2.517,0,0,0,1.3-.312,3.259,3.259,0,0,0,.93-.828l.883.688A3.55,3.55,0,0,1,353.789,15.156Zm-.18-7.578a1.928,1.928,0,0,0-1.469.637A3.1,3.1,0,0,0,351.406,10h4.234V9.891a2.753,2.753,0,0,0-.594-1.707A1.815,1.815,0,0,0,353.609,7.578Zm6.508-1.031.039.938a3.122,3.122,0,0,1,2.508-1.094,2.417,2.417,0,0,1,2.414,1.359,3.2,3.2,0,0,1,1.1-.984,3.242,3.242,0,0,1,1.6-.375q2.781,0,2.828,2.945V15h-1.445V9.422a1.941,1.941,0,0,0-.414-1.355,1.823,1.823,0,0,0-1.391-.449,1.916,1.916,0,0,0-1.336.48,1.949,1.949,0,0,0-.617,1.293V15h-1.453V9.461a1.613,1.613,0,0,0-1.8-1.844A1.934,1.934,0,0,0,360.2,8.828V15H358.75V6.547Zm19.8,4.32a5.062,5.062,0,0,1-.883,3.109,2.829,2.829,0,0,1-2.391,1.18,3.1,3.1,0,0,1-2.422-.977v4.07h-1.445V6.547h1.32l.07.938a2.977,2.977,0,0,1,2.453-1.094,2.882,2.882,0,0,1,2.41,1.148,5.117,5.117,0,0,1,.887,3.2Zm-1.445-.164a3.735,3.735,0,0,0-.609-2.258,1.963,1.963,0,0,0-1.672-.828,2.125,2.125,0,0,0-1.969,1.164V12.82a2.129,2.129,0,0,0,1.984,1.156,1.954,1.954,0,0,0,1.652-.824A4.077,4.077,0,0,0,378.477,10.7Zm2.9-.008a4.993,4.993,0,0,1,.488-2.234,3.643,3.643,0,0,1,1.359-1.531,3.7,3.7,0,0,1,1.988-.539A3.565,3.565,0,0,1,388,7.586a4.6,4.6,0,0,1,1.066,3.18v.1a5.036,5.036,0,0,1-.473,2.215,3.589,3.589,0,0,1-1.352,1.527,3.743,3.743,0,0,1-2.02.547,3.556,3.556,0,0,1-2.785-1.2,4.575,4.575,0,0,1-1.066-3.164Zm1.453.172a3.616,3.616,0,0,0,.652,2.258,2.211,2.211,0,0,0,3.5-.012,3.955,3.955,0,0,0,.648-2.418,3.61,3.61,0,0,0-.66-2.254,2.1,2.1,0,0,0-1.754-.863,2.075,2.075,0,0,0-1.727.852A3.925,3.925,0,0,0,382.828,10.867ZM3.258,27.625l3.719,9.281L10.7,27.625h1.945V39h-1.5V34.57l.141-4.781L7.547,39H6.4L2.672,29.813,2.82,34.57V39H1.32V27.625ZM20.281,39a3.036,3.036,0,0,1-.2-.891,3.225,3.225,0,0,1-2.406,1.047,2.984,2.984,0,0,1-2.051-.707,2.287,2.287,0,0,1-.8-1.793,2.39,2.39,0,0,1,1-2.051,4.733,4.733,0,0,1,2.824-.73h1.406v-.664A1.623,1.623,0,0,0,19.6,32a1.821,1.821,0,0,0-1.336-.449,2.108,2.108,0,0,0-1.3.391,1.151,1.151,0,0,0-.523.945H14.992a2,2,0,0,1,.449-1.223,3.066,3.066,0,0,1,1.219-.934,4.1,4.1,0,0,1,1.691-.344,3.342,3.342,0,0,1,2.289.73,2.635,2.635,0,0,1,.859,2.012v3.891a4.757,4.757,0,0,0,.3,1.852V39Zm-2.4-1.1a2.54,2.54,0,0,0,1.289-.352,2.127,2.127,0,0,0,.883-.914V34.9H18.922q-2.656,0-2.656,1.555a1.316,1.316,0,0,0,.453,1.063A1.742,1.742,0,0,0,17.883,37.9Zm10.8-1.141a1.064,1.064,0,0,0-.441-.91,4.249,4.249,0,0,0-1.539-.559,7.277,7.277,0,0,1-1.742-.562,2.479,2.479,0,0,1-.953-.781,1.869,1.869,0,0,1-.309-1.078,2.193,2.193,0,0,1,.879-1.758,3.432,3.432,0,0,1,2.246-.719,3.532,3.532,0,0,1,2.332.742,2.357,2.357,0,0,1,.895,1.9H28.6a1.3,1.3,0,0,0-.5-1.023,1.888,1.888,0,0,0-1.27-.43,1.976,1.976,0,0,0-1.234.344,1.082,1.082,0,0,0-.445.9.877.877,0,0,0,.414.789,5.1,5.1,0,0,0,1.5.508,7.8,7.8,0,0,1,1.754.578,2.558,2.558,0,0,1,1,.809,1.988,1.988,0,0,1,.324,1.152,2.163,2.163,0,0,1-.906,1.816,3.8,3.8,0,0,1-2.352.684,4.257,4.257,0,0,1-1.8-.359,2.922,2.922,0,0,1-1.223-1,2.42,2.42,0,0,1-.441-1.395h1.445a1.5,1.5,0,0,0,.582,1.152,2.258,2.258,0,0,0,1.434.426,2.331,2.331,0,0,0,1.316-.332A1.02,1.02,0,0,0,28.688,36.758ZM37.234,39a3.036,3.036,0,0,1-.2-.891,3.225,3.225,0,0,1-2.406,1.047,2.984,2.984,0,0,1-2.051-.707,2.287,2.287,0,0,1-.8-1.793,2.39,2.39,0,0,1,1-2.051,4.733,4.733,0,0,1,2.824-.73h1.406v-.664A1.623,1.623,0,0,0,36.555,32a1.821,1.821,0,0,0-1.336-.449,2.107,2.107,0,0,0-1.3.391,1.151,1.151,0,0,0-.523.945H31.945a2,2,0,0,1,.449-1.223,3.066,3.066,0,0,1,1.219-.934,4.1,4.1,0,0,1,1.691-.344,3.342,3.342,0,0,1,2.289.73,2.635,2.635,0,0,1,.859,2.012v3.891a4.757,4.757,0,0,0,.3,1.852V39Zm-2.4-1.1a2.54,2.54,0,0,0,1.289-.352,2.127,2.127,0,0,0,.883-.914V34.9H35.875q-2.656,0-2.656,1.555a1.316,1.316,0,0,0,.453,1.063A1.742,1.742,0,0,0,34.836,37.9Zm9.492-3.2a4.952,4.952,0,0,1,.922-3.129,3.137,3.137,0,0,1,4.766-.168V27h1.445V39H50.133l-.07-.906a2.943,2.943,0,0,1-2.414,1.063,2.887,2.887,0,0,1-2.395-1.2,5.008,5.008,0,0,1-.926-3.141Zm1.445.164a3.749,3.749,0,0,0,.594,2.25,1.919,1.919,0,0,0,1.641.813A2.108,2.108,0,0,0,50.016,36.7V32.813a2.125,2.125,0,0,0-1.992-1.2,1.929,1.929,0,0,0-1.656.82A4.128,4.128,0,0,0,45.773,34.867Zm11.438,4.289a3.693,3.693,0,0,1-2.8-1.129,4.19,4.19,0,0,1-1.078-3.02v-.266a5.073,5.073,0,0,1,.48-2.246,3.748,3.748,0,0,1,1.344-1.547,3.378,3.378,0,0,1,1.871-.559,3.166,3.166,0,0,1,2.563,1.086,4.7,4.7,0,0,1,.914,3.109v.6H54.781a3,3,0,0,0,.73,2.02,2.3,2.3,0,0,0,1.777.77,2.517,2.517,0,0,0,1.3-.312,3.258,3.258,0,0,0,.93-.828l.883.688A3.55,3.55,0,0,1,57.211,39.156Zm-.18-7.578a1.928,1.928,0,0,0-1.469.637A3.1,3.1,0,0,0,54.828,34h4.234v-.109a2.753,2.753,0,0,0-.594-1.707A1.815,1.815,0,0,0,57.031,31.578Zm12.5,6.4a2.082,2.082,0,0,0,1.352-.469,1.649,1.649,0,0,0,.641-1.172h1.367a2.621,2.621,0,0,1-.5,1.383,3.293,3.293,0,0,1-1.23,1.047,3.55,3.55,0,0,1-1.629.391A3.482,3.482,0,0,1,66.785,38a4.59,4.59,0,0,1-1.02-3.152v-.242a5.089,5.089,0,0,1,.453-2.2,3.451,3.451,0,0,1,1.3-1.492,3.7,3.7,0,0,1,2-.531,3.39,3.39,0,0,1,2.363.852,3.043,3.043,0,0,1,1,2.211H71.523a1.992,1.992,0,0,0-.621-1.348,1.932,1.932,0,0,0-1.379-.527,2.023,2.023,0,0,0-1.707.793,3.724,3.724,0,0,0-.605,2.293v.273a3.65,3.65,0,0,0,.6,2.25A2.033,2.033,0,0,0,69.531,37.977Zm4.6-3.281a4.993,4.993,0,0,1,.488-2.234A3.643,3.643,0,0,1,75.98,30.93a3.7,3.7,0,0,1,1.988-.539,3.565,3.565,0,0,1,2.793,1.2,4.6,4.6,0,0,1,1.066,3.18v.1a5.036,5.036,0,0,1-.473,2.215A3.589,3.589,0,0,1,80,38.609a3.743,3.743,0,0,1-2.02.547,3.556,3.556,0,0,1-2.785-1.2A4.575,4.575,0,0,1,74.133,34.8Zm1.453.172a3.616,3.616,0,0,0,.652,2.258,2.211,2.211,0,0,0,3.5-.012,3.955,3.955,0,0,0,.648-2.418,3.61,3.61,0,0,0-.66-2.254,2.1,2.1,0,0,0-1.754-.863,2.075,2.075,0,0,0-1.727.852A3.925,3.925,0,0,0,75.586,34.867Zm9.422-4.32.047,1.063a3.08,3.08,0,0,1,2.531-1.219q2.68,0,2.7,3.023V39H88.844V33.406a1.946,1.946,0,0,0-.418-1.352,1.675,1.675,0,0,0-1.277-.437,2.086,2.086,0,0,0-1.234.375,2.546,2.546,0,0,0-.828.984V39H83.641V30.547ZM94.43,28.5v2.047h1.578v1.117H94.43v5.249a1.173,1.173,0,0,0,.211.763.888.888,0,0,0,.719.254,3.5,3.5,0,0,0,.688-.094V39a4.215,4.215,0,0,1-1.109.155,1.8,1.8,0,0,1-1.461-.586,2.517,2.517,0,0,1-.492-1.664V31.664H91.445V30.547h1.539V28.5ZM102.914,39a3.036,3.036,0,0,1-.2-.891,3.225,3.225,0,0,1-2.406,1.047,2.984,2.984,0,0,1-2.051-.707,2.288,2.288,0,0,1-.8-1.793,2.39,2.39,0,0,1,1-2.051,4.733,4.733,0,0,1,2.824-.73h1.406v-.664A1.623,1.623,0,0,0,102.234,32a1.821,1.821,0,0,0-1.336-.449,2.108,2.108,0,0,0-1.3.391,1.151,1.151,0,0,0-.523.945H97.625a2,2,0,0,1,.449-1.223,3.066,3.066,0,0,1,1.219-.934,4.1,4.1,0,0,1,1.691-.344,3.342,3.342,0,0,1,2.289.73,2.635,2.635,0,0,1,.859,2.012v3.891a4.757,4.757,0,0,0,.3,1.852V39Zm-2.4-1.1a2.54,2.54,0,0,0,1.289-.352,2.127,2.127,0,0,0,.883-.914V34.9h-1.133q-2.656,0-2.656,1.555a1.316,1.316,0,0,0,.453,1.063A1.742,1.742,0,0,0,100.516,37.9Zm7.242-7.352.039.938a3.122,3.122,0,0,1,2.508-1.094,2.417,2.417,0,0,1,2.414,1.359,3.2,3.2,0,0,1,1.1-.984,3.242,3.242,0,0,1,1.6-.375q2.781,0,2.828,2.945V39H116.8V33.422a1.941,1.941,0,0,0-.414-1.355,1.823,1.823,0,0,0-1.391-.449,1.916,1.916,0,0,0-1.336.48,1.949,1.949,0,0,0-.617,1.293V39h-1.453V33.461a1.613,1.613,0,0,0-1.8-1.844,1.934,1.934,0,0,0-1.945,1.211V39h-1.445V30.547ZM121.992,39h-1.445V30.547h1.445ZM120.43,28.3a.863.863,0,0,1,.215-.594.807.807,0,0,1,.637-.242.819.819,0,0,1,.641.242.854.854,0,0,1,.219.594.826.826,0,0,1-.219.586.834.834,0,0,1-.641.234.821.821,0,0,1-.637-.234A.834.834,0,0,1,120.43,28.3Zm5.242,2.242.047,1.063a3.08,3.08,0,0,1,2.531-1.219q2.68,0,2.7,3.023V39h-1.445V33.406a1.946,1.946,0,0,0-.418-1.352,1.675,1.675,0,0,0-1.277-.437,2.086,2.086,0,0,0-1.234.375,2.546,2.546,0,0,0-.828.984V39H124.3V30.547ZM138.352,39a3.036,3.036,0,0,1-.2-.891,3.225,3.225,0,0,1-2.406,1.047,2.984,2.984,0,0,1-2.051-.707,2.287,2.287,0,0,1-.8-1.793,2.39,2.39,0,0,1,1-2.051,4.733,4.733,0,0,1,2.824-.73h1.406v-.664A1.623,1.623,0,0,0,137.672,32a1.821,1.821,0,0,0-1.336-.449,2.107,2.107,0,0,0-1.3.391,1.151,1.151,0,0,0-.523.945h-1.453a2,2,0,0,1,.449-1.223,3.066,3.066,0,0,1,1.219-.934,4.1,4.1,0,0,1,1.691-.344,3.342,3.342,0,0,1,2.289.73,2.635,2.635,0,0,1,.859,2.012v3.891a4.757,4.757,0,0,0,.3,1.852V39Zm-2.4-1.1a2.54,2.54,0,0,0,1.289-.352,2.127,2.127,0,0,0,.883-.914V34.9h-1.133q-2.656,0-2.656,1.555a1.316,1.316,0,0,0,.453,1.063A1.742,1.742,0,0,0,135.953,37.9Zm7.25-7.352.047,1.063a3.08,3.08,0,0,1,2.531-1.219q2.68,0,2.7,3.023V39h-1.445V33.406a1.946,1.946,0,0,0-.418-1.352,1.675,1.675,0,0,0-1.277-.437,2.086,2.086,0,0,0-1.234.375,2.546,2.546,0,0,0-.828.984V39h-1.445V30.547Zm9.422-2.047v2.047H154.2v1.117h-1.578v5.249a1.173,1.173,0,0,0,.211.763.888.888,0,0,0,.719.254,3.5,3.5,0,0,0,.688-.094V39a4.215,4.215,0,0,1-1.109.155,1.8,1.8,0,0,1-1.461-.586,2.517,2.517,0,0,1-.492-1.664V31.664h-1.539V30.547h1.539V28.5ZM159.4,39.156a3.693,3.693,0,0,1-2.8-1.129,4.19,4.19,0,0,1-1.078-3.02v-.266A5.073,5.073,0,0,1,156,32.5a3.748,3.748,0,0,1,1.344-1.547,3.378,3.378,0,0,1,1.871-.559,3.166,3.166,0,0,1,2.563,1.086,4.7,4.7,0,0,1,.914,3.109v.6h-5.727a3,3,0,0,0,.73,2.02,2.3,2.3,0,0,0,1.777.77,2.517,2.517,0,0,0,1.3-.312,3.258,3.258,0,0,0,.93-.828l.883.688A3.55,3.55,0,0,1,159.4,39.156Zm-.18-7.578a1.928,1.928,0,0,0-1.469.637A3.1,3.1,0,0,0,157.016,34h4.234v-.109a2.753,2.753,0,0,0-.594-1.707A1.815,1.815,0,0,0,159.219,31.578Zm15.719,1.063h-6.516V31.383h6.516Zm0,3.242h-6.516v-1.25h6.516Zm6.648-2.586.578-5.672h5.828v1.336h-4.6l-.344,3.1a3.671,3.671,0,0,1,1.9-.492,3.138,3.138,0,0,1,2.469,1.027,4.026,4.026,0,0,1,.914,2.777,3.886,3.886,0,0,1-.949,2.77,3.46,3.46,0,0,1-2.652,1.012,3.6,3.6,0,0,1-2.461-.836,3.337,3.337,0,0,1-1.086-2.312h1.367a2.3,2.3,0,0,0,.7,1.473,2.162,2.162,0,0,0,1.484.5,1.95,1.95,0,0,0,1.582-.687,2.874,2.874,0,0,0,.574-1.9,2.638,2.638,0,0,0-.621-1.832,2.113,2.113,0,0,0-1.652-.691,2.383,2.383,0,0,0-1.484.414l-.383.313Zm13.07,5.7H193.2V29.367l-2.914,1.07V29.125l4.141-1.555h.227Zm11.367-4.852a6.61,6.61,0,0,1-.867,3.773,3.6,3.6,0,0,1-5.406.027,6.274,6.274,0,0,1-.906-3.605v-1.93a6.463,6.463,0,0,1,.867-3.727,3.668,3.668,0,0,1,5.422-.043,6.237,6.237,0,0,1,.891,3.629Zm-1.445-1.977a5.3,5.3,0,0,0-.516-2.676,1.775,1.775,0,0,0-1.633-.84,1.751,1.751,0,0,0-1.617.836,5.171,5.171,0,0,0-.523,2.57v2.313a5.381,5.381,0,0,0,.535,2.723,1.771,1.771,0,0,0,1.621.879,1.747,1.747,0,0,0,1.59-.828,5.186,5.186,0,0,0,.543-2.609Zm10.43,1.977a6.61,6.61,0,0,1-.867,3.773,3.6,3.6,0,0,1-5.406.027,6.274,6.274,0,0,1-.906-3.605v-1.93a6.463,6.463,0,0,1,.867-3.727,3.668,3.668,0,0,1,5.422-.043,6.237,6.237,0,0,1,.891,3.629Zm-1.445-1.977a5.3,5.3,0,0,0-.516-2.676,1.775,1.775,0,0,0-1.633-.84,1.751,1.751,0,0,0-1.617.836,5.171,5.171,0,0,0-.523,2.57v2.313a5.381,5.381,0,0,0,.535,2.723,1.771,1.771,0,0,0,1.621.879,1.747,1.747,0,0,0,1.59-.828,5.186,5.186,0,0,0,.543-2.609Zm8.766-1.625.039.938a3.122,3.122,0,0,1,2.508-1.094,2.417,2.417,0,0,1,2.414,1.359,3.2,3.2,0,0,1,1.1-.984,3.242,3.242,0,0,1,1.6-.375q2.781,0,2.828,2.945V39h-1.445V33.422a1.941,1.941,0,0,0-.414-1.355,1.823,1.823,0,0,0-1.391-.449,1.917,1.917,0,0,0-1.336.48,1.949,1.949,0,0,0-.617,1.293V39h-1.453V33.461a1.613,1.613,0,0,0-1.8-1.844,1.934,1.934,0,0,0-1.945,1.211V39h-1.445V30.547Zm12.32,4.156a4.968,4.968,0,0,1,.914-3.145,3.151,3.151,0,0,1,4.836-.074l.07-.937h1.32V38.8a3.439,3.439,0,0,1-.973,2.586,3.589,3.589,0,0,1-2.613.945,4.348,4.348,0,0,1-1.789-.391,3.08,3.08,0,0,1-1.336-1.07l.75-.867a2.826,2.826,0,0,0,2.273,1.148,2.214,2.214,0,0,0,1.645-.594,2.269,2.269,0,0,0,.59-1.672v-.727a2.971,2.971,0,0,1-2.367,1,2.887,2.887,0,0,1-2.4-1.2A5.224,5.224,0,0,1,234.648,34.7Zm1.453.164a3.79,3.79,0,0,0,.586,2.246,1.9,1.9,0,0,0,1.641.816,2.117,2.117,0,0,0,2.008-1.242V32.828a2.142,2.142,0,0,0-1.992-1.211,1.921,1.921,0,0,0-1.648.82A4.128,4.128,0,0,0,236.1,34.867Zm8.156,5.109h-1.242l4.75-12.352H249Zm11.227-3.219a1.064,1.064,0,0,0-.441-.91,4.249,4.249,0,0,0-1.539-.559,7.277,7.277,0,0,1-1.742-.562,2.479,2.479,0,0,1-.953-.781,1.869,1.869,0,0,1-.309-1.078,2.193,2.193,0,0,1,.879-1.758,3.432,3.432,0,0,1,2.246-.719,3.532,3.532,0,0,1,2.332.742,2.357,2.357,0,0,1,.895,1.9H255.4a1.3,1.3,0,0,0-.5-1.023,1.888,1.888,0,0,0-1.27-.43,1.976,1.976,0,0,0-1.234.344,1.082,1.082,0,0,0-.445.9.877.877,0,0,0,.414.789,5.1,5.1,0,0,0,1.5.508,7.8,7.8,0,0,1,1.754.578,2.559,2.559,0,0,1,1,.809,1.988,1.988,0,0,1,.324,1.152,2.163,2.163,0,0,1-.906,1.816,3.8,3.8,0,0,1-2.352.684,4.257,4.257,0,0,1-1.8-.359,2.922,2.922,0,0,1-1.223-1,2.42,2.42,0,0,1-.441-1.395h1.445a1.5,1.5,0,0,0,.582,1.152,2.258,2.258,0,0,0,1.434.426,2.331,2.331,0,0,0,1.316-.332A1.02,1.02,0,0,0,255.484,36.758Zm10.125-3.125,1.875-3.086h1.688l-2.766,4.18L269.258,39h-1.672l-1.953-3.164L263.68,39H262l2.852-4.273-2.766-4.18h1.672Zm11.008-1.023H277.7a2.387,2.387,0,0,0,1.609-.539,1.8,1.8,0,0,0,.586-1.414,1.764,1.764,0,0,0-1.992-2,2.072,2.072,0,0,0-1.5.535,1.873,1.873,0,0,0-.559,1.418h-1.445a2.9,2.9,0,0,1,.988-2.246,3.6,3.6,0,0,1,2.512-.895,3.558,3.558,0,0,1,2.523.852,3.076,3.076,0,0,1,.914,2.367,2.5,2.5,0,0,1-.48,1.438,2.9,2.9,0,0,1-1.309,1.039,2.8,2.8,0,0,1,1.449.984,2.734,2.734,0,0,1,.512,1.68,3.1,3.1,0,0,1-1,2.43,3.745,3.745,0,0,1-2.6.9,3.844,3.844,0,0,1-2.605-.867,2.877,2.877,0,0,1-1-2.289h1.453a1.859,1.859,0,0,0,.586,1.438,2.229,2.229,0,0,0,1.57.539,2.187,2.187,0,0,0,1.6-.547,2.108,2.108,0,0,0,.555-1.57,1.912,1.912,0,0,0-.609-1.523,2.655,2.655,0,0,0-1.758-.547h-1.086Zm14.016,1.539a6.61,6.61,0,0,1-.867,3.773,3.6,3.6,0,0,1-5.406.027,6.274,6.274,0,0,1-.906-3.605v-1.93a6.463,6.463,0,0,1,.867-3.727,3.668,3.668,0,0,1,5.422-.043,6.237,6.237,0,0,1,.891,3.629Zm-1.445-1.977a5.3,5.3,0,0,0-.516-2.676,1.775,1.775,0,0,0-1.633-.84,1.751,1.751,0,0,0-1.617.836,5.171,5.171,0,0,0-.523,2.57v2.313a5.381,5.381,0,0,0,.535,2.723,1.771,1.771,0,0,0,1.621.879,1.747,1.747,0,0,0,1.59-.828,5.186,5.186,0,0,0,.543-2.609Zm10.43,1.977a6.61,6.61,0,0,1-.867,3.773,3.6,3.6,0,0,1-5.406.027,6.274,6.274,0,0,1-.906-3.605v-1.93a6.463,6.463,0,0,1,.867-3.727,3.668,3.668,0,0,1,5.422-.043,6.237,6.237,0,0,1,.891,3.629Zm-1.445-1.977a5.3,5.3,0,0,0-.516-2.676,1.775,1.775,0,0,0-1.633-.84,1.751,1.751,0,0,0-1.617.836,5.171,5.171,0,0,0-.523,2.57v2.313a5.381,5.381,0,0,0,.535,2.723,1.771,1.771,0,0,0,1.621.879,1.747,1.747,0,0,0,1.59-.828,5.186,5.186,0,0,0,.543-2.609ZM310.5,36.758a1.064,1.064,0,0,0-.441-.91,4.249,4.249,0,0,0-1.539-.559,7.276,7.276,0,0,1-1.742-.562,2.478,2.478,0,0,1-.953-.781,1.869,1.869,0,0,1-.309-1.078,2.193,2.193,0,0,1,.879-1.758,3.432,3.432,0,0,1,2.246-.719,3.532,3.532,0,0,1,2.332.742,2.357,2.357,0,0,1,.895,1.9h-1.453a1.3,1.3,0,0,0-.5-1.023,1.888,1.888,0,0,0-1.27-.43,1.976,1.976,0,0,0-1.234.344,1.082,1.082,0,0,0-.445.9.877.877,0,0,0,.414.789,5.1,5.1,0,0,0,1.5.508,7.8,7.8,0,0,1,1.754.578,2.559,2.559,0,0,1,1,.809,1.988,1.988,0,0,1,.324,1.152,2.163,2.163,0,0,1-.906,1.816,3.8,3.8,0,0,1-2.352.684,4.257,4.257,0,0,1-1.8-.359,2.922,2.922,0,0,1-1.223-1,2.42,2.42,0,0,1-.441-1.395h1.445a1.5,1.5,0,0,0,.582,1.152,2.258,2.258,0,0,0,1.434.426A2.331,2.331,0,0,0,310,37.645,1.02,1.02,0,0,0,310.5,36.758ZM3.258,51.625l3.719,9.281L10.7,51.625h1.945V63h-1.5V58.57l.141-4.781L7.547,63H6.4L2.672,53.813,2.82,58.57V63H1.32V51.625ZM20.281,63a3.036,3.036,0,0,1-.2-.891,3.225,3.225,0,0,1-2.406,1.047,2.984,2.984,0,0,1-2.051-.707,2.287,2.287,0,0,1-.8-1.793,2.39,2.39,0,0,1,1-2.051,4.733,4.733,0,0,1,2.824-.73h1.406v-.664A1.623,1.623,0,0,0,19.6,56a1.821,1.821,0,0,0-1.336-.449,2.107,2.107,0,0,0-1.3.391,1.151,1.151,0,0,0-.523.945H14.992a2,2,0,0,1,.449-1.223,3.066,3.066,0,0,1,1.219-.934,4.1,4.1,0,0,1,1.691-.344,3.342,3.342,0,0,1,2.289.73,2.635,2.635,0,0,1,.859,2.012v3.891a4.757,4.757,0,0,0,.3,1.852V63Zm-2.4-1.1a2.54,2.54,0,0,0,1.289-.352,2.127,2.127,0,0,0,.883-.914V58.9H18.922q-2.656,0-2.656,1.555a1.316,1.316,0,0,0,.453,1.063A1.742,1.742,0,0,0,17.883,61.9Zm10.8-1.141a1.064,1.064,0,0,0-.441-.91,4.249,4.249,0,0,0-1.539-.559,7.277,7.277,0,0,1-1.742-.562,2.479,2.479,0,0,1-.953-.781,1.869,1.869,0,0,1-.309-1.078,2.193,2.193,0,0,1,.879-1.758,3.432,3.432,0,0,1,2.246-.719,3.532,3.532,0,0,1,2.332.742,2.357,2.357,0,0,1,.895,1.9H28.6a1.3,1.3,0,0,0-.5-1.023,1.888,1.888,0,0,0-1.27-.43,1.976,1.976,0,0,0-1.234.344,1.082,1.082,0,0,0-.445.9.877.877,0,0,0,.414.789,5.1,5.1,0,0,0,1.5.508,7.8,7.8,0,0,1,1.754.578,2.558,2.558,0,0,1,1,.809,1.988,1.988,0,0,1,.324,1.152,2.163,2.163,0,0,1-.906,1.816,3.8,3.8,0,0,1-2.352.684,4.257,4.257,0,0,1-1.8-.359,2.922,2.922,0,0,1-1.223-1,2.42,2.42,0,0,1-.441-1.395h1.445a1.5,1.5,0,0,0,.582,1.152,2.258,2.258,0,0,0,1.434.426,2.331,2.331,0,0,0,1.316-.332A1.02,1.02,0,0,0,28.688,60.758ZM37.234,63a3.036,3.036,0,0,1-.2-.891,3.225,3.225,0,0,1-2.406,1.047,2.984,2.984,0,0,1-2.051-.707,2.287,2.287,0,0,1-.8-1.793,2.39,2.39,0,0,1,1-2.051,4.733,4.733,0,0,1,2.824-.73h1.406v-.664A1.623,1.623,0,0,0,36.555,56a1.821,1.821,0,0,0-1.336-.449,2.107,2.107,0,0,0-1.3.391,1.151,1.151,0,0,0-.523.945H31.945a2,2,0,0,1,.449-1.223,3.066,3.066,0,0,1,1.219-.934,4.1,4.1,0,0,1,1.691-.344,3.342,3.342,0,0,1,2.289.73,2.635,2.635,0,0,1,.859,2.012v3.891a4.757,4.757,0,0,0,.3,1.852V63Zm-2.4-1.1a2.54,2.54,0,0,0,1.289-.352,2.127,2.127,0,0,0,.883-.914V58.9H35.875q-2.656,0-2.656,1.555a1.316,1.316,0,0,0,.453,1.063A1.742,1.742,0,0,0,34.836,61.9Zm9.492-3.2a4.952,4.952,0,0,1,.922-3.129,3.137,3.137,0,0,1,4.766-.168V51h1.445V63H50.133l-.07-.906a2.943,2.943,0,0,1-2.414,1.063,2.887,2.887,0,0,1-2.395-1.2,5.008,5.008,0,0,1-.926-3.141Zm1.445.164a3.749,3.749,0,0,0,.594,2.25,1.919,1.919,0,0,0,1.641.813A2.108,2.108,0,0,0,50.016,60.7V56.813a2.125,2.125,0,0,0-1.992-1.2,1.929,1.929,0,0,0-1.656.82A4.128,4.128,0,0,0,45.773,58.867Zm11.438,4.289a3.693,3.693,0,0,1-2.8-1.129,4.19,4.19,0,0,1-1.078-3.02v-.266a5.073,5.073,0,0,1,.48-2.246,3.748,3.748,0,0,1,1.344-1.547,3.378,3.378,0,0,1,1.871-.559,3.166,3.166,0,0,1,2.563,1.086,4.7,4.7,0,0,1,.914,3.109v.6H54.781a3,3,0,0,0,.73,2.02,2.3,2.3,0,0,0,1.777.77,2.517,2.517,0,0,0,1.3-.312,3.258,3.258,0,0,0,.93-.828l.883.688A3.55,3.55,0,0,1,57.211,63.156Zm-.18-7.578a1.928,1.928,0,0,0-1.469.637A3.1,3.1,0,0,0,54.828,58h4.234v-.109a2.753,2.753,0,0,0-.594-1.707A1.815,1.815,0,0,0,57.031,55.578Zm12.5,6.4a2.082,2.082,0,0,0,1.352-.469,1.649,1.649,0,0,0,.641-1.172h1.367a2.621,2.621,0,0,1-.5,1.383,3.293,3.293,0,0,1-1.23,1.047,3.55,3.55,0,0,1-1.629.391A3.482,3.482,0,0,1,66.785,62a4.59,4.59,0,0,1-1.02-3.152v-.242a5.089,5.089,0,0,1,.453-2.2,3.451,3.451,0,0,1,1.3-1.492,3.7,3.7,0,0,1,2-.531,3.39,3.39,0,0,1,2.363.852,3.043,3.043,0,0,1,1,2.211H71.523a1.992,1.992,0,0,0-.621-1.348,1.932,1.932,0,0,0-1.379-.527,2.023,2.023,0,0,0-1.707.793,3.724,3.724,0,0,0-.605,2.293v.273a3.65,3.65,0,0,0,.6,2.25A2.033,2.033,0,0,0,69.531,61.977Zm4.6-3.281a4.993,4.993,0,0,1,.488-2.234A3.643,3.643,0,0,1,75.98,54.93a3.7,3.7,0,0,1,1.988-.539,3.565,3.565,0,0,1,2.793,1.2,4.6,4.6,0,0,1,1.066,3.18v.1a5.036,5.036,0,0,1-.473,2.215A3.589,3.589,0,0,1,80,62.609a3.743,3.743,0,0,1-2.02.547,3.556,3.556,0,0,1-2.785-1.2A4.575,4.575,0,0,1,74.133,58.8Zm1.453.172a3.616,3.616,0,0,0,.652,2.258,2.211,2.211,0,0,0,3.5-.012,3.955,3.955,0,0,0,.648-2.418,3.61,3.61,0,0,0-.66-2.254,2.1,2.1,0,0,0-1.754-.863,2.075,2.075,0,0,0-1.727.852A3.925,3.925,0,0,0,75.586,58.867Zm9.422-4.32.047,1.063a3.08,3.08,0,0,1,2.531-1.219q2.68,0,2.7,3.023V63H88.844V57.406a1.946,1.946,0,0,0-.418-1.352,1.675,1.675,0,0,0-1.277-.437,2.086,2.086,0,0,0-1.234.375,2.546,2.546,0,0,0-.828.984V63H83.641V54.547ZM94.43,52.5v2.047h1.578v1.117H94.43v5.249a1.173,1.173,0,0,0,.211.763.888.888,0,0,0,.719.254,3.5,3.5,0,0,0,.688-.094V63a4.215,4.215,0,0,1-1.109.155,1.8,1.8,0,0,1-1.461-.586,2.517,2.517,0,0,1-.492-1.664V55.664H91.445V54.547h1.539V52.5ZM102.914,63a3.036,3.036,0,0,1-.2-.891,3.225,3.225,0,0,1-2.406,1.047,2.984,2.984,0,0,1-2.051-.707,2.288,2.288,0,0,1-.8-1.793,2.39,2.39,0,0,1,1-2.051,4.733,4.733,0,0,1,2.824-.73h1.406v-.664A1.623,1.623,0,0,0,102.234,56a1.821,1.821,0,0,0-1.336-.449,2.107,2.107,0,0,0-1.3.391,1.151,1.151,0,0,0-.523.945H97.625a2,2,0,0,1,.449-1.223,3.066,3.066,0,0,1,1.219-.934,4.1,4.1,0,0,1,1.691-.344,3.342,3.342,0,0,1,2.289.73,2.635,2.635,0,0,1,.859,2.012v3.891a4.757,4.757,0,0,0,.3,1.852V63Zm-2.4-1.1a2.54,2.54,0,0,0,1.289-.352,2.127,2.127,0,0,0,.883-.914V58.9h-1.133q-2.656,0-2.656,1.555a1.316,1.316,0,0,0,.453,1.063A1.742,1.742,0,0,0,100.516,61.9Zm7.242-7.352.039.938a3.122,3.122,0,0,1,2.508-1.094,2.417,2.417,0,0,1,2.414,1.359,3.2,3.2,0,0,1,1.1-.984,3.242,3.242,0,0,1,1.6-.375q2.781,0,2.828,2.945V63H116.8V57.422a1.941,1.941,0,0,0-.414-1.355,1.823,1.823,0,0,0-1.391-.449,1.916,1.916,0,0,0-1.336.48,1.949,1.949,0,0,0-.617,1.293V63h-1.453V57.461a1.613,1.613,0,0,0-1.8-1.844,1.934,1.934,0,0,0-1.945,1.211V63h-1.445V54.547ZM121.992,63h-1.445V54.547h1.445ZM120.43,52.3a.863.863,0,0,1,.215-.594.807.807,0,0,1,.637-.242.819.819,0,0,1,.641.242.854.854,0,0,1,.219.594.826.826,0,0,1-.219.586.834.834,0,0,1-.641.234.821.821,0,0,1-.637-.234A.834.834,0,0,1,120.43,52.3Zm5.242,2.242.047,1.063a3.08,3.08,0,0,1,2.531-1.219q2.68,0,2.7,3.023V63h-1.445V57.406a1.946,1.946,0,0,0-.418-1.352,1.675,1.675,0,0,0-1.277-.437,2.086,2.086,0,0,0-1.234.375,2.546,2.546,0,0,0-.828.984V63H124.3V54.547ZM138.352,63a3.036,3.036,0,0,1-.2-.891,3.225,3.225,0,0,1-2.406,1.047,2.984,2.984,0,0,1-2.051-.707,2.287,2.287,0,0,1-.8-1.793,2.39,2.39,0,0,1,1-2.051,4.733,4.733,0,0,1,2.824-.73h1.406v-.664A1.623,1.623,0,0,0,137.672,56a1.821,1.821,0,0,0-1.336-.449,2.107,2.107,0,0,0-1.3.391,1.151,1.151,0,0,0-.523.945h-1.453a2,2,0,0,1,.449-1.223,3.066,3.066,0,0,1,1.219-.934,4.1,4.1,0,0,1,1.691-.344,3.342,3.342,0,0,1,2.289.73,2.635,2.635,0,0,1,.859,2.012v3.891a4.757,4.757,0,0,0,.3,1.852V63Zm-2.4-1.1a2.54,2.54,0,0,0,1.289-.352,2.127,2.127,0,0,0,.883-.914V58.9h-1.133q-2.656,0-2.656,1.555a1.316,1.316,0,0,0,.453,1.063A1.742,1.742,0,0,0,135.953,61.9Zm7.25-7.352.047,1.063a3.08,3.08,0,0,1,2.531-1.219q2.68,0,2.7,3.023V63h-1.445V57.406a1.946,1.946,0,0,0-.418-1.352,1.675,1.675,0,0,0-1.277-.437,2.086,2.086,0,0,0-1.234.375,2.546,2.546,0,0,0-.828.984V63h-1.445V54.547Zm9.422-2.047v2.047H154.2v1.117h-1.578v5.249a1.173,1.173,0,0,0,.211.763.888.888,0,0,0,.719.254,3.5,3.5,0,0,0,.688-.094V63a4.215,4.215,0,0,1-1.109.155,1.8,1.8,0,0,1-1.461-.586,2.517,2.517,0,0,1-.492-1.664V55.664h-1.539V54.547h1.539V52.5ZM159.4,63.156a3.693,3.693,0,0,1-2.8-1.129,4.19,4.19,0,0,1-1.078-3.02v-.266A5.073,5.073,0,0,1,156,56.5a3.748,3.748,0,0,1,1.344-1.547,3.378,3.378,0,0,1,1.871-.559,3.166,3.166,0,0,1,2.563,1.086,4.7,4.7,0,0,1,.914,3.109v.6h-5.727a3,3,0,0,0,.73,2.02,2.3,2.3,0,0,0,1.777.77,2.517,2.517,0,0,0,1.3-.312,3.258,3.258,0,0,0,.93-.828l.883.688A3.55,3.55,0,0,1,159.4,63.156Zm-.18-7.578a1.928,1.928,0,0,0-1.469.637A3.1,3.1,0,0,0,157.016,58h4.234v-.109a2.753,2.753,0,0,0-.594-1.707A1.815,1.815,0,0,0,159.219,55.578Zm15.719,1.063h-6.516V55.383h6.516Zm0,3.242h-6.516v-1.25h6.516ZM185.672,63h-1.453V53.367l-2.914,1.07V53.125l4.141-1.555h.227Zm5.266-11.133-.164,2.875h-1.008L189.773,51h1.164Zm2.422,5.43.578-5.672h5.828v1.336h-4.6l-.344,3.1a3.671,3.671,0,0,1,1.9-.492,3.138,3.138,0,0,1,2.469,1.027,4.026,4.026,0,0,1,.914,2.777,3.886,3.886,0,0,1-.949,2.77,3.46,3.46,0,0,1-2.652,1.012,3.6,3.6,0,0,1-2.461-.836,3.337,3.337,0,0,1-1.086-2.312h1.367a2.3,2.3,0,0,0,.7,1.473,2.162,2.162,0,0,0,1.484.5,1.95,1.95,0,0,0,1.582-.687,2.874,2.874,0,0,0,.574-1.9,2.638,2.638,0,0,0-.621-1.832,2.113,2.113,0,0,0-1.652-.691,2.383,2.383,0,0,0-1.484.414l-.383.313Zm10.422-.687h1.086a2.387,2.387,0,0,0,1.609-.539,1.8,1.8,0,0,0,.586-1.414,1.764,1.764,0,0,0-1.992-2,2.072,2.072,0,0,0-1.5.535,1.873,1.873,0,0,0-.559,1.418H201.57a2.9,2.9,0,0,1,.988-2.246,3.6,3.6,0,0,1,2.512-.895,3.558,3.558,0,0,1,2.523.852,3.076,3.076,0,0,1,.914,2.367,2.5,2.5,0,0,1-.48,1.438,2.9,2.9,0,0,1-1.309,1.039,2.8,2.8,0,0,1,1.449.984,2.734,2.734,0,0,1,.512,1.68,3.1,3.1,0,0,1-1,2.43,3.745,3.745,0,0,1-2.6.9,3.844,3.844,0,0,1-2.605-.867,2.877,2.877,0,0,1-1-2.289h1.453a1.859,1.859,0,0,0,.586,1.438,2.229,2.229,0,0,0,1.57.539,2.187,2.187,0,0,0,1.6-.547,2.108,2.108,0,0,0,.555-1.57,1.912,1.912,0,0,0-.609-1.523,2.655,2.655,0,0,0-1.758-.547h-1.086ZM217.8,58.148a6.61,6.61,0,0,1-.867,3.773,3.6,3.6,0,0,1-5.406.027,6.274,6.274,0,0,1-.906-3.605v-1.93a6.463,6.463,0,0,1,.867-3.727,3.668,3.668,0,0,1,5.422-.043,6.237,6.237,0,0,1,.891,3.629Zm-1.445-1.977a5.3,5.3,0,0,0-.516-2.676,1.775,1.775,0,0,0-1.633-.84,1.751,1.751,0,0,0-1.617.836,5.171,5.171,0,0,0-.523,2.57v2.313A5.381,5.381,0,0,0,212.6,61.1a1.771,1.771,0,0,0,1.621.879,1.747,1.747,0,0,0,1.59-.828,5.186,5.186,0,0,0,.543-2.609Zm3.477,6.07a.905.905,0,0,1,.223-.625.848.848,0,0,1,.668-.25.874.874,0,0,1,.676.25.887.887,0,0,1,.23.625.839.839,0,0,1-.23.6.89.89,0,0,1-.676.242.8.8,0,0,1-.891-.844Zm11.164-4.094a6.61,6.61,0,0,1-.867,3.773,3.6,3.6,0,0,1-5.406.027,6.274,6.274,0,0,1-.906-3.605v-1.93a6.463,6.463,0,0,1,.867-3.727,3.668,3.668,0,0,1,5.422-.043,6.237,6.237,0,0,1,.891,3.629Zm-1.445-1.977a5.3,5.3,0,0,0-.516-2.676,1.775,1.775,0,0,0-1.633-.84,1.751,1.751,0,0,0-1.617.836,5.171,5.171,0,0,0-.523,2.57v2.313a5.381,5.381,0,0,0,.535,2.723,1.771,1.771,0,0,0,1.621.879,1.747,1.747,0,0,0,1.59-.828,5.186,5.186,0,0,0,.543-2.609Zm10.43,1.977a6.61,6.61,0,0,1-.867,3.773,3.6,3.6,0,0,1-5.406.027,6.274,6.274,0,0,1-.906-3.605v-1.93a6.463,6.463,0,0,1,.867-3.727,3.668,3.668,0,0,1,5.422-.043,6.237,6.237,0,0,1,.891,3.629Zm-1.445-1.977a5.3,5.3,0,0,0-.516-2.676,1.775,1.775,0,0,0-1.633-.84,1.751,1.751,0,0,0-1.617.836,5.171,5.171,0,0,0-.523,2.57v2.313a5.381,5.381,0,0,0,.535,2.723,1.771,1.771,0,0,0,1.621.879,1.747,1.747,0,0,0,1.59-.828,5.186,5.186,0,0,0,.543-2.609Zm10.43,1.977a6.61,6.61,0,0,1-.867,3.773,3.6,3.6,0,0,1-5.406.027,6.274,6.274,0,0,1-.906-3.605v-1.93a6.463,6.463,0,0,1,.867-3.727,3.668,3.668,0,0,1,5.422-.043,6.237,6.237,0,0,1,.891,3.629Zm-1.445-1.977A5.3,5.3,0,0,0,247,53.5a1.775,1.775,0,0,0-1.633-.84,1.751,1.751,0,0,0-1.617.836,5.171,5.171,0,0,0-.523,2.57v2.313a5.381,5.381,0,0,0,.535,2.723,1.771,1.771,0,0,0,1.621.879,1.747,1.747,0,0,0,1.59-.828,5.186,5.186,0,0,0,.543-2.609Zm8.766-1.625.039.938a3.122,3.122,0,0,1,2.508-1.094,2.417,2.417,0,0,1,2.414,1.359,3.2,3.2,0,0,1,1.1-.984,3.242,3.242,0,0,1,1.6-.375q2.781,0,2.828,2.945V63H265.32V57.422a1.941,1.941,0,0,0-.414-1.355,1.823,1.823,0,0,0-1.391-.449,1.916,1.916,0,0,0-1.336.48,1.949,1.949,0,0,0-.617,1.293V63h-1.453V57.461a1.613,1.613,0,0,0-1.8-1.844,1.934,1.934,0,0,0-1.945,1.211V63h-1.445V54.547ZM268.6,58.7a4.968,4.968,0,0,1,.914-3.145,3.151,3.151,0,0,1,4.836-.074l.07-.937h1.32V62.8a3.439,3.439,0,0,1-.973,2.586,3.589,3.589,0,0,1-2.613.945,4.348,4.348,0,0,1-1.789-.391,3.08,3.08,0,0,1-1.336-1.07l.75-.867a2.826,2.826,0,0,0,2.273,1.148,2.214,2.214,0,0,0,1.645-.594,2.269,2.269,0,0,0,.59-1.672v-.727a2.971,2.971,0,0,1-2.367,1,2.887,2.887,0,0,1-2.4-1.2A5.224,5.224,0,0,1,268.6,58.7Zm1.453.164a3.79,3.79,0,0,0,.586,2.246,1.9,1.9,0,0,0,1.641.816,2.117,2.117,0,0,0,2.008-1.242V56.828a2.142,2.142,0,0,0-1.992-1.211,1.921,1.921,0,0,0-1.648.82A4.128,4.128,0,0,0,270.055,58.867Z" transform="translate(520 33907)" fill="#12263f"/>
    <path id="Trazado_732657" data-name="Trazado 732657" d="M142.833,7.164H110.552a6.053,6.053,0,0,0-6.053,6.053v11.1h21.184a6.053,6.053,0,0,1,6.052,6.053v1.009h3.027L140.95,42.2a1.008,1.008,0,0,0,1.882-.5V31.375a6.053,6.053,0,0,0,6.053-6.053v-12.1a6.052,6.052,0,0,0-6.052-6.053Zm0,0" transform="translate(344.632 33905.844)" fill="#c2d197"/>
    <path id="Trazado_732658" data-name="Trazado 732658" d="M315.518,140.54a1.009,1.009,0,1,1-1.009-1.008A1.009,1.009,0,0,1,315.518,140.54Zm0,0" transform="translate(165.895 33792.645)" fill="#9cb16a"/>
    <path id="Trazado_732659" data-name="Trazado 732659" d="M343.385,140.54a1.009,1.009,0,1,1-1.008-1.008A1.009,1.009,0,0,1,343.385,140.54Zm0,0" transform="translate(142.063 33792.645)" fill="#9cb16a"/>
    <path id="Trazado_732660" data-name="Trazado 732660" d="M371.252,140.54a1.009,1.009,0,1,1-1.009-1.008A1.009,1.009,0,0,1,371.252,140.54Zm0,0" transform="translate(118.23 33792.645)" fill="#9cb16a"/>
    <path id="Trazado_732661" data-name="Trazado 732661" d="M138.05,62.911a1.009,1.009,0,0,0-1.426,0l-1.3,1.3-1.3-1.3a1.009,1.009,0,1,0-1.451,1.4l.024.025,1.3,1.3-1.3,1.3a1.009,1.009,0,0,0,1.4,1.451l.025-.025,1.3-1.3,1.3,1.3a1.009,1.009,0,0,0,1.426-1.427l-1.3-1.3,1.3-1.3a1,1,0,0,0,.017-1.421A.016.016,0,0,0,138.05,62.911Zm0,0" transform="translate(320.874 33858.434)" fill="#9cb16a"/>
    <path id="Trazado_732662" data-name="Trazado 732662" d="M198.763,46.88a1.008,1.008,0,0,0-1.009-1.009h-9.079a1.009,1.009,0,0,0-1,.865l-.552,3.864-.568-1.147a1.009,1.009,0,1,0-1.805.9l2.018,4.035a1.009,1.009,0,0,0,.9.558.965.965,0,0,0,.161-.014,1.008,1.008,0,0,0,.837-.854l.885-6.195h8.2A1.008,1.008,0,0,0,198.763,46.88Zm0,0" transform="translate(276.092 33872.742)" fill="#9cb16a"/>
    <path id="Trazado_732663" data-name="Trazado 732663" d="M230.751,70.212l-1.281,1.254-1.226-1.311a1.009,1.009,0,1,0-1.472,1.38l1.255,1.344-1.311,1.284a1.01,1.01,0,0,0,1.412,1.443l4.035-3.95a1.009,1.009,0,0,0-1.412-1.443Zm0,0" transform="translate(240.372 33852.246)" fill="#9cb16a"/>
    <path id="Trazado_732664" data-name="Trazado 732664" d="M280.228,68.787h-1.009V67.779a1.009,1.009,0,1,0-2.018,0v1.009h-1.009a1.009,1.009,0,0,0,0,2.018H277.2v1.009a1.009,1.009,0,0,0,2.018,0V70.8h1.009a1.009,1.009,0,1,0,0-2.018Zm0,0" transform="translate(198.662 33854.871)" fill="#9cb16a"/>
    <path id="Trazado_732665" data-name="Trazado 732665" d="M332.478,70.8h-1.6l2.313-2.313a1.009,1.009,0,0,0-.713-1.722h-4.035a1.009,1.009,0,1,0,0,2.018h1.6L327.73,71.1a1.009,1.009,0,0,0,.713,1.722h4.035a1.009,1.009,0,1,0,0-2.018Zm0,0" transform="translate(153.979 33854.871)" fill="#9cb16a"/>
    <path id="Trazado_732666" data-name="Trazado 732666" d="M126.693,114.543H104.5v1.6h21.184a6.053,6.053,0,0,1,6.053,6.053v1.009h1.008V120.6a6.052,6.052,0,0,0-6.053-6.052Zm0,0" transform="translate(344.631 33814.016)" fill="#9cb16a"/>
    <path id="Trazado_732667" data-name="Trazado 732667" d="M138.05,52.147a1.009,1.009,0,0,0-1.426,0l-1.3,1.3-1.3-1.3a1.009,1.009,0,0,0-1.427,1.426l1.3,1.3-1.3,1.3a1.009,1.009,0,0,0,1.4,1.451l.025-.025,1.3-1.3,1.3,1.3a1.009,1.009,0,1,0,1.451-1.4l-.025-.025-1.3-1.3,1.3-1.3A1.008,1.008,0,0,0,138.05,52.147Zm0,0" transform="translate(320.874 33867.629)" fill="#075057"/>
    <path id="Trazado_732668" data-name="Trazado 732668" d="M198.763,36.04a1.008,1.008,0,0,0-1.009-1.009h-9.079a1.009,1.009,0,0,0-1,.865l-.552,3.864-.568-1.146a1.009,1.009,0,1,0-1.805.9l2.018,4.035a1.009,1.009,0,0,0,.9.558,1.028,1.028,0,0,0,.161-.013,1.009,1.009,0,0,0,.838-.853l.885-6.2h8.2a1.008,1.008,0,0,0,1.008-1.009Zm0,0" transform="translate(276.092 33882.012)" fill="#075057"/>
    <path id="Trazado_732669" data-name="Trazado 732669" d="M230.751,59.263l-1.281,1.255-1.226-1.312a1.009,1.009,0,0,0-1.507,1.341l.036.038,1.255,1.344-1.311,1.284a1.009,1.009,0,1,0,1.412,1.442l4.035-3.95a1.009,1.009,0,0,0-1.412-1.442Zm0,0" transform="translate(240.372 33861.629)" fill="#075057"/>
    <path id="Trazado_732670" data-name="Trazado 732670" d="M280.228,57.947h-1.009V56.938a1.009,1.009,0,0,0-2.018,0v1.009h-1.009a1.009,1.009,0,0,0,0,2.018H277.2v1.009a1.009,1.009,0,0,0,2.018,0V59.965h1.009a1.009,1.009,0,1,0,0-2.018Zm0,0" transform="translate(198.662 33864.141)" fill="#075057"/>
    <path id="Trazado_732671" data-name="Trazado 732671" d="M332.478,59.965h-1.6l2.313-2.313a1.009,1.009,0,0,0-.713-1.722h-4.035a1.009,1.009,0,1,0,0,2.018h1.6l-2.313,2.313a1.009,1.009,0,0,0,.713,1.722h4.035a1.009,1.009,0,1,0,0-2.018Zm0,0" transform="translate(153.979 33864.141)" fill="#075057"/>
    <path id="Trazado_732672" data-name="Trazado 732672" d="M13.017,125.6H42.272a6.053,6.053,0,0,1,6.053,6.053v12.1a6.053,6.053,0,0,1-6.053,6.053H27.141l-12.4,12.4a1.009,1.009,0,0,1-1.723-.713V149.809a6.053,6.053,0,0,1-6.053-6.053v-12.1a6.053,6.053,0,0,1,6.053-6.053Zm0,0" transform="translate(428.044 33804.559)" fill="#ffa031"/>
    <g id="Grupo_1013892" data-name="Grupo 1013892" transform="translate(438.035 33933.184)">
      <path id="Trazado_732673" data-name="Trazado 732673" d="M33.92,204.248a1.009,1.009,0,0,0,0-2.018H28.876a1.008,1.008,0,0,0-1.009,1.009v8.07a1.009,1.009,0,0,0,1.009,1.009H33.92a1.009,1.009,0,0,0,0-2.018H29.885v-2.018h3.026a1.009,1.009,0,1,0,0-2.018H29.885v-2.018Zm0,0" transform="translate(-27.867 -194.16)" fill="#c66b00"/>
      <path id="Trazado_732674" data-name="Trazado 732674" d="M132.463,216.162a3.009,3.009,0,0,0-2.018.787,3.013,3.013,0,0,0-5.044,2.239v4.035a1.009,1.009,0,1,0,2.018,0v-4.035a1.009,1.009,0,0,1,2.018,0v4.035a1.009,1.009,0,1,0,2.018,0v-4.035a1.009,1.009,0,0,1,2.018,0v4.035a1.009,1.009,0,1,0,2.018,0v-4.035a3.027,3.027,0,0,0-3.027-3.026Zm0,0" transform="translate(-111.279 -206.074)" fill="#c66b00"/>
      <path id="Trazado_732675" data-name="Trazado 732675" d="M199.1,218.182h1.009a1.009,1.009,0,0,0,0-2.018H199.1a4.035,4.035,0,1,0,0,8.07h1.009a1.009,1.009,0,0,0,0-2.018H199.1a2.017,2.017,0,1,1,0-4.035Zm0,0" transform="translate(-170.856 -206.076)" fill="#c66b00"/>
      <path id="Trazado_732676" data-name="Trazado 732676" d="M227.978,153.558h-3.026a1.009,1.009,0,0,1,1.009-1.009,3.026,3.026,0,1,0-3.026-3.026,1.009,1.009,0,0,0,2.018,0,1.009,1.009,0,1,1,1.009,1.009,3.027,3.027,0,0,0-3.027,3.027v1.008a1.009,1.009,0,0,0,1.009,1.009h4.035a1.009,1.009,0,1,0,0-2.018Zm0,0" transform="translate(-194.688 -146.497)" fill="#c66b00"/>
      <path id="Trazado_732677" data-name="Trazado 732677" d="M86.628,223.129H84.61a1.009,1.009,0,0,0,0,2.018h2.018a1.009,1.009,0,1,0,0-2.018Zm0,0" transform="translate(-75.531 -212.033)" fill="#c66b00"/>
      <path id="Trazado_732678" data-name="Trazado 732678" d="M86.628,244.031H84.61a1.009,1.009,0,0,0,0,2.018h2.018a1.009,1.009,0,1,0,0-2.018Zm0,0" transform="translate(-75.531 -229.908)" fill="#c66b00"/>
      <path id="Trazado_732679" data-name="Trazado 732679" d="M57.752,161.438a1.009,1.009,0,1,1-1.009-1.009A1.009,1.009,0,0,1,57.752,161.438Zm0,0" transform="translate(-51.699 -158.412)" fill="#c66b00"/>
      <path id="Trazado_732680" data-name="Trazado 732680" d="M85.619,161.438a1.009,1.009,0,1,1-1.009-1.009A1.009,1.009,0,0,1,85.619,161.438Zm0,0" transform="translate(-75.531 -158.412)" fill="#c66b00"/>
      <path id="Trazado_732681" data-name="Trazado 732681" d="M113.483,161.438a1.009,1.009,0,1,1-1.009-1.009A1.009,1.009,0,0,1,113.483,161.438Zm0,0" transform="translate(-99.36 -158.412)" fill="#c66b00"/>
      <path id="Trazado_732682" data-name="Trazado 732682" d="M141.35,161.438a1.009,1.009,0,1,1-1.009-1.009A1.008,1.008,0,0,1,141.35,161.438Zm0,0" transform="translate(-123.192 -158.412)" fill="#c66b00"/>
      <path id="Trazado_732683" data-name="Trazado 732683" d="M169.217,161.438a1.009,1.009,0,1,1-1.008-1.009A1.008,1.008,0,0,1,169.217,161.438Zm0,0" transform="translate(-147.024 -158.412)" fill="#c66b00"/>
    </g>
    <path id="Trazado_732684" data-name="Trazado 732684" d="M33.92,197.279a1.009,1.009,0,0,0,0-2.018H28.876a1.009,1.009,0,0,0-1.009,1.009v8.07a1.008,1.008,0,0,0,1.009,1.009H33.92a1.009,1.009,0,0,0,0-2.018H29.885v-2.018h3.026a1.009,1.009,0,1,0,0-2.018H29.885v-2.018Zm0,0" transform="translate(410.168 33744.984)" fill="#9e0c09"/>
    <path id="Trazado_732685" data-name="Trazado 732685" d="M132.463,209.195a3.009,3.009,0,0,0-2.018.787,3.013,3.013,0,0,0-5.044,2.24v4.035a1.009,1.009,0,1,0,2.018,0v-4.035a1.009,1.009,0,1,1,2.018,0v4.035a1.009,1.009,0,1,0,2.018,0v-4.035a1.009,1.009,0,1,1,2.018,0v4.035a1.009,1.009,0,1,0,2.018,0v-4.035a3.027,3.027,0,0,0-3.027-3.027Zm0,0" transform="translate(326.756 33733.07)" fill="#9e0c09"/>
    <path id="Trazado_732686" data-name="Trazado 732686" d="M199.1,211.213h1.009a1.009,1.009,0,0,0,0-2.018H199.1a4.035,4.035,0,1,0,0,8.07h1.009a1.009,1.009,0,0,0,0-2.018H199.1a2.018,2.018,0,0,1,0-4.035Zm0,0" transform="translate(267.179 33733.066)" fill="#9e0c09"/>
    <path id="Trazado_732687" data-name="Trazado 732687" d="M227.978,146.589h-3.026a1.009,1.009,0,0,1,1.009-1.009,3.026,3.026,0,1,0-3.026-3.026,1.009,1.009,0,1,0,2.018,0,1.009,1.009,0,1,1,1.009,1.009,3.026,3.026,0,0,0-3.027,3.026V147.6a1.009,1.009,0,0,0,1.009,1.009h4.035a1.009,1.009,0,1,0,0-2.018Zm0,0" transform="translate(243.347 33792.648)" fill="#9e0c09"/>
    <path id="Trazado_732688" data-name="Trazado 732688" d="M86.628,216.164H84.61a1.009,1.009,0,0,0,0,2.018h2.018a1.009,1.009,0,1,0,0-2.018Zm0,0" transform="translate(362.504 33727.109)" fill="#9e0c09"/>
    <path id="Trazado_732689" data-name="Trazado 732689" d="M86.628,237.063H84.61a1.009,1.009,0,0,0,0,2.018h2.018a1.009,1.009,0,1,0,0-2.018Zm0,0" transform="translate(362.504 33709.234)" fill="#9e0c09"/>
    <path id="Trazado_732690" data-name="Trazado 732690" d="M315.518,133.571a1.009,1.009,0,1,1-1.009-1.009A1.008,1.008,0,0,1,315.518,133.571Zm0,0" transform="translate(165.895 33798.605)" fill="#075057"/>
    <path id="Trazado_732691" data-name="Trazado 732691" d="M343.385,133.571a1.009,1.009,0,1,1-1.008-1.009A1.008,1.008,0,0,1,343.385,133.571Zm0,0" transform="translate(142.063 33798.605)" fill="#075057"/>
    <path id="Trazado_732692" data-name="Trazado 732692" d="M371.252,133.571a1.009,1.009,0,1,1-1.009-1.009A1.009,1.009,0,0,1,371.252,133.571Zm0,0" transform="translate(118.23 33798.605)" fill="#075057"/>
    <path id="Trazado_732693" data-name="Trazado 732693" d="M57.752,154.474a1.009,1.009,0,1,1-1.009-1.009A1.009,1.009,0,0,1,57.752,154.474Zm0,0" transform="translate(386.336 33780.727)" fill="#9e0c09"/>
    <path id="Trazado_732694" data-name="Trazado 732694" d="M85.619,154.474a1.009,1.009,0,1,1-1.009-1.009A1.009,1.009,0,0,1,85.619,154.474Zm0,0" transform="translate(362.504 33780.727)" fill="#9e0c09"/>
    <path id="Trazado_732695" data-name="Trazado 732695" d="M113.483,154.474a1.009,1.009,0,1,1-1.009-1.009A1.009,1.009,0,0,1,113.483,154.474Zm0,0" transform="translate(338.676 33780.727)" fill="#9e0c09"/>
    <path id="Trazado_732696" data-name="Trazado 732696" d="M141.35,154.474a1.009,1.009,0,1,1-1.009-1.009A1.009,1.009,0,0,1,141.35,154.474Zm0,0" transform="translate(314.843 33780.727)" fill="#9e0c09"/>
    <path id="Trazado_732697" data-name="Trazado 732697" d="M169.217,154.474a1.009,1.009,0,1,1-1.008-1.009A1.009,1.009,0,0,1,169.217,154.474Zm0,0" transform="translate(291.011 33780.727)" fill="#9e0c09"/>
    <path id="Trazado_732698" data-name="Trazado 732698" d="M138.05,52.147a1.009,1.009,0,0,0-1.426,0l-1.3,1.3-1.3-1.3a1.009,1.009,0,0,0-1.427,1.426l1.3,1.3-1.3,1.3a1.009,1.009,0,0,0,1.4,1.451l.025-.025,1.3-1.3,1.3,1.3a1.009,1.009,0,1,0,1.451-1.4l-.025-.025-1.3-1.3,1.3-1.3A1.008,1.008,0,0,0,138.05,52.147Zm0,0" transform="translate(320.874 33867.629)"/>
    <path id="Trazado_732699" data-name="Trazado 732699" d="M198.749,36.04a1.008,1.008,0,0,0-1.009-1.009h-9.079a1.009,1.009,0,0,0-1,.865l-.552,3.864-.568-1.146a1.009,1.009,0,1,0-1.812.888l.007.014,2.017,4.035a1.01,1.01,0,0,0,.9.558,1.022,1.022,0,0,0,.161-.013,1.009,1.009,0,0,0,.838-.853l.885-6.2h8.2a1.008,1.008,0,0,0,1.009-1.009Zm0,0" transform="translate(276.106 33882.012)"/>
    <path id="Trazado_732700" data-name="Trazado 732700" d="M226.7,64.639a1.01,1.01,0,0,0,1.427.015l4.035-3.95a1.009,1.009,0,0,0-1.412-1.443l-1.281,1.255L228.247,59.2a1.009,1.009,0,1,0-1.507,1.341l.036.038,1.253,1.343-1.311,1.285a1.009,1.009,0,0,0-.015,1.427h0Zm0,0" transform="translate(240.37 33861.629)"/>
    <path id="Trazado_732701" data-name="Trazado 732701" d="M278.21,61.982a1.009,1.009,0,0,0,1.008-1.009V59.965h1.009a1.009,1.009,0,0,0,0-2.018h-1.009V56.938a1.009,1.009,0,0,0-2.018,0v1.009h-1.009a1.009,1.009,0,0,0,0,2.018H277.2v1.009A1.009,1.009,0,0,0,278.21,61.982Zm0,0" transform="translate(198.663 33864.141)"/>
    <path id="Trazado_732702" data-name="Trazado 732702" d="M333.486,60.974a1.009,1.009,0,0,0-1.009-1.009h-1.6l2.313-2.313a1.009,1.009,0,0,0-.713-1.722h-4.035a1.009,1.009,0,0,0,0,2.018h1.6l-2.313,2.313a1.009,1.009,0,0,0,.713,1.722h4.035A1.009,1.009,0,0,0,333.486,60.974Zm0,0" transform="translate(153.979 33864.141)"/>
    <path id="Trazado_732703" data-name="Trazado 732703" d="M59.518,18.357a1.009,1.009,0,0,0-1.009,1.009,5.05,5.05,0,0,1-5.044,5.044,1.009,1.009,0,0,0-1.009,1.009V35.742L46.27,24.915a1.009,1.009,0,0,0-.876-.5H43.377a7.069,7.069,0,0,0-7.061-7.061H16.14V7.261a5.05,5.05,0,0,1,5.044-5.044H53.465a5.05,5.05,0,0,1,5.044,5.044,1.009,1.009,0,0,0,2.018,0A7.069,7.069,0,0,0,53.465.2H21.184a7.07,7.07,0,0,0-7.062,7.061V17.349H7.061A7.069,7.069,0,0,0,0,24.41a1.009,1.009,0,0,0,2.018,0,5.05,5.05,0,0,1,5.044-5.044H36.316a5.05,5.05,0,0,1,5.044,5.044v12.1a5.05,5.05,0,0,1-5.044,5.044H21.184a1.009,1.009,0,0,0-.713.3l-12.4,12.4V42.568a1.009,1.009,0,0,0-1.009-1.009,5.049,5.049,0,0,1-5.044-5.044,1.009,1.009,0,0,0-2.018,0,7.073,7.073,0,0,0,6.053,6.99V56.691a1.01,1.01,0,0,0,.622.932,1,1,0,0,0,.387.076,1.009,1.009,0,0,0,.713-.3L21.6,43.577H36.316a7.069,7.069,0,0,0,7.061-7.061V26.428H44.81l7.78,13.619a1.007,1.007,0,0,0,.876.5,1.056,1.056,0,0,0,.259-.033,1.008,1.008,0,0,0,.749-.976V26.356a7.073,7.073,0,0,0,6.053-6.989,1.008,1.008,0,0,0-1.009-1.009Zm0,0" transform="translate(434 33911.801)"/>
    <path id="Trazado_732704" data-name="Trazado 732704" d="M27.867,196.27v8.07a1.009,1.009,0,0,0,1.009,1.009H33.92a1.009,1.009,0,0,0,0-2.018H29.885v-2.017h3.026a1.009,1.009,0,0,0,0-2.018H29.885v-2.018H33.92a1.009,1.009,0,0,0,0-2.018H28.876A1.009,1.009,0,0,0,27.867,196.27Zm0,0" transform="translate(410.168 33744.984)"/>
    <path id="Trazado_732705" data-name="Trazado 732705" d="M125.4,212.222v4.035a1.009,1.009,0,0,0,2.018,0v-4.035a1.009,1.009,0,1,1,2.018,0v4.035a1.009,1.009,0,0,0,2.018,0v-4.035a1.009,1.009,0,1,1,2.018,0v4.035a1.009,1.009,0,0,0,2.018,0v-4.035a3.013,3.013,0,0,0-5.044-2.239,3.013,3.013,0,0,0-5.044,2.239Zm0,0" transform="translate(326.756 33733.066)"/>
    <path id="Trazado_732706" data-name="Trazado 732706" d="M199.1,217.266h1.009a1.009,1.009,0,0,0,0-2.018H199.1a2.018,2.018,0,0,1,0-4.035h1.009a1.009,1.009,0,0,0,0-2.018H199.1a4.035,4.035,0,1,0,0,8.07Zm0,0" transform="translate(267.179 33733.066)"/>
    <path id="Trazado_732707" data-name="Trazado 732707" d="M225.96,143.566a3.026,3.026,0,0,0-3.026,3.026V147.6a1.008,1.008,0,0,0,1.009,1.008h4.035a1.009,1.009,0,1,0,0-2.018h-3.026a1.008,1.008,0,0,1,1.008-1.008,3.026,3.026,0,1,0-3.026-3.027,1.009,1.009,0,1,0,2.018,0,1.009,1.009,0,1,1,1.009,1.009Zm0,0" transform="translate(243.347 33792.645)"/>
    <path id="Trazado_732708" data-name="Trazado 732708" d="M84.61,218.182h2.018a1.009,1.009,0,1,0,0-2.018H84.61a1.009,1.009,0,0,0,0,2.018Zm0,0" transform="translate(362.504 33727.109)"/>
    <path id="Trazado_732709" data-name="Trazado 732709" d="M84.61,239.08h2.018a1.009,1.009,0,1,0,0-2.018H84.61a1.009,1.009,0,0,0,0,2.018Zm0,0" transform="translate(362.504 33709.234)"/>
    <path id="Trazado_732710" data-name="Trazado 732710" d="M315.518,126.607a1.009,1.009,0,1,1-1.009-1.009A1.009,1.009,0,0,1,315.518,126.607Zm0,0" transform="translate(165.895 33804.559)"/>
    <path id="Trazado_732711" data-name="Trazado 732711" d="M343.385,126.607a1.009,1.009,0,1,1-1.008-1.009A1.009,1.009,0,0,1,343.385,126.607Zm0,0" transform="translate(142.063 33804.559)"/>
    <path id="Trazado_732712" data-name="Trazado 732712" d="M371.252,126.607a1.009,1.009,0,1,1-1.009-1.009A1.009,1.009,0,0,1,371.252,126.607Zm0,0" transform="translate(118.23 33804.559)"/>
    <path id="Trazado_732713" data-name="Trazado 732713" d="M57.752,154.474a1.009,1.009,0,1,1-1.009-1.009A1.009,1.009,0,0,1,57.752,154.474Zm0,0" transform="translate(386.336 33780.727)"/>
    <path id="Trazado_732714" data-name="Trazado 732714" d="M85.619,154.474a1.009,1.009,0,1,1-1.009-1.009A1.009,1.009,0,0,1,85.619,154.474Zm0,0" transform="translate(362.504 33780.727)"/>
    <path id="Trazado_732715" data-name="Trazado 732715" d="M113.483,154.474a1.009,1.009,0,1,1-1.009-1.009A1.009,1.009,0,0,1,113.483,154.474Zm0,0" transform="translate(338.676 33780.727)"/>
    <path id="Trazado_732716" data-name="Trazado 732716" d="M141.35,154.474a1.009,1.009,0,1,1-1.009-1.009A1.009,1.009,0,0,1,141.35,154.474Zm0,0" transform="translate(314.843 33780.727)"/>
    <path id="Trazado_732717" data-name="Trazado 732717" d="M169.215,154.586a1.009,1.009,0,1,0-1.118.886,1.009,1.009,0,0,0,1.118-.886Zm0,0" transform="translate(291.007 33780.73)"/>
  </g>
</svg>
