<svg xmlns="http://www.w3.org/2000/svg" width="820" height="123" viewBox="0 0 820 123">
  <g id="Grupo_1016005" data-name="Grupo 1016005" transform="translate(-390 -33879)">
    <path id="Trazado_737971" data-name="Trazado 737971" d="M0,0H120V103H0Z" transform="translate(1090 33899)" fill="#3076b6"/>
    <path id="Trazado_737973" data-name="Trazado 737973" d="M0,0H130V103H0Z" transform="translate(390 33879)" fill="#3076b6"/>
    <path id="Trazado_733091" data-name="Trazado 733091" d="M0,0H799.764V103H0Z" transform="translate(400 33889)" fill="#dee4f0"/>
    <path id="Trazado_737972" data-name="Trazado 737972" d="M4.289,5.625l1.992,9.266L11.5,5.625h1.93L11.453,17H9.992l.781-4.5.93-4.578L6.547,17H5.422L3.391,7.742l-.7,4.906L1.93,17H.461L2.438,5.625ZM19.039,17a1.893,1.893,0,0,1-.055-.445l.023-.445a3.465,3.465,0,0,1-2.469,1.047,2.526,2.526,0,0,1-1.816-.707,2.14,2.14,0,0,1-.637-1.73,2.6,2.6,0,0,1,1.176-2.1,5.005,5.005,0,0,1,2.887-.754l1.477.008.094-.672a1.545,1.545,0,0,0-.293-1.2,1.414,1.414,0,0,0-1.113-.457,2.181,2.181,0,0,0-1.285.355,1.513,1.513,0,0,0-.684.98l-1.422.008A2.266,2.266,0,0,1,15.5,9.574a3.363,3.363,0,0,1,1.3-.891,4.215,4.215,0,0,1,1.648-.3,2.8,2.8,0,0,1,2.055.8,2.484,2.484,0,0,1,.617,2.043l-.687,4.188-.039.6a2.949,2.949,0,0,0,.094.852L20.477,17ZM16.82,15.906a2.466,2.466,0,0,0,1.285-.324,3.254,3.254,0,0,0,1.043-.941l.3-1.742-1.07-.008a4.054,4.054,0,0,0-2.047.422,1.554,1.554,0,0,0-.8,1.2,1.21,1.21,0,0,0,.277.988A1.321,1.321,0,0,0,16.82,15.906Zm10.8-1.2q.117-.875-.961-1.234l-1.469-.43q-1.859-.641-1.8-2.125a2.341,2.341,0,0,1,1.02-1.832,3.631,3.631,0,0,1,2.27-.7,3.027,3.027,0,0,1,2.082.746,2.363,2.363,0,0,1,.77,1.9l-1.406-.008a1.319,1.319,0,0,0-.4-1.031,1.576,1.576,0,0,0-1.1-.414,2.059,2.059,0,0,0-1.266.359,1.316,1.316,0,0,0-.57.922q-.1.734.9,1.07l.711.2a4.577,4.577,0,0,1,2.063.977,1.865,1.865,0,0,1,.563,1.492,2.37,2.37,0,0,1-.516,1.375,2.948,2.948,0,0,1-1.25.895,4.18,4.18,0,0,1-1.664.285,3.3,3.3,0,0,1-2.219-.785,2.427,2.427,0,0,1-.844-1.98l1.414.008a1.5,1.5,0,0,0,.453,1.141,1.732,1.732,0,0,0,1.242.43,2.436,2.436,0,0,0,1.336-.324A1.247,1.247,0,0,0,27.625,14.711ZM35.641,17a1.894,1.894,0,0,1-.055-.445l.023-.445a3.465,3.465,0,0,1-2.469,1.047,2.526,2.526,0,0,1-1.816-.707,2.14,2.14,0,0,1-.637-1.73,2.6,2.6,0,0,1,1.176-2.1,5.005,5.005,0,0,1,2.887-.754l1.477.008.094-.672a1.545,1.545,0,0,0-.293-1.2,1.414,1.414,0,0,0-1.113-.457,2.181,2.181,0,0,0-1.285.355,1.513,1.513,0,0,0-.684.98l-1.422.008A2.266,2.266,0,0,1,32.1,9.574a3.363,3.363,0,0,1,1.3-.891,4.215,4.215,0,0,1,1.648-.3,2.8,2.8,0,0,1,2.055.8,2.484,2.484,0,0,1,.617,2.043l-.687,4.188-.039.6a2.949,2.949,0,0,0,.094.852L37.078,17Zm-2.219-1.094a2.466,2.466,0,0,0,1.285-.324,3.254,3.254,0,0,0,1.043-.941l.3-1.742-1.07-.008a4.054,4.054,0,0,0-2.047.422,1.554,1.554,0,0,0-.8,1.2,1.21,1.21,0,0,0,.277.988A1.321,1.321,0,0,0,33.422,15.906Zm9.9-3.148a6.578,6.578,0,0,1,.711-2.328A4.03,4.03,0,0,1,45.4,8.875a3.127,3.127,0,0,1,1.789-.492,2.64,2.64,0,0,1,2.172,1.031L50.172,5h1.414L49.508,17H48.219l.148-.906A3.116,3.116,0,0,1,45.9,17.156a2.335,2.335,0,0,1-1.867-.918,4,4,0,0,1-.75-2.379A7.6,7.6,0,0,1,43.32,12.758Zm1.359.808a2.929,2.929,0,0,0,.4,1.732,1.437,1.437,0,0,0,1.234.632,2.554,2.554,0,0,0,2.18-1.233l.672-3.9a1.754,1.754,0,0,0-1.7-1.186,2.143,2.143,0,0,0-1.473.5,3.256,3.256,0,0,0-.969,1.475A6.082,6.082,0,0,0,44.68,13.565ZM55.4,17.156a3.048,3.048,0,0,1-2.469-1.164,4.006,4.006,0,0,1-.75-2.9l.039-.336a5.624,5.624,0,0,1,.746-2.3,4.339,4.339,0,0,1,1.5-1.566,3.491,3.491,0,0,1,1.906-.5,2.688,2.688,0,0,1,2.047.867,3.566,3.566,0,0,1,.813,2.266,6.621,6.621,0,0,1-.031,1.016l-.086.648H53.586a2.856,2.856,0,0,0,.379,1.953,1.8,1.8,0,0,0,1.551.836,3.007,3.007,0,0,0,2.313-1.125l.813.688a3.718,3.718,0,0,1-1.371,1.2A3.886,3.886,0,0,1,55.4,17.156Zm.9-7.586a2.066,2.066,0,0,0-1.527.594A4.22,4.22,0,0,0,53.734,12l4.109.008.031-.125a2.313,2.313,0,0,0-.316-1.637A1.488,1.488,0,0,0,56.3,9.57Zm11.234,6.414a2.145,2.145,0,0,0,1.367-.441,2.1,2.1,0,0,0,.8-1.2l1.336-.008a3.014,3.014,0,0,1-.637,1.453,3.68,3.68,0,0,1-2.926,1.367,3.017,3.017,0,0,1-1.785-.551,3.084,3.084,0,0,1-1.074-1.492,4.972,4.972,0,0,1-.234-2.152l.039-.391a5.605,5.605,0,0,1,.711-2.18,4.11,4.11,0,0,1,1.469-1.5,3.648,3.648,0,0,1,2-.5,2.857,2.857,0,0,1,2.125.891,3.08,3.08,0,0,1,.8,2.18l-1.32-.008a2.029,2.029,0,0,0-.461-1.34,1.607,1.607,0,0,0-1.2-.543,2.254,2.254,0,0,0-1.832.82,4.3,4.3,0,0,0-.91,2.359l-.023.2a6.776,6.776,0,0,0-.016,1.031,2.355,2.355,0,0,0,.516,1.445A1.656,1.656,0,0,0,67.531,15.984Zm9.328-7.594a3.047,3.047,0,0,1,1.82.578A3.285,3.285,0,0,1,79.8,10.52a4.8,4.8,0,0,1,.246,2.16l-.016.172a5.685,5.685,0,0,1-.734,2.23,4.309,4.309,0,0,1-1.516,1.551,3.7,3.7,0,0,1-2.039.523,3.052,3.052,0,0,1-1.816-.578,3.21,3.21,0,0,1-1.113-1.531,4.931,4.931,0,0,1-.25-2.133,5.76,5.76,0,0,1,.711-2.359A4.409,4.409,0,0,1,74.8,8.934,3.652,3.652,0,0,1,76.859,8.391Zm-2.875,4.531a4.8,4.8,0,0,0,0,1.023,2.507,2.507,0,0,0,.551,1.469,1.653,1.653,0,0,0,1.262.57,2.253,2.253,0,0,0,1.3-.348,2.919,2.919,0,0,0,1-1.121,4.721,4.721,0,0,0,.523-1.664,7.5,7.5,0,0,0,.023-1.211,2.6,2.6,0,0,0-.57-1.492A1.69,1.69,0,0,0,76.8,9.57a2.3,2.3,0,0,0-1.859.859A4.245,4.245,0,0,0,74,12.742ZM83.9,8.539l-.2,1.07a3.333,3.333,0,0,1,2.594-1.219,2.1,2.1,0,0,1,1.766.828,3.217,3.217,0,0,1,.422,2.242L87.555,17H86.141l.93-5.557a2.962,2.962,0,0,0,.008-.71,1.168,1.168,0,0,0-1.289-1.116,2.661,2.661,0,0,0-2.234,1.358L82.508,17H81.094l1.469-8.453ZM93.469,6.5l-.359,2.047h1.539l-.2,1.117H92.922l-.883,5.258a1.833,1.833,0,0,0-.008.375.6.6,0,0,0,.664.609,4.05,4.05,0,0,0,.688-.078l-.109,1.18a3.847,3.847,0,0,1-1.031.141,1.476,1.476,0,0,1-1.266-.621,2.4,2.4,0,0,1-.328-1.629l.859-5.234H90.016l.2-1.117H91.7L92.063,6.5ZM100.055,17a1.893,1.893,0,0,1-.055-.445l.023-.445a3.465,3.465,0,0,1-2.469,1.047,2.526,2.526,0,0,1-1.816-.707,2.14,2.14,0,0,1-.637-1.73,2.6,2.6,0,0,1,1.176-2.1,5.005,5.005,0,0,1,2.887-.754l1.477.008.094-.672a1.545,1.545,0,0,0-.293-1.2,1.414,1.414,0,0,0-1.113-.457,2.181,2.181,0,0,0-1.285.355,1.513,1.513,0,0,0-.684.98l-1.422.008a2.266,2.266,0,0,1,.578-1.316,3.363,3.363,0,0,1,1.3-.891,4.215,4.215,0,0,1,1.648-.3,2.8,2.8,0,0,1,2.055.8,2.484,2.484,0,0,1,.617,2.043l-.687,4.188-.039.6a2.949,2.949,0,0,0,.094.852l-.016.133Zm-2.219-1.094a2.466,2.466,0,0,0,1.285-.324,3.254,3.254,0,0,0,1.043-.941l.3-1.742-1.07-.008a4.054,4.054,0,0,0-2.047.422,1.554,1.554,0,0,0-.8,1.2,1.21,1.21,0,0,0,.277.988A1.321,1.321,0,0,0,97.836,15.906ZM106.2,8.539l-.18.945a3.305,3.305,0,0,1,2.57-1.094,2.608,2.608,0,0,1,1.363.367,1.8,1.8,0,0,1,.77.992,3.49,3.49,0,0,1,2.8-1.359,2.235,2.235,0,0,1,1.867.852,3.042,3.042,0,0,1,.445,2.2L114.906,17H113.5l.922-5.57a2.943,2.943,0,0,0,0-.742q-.148-1.062-1.391-1.086a2.136,2.136,0,0,0-1.4.48,2.222,2.222,0,0,0-.809,1.3L109.859,17h-1.422l.938-5.562a1.786,1.786,0,0,0-.262-1.336,1.377,1.377,0,0,0-1.129-.484,2.315,2.315,0,0,0-2.1,1.2L104.813,17H103.4l1.469-8.453ZM118.617,17h-1.406l1.469-8.453h1.406Zm1.164-11.539a.774.774,0,0,1,.6.215.8.8,0,0,1,.238.605.834.834,0,0,1-.836.852.779.779,0,0,1-.6-.211.764.764,0,0,1-.227-.594.886.886,0,0,1,.234-.609A.826.826,0,0,1,119.781,5.461Zm3.953,3.078-.2,1.07a3.333,3.333,0,0,1,2.594-1.219,2.1,2.1,0,0,1,1.766.828,3.217,3.217,0,0,1,.422,2.242L127.391,17h-1.414l.93-5.557a2.962,2.962,0,0,0,.008-.71,1.168,1.168,0,0,0-1.289-1.116,2.661,2.661,0,0,0-2.234,1.358L122.344,17H120.93L122.4,8.547ZM134.742,17a1.894,1.894,0,0,1-.055-.445l.023-.445a3.465,3.465,0,0,1-2.469,1.047,2.526,2.526,0,0,1-1.816-.707,2.14,2.14,0,0,1-.637-1.73,2.6,2.6,0,0,1,1.176-2.1,5.005,5.005,0,0,1,2.887-.754l1.477.008.094-.672a1.545,1.545,0,0,0-.293-1.2,1.414,1.414,0,0,0-1.113-.457,2.181,2.181,0,0,0-1.285.355,1.513,1.513,0,0,0-.684.98l-1.422.008a2.266,2.266,0,0,1,.578-1.316,3.363,3.363,0,0,1,1.3-.891,4.215,4.215,0,0,1,1.648-.3,2.8,2.8,0,0,1,2.055.8,2.484,2.484,0,0,1,.617,2.043l-.687,4.188-.039.6a2.949,2.949,0,0,0,.094.852L136.18,17Zm-2.219-1.094a2.466,2.466,0,0,0,1.285-.324,3.254,3.254,0,0,0,1.043-.941l.3-1.742-1.07-.008a4.054,4.054,0,0,0-2.047.422,1.554,1.554,0,0,0-.8,1.2,1.21,1.21,0,0,0,.277.988A1.321,1.321,0,0,0,132.523,15.906ZM140.9,8.539l-.2,1.07a3.333,3.333,0,0,1,2.594-1.219,2.1,2.1,0,0,1,1.766.828,3.217,3.217,0,0,1,.422,2.242L144.555,17h-1.414l.93-5.557a2.962,2.962,0,0,0,.008-.71,1.168,1.168,0,0,0-1.289-1.116,2.661,2.661,0,0,0-2.234,1.358L139.508,17h-1.414l1.469-8.453Zm9.57-2.039-.359,2.047h1.539l-.2,1.117h-1.531l-.883,5.258a1.833,1.833,0,0,0-.008.375.6.6,0,0,0,.664.609,4.05,4.05,0,0,0,.688-.078l-.109,1.18a3.847,3.847,0,0,1-1.031.141,1.476,1.476,0,0,1-1.266-.621,2.4,2.4,0,0,1-.328-1.629l.859-5.234h-1.492l.2-1.117H148.7l.359-2.047Zm5.07,10.656a3.048,3.048,0,0,1-2.469-1.164,4.006,4.006,0,0,1-.75-2.9l.039-.336a5.624,5.624,0,0,1,.746-2.3,4.339,4.339,0,0,1,1.5-1.566,3.491,3.491,0,0,1,1.906-.5,2.688,2.688,0,0,1,2.047.867,3.566,3.566,0,0,1,.813,2.266,6.621,6.621,0,0,1-.031,1.016l-.086.648h-5.523a2.855,2.855,0,0,0,.379,1.953,1.8,1.8,0,0,0,1.551.836,3.007,3.007,0,0,0,2.313-1.125l.813.688a3.718,3.718,0,0,1-1.371,1.2A3.886,3.886,0,0,1,155.539,17.156Zm.9-7.586a2.066,2.066,0,0,0-1.527.594A4.22,4.22,0,0,0,153.875,12l4.109.008.031-.125a2.313,2.313,0,0,0-.316-1.637A1.488,1.488,0,0,0,156.438,9.57Zm15.188,1.07H165.3l.219-1.258h6.336Zm-.562,3.242h-6.328l.219-1.25h6.336Zm14.445-.508a4.535,4.535,0,0,1-1.6,2.8,4.476,4.476,0,0,1-3.043.984,3.544,3.544,0,0,1-1.844-.52,3.283,3.283,0,0,1-1.227-1.43,5.34,5.34,0,0,1-.484-2.066,6.623,6.623,0,0,1,.055-1.25l.133-.937a7.076,7.076,0,0,1,1.8-4.043,4.544,4.544,0,0,1,3.488-1.441A3.4,3.4,0,0,1,185.328,6.5a4.117,4.117,0,0,1,.992,2.785h-1.461q-.1-2.391-1.875-2.578l-.258-.016a3.019,3.019,0,0,0-2.465,1.1,5.942,5.942,0,0,0-1.277,3.105l-.172,1.18-.047.688a3.867,3.867,0,0,0,.512,2.285,1.929,1.929,0,0,0,1.66.879,2.924,2.924,0,0,0,1.965-.57,3.8,3.8,0,0,0,1.184-1.961ZM191.969,17a1.894,1.894,0,0,1-.055-.445l.023-.445a3.465,3.465,0,0,1-2.469,1.047,2.526,2.526,0,0,1-1.816-.707,2.14,2.14,0,0,1-.637-1.73,2.6,2.6,0,0,1,1.176-2.1,5.005,5.005,0,0,1,2.887-.754l1.477.008.094-.672a1.545,1.545,0,0,0-.293-1.2,1.414,1.414,0,0,0-1.113-.457,2.181,2.181,0,0,0-1.285.355,1.513,1.513,0,0,0-.684.98l-1.422.008a2.266,2.266,0,0,1,.578-1.316,3.363,3.363,0,0,1,1.3-.891,4.215,4.215,0,0,1,1.648-.3,2.8,2.8,0,0,1,2.055.8,2.484,2.484,0,0,1,.617,2.043l-.687,4.188-.039.6a2.949,2.949,0,0,0,.094.852l-.016.133Zm-2.219-1.094a2.466,2.466,0,0,0,1.285-.324,3.254,3.254,0,0,0,1.043-.941l.3-1.742-1.07-.008a4.054,4.054,0,0,0-2.047.422,1.554,1.554,0,0,0-.8,1.2,1.21,1.21,0,0,0,.277.988A1.321,1.321,0,0,0,189.75,15.906Zm10.828-6.07-.664-.07a2.42,2.42,0,0,0-2.141,1.227L196.734,17H195.32l1.469-8.453,1.367-.008-.211.984a2.527,2.527,0,0,1,2.117-1.148,2.594,2.594,0,0,1,.672.117Zm.484,2.922a6.889,6.889,0,0,1,.746-2.4,3.9,3.9,0,0,1,1.359-1.508,3.151,3.151,0,0,1,1.754-.465,2.6,2.6,0,0,1,2.219,1.109l.281-.945h1.3l-1.406,8.273A4.113,4.113,0,0,1,206,19.41a3.7,3.7,0,0,1-2.68.926,3.8,3.8,0,0,1-1.645-.406,3.127,3.127,0,0,1-1.238-1.07l.8-.867a2.536,2.536,0,0,0,3.73.6,2.9,2.9,0,0,0,.926-1.687l.156-.75a3.2,3.2,0,0,1-2.414,1,2.486,2.486,0,0,1-1.371-.426,2.589,2.589,0,0,1-.9-1.164,4.759,4.759,0,0,1-.352-1.7A8.731,8.731,0,0,1,201.063,12.758Zm1.367.8a2.974,2.974,0,0,0,.387,1.728,1.461,1.461,0,0,0,1.238.644,2.561,2.561,0,0,0,2.18-1.241l.664-3.878a1.776,1.776,0,0,0-1.7-1.2,2.194,2.194,0,0,0-1.887.936,4.878,4.878,0,0,0-.871,2.614ZM214.609,17a1.894,1.894,0,0,1-.055-.445l.023-.445a3.465,3.465,0,0,1-2.469,1.047,2.526,2.526,0,0,1-1.816-.707,2.14,2.14,0,0,1-.637-1.73,2.6,2.6,0,0,1,1.176-2.1,5.005,5.005,0,0,1,2.887-.754l1.477.008.094-.672A1.545,1.545,0,0,0,215,10a1.414,1.414,0,0,0-1.113-.457A2.181,2.181,0,0,0,212.6,9.9a1.513,1.513,0,0,0-.684.98l-1.422.008a2.266,2.266,0,0,1,.578-1.316,3.363,3.363,0,0,1,1.3-.891,4.215,4.215,0,0,1,1.648-.3,2.8,2.8,0,0,1,2.055.8,2.484,2.484,0,0,1,.617,2.043l-.687,4.188-.039.6a2.949,2.949,0,0,0,.094.852l-.016.133Zm-2.219-1.094a2.466,2.466,0,0,0,1.285-.324,3.254,3.254,0,0,0,1.043-.941l.3-1.742-1.07-.008a4.054,4.054,0,0,0-2.047.422,1.554,1.554,0,0,0-.8,1.2,1.21,1.21,0,0,0,.277.988A1.321,1.321,0,0,0,212.391,15.906Zm13.063.078a2.145,2.145,0,0,0,1.367-.441,2.1,2.1,0,0,0,.8-1.2l1.336-.008a3.014,3.014,0,0,1-.637,1.453,3.68,3.68,0,0,1-2.926,1.367,3.017,3.017,0,0,1-1.785-.551,3.084,3.084,0,0,1-1.074-1.492,4.972,4.972,0,0,1-.234-2.152l.039-.391a5.605,5.605,0,0,1,.711-2.18,4.11,4.11,0,0,1,1.469-1.5,3.648,3.648,0,0,1,2-.5,2.857,2.857,0,0,1,2.125.891,3.08,3.08,0,0,1,.8,2.18l-1.32-.008a2.029,2.029,0,0,0-.461-1.34,1.607,1.607,0,0,0-1.2-.543,2.254,2.254,0,0,0-1.832.82,4.3,4.3,0,0,0-.91,2.359l-.023.2a6.777,6.777,0,0,0-.016,1.031,2.355,2.355,0,0,0,.516,1.445A1.656,1.656,0,0,0,225.453,15.984Zm9.328-7.594a3.047,3.047,0,0,1,1.82.578,3.285,3.285,0,0,1,1.121,1.551,4.8,4.8,0,0,1,.246,2.16l-.016.172a5.685,5.685,0,0,1-.734,2.23,4.309,4.309,0,0,1-1.516,1.551,3.7,3.7,0,0,1-2.039.523,3.052,3.052,0,0,1-1.816-.578,3.21,3.21,0,0,1-1.113-1.531,4.931,4.931,0,0,1-.25-2.133,5.76,5.76,0,0,1,.711-2.359,4.409,4.409,0,0,1,1.527-1.621A3.652,3.652,0,0,1,234.781,8.391Zm-2.875,4.531a4.8,4.8,0,0,0,0,1.023,2.507,2.507,0,0,0,.551,1.469,1.653,1.653,0,0,0,1.262.57,2.253,2.253,0,0,0,1.3-.348,2.919,2.919,0,0,0,1-1.121,4.721,4.721,0,0,0,.523-1.664,7.493,7.493,0,0,0,.023-1.211,2.6,2.6,0,0,0-.57-1.492,1.69,1.69,0,0,0-1.266-.578,2.3,2.3,0,0,0-1.859.859,4.245,4.245,0,0,0-.945,2.313Zm9.914-4.383-.2,1.07a3.333,3.333,0,0,1,2.594-1.219,2.1,2.1,0,0,1,1.766.828,3.217,3.217,0,0,1,.422,2.242L245.477,17h-1.414l.93-5.557a2.962,2.962,0,0,0,.008-.71,1.168,1.168,0,0,0-1.289-1.116,2.661,2.661,0,0,0-2.234,1.358L240.43,17h-1.414l1.469-8.453Zm9.57-2.039-.359,2.047h1.539l-.2,1.117h-1.531l-.883,5.258a1.833,1.833,0,0,0-.008.375.6.6,0,0,0,.664.609,4.05,4.05,0,0,0,.688-.078l-.109,1.18a3.847,3.847,0,0,1-1.031.141,1.476,1.476,0,0,1-1.266-.621,2.4,2.4,0,0,1-.328-1.629l.859-5.234h-1.492l.2-1.117h1.492l.359-2.047ZM257.977,17a1.893,1.893,0,0,1-.055-.445l.023-.445a3.465,3.465,0,0,1-2.469,1.047,2.526,2.526,0,0,1-1.816-.707,2.14,2.14,0,0,1-.637-1.73,2.6,2.6,0,0,1,1.176-2.1,5.005,5.005,0,0,1,2.887-.754l1.477.008.094-.672a1.545,1.545,0,0,0-.293-1.2,1.414,1.414,0,0,0-1.113-.457,2.181,2.181,0,0,0-1.285.355,1.513,1.513,0,0,0-.684.98l-1.422.008a2.266,2.266,0,0,1,.578-1.316,3.363,3.363,0,0,1,1.3-.891,4.215,4.215,0,0,1,1.648-.3,2.8,2.8,0,0,1,2.055.8,2.484,2.484,0,0,1,.617,2.043l-.687,4.188-.039.6a2.95,2.95,0,0,0,.094.852l-.016.133Zm-2.219-1.094a2.466,2.466,0,0,0,1.285-.324,3.254,3.254,0,0,0,1.043-.941l.3-1.742-1.07-.008a4.054,4.054,0,0,0-2.047.422,1.554,1.554,0,0,0-.8,1.2,1.21,1.21,0,0,0,.277.988A1.321,1.321,0,0,0,255.758,15.906Zm8.359-7.367-.18.945a3.305,3.305,0,0,1,2.57-1.094,2.608,2.608,0,0,1,1.363.367,1.8,1.8,0,0,1,.77.992,3.49,3.49,0,0,1,2.8-1.359,2.235,2.235,0,0,1,1.867.852,3.042,3.042,0,0,1,.445,2.2L272.828,17h-1.406l.922-5.57a2.943,2.943,0,0,0,0-.742Q272.2,9.625,270.953,9.6a2.136,2.136,0,0,0-1.4.48,2.222,2.222,0,0,0-.809,1.3L267.781,17h-1.422l.938-5.562a1.786,1.786,0,0,0-.262-1.336,1.377,1.377,0,0,0-1.129-.484,2.315,2.315,0,0,0-2.1,1.2L262.734,17H261.32l1.469-8.453ZM276.539,17h-1.406L276.6,8.547h1.406ZM277.7,5.461a.774.774,0,0,1,.6.215.8.8,0,0,1,.238.605.834.834,0,0,1-.836.852.779.779,0,0,1-.6-.211.764.764,0,0,1-.227-.594.886.886,0,0,1,.234-.609A.826.826,0,0,1,277.7,5.461Zm3.953,3.078-.2,1.07a3.333,3.333,0,0,1,2.594-1.219,2.1,2.1,0,0,1,1.766.828,3.217,3.217,0,0,1,.422,2.242L285.313,17H283.9l.93-5.557a2.963,2.963,0,0,0,.008-.71,1.168,1.168,0,0,0-1.289-1.116,2.661,2.661,0,0,0-2.234,1.358L280.266,17h-1.414l1.469-8.453ZM292.664,17a1.893,1.893,0,0,1-.055-.445l.023-.445a3.465,3.465,0,0,1-2.469,1.047,2.526,2.526,0,0,1-1.816-.707,2.14,2.14,0,0,1-.637-1.73,2.6,2.6,0,0,1,1.176-2.1,5.005,5.005,0,0,1,2.887-.754l1.477.008.094-.672a1.545,1.545,0,0,0-.293-1.2,1.414,1.414,0,0,0-1.113-.457,2.181,2.181,0,0,0-1.285.355,1.513,1.513,0,0,0-.684.98l-1.422.008a2.266,2.266,0,0,1,.578-1.316,3.363,3.363,0,0,1,1.3-.891,4.215,4.215,0,0,1,1.648-.3,2.8,2.8,0,0,1,2.055.8,2.484,2.484,0,0,1,.617,2.043l-.687,4.188-.039.6a2.95,2.95,0,0,0,.094.852L294.1,17Zm-2.219-1.094a2.466,2.466,0,0,0,1.285-.324,3.254,3.254,0,0,0,1.043-.941l.3-1.742-1.07-.008a4.054,4.054,0,0,0-2.047.422,1.554,1.554,0,0,0-.8,1.2,1.21,1.21,0,0,0,.277.988A1.321,1.321,0,0,0,290.445,15.906Zm8.375-7.367-.2,1.07a3.333,3.333,0,0,1,2.594-1.219,2.1,2.1,0,0,1,1.766.828,3.217,3.217,0,0,1,.422,2.242L302.477,17h-1.414l.93-5.557a2.963,2.963,0,0,0,.008-.71,1.168,1.168,0,0,0-1.289-1.116,2.661,2.661,0,0,0-2.234,1.358L297.43,17h-1.414l1.469-8.453Zm9.57-2.039-.359,2.047h1.539l-.2,1.117h-1.531l-.883,5.258a1.834,1.834,0,0,0-.008.375.6.6,0,0,0,.664.609,4.05,4.05,0,0,0,.688-.078l-.109,1.18a3.847,3.847,0,0,1-1.031.141,1.476,1.476,0,0,1-1.266-.621,2.4,2.4,0,0,1-.328-1.629l.859-5.234h-1.492l.2-1.117h1.492l.359-2.047Zm5.07,10.656a3.048,3.048,0,0,1-2.469-1.164,4.006,4.006,0,0,1-.75-2.9l.039-.336a5.624,5.624,0,0,1,.746-2.3,4.339,4.339,0,0,1,1.5-1.566,3.491,3.491,0,0,1,1.906-.5,2.688,2.688,0,0,1,2.047.867,3.566,3.566,0,0,1,.813,2.266,6.619,6.619,0,0,1-.031,1.016l-.086.648h-5.523a2.856,2.856,0,0,0,.379,1.953,1.8,1.8,0,0,0,1.551.836,3.007,3.007,0,0,0,2.313-1.125l.813.688a3.718,3.718,0,0,1-1.371,1.2A3.886,3.886,0,0,1,313.461,17.156Zm.9-7.586a2.066,2.066,0,0,0-1.527.594A4.22,4.22,0,0,0,311.8,12l4.109.008.031-.125a2.313,2.313,0,0,0-.316-1.637A1.488,1.488,0,0,0,314.359,9.57Zm11.3,2.055,2.3-3.078h1.734L326.3,12.8l2.063,4.2H326.82l-1.4-3.156L323.039,17h-1.727l3.492-4.344-2-4.109h1.547Zm11.8-5.125-.359,2.047h1.539l-.2,1.117h-1.531l-.883,5.258a1.834,1.834,0,0,0-.008.375.6.6,0,0,0,.664.609,4.05,4.05,0,0,0,.688-.078l-.109,1.18a3.847,3.847,0,0,1-1.031.141,1.476,1.476,0,0,1-1.266-.621,2.4,2.4,0,0,1-.328-1.629l.859-5.234H334l.2-1.117h1.492l.359-2.047ZM340.4,17h-1.406l1.469-8.453h1.406Zm1.164-11.539a.774.774,0,0,1,.6.215.8.8,0,0,1,.238.605.834.834,0,0,1-.836.852.779.779,0,0,1-.6-.211.764.764,0,0,1-.227-.594.886.886,0,0,1,.234-.609A.826.826,0,0,1,341.563,5.461Zm4.8,11.7a3.048,3.048,0,0,1-2.469-1.164,4.006,4.006,0,0,1-.75-2.9l.039-.336a5.624,5.624,0,0,1,.746-2.3,4.339,4.339,0,0,1,1.5-1.566,3.491,3.491,0,0,1,1.906-.5,2.688,2.688,0,0,1,2.047.867,3.566,3.566,0,0,1,.813,2.266,6.619,6.619,0,0,1-.031,1.016l-.086.648h-5.523a2.856,2.856,0,0,0,.379,1.953,1.8,1.8,0,0,0,1.551.836,3.007,3.007,0,0,0,2.313-1.125l.813.688a3.718,3.718,0,0,1-1.371,1.2A3.886,3.886,0,0,1,346.367,17.156Zm.9-7.586a2.066,2.066,0,0,0-1.527.594A4.22,4.22,0,0,0,344.7,12l4.109.008.031-.125a2.313,2.313,0,0,0-.316-1.637A1.488,1.488,0,0,0,347.266,9.57ZM353.8,8.539l-.18.945a3.305,3.305,0,0,1,2.57-1.094,2.608,2.608,0,0,1,1.363.367,1.8,1.8,0,0,1,.77.992,3.49,3.49,0,0,1,2.8-1.359,2.235,2.235,0,0,1,1.867.852,3.042,3.042,0,0,1,.445,2.2L362.508,17H361.1l.922-5.57a2.943,2.943,0,0,0,0-.742q-.148-1.062-1.391-1.086a2.136,2.136,0,0,0-1.4.48,2.222,2.222,0,0,0-.809,1.3L357.461,17h-1.422l.938-5.562a1.786,1.786,0,0,0-.262-1.336,1.377,1.377,0,0,0-1.129-.484,2.315,2.315,0,0,0-2.1,1.2L352.414,17H351l1.469-8.453Zm18.547,4.273a6.706,6.706,0,0,1-.7,2.32,3.949,3.949,0,0,1-1.336,1.543,3.058,3.058,0,0,1-1.766.488,2.815,2.815,0,0,1-2.25-.992l-.758,4.078h-1.414l2.031-11.7,1.281-.008-.156.945a3.207,3.207,0,0,1,2.508-1.094,2.358,2.358,0,0,1,1.9.9,3.954,3.954,0,0,1,.719,2.391,8.41,8.41,0,0,1-.039.969Zm-1.391-.16.039-.655a2.969,2.969,0,0,0-.434-1.744,1.525,1.525,0,0,0-1.254-.636,2.508,2.508,0,0,0-2.117,1.163l-.711,4.05a1.769,1.769,0,0,0,1.711,1.155,2.224,2.224,0,0,0,1.793-.823A4.777,4.777,0,0,0,370.953,12.652Zm7.219-4.262a3.047,3.047,0,0,1,1.82.578,3.285,3.285,0,0,1,1.121,1.551,4.8,4.8,0,0,1,.246,2.16l-.016.172a5.685,5.685,0,0,1-.734,2.23,4.309,4.309,0,0,1-1.516,1.551,3.7,3.7,0,0,1-2.039.523,3.052,3.052,0,0,1-1.816-.578,3.21,3.21,0,0,1-1.113-1.531,4.931,4.931,0,0,1-.25-2.133,5.76,5.76,0,0,1,.711-2.359,4.409,4.409,0,0,1,1.527-1.621A3.652,3.652,0,0,1,378.172,8.391ZM375.3,12.922a4.8,4.8,0,0,0,0,1.023,2.507,2.507,0,0,0,.551,1.469,1.653,1.653,0,0,0,1.262.57,2.253,2.253,0,0,0,1.3-.348,2.919,2.919,0,0,0,1-1.121,4.721,4.721,0,0,0,.523-1.664,7.5,7.5,0,0,0,.023-1.211,2.6,2.6,0,0,0-.57-1.492,1.69,1.69,0,0,0-1.266-.578,2.3,2.3,0,0,0-1.859.859,4.245,4.245,0,0,0-.945,2.313ZM4.289,29.625l1.992,9.266L11.5,29.625h1.93L11.453,41H9.992l.781-4.5.93-4.578L6.547,41H5.422L3.391,31.742l-.7,4.906L1.93,41H.461L2.438,29.625ZM19.039,41a1.894,1.894,0,0,1-.055-.445l.023-.445a3.465,3.465,0,0,1-2.469,1.047,2.526,2.526,0,0,1-1.816-.707,2.14,2.14,0,0,1-.637-1.73,2.6,2.6,0,0,1,1.176-2.1,5.005,5.005,0,0,1,2.887-.754l1.477.008.094-.672a1.545,1.545,0,0,0-.293-1.2,1.414,1.414,0,0,0-1.113-.457,2.181,2.181,0,0,0-1.285.355,1.513,1.513,0,0,0-.684.98l-1.422.008a2.266,2.266,0,0,1,.578-1.316,3.363,3.363,0,0,1,1.3-.891,4.215,4.215,0,0,1,1.648-.3,2.8,2.8,0,0,1,2.055.8,2.484,2.484,0,0,1,.617,2.043l-.687,4.188-.039.6a2.949,2.949,0,0,0,.094.852L20.477,41ZM16.82,39.906a2.466,2.466,0,0,0,1.285-.324,3.254,3.254,0,0,0,1.043-.941l.3-1.742-1.07-.008a4.054,4.054,0,0,0-2.047.422,1.554,1.554,0,0,0-.8,1.2,1.21,1.21,0,0,0,.277.988A1.321,1.321,0,0,0,16.82,39.906Zm10.8-1.2q.117-.875-.961-1.234l-1.469-.43q-1.859-.641-1.8-2.125a2.341,2.341,0,0,1,1.02-1.832,3.631,3.631,0,0,1,2.27-.7,3.027,3.027,0,0,1,2.082.746,2.363,2.363,0,0,1,.77,1.9l-1.406-.008a1.319,1.319,0,0,0-.4-1.031,1.576,1.576,0,0,0-1.1-.414,2.059,2.059,0,0,0-1.266.359,1.316,1.316,0,0,0-.57.922q-.1.734.9,1.07l.711.2a4.577,4.577,0,0,1,2.063.977,1.865,1.865,0,0,1,.563,1.492,2.37,2.37,0,0,1-.516,1.375,2.948,2.948,0,0,1-1.25.895,4.18,4.18,0,0,1-1.664.285,3.3,3.3,0,0,1-2.219-.785,2.427,2.427,0,0,1-.844-1.98l1.414.008a1.5,1.5,0,0,0,.453,1.141,1.732,1.732,0,0,0,1.242.43,2.436,2.436,0,0,0,1.336-.324A1.247,1.247,0,0,0,27.625,38.711ZM35.641,41a1.894,1.894,0,0,1-.055-.445l.023-.445a3.465,3.465,0,0,1-2.469,1.047,2.526,2.526,0,0,1-1.816-.707,2.14,2.14,0,0,1-.637-1.73,2.6,2.6,0,0,1,1.176-2.1,5.005,5.005,0,0,1,2.887-.754l1.477.008.094-.672a1.545,1.545,0,0,0-.293-1.2,1.414,1.414,0,0,0-1.113-.457,2.181,2.181,0,0,0-1.285.355,1.513,1.513,0,0,0-.684.98l-1.422.008a2.266,2.266,0,0,1,.578-1.316,3.363,3.363,0,0,1,1.3-.891,4.215,4.215,0,0,1,1.648-.3,2.8,2.8,0,0,1,2.055.8,2.484,2.484,0,0,1,.617,2.043l-.687,4.188-.039.6a2.949,2.949,0,0,0,.094.852L37.078,41Zm-2.219-1.094a2.466,2.466,0,0,0,1.285-.324,3.254,3.254,0,0,0,1.043-.941l.3-1.742-1.07-.008a4.054,4.054,0,0,0-2.047.422,1.554,1.554,0,0,0-.8,1.2,1.21,1.21,0,0,0,.277.988A1.321,1.321,0,0,0,33.422,39.906Zm9.9-3.148a6.578,6.578,0,0,1,.711-2.328A4.03,4.03,0,0,1,45.4,32.875a3.127,3.127,0,0,1,1.789-.492,2.64,2.64,0,0,1,2.172,1.031L50.172,29h1.414L49.508,41H48.219l.148-.906A3.116,3.116,0,0,1,45.9,41.156a2.335,2.335,0,0,1-1.867-.918,4,4,0,0,1-.75-2.379A7.6,7.6,0,0,1,43.32,36.758Zm1.359.808a2.929,2.929,0,0,0,.4,1.732,1.437,1.437,0,0,0,1.234.632,2.554,2.554,0,0,0,2.18-1.233l.672-3.9a1.754,1.754,0,0,0-1.7-1.186,2.143,2.143,0,0,0-1.473.5,3.256,3.256,0,0,0-.969,1.475A6.082,6.082,0,0,0,44.68,37.565ZM55.4,41.156a3.048,3.048,0,0,1-2.469-1.164,4.006,4.006,0,0,1-.75-2.9l.039-.336a5.624,5.624,0,0,1,.746-2.3,4.339,4.339,0,0,1,1.5-1.566,3.491,3.491,0,0,1,1.906-.5,2.688,2.688,0,0,1,2.047.867,3.566,3.566,0,0,1,.813,2.266,6.621,6.621,0,0,1-.031,1.016l-.086.648H53.586a2.856,2.856,0,0,0,.379,1.953,1.8,1.8,0,0,0,1.551.836,3.007,3.007,0,0,0,2.313-1.125l.813.688a3.718,3.718,0,0,1-1.371,1.2A3.886,3.886,0,0,1,55.4,41.156Zm.9-7.586a2.066,2.066,0,0,0-1.527.594A4.22,4.22,0,0,0,53.734,36l4.109.008.031-.125a2.313,2.313,0,0,0-.316-1.637A1.488,1.488,0,0,0,56.3,33.57Zm11.234,6.414a2.145,2.145,0,0,0,1.367-.441,2.1,2.1,0,0,0,.8-1.2l1.336-.008a3.014,3.014,0,0,1-.637,1.453,3.68,3.68,0,0,1-2.926,1.367,3.017,3.017,0,0,1-1.785-.551,3.084,3.084,0,0,1-1.074-1.492,4.972,4.972,0,0,1-.234-2.152l.039-.391a5.605,5.605,0,0,1,.711-2.18,4.11,4.11,0,0,1,1.469-1.5,3.648,3.648,0,0,1,2-.5,2.857,2.857,0,0,1,2.125.891,3.08,3.08,0,0,1,.8,2.18l-1.32-.008a2.029,2.029,0,0,0-.461-1.34,1.607,1.607,0,0,0-1.2-.543,2.254,2.254,0,0,0-1.832.82,4.3,4.3,0,0,0-.91,2.359l-.023.2a6.776,6.776,0,0,0-.016,1.031,2.355,2.355,0,0,0,.516,1.445A1.656,1.656,0,0,0,67.531,39.984Zm9.328-7.594a3.047,3.047,0,0,1,1.82.578A3.285,3.285,0,0,1,79.8,34.52a4.8,4.8,0,0,1,.246,2.16l-.016.172a5.685,5.685,0,0,1-.734,2.23,4.309,4.309,0,0,1-1.516,1.551,3.7,3.7,0,0,1-2.039.523,3.052,3.052,0,0,1-1.816-.578,3.21,3.21,0,0,1-1.113-1.531,4.931,4.931,0,0,1-.25-2.133,5.76,5.76,0,0,1,.711-2.359A4.409,4.409,0,0,1,74.8,32.934,3.652,3.652,0,0,1,76.859,32.391Zm-2.875,4.531a4.8,4.8,0,0,0,0,1.023,2.507,2.507,0,0,0,.551,1.469,1.653,1.653,0,0,0,1.262.57,2.253,2.253,0,0,0,1.3-.348,2.919,2.919,0,0,0,1-1.121,4.721,4.721,0,0,0,.523-1.664,7.5,7.5,0,0,0,.023-1.211,2.6,2.6,0,0,0-.57-1.492A1.69,1.69,0,0,0,76.8,33.57a2.3,2.3,0,0,0-1.859.859A4.245,4.245,0,0,0,74,36.742ZM83.9,32.539l-.2,1.07a3.333,3.333,0,0,1,2.594-1.219,2.1,2.1,0,0,1,1.766.828,3.217,3.217,0,0,1,.422,2.242L87.555,41H86.141l.93-5.557a2.962,2.962,0,0,0,.008-.71,1.168,1.168,0,0,0-1.289-1.116,2.661,2.661,0,0,0-2.234,1.358L82.508,41H81.094l1.469-8.453Zm9.57-2.039-.359,2.047h1.539l-.2,1.117H92.922l-.883,5.258a1.833,1.833,0,0,0-.008.375.6.6,0,0,0,.664.609,4.05,4.05,0,0,0,.688-.078l-.109,1.18a3.847,3.847,0,0,1-1.031.141,1.476,1.476,0,0,1-1.266-.621,2.4,2.4,0,0,1-.328-1.629l.859-5.234H90.016l.2-1.117H91.7l.359-2.047ZM100.055,41a1.893,1.893,0,0,1-.055-.445l.023-.445a3.465,3.465,0,0,1-2.469,1.047,2.526,2.526,0,0,1-1.816-.707,2.14,2.14,0,0,1-.637-1.73,2.6,2.6,0,0,1,1.176-2.1,5.005,5.005,0,0,1,2.887-.754l1.477.008.094-.672a1.545,1.545,0,0,0-.293-1.2,1.414,1.414,0,0,0-1.113-.457,2.181,2.181,0,0,0-1.285.355,1.513,1.513,0,0,0-.684.98l-1.422.008a2.266,2.266,0,0,1,.578-1.316,3.363,3.363,0,0,1,1.3-.891,4.215,4.215,0,0,1,1.648-.3,2.8,2.8,0,0,1,2.055.8,2.484,2.484,0,0,1,.617,2.043l-.687,4.188-.039.6a2.949,2.949,0,0,0,.094.852l-.016.133Zm-2.219-1.094a2.466,2.466,0,0,0,1.285-.324,3.254,3.254,0,0,0,1.043-.941l.3-1.742-1.07-.008a4.054,4.054,0,0,0-2.047.422,1.554,1.554,0,0,0-.8,1.2,1.21,1.21,0,0,0,.277.988A1.321,1.321,0,0,0,97.836,39.906Zm8.359-7.367-.18.945a3.305,3.305,0,0,1,2.57-1.094,2.608,2.608,0,0,1,1.363.367,1.8,1.8,0,0,1,.77.992,3.49,3.49,0,0,1,2.8-1.359,2.235,2.235,0,0,1,1.867.852,3.042,3.042,0,0,1,.445,2.2L114.906,41H113.5l.922-5.57a2.943,2.943,0,0,0,0-.742q-.148-1.062-1.391-1.086a2.136,2.136,0,0,0-1.4.48,2.222,2.222,0,0,0-.809,1.3L109.859,41h-1.422l.938-5.562a1.786,1.786,0,0,0-.262-1.336,1.377,1.377,0,0,0-1.129-.484,2.315,2.315,0,0,0-2.1,1.2L104.813,41H103.4l1.469-8.453ZM118.617,41h-1.406l1.469-8.453h1.406Zm1.164-11.539a.774.774,0,0,1,.6.215.8.8,0,0,1,.238.605.834.834,0,0,1-.836.852.779.779,0,0,1-.6-.211.764.764,0,0,1-.227-.594.886.886,0,0,1,.234-.609A.826.826,0,0,1,119.781,29.461Zm3.953,3.078-.2,1.07a3.333,3.333,0,0,1,2.594-1.219,2.1,2.1,0,0,1,1.766.828,3.217,3.217,0,0,1,.422,2.242L127.391,41h-1.414l.93-5.557a2.962,2.962,0,0,0,.008-.71,1.168,1.168,0,0,0-1.289-1.116,2.661,2.661,0,0,0-2.234,1.358L122.344,41H120.93l1.469-8.453ZM134.742,41a1.894,1.894,0,0,1-.055-.445l.023-.445a3.465,3.465,0,0,1-2.469,1.047,2.526,2.526,0,0,1-1.816-.707,2.14,2.14,0,0,1-.637-1.73,2.6,2.6,0,0,1,1.176-2.1,5.005,5.005,0,0,1,2.887-.754l1.477.008.094-.672a1.545,1.545,0,0,0-.293-1.2,1.414,1.414,0,0,0-1.113-.457,2.181,2.181,0,0,0-1.285.355,1.513,1.513,0,0,0-.684.98l-1.422.008a2.266,2.266,0,0,1,.578-1.316,3.363,3.363,0,0,1,1.3-.891,4.215,4.215,0,0,1,1.648-.3,2.8,2.8,0,0,1,2.055.8,2.484,2.484,0,0,1,.617,2.043l-.687,4.188-.039.6a2.949,2.949,0,0,0,.094.852L136.18,41Zm-2.219-1.094a2.466,2.466,0,0,0,1.285-.324,3.254,3.254,0,0,0,1.043-.941l.3-1.742-1.07-.008a4.054,4.054,0,0,0-2.047.422,1.554,1.554,0,0,0-.8,1.2,1.21,1.21,0,0,0,.277.988A1.321,1.321,0,0,0,132.523,39.906Zm8.375-7.367-.2,1.07a3.333,3.333,0,0,1,2.594-1.219,2.1,2.1,0,0,1,1.766.828,3.217,3.217,0,0,1,.422,2.242L144.555,41h-1.414l.93-5.557a2.962,2.962,0,0,0,.008-.71,1.168,1.168,0,0,0-1.289-1.116,2.661,2.661,0,0,0-2.234,1.358L139.508,41h-1.414l1.469-8.453Zm9.57-2.039-.359,2.047h1.539l-.2,1.117h-1.531l-.883,5.258a1.833,1.833,0,0,0-.008.375.6.6,0,0,0,.664.609,4.05,4.05,0,0,0,.688-.078l-.109,1.18a3.847,3.847,0,0,1-1.031.141,1.476,1.476,0,0,1-1.266-.621,2.4,2.4,0,0,1-.328-1.629l.859-5.234h-1.492l.2-1.117H148.7l.359-2.047Zm5.07,10.656a3.048,3.048,0,0,1-2.469-1.164,4.006,4.006,0,0,1-.75-2.9l.039-.336a5.624,5.624,0,0,1,.746-2.3,4.339,4.339,0,0,1,1.5-1.566,3.491,3.491,0,0,1,1.906-.5,2.688,2.688,0,0,1,2.047.867,3.566,3.566,0,0,1,.813,2.266,6.621,6.621,0,0,1-.031,1.016l-.086.648h-5.523a2.855,2.855,0,0,0,.379,1.953,1.8,1.8,0,0,0,1.551.836,3.007,3.007,0,0,0,2.313-1.125l.813.688a3.718,3.718,0,0,1-1.371,1.2A3.886,3.886,0,0,1,155.539,41.156Zm.9-7.586a2.066,2.066,0,0,0-1.527.594A4.22,4.22,0,0,0,153.875,36l4.109.008.031-.125a2.313,2.313,0,0,0-.316-1.637A1.488,1.488,0,0,0,156.438,33.57Zm15.188,1.07H165.3l.219-1.258h6.336Zm-.562,3.242h-6.328l.219-1.25h6.336Zm7.023-2.609,1.445-5.648H185.2l-.211,1.336h-4.453l-.875,3.109a3.481,3.481,0,0,1,1.859-.492,2.553,2.553,0,0,1,2.172,1.066,3.864,3.864,0,0,1,.617,2.676,4.274,4.274,0,0,1-1.242,2.813,3.651,3.651,0,0,1-2.727,1.031,2.975,2.975,0,0,1-2.2-.875A3.307,3.307,0,0,1,177.266,38h1.32a2.266,2.266,0,0,0,.531,1.453,1.718,1.718,0,0,0,1.289.531,2.1,2.1,0,0,0,1.684-.711,3.282,3.282,0,0,0,.809-1.945,2.5,2.5,0,0,0-.367-1.738,1.671,1.671,0,0,0-1.4-.715,2.4,2.4,0,0,0-1.012.172,3.758,3.758,0,0,0-.879.539ZM189.891,41h-1.422l1.672-9.594-3.023,1.063.242-1.375,4.219-1.523h.25Zm7.766.156a2.567,2.567,0,0,1-2.156-1.02,4.526,4.526,0,0,1-.656-2.848q.016-.578.086-1.141l.281-1.9a7.043,7.043,0,0,1,1.43-3.625,3.418,3.418,0,0,1,2.781-1.156,2.6,2.6,0,0,1,2.168,1,4.426,4.426,0,0,1,.66,2.8q-.023.586-.094,1.148l-.273,1.836a7.463,7.463,0,0,1-1.461,3.758A3.4,3.4,0,0,1,197.656,41.156Zm3.133-7a12.092,12.092,0,0,0,.1-1.469q-.039-1.984-1.539-2.039a2.053,2.053,0,0,0-1.77.809,5.606,5.606,0,0,0-.941,2.66l-.336,2.266a11.525,11.525,0,0,0-.1,1.477q.039,2.07,1.531,2.125a2.007,2.007,0,0,0,1.715-.766,5.429,5.429,0,0,0,.965-2.578Zm5.664,7a2.567,2.567,0,0,1-2.156-1.02,4.526,4.526,0,0,1-.656-2.848q.016-.578.086-1.141l.281-1.9a7.043,7.043,0,0,1,1.43-3.625,3.418,3.418,0,0,1,2.781-1.156,2.6,2.6,0,0,1,2.168,1,4.426,4.426,0,0,1,.66,2.8q-.023.586-.094,1.148l-.273,1.836a7.463,7.463,0,0,1-1.461,3.758A3.4,3.4,0,0,1,206.453,41.156Zm3.133-7a12.092,12.092,0,0,0,.1-1.469q-.039-1.984-1.539-2.039a2.053,2.053,0,0,0-1.77.809,5.606,5.606,0,0,0-.941,2.66l-.336,2.266a11.525,11.525,0,0,0-.1,1.477q.039,2.07,1.531,2.125a2.007,2.007,0,0,0,1.715-.766,5.429,5.429,0,0,0,.965-2.578Zm8.93-1.617-.18.945a3.305,3.305,0,0,1,2.57-1.094,2.608,2.608,0,0,1,1.363.367,1.8,1.8,0,0,1,.77.992,3.49,3.49,0,0,1,2.8-1.359,2.235,2.235,0,0,1,1.867.852,3.042,3.042,0,0,1,.445,2.2L227.227,41H225.82l.922-5.57a2.943,2.943,0,0,0,0-.742q-.148-1.062-1.391-1.086a2.136,2.136,0,0,0-1.4.48,2.222,2.222,0,0,0-.809,1.3L222.18,41h-1.422l.938-5.562a1.786,1.786,0,0,0-.262-1.336,1.377,1.377,0,0,0-1.129-.484,2.315,2.315,0,0,0-2.1,1.2L217.133,41h-1.414l1.469-8.453Zm11.3,4.219a6.889,6.889,0,0,1,.746-2.4,3.9,3.9,0,0,1,1.359-1.508,3.151,3.151,0,0,1,1.754-.465,2.6,2.6,0,0,1,2.219,1.109l.281-.945h1.3L236.07,40.82a4.113,4.113,0,0,1-1.312,2.59,3.7,3.7,0,0,1-2.68.926,3.8,3.8,0,0,1-1.645-.406,3.127,3.127,0,0,1-1.238-1.07l.8-.867a2.536,2.536,0,0,0,3.73.6,2.9,2.9,0,0,0,.926-1.687l.156-.75a3.2,3.2,0,0,1-2.414,1,2.486,2.486,0,0,1-1.371-.426,2.589,2.589,0,0,1-.9-1.164,4.759,4.759,0,0,1-.352-1.7A8.731,8.731,0,0,1,229.82,36.758Zm1.367.8a2.974,2.974,0,0,0,.387,1.728,1.461,1.461,0,0,0,1.238.644,2.561,2.561,0,0,0,2.18-1.241l.664-3.878a1.776,1.776,0,0,0-1.7-1.2,2.194,2.194,0,0,0-1.887.936,4.878,4.878,0,0,0-.871,2.614Zm7.164,4.419H237.07l6.75-12.352h1.273Zm11.555-3.266q.117-.875-.961-1.234l-1.469-.43q-1.859-.641-1.8-2.125a2.341,2.341,0,0,1,1.02-1.832,3.631,3.631,0,0,1,2.27-.7,3.027,3.027,0,0,1,2.082.746,2.363,2.363,0,0,1,.77,1.9l-1.406-.008a1.319,1.319,0,0,0-.4-1.031,1.576,1.576,0,0,0-1.1-.414,2.059,2.059,0,0,0-1.266.359,1.316,1.316,0,0,0-.57.922q-.1.734.9,1.07l.711.2a4.577,4.577,0,0,1,2.063.977,1.865,1.865,0,0,1,.563,1.492,2.37,2.37,0,0,1-.516,1.375,2.948,2.948,0,0,1-1.25.895,4.18,4.18,0,0,1-1.664.285,3.3,3.3,0,0,1-2.219-.785,2.427,2.427,0,0,1-.844-1.98l1.414.008a1.5,1.5,0,0,0,.453,1.141,1.732,1.732,0,0,0,1.242.43,2.436,2.436,0,0,0,1.336-.324A1.247,1.247,0,0,0,249.906,38.711Zm10.4-3.086,2.3-3.078h1.734l-3.391,4.25,2.063,4.2h-1.539l-1.4-3.156L257.688,41h-1.727l3.492-4.344-2-4.109H259Zm11.07-1.016.938.008a2.769,2.769,0,0,0,1.738-.543,2.058,2.058,0,0,0,.809-1.473,1.814,1.814,0,0,0-.336-1.426,1.613,1.613,0,0,0-1.273-.535,2.175,2.175,0,0,0-1.512.52,2.294,2.294,0,0,0-.762,1.441l-1.4.008a3.241,3.241,0,0,1,1.2-2.285,3.8,3.8,0,0,1,2.543-.863,3.04,3.04,0,0,1,2.246.895,2.838,2.838,0,0,1,.707,2.277,2.631,2.631,0,0,1-.617,1.469,4.111,4.111,0,0,1-1.516,1.1,2.248,2.248,0,0,1,1.156.988,2.757,2.757,0,0,1,.32,1.582,3.491,3.491,0,0,1-1.223,2.477,3.844,3.844,0,0,1-2.668.906,3.234,3.234,0,0,1-2.328-.906,2.874,2.874,0,0,1-.8-2.258l1.414.008a1.9,1.9,0,0,0,.422,1.41,1.8,1.8,0,0,0,1.359.566,2.273,2.273,0,0,0,1.664-.57,2.38,2.38,0,0,0,.758-1.609,1.741,1.741,0,0,0-.422-1.449,2.127,2.127,0,0,0-1.516-.551l-1.086-.008Zm9.234,6.547a2.567,2.567,0,0,1-2.156-1.02,4.526,4.526,0,0,1-.656-2.848q.016-.578.086-1.141l.281-1.9a7.043,7.043,0,0,1,1.43-3.625,3.418,3.418,0,0,1,2.781-1.156,2.6,2.6,0,0,1,2.168,1,4.426,4.426,0,0,1,.66,2.8q-.023.586-.094,1.148l-.273,1.836a7.463,7.463,0,0,1-1.461,3.758A3.4,3.4,0,0,1,280.609,41.156Zm3.133-7a12.092,12.092,0,0,0,.1-1.469Q283.8,30.7,282.3,30.648a2.053,2.053,0,0,0-1.77.809,5.606,5.606,0,0,0-.941,2.66l-.336,2.266a11.525,11.525,0,0,0-.1,1.477q.039,2.07,1.531,2.125a2.007,2.007,0,0,0,1.715-.766,5.429,5.429,0,0,0,.965-2.578Zm5.664,7a2.567,2.567,0,0,1-2.156-1.02,4.526,4.526,0,0,1-.656-2.848q.016-.578.086-1.141l.281-1.9a7.043,7.043,0,0,1,1.43-3.625,3.418,3.418,0,0,1,2.781-1.156,2.6,2.6,0,0,1,2.168,1,4.426,4.426,0,0,1,.66,2.8q-.023.586-.094,1.148l-.273,1.836a7.463,7.463,0,0,1-1.461,3.758A3.4,3.4,0,0,1,289.406,41.156Zm3.133-7a12.092,12.092,0,0,0,.1-1.469Q292.6,30.7,291.1,30.648a2.053,2.053,0,0,0-1.77.809,5.606,5.606,0,0,0-.941,2.66l-.336,2.266a11.525,11.525,0,0,0-.1,1.477q.039,2.07,1.531,2.125a2.007,2.007,0,0,0,1.715-.766,5.429,5.429,0,0,0,.965-2.578Zm11.375,4.555q.117-.875-.961-1.234l-1.469-.43q-1.859-.641-1.8-2.125a2.341,2.341,0,0,1,1.02-1.832,3.631,3.631,0,0,1,2.27-.7,3.027,3.027,0,0,1,2.082.746,2.363,2.363,0,0,1,.77,1.9l-1.406-.008a1.319,1.319,0,0,0-.4-1.031,1.576,1.576,0,0,0-1.1-.414,2.059,2.059,0,0,0-1.266.359,1.316,1.316,0,0,0-.57.922q-.1.734.9,1.07l.711.2a4.577,4.577,0,0,1,2.063.977,1.865,1.865,0,0,1,.563,1.492,2.37,2.37,0,0,1-.516,1.375,2.948,2.948,0,0,1-1.25.895,4.18,4.18,0,0,1-1.664.285,3.3,3.3,0,0,1-2.219-.785,2.427,2.427,0,0,1-.844-1.98l1.414.008a1.5,1.5,0,0,0,.453,1.141,1.732,1.732,0,0,0,1.242.43,2.436,2.436,0,0,0,1.336-.324A1.247,1.247,0,0,0,303.914,38.711ZM4.289,53.625l1.992,9.266L11.5,53.625h1.93L11.453,65H9.992l.781-4.5.93-4.578L6.547,65H5.422L3.391,55.742l-.7,4.906L1.93,65H.461L2.438,53.625ZM19.039,65a1.893,1.893,0,0,1-.055-.445l.023-.445a3.465,3.465,0,0,1-2.469,1.047,2.526,2.526,0,0,1-1.816-.707,2.14,2.14,0,0,1-.637-1.73,2.6,2.6,0,0,1,1.176-2.1,5.005,5.005,0,0,1,2.887-.754l1.477.008.094-.672a1.545,1.545,0,0,0-.293-1.2,1.414,1.414,0,0,0-1.113-.457,2.181,2.181,0,0,0-1.285.355,1.513,1.513,0,0,0-.684.98l-1.422.008a2.266,2.266,0,0,1,.578-1.316,3.363,3.363,0,0,1,1.3-.891,4.215,4.215,0,0,1,1.648-.3,2.8,2.8,0,0,1,2.055.8,2.484,2.484,0,0,1,.617,2.043l-.687,4.188-.039.6a2.949,2.949,0,0,0,.094.852L20.477,65ZM16.82,63.906a2.466,2.466,0,0,0,1.285-.324,3.254,3.254,0,0,0,1.043-.941l.3-1.742-1.07-.008a4.054,4.054,0,0,0-2.047.422,1.554,1.554,0,0,0-.8,1.2,1.21,1.21,0,0,0,.277.988A1.321,1.321,0,0,0,16.82,63.906Zm10.8-1.2q.117-.875-.961-1.234l-1.469-.43q-1.859-.641-1.8-2.125a2.341,2.341,0,0,1,1.02-1.832,3.631,3.631,0,0,1,2.27-.7,3.027,3.027,0,0,1,2.082.746,2.363,2.363,0,0,1,.77,1.9l-1.406-.008a1.319,1.319,0,0,0-.4-1.031,1.576,1.576,0,0,0-1.1-.414,2.059,2.059,0,0,0-1.266.359,1.316,1.316,0,0,0-.57.922q-.1.734.9,1.07l.711.2a4.577,4.577,0,0,1,2.063.977,1.865,1.865,0,0,1,.563,1.492,2.37,2.37,0,0,1-.516,1.375,2.948,2.948,0,0,1-1.25.895,4.18,4.18,0,0,1-1.664.285,3.3,3.3,0,0,1-2.219-.785,2.427,2.427,0,0,1-.844-1.98l1.414.008a1.5,1.5,0,0,0,.453,1.141,1.732,1.732,0,0,0,1.242.43,2.436,2.436,0,0,0,1.336-.324A1.247,1.247,0,0,0,27.625,62.711ZM35.641,65a1.894,1.894,0,0,1-.055-.445l.023-.445a3.465,3.465,0,0,1-2.469,1.047,2.526,2.526,0,0,1-1.816-.707,2.14,2.14,0,0,1-.637-1.73,2.6,2.6,0,0,1,1.176-2.1,5.005,5.005,0,0,1,2.887-.754l1.477.008.094-.672a1.545,1.545,0,0,0-.293-1.2,1.414,1.414,0,0,0-1.113-.457,2.181,2.181,0,0,0-1.285.355,1.513,1.513,0,0,0-.684.98l-1.422.008a2.266,2.266,0,0,1,.578-1.316,3.363,3.363,0,0,1,1.3-.891,4.215,4.215,0,0,1,1.648-.3,2.8,2.8,0,0,1,2.055.8,2.484,2.484,0,0,1,.617,2.043l-.687,4.188-.039.6a2.949,2.949,0,0,0,.094.852L37.078,65Zm-2.219-1.094a2.466,2.466,0,0,0,1.285-.324,3.254,3.254,0,0,0,1.043-.941l.3-1.742-1.07-.008a4.054,4.054,0,0,0-2.047.422,1.554,1.554,0,0,0-.8,1.2,1.21,1.21,0,0,0,.277.988A1.321,1.321,0,0,0,33.422,63.906Zm9.9-3.148a6.578,6.578,0,0,1,.711-2.328A4.03,4.03,0,0,1,45.4,56.875a3.127,3.127,0,0,1,1.789-.492,2.64,2.64,0,0,1,2.172,1.031L50.172,53h1.414L49.508,65H48.219l.148-.906A3.116,3.116,0,0,1,45.9,65.156a2.335,2.335,0,0,1-1.867-.918,4,4,0,0,1-.75-2.379A7.6,7.6,0,0,1,43.32,60.758Zm1.359.808a2.929,2.929,0,0,0,.4,1.732,1.437,1.437,0,0,0,1.234.632,2.554,2.554,0,0,0,2.18-1.233l.672-3.9a1.754,1.754,0,0,0-1.7-1.186,2.143,2.143,0,0,0-1.473.5,3.256,3.256,0,0,0-.969,1.475A6.082,6.082,0,0,0,44.68,61.565ZM55.4,65.156a3.048,3.048,0,0,1-2.469-1.164,4.006,4.006,0,0,1-.75-2.9l.039-.336a5.624,5.624,0,0,1,.746-2.3,4.339,4.339,0,0,1,1.5-1.566,3.491,3.491,0,0,1,1.906-.5,2.688,2.688,0,0,1,2.047.867,3.566,3.566,0,0,1,.813,2.266,6.621,6.621,0,0,1-.031,1.016l-.086.648H53.586a2.856,2.856,0,0,0,.379,1.953,1.8,1.8,0,0,0,1.551.836,3.007,3.007,0,0,0,2.313-1.125l.813.688a3.718,3.718,0,0,1-1.371,1.2A3.886,3.886,0,0,1,55.4,65.156Zm.9-7.586a2.066,2.066,0,0,0-1.527.594A4.22,4.22,0,0,0,53.734,60l4.109.008.031-.125a2.313,2.313,0,0,0-.316-1.637A1.488,1.488,0,0,0,56.3,57.57Zm11.234,6.414a2.145,2.145,0,0,0,1.367-.441,2.1,2.1,0,0,0,.8-1.2l1.336-.008a3.014,3.014,0,0,1-.637,1.453,3.68,3.68,0,0,1-2.926,1.367,3.017,3.017,0,0,1-1.785-.551,3.084,3.084,0,0,1-1.074-1.492,4.972,4.972,0,0,1-.234-2.152l.039-.391a5.605,5.605,0,0,1,.711-2.18,4.11,4.11,0,0,1,1.469-1.5,3.648,3.648,0,0,1,2-.5,2.857,2.857,0,0,1,2.125.891,3.08,3.08,0,0,1,.8,2.18l-1.32-.008a2.029,2.029,0,0,0-.461-1.34,1.607,1.607,0,0,0-1.2-.543,2.254,2.254,0,0,0-1.832.82,4.3,4.3,0,0,0-.91,2.359l-.023.2a6.776,6.776,0,0,0-.016,1.031,2.355,2.355,0,0,0,.516,1.445A1.656,1.656,0,0,0,67.531,63.984Zm9.328-7.594a3.047,3.047,0,0,1,1.82.578A3.285,3.285,0,0,1,79.8,58.52a4.8,4.8,0,0,1,.246,2.16l-.016.172a5.685,5.685,0,0,1-.734,2.23,4.309,4.309,0,0,1-1.516,1.551,3.7,3.7,0,0,1-2.039.523,3.052,3.052,0,0,1-1.816-.578,3.21,3.21,0,0,1-1.113-1.531,4.931,4.931,0,0,1-.25-2.133,5.76,5.76,0,0,1,.711-2.359A4.409,4.409,0,0,1,74.8,56.934,3.652,3.652,0,0,1,76.859,56.391Zm-2.875,4.531a4.8,4.8,0,0,0,0,1.023,2.507,2.507,0,0,0,.551,1.469,1.653,1.653,0,0,0,1.262.57,2.253,2.253,0,0,0,1.3-.348,2.919,2.919,0,0,0,1-1.121,4.721,4.721,0,0,0,.523-1.664,7.5,7.5,0,0,0,.023-1.211,2.6,2.6,0,0,0-.57-1.492A1.69,1.69,0,0,0,76.8,57.57a2.3,2.3,0,0,0-1.859.859A4.245,4.245,0,0,0,74,60.742ZM83.9,56.539l-.2,1.07a3.333,3.333,0,0,1,2.594-1.219,2.1,2.1,0,0,1,1.766.828,3.217,3.217,0,0,1,.422,2.242L87.555,65H86.141l.93-5.557a2.962,2.962,0,0,0,.008-.71,1.168,1.168,0,0,0-1.289-1.116,2.661,2.661,0,0,0-2.234,1.358L82.508,65H81.094l1.469-8.453Zm9.57-2.039-.359,2.047h1.539l-.2,1.117H92.922l-.883,5.258a1.833,1.833,0,0,0-.008.375.6.6,0,0,0,.664.609,4.05,4.05,0,0,0,.688-.078l-.109,1.18a3.847,3.847,0,0,1-1.031.141,1.476,1.476,0,0,1-1.266-.621,2.4,2.4,0,0,1-.328-1.629l.859-5.234H90.016l.2-1.117H91.7l.359-2.047ZM100.055,65a1.893,1.893,0,0,1-.055-.445l.023-.445a3.465,3.465,0,0,1-2.469,1.047,2.526,2.526,0,0,1-1.816-.707,2.14,2.14,0,0,1-.637-1.73,2.6,2.6,0,0,1,1.176-2.1,5.005,5.005,0,0,1,2.887-.754l1.477.008.094-.672a1.545,1.545,0,0,0-.293-1.2,1.414,1.414,0,0,0-1.113-.457,2.181,2.181,0,0,0-1.285.355,1.513,1.513,0,0,0-.684.98l-1.422.008a2.266,2.266,0,0,1,.578-1.316,3.363,3.363,0,0,1,1.3-.891,4.215,4.215,0,0,1,1.648-.3,2.8,2.8,0,0,1,2.055.8,2.484,2.484,0,0,1,.617,2.043l-.687,4.188-.039.6a2.949,2.949,0,0,0,.094.852l-.016.133Zm-2.219-1.094a2.466,2.466,0,0,0,1.285-.324,3.254,3.254,0,0,0,1.043-.941l.3-1.742-1.07-.008a4.054,4.054,0,0,0-2.047.422,1.554,1.554,0,0,0-.8,1.2,1.21,1.21,0,0,0,.277.988A1.321,1.321,0,0,0,97.836,63.906Zm8.359-7.367-.18.945a3.305,3.305,0,0,1,2.57-1.094,2.608,2.608,0,0,1,1.363.367,1.8,1.8,0,0,1,.77.992,3.49,3.49,0,0,1,2.8-1.359,2.235,2.235,0,0,1,1.867.852,3.042,3.042,0,0,1,.445,2.2L114.906,65H113.5l.922-5.57a2.943,2.943,0,0,0,0-.742q-.148-1.062-1.391-1.086a2.136,2.136,0,0,0-1.4.48,2.222,2.222,0,0,0-.809,1.3L109.859,65h-1.422l.938-5.562a1.786,1.786,0,0,0-.262-1.336,1.377,1.377,0,0,0-1.129-.484,2.315,2.315,0,0,0-2.1,1.2L104.813,65H103.4l1.469-8.453ZM118.617,65h-1.406l1.469-8.453h1.406Zm1.164-11.539a.774.774,0,0,1,.6.215.8.8,0,0,1,.238.605.834.834,0,0,1-.836.852.779.779,0,0,1-.6-.211.764.764,0,0,1-.227-.594.886.886,0,0,1,.234-.609A.826.826,0,0,1,119.781,53.461Zm3.953,3.078-.2,1.07a3.333,3.333,0,0,1,2.594-1.219,2.1,2.1,0,0,1,1.766.828,3.217,3.217,0,0,1,.422,2.242L127.391,65h-1.414l.93-5.557a2.962,2.962,0,0,0,.008-.71,1.168,1.168,0,0,0-1.289-1.116,2.661,2.661,0,0,0-2.234,1.358L122.344,65H120.93l1.469-8.453ZM134.742,65a1.894,1.894,0,0,1-.055-.445l.023-.445a3.465,3.465,0,0,1-2.469,1.047,2.526,2.526,0,0,1-1.816-.707,2.14,2.14,0,0,1-.637-1.73,2.6,2.6,0,0,1,1.176-2.1,5.005,5.005,0,0,1,2.887-.754l1.477.008.094-.672a1.545,1.545,0,0,0-.293-1.2,1.414,1.414,0,0,0-1.113-.457,2.181,2.181,0,0,0-1.285.355,1.513,1.513,0,0,0-.684.98l-1.422.008a2.266,2.266,0,0,1,.578-1.316,3.363,3.363,0,0,1,1.3-.891,4.215,4.215,0,0,1,1.648-.3,2.8,2.8,0,0,1,2.055.8,2.484,2.484,0,0,1,.617,2.043l-.687,4.188-.039.6a2.949,2.949,0,0,0,.094.852L136.18,65Zm-2.219-1.094a2.466,2.466,0,0,0,1.285-.324,3.254,3.254,0,0,0,1.043-.941l.3-1.742-1.07-.008a4.054,4.054,0,0,0-2.047.422,1.554,1.554,0,0,0-.8,1.2,1.21,1.21,0,0,0,.277.988A1.321,1.321,0,0,0,132.523,63.906Zm8.375-7.367-.2,1.07a3.333,3.333,0,0,1,2.594-1.219,2.1,2.1,0,0,1,1.766.828,3.217,3.217,0,0,1,.422,2.242L144.555,65h-1.414l.93-5.557a2.962,2.962,0,0,0,.008-.71,1.168,1.168,0,0,0-1.289-1.116,2.661,2.661,0,0,0-2.234,1.358L139.508,65h-1.414l1.469-8.453Zm9.57-2.039-.359,2.047h1.539l-.2,1.117h-1.531l-.883,5.258a1.833,1.833,0,0,0-.008.375.6.6,0,0,0,.664.609,4.05,4.05,0,0,0,.688-.078l-.109,1.18a3.847,3.847,0,0,1-1.031.141,1.476,1.476,0,0,1-1.266-.621,2.4,2.4,0,0,1-.328-1.629l.859-5.234h-1.492l.2-1.117H148.7l.359-2.047Zm5.07,10.656a3.048,3.048,0,0,1-2.469-1.164,4.006,4.006,0,0,1-.75-2.9l.039-.336a5.624,5.624,0,0,1,.746-2.3,4.339,4.339,0,0,1,1.5-1.566,3.491,3.491,0,0,1,1.906-.5,2.688,2.688,0,0,1,2.047.867,3.566,3.566,0,0,1,.813,2.266,6.621,6.621,0,0,1-.031,1.016l-.086.648h-5.523a2.855,2.855,0,0,0,.379,1.953,1.8,1.8,0,0,0,1.551.836,3.007,3.007,0,0,0,2.313-1.125l.813.688a3.718,3.718,0,0,1-1.371,1.2A3.886,3.886,0,0,1,155.539,65.156Zm.9-7.586a2.066,2.066,0,0,0-1.527.594A4.22,4.22,0,0,0,153.875,60l4.109.008.031-.125a2.313,2.313,0,0,0-.316-1.637A1.488,1.488,0,0,0,156.438,57.57Zm15.188,1.07H165.3l.219-1.258h6.336Zm-.562,3.242h-6.328l.219-1.25h6.336ZM181.094,65h-1.422l1.672-9.594-3.023,1.063.242-1.375,4.219-1.523h.25Zm7-11.078-.594,2.82h-1L187.1,53h1.141Zm1.57,5.352,1.445-5.648h5.672l-.211,1.336h-4.453l-.875,3.109a3.481,3.481,0,0,1,1.859-.492,2.553,2.553,0,0,1,2.172,1.066,3.864,3.864,0,0,1,.617,2.676,4.274,4.274,0,0,1-1.242,2.813,3.651,3.651,0,0,1-2.727,1.031,2.975,2.975,0,0,1-2.2-.875A3.307,3.307,0,0,1,188.844,62h1.32a2.266,2.266,0,0,0,.531,1.453,1.718,1.718,0,0,0,1.289.531,2.1,2.1,0,0,0,1.684-.711,3.282,3.282,0,0,0,.809-1.945,2.5,2.5,0,0,0-.367-1.738,1.671,1.671,0,0,0-1.4-.715,2.4,2.4,0,0,0-1.012.172,3.758,3.758,0,0,0-.879.539ZM200,58.609l.938.008a2.769,2.769,0,0,0,1.738-.543,2.058,2.058,0,0,0,.809-1.473,1.814,1.814,0,0,0-.336-1.426,1.613,1.613,0,0,0-1.273-.535,2.175,2.175,0,0,0-1.512.52A2.294,2.294,0,0,0,199.6,56.6l-1.4.008a3.241,3.241,0,0,1,1.2-2.285,3.8,3.8,0,0,1,2.543-.863,3.04,3.04,0,0,1,2.246.895,2.838,2.838,0,0,1,.707,2.277,2.631,2.631,0,0,1-.617,1.469,4.111,4.111,0,0,1-1.516,1.1,2.248,2.248,0,0,1,1.156.988,2.757,2.757,0,0,1,.32,1.582,3.491,3.491,0,0,1-1.223,2.477,3.844,3.844,0,0,1-2.668.906,3.234,3.234,0,0,1-2.328-.906,2.873,2.873,0,0,1-.8-2.258l1.414.008a1.9,1.9,0,0,0,.422,1.41,1.8,1.8,0,0,0,1.359.566,2.273,2.273,0,0,0,1.664-.57,2.38,2.38,0,0,0,.758-1.609,1.741,1.741,0,0,0-.422-1.449A2.127,2.127,0,0,0,200.9,59.8l-1.086-.008Zm9.234,6.547a2.567,2.567,0,0,1-2.156-1.02,4.526,4.526,0,0,1-.656-2.848q.016-.578.086-1.141l.281-1.9a7.043,7.043,0,0,1,1.43-3.625A3.418,3.418,0,0,1,211,53.469a2.6,2.6,0,0,1,2.168,1,4.426,4.426,0,0,1,.66,2.8q-.023.586-.094,1.148l-.273,1.836A7.463,7.463,0,0,1,212,64.008,3.4,3.4,0,0,1,209.234,65.156Zm3.133-7a12.092,12.092,0,0,0,.1-1.469q-.039-1.984-1.539-2.039a2.053,2.053,0,0,0-1.77.809,5.606,5.606,0,0,0-.941,2.66l-.336,2.266a11.525,11.525,0,0,0-.1,1.477q.039,2.07,1.531,2.125a2.007,2.007,0,0,0,1.715-.766,5.429,5.429,0,0,0,.965-2.578Zm3.258,5.2a.846.846,0,0,1,.633.234.807.807,0,0,1,.242.625.844.844,0,0,1-.258.621.929.929,0,0,1-.625.254.788.788,0,0,1-.859-.828.874.874,0,0,1,.867-.906Zm6.57,1.8a2.567,2.567,0,0,1-2.156-1.02,4.526,4.526,0,0,1-.656-2.848q.016-.578.086-1.141l.281-1.9a7.043,7.043,0,0,1,1.43-3.625,3.418,3.418,0,0,1,2.781-1.156,2.6,2.6,0,0,1,2.168,1,4.426,4.426,0,0,1,.66,2.8q-.023.586-.094,1.148l-.273,1.836a7.463,7.463,0,0,1-1.461,3.758A3.4,3.4,0,0,1,222.2,65.156Zm3.133-7a12.092,12.092,0,0,0,.1-1.469q-.039-1.984-1.539-2.039a2.053,2.053,0,0,0-1.77.809,5.606,5.606,0,0,0-.941,2.66l-.336,2.266a11.525,11.525,0,0,0-.1,1.477q.039,2.07,1.531,2.125a2.007,2.007,0,0,0,1.715-.766,5.429,5.429,0,0,0,.965-2.578Zm5.664,7a2.567,2.567,0,0,1-2.156-1.02,4.526,4.526,0,0,1-.656-2.848q.016-.578.086-1.141l.281-1.9a7.043,7.043,0,0,1,1.43-3.625,3.418,3.418,0,0,1,2.781-1.156,2.6,2.6,0,0,1,2.168,1,4.426,4.426,0,0,1,.66,2.8q-.023.586-.094,1.148l-.273,1.836a7.463,7.463,0,0,1-1.461,3.758A3.4,3.4,0,0,1,230.992,65.156Zm3.133-7a12.092,12.092,0,0,0,.1-1.469q-.039-1.984-1.539-2.039a2.053,2.053,0,0,0-1.77.809,5.606,5.606,0,0,0-.941,2.66l-.336,2.266a11.525,11.525,0,0,0-.1,1.477q.039,2.07,1.531,2.125a2.007,2.007,0,0,0,1.715-.766,5.429,5.429,0,0,0,.965-2.578Zm5.664,7a2.567,2.567,0,0,1-2.156-1.02,4.526,4.526,0,0,1-.656-2.848q.016-.578.086-1.141l.281-1.9a7.043,7.043,0,0,1,1.43-3.625,3.418,3.418,0,0,1,2.781-1.156,2.6,2.6,0,0,1,2.168,1,4.426,4.426,0,0,1,.66,2.8q-.023.586-.094,1.148l-.273,1.836a7.463,7.463,0,0,1-1.461,3.758A3.4,3.4,0,0,1,239.789,65.156Zm3.133-7a12.092,12.092,0,0,0,.1-1.469q-.039-1.984-1.539-2.039a2.053,2.053,0,0,0-1.77.809,5.606,5.606,0,0,0-.941,2.66l-.336,2.266a11.525,11.525,0,0,0-.1,1.477q.039,2.07,1.531,2.125a2.007,2.007,0,0,0,1.715-.766,5.429,5.429,0,0,0,.965-2.578Zm8.93-1.617-.18.945a3.305,3.305,0,0,1,2.57-1.094,2.608,2.608,0,0,1,1.363.367,1.8,1.8,0,0,1,.77.992,3.49,3.49,0,0,1,2.8-1.359,2.235,2.235,0,0,1,1.867.852,3.042,3.042,0,0,1,.445,2.2L260.563,65h-1.406l.922-5.57a2.943,2.943,0,0,0,0-.742q-.148-1.062-1.391-1.086a2.136,2.136,0,0,0-1.4.48,2.222,2.222,0,0,0-.809,1.3L255.516,65h-1.422l.938-5.562a1.786,1.786,0,0,0-.262-1.336,1.377,1.377,0,0,0-1.129-.484,2.315,2.315,0,0,0-2.1,1.2L250.469,65h-1.414l1.469-8.453Zm11.3,4.219a6.889,6.889,0,0,1,.746-2.4,3.9,3.9,0,0,1,1.359-1.508,3.151,3.151,0,0,1,1.754-.465,2.6,2.6,0,0,1,2.219,1.109l.281-.945h1.3l-1.406,8.273a4.113,4.113,0,0,1-1.312,2.59,3.7,3.7,0,0,1-2.68.926,3.805,3.805,0,0,1-1.645-.406,3.127,3.127,0,0,1-1.238-1.07l.8-.867a2.536,2.536,0,0,0,3.73.6,2.9,2.9,0,0,0,.926-1.687l.156-.75a3.2,3.2,0,0,1-2.414,1,2.486,2.486,0,0,1-1.371-.426,2.589,2.589,0,0,1-.9-1.164,4.759,4.759,0,0,1-.352-1.7A8.737,8.737,0,0,1,263.156,60.758Zm1.367.8a2.974,2.974,0,0,0,.387,1.728,1.461,1.461,0,0,0,1.238.644,2.561,2.561,0,0,0,2.18-1.241l.664-3.878a1.776,1.776,0,0,0-1.7-1.2,2.194,2.194,0,0,0-1.887.936,4.878,4.878,0,0,0-.871,2.614Z" transform="translate(520 33907)" fill="#12263f"/>
    <g id="mathematics" transform="translate(434 33911.801)">
      <path id="Trazado_732657" data-name="Trazado 732657" d="M142.833,7.164H110.552a6.053,6.053,0,0,0-6.053,6.053v11.1h21.184a6.053,6.053,0,0,1,6.052,6.053v1.009h3.027L140.95,42.2a1.008,1.008,0,0,0,1.882-.5V31.375a6.053,6.053,0,0,0,6.053-6.053v-12.1a6.052,6.052,0,0,0-6.052-6.053Zm0,0" transform="translate(-89.368 -5.956)" fill="#c2d197"/>
      <path id="Trazado_732658" data-name="Trazado 732658" d="M315.518,140.54a1.009,1.009,0,1,1-1.009-1.008A1.009,1.009,0,0,1,315.518,140.54Zm0,0" transform="translate(-268.106 -119.156)" fill="#9cb16a"/>
      <path id="Trazado_732659" data-name="Trazado 732659" d="M343.385,140.54a1.009,1.009,0,1,1-1.008-1.008A1.009,1.009,0,0,1,343.385,140.54Zm0,0" transform="translate(-291.938 -119.156)" fill="#9cb16a"/>
      <path id="Trazado_732660" data-name="Trazado 732660" d="M371.252,140.54a1.009,1.009,0,1,1-1.009-1.008A1.009,1.009,0,0,1,371.252,140.54Zm0,0" transform="translate(-315.769 -119.156)" fill="#9cb16a"/>
      <path id="Trazado_732661" data-name="Trazado 732661" d="M138.05,62.911a1.009,1.009,0,0,0-1.426,0l-1.3,1.3-1.3-1.3a1.009,1.009,0,1,0-1.451,1.4l.024.025,1.3,1.3-1.3,1.3a1.009,1.009,0,0,0,1.4,1.451l.025-.025,1.3-1.3,1.3,1.3a1.009,1.009,0,0,0,1.426-1.427l-1.3-1.3,1.3-1.3a1,1,0,0,0,.017-1.421A.016.016,0,0,0,138.05,62.911Zm0,0" transform="translate(-113.126 -53.367)" fill="#9cb16a"/>
      <path id="Trazado_732662" data-name="Trazado 732662" d="M198.763,46.88a1.008,1.008,0,0,0-1.009-1.009h-9.079a1.009,1.009,0,0,0-1,.865l-.552,3.864-.568-1.147a1.009,1.009,0,1,0-1.805.9l2.018,4.035a1.009,1.009,0,0,0,.9.558.965.965,0,0,0,.161-.014,1.008,1.008,0,0,0,.837-.854l.885-6.195h8.2A1.008,1.008,0,0,0,198.763,46.88Zm0,0" transform="translate(-157.908 -39.058)" fill="#9cb16a"/>
      <path id="Trazado_732663" data-name="Trazado 732663" d="M230.751,70.212l-1.281,1.254-1.226-1.311a1.009,1.009,0,1,0-1.472,1.38l1.255,1.344-1.311,1.284a1.01,1.01,0,0,0,1.412,1.443l4.035-3.95a1.009,1.009,0,0,0-1.412-1.443Zm0,0" transform="translate(-193.628 -59.553)" fill="#9cb16a"/>
      <path id="Trazado_732664" data-name="Trazado 732664" d="M280.228,68.787h-1.009V67.779a1.009,1.009,0,1,0-2.018,0v1.009h-1.009a1.009,1.009,0,0,0,0,2.018H277.2v1.009a1.009,1.009,0,0,0,2.018,0V70.8h1.009a1.009,1.009,0,1,0,0-2.018Zm0,0" transform="translate(-235.338 -56.931)" fill="#9cb16a"/>
      <path id="Trazado_732665" data-name="Trazado 732665" d="M332.478,70.8h-1.6l2.313-2.313a1.009,1.009,0,0,0-.713-1.722h-4.035a1.009,1.009,0,1,0,0,2.018h1.6L327.73,71.1a1.009,1.009,0,0,0,.713,1.722h4.035a1.009,1.009,0,1,0,0-2.018Zm0,0" transform="translate(-280.022 -56.931)" fill="#9cb16a"/>
      <path id="Trazado_732666" data-name="Trazado 732666" d="M126.693,114.543H104.5v1.6h21.184a6.053,6.053,0,0,1,6.053,6.053v1.009h1.008V120.6a6.052,6.052,0,0,0-6.053-6.052Zm0,0" transform="translate(-89.369 -97.786)" fill="#9cb16a"/>
      <path id="Trazado_732667" data-name="Trazado 732667" d="M138.05,52.147a1.009,1.009,0,0,0-1.426,0l-1.3,1.3-1.3-1.3a1.009,1.009,0,0,0-1.427,1.426l1.3,1.3-1.3,1.3a1.009,1.009,0,0,0,1.4,1.451l.025-.025,1.3-1.3,1.3,1.3a1.009,1.009,0,1,0,1.451-1.4l-.025-.025-1.3-1.3,1.3-1.3A1.008,1.008,0,0,0,138.05,52.147Zm0,0" transform="translate(-113.126 -44.173)" fill="#075057"/>
      <path id="Trazado_732668" data-name="Trazado 732668" d="M198.763,36.04a1.008,1.008,0,0,0-1.009-1.009h-9.079a1.009,1.009,0,0,0-1,.865l-.552,3.864-.568-1.146a1.009,1.009,0,1,0-1.805.9l2.018,4.035a1.009,1.009,0,0,0,.9.558,1.028,1.028,0,0,0,.161-.013,1.009,1.009,0,0,0,.838-.853l.885-6.2h8.2a1.008,1.008,0,0,0,1.008-1.009Zm0,0" transform="translate(-157.909 -29.788)" fill="#075057"/>
      <path id="Trazado_732669" data-name="Trazado 732669" d="M230.751,59.263l-1.281,1.255-1.226-1.312a1.009,1.009,0,0,0-1.507,1.341l.036.038,1.255,1.344-1.311,1.284a1.009,1.009,0,1,0,1.412,1.442l4.035-3.95a1.009,1.009,0,0,0-1.412-1.442Zm0,0" transform="translate(-193.628 -50.173)" fill="#075057"/>
      <path id="Trazado_732670" data-name="Trazado 732670" d="M280.228,57.947h-1.009V56.938a1.009,1.009,0,0,0-2.018,0v1.009h-1.009a1.009,1.009,0,0,0,0,2.018H277.2v1.009a1.009,1.009,0,0,0,2.018,0V59.965h1.009a1.009,1.009,0,1,0,0-2.018Zm0,0" transform="translate(-235.338 -47.66)" fill="#075057"/>
      <path id="Trazado_732671" data-name="Trazado 732671" d="M332.478,59.965h-1.6l2.313-2.313a1.009,1.009,0,0,0-.713-1.722h-4.035a1.009,1.009,0,1,0,0,2.018h1.6l-2.313,2.313a1.009,1.009,0,0,0,.713,1.722h4.035a1.009,1.009,0,1,0,0-2.018Zm0,0" transform="translate(-280.022 -47.66)" fill="#075057"/>
      <path id="Trazado_732672" data-name="Trazado 732672" d="M13.017,125.6H42.272a6.053,6.053,0,0,1,6.053,6.053v12.1a6.053,6.053,0,0,1-6.053,6.053H27.141l-12.4,12.4a1.009,1.009,0,0,1-1.723-.713V149.809a6.053,6.053,0,0,1-6.053-6.053v-12.1a6.053,6.053,0,0,1,6.053-6.053Zm0,0" transform="translate(-5.957 -107.241)" fill="#ffa031"/>
      <g id="Grupo_1013892" data-name="Grupo 1013892" transform="translate(4.035 21.383)">
        <path id="Trazado_732673" data-name="Trazado 732673" d="M33.92,204.248a1.009,1.009,0,0,0,0-2.018H28.876a1.008,1.008,0,0,0-1.009,1.009v8.07a1.009,1.009,0,0,0,1.009,1.009H33.92a1.009,1.009,0,0,0,0-2.018H29.885v-2.018h3.026a1.009,1.009,0,1,0,0-2.018H29.885v-2.018Zm0,0" transform="translate(-27.867 -194.16)" fill="#c66b00"/>
        <path id="Trazado_732674" data-name="Trazado 732674" d="M132.463,216.162a3.009,3.009,0,0,0-2.018.787,3.013,3.013,0,0,0-5.044,2.239v4.035a1.009,1.009,0,1,0,2.018,0v-4.035a1.009,1.009,0,0,1,2.018,0v4.035a1.009,1.009,0,1,0,2.018,0v-4.035a1.009,1.009,0,0,1,2.018,0v4.035a1.009,1.009,0,1,0,2.018,0v-4.035a3.027,3.027,0,0,0-3.027-3.026Zm0,0" transform="translate(-111.279 -206.074)" fill="#c66b00"/>
        <path id="Trazado_732675" data-name="Trazado 732675" d="M199.1,218.182h1.009a1.009,1.009,0,0,0,0-2.018H199.1a4.035,4.035,0,1,0,0,8.07h1.009a1.009,1.009,0,0,0,0-2.018H199.1a2.017,2.017,0,1,1,0-4.035Zm0,0" transform="translate(-170.856 -206.076)" fill="#c66b00"/>
        <path id="Trazado_732676" data-name="Trazado 732676" d="M227.978,153.558h-3.026a1.009,1.009,0,0,1,1.009-1.009,3.026,3.026,0,1,0-3.026-3.026,1.009,1.009,0,0,0,2.018,0,1.009,1.009,0,1,1,1.009,1.009,3.027,3.027,0,0,0-3.027,3.027v1.008a1.009,1.009,0,0,0,1.009,1.009h4.035a1.009,1.009,0,1,0,0-2.018Zm0,0" transform="translate(-194.688 -146.497)" fill="#c66b00"/>
        <path id="Trazado_732677" data-name="Trazado 732677" d="M86.628,223.129H84.61a1.009,1.009,0,0,0,0,2.018h2.018a1.009,1.009,0,1,0,0-2.018Zm0,0" transform="translate(-75.531 -212.033)" fill="#c66b00"/>
        <path id="Trazado_732678" data-name="Trazado 732678" d="M86.628,244.031H84.61a1.009,1.009,0,0,0,0,2.018h2.018a1.009,1.009,0,1,0,0-2.018Zm0,0" transform="translate(-75.531 -229.908)" fill="#c66b00"/>
        <path id="Trazado_732679" data-name="Trazado 732679" d="M57.752,161.438a1.009,1.009,0,1,1-1.009-1.009A1.009,1.009,0,0,1,57.752,161.438Zm0,0" transform="translate(-51.699 -158.412)" fill="#c66b00"/>
        <path id="Trazado_732680" data-name="Trazado 732680" d="M85.619,161.438a1.009,1.009,0,1,1-1.009-1.009A1.009,1.009,0,0,1,85.619,161.438Zm0,0" transform="translate(-75.531 -158.412)" fill="#c66b00"/>
        <path id="Trazado_732681" data-name="Trazado 732681" d="M113.483,161.438a1.009,1.009,0,1,1-1.009-1.009A1.009,1.009,0,0,1,113.483,161.438Zm0,0" transform="translate(-99.36 -158.412)" fill="#c66b00"/>
        <path id="Trazado_732682" data-name="Trazado 732682" d="M141.35,161.438a1.009,1.009,0,1,1-1.009-1.009A1.008,1.008,0,0,1,141.35,161.438Zm0,0" transform="translate(-123.192 -158.412)" fill="#c66b00"/>
        <path id="Trazado_732683" data-name="Trazado 732683" d="M169.217,161.438a1.009,1.009,0,1,1-1.008-1.009A1.008,1.008,0,0,1,169.217,161.438Zm0,0" transform="translate(-147.024 -158.412)" fill="#c66b00"/>
      </g>
      <path id="Trazado_732684" data-name="Trazado 732684" d="M33.92,197.279a1.009,1.009,0,0,0,0-2.018H28.876a1.009,1.009,0,0,0-1.009,1.009v8.07a1.008,1.008,0,0,0,1.009,1.009H33.92a1.009,1.009,0,0,0,0-2.018H29.885v-2.018h3.026a1.009,1.009,0,1,0,0-2.018H29.885v-2.018Zm0,0" transform="translate(-23.832 -166.817)" fill="#9e0c09"/>
      <path id="Trazado_732685" data-name="Trazado 732685" d="M132.463,209.195a3.009,3.009,0,0,0-2.018.787,3.013,3.013,0,0,0-5.044,2.24v4.035a1.009,1.009,0,1,0,2.018,0v-4.035a1.009,1.009,0,1,1,2.018,0v4.035a1.009,1.009,0,1,0,2.018,0v-4.035a1.009,1.009,0,1,1,2.018,0v4.035a1.009,1.009,0,1,0,2.018,0v-4.035a3.027,3.027,0,0,0-3.027-3.027Zm0,0" transform="translate(-107.244 -178.732)" fill="#9e0c09"/>
      <path id="Trazado_732686" data-name="Trazado 732686" d="M199.1,211.213h1.009a1.009,1.009,0,0,0,0-2.018H199.1a4.035,4.035,0,1,0,0,8.07h1.009a1.009,1.009,0,0,0,0-2.018H199.1a2.018,2.018,0,0,1,0-4.035Zm0,0" transform="translate(-166.821 -178.733)" fill="#9e0c09"/>
      <path id="Trazado_732687" data-name="Trazado 732687" d="M227.978,146.589h-3.026a1.009,1.009,0,0,1,1.009-1.009,3.026,3.026,0,1,0-3.026-3.026,1.009,1.009,0,1,0,2.018,0,1.009,1.009,0,1,1,1.009,1.009,3.026,3.026,0,0,0-3.027,3.026V147.6a1.009,1.009,0,0,0,1.009,1.009h4.035a1.009,1.009,0,1,0,0-2.018Zm0,0" transform="translate(-190.653 -119.153)" fill="#9e0c09"/>
      <path id="Trazado_732688" data-name="Trazado 732688" d="M86.628,216.164H84.61a1.009,1.009,0,0,0,0,2.018h2.018a1.009,1.009,0,1,0,0-2.018Zm0,0" transform="translate(-71.496 -184.693)" fill="#9e0c09"/>
      <path id="Trazado_732689" data-name="Trazado 732689" d="M86.628,237.063H84.61a1.009,1.009,0,0,0,0,2.018h2.018a1.009,1.009,0,1,0,0-2.018Zm0,0" transform="translate(-71.496 -202.565)" fill="#9e0c09"/>
      <path id="Trazado_732690" data-name="Trazado 732690" d="M315.518,133.571a1.009,1.009,0,1,1-1.009-1.009A1.008,1.008,0,0,1,315.518,133.571Zm0,0" transform="translate(-268.106 -113.196)" fill="#075057"/>
      <path id="Trazado_732691" data-name="Trazado 732691" d="M343.385,133.571a1.009,1.009,0,1,1-1.008-1.009A1.008,1.008,0,0,1,343.385,133.571Zm0,0" transform="translate(-291.938 -113.196)" fill="#075057"/>
      <path id="Trazado_732692" data-name="Trazado 732692" d="M371.252,133.571a1.009,1.009,0,1,1-1.009-1.009A1.009,1.009,0,0,1,371.252,133.571Zm0,0" transform="translate(-315.769 -113.196)" fill="#075057"/>
      <path id="Trazado_732693" data-name="Trazado 732693" d="M57.752,154.474a1.009,1.009,0,1,1-1.009-1.009A1.009,1.009,0,0,1,57.752,154.474Zm0,0" transform="translate(-47.664 -131.073)" fill="#9e0c09"/>
      <path id="Trazado_732694" data-name="Trazado 732694" d="M85.619,154.474a1.009,1.009,0,1,1-1.009-1.009A1.009,1.009,0,0,1,85.619,154.474Zm0,0" transform="translate(-71.496 -131.073)" fill="#9e0c09"/>
      <path id="Trazado_732695" data-name="Trazado 732695" d="M113.483,154.474a1.009,1.009,0,1,1-1.009-1.009A1.009,1.009,0,0,1,113.483,154.474Zm0,0" transform="translate(-95.325 -131.073)" fill="#9e0c09"/>
      <path id="Trazado_732696" data-name="Trazado 732696" d="M141.35,154.474a1.009,1.009,0,1,1-1.009-1.009A1.009,1.009,0,0,1,141.35,154.474Zm0,0" transform="translate(-119.157 -131.073)" fill="#9e0c09"/>
      <path id="Trazado_732697" data-name="Trazado 732697" d="M169.217,154.474a1.009,1.009,0,1,1-1.008-1.009A1.009,1.009,0,0,1,169.217,154.474Zm0,0" transform="translate(-142.989 -131.073)" fill="#9e0c09"/>
      <path id="Trazado_732698" data-name="Trazado 732698" d="M138.05,52.147a1.009,1.009,0,0,0-1.426,0l-1.3,1.3-1.3-1.3a1.009,1.009,0,0,0-1.427,1.426l1.3,1.3-1.3,1.3a1.009,1.009,0,0,0,1.4,1.451l.025-.025,1.3-1.3,1.3,1.3a1.009,1.009,0,1,0,1.451-1.4l-.025-.025-1.3-1.3,1.3-1.3A1.008,1.008,0,0,0,138.05,52.147Zm0,0" transform="translate(-113.126 -44.173)"/>
      <path id="Trazado_732699" data-name="Trazado 732699" d="M198.749,36.04a1.008,1.008,0,0,0-1.009-1.009h-9.079a1.009,1.009,0,0,0-1,.865l-.552,3.864-.568-1.146a1.009,1.009,0,1,0-1.812.888l.007.014,2.017,4.035a1.01,1.01,0,0,0,.9.558,1.022,1.022,0,0,0,.161-.013,1.009,1.009,0,0,0,.838-.853l.885-6.2h8.2a1.008,1.008,0,0,0,1.009-1.009Zm0,0" transform="translate(-157.894 -29.788)"/>
      <path id="Trazado_732700" data-name="Trazado 732700" d="M226.7,64.639a1.01,1.01,0,0,0,1.427.015l4.035-3.95a1.009,1.009,0,0,0-1.412-1.443l-1.281,1.255L228.247,59.2a1.009,1.009,0,1,0-1.507,1.341l.036.038,1.253,1.343-1.311,1.285a1.009,1.009,0,0,0-.015,1.427h0Zm0,0" transform="translate(-193.63 -50.172)"/>
      <path id="Trazado_732701" data-name="Trazado 732701" d="M278.21,61.982a1.009,1.009,0,0,0,1.008-1.009V59.965h1.009a1.009,1.009,0,0,0,0-2.018h-1.009V56.938a1.009,1.009,0,0,0-2.018,0v1.009h-1.009a1.009,1.009,0,0,0,0,2.018H277.2v1.009A1.009,1.009,0,0,0,278.21,61.982Zm0,0" transform="translate(-235.337 -47.66)"/>
      <path id="Trazado_732702" data-name="Trazado 732702" d="M333.486,60.974a1.009,1.009,0,0,0-1.009-1.009h-1.6l2.313-2.313a1.009,1.009,0,0,0-.713-1.722h-4.035a1.009,1.009,0,0,0,0,2.018h1.6l-2.313,2.313a1.009,1.009,0,0,0,.713,1.722h4.035A1.009,1.009,0,0,0,333.486,60.974Zm0,0" transform="translate(-280.021 -47.66)"/>
      <path id="Trazado_732703" data-name="Trazado 732703" d="M59.518,18.357a1.009,1.009,0,0,0-1.009,1.009,5.05,5.05,0,0,1-5.044,5.044,1.009,1.009,0,0,0-1.009,1.009V35.742L46.27,24.915a1.009,1.009,0,0,0-.876-.5H43.377a7.069,7.069,0,0,0-7.061-7.061H16.14V7.261a5.05,5.05,0,0,1,5.044-5.044H53.465a5.05,5.05,0,0,1,5.044,5.044,1.009,1.009,0,0,0,2.018,0A7.069,7.069,0,0,0,53.465.2H21.184a7.07,7.07,0,0,0-7.062,7.061V17.349H7.061A7.069,7.069,0,0,0,0,24.41a1.009,1.009,0,0,0,2.018,0,5.05,5.05,0,0,1,5.044-5.044H36.316a5.05,5.05,0,0,1,5.044,5.044v12.1a5.05,5.05,0,0,1-5.044,5.044H21.184a1.009,1.009,0,0,0-.713.3l-12.4,12.4V42.568a1.009,1.009,0,0,0-1.009-1.009,5.049,5.049,0,0,1-5.044-5.044,1.009,1.009,0,0,0-2.018,0,7.073,7.073,0,0,0,6.053,6.99V56.691a1.01,1.01,0,0,0,.622.932,1,1,0,0,0,.387.076,1.009,1.009,0,0,0,.713-.3L21.6,43.577H36.316a7.069,7.069,0,0,0,7.061-7.061V26.428H44.81l7.78,13.619a1.007,1.007,0,0,0,.876.5,1.056,1.056,0,0,0,.259-.033,1.008,1.008,0,0,0,.749-.976V26.356a7.073,7.073,0,0,0,6.053-6.989,1.008,1.008,0,0,0-1.009-1.009Zm0,0" transform="translate(0)"/>
      <path id="Trazado_732704" data-name="Trazado 732704" d="M27.867,196.27v8.07a1.009,1.009,0,0,0,1.009,1.009H33.92a1.009,1.009,0,0,0,0-2.018H29.885v-2.017h3.026a1.009,1.009,0,0,0,0-2.018H29.885v-2.018H33.92a1.009,1.009,0,0,0,0-2.018H28.876A1.009,1.009,0,0,0,27.867,196.27Zm0,0" transform="translate(-23.832 -166.817)"/>
      <path id="Trazado_732705" data-name="Trazado 732705" d="M125.4,212.222v4.035a1.009,1.009,0,0,0,2.018,0v-4.035a1.009,1.009,0,1,1,2.018,0v4.035a1.009,1.009,0,0,0,2.018,0v-4.035a1.009,1.009,0,1,1,2.018,0v4.035a1.009,1.009,0,0,0,2.018,0v-4.035a3.013,3.013,0,0,0-5.044-2.239,3.013,3.013,0,0,0-5.044,2.239Zm0,0" transform="translate(-107.244 -178.733)"/>
      <path id="Trazado_732706" data-name="Trazado 732706" d="M199.1,217.266h1.009a1.009,1.009,0,0,0,0-2.018H199.1a2.018,2.018,0,0,1,0-4.035h1.009a1.009,1.009,0,0,0,0-2.018H199.1a4.035,4.035,0,1,0,0,8.07Zm0,0" transform="translate(-166.821 -178.733)"/>
      <path id="Trazado_732707" data-name="Trazado 732707" d="M225.96,143.566a3.026,3.026,0,0,0-3.026,3.026V147.6a1.008,1.008,0,0,0,1.009,1.008h4.035a1.009,1.009,0,1,0,0-2.018h-3.026a1.008,1.008,0,0,1,1.008-1.008,3.026,3.026,0,1,0-3.026-3.027,1.009,1.009,0,1,0,2.018,0,1.009,1.009,0,1,1,1.009,1.009Zm0,0" transform="translate(-190.653 -119.156)"/>
      <path id="Trazado_732708" data-name="Trazado 732708" d="M84.61,218.182h2.018a1.009,1.009,0,1,0,0-2.018H84.61a1.009,1.009,0,0,0,0,2.018Zm0,0" transform="translate(-71.496 -184.693)"/>
      <path id="Trazado_732709" data-name="Trazado 732709" d="M84.61,239.08h2.018a1.009,1.009,0,1,0,0-2.018H84.61a1.009,1.009,0,0,0,0,2.018Zm0,0" transform="translate(-71.496 -202.565)"/>
      <path id="Trazado_732710" data-name="Trazado 732710" d="M315.518,126.607a1.009,1.009,0,1,1-1.009-1.009A1.009,1.009,0,0,1,315.518,126.607Zm0,0" transform="translate(-268.106 -107.241)"/>
      <path id="Trazado_732711" data-name="Trazado 732711" d="M343.385,126.607a1.009,1.009,0,1,1-1.008-1.009A1.009,1.009,0,0,1,343.385,126.607Zm0,0" transform="translate(-291.938 -107.241)"/>
      <path id="Trazado_732712" data-name="Trazado 732712" d="M371.252,126.607a1.009,1.009,0,1,1-1.009-1.009A1.009,1.009,0,0,1,371.252,126.607Zm0,0" transform="translate(-315.769 -107.241)"/>
      <path id="Trazado_732713" data-name="Trazado 732713" d="M57.752,154.474a1.009,1.009,0,1,1-1.009-1.009A1.009,1.009,0,0,1,57.752,154.474Zm0,0" transform="translate(-47.664 -131.073)"/>
      <path id="Trazado_732714" data-name="Trazado 732714" d="M85.619,154.474a1.009,1.009,0,1,1-1.009-1.009A1.009,1.009,0,0,1,85.619,154.474Zm0,0" transform="translate(-71.496 -131.073)"/>
      <path id="Trazado_732715" data-name="Trazado 732715" d="M113.483,154.474a1.009,1.009,0,1,1-1.009-1.009A1.009,1.009,0,0,1,113.483,154.474Zm0,0" transform="translate(-95.325 -131.073)"/>
      <path id="Trazado_732716" data-name="Trazado 732716" d="M141.35,154.474a1.009,1.009,0,1,1-1.009-1.009A1.009,1.009,0,0,1,141.35,154.474Zm0,0" transform="translate(-119.157 -131.073)"/>
      <path id="Trazado_732717" data-name="Trazado 732717" d="M169.215,154.586a1.009,1.009,0,1,0-1.118.886,1.009,1.009,0,0,0,1.118-.886Zm0,0" transform="translate(-142.993 -131.07)"/>
    </g>
  </g>
</svg>
