<svg xmlns="http://www.w3.org/2000/svg" width="820" height="123" viewBox="0 0 820 123">
  <g id="Grupo_1016010" data-name="Grupo 1016010" transform="translate(-390 -33571)">
    <path id="Trazado_738042" data-name="Trazado 738042" d="M0,0H120V103H0Z" transform="translate(1090 33591)" fill="#3076b6"/>
    <path id="Trazado_738044" data-name="Trazado 738044" d="M0,0H130V103H0Z" transform="translate(390 33571)" fill="#3076b6"/>
    <path id="Trazado_733089" data-name="Trazado 733089" d="M0,0H799.764V103H0Z" transform="translate(400 33581)" fill="#dee4f0"/>
    <path id="Trazado_738043" data-name="Trazado 738043" d="M9.328,13.289a4.418,4.418,0,0,1-1.6,2.84,4.794,4.794,0,0,1-3.2,1.027,3.775,3.775,0,0,1-1.9-.516,3.335,3.335,0,0,1-1.277-1.434,5.35,5.35,0,0,1-.516-2.129,11.519,11.519,0,0,1,.219-2.426A7.662,7.662,0,0,1,2.074,7.9,5.158,5.158,0,0,1,3.926,6.063a4.721,4.721,0,0,1,2.441-.594A3.633,3.633,0,0,1,9.051,6.535,4.185,4.185,0,0,1,10.1,9.391H8.188a2.8,2.8,0,0,0-.512-1.762,1.824,1.824,0,0,0-1.4-.566,2.64,2.64,0,0,0-2.133.913,5.344,5.344,0,0,0-1.156,2.771l-.156,1.038-.07.8a4.711,4.711,0,0,0,.113,1.51,1.97,1.97,0,0,0,.621,1.077,1.812,1.812,0,0,0,1.133.394,2.605,2.605,0,0,0,2.8-2.258ZM15.359,17a2.507,2.507,0,0,1-.078-.789,3.134,3.134,0,0,1-2.258.945,2.589,2.589,0,0,1-1.824-.707,2.18,2.18,0,0,1-.676-1.754,2.588,2.588,0,0,1,1.156-2.1,5.034,5.034,0,0,1,2.938-.766l1.2.016.109-.578a1.744,1.744,0,0,0,0-.57,1.017,1.017,0,0,0-1.117-.867,1.685,1.685,0,0,0-1.043.3,1.3,1.3,0,0,0-.551.848l-1.852.016a2.318,2.318,0,0,1,.555-1.371A3.289,3.289,0,0,1,13.25,8.7,4.5,4.5,0,0,1,15,8.391a2.956,2.956,0,0,1,2.156.832A2.466,2.466,0,0,1,17.8,11.3l-.648,3.961-.062.7a2.5,2.5,0,0,0,.117.9L17.2,17Zm-1.906-1.359a2.041,2.041,0,0,0,1.086-.27,2.861,2.861,0,0,0,.852-.738l.289-1.6-.883-.008a3.1,3.1,0,0,0-1.672.395,1.447,1.447,0,0,0-.711,1.082.957.957,0,0,0,.23.824A1.127,1.127,0,0,0,13.453,15.641Zm10.891-5.359a3.411,3.411,0,0,0-.727-.078,2.168,2.168,0,0,0-1.937,1.008L20.664,17H18.813l1.461-8.453,1.758-.008-.187.961a2.419,2.419,0,0,1,2-1.125,3.039,3.039,0,0,1,.711.117Zm.422,2.484a6.538,6.538,0,0,1,.684-2.289A4.135,4.135,0,0,1,26.8,8.91a3.18,3.18,0,0,1,1.859-.527,2.494,2.494,0,0,1,2.1,1.023l.289-.867,1.688.008-1.4,8.219a3.99,3.99,0,0,1-4.219,3.57,3.945,3.945,0,0,1-1.687-.406A3.508,3.508,0,0,1,24.148,18.9l.984-1.117a2.372,2.372,0,0,0,1.938,1.055,2.271,2.271,0,0,0,1.559-.5,2.585,2.585,0,0,0,.871-1.5l.133-.594a2.991,2.991,0,0,1-2.219.914,2.367,2.367,0,0,1-1.9-.9,3.974,3.974,0,0,1-.785-2.375A7.807,7.807,0,0,1,24.766,12.766Zm1.836.164a5.713,5.713,0,0,0-.031.859,2.23,2.23,0,0,0,.375,1.313,1.258,1.258,0,0,0,1.023.508,2.186,2.186,0,0,0,1.844-.977l.664-3.734a1.508,1.508,0,0,0-1.445-.961,1.928,1.928,0,0,0-1.578.727,4.071,4.071,0,0,0-.836,2.1ZM38.242,17a2.507,2.507,0,0,1-.078-.789,3.134,3.134,0,0,1-2.258.945,2.589,2.589,0,0,1-1.824-.707,2.18,2.18,0,0,1-.676-1.754,2.588,2.588,0,0,1,1.156-2.1,5.034,5.034,0,0,1,2.938-.766l1.2.016.109-.578a1.744,1.744,0,0,0,0-.57A1.017,1.017,0,0,0,37.7,9.828a1.685,1.685,0,0,0-1.043.3,1.3,1.3,0,0,0-.551.848l-1.852.016A2.318,2.318,0,0,1,34.8,9.621,3.289,3.289,0,0,1,36.133,8.7a4.5,4.5,0,0,1,1.75-.312,2.956,2.956,0,0,1,2.156.832A2.466,2.466,0,0,1,40.68,11.3l-.648,3.961-.062.7a2.5,2.5,0,0,0,.117.9L40.078,17Zm-1.906-1.359a2.041,2.041,0,0,0,1.086-.27,2.861,2.861,0,0,0,.852-.738l.289-1.6-.883-.008a3.1,3.1,0,0,0-1.672.395A1.447,1.447,0,0,0,35.3,14.5a.957.957,0,0,0,.23.824A1.127,1.127,0,0,0,36.336,15.641Zm12.992.008a1.81,1.81,0,0,0,1.828-1.437l1.75-.008a2.993,2.993,0,0,1-.605,1.523,3.52,3.52,0,0,1-1.332,1.07,3.7,3.7,0,0,1-1.7.359,3.184,3.184,0,0,1-1.852-.562A3.11,3.11,0,0,1,46.3,15.082a4.836,4.836,0,0,1-.234-2.152l.023-.273a5.531,5.531,0,0,1,.715-2.223,4.173,4.173,0,0,1,1.5-1.535,3.766,3.766,0,0,1,2.047-.508,2.957,2.957,0,0,1,2.2.91,3.215,3.215,0,0,1,.82,2.285H51.641a1.889,1.889,0,0,0-.355-1.187,1.3,1.3,0,0,0-1.027-.492,1.876,1.876,0,0,0-1.711.922,5.146,5.146,0,0,0-.672,2.688Q47.82,15.617,49.328,15.648Zm4.961-2.906a5.562,5.562,0,0,1,.73-2.258,4.335,4.335,0,0,1,1.535-1.57,3.794,3.794,0,0,1,2.078-.523,3.139,3.139,0,0,1,3.027,2.117,4.887,4.887,0,0,1,.254,2.172,5.665,5.665,0,0,1-.73,2.375,4.318,4.318,0,0,1-1.547,1.582,3.848,3.848,0,0,1-2.09.52,3.136,3.136,0,0,1-3.016-2.105,4.824,4.824,0,0,1-.266-2.145Zm1.82,1.07a2.232,2.232,0,0,0,.434,1.316,1.387,1.387,0,0,0,1.1.52,1.948,1.948,0,0,0,1.6-.734,3.863,3.863,0,0,0,.809-2.07l.047-.766a2.7,2.7,0,0,0-.4-1.57,1.4,1.4,0,0,0-1.156-.6,2.024,2.024,0,0,0-1.875,1.164,4.349,4.349,0,0,0-.523,1.672A6.541,6.541,0,0,0,56.109,13.813Zm9.828-5.273-.187.992a3.226,3.226,0,0,1,2.508-1.141,2.044,2.044,0,0,1,1.758.848,3.383,3.383,0,0,1,.422,2.3L69.523,17H67.672l.922-5.484a2.806,2.806,0,0,0,.008-.625,1,1,0,0,0-1.109-.953,2.25,2.25,0,0,0-1.852,1.039L64.586,17H62.734L64.2,8.547Zm9.68-2.047-.359,2.055H76.7l-.242,1.406H75.008l-.8,4.734a1.619,1.619,0,0,0-.008.352q.047.508.625.531a3.529,3.529,0,0,0,.656-.07l-.125,1.484a4.245,4.245,0,0,1-1.164.164,1.729,1.729,0,0,1-1.449-.66,2.389,2.389,0,0,1-.379-1.707l.789-4.828H71.8l.25-1.406H73.4l.359-2.055ZM81.734,17a2.507,2.507,0,0,1-.078-.789,3.134,3.134,0,0,1-2.258.945,2.589,2.589,0,0,1-1.824-.707A2.18,2.18,0,0,1,76.9,14.7a2.588,2.588,0,0,1,1.156-2.1,5.034,5.034,0,0,1,2.938-.766l1.2.016.109-.578a1.744,1.744,0,0,0,0-.57,1.017,1.017,0,0,0-1.117-.867,1.685,1.685,0,0,0-1.043.3,1.3,1.3,0,0,0-.551.848l-1.852.016A2.318,2.318,0,0,1,78.3,9.621,3.289,3.289,0,0,1,79.625,8.7a4.5,4.5,0,0,1,1.75-.312,2.956,2.956,0,0,1,2.156.832,2.466,2.466,0,0,1,.641,2.074l-.648,3.961-.062.7a2.5,2.5,0,0,0,.117.9L83.57,17Zm-1.906-1.359a2.041,2.041,0,0,0,1.086-.27,2.861,2.861,0,0,0,.852-.738l.289-1.6-.883-.008a3.1,3.1,0,0,0-1.672.395,1.447,1.447,0,0,0-.711,1.082.957.957,0,0,0,.23.824A1.127,1.127,0,0,0,79.828,15.641Zm8.555-7.1-.164.9a3.259,3.259,0,0,1,2.5-1.047,2.427,2.427,0,0,1,1.324.367,1.738,1.738,0,0,1,.715.93,3.406,3.406,0,0,1,2.688-1.3,2.195,2.195,0,0,1,1.832.848,3.235,3.235,0,0,1,.449,2.285L96.813,17H94.961l.922-5.492a2.879,2.879,0,0,0,.008-.633,1.034,1.034,0,0,0-1.156-.937A1.949,1.949,0,0,0,92.922,11.2l-.023.172L91.93,17H90.07l.922-5.469A2.806,2.806,0,0,0,91,10.906a1.043,1.043,0,0,0-1.156-.969,2.042,2.042,0,0,0-1.734.93L87.039,17H85.188l1.461-8.453ZM100.742,17H98.891l1.469-8.453h1.852Zm-.117-10.617a1.044,1.044,0,0,1,.281-.734,1.03,1.03,0,0,1,.758-.32.985.985,0,0,1,.754.277.96.96,0,0,1,.3.715.988.988,0,0,1-.293.734,1.074,1.074,0,0,1-.746.3,1,1,0,0,1-.75-.27A.929.929,0,0,1,100.625,6.383Zm5.367,2.156-.187.992a3.226,3.226,0,0,1,2.508-1.141,2.044,2.044,0,0,1,1.758.848,3.383,3.383,0,0,1,.422,2.3L109.578,17h-1.852l.922-5.484a2.806,2.806,0,0,0,.008-.625,1,1,0,0,0-1.109-.953,2.25,2.25,0,0,0-1.852,1.039L104.641,17h-1.852l1.461-8.453ZM116.547,17a2.507,2.507,0,0,1-.078-.789,3.134,3.134,0,0,1-2.258.945,2.589,2.589,0,0,1-1.824-.707,2.18,2.18,0,0,1-.676-1.754,2.588,2.588,0,0,1,1.156-2.1,5.034,5.034,0,0,1,2.938-.766l1.2.016.109-.578a1.744,1.744,0,0,0,0-.57A1.017,1.017,0,0,0,116,9.828a1.685,1.685,0,0,0-1.043.3,1.3,1.3,0,0,0-.551.848l-1.852.016a2.318,2.318,0,0,1,.555-1.371,3.289,3.289,0,0,1,1.328-.918,4.5,4.5,0,0,1,1.75-.312,2.956,2.956,0,0,1,2.156.832,2.466,2.466,0,0,1,.641,2.074l-.648,3.961-.062.7a2.5,2.5,0,0,0,.117.9l-.008.141Zm-1.906-1.359a2.041,2.041,0,0,0,1.086-.27,2.861,2.861,0,0,0,.852-.738l.289-1.6-.883-.008a3.1,3.1,0,0,0-1.672.395A1.447,1.447,0,0,0,113.6,14.5a.957.957,0,0,0,.23.824A1.127,1.127,0,0,0,114.641,15.641Zm8.539-7.1-.187.992A3.226,3.226,0,0,1,125.5,8.391a2.044,2.044,0,0,1,1.758.848,3.383,3.383,0,0,1,.422,2.3L126.766,17h-1.852l.922-5.484a2.806,2.806,0,0,0,.008-.625,1,1,0,0,0-1.109-.953,2.25,2.25,0,0,0-1.852,1.039L121.828,17h-1.852l1.461-8.453Zm9.68-2.047L132.5,8.547h1.445L133.7,9.953H132.25l-.8,4.734a1.618,1.618,0,0,0-.008.352q.047.508.625.531a3.53,3.53,0,0,0,.656-.07l-.125,1.484a4.245,4.245,0,0,1-1.164.164,1.729,1.729,0,0,1-1.449-.66,2.389,2.389,0,0,1-.379-1.707l.789-4.828h-1.352l.25-1.406h1.344L131,6.492Zm4.922,10.664a3.541,3.541,0,0,1-1.91-.555,3.156,3.156,0,0,1-1.2-1.453,4.32,4.32,0,0,1-.293-2.055l.023-.32a5.657,5.657,0,0,1,.754-2.316A4.3,4.3,0,0,1,136.688,8.9a3.713,3.713,0,0,1,1.984-.508,2.769,2.769,0,0,1,2.379,1.182,4.337,4.337,0,0,1,.6,3l-.109.814h-5.32A2.3,2.3,0,0,0,136.625,15a1.61,1.61,0,0,0,1.313.631,2.847,2.847,0,0,0,2.2-1.039l.938.984a3.563,3.563,0,0,1-1.4,1.176A4.166,4.166,0,0,1,137.781,17.156Zm.789-7.25q-1.469-.047-2.2,2.078l3.508.008.031-.164a2.451,2.451,0,0,0,.008-.7,1.438,1.438,0,0,0-.437-.875A1.385,1.385,0,0,0,138.57,9.906Zm11.883-3.414-.359,2.055h1.445L151.3,9.953h-1.453l-.8,4.734a1.618,1.618,0,0,0-.008.352q.047.508.625.531a3.53,3.53,0,0,0,.656-.07l-.125,1.484a4.245,4.245,0,0,1-1.164.164,1.729,1.729,0,0,1-1.449-.66,2.389,2.389,0,0,1-.379-1.707l.789-4.828h-1.352l.25-1.406h1.344l.359-2.055ZM156.57,17a2.507,2.507,0,0,1-.078-.789,3.134,3.134,0,0,1-2.258.945,2.589,2.589,0,0,1-1.824-.707,2.18,2.18,0,0,1-.676-1.754,2.588,2.588,0,0,1,1.156-2.1,5.034,5.034,0,0,1,2.938-.766l1.2.016.109-.578a1.744,1.744,0,0,0,0-.57,1.017,1.017,0,0,0-1.117-.867,1.685,1.685,0,0,0-1.043.3,1.3,1.3,0,0,0-.551.848l-1.852.016a2.318,2.318,0,0,1,.555-1.371,3.289,3.289,0,0,1,1.328-.918,4.5,4.5,0,0,1,1.75-.312,2.956,2.956,0,0,1,2.156.832,2.466,2.466,0,0,1,.641,2.074l-.648,3.961-.062.7a2.5,2.5,0,0,0,.117.9l-.008.141Zm-1.906-1.359a2.041,2.041,0,0,0,1.086-.27,2.862,2.862,0,0,0,.852-.738l.289-1.6-.883-.008a3.1,3.1,0,0,0-1.672.395,1.447,1.447,0,0,0-.711,1.082.957.957,0,0,0,.23.824A1.127,1.127,0,0,0,154.664,15.641Zm8.539-7.1-.187.992a3.226,3.226,0,0,1,2.508-1.141,2.044,2.044,0,0,1,1.758.848,3.383,3.383,0,0,1,.422,2.3L166.789,17h-1.852l.922-5.484a2.806,2.806,0,0,0,.008-.625,1,1,0,0,0-1.109-.953,2.25,2.25,0,0,0-1.852,1.039L161.852,17H160l1.461-8.453Zm5.938,4.219a6.6,6.6,0,0,1,.711-2.371,3.9,3.9,0,0,1,1.359-1.531,3.206,3.206,0,0,1,1.8-.473,2.483,2.483,0,0,1,2.063,1.008l.3-.852,1.672.008-2.031,11.7h-1.852l.766-3.977a2.912,2.912,0,0,1-2.164.883,2.354,2.354,0,0,1-1.914-.9,3.954,3.954,0,0,1-.758-2.371,6.527,6.527,0,0,1,.023-.961Zm1.836.164-.039.563a2.816,2.816,0,0,0,.332,1.6,1.2,1.2,0,0,0,1.043.559,1.754,1.754,0,0,0,1.02-.246,3.127,3.127,0,0,0,.785-.707l.688-3.859a1.5,1.5,0,0,0-1.422-.922,1.881,1.881,0,0,0-1.512.672,3.893,3.893,0,0,0-.84,1.977Zm11.875,3.242a3.066,3.066,0,0,1-2.406.992,2.355,2.355,0,0,1-1.363-.406,2.113,2.113,0,0,1-.773-1.09,3.99,3.99,0,0,1-.137-1.645l.914-5.469h1.852l-.922,5.492a2.912,2.912,0,0,0-.008.563.95.95,0,0,0,.977,1.008,2.236,2.236,0,0,0,1.984-.984l1.063-6.078h1.852L184.422,17h-1.734Zm7.3.992a3.541,3.541,0,0,1-1.91-.555,3.156,3.156,0,0,1-1.2-1.453,4.32,4.32,0,0,1-.293-2.055l.023-.32a5.657,5.657,0,0,1,.754-2.316A4.3,4.3,0,0,1,189.063,8.9a3.713,3.713,0,0,1,1.984-.508,2.769,2.769,0,0,1,2.379,1.182,4.337,4.337,0,0,1,.6,3l-.109.814h-5.32A2.3,2.3,0,0,0,189,15a1.61,1.61,0,0,0,1.313.631,2.847,2.847,0,0,0,2.2-1.039l.938.984a3.563,3.563,0,0,1-1.4,1.176A4.166,4.166,0,0,1,190.156,17.156Zm.789-7.25q-1.469-.047-2.2,2.078l3.508.008.031-.164a2.451,2.451,0,0,0,.008-.7,1.438,1.438,0,0,0-.437-.875A1.385,1.385,0,0,0,190.945,9.906ZM207.633,17h-1.922l.875-5.047h-4.922L200.789,17h-1.93l1.977-11.375h1.93l-.828,4.734h4.922l.82-4.734h1.93Zm13.836-6.078h-6.734V9.328h6.734Zm0,3.3h-6.734v-1.57h6.734Zm14.359-.93a4.418,4.418,0,0,1-1.6,2.84,4.794,4.794,0,0,1-3.2,1.027,3.775,3.775,0,0,1-1.9-.516,3.336,3.336,0,0,1-1.277-1.434,5.35,5.35,0,0,1-.516-2.129,11.519,11.519,0,0,1,.219-2.426,7.662,7.662,0,0,1,1.02-2.754,5.158,5.158,0,0,1,1.852-1.836,4.721,4.721,0,0,1,2.441-.594,3.633,3.633,0,0,1,2.684,1.066A4.185,4.185,0,0,1,236.6,9.391h-1.914a2.8,2.8,0,0,0-.512-1.762,1.824,1.824,0,0,0-1.4-.566,2.64,2.64,0,0,0-2.133.913,5.344,5.344,0,0,0-1.156,2.771l-.156,1.038-.07.8a4.711,4.711,0,0,0,.113,1.51,1.97,1.97,0,0,0,.621,1.077,1.812,1.812,0,0,0,1.133.394,2.605,2.605,0,0,0,2.8-2.258Zm1.453-.547a5.562,5.562,0,0,1,.73-2.258,4.335,4.335,0,0,1,1.535-1.57,3.794,3.794,0,0,1,2.078-.523,3.139,3.139,0,0,1,3.027,2.117,4.886,4.886,0,0,1,.254,2.172,5.665,5.665,0,0,1-.73,2.375,4.318,4.318,0,0,1-1.547,1.582,3.848,3.848,0,0,1-2.09.52,3.136,3.136,0,0,1-3.016-2.105,4.824,4.824,0,0,1-.266-2.145Zm1.82,1.07a2.232,2.232,0,0,0,.434,1.316,1.387,1.387,0,0,0,1.1.52,1.948,1.948,0,0,0,1.6-.734,3.863,3.863,0,0,0,.809-2.07l.047-.766a2.7,2.7,0,0,0-.4-1.57,1.4,1.4,0,0,0-1.156-.6,2.024,2.024,0,0,0-1.875,1.164,4.349,4.349,0,0,0-.523,1.672A6.541,6.541,0,0,0,239.1,13.813Zm9.828-5.273-.187.992a3.226,3.226,0,0,1,2.508-1.141,2.044,2.044,0,0,1,1.758.848,3.383,3.383,0,0,1,.422,2.3L252.516,17h-1.852l.922-5.484a2.806,2.806,0,0,0,.008-.625,1,1,0,0,0-1.109-.953,2.25,2.25,0,0,0-1.852,1.039L247.578,17h-1.852l1.461-8.453Zm9.219,7.109a1.81,1.81,0,0,0,1.828-1.437l1.75-.008a2.993,2.993,0,0,1-.605,1.523,3.52,3.52,0,0,1-1.332,1.07,3.7,3.7,0,0,1-1.7.359,3.184,3.184,0,0,1-1.852-.562,3.11,3.11,0,0,1-1.117-1.512,4.836,4.836,0,0,1-.234-2.152l.023-.273a5.532,5.532,0,0,1,.715-2.223,4.173,4.173,0,0,1,1.5-1.535,3.766,3.766,0,0,1,2.047-.508,2.957,2.957,0,0,1,2.2.91,3.215,3.215,0,0,1,.82,2.285h-1.734a1.889,1.889,0,0,0-.355-1.187,1.3,1.3,0,0,0-1.027-.492,1.876,1.876,0,0,0-1.711.922,5.146,5.146,0,0,0-.672,2.688Q256.641,15.617,258.148,15.648Zm8.344,1.508a3.541,3.541,0,0,1-1.91-.555,3.156,3.156,0,0,1-1.2-1.453,4.32,4.32,0,0,1-.293-2.055l.023-.32a5.658,5.658,0,0,1,.754-2.316A4.3,4.3,0,0,1,265.4,8.9a3.713,3.713,0,0,1,1.984-.508,2.769,2.769,0,0,1,2.379,1.182,4.337,4.337,0,0,1,.6,3l-.109.814h-5.32A2.3,2.3,0,0,0,265.336,15a1.61,1.61,0,0,0,1.313.631,2.847,2.847,0,0,0,2.2-1.039l.938.984a3.563,3.563,0,0,1-1.4,1.176A4.166,4.166,0,0,1,266.492,17.156Zm.789-7.25q-1.469-.047-2.2,2.078l3.508.008.031-.164a2.45,2.45,0,0,0,.008-.7,1.437,1.437,0,0,0-.437-.875A1.385,1.385,0,0,0,267.281,9.906Zm6.969-1.367-.187.992a3.226,3.226,0,0,1,2.508-1.141,2.044,2.044,0,0,1,1.758.848,3.383,3.383,0,0,1,.422,2.3L277.836,17h-1.852l.922-5.484a2.806,2.806,0,0,0,.008-.625,1,1,0,0,0-1.109-.953,2.25,2.25,0,0,0-1.852,1.039L272.9,17h-1.852l1.461-8.453Zm9.68-2.047-.359,2.055h1.445l-.242,1.406H283.32l-.8,4.734a1.619,1.619,0,0,0-.008.352q.047.508.625.531a3.529,3.529,0,0,0,.656-.07l-.125,1.484a4.245,4.245,0,0,1-1.164.164,1.729,1.729,0,0,1-1.449-.66,2.389,2.389,0,0,1-.379-1.707l.789-4.828h-1.352l.25-1.406h1.344l.359-2.055Zm6.625,3.789a3.411,3.411,0,0,0-.727-.078,2.168,2.168,0,0,0-1.937,1.008L286.875,17h-1.852l1.461-8.453,1.758-.008-.187.961a2.419,2.419,0,0,1,2-1.125,3.04,3.04,0,0,1,.711.117ZM295.344,17a2.508,2.508,0,0,1-.078-.789,3.134,3.134,0,0,1-2.258.945,2.589,2.589,0,0,1-1.824-.707,2.18,2.18,0,0,1-.676-1.754,2.588,2.588,0,0,1,1.156-2.1,5.034,5.034,0,0,1,2.938-.766l1.2.016.109-.578a1.744,1.744,0,0,0,0-.57,1.017,1.017,0,0,0-1.117-.867,1.685,1.685,0,0,0-1.043.3,1.3,1.3,0,0,0-.551.848l-1.852.016a2.318,2.318,0,0,1,.555-1.371,3.289,3.289,0,0,1,1.328-.918,4.5,4.5,0,0,1,1.75-.312,2.956,2.956,0,0,1,2.156.832,2.466,2.466,0,0,1,.641,2.074l-.648,3.961-.062.7a2.5,2.5,0,0,0,.117.9L297.18,17Zm-1.906-1.359a2.041,2.041,0,0,0,1.086-.27,2.861,2.861,0,0,0,.852-.738l.289-1.6-.883-.008a3.1,3.1,0,0,0-1.672.395A1.447,1.447,0,0,0,292.4,14.5a.957.957,0,0,0,.23.824A1.127,1.127,0,0,0,293.438,15.641Zm9.047.008a1.81,1.81,0,0,0,1.828-1.437l1.75-.008a2.993,2.993,0,0,1-.605,1.523,3.52,3.52,0,0,1-1.332,1.07,3.7,3.7,0,0,1-1.7.359,3.184,3.184,0,0,1-1.852-.562,3.11,3.11,0,0,1-1.117-1.512,4.836,4.836,0,0,1-.234-2.152l.023-.273a5.531,5.531,0,0,1,.715-2.223,4.173,4.173,0,0,1,1.5-1.535,3.766,3.766,0,0,1,2.047-.508,2.957,2.957,0,0,1,2.2.91,3.215,3.215,0,0,1,.82,2.285H304.8a1.889,1.889,0,0,0-.355-1.187,1.3,1.3,0,0,0-1.027-.492,1.876,1.876,0,0,0-1.711.922,5.146,5.146,0,0,0-.672,2.688Q300.977,15.617,302.484,15.648ZM308.969,17h-1.852l1.469-8.453h1.852Zm-.117-10.617a1.044,1.044,0,0,1,.281-.734,1.03,1.03,0,0,1,.758-.32.985.985,0,0,1,.754.277.96.96,0,0,1,.3.715.988.988,0,0,1-.293.734,1.074,1.074,0,0,1-.746.3,1,1,0,0,1-.75-.27A.929.929,0,0,1,308.852,6.383Zm2.633,6.359a5.562,5.562,0,0,1,.73-2.258,4.335,4.335,0,0,1,1.535-1.57,3.794,3.794,0,0,1,2.078-.523,3.139,3.139,0,0,1,3.027,2.117,4.887,4.887,0,0,1,.254,2.172,5.665,5.665,0,0,1-.73,2.375,4.319,4.319,0,0,1-1.547,1.582,3.848,3.848,0,0,1-2.09.52,3.136,3.136,0,0,1-3.016-2.105,4.824,4.824,0,0,1-.266-2.145Zm1.82,1.07a2.232,2.232,0,0,0,.434,1.316,1.387,1.387,0,0,0,1.1.52,1.948,1.948,0,0,0,1.6-.734,3.863,3.863,0,0,0,.809-2.07l.047-.766a2.7,2.7,0,0,0-.4-1.57,1.4,1.4,0,0,0-1.156-.6,2.024,2.024,0,0,0-1.875,1.164,4.349,4.349,0,0,0-.523,1.672A6.541,6.541,0,0,0,313.3,13.813ZM316.914,5h2.227l-2.469,2.367-1.609,0Zm6.219,3.539-.187.992a3.226,3.226,0,0,1,2.508-1.141,2.044,2.044,0,0,1,1.758.848,3.383,3.383,0,0,1,.422,2.3L326.719,17h-1.852l.922-5.484a2.806,2.806,0,0,0,.008-.625,1,1,0,0,0-1.109-.953,2.25,2.25,0,0,0-1.852,1.039L321.781,17H319.93l1.461-8.453Zm13.625-2.047L336.4,8.547h1.445L337.6,9.953h-1.453l-.8,4.734a1.619,1.619,0,0,0-.008.352q.047.508.625.531a3.529,3.529,0,0,0,.656-.07l-.125,1.484a4.245,4.245,0,0,1-1.164.164,1.729,1.729,0,0,1-1.449-.66,2.389,2.389,0,0,1-.379-1.707l.789-4.828h-1.352l.25-1.406h1.344l.359-2.055ZM342.875,17a2.508,2.508,0,0,1-.078-.789,3.134,3.134,0,0,1-2.258.945,2.589,2.589,0,0,1-1.824-.707,2.18,2.18,0,0,1-.676-1.754,2.588,2.588,0,0,1,1.156-2.1,5.034,5.034,0,0,1,2.938-.766l1.2.016.109-.578a1.744,1.744,0,0,0,0-.57,1.017,1.017,0,0,0-1.117-.867,1.685,1.685,0,0,0-1.043.3,1.3,1.3,0,0,0-.551.848l-1.852.016a2.318,2.318,0,0,1,.555-1.371,3.289,3.289,0,0,1,1.328-.918,4.5,4.5,0,0,1,1.75-.312,2.956,2.956,0,0,1,2.156.832,2.466,2.466,0,0,1,.641,2.074l-.648,3.961-.062.7a2.5,2.5,0,0,0,.117.9l-.008.141Zm-1.906-1.359a2.041,2.041,0,0,0,1.086-.27,2.861,2.861,0,0,0,.852-.738l.289-1.6-.883-.008a3.1,3.1,0,0,0-1.672.395,1.447,1.447,0,0,0-.711,1.082.957.957,0,0,0,.23.824A1.127,1.127,0,0,0,340.969,15.641Zm8.539-7.1-.187.992a3.226,3.226,0,0,1,2.508-1.141,2.044,2.044,0,0,1,1.758.848,3.383,3.383,0,0,1,.422,2.3L353.094,17h-1.852l.922-5.484a2.806,2.806,0,0,0,.008-.625,1,1,0,0,0-1.109-.953,2.25,2.25,0,0,0-1.852,1.039L348.156,17H346.3l1.461-8.453Zm5.938,4.219a6.6,6.6,0,0,1,.711-2.371,3.9,3.9,0,0,1,1.359-1.531,3.206,3.206,0,0,1,1.8-.473,2.483,2.483,0,0,1,2.063,1.008l.3-.852,1.672.008-2.031,11.7h-1.852l.766-3.977a2.912,2.912,0,0,1-2.164.883,2.354,2.354,0,0,1-1.914-.9,3.954,3.954,0,0,1-.758-2.371,6.527,6.527,0,0,1,.023-.961Zm1.836.164-.039.563a2.816,2.816,0,0,0,.332,1.6,1.2,1.2,0,0,0,1.043.559,1.754,1.754,0,0,0,1.02-.246,3.127,3.127,0,0,0,.785-.707l.688-3.859a1.5,1.5,0,0,0-1.422-.922,1.881,1.881,0,0,0-1.512.672,3.893,3.893,0,0,0-.84,1.977Zm11.875,3.242a3.066,3.066,0,0,1-2.406.992,2.355,2.355,0,0,1-1.363-.406,2.113,2.113,0,0,1-.773-1.09,3.99,3.99,0,0,1-.137-1.645l.914-5.469h1.852l-.922,5.492a2.911,2.911,0,0,0-.008.563.95.95,0,0,0,.977,1.008,2.236,2.236,0,0,0,1.984-.984l1.063-6.078h1.852L370.727,17h-1.734Zm7.3.992a3.541,3.541,0,0,1-1.91-.555,3.156,3.156,0,0,1-1.2-1.453,4.32,4.32,0,0,1-.293-2.055l.023-.32a5.658,5.658,0,0,1,.754-2.316A4.3,4.3,0,0,1,375.367,8.9a3.713,3.713,0,0,1,1.984-.508,2.769,2.769,0,0,1,2.379,1.182,4.337,4.337,0,0,1,.6,3l-.109.814H374.9A2.3,2.3,0,0,0,375.3,15a1.61,1.61,0,0,0,1.313.631,2.847,2.847,0,0,0,2.2-1.039l.938.984a3.563,3.563,0,0,1-1.4,1.176A4.166,4.166,0,0,1,376.461,17.156Zm.789-7.25q-1.469-.047-2.2,2.078l3.508.008.031-.164a2.45,2.45,0,0,0,.008-.7,1.437,1.437,0,0,0-.437-.875A1.385,1.385,0,0,0,377.25,9.906ZM393.938,17h-1.922l.875-5.047h-4.922L387.094,17h-1.93l1.977-11.375h1.93l-.828,4.734h4.922l.82-4.734h1.93Zm9.961-5.687,1.992-2.766h2.164L404.82,12.8,406.7,17h-1.937l-1.18-2.883L401.508,17h-2.156l3.336-4.375-1.82-4.078H402.8Zm17.164,1.977a4.418,4.418,0,0,1-1.6,2.84,4.794,4.794,0,0,1-3.2,1.027,3.775,3.775,0,0,1-1.9-.516,3.335,3.335,0,0,1-1.277-1.434,5.35,5.35,0,0,1-.516-2.129,11.518,11.518,0,0,1,.219-2.426,7.662,7.662,0,0,1,1.02-2.754,5.158,5.158,0,0,1,1.852-1.836,4.721,4.721,0,0,1,2.441-.594,3.633,3.633,0,0,1,2.684,1.066,4.185,4.185,0,0,1,1.051,2.855h-1.914a2.8,2.8,0,0,0-.512-1.762,1.824,1.824,0,0,0-1.4-.566,2.64,2.64,0,0,0-2.133.913,5.344,5.344,0,0,0-1.156,2.771l-.156,1.038-.07.8a4.711,4.711,0,0,0,.113,1.51,1.97,1.97,0,0,0,.621,1.077,1.812,1.812,0,0,0,1.133.394,2.605,2.605,0,0,0,2.8-2.258ZM427.094,17a2.508,2.508,0,0,1-.078-.789,3.134,3.134,0,0,1-2.258.945,2.589,2.589,0,0,1-1.824-.707,2.18,2.18,0,0,1-.676-1.754,2.588,2.588,0,0,1,1.156-2.1,5.034,5.034,0,0,1,2.938-.766l1.2.016.109-.578a1.744,1.744,0,0,0,0-.57,1.017,1.017,0,0,0-1.117-.867,1.685,1.685,0,0,0-1.043.3,1.3,1.3,0,0,0-.551.848l-1.852.016a2.318,2.318,0,0,1,.555-1.371,3.289,3.289,0,0,1,1.328-.918,4.5,4.5,0,0,1,1.75-.312,2.956,2.956,0,0,1,2.156.832,2.466,2.466,0,0,1,.641,2.074l-.648,3.961-.062.7a2.5,2.5,0,0,0,.117.9L428.93,17Zm-1.906-1.359a2.041,2.041,0,0,0,1.086-.27,2.861,2.861,0,0,0,.852-.738l.289-1.6-.883-.008a3.1,3.1,0,0,0-1.672.395,1.447,1.447,0,0,0-.711,1.082.957.957,0,0,0,.23.824A1.127,1.127,0,0,0,425.188,15.641Zm10.586.523a3.066,3.066,0,0,1-2.406.992A2.355,2.355,0,0,1,432,16.75a2.113,2.113,0,0,1-.773-1.09,3.99,3.99,0,0,1-.137-1.645l.914-5.469h1.852l-.922,5.492a2.911,2.911,0,0,0-.008.563.95.95,0,0,0,.977,1.008,2.236,2.236,0,0,0,1.984-.984l1.063-6.078H438.8L437.344,17h-1.734Zm3.883-3.4a6.7,6.7,0,0,1,.7-2.344,3.968,3.968,0,0,1,1.352-1.551,3.121,3.121,0,0,1,1.789-.488,2.5,2.5,0,0,1,2.016.961L446.328,5h1.859L446.1,17h-1.656l.125-.875a2.946,2.946,0,0,1-2.312,1.039,2.325,2.325,0,0,1-1.887-.91,3.975,3.975,0,0,1-.762-2.379,6.316,6.316,0,0,1,.023-.945Zm1.8.727a2.6,2.6,0,0,0,.3,1.539,1.2,1.2,0,0,0,1.059.586,2.175,2.175,0,0,0,1.852-1.039l.633-3.633a1.445,1.445,0,0,0-1.422-1.008,1.9,1.9,0,0,0-1.711.938A5,5,0,0,0,441.453,13.492ZM453.109,17a2.508,2.508,0,0,1-.078-.789,3.134,3.134,0,0,1-2.258.945,2.589,2.589,0,0,1-1.824-.707,2.18,2.18,0,0,1-.676-1.754,2.588,2.588,0,0,1,1.156-2.1,5.034,5.034,0,0,1,2.938-.766l1.2.016.109-.578a1.744,1.744,0,0,0,0-.57,1.017,1.017,0,0,0-1.117-.867,1.685,1.685,0,0,0-1.043.3,1.3,1.3,0,0,0-.551.848l-1.852.016a2.318,2.318,0,0,1,.555-1.371A3.289,3.289,0,0,1,451,8.7a4.5,4.5,0,0,1,1.75-.312,2.956,2.956,0,0,1,2.156.832,2.466,2.466,0,0,1,.641,2.074l-.648,3.961-.062.7a2.5,2.5,0,0,0,.117.9l-.008.141ZM451.2,15.641a2.041,2.041,0,0,0,1.086-.27,2.861,2.861,0,0,0,.852-.738l.289-1.6-.883-.008a3.1,3.1,0,0,0-1.672.395,1.447,1.447,0,0,0-.711,1.082.957.957,0,0,0,.23.824A1.127,1.127,0,0,0,451.2,15.641ZM458.531,17H456.68l2.086-12h1.852ZM468.7,6.492l-.359,2.055h1.445l-.242,1.406h-1.453l-.8,4.734a1.619,1.619,0,0,0-.008.352q.047.508.625.531a3.529,3.529,0,0,0,.656-.07l-.125,1.484a4.245,4.245,0,0,1-1.164.164,1.729,1.729,0,0,1-1.449-.66,2.389,2.389,0,0,1-.379-1.707l.789-4.828h-1.352l.25-1.406h1.344l.359-2.055ZM474.813,17a2.508,2.508,0,0,1-.078-.789,3.134,3.134,0,0,1-2.258.945,2.589,2.589,0,0,1-1.824-.707,2.18,2.18,0,0,1-.676-1.754,2.588,2.588,0,0,1,1.156-2.1,5.034,5.034,0,0,1,2.938-.766l1.2.016.109-.578a1.744,1.744,0,0,0,0-.57,1.017,1.017,0,0,0-1.117-.867,1.685,1.685,0,0,0-1.043.3,1.3,1.3,0,0,0-.551.848l-1.852.016a2.318,2.318,0,0,1,.555-1.371A3.289,3.289,0,0,1,472.7,8.7a4.5,4.5,0,0,1,1.75-.312,2.956,2.956,0,0,1,2.156.832,2.466,2.466,0,0,1,.641,2.074l-.648,3.961-.062.7a2.5,2.5,0,0,0,.117.9l-.008.141Zm-1.906-1.359a2.041,2.041,0,0,0,1.086-.27,2.861,2.861,0,0,0,.852-.738l.289-1.6-.883-.008a3.1,3.1,0,0,0-1.672.395,1.447,1.447,0,0,0-.711,1.082.957.957,0,0,0,.23.824A1.127,1.127,0,0,0,472.906,15.641Zm8.539-7.1-.187.992a3.226,3.226,0,0,1,2.508-1.141,2.044,2.044,0,0,1,1.758.848,3.383,3.383,0,0,1,.422,2.3L485.031,17H483.18l.922-5.484a2.806,2.806,0,0,0,.008-.625A1,1,0,0,0,483,9.938a2.25,2.25,0,0,0-1.852,1.039L480.094,17h-1.852L479.7,8.547Zm5.938,4.219a6.6,6.6,0,0,1,.711-2.371,3.9,3.9,0,0,1,1.359-1.531,3.206,3.206,0,0,1,1.8-.473,2.483,2.483,0,0,1,2.063,1.008l.3-.852,1.672.008-2.031,11.7h-1.852l.766-3.977a2.912,2.912,0,0,1-2.164.883,2.354,2.354,0,0,1-1.914-.9,3.954,3.954,0,0,1-.758-2.371,6.527,6.527,0,0,1,.023-.961Zm1.836.164-.039.563a2.816,2.816,0,0,0,.332,1.6,1.2,1.2,0,0,0,1.043.559,1.754,1.754,0,0,0,1.02-.246,3.127,3.127,0,0,0,.785-.707l.688-3.859a1.5,1.5,0,0,0-1.422-.922,1.881,1.881,0,0,0-1.512.672,3.893,3.893,0,0,0-.84,1.977Zm11.875,3.242a3.066,3.066,0,0,1-2.406.992,2.355,2.355,0,0,1-1.363-.406,2.113,2.113,0,0,1-.773-1.09,3.99,3.99,0,0,1-.137-1.645l.914-5.469h1.852l-.922,5.492a2.911,2.911,0,0,0-.008.563.95.95,0,0,0,.977,1.008,2.236,2.236,0,0,0,1.984-.984l1.063-6.078h1.852L502.664,17H500.93Zm7.3.992a3.541,3.541,0,0,1-1.91-.555,3.156,3.156,0,0,1-1.2-1.453A4.32,4.32,0,0,1,505,13.094l.023-.32a5.658,5.658,0,0,1,.754-2.316A4.3,4.3,0,0,1,507.3,8.9a3.713,3.713,0,0,1,1.984-.508,2.769,2.769,0,0,1,2.379,1.182,4.337,4.337,0,0,1,.6,3l-.109.814h-5.32A2.3,2.3,0,0,0,507.242,15a1.61,1.61,0,0,0,1.313.631,2.847,2.847,0,0,0,2.2-1.039l.938.984a3.563,3.563,0,0,1-1.4,1.176A4.166,4.166,0,0,1,508.4,17.156Zm.789-7.25q-1.469-.047-2.2,2.078l3.508.008.031-.164a2.45,2.45,0,0,0,.008-.7,1.437,1.437,0,0,0-.437-.875A1.385,1.385,0,0,0,509.188,9.906ZM525.875,17h-1.922l.875-5.047h-4.922L519.031,17H517.1l1.977-11.375h1.93l-.828,4.734H525.1l.82-4.734h1.93ZM9.328,37.289a4.418,4.418,0,0,1-1.6,2.84,4.794,4.794,0,0,1-3.2,1.027,3.775,3.775,0,0,1-1.9-.516,3.335,3.335,0,0,1-1.277-1.434,5.35,5.35,0,0,1-.516-2.129,11.519,11.519,0,0,1,.219-2.426A7.662,7.662,0,0,1,2.074,31.9a5.158,5.158,0,0,1,1.852-1.836,4.721,4.721,0,0,1,2.441-.594,3.633,3.633,0,0,1,2.684,1.066A4.185,4.185,0,0,1,10.1,33.391H8.188a2.8,2.8,0,0,0-.512-1.762,1.824,1.824,0,0,0-1.4-.566,2.64,2.64,0,0,0-2.133.913,5.344,5.344,0,0,0-1.156,2.771l-.156,1.038-.07.8a4.711,4.711,0,0,0,.113,1.51,1.97,1.97,0,0,0,.621,1.077,1.812,1.812,0,0,0,1.133.394,2.605,2.605,0,0,0,2.8-2.258ZM15.359,41a2.507,2.507,0,0,1-.078-.789,3.134,3.134,0,0,1-2.258.945,2.589,2.589,0,0,1-1.824-.707,2.18,2.18,0,0,1-.676-1.754,2.588,2.588,0,0,1,1.156-2.1,5.034,5.034,0,0,1,2.938-.766l1.2.016.109-.578a1.744,1.744,0,0,0,0-.57,1.017,1.017,0,0,0-1.117-.867,1.685,1.685,0,0,0-1.043.3,1.3,1.3,0,0,0-.551.848l-1.852.016a2.318,2.318,0,0,1,.555-1.371A3.289,3.289,0,0,1,13.25,32.7,4.5,4.5,0,0,1,15,32.391a2.956,2.956,0,0,1,2.156.832A2.466,2.466,0,0,1,17.8,35.3l-.648,3.961-.062.7a2.5,2.5,0,0,0,.117.9L17.2,41Zm-1.906-1.359a2.041,2.041,0,0,0,1.086-.27,2.861,2.861,0,0,0,.852-.738l.289-1.6-.883-.008a3.1,3.1,0,0,0-1.672.395,1.447,1.447,0,0,0-.711,1.082.957.957,0,0,0,.23.824A1.127,1.127,0,0,0,13.453,39.641Zm10.891-5.359a3.411,3.411,0,0,0-.727-.078,2.168,2.168,0,0,0-1.937,1.008L20.664,41H18.813l1.461-8.453,1.758-.008-.187.961a2.419,2.419,0,0,1,2-1.125,3.039,3.039,0,0,1,.711.117Zm.422,2.484a6.538,6.538,0,0,1,.684-2.289A4.135,4.135,0,0,1,26.8,32.91a3.18,3.18,0,0,1,1.859-.527,2.494,2.494,0,0,1,2.1,1.023l.289-.867,1.688.008-1.4,8.219a3.99,3.99,0,0,1-4.219,3.57,3.945,3.945,0,0,1-1.687-.406A3.508,3.508,0,0,1,24.148,42.9l.984-1.117a2.372,2.372,0,0,0,1.938,1.055,2.271,2.271,0,0,0,1.559-.5,2.585,2.585,0,0,0,.871-1.5l.133-.594a2.991,2.991,0,0,1-2.219.914,2.367,2.367,0,0,1-1.9-.9,3.974,3.974,0,0,1-.785-2.375A7.807,7.807,0,0,1,24.766,36.766Zm1.836.164a5.713,5.713,0,0,0-.031.859,2.23,2.23,0,0,0,.375,1.313,1.258,1.258,0,0,0,1.023.508,2.186,2.186,0,0,0,1.844-.977l.664-3.734a1.508,1.508,0,0,0-1.445-.961,1.928,1.928,0,0,0-1.578.727,4.071,4.071,0,0,0-.836,2.1ZM38.242,41a2.507,2.507,0,0,1-.078-.789,3.134,3.134,0,0,1-2.258.945,2.589,2.589,0,0,1-1.824-.707,2.18,2.18,0,0,1-.676-1.754,2.588,2.588,0,0,1,1.156-2.1,5.034,5.034,0,0,1,2.938-.766l1.2.016.109-.578a1.744,1.744,0,0,0,0-.57,1.017,1.017,0,0,0-1.117-.867,1.685,1.685,0,0,0-1.043.3,1.3,1.3,0,0,0-.551.848l-1.852.016a2.318,2.318,0,0,1,.555-1.371,3.289,3.289,0,0,1,1.328-.918,4.5,4.5,0,0,1,1.75-.312,2.956,2.956,0,0,1,2.156.832A2.466,2.466,0,0,1,40.68,35.3l-.648,3.961-.062.7a2.5,2.5,0,0,0,.117.9L40.078,41Zm-1.906-1.359a2.041,2.041,0,0,0,1.086-.27,2.861,2.861,0,0,0,.852-.738l.289-1.6-.883-.008a3.1,3.1,0,0,0-1.672.395A1.447,1.447,0,0,0,35.3,38.5a.957.957,0,0,0,.23.824A1.127,1.127,0,0,0,36.336,39.641Zm12.992.008a1.81,1.81,0,0,0,1.828-1.437l1.75-.008a2.993,2.993,0,0,1-.605,1.523,3.52,3.52,0,0,1-1.332,1.07,3.7,3.7,0,0,1-1.7.359,3.184,3.184,0,0,1-1.852-.562A3.11,3.11,0,0,1,46.3,39.082a4.836,4.836,0,0,1-.234-2.152l.023-.273a5.531,5.531,0,0,1,.715-2.223,4.173,4.173,0,0,1,1.5-1.535,3.766,3.766,0,0,1,2.047-.508,2.957,2.957,0,0,1,2.2.91,3.215,3.215,0,0,1,.82,2.285H51.641a1.889,1.889,0,0,0-.355-1.187,1.3,1.3,0,0,0-1.027-.492,1.876,1.876,0,0,0-1.711.922,5.146,5.146,0,0,0-.672,2.688Q47.82,39.617,49.328,39.648Zm4.961-2.906a5.562,5.562,0,0,1,.73-2.258,4.335,4.335,0,0,1,1.535-1.57,3.794,3.794,0,0,1,2.078-.523,3.139,3.139,0,0,1,3.027,2.117,4.887,4.887,0,0,1,.254,2.172,5.665,5.665,0,0,1-.73,2.375,4.318,4.318,0,0,1-1.547,1.582,3.848,3.848,0,0,1-2.09.52,3.136,3.136,0,0,1-3.016-2.105,4.824,4.824,0,0,1-.266-2.145Zm1.82,1.07a2.232,2.232,0,0,0,.434,1.316,1.387,1.387,0,0,0,1.1.52,1.948,1.948,0,0,0,1.6-.734,3.863,3.863,0,0,0,.809-2.07l.047-.766a2.7,2.7,0,0,0-.4-1.57,1.4,1.4,0,0,0-1.156-.6,2.024,2.024,0,0,0-1.875,1.164,4.349,4.349,0,0,0-.523,1.672A6.541,6.541,0,0,0,56.109,37.813Zm9.828-5.273-.187.992a3.226,3.226,0,0,1,2.508-1.141,2.044,2.044,0,0,1,1.758.848,3.383,3.383,0,0,1,.422,2.3L69.523,41H67.672l.922-5.484a2.806,2.806,0,0,0,.008-.625,1,1,0,0,0-1.109-.953,2.25,2.25,0,0,0-1.852,1.039L64.586,41H62.734L64.2,32.547Zm9.68-2.047-.359,2.055H76.7l-.242,1.406H75.008l-.8,4.734a1.619,1.619,0,0,0-.008.352q.047.508.625.531a3.529,3.529,0,0,0,.656-.07l-.125,1.484a4.245,4.245,0,0,1-1.164.164,1.729,1.729,0,0,1-1.449-.66,2.389,2.389,0,0,1-.379-1.707l.789-4.828H71.8l.25-1.406H73.4l.359-2.055ZM81.734,41a2.507,2.507,0,0,1-.078-.789,3.134,3.134,0,0,1-2.258.945,2.589,2.589,0,0,1-1.824-.707A2.18,2.18,0,0,1,76.9,38.7a2.588,2.588,0,0,1,1.156-2.1,5.034,5.034,0,0,1,2.938-.766l1.2.016.109-.578a1.744,1.744,0,0,0,0-.57,1.017,1.017,0,0,0-1.117-.867,1.685,1.685,0,0,0-1.043.3,1.3,1.3,0,0,0-.551.848l-1.852.016a2.318,2.318,0,0,1,.555-1.371,3.289,3.289,0,0,1,1.328-.918,4.5,4.5,0,0,1,1.75-.312,2.956,2.956,0,0,1,2.156.832,2.466,2.466,0,0,1,.641,2.074l-.648,3.961-.062.7a2.5,2.5,0,0,0,.117.9L83.57,41Zm-1.906-1.359a2.041,2.041,0,0,0,1.086-.27,2.861,2.861,0,0,0,.852-.738l.289-1.6-.883-.008a3.1,3.1,0,0,0-1.672.395,1.447,1.447,0,0,0-.711,1.082.957.957,0,0,0,.23.824A1.127,1.127,0,0,0,79.828,39.641Zm8.555-7.1-.164.9a3.259,3.259,0,0,1,2.5-1.047,2.427,2.427,0,0,1,1.324.367,1.738,1.738,0,0,1,.715.93,3.406,3.406,0,0,1,2.688-1.3,2.195,2.195,0,0,1,1.832.848,3.235,3.235,0,0,1,.449,2.285L96.813,41H94.961l.922-5.492a2.879,2.879,0,0,0,.008-.633,1.034,1.034,0,0,0-1.156-.937A1.949,1.949,0,0,0,92.922,35.2l-.023.172L91.93,41H90.07l.922-5.469A2.806,2.806,0,0,0,91,34.906a1.043,1.043,0,0,0-1.156-.969,2.042,2.042,0,0,0-1.734.93L87.039,41H85.188l1.461-8.453ZM100.742,41H98.891l1.469-8.453h1.852Zm-.117-10.617a1.044,1.044,0,0,1,.281-.734,1.03,1.03,0,0,1,.758-.32.985.985,0,0,1,.754.277.96.96,0,0,1,.3.715.988.988,0,0,1-.293.734,1.074,1.074,0,0,1-.746.3,1,1,0,0,1-.75-.27A.929.929,0,0,1,100.625,30.383Zm5.367,2.156-.187.992a3.226,3.226,0,0,1,2.508-1.141,2.044,2.044,0,0,1,1.758.848,3.383,3.383,0,0,1,.422,2.3L109.578,41h-1.852l.922-5.484a2.806,2.806,0,0,0,.008-.625,1,1,0,0,0-1.109-.953,2.25,2.25,0,0,0-1.852,1.039L104.641,41h-1.852l1.461-8.453ZM116.547,41a2.507,2.507,0,0,1-.078-.789,3.134,3.134,0,0,1-2.258.945,2.589,2.589,0,0,1-1.824-.707,2.18,2.18,0,0,1-.676-1.754,2.588,2.588,0,0,1,1.156-2.1,5.034,5.034,0,0,1,2.938-.766l1.2.016.109-.578a1.744,1.744,0,0,0,0-.57A1.017,1.017,0,0,0,116,33.828a1.685,1.685,0,0,0-1.043.3,1.3,1.3,0,0,0-.551.848l-1.852.016a2.318,2.318,0,0,1,.555-1.371,3.289,3.289,0,0,1,1.328-.918,4.5,4.5,0,0,1,1.75-.312,2.956,2.956,0,0,1,2.156.832,2.466,2.466,0,0,1,.641,2.074l-.648,3.961-.062.7a2.5,2.5,0,0,0,.117.9l-.008.141Zm-1.906-1.359a2.041,2.041,0,0,0,1.086-.27,2.861,2.861,0,0,0,.852-.738l.289-1.6-.883-.008a3.1,3.1,0,0,0-1.672.395A1.447,1.447,0,0,0,113.6,38.5a.957.957,0,0,0,.23.824A1.127,1.127,0,0,0,114.641,39.641Zm8.539-7.1-.187.992a3.226,3.226,0,0,1,2.508-1.141,2.044,2.044,0,0,1,1.758.848,3.383,3.383,0,0,1,.422,2.3L126.766,41h-1.852l.922-5.484a2.806,2.806,0,0,0,.008-.625,1,1,0,0,0-1.109-.953,2.25,2.25,0,0,0-1.852,1.039L121.828,41h-1.852l1.461-8.453Zm9.68-2.047-.359,2.055h1.445l-.242,1.406H132.25l-.8,4.734a1.618,1.618,0,0,0-.008.352q.047.508.625.531a3.53,3.53,0,0,0,.656-.07l-.125,1.484a4.245,4.245,0,0,1-1.164.164,1.729,1.729,0,0,1-1.449-.66,2.389,2.389,0,0,1-.379-1.707l.789-4.828h-1.352l.25-1.406h1.344L131,30.492Zm4.922,10.664a3.541,3.541,0,0,1-1.91-.555,3.156,3.156,0,0,1-1.2-1.453,4.32,4.32,0,0,1-.293-2.055l.023-.32a5.657,5.657,0,0,1,.754-2.316,4.3,4.3,0,0,1,1.527-1.559,3.713,3.713,0,0,1,1.984-.508,2.769,2.769,0,0,1,2.379,1.182,4.337,4.337,0,0,1,.6,3l-.109.814h-5.32A2.3,2.3,0,0,0,136.625,39a1.61,1.61,0,0,0,1.313.631,2.847,2.847,0,0,0,2.2-1.039l.938.984a3.563,3.563,0,0,1-1.4,1.176A4.166,4.166,0,0,1,137.781,41.156Zm.789-7.25q-1.469-.047-2.2,2.078l3.508.008.031-.164a2.451,2.451,0,0,0,.008-.7,1.438,1.438,0,0,0-.437-.875A1.385,1.385,0,0,0,138.57,33.906Zm11.883-3.414-.359,2.055h1.445l-.242,1.406h-1.453l-.8,4.734a1.618,1.618,0,0,0-.008.352q.047.508.625.531a3.53,3.53,0,0,0,.656-.07l-.125,1.484a4.245,4.245,0,0,1-1.164.164,1.729,1.729,0,0,1-1.449-.66,2.389,2.389,0,0,1-.379-1.707l.789-4.828h-1.352l.25-1.406h1.344l.359-2.055ZM156.57,41a2.507,2.507,0,0,1-.078-.789,3.134,3.134,0,0,1-2.258.945,2.589,2.589,0,0,1-1.824-.707,2.18,2.18,0,0,1-.676-1.754,2.588,2.588,0,0,1,1.156-2.1,5.034,5.034,0,0,1,2.938-.766l1.2.016.109-.578a1.744,1.744,0,0,0,0-.57,1.017,1.017,0,0,0-1.117-.867,1.685,1.685,0,0,0-1.043.3,1.3,1.3,0,0,0-.551.848l-1.852.016a2.318,2.318,0,0,1,.555-1.371,3.289,3.289,0,0,1,1.328-.918,4.5,4.5,0,0,1,1.75-.312,2.956,2.956,0,0,1,2.156.832,2.466,2.466,0,0,1,.641,2.074l-.648,3.961-.062.7a2.5,2.5,0,0,0,.117.9l-.008.141Zm-1.906-1.359a2.041,2.041,0,0,0,1.086-.27,2.862,2.862,0,0,0,.852-.738l.289-1.6-.883-.008a3.1,3.1,0,0,0-1.672.395,1.447,1.447,0,0,0-.711,1.082.957.957,0,0,0,.23.824A1.127,1.127,0,0,0,154.664,39.641Zm8.539-7.1-.187.992a3.226,3.226,0,0,1,2.508-1.141,2.044,2.044,0,0,1,1.758.848,3.383,3.383,0,0,1,.422,2.3L166.789,41h-1.852l.922-5.484a2.806,2.806,0,0,0,.008-.625,1,1,0,0,0-1.109-.953,2.25,2.25,0,0,0-1.852,1.039L161.852,41H160l1.461-8.453Zm5.938,4.219a6.6,6.6,0,0,1,.711-2.371,3.9,3.9,0,0,1,1.359-1.531,3.206,3.206,0,0,1,1.8-.473,2.483,2.483,0,0,1,2.063,1.008l.3-.852,1.672.008-2.031,11.7h-1.852l.766-3.977a2.912,2.912,0,0,1-2.164.883,2.354,2.354,0,0,1-1.914-.9,3.954,3.954,0,0,1-.758-2.371,6.527,6.527,0,0,1,.023-.961Zm1.836.164-.039.563a2.816,2.816,0,0,0,.332,1.6,1.2,1.2,0,0,0,1.043.559,1.754,1.754,0,0,0,1.02-.246,3.127,3.127,0,0,0,.785-.707l.688-3.859a1.5,1.5,0,0,0-1.422-.922,1.881,1.881,0,0,0-1.512.672,3.893,3.893,0,0,0-.84,1.977Zm11.875,3.242a3.066,3.066,0,0,1-2.406.992,2.355,2.355,0,0,1-1.363-.406,2.113,2.113,0,0,1-.773-1.09,3.99,3.99,0,0,1-.137-1.645l.914-5.469h1.852l-.922,5.492a2.912,2.912,0,0,0-.008.563.95.95,0,0,0,.977,1.008,2.236,2.236,0,0,0,1.984-.984l1.063-6.078h1.852L184.422,41h-1.734Zm7.3.992a3.541,3.541,0,0,1-1.91-.555,3.156,3.156,0,0,1-1.2-1.453,4.32,4.32,0,0,1-.293-2.055l.023-.32a5.657,5.657,0,0,1,.754-2.316,4.3,4.3,0,0,1,1.527-1.559,3.713,3.713,0,0,1,1.984-.508,2.769,2.769,0,0,1,2.379,1.182,4.337,4.337,0,0,1,.6,3l-.109.814h-5.32A2.3,2.3,0,0,0,189,39a1.61,1.61,0,0,0,1.313.631,2.847,2.847,0,0,0,2.2-1.039l.938.984a3.563,3.563,0,0,1-1.4,1.176A4.166,4.166,0,0,1,190.156,41.156Zm.789-7.25q-1.469-.047-2.2,2.078l3.508.008.031-.164a2.451,2.451,0,0,0,.008-.7,1.438,1.438,0,0,0-.437-.875A1.385,1.385,0,0,0,190.945,33.906ZM207.633,41h-1.922l.875-5.047h-4.922L200.789,41h-1.93l1.977-11.375h1.93l-.828,4.734h4.922l.82-4.734h1.93Zm13.836-6.078h-6.734V33.328h6.734Zm0,3.3h-6.734v-1.57h6.734Zm11.266-1.977a3.1,3.1,0,0,1-4.617-.043,4.126,4.126,0,0,1-.891-2.762,4.528,4.528,0,0,1,.453-2.039,3.379,3.379,0,0,1,1.289-1.422,3.657,3.657,0,0,1,1.938-.508,3.286,3.286,0,0,1,2.727,1.281,5.4,5.4,0,0,1,1.008,3.43v.531a7.009,7.009,0,0,1-1.391,4.7,5.235,5.235,0,0,1-4.148,1.641h-.227v-1.57h.273a3.887,3.887,0,0,0,2.578-.809A3.371,3.371,0,0,0,232.734,36.242Zm-1.828-.477a1.916,1.916,0,0,0,1.07-.328,2.162,2.162,0,0,0,.773-.906v-.742a3.564,3.564,0,0,0-.516-2.023A1.553,1.553,0,0,0,230.9,31a1.535,1.535,0,0,0-1.309.676,2.841,2.841,0,0,0-.488,1.707,2.806,2.806,0,0,0,.492,1.727A1.559,1.559,0,0,0,230.906,35.766Zm12.953.445a6.2,6.2,0,0,1-.918,3.7,3.242,3.242,0,0,1-2.793,1.246,3.285,3.285,0,0,1-2.777-1.215,5.94,5.94,0,0,1-.957-3.6V34.375a6.11,6.11,0,0,1,.918-3.68,3.827,3.827,0,0,1,5.586-.031,5.923,5.923,0,0,1,.941,3.578Zm-1.9-2.125a4.813,4.813,0,0,0-.437-2.348,1.672,1.672,0,0,0-2.758-.039,4.448,4.448,0,0,0-.461,2.207v2.578a4.937,4.937,0,0,0,.445,2.375,1.5,1.5,0,0,0,1.4.781,1.469,1.469,0,0,0,1.352-.723,4.645,4.645,0,0,0,.461-2.262Zm10.992,2.125a6.2,6.2,0,0,1-.918,3.7,3.242,3.242,0,0,1-2.793,1.246,3.285,3.285,0,0,1-2.777-1.215,5.94,5.94,0,0,1-.957-3.6V34.375a6.11,6.11,0,0,1,.918-3.68,3.827,3.827,0,0,1,5.586-.031,5.923,5.923,0,0,1,.941,3.578Zm-1.9-2.125a4.813,4.813,0,0,0-.437-2.348,1.672,1.672,0,0,0-2.758-.039,4.448,4.448,0,0,0-.461,2.207v2.578a4.937,4.937,0,0,0,.445,2.375,1.5,1.5,0,0,0,1.4.781,1.469,1.469,0,0,0,1.352-.723,4.645,4.645,0,0,0,.461-2.262Zm10.031-1.547-.164.9a3.259,3.259,0,0,1,2.5-1.047,2.427,2.427,0,0,1,1.324.367,1.738,1.738,0,0,1,.715.93,3.406,3.406,0,0,1,2.688-1.3,2.195,2.195,0,0,1,1.832.848,3.235,3.235,0,0,1,.449,2.285L269.516,41h-1.852l.922-5.492a2.879,2.879,0,0,0,.008-.633,1.034,1.034,0,0,0-1.156-.937,1.949,1.949,0,0,0-1.812,1.258l-.023.172L264.633,41h-1.859l.922-5.469a2.806,2.806,0,0,0,.008-.625,1.043,1.043,0,0,0-1.156-.969,2.042,2.042,0,0,0-1.734.93L259.742,41h-1.852l1.461-8.453ZM271.9,36.766a6.538,6.538,0,0,1,.684-2.289,4.135,4.135,0,0,1,1.348-1.566,3.18,3.18,0,0,1,1.859-.527,2.494,2.494,0,0,1,2.1,1.023l.289-.867,1.688.008-1.4,8.219a3.99,3.99,0,0,1-4.219,3.57,3.945,3.945,0,0,1-1.687-.406,3.508,3.508,0,0,1-1.281-1.031l.984-1.117a2.372,2.372,0,0,0,1.938,1.055,2.271,2.271,0,0,0,1.559-.5,2.585,2.585,0,0,0,.871-1.5l.133-.594a2.991,2.991,0,0,1-2.219.914,2.367,2.367,0,0,1-1.9-.9,3.974,3.974,0,0,1-.785-2.375A7.808,7.808,0,0,1,271.9,36.766Zm1.836.164a5.715,5.715,0,0,0-.031.859,2.23,2.23,0,0,0,.375,1.313,1.258,1.258,0,0,0,1.023.508,2.185,2.185,0,0,0,1.844-.977l.664-3.734a1.508,1.508,0,0,0-1.445-.961,1.928,1.928,0,0,0-1.578.727,4.071,4.071,0,0,0-.836,2.1Zm7.016,5.047h-1.531L285.7,29.625h1.539ZM288.539,41h-1.852l2.086-12h1.852Zm13.828-5.687,1.992-2.766h2.164l-3.234,4.25,1.883,4.2h-1.937l-1.18-2.883L299.977,41H297.82l3.336-4.375-1.82-4.078h1.938Zm10.883-.867h1.156a2.069,2.069,0,0,0,1.387-.453A1.617,1.617,0,0,0,316.3,32.7a1.762,1.762,0,0,0-.426-1.262,1.714,1.714,0,0,0-1.3-.449,1.813,1.813,0,0,0-1.258.441,1.475,1.475,0,0,0-.492,1.152h-1.9a2.873,2.873,0,0,1,.465-1.594,3.123,3.123,0,0,1,1.3-1.121,4.225,4.225,0,0,1,1.863-.4,3.912,3.912,0,0,1,2.676.855A3,3,0,0,1,318.2,32.7a2.417,2.417,0,0,1-.488,1.441,3.062,3.062,0,0,1-1.262,1.02,2.791,2.791,0,0,1,1.426,1.008,2.759,2.759,0,0,1,.488,1.641,3.055,3.055,0,0,1-1.051,2.438,4.613,4.613,0,0,1-5.449.031,2.882,2.882,0,0,1-1.047-2.328h1.9a1.588,1.588,0,0,0,.5,1.219,1.911,1.911,0,0,0,1.355.469,1.971,1.971,0,0,0,1.391-.469,1.758,1.758,0,0,0,.508-1.359,1.776,1.776,0,0,0-.531-1.383,2.271,2.271,0,0,0-1.578-.484H313.25ZM325.336,41h-1.852l2.086-12h1.852Zm2.469.977h-1.531l6.484-12.352H334.3Zm10.875-3.32q.133-.773-1-1.074a12.762,12.762,0,0,1-1.551-.48,2.138,2.138,0,0,1-1.555-2.094,2.378,2.378,0,0,1,1.035-1.887,3.794,3.794,0,0,1,2.387-.73,3.266,3.266,0,0,1,2.191.758,2.417,2.417,0,0,1,.832,1.945l-1.836-.008a1.185,1.185,0,0,0-.32-.918,1.307,1.307,0,0,0-.922-.348,1.817,1.817,0,0,0-1.059.3,1.135,1.135,0,0,0-.512.8q-.109.711,1,.988a10.975,10.975,0,0,1,1.641.512,2.14,2.14,0,0,1,1.492,2.125,2.336,2.336,0,0,1-.527,1.4,3.077,3.077,0,0,1-1.309.914,4.477,4.477,0,0,1-1.742.293,3.437,3.437,0,0,1-2.293-.8,2.512,2.512,0,0,1-.895-2.023l1.789.008a1.361,1.361,0,0,0,.406,1.031,1.57,1.57,0,0,0,1.07.359,2.126,2.126,0,0,0,1.145-.285A1.094,1.094,0,0,0,338.68,38.656ZM9.328,61.289a4.418,4.418,0,0,1-1.6,2.84,4.794,4.794,0,0,1-3.2,1.027,3.775,3.775,0,0,1-1.9-.516,3.335,3.335,0,0,1-1.277-1.434,5.35,5.35,0,0,1-.516-2.129,11.519,11.519,0,0,1,.219-2.426A7.662,7.662,0,0,1,2.074,55.9a5.158,5.158,0,0,1,1.852-1.836,4.721,4.721,0,0,1,2.441-.594,3.633,3.633,0,0,1,2.684,1.066A4.185,4.185,0,0,1,10.1,57.391H8.188a2.8,2.8,0,0,0-.512-1.762,1.824,1.824,0,0,0-1.4-.566,2.64,2.64,0,0,0-2.133.913,5.344,5.344,0,0,0-1.156,2.771l-.156,1.038-.07.8a4.711,4.711,0,0,0,.113,1.51,1.97,1.97,0,0,0,.621,1.077,1.812,1.812,0,0,0,1.133.394,2.605,2.605,0,0,0,2.8-2.258ZM15.359,65a2.507,2.507,0,0,1-.078-.789,3.134,3.134,0,0,1-2.258.945,2.589,2.589,0,0,1-1.824-.707,2.18,2.18,0,0,1-.676-1.754,2.588,2.588,0,0,1,1.156-2.1,5.034,5.034,0,0,1,2.938-.766l1.2.016.109-.578a1.744,1.744,0,0,0,0-.57,1.017,1.017,0,0,0-1.117-.867,1.685,1.685,0,0,0-1.043.3,1.3,1.3,0,0,0-.551.848l-1.852.016a2.318,2.318,0,0,1,.555-1.371A3.289,3.289,0,0,1,13.25,56.7,4.5,4.5,0,0,1,15,56.391a2.956,2.956,0,0,1,2.156.832A2.466,2.466,0,0,1,17.8,59.3l-.648,3.961-.062.7a2.5,2.5,0,0,0,.117.9L17.2,65Zm-1.906-1.359a2.041,2.041,0,0,0,1.086-.27,2.861,2.861,0,0,0,.852-.738l.289-1.6-.883-.008a3.1,3.1,0,0,0-1.672.395,1.447,1.447,0,0,0-.711,1.082.957.957,0,0,0,.23.824A1.127,1.127,0,0,0,13.453,63.641Zm10.891-5.359a3.411,3.411,0,0,0-.727-.078,2.168,2.168,0,0,0-1.937,1.008L20.664,65H18.813l1.461-8.453,1.758-.008-.187.961a2.419,2.419,0,0,1,2-1.125,3.039,3.039,0,0,1,.711.117Zm.422,2.484a6.538,6.538,0,0,1,.684-2.289A4.135,4.135,0,0,1,26.8,56.91a3.18,3.18,0,0,1,1.859-.527,2.494,2.494,0,0,1,2.1,1.023l.289-.867,1.688.008-1.4,8.219a3.99,3.99,0,0,1-4.219,3.57,3.945,3.945,0,0,1-1.687-.406A3.508,3.508,0,0,1,24.148,66.9l.984-1.117a2.372,2.372,0,0,0,1.938,1.055,2.271,2.271,0,0,0,1.559-.5,2.585,2.585,0,0,0,.871-1.5l.133-.594a2.991,2.991,0,0,1-2.219.914,2.367,2.367,0,0,1-1.9-.9,3.974,3.974,0,0,1-.785-2.375A7.807,7.807,0,0,1,24.766,60.766Zm1.836.164a5.713,5.713,0,0,0-.031.859,2.23,2.23,0,0,0,.375,1.313,1.258,1.258,0,0,0,1.023.508,2.186,2.186,0,0,0,1.844-.977l.664-3.734a1.508,1.508,0,0,0-1.445-.961,1.928,1.928,0,0,0-1.578.727,4.071,4.071,0,0,0-.836,2.1ZM38.242,65a2.507,2.507,0,0,1-.078-.789,3.134,3.134,0,0,1-2.258.945,2.589,2.589,0,0,1-1.824-.707,2.18,2.18,0,0,1-.676-1.754,2.588,2.588,0,0,1,1.156-2.1,5.034,5.034,0,0,1,2.938-.766l1.2.016.109-.578a1.744,1.744,0,0,0,0-.57,1.017,1.017,0,0,0-1.117-.867,1.685,1.685,0,0,0-1.043.3,1.3,1.3,0,0,0-.551.848l-1.852.016a2.318,2.318,0,0,1,.555-1.371,3.289,3.289,0,0,1,1.328-.918,4.5,4.5,0,0,1,1.75-.312,2.956,2.956,0,0,1,2.156.832A2.466,2.466,0,0,1,40.68,59.3l-.648,3.961-.062.7a2.5,2.5,0,0,0,.117.9L40.078,65Zm-1.906-1.359a2.041,2.041,0,0,0,1.086-.27,2.861,2.861,0,0,0,.852-.738l.289-1.6-.883-.008a3.1,3.1,0,0,0-1.672.395A1.447,1.447,0,0,0,35.3,62.5a.957.957,0,0,0,.23.824A1.127,1.127,0,0,0,36.336,63.641Zm12.992.008a1.81,1.81,0,0,0,1.828-1.437l1.75-.008a2.993,2.993,0,0,1-.605,1.523,3.52,3.52,0,0,1-1.332,1.07,3.7,3.7,0,0,1-1.7.359,3.184,3.184,0,0,1-1.852-.562A3.11,3.11,0,0,1,46.3,63.082a4.836,4.836,0,0,1-.234-2.152l.023-.273a5.531,5.531,0,0,1,.715-2.223,4.173,4.173,0,0,1,1.5-1.535,3.766,3.766,0,0,1,2.047-.508,2.957,2.957,0,0,1,2.2.91,3.215,3.215,0,0,1,.82,2.285H51.641a1.889,1.889,0,0,0-.355-1.187,1.3,1.3,0,0,0-1.027-.492,1.876,1.876,0,0,0-1.711.922,5.146,5.146,0,0,0-.672,2.688Q47.82,63.617,49.328,63.648Zm4.961-2.906a5.562,5.562,0,0,1,.73-2.258,4.335,4.335,0,0,1,1.535-1.57,3.794,3.794,0,0,1,2.078-.523,3.139,3.139,0,0,1,3.027,2.117,4.887,4.887,0,0,1,.254,2.172,5.665,5.665,0,0,1-.73,2.375,4.318,4.318,0,0,1-1.547,1.582,3.848,3.848,0,0,1-2.09.52,3.136,3.136,0,0,1-3.016-2.105,4.824,4.824,0,0,1-.266-2.145Zm1.82,1.07a2.232,2.232,0,0,0,.434,1.316,1.387,1.387,0,0,0,1.1.52,1.948,1.948,0,0,0,1.6-.734,3.863,3.863,0,0,0,.809-2.07l.047-.766a2.7,2.7,0,0,0-.4-1.57,1.4,1.4,0,0,0-1.156-.6,2.024,2.024,0,0,0-1.875,1.164,4.349,4.349,0,0,0-.523,1.672A6.541,6.541,0,0,0,56.109,61.813Zm9.828-5.273-.187.992a3.226,3.226,0,0,1,2.508-1.141,2.044,2.044,0,0,1,1.758.848,3.383,3.383,0,0,1,.422,2.3L69.523,65H67.672l.922-5.484a2.806,2.806,0,0,0,.008-.625,1,1,0,0,0-1.109-.953,2.25,2.25,0,0,0-1.852,1.039L64.586,65H62.734L64.2,56.547Zm9.68-2.047-.359,2.055H76.7l-.242,1.406H75.008l-.8,4.734a1.619,1.619,0,0,0-.008.352q.047.508.625.531a3.529,3.529,0,0,0,.656-.07l-.125,1.484a4.245,4.245,0,0,1-1.164.164,1.729,1.729,0,0,1-1.449-.66,2.389,2.389,0,0,1-.379-1.707l.789-4.828H71.8l.25-1.406H73.4l.359-2.055ZM81.734,65a2.507,2.507,0,0,1-.078-.789,3.134,3.134,0,0,1-2.258.945,2.589,2.589,0,0,1-1.824-.707A2.18,2.18,0,0,1,76.9,62.7a2.588,2.588,0,0,1,1.156-2.1,5.034,5.034,0,0,1,2.938-.766l1.2.016.109-.578a1.744,1.744,0,0,0,0-.57,1.017,1.017,0,0,0-1.117-.867,1.685,1.685,0,0,0-1.043.3,1.3,1.3,0,0,0-.551.848l-1.852.016a2.318,2.318,0,0,1,.555-1.371,3.289,3.289,0,0,1,1.328-.918,4.5,4.5,0,0,1,1.75-.312,2.956,2.956,0,0,1,2.156.832,2.466,2.466,0,0,1,.641,2.074l-.648,3.961-.062.7a2.5,2.5,0,0,0,.117.9L83.57,65Zm-1.906-1.359a2.041,2.041,0,0,0,1.086-.27,2.861,2.861,0,0,0,.852-.738l.289-1.6-.883-.008a3.1,3.1,0,0,0-1.672.395,1.447,1.447,0,0,0-.711,1.082.957.957,0,0,0,.23.824A1.127,1.127,0,0,0,79.828,63.641Zm8.555-7.1-.164.9a3.259,3.259,0,0,1,2.5-1.047,2.427,2.427,0,0,1,1.324.367,1.738,1.738,0,0,1,.715.93,3.406,3.406,0,0,1,2.688-1.3,2.195,2.195,0,0,1,1.832.848,3.235,3.235,0,0,1,.449,2.285L96.813,65H94.961l.922-5.492a2.879,2.879,0,0,0,.008-.633,1.034,1.034,0,0,0-1.156-.937A1.949,1.949,0,0,0,92.922,59.2l-.023.172L91.93,65H90.07l.922-5.469A2.806,2.806,0,0,0,91,58.906a1.043,1.043,0,0,0-1.156-.969,2.042,2.042,0,0,0-1.734.93L87.039,65H85.188l1.461-8.453ZM100.742,65H98.891l1.469-8.453h1.852Zm-.117-10.617a1.044,1.044,0,0,1,.281-.734,1.03,1.03,0,0,1,.758-.32.985.985,0,0,1,.754.277.96.96,0,0,1,.3.715.988.988,0,0,1-.293.734,1.074,1.074,0,0,1-.746.3,1,1,0,0,1-.75-.27A.929.929,0,0,1,100.625,54.383Zm5.367,2.156-.187.992a3.226,3.226,0,0,1,2.508-1.141,2.044,2.044,0,0,1,1.758.848,3.383,3.383,0,0,1,.422,2.3L109.578,65h-1.852l.922-5.484a2.806,2.806,0,0,0,.008-.625,1,1,0,0,0-1.109-.953,2.25,2.25,0,0,0-1.852,1.039L104.641,65h-1.852l1.461-8.453ZM116.547,65a2.507,2.507,0,0,1-.078-.789,3.134,3.134,0,0,1-2.258.945,2.589,2.589,0,0,1-1.824-.707,2.18,2.18,0,0,1-.676-1.754,2.588,2.588,0,0,1,1.156-2.1,5.034,5.034,0,0,1,2.938-.766l1.2.016.109-.578a1.744,1.744,0,0,0,0-.57A1.017,1.017,0,0,0,116,57.828a1.685,1.685,0,0,0-1.043.3,1.3,1.3,0,0,0-.551.848l-1.852.016a2.318,2.318,0,0,1,.555-1.371,3.289,3.289,0,0,1,1.328-.918,4.5,4.5,0,0,1,1.75-.312,2.956,2.956,0,0,1,2.156.832,2.466,2.466,0,0,1,.641,2.074l-.648,3.961-.062.7a2.5,2.5,0,0,0,.117.9l-.008.141Zm-1.906-1.359a2.041,2.041,0,0,0,1.086-.27,2.861,2.861,0,0,0,.852-.738l.289-1.6-.883-.008a3.1,3.1,0,0,0-1.672.395A1.447,1.447,0,0,0,113.6,62.5a.957.957,0,0,0,.23.824A1.127,1.127,0,0,0,114.641,63.641Zm8.539-7.1-.187.992a3.226,3.226,0,0,1,2.508-1.141,2.044,2.044,0,0,1,1.758.848,3.383,3.383,0,0,1,.422,2.3L126.766,65h-1.852l.922-5.484a2.806,2.806,0,0,0,.008-.625,1,1,0,0,0-1.109-.953,2.25,2.25,0,0,0-1.852,1.039L121.828,65h-1.852l1.461-8.453Zm9.68-2.047-.359,2.055h1.445l-.242,1.406H132.25l-.8,4.734a1.618,1.618,0,0,0-.008.352q.047.508.625.531a3.53,3.53,0,0,0,.656-.07l-.125,1.484a4.245,4.245,0,0,1-1.164.164,1.729,1.729,0,0,1-1.449-.66,2.389,2.389,0,0,1-.379-1.707l.789-4.828h-1.352l.25-1.406h1.344L131,54.492Zm4.922,10.664a3.541,3.541,0,0,1-1.91-.555,3.156,3.156,0,0,1-1.2-1.453,4.32,4.32,0,0,1-.293-2.055l.023-.32a5.657,5.657,0,0,1,.754-2.316,4.3,4.3,0,0,1,1.527-1.559,3.713,3.713,0,0,1,1.984-.508,2.769,2.769,0,0,1,2.379,1.182,4.337,4.337,0,0,1,.6,3l-.109.814h-5.32A2.3,2.3,0,0,0,136.625,63a1.61,1.61,0,0,0,1.313.631,2.847,2.847,0,0,0,2.2-1.039l.938.984a3.563,3.563,0,0,1-1.4,1.176A4.166,4.166,0,0,1,137.781,65.156Zm.789-7.25q-1.469-.047-2.2,2.078l3.508.008.031-.164a2.451,2.451,0,0,0,.008-.7,1.438,1.438,0,0,0-.437-.875A1.385,1.385,0,0,0,138.57,57.906Zm11.883-3.414-.359,2.055h1.445l-.242,1.406h-1.453l-.8,4.734a1.618,1.618,0,0,0-.008.352q.047.508.625.531a3.53,3.53,0,0,0,.656-.07l-.125,1.484a4.245,4.245,0,0,1-1.164.164,1.729,1.729,0,0,1-1.449-.66,2.389,2.389,0,0,1-.379-1.707l.789-4.828h-1.352l.25-1.406h1.344l.359-2.055ZM156.57,65a2.507,2.507,0,0,1-.078-.789,3.134,3.134,0,0,1-2.258.945,2.589,2.589,0,0,1-1.824-.707,2.18,2.18,0,0,1-.676-1.754,2.588,2.588,0,0,1,1.156-2.1,5.034,5.034,0,0,1,2.938-.766l1.2.016.109-.578a1.744,1.744,0,0,0,0-.57,1.017,1.017,0,0,0-1.117-.867,1.685,1.685,0,0,0-1.043.3,1.3,1.3,0,0,0-.551.848l-1.852.016a2.318,2.318,0,0,1,.555-1.371,3.289,3.289,0,0,1,1.328-.918,4.5,4.5,0,0,1,1.75-.312,2.956,2.956,0,0,1,2.156.832,2.466,2.466,0,0,1,.641,2.074l-.648,3.961-.062.7a2.5,2.5,0,0,0,.117.9l-.008.141Zm-1.906-1.359a2.041,2.041,0,0,0,1.086-.27,2.862,2.862,0,0,0,.852-.738l.289-1.6-.883-.008a3.1,3.1,0,0,0-1.672.395,1.447,1.447,0,0,0-.711,1.082.957.957,0,0,0,.23.824A1.127,1.127,0,0,0,154.664,63.641Zm8.539-7.1-.187.992a3.226,3.226,0,0,1,2.508-1.141,2.044,2.044,0,0,1,1.758.848,3.383,3.383,0,0,1,.422,2.3L166.789,65h-1.852l.922-5.484a2.806,2.806,0,0,0,.008-.625,1,1,0,0,0-1.109-.953,2.25,2.25,0,0,0-1.852,1.039L161.852,65H160l1.461-8.453Zm5.938,4.219a6.6,6.6,0,0,1,.711-2.371,3.9,3.9,0,0,1,1.359-1.531,3.206,3.206,0,0,1,1.8-.473,2.483,2.483,0,0,1,2.063,1.008l.3-.852,1.672.008-2.031,11.7h-1.852l.766-3.977a2.912,2.912,0,0,1-2.164.883,2.354,2.354,0,0,1-1.914-.9,3.954,3.954,0,0,1-.758-2.371,6.527,6.527,0,0,1,.023-.961Zm1.836.164-.039.563a2.816,2.816,0,0,0,.332,1.6,1.2,1.2,0,0,0,1.043.559,1.754,1.754,0,0,0,1.02-.246,3.127,3.127,0,0,0,.785-.707l.688-3.859a1.5,1.5,0,0,0-1.422-.922,1.881,1.881,0,0,0-1.512.672,3.893,3.893,0,0,0-.84,1.977Zm11.875,3.242a3.066,3.066,0,0,1-2.406.992,2.355,2.355,0,0,1-1.363-.406,2.113,2.113,0,0,1-.773-1.09,3.99,3.99,0,0,1-.137-1.645l.914-5.469h1.852l-.922,5.492a2.912,2.912,0,0,0-.008.563.95.95,0,0,0,.977,1.008,2.236,2.236,0,0,0,1.984-.984l1.063-6.078h1.852L184.422,65h-1.734Zm7.3.992a3.541,3.541,0,0,1-1.91-.555,3.156,3.156,0,0,1-1.2-1.453,4.32,4.32,0,0,1-.293-2.055l.023-.32a5.657,5.657,0,0,1,.754-2.316,4.3,4.3,0,0,1,1.527-1.559,3.713,3.713,0,0,1,1.984-.508,2.769,2.769,0,0,1,2.379,1.182,4.337,4.337,0,0,1,.6,3l-.109.814h-5.32A2.3,2.3,0,0,0,189,63a1.61,1.61,0,0,0,1.313.631,2.847,2.847,0,0,0,2.2-1.039l.938.984a3.563,3.563,0,0,1-1.4,1.176A4.166,4.166,0,0,1,190.156,65.156Zm.789-7.25q-1.469-.047-2.2,2.078l3.508.008.031-.164a2.451,2.451,0,0,0,.008-.7,1.438,1.438,0,0,0-.437-.875A1.385,1.385,0,0,0,190.945,57.906ZM207.633,65h-1.922l.875-5.047h-4.922L200.789,65h-1.93l1.977-11.375h1.93l-.828,4.734h4.922l.82-4.734h1.93Zm13.836-6.078h-6.734V57.328h6.734Zm0,3.3h-6.734v-1.57h6.734ZM235,65h-7.648V63.7l3.789-4.133a9.435,9.435,0,0,0,1.168-1.527,2.475,2.475,0,0,0,.348-1.23,1.87,1.87,0,0,0-.457-1.312,1.585,1.585,0,0,0-1.23-.5,1.827,1.827,0,0,0-1.43.563,2.212,2.212,0,0,0-.508,1.539h-1.9a3.721,3.721,0,0,1,.473-1.871,3.255,3.255,0,0,1,1.352-1.293,4.3,4.3,0,0,1,2.027-.461,3.848,3.848,0,0,1,2.613.832,2.888,2.888,0,0,1,.957,2.3,3.9,3.9,0,0,1-.48,1.785,10.151,10.151,0,0,1-1.574,2.121l-2.781,2.977H235Zm9.016-10.32L239.469,65h-1.992l4.539-9.852h-5.883V53.625h7.883Zm8.938,5.531a6.2,6.2,0,0,1-.918,3.7,3.242,3.242,0,0,1-2.793,1.246,3.285,3.285,0,0,1-2.777-1.215,5.94,5.94,0,0,1-.957-3.6V58.375a6.11,6.11,0,0,1,.918-3.68,3.827,3.827,0,0,1,5.586-.031,5.923,5.923,0,0,1,.941,3.578Zm-1.9-2.125a4.813,4.813,0,0,0-.437-2.348,1.672,1.672,0,0,0-2.758-.039,4.448,4.448,0,0,0-.461,2.207v2.578a4.937,4.937,0,0,0,.445,2.375,1.5,1.5,0,0,0,1.4.781,1.469,1.469,0,0,0,1.352-.723,4.645,4.645,0,0,0,.461-2.262Zm10.992,2.125a6.2,6.2,0,0,1-.918,3.7,3.242,3.242,0,0,1-2.793,1.246,3.285,3.285,0,0,1-2.777-1.215,5.94,5.94,0,0,1-.957-3.6V58.375a6.11,6.11,0,0,1,.918-3.68,3.827,3.827,0,0,1,5.586-.031,5.924,5.924,0,0,1,.941,3.578Zm-1.9-2.125a4.813,4.813,0,0,0-.437-2.348,1.672,1.672,0,0,0-2.758-.039,4.448,4.448,0,0,0-.461,2.207v2.578a4.937,4.937,0,0,0,.445,2.375,1.5,1.5,0,0,0,1.4.781,1.469,1.469,0,0,0,1.352-.723,4.645,4.645,0,0,0,.461-2.262Zm9.992-1.547-.164.9a3.259,3.259,0,0,1,2.5-1.047,2.427,2.427,0,0,1,1.324.367,1.738,1.738,0,0,1,.715.93,3.406,3.406,0,0,1,2.688-1.3,2.195,2.195,0,0,1,1.832.848,3.235,3.235,0,0,1,.449,2.285L278.57,65h-1.852l.922-5.492a2.879,2.879,0,0,0,.008-.633,1.034,1.034,0,0,0-1.156-.937A1.949,1.949,0,0,0,274.68,59.2l-.023.172L273.688,65h-1.859l.922-5.469a2.806,2.806,0,0,0,.008-.625,1.043,1.043,0,0,0-1.156-.969,2.042,2.042,0,0,0-1.734.93L268.8,65h-1.852l1.461-8.453Zm10.813,4.227a6.538,6.538,0,0,1,.684-2.289,4.135,4.135,0,0,1,1.348-1.566,3.18,3.18,0,0,1,1.859-.527,2.494,2.494,0,0,1,2.1,1.023l.289-.867,1.688.008-1.4,8.219a3.99,3.99,0,0,1-4.219,3.57,3.945,3.945,0,0,1-1.687-.406,3.508,3.508,0,0,1-1.281-1.031l.984-1.117a2.372,2.372,0,0,0,1.938,1.055,2.271,2.271,0,0,0,1.559-.5,2.585,2.585,0,0,0,.871-1.5l.133-.594a2.991,2.991,0,0,1-2.219.914,2.367,2.367,0,0,1-1.9-.9,3.974,3.974,0,0,1-.785-2.375A7.808,7.808,0,0,1,280.953,60.766Zm1.836.164a5.715,5.715,0,0,0-.031.859,2.23,2.23,0,0,0,.375,1.313,1.258,1.258,0,0,0,1.023.508A2.185,2.185,0,0,0,286,62.633l.664-3.734a1.508,1.508,0,0,0-1.445-.961,1.928,1.928,0,0,0-1.578.727,4.071,4.071,0,0,0-.836,2.1Zm7.016,5.047h-1.531l6.484-12.352H296.3Zm10.875-3.32q.133-.773-1-1.074a12.762,12.762,0,0,1-1.551-.48,2.138,2.138,0,0,1-1.555-2.094,2.378,2.378,0,0,1,1.035-1.887,3.794,3.794,0,0,1,2.387-.73,3.266,3.266,0,0,1,2.191.758,2.417,2.417,0,0,1,.832,1.945l-1.836-.008a1.185,1.185,0,0,0-.32-.918,1.307,1.307,0,0,0-.922-.348,1.817,1.817,0,0,0-1.059.3,1.135,1.135,0,0,0-.512.8q-.109.711,1,.988a10.975,10.975,0,0,1,1.641.512,2.14,2.14,0,0,1,1.492,2.125,2.336,2.336,0,0,1-.527,1.4,3.077,3.077,0,0,1-1.309.914,4.477,4.477,0,0,1-1.742.293,3.437,3.437,0,0,1-2.293-.8,2.512,2.512,0,0,1-.895-2.023l1.789.008a1.361,1.361,0,0,0,.406,1.031,1.57,1.57,0,0,0,1.07.359,2.126,2.126,0,0,0,1.145-.285A1.094,1.094,0,0,0,300.68,62.656Z" transform="translate(527 33599)" fill="#12263f"/>
    <g id="mathematics" transform="translate(434 33603.801)">
      <path id="Trazado_732657" data-name="Trazado 732657" d="M142.833,7.164H110.552a6.053,6.053,0,0,0-6.053,6.053v11.1h21.184a6.053,6.053,0,0,1,6.052,6.053v1.009h3.027L140.95,42.2a1.008,1.008,0,0,0,1.882-.5V31.375a6.053,6.053,0,0,0,6.053-6.053v-12.1a6.052,6.052,0,0,0-6.052-6.053Zm0,0" transform="translate(-89.368 -5.956)" fill="#c2d197"/>
      <path id="Trazado_732658" data-name="Trazado 732658" d="M315.518,140.54a1.009,1.009,0,1,1-1.009-1.008A1.009,1.009,0,0,1,315.518,140.54Zm0,0" transform="translate(-268.106 -119.156)" fill="#9cb16a"/>
      <path id="Trazado_732659" data-name="Trazado 732659" d="M343.385,140.54a1.009,1.009,0,1,1-1.008-1.008A1.009,1.009,0,0,1,343.385,140.54Zm0,0" transform="translate(-291.938 -119.156)" fill="#9cb16a"/>
      <path id="Trazado_732660" data-name="Trazado 732660" d="M371.252,140.54a1.009,1.009,0,1,1-1.009-1.008A1.009,1.009,0,0,1,371.252,140.54Zm0,0" transform="translate(-315.769 -119.156)" fill="#9cb16a"/>
      <path id="Trazado_732661" data-name="Trazado 732661" d="M138.05,62.911a1.009,1.009,0,0,0-1.426,0l-1.3,1.3-1.3-1.3a1.009,1.009,0,1,0-1.451,1.4l.024.025,1.3,1.3-1.3,1.3a1.009,1.009,0,0,0,1.4,1.451l.025-.025,1.3-1.3,1.3,1.3a1.009,1.009,0,0,0,1.426-1.427l-1.3-1.3,1.3-1.3a1,1,0,0,0,.017-1.421A.016.016,0,0,0,138.05,62.911Zm0,0" transform="translate(-113.126 -53.367)" fill="#9cb16a"/>
      <path id="Trazado_732662" data-name="Trazado 732662" d="M198.763,46.88a1.008,1.008,0,0,0-1.009-1.009h-9.079a1.009,1.009,0,0,0-1,.865l-.552,3.864-.568-1.147a1.009,1.009,0,1,0-1.805.9l2.018,4.035a1.009,1.009,0,0,0,.9.558.965.965,0,0,0,.161-.014,1.008,1.008,0,0,0,.837-.854l.885-6.195h8.2A1.008,1.008,0,0,0,198.763,46.88Zm0,0" transform="translate(-157.908 -39.058)" fill="#9cb16a"/>
      <path id="Trazado_732663" data-name="Trazado 732663" d="M230.751,70.212l-1.281,1.254-1.226-1.311a1.009,1.009,0,1,0-1.472,1.38l1.255,1.344-1.311,1.284a1.01,1.01,0,0,0,1.412,1.443l4.035-3.95a1.009,1.009,0,0,0-1.412-1.443Zm0,0" transform="translate(-193.628 -59.553)" fill="#9cb16a"/>
      <path id="Trazado_732664" data-name="Trazado 732664" d="M280.228,68.787h-1.009V67.779a1.009,1.009,0,1,0-2.018,0v1.009h-1.009a1.009,1.009,0,0,0,0,2.018H277.2v1.009a1.009,1.009,0,0,0,2.018,0V70.8h1.009a1.009,1.009,0,1,0,0-2.018Zm0,0" transform="translate(-235.338 -56.931)" fill="#9cb16a"/>
      <path id="Trazado_732665" data-name="Trazado 732665" d="M332.478,70.8h-1.6l2.313-2.313a1.009,1.009,0,0,0-.713-1.722h-4.035a1.009,1.009,0,1,0,0,2.018h1.6L327.73,71.1a1.009,1.009,0,0,0,.713,1.722h4.035a1.009,1.009,0,1,0,0-2.018Zm0,0" transform="translate(-280.022 -56.931)" fill="#9cb16a"/>
      <path id="Trazado_732666" data-name="Trazado 732666" d="M126.693,114.543H104.5v1.6h21.184a6.053,6.053,0,0,1,6.053,6.053v1.009h1.008V120.6a6.052,6.052,0,0,0-6.053-6.052Zm0,0" transform="translate(-89.369 -97.786)" fill="#9cb16a"/>
      <path id="Trazado_732667" data-name="Trazado 732667" d="M138.05,52.147a1.009,1.009,0,0,0-1.426,0l-1.3,1.3-1.3-1.3a1.009,1.009,0,0,0-1.427,1.426l1.3,1.3-1.3,1.3a1.009,1.009,0,0,0,1.4,1.451l.025-.025,1.3-1.3,1.3,1.3a1.009,1.009,0,1,0,1.451-1.4l-.025-.025-1.3-1.3,1.3-1.3A1.008,1.008,0,0,0,138.05,52.147Zm0,0" transform="translate(-113.126 -44.173)" fill="#075057"/>
      <path id="Trazado_732668" data-name="Trazado 732668" d="M198.763,36.04a1.008,1.008,0,0,0-1.009-1.009h-9.079a1.009,1.009,0,0,0-1,.865l-.552,3.864-.568-1.146a1.009,1.009,0,1,0-1.805.9l2.018,4.035a1.009,1.009,0,0,0,.9.558,1.028,1.028,0,0,0,.161-.013,1.009,1.009,0,0,0,.838-.853l.885-6.2h8.2a1.008,1.008,0,0,0,1.008-1.009Zm0,0" transform="translate(-157.909 -29.788)" fill="#075057"/>
      <path id="Trazado_732669" data-name="Trazado 732669" d="M230.751,59.263l-1.281,1.255-1.226-1.312a1.009,1.009,0,0,0-1.507,1.341l.036.038,1.255,1.344-1.311,1.284a1.009,1.009,0,1,0,1.412,1.442l4.035-3.95a1.009,1.009,0,0,0-1.412-1.442Zm0,0" transform="translate(-193.628 -50.173)" fill="#075057"/>
      <path id="Trazado_732670" data-name="Trazado 732670" d="M280.228,57.947h-1.009V56.938a1.009,1.009,0,0,0-2.018,0v1.009h-1.009a1.009,1.009,0,0,0,0,2.018H277.2v1.009a1.009,1.009,0,0,0,2.018,0V59.965h1.009a1.009,1.009,0,1,0,0-2.018Zm0,0" transform="translate(-235.338 -47.66)" fill="#075057"/>
      <path id="Trazado_732671" data-name="Trazado 732671" d="M332.478,59.965h-1.6l2.313-2.313a1.009,1.009,0,0,0-.713-1.722h-4.035a1.009,1.009,0,1,0,0,2.018h1.6l-2.313,2.313a1.009,1.009,0,0,0,.713,1.722h4.035a1.009,1.009,0,1,0,0-2.018Zm0,0" transform="translate(-280.022 -47.66)" fill="#075057"/>
      <path id="Trazado_732672" data-name="Trazado 732672" d="M13.017,125.6H42.272a6.053,6.053,0,0,1,6.053,6.053v12.1a6.053,6.053,0,0,1-6.053,6.053H27.141l-12.4,12.4a1.009,1.009,0,0,1-1.723-.713V149.809a6.053,6.053,0,0,1-6.053-6.053v-12.1a6.053,6.053,0,0,1,6.053-6.053Zm0,0" transform="translate(-5.957 -107.241)" fill="#ffa031"/>
      <g id="Grupo_1013892" data-name="Grupo 1013892" transform="translate(4.035 21.383)">
        <path id="Trazado_732673" data-name="Trazado 732673" d="M33.92,204.248a1.009,1.009,0,0,0,0-2.018H28.876a1.008,1.008,0,0,0-1.009,1.009v8.07a1.009,1.009,0,0,0,1.009,1.009H33.92a1.009,1.009,0,0,0,0-2.018H29.885v-2.018h3.026a1.009,1.009,0,1,0,0-2.018H29.885v-2.018Zm0,0" transform="translate(-27.867 -194.16)" fill="#c66b00"/>
        <path id="Trazado_732674" data-name="Trazado 732674" d="M132.463,216.162a3.009,3.009,0,0,0-2.018.787,3.013,3.013,0,0,0-5.044,2.239v4.035a1.009,1.009,0,1,0,2.018,0v-4.035a1.009,1.009,0,0,1,2.018,0v4.035a1.009,1.009,0,1,0,2.018,0v-4.035a1.009,1.009,0,0,1,2.018,0v4.035a1.009,1.009,0,1,0,2.018,0v-4.035a3.027,3.027,0,0,0-3.027-3.026Zm0,0" transform="translate(-111.279 -206.074)" fill="#c66b00"/>
        <path id="Trazado_732675" data-name="Trazado 732675" d="M199.1,218.182h1.009a1.009,1.009,0,0,0,0-2.018H199.1a4.035,4.035,0,1,0,0,8.07h1.009a1.009,1.009,0,0,0,0-2.018H199.1a2.017,2.017,0,1,1,0-4.035Zm0,0" transform="translate(-170.856 -206.076)" fill="#c66b00"/>
        <path id="Trazado_732676" data-name="Trazado 732676" d="M227.978,153.558h-3.026a1.009,1.009,0,0,1,1.009-1.009,3.026,3.026,0,1,0-3.026-3.026,1.009,1.009,0,0,0,2.018,0,1.009,1.009,0,1,1,1.009,1.009,3.027,3.027,0,0,0-3.027,3.027v1.008a1.009,1.009,0,0,0,1.009,1.009h4.035a1.009,1.009,0,1,0,0-2.018Zm0,0" transform="translate(-194.688 -146.497)" fill="#c66b00"/>
        <path id="Trazado_732677" data-name="Trazado 732677" d="M86.628,223.129H84.61a1.009,1.009,0,0,0,0,2.018h2.018a1.009,1.009,0,1,0,0-2.018Zm0,0" transform="translate(-75.531 -212.033)" fill="#c66b00"/>
        <path id="Trazado_732678" data-name="Trazado 732678" d="M86.628,244.031H84.61a1.009,1.009,0,0,0,0,2.018h2.018a1.009,1.009,0,1,0,0-2.018Zm0,0" transform="translate(-75.531 -229.908)" fill="#c66b00"/>
        <path id="Trazado_732679" data-name="Trazado 732679" d="M57.752,161.438a1.009,1.009,0,1,1-1.009-1.009A1.009,1.009,0,0,1,57.752,161.438Zm0,0" transform="translate(-51.699 -158.412)" fill="#c66b00"/>
        <path id="Trazado_732680" data-name="Trazado 732680" d="M85.619,161.438a1.009,1.009,0,1,1-1.009-1.009A1.009,1.009,0,0,1,85.619,161.438Zm0,0" transform="translate(-75.531 -158.412)" fill="#c66b00"/>
        <path id="Trazado_732681" data-name="Trazado 732681" d="M113.483,161.438a1.009,1.009,0,1,1-1.009-1.009A1.009,1.009,0,0,1,113.483,161.438Zm0,0" transform="translate(-99.36 -158.412)" fill="#c66b00"/>
        <path id="Trazado_732682" data-name="Trazado 732682" d="M141.35,161.438a1.009,1.009,0,1,1-1.009-1.009A1.008,1.008,0,0,1,141.35,161.438Zm0,0" transform="translate(-123.192 -158.412)" fill="#c66b00"/>
        <path id="Trazado_732683" data-name="Trazado 732683" d="M169.217,161.438a1.009,1.009,0,1,1-1.008-1.009A1.008,1.008,0,0,1,169.217,161.438Zm0,0" transform="translate(-147.024 -158.412)" fill="#c66b00"/>
      </g>
      <path id="Trazado_732684" data-name="Trazado 732684" d="M33.92,197.279a1.009,1.009,0,0,0,0-2.018H28.876a1.009,1.009,0,0,0-1.009,1.009v8.07a1.008,1.008,0,0,0,1.009,1.009H33.92a1.009,1.009,0,0,0,0-2.018H29.885v-2.018h3.026a1.009,1.009,0,1,0,0-2.018H29.885v-2.018Zm0,0" transform="translate(-23.832 -166.817)" fill="#9e0c09"/>
      <path id="Trazado_732685" data-name="Trazado 732685" d="M132.463,209.195a3.009,3.009,0,0,0-2.018.787,3.013,3.013,0,0,0-5.044,2.24v4.035a1.009,1.009,0,1,0,2.018,0v-4.035a1.009,1.009,0,1,1,2.018,0v4.035a1.009,1.009,0,1,0,2.018,0v-4.035a1.009,1.009,0,1,1,2.018,0v4.035a1.009,1.009,0,1,0,2.018,0v-4.035a3.027,3.027,0,0,0-3.027-3.027Zm0,0" transform="translate(-107.244 -178.732)" fill="#9e0c09"/>
      <path id="Trazado_732686" data-name="Trazado 732686" d="M199.1,211.213h1.009a1.009,1.009,0,0,0,0-2.018H199.1a4.035,4.035,0,1,0,0,8.07h1.009a1.009,1.009,0,0,0,0-2.018H199.1a2.018,2.018,0,0,1,0-4.035Zm0,0" transform="translate(-166.821 -178.733)" fill="#9e0c09"/>
      <path id="Trazado_732687" data-name="Trazado 732687" d="M227.978,146.589h-3.026a1.009,1.009,0,0,1,1.009-1.009,3.026,3.026,0,1,0-3.026-3.026,1.009,1.009,0,1,0,2.018,0,1.009,1.009,0,1,1,1.009,1.009,3.026,3.026,0,0,0-3.027,3.026V147.6a1.009,1.009,0,0,0,1.009,1.009h4.035a1.009,1.009,0,1,0,0-2.018Zm0,0" transform="translate(-190.653 -119.153)" fill="#9e0c09"/>
      <path id="Trazado_732688" data-name="Trazado 732688" d="M86.628,216.164H84.61a1.009,1.009,0,0,0,0,2.018h2.018a1.009,1.009,0,1,0,0-2.018Zm0,0" transform="translate(-71.496 -184.693)" fill="#9e0c09"/>
      <path id="Trazado_732689" data-name="Trazado 732689" d="M86.628,237.063H84.61a1.009,1.009,0,0,0,0,2.018h2.018a1.009,1.009,0,1,0,0-2.018Zm0,0" transform="translate(-71.496 -202.565)" fill="#9e0c09"/>
      <path id="Trazado_732690" data-name="Trazado 732690" d="M315.518,133.571a1.009,1.009,0,1,1-1.009-1.009A1.008,1.008,0,0,1,315.518,133.571Zm0,0" transform="translate(-268.106 -113.196)" fill="#075057"/>
      <path id="Trazado_732691" data-name="Trazado 732691" d="M343.385,133.571a1.009,1.009,0,1,1-1.008-1.009A1.008,1.008,0,0,1,343.385,133.571Zm0,0" transform="translate(-291.938 -113.196)" fill="#075057"/>
      <path id="Trazado_732692" data-name="Trazado 732692" d="M371.252,133.571a1.009,1.009,0,1,1-1.009-1.009A1.009,1.009,0,0,1,371.252,133.571Zm0,0" transform="translate(-315.769 -113.196)" fill="#075057"/>
      <path id="Trazado_732693" data-name="Trazado 732693" d="M57.752,154.474a1.009,1.009,0,1,1-1.009-1.009A1.009,1.009,0,0,1,57.752,154.474Zm0,0" transform="translate(-47.664 -131.073)" fill="#9e0c09"/>
      <path id="Trazado_732694" data-name="Trazado 732694" d="M85.619,154.474a1.009,1.009,0,1,1-1.009-1.009A1.009,1.009,0,0,1,85.619,154.474Zm0,0" transform="translate(-71.496 -131.073)" fill="#9e0c09"/>
      <path id="Trazado_732695" data-name="Trazado 732695" d="M113.483,154.474a1.009,1.009,0,1,1-1.009-1.009A1.009,1.009,0,0,1,113.483,154.474Zm0,0" transform="translate(-95.325 -131.073)" fill="#9e0c09"/>
      <path id="Trazado_732696" data-name="Trazado 732696" d="M141.35,154.474a1.009,1.009,0,1,1-1.009-1.009A1.009,1.009,0,0,1,141.35,154.474Zm0,0" transform="translate(-119.157 -131.073)" fill="#9e0c09"/>
      <path id="Trazado_732697" data-name="Trazado 732697" d="M169.217,154.474a1.009,1.009,0,1,1-1.008-1.009A1.009,1.009,0,0,1,169.217,154.474Zm0,0" transform="translate(-142.989 -131.073)" fill="#9e0c09"/>
      <path id="Trazado_732698" data-name="Trazado 732698" d="M138.05,52.147a1.009,1.009,0,0,0-1.426,0l-1.3,1.3-1.3-1.3a1.009,1.009,0,0,0-1.427,1.426l1.3,1.3-1.3,1.3a1.009,1.009,0,0,0,1.4,1.451l.025-.025,1.3-1.3,1.3,1.3a1.009,1.009,0,1,0,1.451-1.4l-.025-.025-1.3-1.3,1.3-1.3A1.008,1.008,0,0,0,138.05,52.147Zm0,0" transform="translate(-113.126 -44.173)"/>
      <path id="Trazado_732699" data-name="Trazado 732699" d="M198.749,36.04a1.008,1.008,0,0,0-1.009-1.009h-9.079a1.009,1.009,0,0,0-1,.865l-.552,3.864-.568-1.146a1.009,1.009,0,1,0-1.812.888l.007.014,2.017,4.035a1.01,1.01,0,0,0,.9.558,1.022,1.022,0,0,0,.161-.013,1.009,1.009,0,0,0,.838-.853l.885-6.2h8.2a1.008,1.008,0,0,0,1.009-1.009Zm0,0" transform="translate(-157.894 -29.788)"/>
      <path id="Trazado_732700" data-name="Trazado 732700" d="M226.7,64.639a1.01,1.01,0,0,0,1.427.015l4.035-3.95a1.009,1.009,0,0,0-1.412-1.443l-1.281,1.255L228.247,59.2a1.009,1.009,0,1,0-1.507,1.341l.036.038,1.253,1.343-1.311,1.285a1.009,1.009,0,0,0-.015,1.427h0Zm0,0" transform="translate(-193.63 -50.172)"/>
      <path id="Trazado_732701" data-name="Trazado 732701" d="M278.21,61.982a1.009,1.009,0,0,0,1.008-1.009V59.965h1.009a1.009,1.009,0,0,0,0-2.018h-1.009V56.938a1.009,1.009,0,0,0-2.018,0v1.009h-1.009a1.009,1.009,0,0,0,0,2.018H277.2v1.009A1.009,1.009,0,0,0,278.21,61.982Zm0,0" transform="translate(-235.337 -47.66)"/>
      <path id="Trazado_732702" data-name="Trazado 732702" d="M333.486,60.974a1.009,1.009,0,0,0-1.009-1.009h-1.6l2.313-2.313a1.009,1.009,0,0,0-.713-1.722h-4.035a1.009,1.009,0,0,0,0,2.018h1.6l-2.313,2.313a1.009,1.009,0,0,0,.713,1.722h4.035A1.009,1.009,0,0,0,333.486,60.974Zm0,0" transform="translate(-280.021 -47.66)"/>
      <path id="Trazado_732703" data-name="Trazado 732703" d="M59.518,18.357a1.009,1.009,0,0,0-1.009,1.009,5.05,5.05,0,0,1-5.044,5.044,1.009,1.009,0,0,0-1.009,1.009V35.742L46.27,24.915a1.009,1.009,0,0,0-.876-.5H43.377a7.069,7.069,0,0,0-7.061-7.061H16.14V7.261a5.05,5.05,0,0,1,5.044-5.044H53.465a5.05,5.05,0,0,1,5.044,5.044,1.009,1.009,0,0,0,2.018,0A7.069,7.069,0,0,0,53.465.2H21.184a7.07,7.07,0,0,0-7.062,7.061V17.349H7.061A7.069,7.069,0,0,0,0,24.41a1.009,1.009,0,0,0,2.018,0,5.05,5.05,0,0,1,5.044-5.044H36.316a5.05,5.05,0,0,1,5.044,5.044v12.1a5.05,5.05,0,0,1-5.044,5.044H21.184a1.009,1.009,0,0,0-.713.3l-12.4,12.4V42.568a1.009,1.009,0,0,0-1.009-1.009,5.049,5.049,0,0,1-5.044-5.044,1.009,1.009,0,0,0-2.018,0,7.073,7.073,0,0,0,6.053,6.99V56.691a1.01,1.01,0,0,0,.622.932,1,1,0,0,0,.387.076,1.009,1.009,0,0,0,.713-.3L21.6,43.577H36.316a7.069,7.069,0,0,0,7.061-7.061V26.428H44.81l7.78,13.619a1.007,1.007,0,0,0,.876.5,1.056,1.056,0,0,0,.259-.033,1.008,1.008,0,0,0,.749-.976V26.356a7.073,7.073,0,0,0,6.053-6.989,1.008,1.008,0,0,0-1.009-1.009Zm0,0" transform="translate(0)"/>
      <path id="Trazado_732704" data-name="Trazado 732704" d="M27.867,196.27v8.07a1.009,1.009,0,0,0,1.009,1.009H33.92a1.009,1.009,0,0,0,0-2.018H29.885v-2.017h3.026a1.009,1.009,0,0,0,0-2.018H29.885v-2.018H33.92a1.009,1.009,0,0,0,0-2.018H28.876A1.009,1.009,0,0,0,27.867,196.27Zm0,0" transform="translate(-23.832 -166.817)"/>
      <path id="Trazado_732705" data-name="Trazado 732705" d="M125.4,212.222v4.035a1.009,1.009,0,0,0,2.018,0v-4.035a1.009,1.009,0,1,1,2.018,0v4.035a1.009,1.009,0,0,0,2.018,0v-4.035a1.009,1.009,0,1,1,2.018,0v4.035a1.009,1.009,0,0,0,2.018,0v-4.035a3.013,3.013,0,0,0-5.044-2.239,3.013,3.013,0,0,0-5.044,2.239Zm0,0" transform="translate(-107.244 -178.733)"/>
      <path id="Trazado_732706" data-name="Trazado 732706" d="M199.1,217.266h1.009a1.009,1.009,0,0,0,0-2.018H199.1a2.018,2.018,0,0,1,0-4.035h1.009a1.009,1.009,0,0,0,0-2.018H199.1a4.035,4.035,0,1,0,0,8.07Zm0,0" transform="translate(-166.821 -178.733)"/>
      <path id="Trazado_732707" data-name="Trazado 732707" d="M225.96,143.566a3.026,3.026,0,0,0-3.026,3.026V147.6a1.008,1.008,0,0,0,1.009,1.008h4.035a1.009,1.009,0,1,0,0-2.018h-3.026a1.008,1.008,0,0,1,1.008-1.008,3.026,3.026,0,1,0-3.026-3.027,1.009,1.009,0,1,0,2.018,0,1.009,1.009,0,1,1,1.009,1.009Zm0,0" transform="translate(-190.653 -119.156)"/>
      <path id="Trazado_732708" data-name="Trazado 732708" d="M84.61,218.182h2.018a1.009,1.009,0,1,0,0-2.018H84.61a1.009,1.009,0,0,0,0,2.018Zm0,0" transform="translate(-71.496 -184.693)"/>
      <path id="Trazado_732709" data-name="Trazado 732709" d="M84.61,239.08h2.018a1.009,1.009,0,1,0,0-2.018H84.61a1.009,1.009,0,0,0,0,2.018Zm0,0" transform="translate(-71.496 -202.565)"/>
      <path id="Trazado_732710" data-name="Trazado 732710" d="M315.518,126.607a1.009,1.009,0,1,1-1.009-1.009A1.009,1.009,0,0,1,315.518,126.607Zm0,0" transform="translate(-268.106 -107.241)"/>
      <path id="Trazado_732711" data-name="Trazado 732711" d="M343.385,126.607a1.009,1.009,0,1,1-1.008-1.009A1.009,1.009,0,0,1,343.385,126.607Zm0,0" transform="translate(-291.938 -107.241)"/>
      <path id="Trazado_732712" data-name="Trazado 732712" d="M371.252,126.607a1.009,1.009,0,1,1-1.009-1.009A1.009,1.009,0,0,1,371.252,126.607Zm0,0" transform="translate(-315.769 -107.241)"/>
      <path id="Trazado_732713" data-name="Trazado 732713" d="M57.752,154.474a1.009,1.009,0,1,1-1.009-1.009A1.009,1.009,0,0,1,57.752,154.474Zm0,0" transform="translate(-47.664 -131.073)"/>
      <path id="Trazado_732714" data-name="Trazado 732714" d="M85.619,154.474a1.009,1.009,0,1,1-1.009-1.009A1.009,1.009,0,0,1,85.619,154.474Zm0,0" transform="translate(-71.496 -131.073)"/>
      <path id="Trazado_732715" data-name="Trazado 732715" d="M113.483,154.474a1.009,1.009,0,1,1-1.009-1.009A1.009,1.009,0,0,1,113.483,154.474Zm0,0" transform="translate(-95.325 -131.073)"/>
      <path id="Trazado_732716" data-name="Trazado 732716" d="M141.35,154.474a1.009,1.009,0,1,1-1.009-1.009A1.009,1.009,0,0,1,141.35,154.474Zm0,0" transform="translate(-119.157 -131.073)"/>
      <path id="Trazado_732717" data-name="Trazado 732717" d="M169.215,154.586a1.009,1.009,0,1,0-1.118.886,1.009,1.009,0,0,0,1.118-.886Zm0,0" transform="translate(-142.993 -131.07)"/>
    </g>
  </g>
</svg>
