<svg xmlns="http://www.w3.org/2000/svg" width="170" height="61.229" viewBox="0 0 170 61.229">
  <g id="Grupo_1015993" data-name="Grupo 1015993" transform="translate(-745.5 -4195.428)">
    <path id="Trazado_737888" data-name="Trazado 737888" d="M3.656-7.189l1.055.009a3.115,3.115,0,0,0,1.956-.611,2.315,2.315,0,0,0,.91-1.657,2.041,2.041,0,0,0-.378-1.6,1.815,1.815,0,0,0-1.433-.6,2.446,2.446,0,0,0-1.7.584,2.581,2.581,0,0,0-.857,1.622l-1.573.009A3.646,3.646,0,0,1,2.984-12.01a4.28,4.28,0,0,1,2.861-.971,3.42,3.42,0,0,1,2.527,1.006,3.193,3.193,0,0,1,.8,2.562,2.96,2.96,0,0,1-.694,1.652A4.625,4.625,0,0,1,6.768-6.521a2.529,2.529,0,0,1,1.3,1.112,3.1,3.1,0,0,1,.36,1.78A3.928,3.928,0,0,1,7.053-.844a4.325,4.325,0,0,1-3,1.02A3.638,3.638,0,0,1,1.433-.844a3.233,3.233,0,0,1-.905-2.54l1.591.009a2.137,2.137,0,0,0,.475,1.586,2.025,2.025,0,0,0,1.529.637,2.557,2.557,0,0,0,1.872-.642A2.677,2.677,0,0,0,6.847-3.6a1.958,1.958,0,0,0-.475-1.63,2.393,2.393,0,0,0-1.705-.62L3.445-5.862Zm8.165.747L13.447-12.8h6.381l-.237,1.5h-5.01L13.6-7.8a3.916,3.916,0,0,1,2.092-.554,2.872,2.872,0,0,1,2.443,1.2,4.347,4.347,0,0,1,.694,3.01,4.808,4.808,0,0,1-1.4,3.164A4.107,4.107,0,0,1,14.361.185,3.347,3.347,0,0,1,11.892-.8,3.72,3.72,0,0,1,10.9-3.375h1.485a2.549,2.549,0,0,0,.6,1.635,1.932,1.932,0,0,0,1.45.6,2.366,2.366,0,0,0,1.894-.8,3.693,3.693,0,0,0,.91-2.188,2.811,2.811,0,0,0-.413-1.956,1.879,1.879,0,0,0-1.573-.8,2.7,2.7,0,0,0-1.138.193,4.227,4.227,0,0,0-.989.606Zm9.413,4.6a.952.952,0,0,1,.712.264.908.908,0,0,1,.272.7.95.95,0,0,1-.29.7,1.046,1.046,0,0,1-.7.286.908.908,0,0,1-.694-.242.908.908,0,0,1-.272-.69,1,1,0,0,1,.272-.716A.987.987,0,0,1,21.234-1.846Zm6.9-5.344,1.055.009a3.115,3.115,0,0,0,1.956-.611,2.315,2.315,0,0,0,.91-1.657,2.041,2.041,0,0,0-.378-1.6,1.815,1.815,0,0,0-1.433-.6,2.446,2.446,0,0,0-1.7.584,2.581,2.581,0,0,0-.857,1.622l-1.573.009a3.646,3.646,0,0,1,1.349-2.571,4.28,4.28,0,0,1,2.861-.971,3.42,3.42,0,0,1,2.527,1.006,3.193,3.193,0,0,1,.8,2.562,2.96,2.96,0,0,1-.694,1.652,4.625,4.625,0,0,1-1.705,1.239,2.529,2.529,0,0,1,1.3,1.112,3.1,3.1,0,0,1,.36,1.78A3.928,3.928,0,0,1,31.531-.844a4.325,4.325,0,0,1-3,1.02A3.638,3.638,0,0,1,25.91-.844,3.233,3.233,0,0,1,25-3.384l1.591.009a2.137,2.137,0,0,0,.475,1.586,2.025,2.025,0,0,0,1.529.637,2.557,2.557,0,0,0,1.872-.642A2.677,2.677,0,0,0,31.324-3.6a1.958,1.958,0,0,0-.475-1.63,2.393,2.393,0,0,0-1.705-.62l-1.222-.009ZM39.683,0h-1.6l1.881-10.793-3.4,1.2.272-1.547,4.746-1.714h.281ZM57.568-4.711a7.545,7.545,0,0,1-.782,2.61,4.442,4.442,0,0,1-1.5,1.736A3.44,3.44,0,0,1,53.3.185,3.167,3.167,0,0,1,50.766-.932l-.853,4.588H48.322L50.607-9.51l1.441-.009-.176,1.063a3.608,3.608,0,0,1,2.821-1.23A2.653,2.653,0,0,1,56.83-8.675a4.448,4.448,0,0,1,.809,2.689,9.464,9.464,0,0,1-.044,1.09ZM56-4.891l.044-.737A3.34,3.34,0,0,0,55.56-7.59a1.715,1.715,0,0,0-1.411-.715A2.821,2.821,0,0,0,51.768-7l-.8,4.556a1.99,1.99,0,0,0,1.925,1.3,2.5,2.5,0,0,0,2.017-.926A5.374,5.374,0,0,0,56-4.891ZM60.565,0H58.983l1.652-9.51h1.582Zm1.31-12.981a.87.87,0,0,1,.672.242.9.9,0,0,1,.268.681.955.955,0,0,1-.268.677.962.962,0,0,1-.672.281.876.876,0,0,1-.677-.237.86.86,0,0,1-.255-.668,1,1,0,0,1,.264-.686A.93.93,0,0,1,61.875-12.981ZM67.28.176A3.429,3.429,0,0,1,64.5-1.134a4.507,4.507,0,0,1-.844-3.261l.044-.378a6.327,6.327,0,0,1,.839-2.584,4.882,4.882,0,0,1,1.683-1.762,3.927,3.927,0,0,1,2.145-.567,3.024,3.024,0,0,1,2.3.976,4.012,4.012,0,0,1,.914,2.549,7.448,7.448,0,0,1-.035,1.143l-.1.729H65.241a3.212,3.212,0,0,0,.426,2.2,2.019,2.019,0,0,0,1.745.94,3.383,3.383,0,0,0,2.6-1.266l.914.773A4.183,4.183,0,0,1,69.385-.294,4.371,4.371,0,0,1,67.28.176Zm1.011-8.534a2.324,2.324,0,0,0-1.718.668,4.748,4.748,0,0,0-1.165,2.065l4.623.009.035-.141A2.6,2.6,0,0,0,69.71-7.6,1.674,1.674,0,0,0,68.291-8.358Zm10.1,5.783q.132-.984-1.081-1.389l-1.652-.483q-2.092-.721-2.021-2.391A2.634,2.634,0,0,1,74.782-8.9a4.085,4.085,0,0,1,2.553-.787,3.406,3.406,0,0,1,2.342.839,2.659,2.659,0,0,1,.866,2.14l-1.582-.009a1.484,1.484,0,0,0-.448-1.16,1.774,1.774,0,0,0-1.239-.466,2.316,2.316,0,0,0-1.424.4A1.48,1.48,0,0,0,75.208-6.9q-.114.826,1.011,1.2l.8.22a5.15,5.15,0,0,1,2.32,1.1A2.1,2.1,0,0,1,79.972-2.7a2.666,2.666,0,0,1-.58,1.547A3.317,3.317,0,0,1,77.985-.145a4.7,4.7,0,0,1-1.872.321,3.71,3.71,0,0,1-2.5-.883,2.731,2.731,0,0,1-.949-2.228l1.591.009a1.686,1.686,0,0,0,.51,1.283,1.948,1.948,0,0,0,1.4.483,2.741,2.741,0,0,0,1.5-.365A1.4,1.4,0,0,0,78.39-2.575Zm5.059-7.618.615.005a1.817,1.817,0,0,0,1.141-.356,1.35,1.35,0,0,0,.531-.966,1.19,1.19,0,0,0-.22-.936,1.059,1.059,0,0,0-.836-.351,1.427,1.427,0,0,0-.992.341,1.506,1.506,0,0,0-.5.946l-.918.005a2.127,2.127,0,0,1,.787-1.5,2.5,2.5,0,0,1,1.669-.566,2,2,0,0,1,1.474.587,1.863,1.863,0,0,1,.464,1.494,1.726,1.726,0,0,1-.405.964,2.7,2.7,0,0,1-.995.723,1.475,1.475,0,0,1,.759.649,1.809,1.809,0,0,1,.21,1.038,2.291,2.291,0,0,1-.8,1.625A2.523,2.523,0,0,1,83.68-5.9a2.122,2.122,0,0,1-1.528-.595,1.886,1.886,0,0,1-.528-1.482l.928.005a1.246,1.246,0,0,0,.277.925,1.181,1.181,0,0,0,.892.372,1.492,1.492,0,0,0,1.092-.374,1.562,1.562,0,0,0,.5-1.056,1.142,1.142,0,0,0-.277-.951,1.4,1.4,0,0,0-.995-.361l-.713-.005Z" transform="translate(782 4253)" fill="#fff"/>
    <path id="Trazado_737887" data-name="Trazado 737887" d="M5.309,0h-1.6L5.59-10.793l-3.4,1.2.272-1.547,4.746-1.714h.281Zm7.875-12.463L12.516-9.29H11.391l.677-4.21h1.283ZM17.174.176A2.888,2.888,0,0,1,14.748-.971a5.091,5.091,0,0,1-.738-3.2q.018-.65.1-1.283l.316-2.136a7.923,7.923,0,0,1,1.608-4.078,3.846,3.846,0,0,1,3.129-1.3A2.923,2.923,0,0,1,21.6-11.852,4.979,4.979,0,0,1,22.342-8.7q-.026.659-.105,1.292l-.308,2.065a8.4,8.4,0,0,1-1.644,4.228A3.821,3.821,0,0,1,17.174.176ZM20.7-7.7a13.6,13.6,0,0,0,.114-1.652q-.044-2.232-1.731-2.294a2.31,2.31,0,0,0-1.991.91,6.306,6.306,0,0,0-1.059,2.993l-.378,2.549a12.965,12.965,0,0,0-.114,1.661q.044,2.329,1.723,2.391A2.258,2.258,0,0,0,19.191-2a6.108,6.108,0,0,0,1.085-2.9ZM27.07.176A2.888,2.888,0,0,1,24.645-.971a5.091,5.091,0,0,1-.738-3.2q.018-.65.1-1.283l.316-2.136a7.923,7.923,0,0,1,1.608-4.078,3.846,3.846,0,0,1,3.129-1.3A2.923,2.923,0,0,1,31.5-11.852,4.979,4.979,0,0,1,32.238-8.7q-.026.659-.105,1.292l-.308,2.065a8.4,8.4,0,0,1-1.644,4.228A3.821,3.821,0,0,1,27.07.176ZM30.595-7.7a13.6,13.6,0,0,0,.114-1.652q-.044-2.232-1.731-2.294a2.31,2.31,0,0,0-1.991.91,6.306,6.306,0,0,0-1.059,2.993L25.55-5.194a12.965,12.965,0,0,0-.114,1.661q.044,2.329,1.723,2.391A2.258,2.258,0,0,0,29.087-2a6.108,6.108,0,0,0,1.085-2.9ZM36.967.176A2.888,2.888,0,0,1,34.541-.971a5.091,5.091,0,0,1-.738-3.2q.018-.65.1-1.283l.316-2.136a7.923,7.923,0,0,1,1.608-4.078,3.846,3.846,0,0,1,3.129-1.3,2.923,2.923,0,0,1,2.439,1.121A4.979,4.979,0,0,1,42.135-8.7q-.026.659-.105,1.292l-.308,2.065a8.4,8.4,0,0,1-1.644,4.228A3.821,3.821,0,0,1,36.967.176ZM40.491-7.7a13.6,13.6,0,0,0,.114-1.652q-.044-2.232-1.731-2.294a2.31,2.31,0,0,0-1.991.91,6.306,6.306,0,0,0-1.059,2.993l-.378,2.549a12.965,12.965,0,0,0-.114,1.661q.044,2.329,1.723,2.391A2.258,2.258,0,0,0,38.984-2a6.108,6.108,0,0,0,1.085-2.9Zm3.665,5.854a.952.952,0,0,1,.712.264.908.908,0,0,1,.272.7.95.95,0,0,1-.29.7,1.046,1.046,0,0,1-.7.286.908.908,0,0,1-.694-.242.908.908,0,0,1-.272-.69,1,1,0,0,1,.272-.716A.987.987,0,0,1,44.156-1.846ZM51.548.176A2.888,2.888,0,0,1,49.122-.971a5.091,5.091,0,0,1-.738-3.2q.018-.65.1-1.283L48.8-7.594a7.923,7.923,0,0,1,1.608-4.078,3.846,3.846,0,0,1,3.129-1.3,2.923,2.923,0,0,1,2.439,1.121A4.979,4.979,0,0,1,56.716-8.7q-.026.659-.105,1.292L56.3-5.344a8.4,8.4,0,0,1-1.644,4.228A3.821,3.821,0,0,1,51.548.176ZM55.072-7.7a13.6,13.6,0,0,0,.114-1.652q-.044-2.232-1.731-2.294a2.31,2.31,0,0,0-1.991.91,6.306,6.306,0,0,0-1.059,2.993l-.378,2.549a12.965,12.965,0,0,0-.114,1.661q.044,2.329,1.723,2.391A2.258,2.258,0,0,0,53.565-2,6.108,6.108,0,0,0,54.65-4.9ZM61.444.176A2.888,2.888,0,0,1,59.019-.971a5.091,5.091,0,0,1-.738-3.2q.018-.65.1-1.283l.316-2.136A7.923,7.923,0,0,1,60.3-11.672a3.846,3.846,0,0,1,3.129-1.3,2.923,2.923,0,0,1,2.439,1.121A4.979,4.979,0,0,1,66.612-8.7q-.026.659-.105,1.292L66.2-5.344a8.4,8.4,0,0,1-1.644,4.228A3.821,3.821,0,0,1,61.444.176ZM64.969-7.7a13.6,13.6,0,0,0,.114-1.652q-.044-2.232-1.731-2.294a2.31,2.31,0,0,0-1.991.91A6.306,6.306,0,0,0,60.3-7.743l-.378,2.549a12.965,12.965,0,0,0-.114,1.661q.044,2.329,1.723,2.391A2.258,2.258,0,0,0,63.461-2a6.108,6.108,0,0,0,1.085-2.9ZM71.341.176A2.888,2.888,0,0,1,68.915-.971a5.091,5.091,0,0,1-.738-3.2q.018-.65.1-1.283l.316-2.136A7.923,7.923,0,0,1,70.2-11.672a3.846,3.846,0,0,1,3.129-1.3,2.923,2.923,0,0,1,2.439,1.121A4.979,4.979,0,0,1,76.509-8.7q-.026.659-.105,1.292L76.1-5.344a8.4,8.4,0,0,1-1.644,4.228A3.821,3.821,0,0,1,71.341.176ZM74.865-7.7a13.6,13.6,0,0,0,.114-1.652q-.044-2.232-1.731-2.294a2.31,2.31,0,0,0-1.991.91A6.306,6.306,0,0,0,70.2-7.743L69.82-5.194a12.965,12.965,0,0,0-.114,1.661Q69.75-1.2,71.429-1.143A2.258,2.258,0,0,0,73.358-2a6.108,6.108,0,0,0,1.085-2.9ZM85.79-1.143a2.413,2.413,0,0,0,1.538-.5,2.362,2.362,0,0,0,.9-1.349L89.728-3a3.391,3.391,0,0,1-.716,1.635A4,4,0,0,1,87.539-.211,4,4,0,0,1,85.72.176a3.394,3.394,0,0,1-2.008-.62A3.469,3.469,0,0,1,82.5-2.123a5.593,5.593,0,0,1-.264-2.421l.044-.439a6.306,6.306,0,0,1,.8-2.452,4.624,4.624,0,0,1,1.652-1.683,4.1,4.1,0,0,1,2.25-.567,3.214,3.214,0,0,1,2.391,1,3.465,3.465,0,0,1,.9,2.452L88.787-6.24a2.283,2.283,0,0,0-.519-1.507,1.808,1.808,0,0,0-1.354-.611,2.536,2.536,0,0,0-2.061.923A4.834,4.834,0,0,0,83.83-4.781l-.026.229a7.623,7.623,0,0,0-.018,1.16,2.65,2.65,0,0,0,.58,1.626A1.863,1.863,0,0,0,85.79-1.143Zm8.35-8.376-.2,1.063a3.718,3.718,0,0,1,2.892-1.23,2.934,2.934,0,0,1,1.534.413,2.026,2.026,0,0,1,.866,1.116,3.927,3.927,0,0,1,3.155-1.529,2.515,2.515,0,0,1,2.1.958,3.422,3.422,0,0,1,.5,2.479L103.939,0h-1.582l1.037-6.267a3.311,3.311,0,0,0,0-.835q-.167-1.2-1.564-1.222a2.4,2.4,0,0,0-1.578.541,2.5,2.5,0,0,0-.91,1.463L98.262,0h-1.6l1.055-6.258a2.009,2.009,0,0,0-.294-1.5,1.549,1.549,0,0,0-1.27-.545,2.6,2.6,0,0,0-2.364,1.354L92.584,0H90.993l1.652-9.51Zm14.112-.675.615.005a1.817,1.817,0,0,0,1.141-.356,1.35,1.35,0,0,0,.531-.966,1.19,1.19,0,0,0-.22-.936,1.059,1.059,0,0,0-.836-.351,1.427,1.427,0,0,0-.992.341,1.506,1.506,0,0,0-.5.946l-.918.005a2.127,2.127,0,0,1,.787-1.5,2.5,2.5,0,0,1,1.669-.566,2,2,0,0,1,1.474.587,1.863,1.863,0,0,1,.464,1.494,1.726,1.726,0,0,1-.405.964,2.7,2.7,0,0,1-.995.723,1.475,1.475,0,0,1,.759.649,1.809,1.809,0,0,1,.21,1.038,2.291,2.291,0,0,1-.8,1.625,2.523,2.523,0,0,1-1.751.595,2.122,2.122,0,0,1-1.528-.595,1.886,1.886,0,0,1-.528-1.482l.928.005a1.246,1.246,0,0,0,.277.925,1.181,1.181,0,0,0,.892.372,1.492,1.492,0,0,0,1.092-.374,1.562,1.562,0,0,0,.5-1.056,1.142,1.142,0,0,0-.277-.951,1.4,1.4,0,0,0-.995-.361l-.713-.005Z" transform="translate(774 4209)" fill="#fff"/>
    <path id="Trazado_737889" data-name="Trazado 737889" d="M0,0H170" transform="translate(745.5 4223.5)" fill="none" stroke="#fff" stroke-width="2"/>
  </g>
</svg>
