<svg xmlns="http://www.w3.org/2000/svg" width="170" height="61.223" viewBox="0 0 170 61.223">
  <g id="Grupo_1013615" data-name="Grupo 1013615" transform="translate(-745.5 -4195.433)">
    <path id="Trazado_732204" data-name="Trazado 732204" d="M3.428-7.189H4.649A2.685,2.685,0,0,0,6.46-7.8a2.026,2.026,0,0,0,.659-1.591,1.985,1.985,0,0,0-2.241-2.25,2.331,2.331,0,0,0-1.683.6,2.107,2.107,0,0,0-.628,1.6H.94a3.264,3.264,0,0,1,1.112-2.527,4.05,4.05,0,0,1,2.826-1.006,4,4,0,0,1,2.839.958A3.461,3.461,0,0,1,8.745-9.352,2.809,2.809,0,0,1,8.2-7.734,3.264,3.264,0,0,1,6.732-6.565a3.145,3.145,0,0,1,1.63,1.107,3.076,3.076,0,0,1,.576,1.89A3.491,3.491,0,0,1,7.813-.835,4.213,4.213,0,0,1,4.887.176,4.324,4.324,0,0,1,1.956-.8,3.236,3.236,0,0,1,.826-3.375H2.461A2.092,2.092,0,0,0,3.12-1.758a2.507,2.507,0,0,0,1.767.606,2.46,2.46,0,0,0,1.8-.615,2.371,2.371,0,0,0,.624-1.767,2.151,2.151,0,0,0-.686-1.714,2.987,2.987,0,0,0-1.978-.615H3.428Zm8.49.773.65-6.381h6.557v1.5H13.948L13.562-7.8A4.13,4.13,0,0,1,15.7-8.358,3.531,3.531,0,0,1,18.475-7.2,4.53,4.53,0,0,1,19.5-4.078,4.372,4.372,0,0,1,18.435-.962,3.892,3.892,0,0,1,15.451.176a4.045,4.045,0,0,1-2.769-.94,3.754,3.754,0,0,1-1.222-2.6H13a2.582,2.582,0,0,0,.782,1.657,2.432,2.432,0,0,0,1.67.558,2.194,2.194,0,0,0,1.78-.773,3.233,3.233,0,0,0,.646-2.136,2.968,2.968,0,0,0-.7-2.061A2.377,2.377,0,0,0,15.319-6.9a2.681,2.681,0,0,0-1.67.466l-.431.352ZM21.48-.853a1.018,1.018,0,0,1,.25-.7.954.954,0,0,1,.751-.281.983.983,0,0,1,.76.281,1,1,0,0,1,.259.7.944.944,0,0,1-.259.677,1,1,0,0,1-.76.272.971.971,0,0,1-.751-.272A.962.962,0,0,1,21.48-.853Zm6.9-6.337H29.6A2.685,2.685,0,0,0,31.412-7.8a2.026,2.026,0,0,0,.659-1.591,1.985,1.985,0,0,0-2.241-2.25,2.331,2.331,0,0,0-1.683.6,2.107,2.107,0,0,0-.628,1.6H25.893A3.264,3.264,0,0,1,27-11.966a4.05,4.05,0,0,1,2.826-1.006,4,4,0,0,1,2.839.958A3.461,3.461,0,0,1,33.7-9.352a2.809,2.809,0,0,1-.541,1.617,3.264,3.264,0,0,1-1.472,1.169,3.145,3.145,0,0,1,1.63,1.107,3.076,3.076,0,0,1,.576,1.89A3.491,3.491,0,0,1,32.766-.835,4.213,4.213,0,0,1,29.839.176,4.324,4.324,0,0,1,26.908-.8a3.236,3.236,0,0,1-1.129-2.575h1.635a2.092,2.092,0,0,0,.659,1.617,2.507,2.507,0,0,0,1.767.606,2.46,2.46,0,0,0,1.8-.615,2.371,2.371,0,0,0,.624-1.767,2.151,2.151,0,0,0-.686-1.714A2.987,2.987,0,0,0,29.6-5.862H28.38ZM41.467,0H39.832V-10.837l-3.278,1.2v-1.477l4.658-1.749h.255Zm17.42-4.649a5.694,5.694,0,0,1-.993,3.5A3.183,3.183,0,0,1,55.2.176a3.488,3.488,0,0,1-2.725-1.1V3.656H50.854V-9.51h1.485l.079,1.055a3.35,3.35,0,0,1,2.76-1.23,3.243,3.243,0,0,1,2.711,1.292,5.756,5.756,0,0,1,1,3.595Zm-1.626-.185a4.2,4.2,0,0,0-.686-2.54,2.208,2.208,0,0,0-1.881-.932A2.39,2.39,0,0,0,52.479-7v4.544a2.4,2.4,0,0,0,2.232,1.3,2.2,2.2,0,0,0,1.859-.927A4.587,4.587,0,0,0,57.261-4.834ZM62.719,0H61.093V-9.51h1.626ZM60.961-12.032A.971.971,0,0,1,61.2-12.7a.907.907,0,0,1,.716-.272.922.922,0,0,1,.721.272.96.96,0,0,1,.246.668.929.929,0,0,1-.246.659.938.938,0,0,1-.721.264.924.924,0,0,1-.716-.264A.938.938,0,0,1,60.961-12.032ZM69.267.176a4.155,4.155,0,0,1-3.146-1.27,4.714,4.714,0,0,1-1.213-3.4v-.3a5.707,5.707,0,0,1,.541-2.527,4.217,4.217,0,0,1,1.512-1.74,3.8,3.8,0,0,1,2.1-.628,3.562,3.562,0,0,1,2.883,1.222,5.289,5.289,0,0,1,1.028,3.5v.677H66.533a3.38,3.38,0,0,0,.822,2.272,2.583,2.583,0,0,0,2,.866A2.832,2.832,0,0,0,70.813-1.5a3.666,3.666,0,0,0,1.046-.932l.993.773A3.993,3.993,0,0,1,69.267.176Zm-.2-8.525a2.169,2.169,0,0,0-1.652.716,3.482,3.482,0,0,0-.826,2.008H71.35v-.123a3.1,3.1,0,0,0-.668-1.92A2.042,2.042,0,0,0,69.064-8.35ZM80.394-2.522a1.2,1.2,0,0,0-.5-1.024,4.78,4.78,0,0,0-1.731-.628,8.186,8.186,0,0,1-1.96-.633,2.788,2.788,0,0,1-1.072-.879A2.1,2.1,0,0,1,74.786-6.9a2.467,2.467,0,0,1,.989-1.978A3.861,3.861,0,0,1,78.3-9.686a3.974,3.974,0,0,1,2.624.835,2.652,2.652,0,0,1,1.006,2.136H80.3a1.468,1.468,0,0,0-.567-1.151A2.124,2.124,0,0,0,78.3-8.35a2.223,2.223,0,0,0-1.389.387,1.217,1.217,0,0,0-.5,1.011.986.986,0,0,0,.466.888,5.731,5.731,0,0,0,1.683.571,8.77,8.77,0,0,1,1.973.65,2.878,2.878,0,0,1,1.121.91,2.237,2.237,0,0,1,.365,1.3A2.434,2.434,0,0,1,81-.593a4.277,4.277,0,0,1-2.646.769,4.789,4.789,0,0,1-2.021-.4,3.288,3.288,0,0,1-1.375-1.129,2.722,2.722,0,0,1-.5-1.569h1.626a1.683,1.683,0,0,0,.655,1.3,2.54,2.54,0,0,0,1.613.479,2.622,2.622,0,0,0,1.481-.374A1.148,1.148,0,0,0,80.394-2.522Zm4.513-7.671h.713a1.566,1.566,0,0,0,1.056-.354,1.182,1.182,0,0,0,.384-.928,1.158,1.158,0,0,0-1.307-1.312,1.36,1.36,0,0,0-.982.351,1.229,1.229,0,0,0-.367.93h-.948A1.9,1.9,0,0,1,84.1-12.98a2.363,2.363,0,0,1,1.648-.587,2.335,2.335,0,0,1,1.656.559,2.019,2.019,0,0,1,.6,1.553,1.638,1.638,0,0,1-.315.943,1.9,1.9,0,0,1-.859.682,1.834,1.834,0,0,1,.951.646,1.794,1.794,0,0,1,.336,1.1,2.036,2.036,0,0,1-.656,1.594,2.457,2.457,0,0,1-1.707.59,2.522,2.522,0,0,1-1.71-.569,1.888,1.888,0,0,1-.659-1.5h.954a1.22,1.22,0,0,0,.384.943,1.462,1.462,0,0,0,1.03.354,1.435,1.435,0,0,0,1.051-.359,1.383,1.383,0,0,0,.364-1.03,1.255,1.255,0,0,0-.4-1,1.742,1.742,0,0,0-1.153-.359h-.713Z" transform="translate(782 4253)" fill="#fff"/>
    <path id="Trazado_732203" data-name="Trazado 732203" d="M6.407,0H4.772V-10.837l-3.278,1.2v-1.477l4.658-1.749h.255Zm5.924-12.524L12.146-9.29H11.013l.009-4.21h1.31Zm10,7.066a7.436,7.436,0,0,1-.976,4.245A3.47,3.47,0,0,1,18.308.176a3.5,3.5,0,0,1-3.032-1.358,7.058,7.058,0,0,1-1.02-4.056V-7.409a7.271,7.271,0,0,1,.976-4.192,3.5,3.5,0,0,1,3.059-1.371,3.528,3.528,0,0,1,3.041,1.323,7.017,7.017,0,0,1,1,4.083ZM20.707-7.682a5.958,5.958,0,0,0-.58-3.01,2,2,0,0,0-1.837-.945,1.97,1.97,0,0,0-1.819.94A5.817,5.817,0,0,0,15.882-7.8v2.6a6.053,6.053,0,0,0,.6,3.063,1.993,1.993,0,0,0,1.824.989A1.966,1.966,0,0,0,20.1-2.083a5.834,5.834,0,0,0,.611-2.936ZM32.44-5.458a7.436,7.436,0,0,1-.976,4.245A3.47,3.47,0,0,1,28.415.176a3.5,3.5,0,0,1-3.032-1.358,7.058,7.058,0,0,1-1.02-4.056V-7.409a7.271,7.271,0,0,1,.976-4.192A3.5,3.5,0,0,1,28.4-12.973a3.528,3.528,0,0,1,3.041,1.323,7.017,7.017,0,0,1,1,4.083ZM30.814-7.682a5.958,5.958,0,0,0-.58-3.01,2,2,0,0,0-1.837-.945,1.97,1.97,0,0,0-1.819.94A5.817,5.817,0,0,0,25.989-7.8v2.6a6.053,6.053,0,0,0,.6,3.063,1.993,1.993,0,0,0,1.824.989A1.966,1.966,0,0,0,30.2-2.083a5.834,5.834,0,0,0,.611-2.936ZM42.548-5.458a7.436,7.436,0,0,1-.976,4.245A3.47,3.47,0,0,1,38.522.176,3.5,3.5,0,0,1,35.49-1.182a7.058,7.058,0,0,1-1.02-4.056V-7.409a7.271,7.271,0,0,1,.976-4.192A3.5,3.5,0,0,1,38.5-12.973a3.528,3.528,0,0,1,3.041,1.323,7.017,7.017,0,0,1,1,4.083ZM40.922-7.682a5.958,5.958,0,0,0-.58-3.01,2,2,0,0,0-1.837-.945,1.97,1.97,0,0,0-1.819.94A5.817,5.817,0,0,0,36.1-7.8v2.6a6.053,6.053,0,0,0,.6,3.063,1.993,1.993,0,0,0,1.824.989,1.966,1.966,0,0,0,1.789-.932,5.834,5.834,0,0,0,.611-2.936ZM44.833-.853a1.018,1.018,0,0,1,.25-.7.954.954,0,0,1,.751-.281.983.983,0,0,1,.76.281,1,1,0,0,1,.259.7.944.944,0,0,1-.259.677,1,1,0,0,1-.76.272.971.971,0,0,1-.751-.272A.962.962,0,0,1,44.833-.853Zm12.56-4.605a7.436,7.436,0,0,1-.976,4.245A3.47,3.47,0,0,1,53.367.176a3.5,3.5,0,0,1-3.032-1.358,7.058,7.058,0,0,1-1.02-4.056V-7.409a7.271,7.271,0,0,1,.976-4.192,3.5,3.5,0,0,1,3.059-1.371,3.528,3.528,0,0,1,3.041,1.323,7.017,7.017,0,0,1,1,4.083ZM55.767-7.682a5.958,5.958,0,0,0-.58-3.01,2,2,0,0,0-1.837-.945,1.97,1.97,0,0,0-1.819.94A5.817,5.817,0,0,0,50.941-7.8v2.6a6.053,6.053,0,0,0,.6,3.063,1.993,1.993,0,0,0,1.824.989,1.966,1.966,0,0,0,1.789-.932,5.834,5.834,0,0,0,.611-2.936ZM67.5-5.458a7.436,7.436,0,0,1-.976,4.245A3.47,3.47,0,0,1,63.475.176a3.5,3.5,0,0,1-3.032-1.358,7.058,7.058,0,0,1-1.02-4.056V-7.409A7.271,7.271,0,0,1,60.4-11.6a3.5,3.5,0,0,1,3.059-1.371A3.528,3.528,0,0,1,66.5-11.65a7.017,7.017,0,0,1,1,4.083ZM65.874-7.682a5.958,5.958,0,0,0-.58-3.01,2,2,0,0,0-1.837-.945,1.97,1.97,0,0,0-1.819.94A5.817,5.817,0,0,0,61.049-7.8v2.6a6.053,6.053,0,0,0,.6,3.063,1.993,1.993,0,0,0,1.824.989,1.966,1.966,0,0,0,1.789-.932,5.834,5.834,0,0,0,.611-2.936ZM77.607-5.458a7.436,7.436,0,0,1-.976,4.245A3.47,3.47,0,0,1,73.582.176,3.5,3.5,0,0,1,70.55-1.182a7.058,7.058,0,0,1-1.02-4.056V-7.409a7.271,7.271,0,0,1,.976-4.192,3.5,3.5,0,0,1,3.059-1.371,3.528,3.528,0,0,1,3.041,1.323,7.017,7.017,0,0,1,1,4.083ZM75.981-7.682a5.958,5.958,0,0,0-.58-3.01,2,2,0,0,0-1.837-.945,1.97,1.97,0,0,0-1.819.94A5.817,5.817,0,0,0,71.156-7.8v2.6a6.053,6.053,0,0,0,.6,3.063,1.993,1.993,0,0,0,1.824.989,1.966,1.966,0,0,0,1.789-.932,5.834,5.834,0,0,0,.611-2.936Zm12.146,6.53a2.342,2.342,0,0,0,1.521-.527A1.855,1.855,0,0,0,90.369-3h1.538a2.949,2.949,0,0,1-.562,1.556A3.7,3.7,0,0,1,89.96-.264a3.994,3.994,0,0,1-1.833.439,3.918,3.918,0,0,1-3.089-1.3,5.163,5.163,0,0,1-1.147-3.546v-.272a5.725,5.725,0,0,1,.51-2.47,3.883,3.883,0,0,1,1.463-1.679,4.157,4.157,0,0,1,2.254-.6,3.814,3.814,0,0,1,2.659.958A3.424,3.424,0,0,1,91.907-6.24H90.369a2.241,2.241,0,0,0-.7-1.516,2.174,2.174,0,0,0-1.551-.593,2.276,2.276,0,0,0-1.92.892,4.19,4.19,0,0,0-.681,2.58v.308a4.106,4.106,0,0,0,.677,2.531A2.287,2.287,0,0,0,88.128-1.151ZM95.265-9.51l.044,1.055a3.512,3.512,0,0,1,2.821-1.23,2.719,2.719,0,0,1,2.716,1.529,3.6,3.6,0,0,1,1.235-1.107,3.647,3.647,0,0,1,1.8-.422q3.129,0,3.182,3.313V0h-1.626V-6.275a2.184,2.184,0,0,0-.466-1.525,2.051,2.051,0,0,0-1.564-.505,2.156,2.156,0,0,0-1.5.541,2.193,2.193,0,0,0-.694,1.455V0H99.571V-6.231a1.814,1.814,0,0,0-2.03-2.074,2.175,2.175,0,0,0-2.188,1.362V0H93.727V-9.51Zm15.016-.684h.713a1.566,1.566,0,0,0,1.056-.354,1.182,1.182,0,0,0,.384-.928,1.158,1.158,0,0,0-1.307-1.312,1.36,1.36,0,0,0-.982.351,1.229,1.229,0,0,0-.367.93h-.948a1.9,1.9,0,0,1,.649-1.474,2.363,2.363,0,0,1,1.648-.587,2.335,2.335,0,0,1,1.656.559,2.019,2.019,0,0,1,.6,1.553,1.638,1.638,0,0,1-.315.943,1.9,1.9,0,0,1-.859.682,1.834,1.834,0,0,1,.951.646,1.794,1.794,0,0,1,.336,1.1,2.036,2.036,0,0,1-.656,1.594,2.457,2.457,0,0,1-1.707.59,2.522,2.522,0,0,1-1.71-.569,1.888,1.888,0,0,1-.659-1.5h.954a1.22,1.22,0,0,0,.384.943,1.462,1.462,0,0,0,1.03.354,1.435,1.435,0,0,0,1.051-.359,1.383,1.383,0,0,0,.364-1.03,1.255,1.255,0,0,0-.4-1,1.742,1.742,0,0,0-1.153-.359h-.713Z" transform="translate(774 4209)" fill="#fff"/>
    <path id="Trazado_732202" data-name="Trazado 732202" d="M0,0H170" transform="translate(745.5 4223.5)" fill="none" stroke="#fff" stroke-width="2"/>
  </g>
</svg>
