<svg xmlns="http://www.w3.org/2000/svg" width="75.533" height="56.654" viewBox="0 0 75.533 56.654">
  <g id="Grupo_1012194" data-name="Grupo 1012194" transform="translate(-190.032 -358.173)">
    <path id="Trazado_730548" data-name="Trazado 730548" d="M269.319,378.714a6.989,6.989,0,0,0,4.4-2.539c-.947-.958-2.928-3.687-4.1-3.469-1.872.347-1.112,4.538-1.707,5.445" transform="translate(-30.251 -5.64)" fill="#ebbb17"/>
    <path id="Trazado_730549" data-name="Trazado 730549" d="M268.831,396.182c2.67.41,5.238,12.779,6.771,15.658,1.2,2.263,1.665,4.5,2.7,6.761,1,2.164,2.786,3.535,4.138,5.47a32.984,32.984,0,0,0,9.536-2.018c3.3-1.378,3.119-2.163,1.4-4.874a48.353,48.353,0,0,1-4.109-8.322c-1.237-3.226-3.212-6.15-4.871-9.3-1.392-2.647-2.34-6.808-4.3-8.763a22.516,22.516,0,0,1-10.189,5.048C270.436,395.53,270.92,395.174,268.831,396.182Z" transform="translate(-30.61 -12.67)" fill="#ebbb17"/>
    <path id="Trazado_730550" data-name="Trazado 730550" d="M201.563,374.557c-1.667.711-4.209.39-6.178,1.482.375,1.406-.365,3.23-.53,4.866-.234,2.332.064,4.711-.048,7.053-.186,3.889-.5,7.925-.311,11.756.185,3.719.553,7.746.924,11.534.194,1.987.183,6.927,1.623,7.891,1.463.979,5.955.057,7.576-.021,2.346-.114,4.631.232,6.882.234,4.374,0,8.544.39,12.925.344,2.4-.024,8.115.291,9.25-2.23,1.084-2.405-.738-7.5-1.081-10.028a38.66,38.66,0,0,1-.009-8.48,93.521,93.521,0,0,0-.272-21.312c-.2-1.374-.245-3.4-1.665-3.957-.9-.353-2.727.62-3.758.591-1.161-.032-2.132-.528-3.274-.527-1.071,4.4-17.689.605-21.553,1.657C201.849,375.682,202.284,375.369,201.563,374.557Z" transform="translate(-1.711 -5.997)" fill="#4db1f0"/>
    <path id="Trazado_730551" data-name="Trazado 730551" d="M272.112,384.845c-.12.114-.237.188-.282,0" transform="translate(-31.775 -10.361)" fill="#cdd7e3"/>
    <path id="Trazado_730552" data-name="Trazado 730552" d="M270.952,383.23c-.5.194.7,7.187.54,8.721a2.617,2.617,0,0,1-2.8-.015c-.8-.615-.554-2.8-.5-3.968a14.991,14.991,0,0,1,.339-3.461C269.05,383.02,270.523,383.332,270.952,383.23Z" transform="translate(-30.333 -9.734)" fill="#cdd7e3"/>
    <path id="Trazado_730553" data-name="Trazado 730553" d="M207.291,367.776c2.235,2.626,8.554,3.083,12.414,3.244,2.749.115,6.082-.59,8.584.021.341,2.719-9.273,1.78-10.869,1.951-2.017.216-3.543-.276-5.473-.279-1.45,0-3.123.391-4.489-.166C207.145,371.264,206.706,368.63,207.291,367.776Z" transform="translate(-6.593 -3.73)" fill="#cdd7e3"/>
    <path id="Trazado_730554" data-name="Trazado 730554" d="M231.114,376.459l-.3-10.378a.977.977,0,0,0-.967-.967,39.671,39.671,0,0,1-7.3-.119,12.028,12.028,0,0,0-.15-1.379.987.987,0,0,0-.945-.72c-1.051-.011-2.1-.026-3.151-.018-.47,0-.927.05-1.393.077-.163.01-.326,0-.489,0H216.4a4.835,4.835,0,0,0-.936-2.69,4.984,4.984,0,0,0-3.375-2.063,5.449,5.449,0,0,0-5.663,4.442c-1.068-.023-2.135-.019-3.2.044-.936.056-2.836-.008-3.323.969a.332.332,0,0,0,.05.383.929.929,0,0,0,.085.072,3.006,3.006,0,0,0-.484,1.926c-1.5.135-3,.325-4.5.514-1.181.149-2.886.058-3.825.918s-.794,2.368-.829,3.52q-.072,2.376-.128,4.752-.238,9.719-.236,19.442.007,4.9.057,9.793c.015,1.584.044,3.168.079,4.752.026,1.167-.191,2.764.767,3.641a2.626,2.626,0,0,0,1.614.537c.853.087,1.707.164,2.561.239q2.349.2,4.7.35c3.231.2,6.47.3,9.706.326a190.42,190.42,0,0,0,21.671-1.056,1,1,0,0,0,.983-.983Q231.643,394.619,231.114,376.459Zm-29.833-11.967c.692.019,1.389-.018,2.081-.035q2.016-.049,4.031.073a.944.944,0,0,0,.9-1.183c-.381-1.778,2.219-3.566,3.805-3.214a3.145,3.145,0,0,1,1.943,1.429,2.91,2.91,0,0,1,.41,1.066,3.778,3.778,0,0,0,.222,1.349.814.814,0,0,0,1.24.188,1.784,1.784,0,0,0,.77.492,8.87,8.87,0,0,0,2.172.164c.577.013,1.153.017,1.73.021a8.8,8.8,0,0,1-.28,2.986,89.846,89.846,0,0,1-11.912.875c-1.037.007-2.074-.008-3.112-.032a22.4,22.4,0,0,1-2.951-.12c-.8-.127-.838-.963-.978-1.64a9.8,9.8,0,0,0-.544-2.46A4.414,4.414,0,0,0,201.281,364.492Zm-6.026,47.789q-1.068-.083-2.134-.177a2.7,2.7,0,0,1-.9-.091c-.152-.1-.148-.335-.165-.519-.129-1.438-.085-2.914-.119-4.358-.072-3.025-.165-6.048-.2-9.073q-.113-9.073-.007-18.147c.039-3.359.08-6.722.2-10.079.023-.642.036-1.278.751-1.48a17.075,17.075,0,0,1,2.287-.341c1.566-.217,3.13-.431,4.687-.7a3.7,3.7,0,0,0,.905,2.43,4.16,4.16,0,0,0,2.745.761q1.766.1,3.534.125a93.13,93.13,0,0,0,14.5-.985.967.967,0,0,0,.682-.682,10.416,10.416,0,0,0,.449-2.069,35.776,35.776,0,0,0,6.442.2q.507,17.652,1,35.3l.268,9.488A197.534,197.534,0,0,1,195.255,412.281Z" transform="translate(0 0)" fill="#334355"/>
    <path id="Trazado_730555" data-name="Trazado 730555" d="M224.514,365.317a.926.926,0,0,0-.646-.646l-.246-.033a.928.928,0,0,0-.8.459l-.042.1-.032.057-.087.207a.656.656,0,0,0-.015.345.427.427,0,0,0,.059.218.639.639,0,0,0,.179.278l.175.135.207.087a.655.655,0,0,0,.345.015.635.635,0,0,0,.321-.1l.1-.056c.018-.01.04-.007.057-.018a.936.936,0,0,0,.332-.333.687.687,0,0,0,.109-.344A.7.7,0,0,0,224.514,365.317Z" transform="translate(-12.662 -2.511)" fill="#334355"/>
    <path id="Trazado_730556" data-name="Trazado 730556" d="M227.712,386.755a17.211,17.211,0,0,0-2.877.05q-1.438.054-2.878.091-2.879.072-5.759.084c-1.872.01-3.744,0-5.616-.007-.96,0-1.918-.013-2.879-.012a12.523,12.523,0,0,0-2.864.128l.006.015a.491.491,0,0,0-.006.94,11.008,11.008,0,0,0,2.721.358c.959.074,1.918.128,2.879.175,1.967.1,3.934.136,5.9.149q2.88.017,5.759-.057,1.439-.035,2.879-.089a15.376,15.376,0,0,0,2.949-.225C228.9,388.124,228.551,386.866,227.712,386.755Z" transform="translate(-5.616 -11.083)" fill="#334355"/>
    <path id="Trazado_730557" data-name="Trazado 730557" d="M227.712,401.95a17.208,17.208,0,0,0-2.877.05q-1.438.054-2.878.091-2.879.072-5.759.084c-1.872.01-3.744,0-5.616-.007-.96,0-1.918-.012-2.879-.012a12.488,12.488,0,0,0-2.864.128l.006.015a.49.49,0,0,0-.006.939,11.008,11.008,0,0,0,2.721.359c.959.074,1.918.127,2.879.175,1.967.1,3.934.137,5.9.149q2.88.017,5.759-.057,1.439-.035,2.879-.089a15.328,15.328,0,0,0,2.949-.225C228.9,403.319,228.551,402.061,227.712,401.95Z" transform="translate(-5.616 -16.986)" fill="#334355"/>
    <path id="Trazado_730558" data-name="Trazado 730558" d="M227.712,417.145a17.208,17.208,0,0,0-2.877.05q-1.438.055-2.878.091-2.879.072-5.759.084c-1.872.009-3.744,0-5.616-.008-.96,0-1.918-.012-2.879-.012a12.488,12.488,0,0,0-2.864.128l.006.015a.49.49,0,0,0-.006.939,11.01,11.01,0,0,0,2.721.359c.959.074,1.918.128,2.879.175,1.967.1,3.934.136,5.9.148q2.88.017,5.759-.057,1.439-.036,2.879-.09a15.277,15.277,0,0,0,2.949-.225C228.9,418.515,228.551,417.257,227.712,417.145Z" transform="translate(-5.616 -22.888)" fill="#334355"/>
    <path id="Trazado_730559" data-name="Trazado 730559" d="M227.712,432.341a17.211,17.211,0,0,0-2.877.05q-1.438.054-2.878.091-2.879.072-5.759.084c-1.872.01-3.744,0-5.616-.007-.96,0-1.918-.013-2.879-.012a12.523,12.523,0,0,0-2.864.128l.006.015a.49.49,0,0,0-.006.94,11.009,11.009,0,0,0,2.721.358c.959.075,1.918.128,2.879.176,1.967.1,3.934.136,5.9.149q2.88.017,5.759-.057,1.439-.035,2.879-.089a15.381,15.381,0,0,0,2.949-.225C228.9,433.71,228.551,432.452,227.712,432.341Z" transform="translate(-5.616 -28.791)" fill="#334355"/>
    <path id="Trazado_730560" data-name="Trazado 730560" d="M279.415,379.845a61.339,61.339,0,0,0-8.409-6.276c-1.065-.665-2.7-1.969-3.977-1.067-.694.489-.523,1.333-.532,2.084q-.019,1.423-.037,2.846c-.026,2.041-.05,4.081-.051,6.122,0,1.044.009,2.092.057,3.135a4.3,4.3,0,0,0,.483,2.513.314.314,0,0,0,.32.083,36.764,36.764,0,0,0,1.534,3.682q1.832,4.178,3.727,8.33,1.931,4.212,3.918,8.4.979,2.06,1.984,4.108a9.967,9.967,0,0,0,2.249,3.431c1.917,1.616,5.057,1.161,7.29.548a13.861,13.861,0,0,0,6.49-3.7,2.927,2.927,0,0,0,.52-3.214c-.487-1.353-1.051-2.683-1.6-4.01-1.127-2.712-2.359-5.371-3.618-8.024-1.416-2.984-2.9-5.937-4.464-8.845q-1.175-2.18-2.411-4.328a30.675,30.675,0,0,0-1.874-3.178.845.845,0,0,0,.145-.657C281.005,381.011,279.986,380.356,279.415,379.845Zm-11.146-5.837a8.675,8.675,0,0,1,1.435.846c.752.465,1.492.95,2.222,1.449a3.251,3.251,0,0,1-1.586,1.393,8.169,8.169,0,0,1-1.518.438c-.176.04-.4.08-.625.142C268.219,376.853,268.248,375.43,268.269,374.008ZM284.15,416.4c-.183,0-.366.019-.548.007a3.132,3.132,0,0,1-2.658-1.787c-.665-1.152-1.207-2.387-1.788-3.583-1.185-2.436-2.375-4.868-3.536-7.315q-1.956-4.121-3.856-8.267c-.634-1.381-1.245-2.774-1.888-4.151-.321-.688-.654-1.371-.979-2.057-.035-.075-.1-.189-.166-.321a8.454,8.454,0,0,1,1.355.077,12.451,12.451,0,0,0,1.885-.12c.213-.03.421-.076.631-.119.05.16.1.317.155.467.2.587.432,1.165.651,1.746.5,1.331,1.05,2.643,1.586,3.96q1.557,3.816,3.17,7.608t3.26,7.568q.853,1.953,1.715,3.9C283.482,414.791,283.8,415.607,284.15,416.4Zm1.587-.088c-.378-.9-.833-1.791-1.224-2.675q-.864-1.948-1.718-3.9-1.651-3.775-3.267-7.565t-3.211-7.588c-.55-1.308-1.082-2.627-1.651-3.927-.265-.6-.518-1.22-.8-1.816-.054-.114-.111-.236-.169-.357a11.037,11.037,0,0,0,1.956-.831,12.665,12.665,0,0,0,1.813-1.211c.078.2.161.4.243.6.247.612.505,1.219.762,1.827q.825,1.953,1.665,3.9c1.1,2.551,2.244,5.085,3.4,7.614s2.323,5.049,3.511,7.561q.907,1.915,1.828,3.824c.487,1.01.942,2.056,1.465,3.053-.074.04-.146.085-.221.124A13.218,13.218,0,0,1,285.737,416.312Zm-4.83-30.885q.968,1.666,1.9,3.352,1.9,3.434,3.64,6.948c2.346,4.728,4.408,9.6,6.3,14.52.193.5.419,1,.564,1.522a1.06,1.06,0,0,1-.412,1.219,11.626,11.626,0,0,1-1.424,1.142c-.458-.994-.966-1.972-1.439-2.951q-.922-1.909-1.829-3.824-1.755-3.7-3.456-7.43c-1.134-2.485-2.24-4.983-3.353-7.478q-.863-1.935-1.712-3.876c-.264-.6-.523-1.21-.791-1.813-.165-.372-.32-.767-.522-1.128.1-.1.2-.187.293-.286a10.214,10.214,0,0,0,1.257-1.564C280.235,384.333,280.585,384.87,280.907,385.427Zm-7.175,1.068a11.7,11.7,0,0,1-3.382.92,14.842,14.842,0,0,0-2.024.087c0-.008,0-.019.007-.026a.269.269,0,0,0-.213-.409,1.138,1.138,0,0,0-.151.024c.028-.533.021-1.056.038-1.468.056-1.327.1-2.654.132-3.981.018-.722.023-1.444.037-2.165a4.929,4.929,0,0,0,1.079-.076,7.628,7.628,0,0,0,1.909-.549,4.41,4.41,0,0,0,1.959-1.689c1.06.768,2.1,1.563,3.1,2.4.676.567,1.335,1.153,1.988,1.745.168.152.36.353.563.559C277.974,384,275.751,385.636,273.732,386.5Z" transform="translate(-29.669 -5.447)" fill="#334355"/>
  </g>
</svg>
