<svg xmlns="http://www.w3.org/2000/svg" width="450.18" height="41.456" viewBox="0 0 450.18 41.456">
  <g id="Grupo_1016020" data-name="Grupo 1016020" transform="translate(-516.5 -6871.789)">
    <path id="Trazado_737912" data-name="Trazado 737912" d="M6.407,0H4.772V-10.837l-3.278,1.2v-1.477l4.658-1.749h.255ZM19.556,0H11.171V-1.169L15.6-6.091a10.524,10.524,0,0,0,1.358-1.815,3.029,3.029,0,0,0,.374-1.446A2.3,2.3,0,0,0,16.726-11a2.12,2.12,0,0,0-1.617-.642,2.511,2.511,0,0,0-1.885.69,2.635,2.635,0,0,0-.672,1.92H10.925a3.774,3.774,0,0,1,1.138-2.856,4.219,4.219,0,0,1,3.045-1.09,4.054,4.054,0,0,1,2.821.936,3.193,3.193,0,0,1,1.037,2.492q0,1.89-2.408,4.5L13.131-1.327h6.425ZM29.3-5.458a7.436,7.436,0,0,1-.976,4.245A3.47,3.47,0,0,1,25.277.176a3.5,3.5,0,0,1-3.032-1.358,7.058,7.058,0,0,1-1.02-4.056V-7.409A7.271,7.271,0,0,1,22.2-11.6a3.5,3.5,0,0,1,3.059-1.371A3.528,3.528,0,0,1,28.3-11.65a7.017,7.017,0,0,1,1,4.083ZM27.677-7.682a5.958,5.958,0,0,0-.58-3.01,2,2,0,0,0-1.837-.945,1.97,1.97,0,0,0-1.819.94A5.817,5.817,0,0,0,22.852-7.8v2.6a6.053,6.053,0,0,0,.6,3.063,1.993,1.993,0,0,0,1.824.989,1.966,1.966,0,0,0,1.789-.932,5.834,5.834,0,0,0,.611-2.936ZM39.41-5.458a7.436,7.436,0,0,1-.976,4.245A3.47,3.47,0,0,1,35.385.176a3.5,3.5,0,0,1-3.032-1.358,7.058,7.058,0,0,1-1.02-4.056V-7.409a7.271,7.271,0,0,1,.976-4.192,3.5,3.5,0,0,1,3.059-1.371,3.528,3.528,0,0,1,3.041,1.323,7.017,7.017,0,0,1,1,4.083ZM37.784-7.682a5.958,5.958,0,0,0-.58-3.01,2,2,0,0,0-1.837-.945,1.97,1.97,0,0,0-1.819.94A5.817,5.817,0,0,0,32.959-7.8v2.6a6.053,6.053,0,0,0,.6,3.063,1.993,1.993,0,0,0,1.824.989,1.966,1.966,0,0,0,1.789-.932,5.834,5.834,0,0,0,.611-2.936ZM47.646-9.51l.044,1.055a3.512,3.512,0,0,1,2.821-1.23,2.719,2.719,0,0,1,2.716,1.529,3.6,3.6,0,0,1,1.235-1.107,3.647,3.647,0,0,1,1.8-.422q3.129,0,3.182,3.313V0H57.814V-6.275A2.184,2.184,0,0,0,57.349-7.8a2.051,2.051,0,0,0-1.564-.505,2.156,2.156,0,0,0-1.5.541,2.193,2.193,0,0,0-.694,1.455V0H51.952V-6.231a1.814,1.814,0,0,0-2.03-2.074,2.175,2.175,0,0,0-2.188,1.362V0H46.107V-9.51Zm13.86,4.676a5.589,5.589,0,0,1,1.028-3.538,3.289,3.289,0,0,1,2.725-1.314,3.271,3.271,0,0,1,2.716,1.23l.079-1.055h1.485V-.229a3.869,3.869,0,0,1-1.094,2.909A4.038,4.038,0,0,1,65.5,3.744,4.891,4.891,0,0,1,63.492,3.3a3.465,3.465,0,0,1-1.5-1.2l.844-.976a3.18,3.18,0,0,0,2.558,1.292,2.491,2.491,0,0,0,1.85-.668A2.553,2.553,0,0,0,67.9-.132V-.949A3.342,3.342,0,0,1,65.241.176a3.248,3.248,0,0,1-2.7-1.345A5.876,5.876,0,0,1,61.506-4.834Zm1.635.185A4.264,4.264,0,0,0,63.8-2.123a2.142,2.142,0,0,0,1.846.918A2.382,2.382,0,0,0,67.9-2.6V-6.943a2.41,2.41,0,0,0-2.241-1.362,2.161,2.161,0,0,0-1.854.923A4.644,4.644,0,0,0,63.141-4.649ZM72.316,1.1h-1.4l5.344-13.9h1.389ZM81.176,0H79.55V-13.5h1.626Z" transform="translate(675 6909.5)" fill="#fff"/>
    <path id="Trazado_737911" data-name="Trazado 737911" d="M6.407,0H4.772V-10.837l-3.278,1.2v-1.477l4.658-1.749h.255ZM19.556,0H11.171V-1.169L15.6-6.091a10.524,10.524,0,0,0,1.358-1.815,3.029,3.029,0,0,0,.374-1.446A2.3,2.3,0,0,0,16.726-11a2.12,2.12,0,0,0-1.617-.642,2.511,2.511,0,0,0-1.885.69,2.635,2.635,0,0,0-.672,1.92H10.925a3.774,3.774,0,0,1,1.138-2.856,4.219,4.219,0,0,1,3.045-1.09,4.054,4.054,0,0,1,2.821.936,3.193,3.193,0,0,1,1.037,2.492q0,1.89-2.408,4.5L13.131-1.327h6.425ZM29.3-5.458a7.436,7.436,0,0,1-.976,4.245A3.47,3.47,0,0,1,25.277.176a3.5,3.5,0,0,1-3.032-1.358,7.058,7.058,0,0,1-1.02-4.056V-7.409A7.271,7.271,0,0,1,22.2-11.6a3.5,3.5,0,0,1,3.059-1.371A3.528,3.528,0,0,1,28.3-11.65a7.017,7.017,0,0,1,1,4.083ZM27.677-7.682a5.958,5.958,0,0,0-.58-3.01,2,2,0,0,0-1.837-.945,1.97,1.97,0,0,0-1.819.94A5.817,5.817,0,0,0,22.852-7.8v2.6a6.053,6.053,0,0,0,.6,3.063,1.993,1.993,0,0,0,1.824.989,1.966,1.966,0,0,0,1.789-.932,5.834,5.834,0,0,0,.611-2.936ZM39.41-5.458a7.436,7.436,0,0,1-.976,4.245A3.47,3.47,0,0,1,35.385.176a3.5,3.5,0,0,1-3.032-1.358,7.058,7.058,0,0,1-1.02-4.056V-7.409a7.271,7.271,0,0,1,.976-4.192,3.5,3.5,0,0,1,3.059-1.371,3.528,3.528,0,0,1,3.041,1.323,7.017,7.017,0,0,1,1,4.083ZM37.784-7.682a5.958,5.958,0,0,0-.58-3.01,2,2,0,0,0-1.837-.945,1.97,1.97,0,0,0-1.819.94A5.817,5.817,0,0,0,32.959-7.8v2.6a6.053,6.053,0,0,0,.6,3.063,1.993,1.993,0,0,0,1.824.989,1.966,1.966,0,0,0,1.789-.932,5.834,5.834,0,0,0,.611-2.936ZM47.646-9.51l.044,1.055a3.512,3.512,0,0,1,2.821-1.23,2.719,2.719,0,0,1,2.716,1.529,3.6,3.6,0,0,1,1.235-1.107,3.647,3.647,0,0,1,1.8-.422q3.129,0,3.182,3.313V0H57.814V-6.275A2.184,2.184,0,0,0,57.349-7.8a2.051,2.051,0,0,0-1.564-.505,2.156,2.156,0,0,0-1.5.541,2.193,2.193,0,0,0-.694,1.455V0H51.952V-6.231a1.814,1.814,0,0,0-2.03-2.074,2.175,2.175,0,0,0-2.188,1.362V0H46.107V-9.51Zm13.86,4.676a5.589,5.589,0,0,1,1.028-3.538,3.289,3.289,0,0,1,2.725-1.314,3.271,3.271,0,0,1,2.716,1.23l.079-1.055h1.485V-.229a3.869,3.869,0,0,1-1.094,2.909A4.038,4.038,0,0,1,65.5,3.744,4.891,4.891,0,0,1,63.492,3.3a3.465,3.465,0,0,1-1.5-1.2l.844-.976a3.18,3.18,0,0,0,2.558,1.292,2.491,2.491,0,0,0,1.85-.668A2.553,2.553,0,0,0,67.9-.132V-.949A3.342,3.342,0,0,1,65.241.176a3.248,3.248,0,0,1-2.7-1.345A5.876,5.876,0,0,1,61.506-4.834Zm1.635.185A4.264,4.264,0,0,0,63.8-2.123a2.142,2.142,0,0,0,1.846.918A2.382,2.382,0,0,0,67.9-2.6V-6.943a2.41,2.41,0,0,0-2.241-1.362,2.161,2.161,0,0,0-1.854.923A4.644,4.644,0,0,0,63.141-4.649ZM72.316,1.1h-1.4l5.344-13.9h1.389ZM81.176,0H79.55V-13.5h1.626ZM91.617-4.772H87.328V-6.1h4.289Zm15.082.694a5.1,5.1,0,0,1-1.8,3.146A5.036,5.036,0,0,1,101.479.176,3.987,3.987,0,0,1,99.4-.409a3.693,3.693,0,0,1-1.38-1.608,6.007,6.007,0,0,1-.545-2.325,7.451,7.451,0,0,1,.062-1.406L97.69-6.8a7.96,7.96,0,0,1,2.026-4.548,5.112,5.112,0,0,1,3.924-1.622,3.828,3.828,0,0,1,2.856,1.165,4.632,4.632,0,0,1,1.116,3.133H105.97q-.114-2.689-2.109-2.9l-.29-.018a3.4,3.4,0,0,0-2.773,1.235A6.685,6.685,0,0,0,99.36-6.864l-.193,1.327-.053.773a4.35,4.35,0,0,0,.576,2.571,2.171,2.171,0,0,0,1.868.989,3.29,3.29,0,0,0,2.21-.642A4.269,4.269,0,0,0,105.1-4.052Zm6.732-5.607a3.428,3.428,0,0,1,2.048.65,3.7,3.7,0,0,1,1.261,1.745,5.4,5.4,0,0,1,.277,2.43L117-4.667a6.4,6.4,0,0,1-.826,2.509,4.848,4.848,0,0,1-1.705,1.745,4.158,4.158,0,0,1-2.294.589,3.434,3.434,0,0,1-2.043-.65A3.611,3.611,0,0,1,108.879-2.2a5.547,5.547,0,0,1-.281-2.4,6.48,6.48,0,0,1,.8-2.654,4.96,4.96,0,0,1,1.718-1.824A4.109,4.109,0,0,1,113.432-9.686Zm-3.234,5.1a5.4,5.4,0,0,0,0,1.151,2.821,2.821,0,0,0,.62,1.652,1.86,1.86,0,0,0,1.419.642,2.534,2.534,0,0,0,1.459-.391,3.284,3.284,0,0,0,1.125-1.261,5.311,5.311,0,0,0,.589-1.872,8.431,8.431,0,0,0,.026-1.362,2.927,2.927,0,0,0-.642-1.679,1.9,1.9,0,0,0-1.424-.65,2.592,2.592,0,0,0-2.092.967,4.776,4.776,0,0,0-1.063,2.6Zm11.153-4.931-.229,1.2a3.749,3.749,0,0,1,2.918-1.371,2.359,2.359,0,0,1,1.986.932,3.619,3.619,0,0,1,.475,2.522L125.464,0h-1.591l1.046-6.251a3.332,3.332,0,0,0,.009-.8,1.314,1.314,0,0,0-1.45-1.255,2.994,2.994,0,0,0-2.514,1.528L119.786,0H118.2l1.652-9.51Zm10.582,8.376a2.413,2.413,0,0,0,1.538-.5,2.362,2.362,0,0,0,.9-1.349L135.87-3a3.391,3.391,0,0,1-.716,1.635,4,4,0,0,1-1.472,1.151,4,4,0,0,1-1.819.387,3.394,3.394,0,0,1-2.008-.62,3.469,3.469,0,0,1-1.208-1.679,5.593,5.593,0,0,1-.264-2.421l.044-.439a6.306,6.306,0,0,1,.8-2.452,4.624,4.624,0,0,1,1.652-1.683,4.1,4.1,0,0,1,2.25-.567,3.214,3.214,0,0,1,2.391,1,3.465,3.465,0,0,1,.9,2.452L134.93-6.24a2.283,2.283,0,0,0-.519-1.507,1.808,1.808,0,0,0-1.354-.611A2.536,2.536,0,0,0,131-7.436a4.834,4.834,0,0,0-1.024,2.654l-.026.229a7.623,7.623,0,0,0-.018,1.16,2.65,2.65,0,0,0,.58,1.626A1.863,1.863,0,0,0,131.933-1.143ZM141.258.176a3.429,3.429,0,0,1-2.777-1.31,4.507,4.507,0,0,1-.844-3.261l.044-.378a6.327,6.327,0,0,1,.839-2.584A4.882,4.882,0,0,1,140.2-9.119a3.927,3.927,0,0,1,2.145-.567,3.024,3.024,0,0,1,2.3.976,4.012,4.012,0,0,1,.914,2.549,7.448,7.448,0,0,1-.035,1.143l-.1.729h-6.214a3.212,3.212,0,0,0,.426,2.2,2.019,2.019,0,0,0,1.745.94,3.383,3.383,0,0,0,2.6-1.266l.914.773a4.183,4.183,0,0,1-1.542,1.349A4.371,4.371,0,0,1,141.258.176Zm1.011-8.534a2.324,2.324,0,0,0-1.718.668,4.748,4.748,0,0,0-1.165,2.065l4.623.009.035-.141a2.6,2.6,0,0,0-.356-1.841A1.674,1.674,0,0,0,142.269-8.358Zm7.365-1.16-.229,1.2a3.749,3.749,0,0,1,2.918-1.371,2.359,2.359,0,0,1,1.986.932,3.619,3.619,0,0,1,.475,2.522L153.747,0h-1.591L153.2-6.251a3.332,3.332,0,0,0,.009-.8,1.314,1.314,0,0,0-1.45-1.255,2.994,2.994,0,0,0-2.514,1.528L148.069,0h-1.591l1.652-9.51ZM160.4-11.812l-.4,2.3h1.731l-.22,1.257h-1.723l-.993,5.915a2.062,2.062,0,0,0-.009.422.67.67,0,0,0,.747.686,4.556,4.556,0,0,0,.773-.088L160.181.009a4.328,4.328,0,0,1-1.16.158,1.661,1.661,0,0,1-1.424-.7,2.7,2.7,0,0,1-.369-1.833l.967-5.889h-1.679l.22-1.257h1.679l.4-2.3Zm7.506,3.753-.747-.079a2.722,2.722,0,0,0-2.408,1.38L163.582,0h-1.591l1.652-9.51,1.538-.009-.237,1.107A2.843,2.843,0,0,1,167.326-9.7a2.918,2.918,0,0,1,.756.132ZM173.452,0a2.13,2.13,0,0,1-.062-.5l.026-.5A3.9,3.9,0,0,1,170.64.176a2.841,2.841,0,0,1-2.043-.8,2.407,2.407,0,0,1-.716-1.947,2.927,2.927,0,0,1,1.323-2.36,5.631,5.631,0,0,1,3.248-.848l1.661.009.105-.756a1.738,1.738,0,0,0-.33-1.349,1.591,1.591,0,0,0-1.252-.514,2.453,2.453,0,0,0-1.446.4,1.7,1.7,0,0,0-.769,1.1l-1.6.009a2.55,2.55,0,0,1,.65-1.481,3.784,3.784,0,0,1,1.468-1,4.742,4.742,0,0,1,1.854-.338,3.153,3.153,0,0,1,2.312.9,2.794,2.794,0,0,1,.694,2.3l-.773,4.711-.044.677a3.318,3.318,0,0,0,.105.958L175.069,0Zm-2.5-1.23A2.774,2.774,0,0,0,172.4-1.6a3.661,3.661,0,0,0,1.173-1.059l.343-1.96-1.2-.009a4.561,4.561,0,0,0-2.3.475,1.748,1.748,0,0,0-.905,1.345,1.361,1.361,0,0,0,.312,1.112A1.486,1.486,0,0,0,170.956-1.23Zm10.283.088a2.413,2.413,0,0,0,1.538-.5,2.362,2.362,0,0,0,.9-1.349l1.5-.009a3.391,3.391,0,0,1-.716,1.635,4,4,0,0,1-1.472,1.151,4,4,0,0,1-1.819.387,3.394,3.394,0,0,1-2.008-.62,3.469,3.469,0,0,1-1.208-1.679,5.593,5.593,0,0,1-.264-2.421l.044-.439a6.306,6.306,0,0,1,.8-2.452,4.624,4.624,0,0,1,1.652-1.683,4.1,4.1,0,0,1,2.25-.567,3.214,3.214,0,0,1,2.391,1,3.465,3.465,0,0,1,.9,2.452l-1.485-.009a2.283,2.283,0,0,0-.519-1.507,1.808,1.808,0,0,0-1.354-.611,2.536,2.536,0,0,0-2.061.923,4.834,4.834,0,0,0-1.024,2.654l-.026.229a7.623,7.623,0,0,0-.018,1.16,2.65,2.65,0,0,0,.58,1.626A1.863,1.863,0,0,0,181.239-1.143ZM188.174,0h-1.582l1.652-9.51h1.582Zm1.31-12.981a.87.87,0,0,1,.672.242.9.9,0,0,1,.268.681.955.955,0,0,1-.268.677.962.962,0,0,1-.672.281.876.876,0,0,1-.677-.237.86.86,0,0,1-.255-.668,1,1,0,0,1,.264-.686A.93.93,0,0,1,189.483-12.981Zm6.574,3.3a3.428,3.428,0,0,1,2.048.65,3.7,3.7,0,0,1,1.261,1.745,5.4,5.4,0,0,1,.277,2.43l-.018.193a6.4,6.4,0,0,1-.826,2.509,4.848,4.848,0,0,1-1.705,1.745A4.158,4.158,0,0,1,194.8.176a3.434,3.434,0,0,1-2.043-.65A3.611,3.611,0,0,1,191.5-2.2a5.547,5.547,0,0,1-.281-2.4,6.48,6.48,0,0,1,.8-2.654,4.96,4.96,0,0,1,1.718-1.824A4.109,4.109,0,0,1,196.058-9.686Zm-3.234,5.1a5.4,5.4,0,0,0,0,1.151,2.821,2.821,0,0,0,.62,1.652,1.86,1.86,0,0,0,1.419.642,2.534,2.534,0,0,0,1.459-.391,3.284,3.284,0,0,0,1.125-1.261,5.311,5.311,0,0,0,.589-1.872,8.431,8.431,0,0,0,.026-1.362,2.927,2.927,0,0,0-.642-1.679A1.9,1.9,0,0,0,196-8.358a2.592,2.592,0,0,0-2.092.967,4.776,4.776,0,0,0-1.063,2.6Zm4.588-8.912h2.03l-2.689,2.584-1.4,0Zm6.565,3.981-.229,1.2a3.749,3.749,0,0,1,2.918-1.371,2.359,2.359,0,0,1,1.986.932,3.619,3.619,0,0,1,.475,2.522L208.09,0H206.5l1.046-6.251a3.332,3.332,0,0,0,.009-.8,1.314,1.314,0,0,0-1.45-1.255,2.994,2.994,0,0,0-2.514,1.528L202.412,0h-1.591l1.652-9.51ZM219.067.176a3.429,3.429,0,0,1-2.777-1.31,4.507,4.507,0,0,1-.844-3.261l.044-.378a6.327,6.327,0,0,1,.839-2.584,4.882,4.882,0,0,1,1.683-1.762,3.927,3.927,0,0,1,2.145-.567,3.024,3.024,0,0,1,2.3.976,4.012,4.012,0,0,1,.914,2.549,7.448,7.448,0,0,1-.035,1.143l-.1.729h-6.214a3.212,3.212,0,0,0,.426,2.2,2.019,2.019,0,0,0,1.745.94,3.383,3.383,0,0,0,2.6-1.266l.914.773a4.183,4.183,0,0,1-1.542,1.349A4.371,4.371,0,0,1,219.067.176Zm1.011-8.534a2.324,2.324,0,0,0-1.718.668A4.748,4.748,0,0,0,217.2-5.625l4.623.009.035-.141A2.6,2.6,0,0,0,221.5-7.6,1.674,1.674,0,0,0,220.078-8.358Zm12.085-3.779a11.08,11.08,0,0,0-1.652-.193,1.976,1.976,0,0,0-1.4.488,2.206,2.206,0,0,0-.659,1.323L228.3-9.51h1.978l-.22,1.257h-1.969L226.652,0h-1.591L226.5-8.253h-1.468l.22-1.257h1.459l.158-1.116a3.63,3.63,0,0,1,1.178-2.285,3.491,3.491,0,0,1,2.408-.8,13.359,13.359,0,0,1,2.575.387l.844.176L231.645,0h-1.591Zm8.165,11.2A3.673,3.673,0,0,1,237.489.176,2.37,2.37,0,0,1,235.472-.8a3.731,3.731,0,0,1-.488-2.566L236-9.51h1.591l-1.028,6.17a4.1,4.1,0,0,0-.018.756,1.573,1.573,0,0,0,.378.993,1.29,1.29,0,0,0,.932.387,2.854,2.854,0,0,0,2.637-1.38l1.2-6.926h1.591L241.629,0h-1.5ZM248.115.176a3.429,3.429,0,0,1-2.777-1.31,4.507,4.507,0,0,1-.844-3.261l.044-.378a6.327,6.327,0,0,1,.839-2.584,4.882,4.882,0,0,1,1.683-1.762,3.927,3.927,0,0,1,2.145-.567,3.024,3.024,0,0,1,2.3.976,4.012,4.012,0,0,1,.914,2.549,7.448,7.448,0,0,1-.035,1.143l-.1.729h-6.214a3.212,3.212,0,0,0,.426,2.2,2.019,2.019,0,0,0,1.745.94,3.383,3.383,0,0,0,2.6-1.266l.914.773A4.183,4.183,0,0,1,250.22-.294,4.371,4.371,0,0,1,248.115.176Zm1.011-8.534a2.324,2.324,0,0,0-1.718.668,4.748,4.748,0,0,0-1.165,2.065l4.623.009.035-.141a2.6,2.6,0,0,0-.356-1.841A1.674,1.674,0,0,0,249.126-8.358Zm7.365-1.16-.229,1.2a3.749,3.749,0,0,1,2.918-1.371,2.359,2.359,0,0,1,1.986.932,3.619,3.619,0,0,1,.475,2.522L260.6,0h-1.591l1.046-6.251a3.332,3.332,0,0,0,.009-.8,1.314,1.314,0,0,0-1.45-1.255A2.994,2.994,0,0,0,256.1-6.778L254.927,0h-1.591l1.652-9.51Zm10.767-2.294-.4,2.3h1.731l-.22,1.257h-1.723l-.993,5.915a2.062,2.062,0,0,0-.009.422.67.67,0,0,0,.747.686,4.556,4.556,0,0,0,.773-.088L267.038.009a4.328,4.328,0,0,1-1.16.158,1.661,1.661,0,0,1-1.424-.7,2.7,2.7,0,0,1-.369-1.833l.967-5.889h-1.679l.22-1.257h1.679l.4-2.3Zm5.7,11.988a3.429,3.429,0,0,1-2.777-1.31,4.507,4.507,0,0,1-.844-3.261l.044-.378a6.327,6.327,0,0,1,.839-2.584,4.882,4.882,0,0,1,1.683-1.762,3.927,3.927,0,0,1,2.145-.567,3.024,3.024,0,0,1,2.3.976,4.012,4.012,0,0,1,.914,2.549,7.448,7.448,0,0,1-.035,1.143l-.1.729h-6.214a3.212,3.212,0,0,0,.426,2.2,2.019,2.019,0,0,0,1.745.94,3.383,3.383,0,0,0,2.6-1.266l.914.773a4.183,4.183,0,0,1-1.542,1.349A4.371,4.371,0,0,1,272.962.176Zm1.011-8.534a2.324,2.324,0,0,0-1.718.668,4.748,4.748,0,0,0-1.165,2.065l4.623.009.035-.141a2.6,2.6,0,0,0-.356-1.841A1.674,1.674,0,0,0,273.973-8.358Z" transform="translate(575 6885.5)" fill="#fff"/>
    <path id="Trazado_737910" data-name="Trazado 737910" d="M0,0H399" transform="translate(516.5 6891.5)" fill="none" stroke="#fff" stroke-width="2"/>
    <path id="Trazado_737909" data-name="Trazado 737909" d="M4.421-6.038,6.53-9.51h1.9l-3.111,4.7L8.525,0H6.645l-2.2-3.56L2.25,0H.36L3.568-4.808.457-9.51H2.338ZM19.784,0H18.149V-10.837l-3.278,1.2v-1.477l4.658-1.749h.255ZM32.572-5.458A7.436,7.436,0,0,1,31.6-1.213,3.47,3.47,0,0,1,28.547.176a3.5,3.5,0,0,1-3.032-1.358A7.058,7.058,0,0,1,24.5-5.238V-7.409a7.271,7.271,0,0,1,.976-4.192,3.5,3.5,0,0,1,3.059-1.371A3.528,3.528,0,0,1,31.57-11.65a7.017,7.017,0,0,1,1,4.083ZM30.946-7.682a5.958,5.958,0,0,0-.58-3.01,2,2,0,0,0-1.837-.945,1.97,1.97,0,0,0-1.819.94A5.817,5.817,0,0,0,26.121-7.8v2.6a6.053,6.053,0,0,0,.6,3.063,1.993,1.993,0,0,0,1.824.989,1.966,1.966,0,0,0,1.789-.932,5.834,5.834,0,0,0,.611-2.936ZM42.68-5.458A7.436,7.436,0,0,1,41.7-1.213,3.47,3.47,0,0,1,38.654.176a3.5,3.5,0,0,1-3.032-1.358A7.058,7.058,0,0,1,34.6-5.238V-7.409a7.271,7.271,0,0,1,.976-4.192,3.5,3.5,0,0,1,3.059-1.371,3.528,3.528,0,0,1,3.041,1.323,7.017,7.017,0,0,1,1,4.083ZM41.054-7.682a5.958,5.958,0,0,0-.58-3.01,2,2,0,0,0-1.837-.945,1.97,1.97,0,0,0-1.819.94A5.817,5.817,0,0,0,36.229-7.8v2.6a6.053,6.053,0,0,0,.6,3.063,1.993,1.993,0,0,0,1.824.989,1.966,1.966,0,0,0,1.789-.932,5.834,5.834,0,0,0,.611-2.936Z" transform="translate(924 6897)" fill="#fff"/>
  </g>
</svg>
