<svg xmlns="http://www.w3.org/2000/svg" width="450.18" height="37.89" viewBox="0 0 450.18 37.89">
  <g id="Grupo_1016019" data-name="Grupo 1016019" transform="translate(-516.5 -6795.789)">
    <path id="Trazado_737908" data-name="Trazado 737908" d="M10.274-4.078a5.1,5.1,0,0,1-1.8,3.146A5.036,5.036,0,0,1,5.054.176,3.987,3.987,0,0,1,2.979-.409,3.693,3.693,0,0,1,1.6-2.017a6.007,6.007,0,0,1-.545-2.325,7.451,7.451,0,0,1,.062-1.406L1.266-6.8a7.96,7.96,0,0,1,2.026-4.548,5.112,5.112,0,0,1,3.924-1.622,3.828,3.828,0,0,1,2.856,1.165,4.632,4.632,0,0,1,1.116,3.133H9.545q-.114-2.689-2.109-2.9l-.29-.018a3.4,3.4,0,0,0-2.773,1.235A6.685,6.685,0,0,0,2.936-6.864L2.742-5.537l-.053.773a4.35,4.35,0,0,0,.576,2.571A2.171,2.171,0,0,0,5.133-1.2a3.29,3.29,0,0,0,2.21-.642A4.269,4.269,0,0,0,8.675-4.052Zm6.732-5.607a3.428,3.428,0,0,1,2.048.65,3.7,3.7,0,0,1,1.261,1.745,5.4,5.4,0,0,1,.277,2.43l-.018.193a6.4,6.4,0,0,1-.826,2.509A4.848,4.848,0,0,1,18.044-.413,4.158,4.158,0,0,1,15.75.176a3.434,3.434,0,0,1-2.043-.65A3.611,3.611,0,0,1,12.454-2.2a5.547,5.547,0,0,1-.281-2.4,6.48,6.48,0,0,1,.8-2.654,4.96,4.96,0,0,1,1.718-1.824A4.109,4.109,0,0,1,17.007-9.686Zm-3.234,5.1a5.4,5.4,0,0,0,0,1.151,2.821,2.821,0,0,0,.62,1.652,1.86,1.86,0,0,0,1.419.642,2.534,2.534,0,0,0,1.459-.391A3.284,3.284,0,0,0,18.4-2.795a5.311,5.311,0,0,0,.589-1.872,8.431,8.431,0,0,0,.026-1.362,2.927,2.927,0,0,0-.642-1.679,1.9,1.9,0,0,0-1.424-.65,2.592,2.592,0,0,0-2.092.967,4.776,4.776,0,0,0-1.063,2.6ZM24.926-9.519l-.229,1.2a3.749,3.749,0,0,1,2.918-1.371,2.359,2.359,0,0,1,1.986.932,3.619,3.619,0,0,1,.475,2.522L29.039,0H27.448l1.046-6.251a3.332,3.332,0,0,0,.009-.8,1.314,1.314,0,0,0-1.45-1.255,2.994,2.994,0,0,0-2.514,1.528L23.361,0H21.771l1.652-9.51ZM35.508-1.143a2.413,2.413,0,0,0,1.538-.5,2.362,2.362,0,0,0,.9-1.349L39.445-3a3.391,3.391,0,0,1-.716,1.635A4,4,0,0,1,37.257-.211a4,4,0,0,1-1.819.387,3.394,3.394,0,0,1-2.008-.62,3.469,3.469,0,0,1-1.208-1.679,5.593,5.593,0,0,1-.264-2.421L32-4.983a6.306,6.306,0,0,1,.8-2.452,4.624,4.624,0,0,1,1.652-1.683,4.1,4.1,0,0,1,2.25-.567,3.214,3.214,0,0,1,2.391,1,3.465,3.465,0,0,1,.9,2.452L38.5-6.24a2.283,2.283,0,0,0-.519-1.507,1.808,1.808,0,0,0-1.354-.611,2.536,2.536,0,0,0-2.061.923,4.834,4.834,0,0,0-1.024,2.654l-.026.229a7.623,7.623,0,0,0-.018,1.16,2.65,2.65,0,0,0,.58,1.626A1.863,1.863,0,0,0,35.508-1.143ZM44.833.176a3.429,3.429,0,0,1-2.777-1.31,4.507,4.507,0,0,1-.844-3.261l.044-.378A6.327,6.327,0,0,1,42.1-7.356a4.882,4.882,0,0,1,1.683-1.762,3.927,3.927,0,0,1,2.145-.567,3.024,3.024,0,0,1,2.3.976,4.012,4.012,0,0,1,.914,2.549A7.448,7.448,0,0,1,49.1-5.019l-.1.729H42.794a3.212,3.212,0,0,0,.426,2.2,2.019,2.019,0,0,0,1.745.94,3.383,3.383,0,0,0,2.6-1.266l.914.773A4.183,4.183,0,0,1,46.938-.294,4.371,4.371,0,0,1,44.833.176Zm1.011-8.534a2.324,2.324,0,0,0-1.718.668,4.748,4.748,0,0,0-1.165,2.065l4.623.009.035-.141A2.6,2.6,0,0,0,47.263-7.6,1.674,1.674,0,0,0,45.844-8.358Zm7.365-1.16-.229,1.2A3.749,3.749,0,0,1,55.9-9.686a2.359,2.359,0,0,1,1.986.932,3.619,3.619,0,0,1,.475,2.522L57.322,0H55.731l1.046-6.251a3.332,3.332,0,0,0,.009-.8,1.314,1.314,0,0,0-1.45-1.255,2.994,2.994,0,0,0-2.514,1.528L51.645,0H50.054l1.652-9.51Zm10.767-2.294-.4,2.3H65.3l-.22,1.257H63.36l-.993,5.915a2.062,2.062,0,0,0-.009.422.67.67,0,0,0,.747.686,4.556,4.556,0,0,0,.773-.088L63.756.009A4.328,4.328,0,0,1,62.6.167a1.661,1.661,0,0,1-1.424-.7A2.7,2.7,0,0,1,60.8-2.364l.967-5.889H60.091l.22-1.257h1.679l.4-2.3ZM71.481-8.06l-.747-.079a2.722,2.722,0,0,0-2.408,1.38L67.157,0H65.566l1.652-9.51,1.538-.009L68.52-8.411A2.843,2.843,0,0,1,70.9-9.7a2.918,2.918,0,0,1,.756.132ZM77.027,0a2.13,2.13,0,0,1-.062-.5l.026-.5A3.9,3.9,0,0,1,74.215.176a2.841,2.841,0,0,1-2.043-.8,2.407,2.407,0,0,1-.716-1.947,2.927,2.927,0,0,1,1.323-2.36,5.631,5.631,0,0,1,3.248-.848l1.661.009.105-.756a1.738,1.738,0,0,0-.33-1.349,1.591,1.591,0,0,0-1.252-.514,2.453,2.453,0,0,0-1.446.4A1.7,1.7,0,0,0,74-6.882l-1.6.009a2.55,2.55,0,0,1,.65-1.481,3.784,3.784,0,0,1,1.468-1,4.742,4.742,0,0,1,1.854-.338,3.153,3.153,0,0,1,2.312.9,2.794,2.794,0,0,1,.694,2.3L78.6-1.784l-.044.677a3.318,3.318,0,0,0,.105.958L78.645,0Zm-2.5-1.23A2.774,2.774,0,0,0,75.977-1.6,3.661,3.661,0,0,0,77.15-2.654l.343-1.96-1.2-.009a4.561,4.561,0,0,0-2.3.475A1.748,1.748,0,0,0,73.081-2.8a1.361,1.361,0,0,0,.312,1.112A1.486,1.486,0,0,0,74.531-1.23Zm10.283.088a2.413,2.413,0,0,0,1.538-.5,2.362,2.362,0,0,0,.9-1.349L88.752-3a3.391,3.391,0,0,1-.716,1.635A4,4,0,0,1,86.563-.211a4,4,0,0,1-1.819.387,3.394,3.394,0,0,1-2.008-.62,3.469,3.469,0,0,1-1.208-1.679,5.593,5.593,0,0,1-.264-2.421l.044-.439a6.306,6.306,0,0,1,.8-2.452A4.624,4.624,0,0,1,83.76-9.119a4.1,4.1,0,0,1,2.25-.567,3.214,3.214,0,0,1,2.391,1,3.465,3.465,0,0,1,.9,2.452L87.812-6.24a2.283,2.283,0,0,0-.519-1.507,1.808,1.808,0,0,0-1.354-.611,2.536,2.536,0,0,0-2.061.923,4.834,4.834,0,0,0-1.024,2.654l-.026.229a7.623,7.623,0,0,0-.018,1.16,2.65,2.65,0,0,0,.58,1.626A1.863,1.863,0,0,0,84.814-1.143ZM91.749,0H90.167l1.652-9.51H93.4Zm1.31-12.981a.87.87,0,0,1,.672.242.9.9,0,0,1,.268.681.955.955,0,0,1-.268.677.962.962,0,0,1-.672.281.876.876,0,0,1-.677-.237.86.86,0,0,1-.255-.668,1,1,0,0,1,.264-.686A.93.93,0,0,1,93.059-12.981Zm6.574,3.3a3.428,3.428,0,0,1,2.048.65,3.7,3.7,0,0,1,1.261,1.745,5.4,5.4,0,0,1,.277,2.43l-.018.193a6.4,6.4,0,0,1-.826,2.509A4.848,4.848,0,0,1,100.67-.413a4.158,4.158,0,0,1-2.294.589,3.434,3.434,0,0,1-2.043-.65A3.611,3.611,0,0,1,95.08-2.2,5.547,5.547,0,0,1,94.8-4.6a6.48,6.48,0,0,1,.8-2.654,4.96,4.96,0,0,1,1.718-1.824A4.109,4.109,0,0,1,99.633-9.686ZM96.4-4.588a5.4,5.4,0,0,0,0,1.151,2.821,2.821,0,0,0,.62,1.652,1.86,1.86,0,0,0,1.419.642A2.534,2.534,0,0,0,99.9-1.534a3.284,3.284,0,0,0,1.125-1.261,5.311,5.311,0,0,0,.589-1.872,8.431,8.431,0,0,0,.026-1.362A2.927,2.927,0,0,0,101-7.708a1.9,1.9,0,0,0-1.424-.65,2.592,2.592,0,0,0-2.092.967,4.776,4.776,0,0,0-1.063,2.6Zm4.588-8.912h2.03l-2.689,2.584-1.4,0Zm6.565,3.981-.229,1.2a3.749,3.749,0,0,1,2.918-1.371,2.359,2.359,0,0,1,1.986.932,3.619,3.619,0,0,1,.475,2.522L111.665,0h-1.591l1.046-6.251a3.332,3.332,0,0,0,.009-.8,1.314,1.314,0,0,0-1.45-1.255,2.994,2.994,0,0,0-2.514,1.528L105.987,0H104.4l1.652-9.51ZM124.348,0a2.13,2.13,0,0,1-.062-.5l.026-.5A3.9,3.9,0,0,1,121.535.176a2.841,2.841,0,0,1-2.043-.8,2.407,2.407,0,0,1-.716-1.947,2.927,2.927,0,0,1,1.323-2.36,5.631,5.631,0,0,1,3.248-.848l1.661.009.105-.756a1.738,1.738,0,0,0-.33-1.349,1.591,1.591,0,0,0-1.252-.514,2.453,2.453,0,0,0-1.446.4,1.7,1.7,0,0,0-.769,1.1l-1.6.009a2.55,2.55,0,0,1,.65-1.481,3.784,3.784,0,0,1,1.468-1,4.742,4.742,0,0,1,1.854-.338,3.153,3.153,0,0,1,2.312.9,2.794,2.794,0,0,1,.694,2.3l-.773,4.711-.044.677a3.318,3.318,0,0,0,.105.958L125.965,0Zm-2.5-1.23A2.774,2.774,0,0,0,123.3-1.6a3.661,3.661,0,0,0,1.173-1.059l.343-1.96-1.2-.009a4.561,4.561,0,0,0-2.3.475A1.748,1.748,0,0,0,120.4-2.8a1.361,1.361,0,0,0,.312,1.112A1.486,1.486,0,0,0,121.852-1.23Zm14.142-10.907a11.08,11.08,0,0,0-1.652-.193,1.976,1.976,0,0,0-1.4.488,2.206,2.206,0,0,0-.659,1.323l-.158,1.011H134.1l-.22,1.257h-1.969L130.482,0h-1.591l1.441-8.253h-1.468l.22-1.257h1.459l.158-1.116a3.63,3.63,0,0,1,1.178-2.285,3.491,3.491,0,0,1,2.408-.8,13.359,13.359,0,0,1,2.575.387l.844.176L135.475,0h-1.591Zm8.165,11.2A3.673,3.673,0,0,1,141.319.176,2.37,2.37,0,0,1,139.3-.8a3.731,3.731,0,0,1-.488-2.566l1.02-6.144h1.591L140.4-3.34a4.1,4.1,0,0,0-.018.756,1.573,1.573,0,0,0,.378.993,1.29,1.29,0,0,0,.932.387,2.854,2.854,0,0,0,2.637-1.38l1.2-6.926h1.591L145.459,0h-1.5ZM151.945.176a3.429,3.429,0,0,1-2.777-1.31,4.507,4.507,0,0,1-.844-3.261l.044-.378a6.327,6.327,0,0,1,.839-2.584,4.882,4.882,0,0,1,1.683-1.762,3.927,3.927,0,0,1,2.145-.567,3.024,3.024,0,0,1,2.3.976,4.012,4.012,0,0,1,.914,2.549,7.448,7.448,0,0,1-.035,1.143l-.1.729h-6.214a3.212,3.212,0,0,0,.426,2.2,2.019,2.019,0,0,0,1.745.94,3.383,3.383,0,0,0,2.6-1.266l.914.773A4.183,4.183,0,0,1,154.05-.294,4.371,4.371,0,0,1,151.945.176Zm1.011-8.534a2.324,2.324,0,0,0-1.718.668,4.748,4.748,0,0,0-1.165,2.065l4.623.009.035-.141a2.6,2.6,0,0,0-.356-1.841A1.674,1.674,0,0,0,152.956-8.358Zm7.365-1.16-.229,1.2a3.749,3.749,0,0,1,2.918-1.371A2.359,2.359,0,0,1,165-8.754a3.619,3.619,0,0,1,.475,2.522L164.435,0h-1.591l1.046-6.251a3.332,3.332,0,0,0,.009-.8,1.314,1.314,0,0,0-1.45-1.255,2.994,2.994,0,0,0-2.514,1.528L158.757,0h-1.591l1.652-9.51Zm10.767-2.294-.4,2.3h1.731l-.22,1.257h-1.723l-.993,5.915a2.062,2.062,0,0,0-.009.422.67.67,0,0,0,.747.686,4.556,4.556,0,0,0,.773-.088L170.868.009a4.328,4.328,0,0,1-1.16.158,1.661,1.661,0,0,1-1.424-.7,2.7,2.7,0,0,1-.369-1.833l.967-5.889H167.2l.22-1.257H169.1l.4-2.3Zm5.7,11.988a3.429,3.429,0,0,1-2.777-1.31,4.507,4.507,0,0,1-.844-3.261l.044-.378a6.327,6.327,0,0,1,.839-2.584,4.882,4.882,0,0,1,1.683-1.762,3.927,3.927,0,0,1,2.145-.567,3.024,3.024,0,0,1,2.3.976,4.012,4.012,0,0,1,.914,2.549,7.448,7.448,0,0,1-.035,1.143l-.1.729h-6.214a3.212,3.212,0,0,0,.426,2.2,2.019,2.019,0,0,0,1.745.94,3.383,3.383,0,0,0,2.6-1.266l.914.773A4.183,4.183,0,0,1,178.9-.294,4.371,4.371,0,0,1,176.792.176ZM177.8-8.358a2.324,2.324,0,0,0-1.718.668,4.748,4.748,0,0,0-1.165,2.065l4.623.009.035-.141a2.6,2.6,0,0,0-.356-1.841A1.674,1.674,0,0,0,177.8-8.358Z" transform="translate(624 6833.5)" fill="#fff"/>
    <path id="Trazado_737907" data-name="Trazado 737907" d="M10.274-4.078a5.1,5.1,0,0,1-1.8,3.146A5.036,5.036,0,0,1,5.054.176,3.987,3.987,0,0,1,2.979-.409,3.693,3.693,0,0,1,1.6-2.017a6.007,6.007,0,0,1-.545-2.325,7.451,7.451,0,0,1,.062-1.406L1.266-6.8a7.96,7.96,0,0,1,2.026-4.548,5.112,5.112,0,0,1,3.924-1.622,3.828,3.828,0,0,1,2.856,1.165,4.632,4.632,0,0,1,1.116,3.133H9.545q-.114-2.689-2.109-2.9l-.29-.018a3.4,3.4,0,0,0-2.773,1.235A6.685,6.685,0,0,0,2.936-6.864L2.742-5.537l-.053.773a4.35,4.35,0,0,0,.576,2.571A2.171,2.171,0,0,0,5.133-1.2a3.29,3.29,0,0,0,2.21-.642A4.269,4.269,0,0,0,8.675-4.052Zm6.732-5.607a3.428,3.428,0,0,1,2.048.65,3.7,3.7,0,0,1,1.261,1.745,5.4,5.4,0,0,1,.277,2.43l-.018.193a6.4,6.4,0,0,1-.826,2.509A4.848,4.848,0,0,1,18.044-.413,4.158,4.158,0,0,1,15.75.176a3.434,3.434,0,0,1-2.043-.65A3.611,3.611,0,0,1,12.454-2.2a5.547,5.547,0,0,1-.281-2.4,6.48,6.48,0,0,1,.8-2.654,4.96,4.96,0,0,1,1.718-1.824A4.109,4.109,0,0,1,17.007-9.686Zm-3.234,5.1a5.4,5.4,0,0,0,0,1.151,2.821,2.821,0,0,0,.62,1.652,1.86,1.86,0,0,0,1.419.642,2.534,2.534,0,0,0,1.459-.391A3.284,3.284,0,0,0,18.4-2.795a5.311,5.311,0,0,0,.589-1.872,8.431,8.431,0,0,0,.026-1.362,2.927,2.927,0,0,0-.642-1.679,1.9,1.9,0,0,0-1.424-.65,2.592,2.592,0,0,0-2.092.967,4.776,4.776,0,0,0-1.063,2.6ZM24.926-9.519l-.229,1.2a3.749,3.749,0,0,1,2.918-1.371,2.359,2.359,0,0,1,1.986.932,3.619,3.619,0,0,1,.475,2.522L29.039,0H27.448l1.046-6.251a3.332,3.332,0,0,0,.009-.8,1.314,1.314,0,0,0-1.45-1.255,2.994,2.994,0,0,0-2.514,1.528L23.361,0H21.771l1.652-9.51ZM35.508-1.143a2.413,2.413,0,0,0,1.538-.5,2.362,2.362,0,0,0,.9-1.349L39.445-3a3.391,3.391,0,0,1-.716,1.635A4,4,0,0,1,37.257-.211a4,4,0,0,1-1.819.387,3.394,3.394,0,0,1-2.008-.62,3.469,3.469,0,0,1-1.208-1.679,5.593,5.593,0,0,1-.264-2.421L32-4.983a6.306,6.306,0,0,1,.8-2.452,4.624,4.624,0,0,1,1.652-1.683,4.1,4.1,0,0,1,2.25-.567,3.214,3.214,0,0,1,2.391,1,3.465,3.465,0,0,1,.9,2.452L38.5-6.24a2.283,2.283,0,0,0-.519-1.507,1.808,1.808,0,0,0-1.354-.611,2.536,2.536,0,0,0-2.061.923,4.834,4.834,0,0,0-1.024,2.654l-.026.229a7.623,7.623,0,0,0-.018,1.16,2.65,2.65,0,0,0,.58,1.626A1.863,1.863,0,0,0,35.508-1.143ZM44.833.176a3.429,3.429,0,0,1-2.777-1.31,4.507,4.507,0,0,1-.844-3.261l.044-.378A6.327,6.327,0,0,1,42.1-7.356a4.882,4.882,0,0,1,1.683-1.762,3.927,3.927,0,0,1,2.145-.567,3.024,3.024,0,0,1,2.3.976,4.012,4.012,0,0,1,.914,2.549A7.448,7.448,0,0,1,49.1-5.019l-.1.729H42.794a3.212,3.212,0,0,0,.426,2.2,2.019,2.019,0,0,0,1.745.94,3.383,3.383,0,0,0,2.6-1.266l.914.773A4.183,4.183,0,0,1,46.938-.294,4.371,4.371,0,0,1,44.833.176Zm1.011-8.534a2.324,2.324,0,0,0-1.718.668,4.748,4.748,0,0,0-1.165,2.065l4.623.009.035-.141A2.6,2.6,0,0,0,47.263-7.6,1.674,1.674,0,0,0,45.844-8.358Zm7.365-1.16-.229,1.2A3.749,3.749,0,0,1,55.9-9.686a2.359,2.359,0,0,1,1.986.932,3.619,3.619,0,0,1,.475,2.522L57.322,0H55.731l1.046-6.251a3.332,3.332,0,0,0,.009-.8,1.314,1.314,0,0,0-1.45-1.255,2.994,2.994,0,0,0-2.514,1.528L51.645,0H50.054l1.652-9.51Zm10.767-2.294-.4,2.3H65.3l-.22,1.257H63.36l-.993,5.915a2.062,2.062,0,0,0-.009.422.67.67,0,0,0,.747.686,4.556,4.556,0,0,0,.773-.088L63.756.009A4.328,4.328,0,0,1,62.6.167a1.661,1.661,0,0,1-1.424-.7A2.7,2.7,0,0,1,60.8-2.364l.967-5.889H60.091l.22-1.257h1.679l.4-2.3ZM71.481-8.06l-.747-.079a2.722,2.722,0,0,0-2.408,1.38L67.157,0H65.566l1.652-9.51,1.538-.009L68.52-8.411A2.843,2.843,0,0,1,70.9-9.7a2.918,2.918,0,0,1,.756.132ZM77.027,0a2.13,2.13,0,0,1-.062-.5l.026-.5A3.9,3.9,0,0,1,74.215.176a2.841,2.841,0,0,1-2.043-.8,2.407,2.407,0,0,1-.716-1.947,2.927,2.927,0,0,1,1.323-2.36,5.631,5.631,0,0,1,3.248-.848l1.661.009.105-.756a1.738,1.738,0,0,0-.33-1.349,1.591,1.591,0,0,0-1.252-.514,2.453,2.453,0,0,0-1.446.4A1.7,1.7,0,0,0,74-6.882l-1.6.009a2.55,2.55,0,0,1,.65-1.481,3.784,3.784,0,0,1,1.468-1,4.742,4.742,0,0,1,1.854-.338,3.153,3.153,0,0,1,2.312.9,2.794,2.794,0,0,1,.694,2.3L78.6-1.784l-.044.677a3.318,3.318,0,0,0,.105.958L78.645,0Zm-2.5-1.23A2.774,2.774,0,0,0,75.977-1.6,3.661,3.661,0,0,0,77.15-2.654l.343-1.96-1.2-.009a4.561,4.561,0,0,0-2.3.475A1.748,1.748,0,0,0,73.081-2.8a1.361,1.361,0,0,0,.312,1.112A1.486,1.486,0,0,0,74.531-1.23Zm10.283.088a2.413,2.413,0,0,0,1.538-.5,2.362,2.362,0,0,0,.9-1.349L88.752-3a3.391,3.391,0,0,1-.716,1.635A4,4,0,0,1,86.563-.211a4,4,0,0,1-1.819.387,3.394,3.394,0,0,1-2.008-.62,3.469,3.469,0,0,1-1.208-1.679,5.593,5.593,0,0,1-.264-2.421l.044-.439a6.306,6.306,0,0,1,.8-2.452A4.624,4.624,0,0,1,83.76-9.119a4.1,4.1,0,0,1,2.25-.567,3.214,3.214,0,0,1,2.391,1,3.465,3.465,0,0,1,.9,2.452L87.812-6.24a2.283,2.283,0,0,0-.519-1.507,1.808,1.808,0,0,0-1.354-.611,2.536,2.536,0,0,0-2.061.923,4.834,4.834,0,0,0-1.024,2.654l-.026.229a7.623,7.623,0,0,0-.018,1.16,2.65,2.65,0,0,0,.58,1.626A1.863,1.863,0,0,0,84.814-1.143ZM91.749,0H90.167l1.652-9.51H93.4Zm1.31-12.981a.87.87,0,0,1,.672.242.9.9,0,0,1,.268.681.955.955,0,0,1-.268.677.962.962,0,0,1-.672.281.876.876,0,0,1-.677-.237.86.86,0,0,1-.255-.668,1,1,0,0,1,.264-.686A.93.93,0,0,1,93.059-12.981Zm6.574,3.3a3.428,3.428,0,0,1,2.048.65,3.7,3.7,0,0,1,1.261,1.745,5.4,5.4,0,0,1,.277,2.43l-.018.193a6.4,6.4,0,0,1-.826,2.509A4.848,4.848,0,0,1,100.67-.413a4.158,4.158,0,0,1-2.294.589,3.434,3.434,0,0,1-2.043-.65A3.611,3.611,0,0,1,95.08-2.2,5.547,5.547,0,0,1,94.8-4.6a6.48,6.48,0,0,1,.8-2.654,4.96,4.96,0,0,1,1.718-1.824A4.109,4.109,0,0,1,99.633-9.686ZM96.4-4.588a5.4,5.4,0,0,0,0,1.151,2.821,2.821,0,0,0,.62,1.652,1.86,1.86,0,0,0,1.419.642A2.534,2.534,0,0,0,99.9-1.534a3.284,3.284,0,0,0,1.125-1.261,5.311,5.311,0,0,0,.589-1.872,8.431,8.431,0,0,0,.026-1.362A2.927,2.927,0,0,0,101-7.708a1.9,1.9,0,0,0-1.424-.65,2.592,2.592,0,0,0-2.092.967,4.776,4.776,0,0,0-1.063,2.6Zm4.588-8.912h2.03l-2.689,2.584-1.4,0Zm6.565,3.981-.229,1.2a3.749,3.749,0,0,1,2.918-1.371,2.359,2.359,0,0,1,1.986.932,3.619,3.619,0,0,1,.475,2.522L111.665,0h-1.591l1.046-6.251a3.332,3.332,0,0,0,.009-.8,1.314,1.314,0,0,0-1.45-1.255,2.994,2.994,0,0,0-2.514,1.528L105.987,0H104.4l1.652-9.51ZM124.348,0a2.13,2.13,0,0,1-.062-.5l.026-.5A3.9,3.9,0,0,1,121.535.176a2.841,2.841,0,0,1-2.043-.8,2.407,2.407,0,0,1-.716-1.947,2.927,2.927,0,0,1,1.323-2.36,5.631,5.631,0,0,1,3.248-.848l1.661.009.105-.756a1.738,1.738,0,0,0-.33-1.349,1.591,1.591,0,0,0-1.252-.514,2.453,2.453,0,0,0-1.446.4,1.7,1.7,0,0,0-.769,1.1l-1.6.009a2.55,2.55,0,0,1,.65-1.481,3.784,3.784,0,0,1,1.468-1,4.742,4.742,0,0,1,1.854-.338,3.153,3.153,0,0,1,2.312.9,2.794,2.794,0,0,1,.694,2.3l-.773,4.711-.044.677a3.318,3.318,0,0,0,.105.958L125.965,0Zm-2.5-1.23A2.774,2.774,0,0,0,123.3-1.6a3.661,3.661,0,0,0,1.173-1.059l.343-1.96-1.2-.009a4.561,4.561,0,0,0-2.3.475A1.748,1.748,0,0,0,120.4-2.8a1.361,1.361,0,0,0,.312,1.112A1.486,1.486,0,0,0,121.852-1.23Zm14.142-10.907a11.08,11.08,0,0,0-1.652-.193,1.976,1.976,0,0,0-1.4.488,2.206,2.206,0,0,0-.659,1.323l-.158,1.011H134.1l-.22,1.257h-1.969L130.482,0h-1.591l1.441-8.253h-1.468l.22-1.257h1.459l.158-1.116a3.63,3.63,0,0,1,1.178-2.285,3.491,3.491,0,0,1,2.408-.8,13.359,13.359,0,0,1,2.575.387l.844.176L135.475,0h-1.591Zm8.165,11.2A3.673,3.673,0,0,1,141.319.176,2.37,2.37,0,0,1,139.3-.8a3.731,3.731,0,0,1-.488-2.566l1.02-6.144h1.591L140.4-3.34a4.1,4.1,0,0,0-.018.756,1.573,1.573,0,0,0,.378.993,1.29,1.29,0,0,0,.932.387,2.854,2.854,0,0,0,2.637-1.38l1.2-6.926h1.591L145.459,0h-1.5ZM151.945.176a3.429,3.429,0,0,1-2.777-1.31,4.507,4.507,0,0,1-.844-3.261l.044-.378a6.327,6.327,0,0,1,.839-2.584,4.882,4.882,0,0,1,1.683-1.762,3.927,3.927,0,0,1,2.145-.567,3.024,3.024,0,0,1,2.3.976,4.012,4.012,0,0,1,.914,2.549,7.448,7.448,0,0,1-.035,1.143l-.1.729h-6.214a3.212,3.212,0,0,0,.426,2.2,2.019,2.019,0,0,0,1.745.94,3.383,3.383,0,0,0,2.6-1.266l.914.773A4.183,4.183,0,0,1,154.05-.294,4.371,4.371,0,0,1,151.945.176Zm1.011-8.534a2.324,2.324,0,0,0-1.718.668,4.748,4.748,0,0,0-1.165,2.065l4.623.009.035-.141a2.6,2.6,0,0,0-.356-1.841A1.674,1.674,0,0,0,152.956-8.358Zm7.365-1.16-.229,1.2a3.749,3.749,0,0,1,2.918-1.371A2.359,2.359,0,0,1,165-8.754a3.619,3.619,0,0,1,.475,2.522L164.435,0h-1.591l1.046-6.251a3.332,3.332,0,0,0,.009-.8,1.314,1.314,0,0,0-1.45-1.255,2.994,2.994,0,0,0-2.514,1.528L158.757,0h-1.591l1.652-9.51Zm10.767-2.294-.4,2.3h1.731l-.22,1.257h-1.723l-.993,5.915a2.062,2.062,0,0,0-.009.422.67.67,0,0,0,.747.686,4.556,4.556,0,0,0,.773-.088L170.868.009a4.328,4.328,0,0,1-1.16.158,1.661,1.661,0,0,1-1.424-.7,2.7,2.7,0,0,1-.369-1.833l.967-5.889H167.2l.22-1.257H169.1l.4-2.3Zm5.7,11.988a3.429,3.429,0,0,1-2.777-1.31,4.507,4.507,0,0,1-.844-3.261l.044-.378a6.327,6.327,0,0,1,.839-2.584,4.882,4.882,0,0,1,1.683-1.762,3.927,3.927,0,0,1,2.145-.567,3.024,3.024,0,0,1,2.3.976,4.012,4.012,0,0,1,.914,2.549,7.448,7.448,0,0,1-.035,1.143l-.1.729h-6.214a3.212,3.212,0,0,0,.426,2.2,2.019,2.019,0,0,0,1.745.94,3.383,3.383,0,0,0,2.6-1.266l.914.773A4.183,4.183,0,0,1,178.9-.294,4.371,4.371,0,0,1,176.792.176ZM177.8-8.358a2.324,2.324,0,0,0-1.718.668,4.748,4.748,0,0,0-1.165,2.065l4.623.009.035-.141a2.6,2.6,0,0,0-.356-1.841A1.674,1.674,0,0,0,177.8-8.358Zm12.744,3.586h-4.175l.237-1.327h4.175Zm15.2.694a5.1,5.1,0,0,1-1.8,3.146A5.036,5.036,0,0,1,200.522.176a3.987,3.987,0,0,1-2.074-.584,3.693,3.693,0,0,1-1.38-1.608,6.007,6.007,0,0,1-.545-2.325,7.451,7.451,0,0,1,.062-1.406l.149-1.055a7.96,7.96,0,0,1,2.026-4.548,5.112,5.112,0,0,1,3.924-1.622,3.828,3.828,0,0,1,2.856,1.165,4.632,4.632,0,0,1,1.116,3.133h-1.644q-.114-2.689-2.109-2.9l-.29-.018a3.4,3.4,0,0,0-2.773,1.235A6.685,6.685,0,0,0,198.4-6.864l-.193,1.327-.053.773a4.35,4.35,0,0,0,.576,2.571A2.171,2.171,0,0,0,200.6-1.2a3.29,3.29,0,0,0,2.21-.642,4.269,4.269,0,0,0,1.332-2.206Zm6.732-5.607a3.428,3.428,0,0,1,2.048.65,3.7,3.7,0,0,1,1.261,1.745,5.4,5.4,0,0,1,.277,2.43l-.018.193a6.4,6.4,0,0,1-.826,2.509,4.848,4.848,0,0,1-1.705,1.745,4.158,4.158,0,0,1-2.294.589,3.434,3.434,0,0,1-2.043-.65A3.611,3.611,0,0,1,207.923-2.2a5.547,5.547,0,0,1-.281-2.4,6.48,6.48,0,0,1,.8-2.654,4.96,4.96,0,0,1,1.718-1.824A4.109,4.109,0,0,1,212.476-9.686Zm-3.234,5.1a5.4,5.4,0,0,0,0,1.151,2.821,2.821,0,0,0,.62,1.652,1.86,1.86,0,0,0,1.419.642,2.534,2.534,0,0,0,1.459-.391,3.284,3.284,0,0,0,1.125-1.261,5.311,5.311,0,0,0,.589-1.872,8.431,8.431,0,0,0,.026-1.362,2.927,2.927,0,0,0-.642-1.679,1.9,1.9,0,0,0-1.424-.65,2.592,2.592,0,0,0-2.092.967,4.776,4.776,0,0,0-1.063,2.6Zm11.153-4.931-.229,1.2a3.749,3.749,0,0,1,2.918-1.371,2.359,2.359,0,0,1,1.986.932,3.619,3.619,0,0,1,.475,2.522L224.508,0h-1.591l1.046-6.251a3.332,3.332,0,0,0,.009-.8,1.314,1.314,0,0,0-1.45-1.255,2.994,2.994,0,0,0-2.514,1.528L218.83,0h-1.591l1.652-9.51Zm10.582,8.376a2.413,2.413,0,0,0,1.538-.5,2.362,2.362,0,0,0,.9-1.349l1.5-.009a3.391,3.391,0,0,1-.716,1.635,4,4,0,0,1-1.472,1.151,4,4,0,0,1-1.819.387,3.394,3.394,0,0,1-2.008-.62,3.469,3.469,0,0,1-1.208-1.679,5.593,5.593,0,0,1-.264-2.421l.044-.439a6.306,6.306,0,0,1,.8-2.452,4.624,4.624,0,0,1,1.652-1.683,4.1,4.1,0,0,1,2.25-.567,3.214,3.214,0,0,1,2.391,1,3.465,3.465,0,0,1,.9,2.452l-1.485-.009a2.283,2.283,0,0,0-.519-1.507,1.808,1.808,0,0,0-1.354-.611,2.536,2.536,0,0,0-2.061.923,4.834,4.834,0,0,0-1.024,2.654l-.026.229a7.623,7.623,0,0,0-.018,1.16,2.65,2.65,0,0,0,.58,1.626A1.863,1.863,0,0,0,230.977-1.143ZM240.3.176a3.429,3.429,0,0,1-2.777-1.31,4.507,4.507,0,0,1-.844-3.261l.044-.378a6.327,6.327,0,0,1,.839-2.584,4.882,4.882,0,0,1,1.683-1.762,3.927,3.927,0,0,1,2.145-.567,3.024,3.024,0,0,1,2.3.976,4.012,4.012,0,0,1,.914,2.549,7.448,7.448,0,0,1-.035,1.143l-.1.729h-6.214a3.212,3.212,0,0,0,.426,2.2,2.019,2.019,0,0,0,1.745.94,3.383,3.383,0,0,0,2.6-1.266l.914.773a4.183,4.183,0,0,1-1.542,1.349A4.371,4.371,0,0,1,240.3.176Zm1.011-8.534a2.324,2.324,0,0,0-1.718.668,4.748,4.748,0,0,0-1.165,2.065l4.623.009.035-.141a2.6,2.6,0,0,0-.356-1.841A1.674,1.674,0,0,0,241.313-8.358Zm7.365-1.16-.229,1.2a3.749,3.749,0,0,1,2.918-1.371,2.359,2.359,0,0,1,1.986.932,3.619,3.619,0,0,1,.475,2.522L252.791,0H251.2l1.046-6.251a3.332,3.332,0,0,0,.009-.8,1.314,1.314,0,0,0-1.45-1.255,2.994,2.994,0,0,0-2.514,1.528L247.113,0h-1.591l1.652-9.51Zm10.767-2.294-.4,2.3h1.731l-.22,1.257h-1.723l-.993,5.915a2.062,2.062,0,0,0-.009.422.67.67,0,0,0,.747.686,4.556,4.556,0,0,0,.773-.088L259.225.009a4.328,4.328,0,0,1-1.16.158,1.661,1.661,0,0,1-1.424-.7,2.7,2.7,0,0,1-.369-1.833l.967-5.889H255.56l.22-1.257h1.679l.4-2.3ZM266.95-8.06l-.747-.079a2.722,2.722,0,0,0-2.408,1.38L262.626,0h-1.591l1.652-9.51,1.538-.009-.237,1.107A2.843,2.843,0,0,1,266.37-9.7a2.918,2.918,0,0,1,.756.132ZM272.5,0a2.13,2.13,0,0,1-.062-.5l.026-.5A3.9,3.9,0,0,1,269.684.176a2.841,2.841,0,0,1-2.043-.8,2.407,2.407,0,0,1-.716-1.947,2.927,2.927,0,0,1,1.323-2.36,5.631,5.631,0,0,1,3.248-.848l1.661.009.105-.756a1.738,1.738,0,0,0-.33-1.349,1.591,1.591,0,0,0-1.252-.514,2.453,2.453,0,0,0-1.446.4,1.7,1.7,0,0,0-.769,1.1l-1.6.009a2.55,2.55,0,0,1,.65-1.481,3.784,3.784,0,0,1,1.468-1,4.742,4.742,0,0,1,1.854-.338,3.153,3.153,0,0,1,2.312.9,2.794,2.794,0,0,1,.694,2.3l-.773,4.711-.044.677a3.318,3.318,0,0,0,.105.958L274.113,0ZM270-1.23a2.774,2.774,0,0,0,1.446-.365,3.661,3.661,0,0,0,1.173-1.059l.343-1.96-1.2-.009a4.561,4.561,0,0,0-2.3.475A1.748,1.748,0,0,0,268.55-2.8a1.361,1.361,0,0,0,.312,1.112A1.486,1.486,0,0,0,270-1.23Zm10.283.088a2.413,2.413,0,0,0,1.538-.5,2.362,2.362,0,0,0,.9-1.349l1.5-.009a3.391,3.391,0,0,1-.716,1.635,4,4,0,0,1-1.472,1.151,4,4,0,0,1-1.819.387,3.394,3.394,0,0,1-2.008-.62A3.469,3.469,0,0,1,277-2.123a5.593,5.593,0,0,1-.264-2.421l.044-.439a6.306,6.306,0,0,1,.8-2.452,4.624,4.624,0,0,1,1.652-1.683,4.1,4.1,0,0,1,2.25-.567,3.214,3.214,0,0,1,2.391,1,3.465,3.465,0,0,1,.9,2.452L283.28-6.24a2.283,2.283,0,0,0-.519-1.507,1.808,1.808,0,0,0-1.354-.611,2.536,2.536,0,0,0-2.061.923,4.834,4.834,0,0,0-1.024,2.654l-.026.229a7.623,7.623,0,0,0-.018,1.16,2.65,2.65,0,0,0,.58,1.626A1.863,1.863,0,0,0,280.283-1.143ZM287.218,0h-1.582l1.652-9.51h1.582Zm1.31-12.981a.87.87,0,0,1,.672.242.9.9,0,0,1,.268.681.955.955,0,0,1-.268.677.962.962,0,0,1-.672.281.876.876,0,0,1-.677-.237.86.86,0,0,1-.255-.668,1,1,0,0,1,.264-.686A.93.93,0,0,1,288.527-12.981Zm6.574,3.3a3.428,3.428,0,0,1,2.048.65,3.7,3.7,0,0,1,1.261,1.745,5.4,5.4,0,0,1,.277,2.43l-.018.193a6.4,6.4,0,0,1-.826,2.509,4.848,4.848,0,0,1-1.705,1.745,4.158,4.158,0,0,1-2.294.589,3.434,3.434,0,0,1-2.043-.65A3.611,3.611,0,0,1,290.549-2.2a5.547,5.547,0,0,1-.281-2.4,6.48,6.48,0,0,1,.8-2.654,4.96,4.96,0,0,1,1.718-1.824A4.109,4.109,0,0,1,295.1-9.686Zm-3.234,5.1a5.4,5.4,0,0,0,0,1.151,2.821,2.821,0,0,0,.62,1.652,1.86,1.86,0,0,0,1.419.642,2.534,2.534,0,0,0,1.459-.391,3.284,3.284,0,0,0,1.125-1.261,5.311,5.311,0,0,0,.589-1.872,8.431,8.431,0,0,0,.026-1.362,2.927,2.927,0,0,0-.642-1.679,1.9,1.9,0,0,0-1.424-.65,2.592,2.592,0,0,0-2.092.967,4.776,4.776,0,0,0-1.063,2.6Zm4.588-8.912h2.03L295.8-10.916l-1.4,0Zm6.565,3.981-.229,1.2a3.749,3.749,0,0,1,2.918-1.371,2.359,2.359,0,0,1,1.986.932,3.619,3.619,0,0,1,.475,2.522L307.134,0h-1.591l1.046-6.251a3.332,3.332,0,0,0,.009-.8,1.314,1.314,0,0,0-1.45-1.255,2.994,2.994,0,0,0-2.514,1.528L301.456,0h-1.591l1.652-9.51ZM318.111.176a3.429,3.429,0,0,1-2.777-1.31,4.507,4.507,0,0,1-.844-3.261l.044-.378a6.327,6.327,0,0,1,.839-2.584,4.882,4.882,0,0,1,1.683-1.762,3.927,3.927,0,0,1,2.145-.567,3.024,3.024,0,0,1,2.3.976,4.012,4.012,0,0,1,.914,2.549,7.448,7.448,0,0,1-.035,1.143l-.1.729h-6.214a3.212,3.212,0,0,0,.426,2.2,2.019,2.019,0,0,0,1.745.94,3.383,3.383,0,0,0,2.6-1.266l.914.773a4.183,4.183,0,0,1-1.542,1.349A4.371,4.371,0,0,1,318.111.176Zm1.011-8.534a2.324,2.324,0,0,0-1.718.668,4.748,4.748,0,0,0-1.165,2.065l4.623.009.035-.141a2.6,2.6,0,0,0-.356-1.841A1.674,1.674,0,0,0,319.122-8.358Zm12.085-3.779a11.08,11.08,0,0,0-1.652-.193,1.976,1.976,0,0,0-1.4.488,2.206,2.206,0,0,0-.659,1.323L327.34-9.51h1.978l-.22,1.257h-1.969L325.7,0h-1.591l1.441-8.253h-1.468l.22-1.257h1.459l.158-1.116a3.63,3.63,0,0,1,1.178-2.285,3.491,3.491,0,0,1,2.408-.8,13.359,13.359,0,0,1,2.575.387l.844.176L330.688,0H329.1Zm8.165,11.2A3.673,3.673,0,0,1,336.533.176,2.37,2.37,0,0,1,334.516-.8a3.731,3.731,0,0,1-.488-2.566l1.02-6.144h1.591L335.61-3.34a4.1,4.1,0,0,0-.018.756,1.573,1.573,0,0,0,.378.993,1.29,1.29,0,0,0,.932.387,2.854,2.854,0,0,0,2.637-1.38l1.2-6.926h1.591L340.673,0h-1.5ZM347.159.176a3.429,3.429,0,0,1-2.777-1.31,4.507,4.507,0,0,1-.844-3.261l.044-.378a6.327,6.327,0,0,1,.839-2.584A4.882,4.882,0,0,1,346.1-9.119a3.927,3.927,0,0,1,2.145-.567,3.024,3.024,0,0,1,2.3.976,4.012,4.012,0,0,1,.914,2.549,7.448,7.448,0,0,1-.035,1.143l-.1.729H345.12a3.212,3.212,0,0,0,.426,2.2,2.019,2.019,0,0,0,1.745.94,3.383,3.383,0,0,0,2.6-1.266l.914.773a4.183,4.183,0,0,1-1.542,1.349A4.371,4.371,0,0,1,347.159.176Zm1.011-8.534a2.324,2.324,0,0,0-1.718.668,4.748,4.748,0,0,0-1.165,2.065l4.623.009.035-.141a2.6,2.6,0,0,0-.356-1.841A1.674,1.674,0,0,0,348.17-8.358Zm7.365-1.16-.229,1.2a3.749,3.749,0,0,1,2.918-1.371,2.359,2.359,0,0,1,1.986.932,3.619,3.619,0,0,1,.475,2.522L359.648,0h-1.591L359.1-6.251a3.332,3.332,0,0,0,.009-.8,1.314,1.314,0,0,0-1.45-1.255,2.994,2.994,0,0,0-2.514,1.528L353.971,0H352.38l1.652-9.51ZM366.3-11.812l-.4,2.3h1.731l-.22,1.257h-1.723l-.993,5.915a2.062,2.062,0,0,0-.009.422.67.67,0,0,0,.747.686,4.556,4.556,0,0,0,.773-.088L366.082.009a4.328,4.328,0,0,1-1.16.158,1.661,1.661,0,0,1-1.424-.7,2.7,2.7,0,0,1-.369-1.833l.967-5.889h-1.679l.22-1.257h1.679l.4-2.3Zm5.7,11.988a3.429,3.429,0,0,1-2.777-1.31,4.507,4.507,0,0,1-.844-3.261l.044-.378a6.327,6.327,0,0,1,.839-2.584,4.882,4.882,0,0,1,1.683-1.762,3.927,3.927,0,0,1,2.145-.567,3.024,3.024,0,0,1,2.3.976,4.012,4.012,0,0,1,.914,2.549,7.448,7.448,0,0,1-.035,1.143l-.1.729h-6.214a3.212,3.212,0,0,0,.426,2.2,2.019,2.019,0,0,0,1.745.94,3.383,3.383,0,0,0,2.6-1.266l.914.773a4.183,4.183,0,0,1-1.542,1.349A4.371,4.371,0,0,1,372.006.176Zm1.011-8.534a2.324,2.324,0,0,0-1.718.668,4.748,4.748,0,0,0-1.165,2.065l4.623.009.035-.141a2.6,2.6,0,0,0-.356-1.841A1.674,1.674,0,0,0,373.017-8.358Z" transform="translate(524 6809.5)" fill="#fff"/>
    <path id="Trazado_737906" data-name="Trazado 737906" d="M0,0H399" transform="translate(516.5 6815.5)" fill="none" stroke="#fff" stroke-width="2"/>
    <path id="Trazado_737905" data-name="Trazado 737905" d="M4.421-6.038,6.53-9.51h1.9l-3.111,4.7L8.525,0H6.645l-2.2-3.56L2.25,0H.36L3.568-4.808.457-9.51H2.338ZM19.784,0H18.149V-10.837l-3.278,1.2v-1.477l4.658-1.749h.255ZM32.572-5.458A7.436,7.436,0,0,1,31.6-1.213,3.47,3.47,0,0,1,28.547.176a3.5,3.5,0,0,1-3.032-1.358A7.058,7.058,0,0,1,24.5-5.238V-7.409a7.271,7.271,0,0,1,.976-4.192,3.5,3.5,0,0,1,3.059-1.371A3.528,3.528,0,0,1,31.57-11.65a7.017,7.017,0,0,1,1,4.083ZM30.946-7.682a5.958,5.958,0,0,0-.58-3.01,2,2,0,0,0-1.837-.945,1.97,1.97,0,0,0-1.819.94A5.817,5.817,0,0,0,26.121-7.8v2.6a6.053,6.053,0,0,0,.6,3.063,1.993,1.993,0,0,0,1.824.989,1.966,1.966,0,0,0,1.789-.932,5.834,5.834,0,0,0,.611-2.936ZM42.68-5.458A7.436,7.436,0,0,1,41.7-1.213,3.47,3.47,0,0,1,38.654.176a3.5,3.5,0,0,1-3.032-1.358A7.058,7.058,0,0,1,34.6-5.238V-7.409a7.271,7.271,0,0,1,.976-4.192,3.5,3.5,0,0,1,3.059-1.371,3.528,3.528,0,0,1,3.041,1.323,7.017,7.017,0,0,1,1,4.083ZM41.054-7.682a5.958,5.958,0,0,0-.58-3.01,2,2,0,0,0-1.837-.945,1.97,1.97,0,0,0-1.819.94A5.817,5.817,0,0,0,36.229-7.8v2.6a6.053,6.053,0,0,0,.6,3.063,1.993,1.993,0,0,0,1.824.989,1.966,1.966,0,0,0,1.789-.932,5.834,5.834,0,0,0,.611-2.936Z" transform="translate(924 6821)" fill="#fff"/>
  </g>
</svg>
