<svg xmlns="http://www.w3.org/2000/svg" width="399" height="41.467" viewBox="0 0 399 41.467">
  <g id="Grupo_1016008" data-name="Grupo 1016008" transform="translate(-516.5 -6938.289)">
    <path id="Trazado_737983" data-name="Trazado 737983" d="M5.309,0h-1.6L5.59-10.793l-3.4,1.2.272-1.547,4.746-1.714h.281ZM18.246,0H10.1l.193-1.239,4.72-4.588.861-.853a5.044,5.044,0,0,0,1.644-2.742A2.033,2.033,0,0,0,17.139-11a1.778,1.778,0,0,0-1.389-.646,2.619,2.619,0,0,0-1.925.672,3.088,3.088,0,0,0-.94,1.938l-1.573.009a4.451,4.451,0,0,1,.725-2.087,4.039,4.039,0,0,1,1.608-1.4,4.622,4.622,0,0,1,2.167-.461,3.551,3.551,0,0,1,2.527.962,2.852,2.852,0,0,1,.8,2.4A6.126,6.126,0,0,1,17.2-6.056l-.809.817L12.278-1.327h6.179Zm5.7.176A2.888,2.888,0,0,1,21.516-.971a5.091,5.091,0,0,1-.738-3.2q.018-.65.1-1.283l.316-2.136A7.923,7.923,0,0,1,22.8-11.672a3.846,3.846,0,0,1,3.129-1.3,2.923,2.923,0,0,1,2.439,1.121A4.979,4.979,0,0,1,29.109-8.7q-.026.659-.105,1.292L28.7-5.344a8.4,8.4,0,0,1-1.644,4.228A3.821,3.821,0,0,1,23.941.176ZM27.466-7.7a13.6,13.6,0,0,0,.114-1.652q-.044-2.232-1.731-2.294a2.31,2.31,0,0,0-1.991.91A6.306,6.306,0,0,0,22.8-7.743l-.378,2.549a12.965,12.965,0,0,0-.114,1.661q.044,2.329,1.723,2.391A2.258,2.258,0,0,0,25.958-2a6.108,6.108,0,0,0,1.085-2.9ZM33.838.176A2.888,2.888,0,0,1,31.412-.971a5.091,5.091,0,0,1-.738-3.2q.018-.65.1-1.283l.316-2.136A7.923,7.923,0,0,1,32.7-11.672a3.846,3.846,0,0,1,3.129-1.3,2.923,2.923,0,0,1,2.439,1.121A4.979,4.979,0,0,1,39.006-8.7q-.026.659-.105,1.292l-.308,2.065a8.4,8.4,0,0,1-1.644,4.228A3.821,3.821,0,0,1,33.838.176ZM37.362-7.7a13.6,13.6,0,0,0,.114-1.652q-.044-2.232-1.731-2.294a2.31,2.31,0,0,0-1.991.91A6.306,6.306,0,0,0,32.7-7.743l-.378,2.549A12.965,12.965,0,0,0,32.2-3.533q.044,2.329,1.723,2.391A2.258,2.258,0,0,0,35.855-2,6.108,6.108,0,0,0,36.94-4.9ZM47.408-9.519l-.2,1.063A3.718,3.718,0,0,1,50.1-9.686a2.934,2.934,0,0,1,1.534.413A2.026,2.026,0,0,1,52.5-8.156a3.927,3.927,0,0,1,3.155-1.529,2.515,2.515,0,0,1,2.1.958,3.422,3.422,0,0,1,.5,2.479L57.208,0H55.626l1.037-6.267a3.311,3.311,0,0,0,0-.835Q56.5-8.3,55.1-8.323a2.4,2.4,0,0,0-1.578.541,2.5,2.5,0,0,0-.91,1.463L51.53,0h-1.6l1.055-6.258a2.009,2.009,0,0,0-.294-1.5,1.549,1.549,0,0,0-1.27-.545,2.6,2.6,0,0,0-2.364,1.354L45.853,0H44.262l1.652-9.51ZM60.126-4.772a7.75,7.75,0,0,1,.839-2.7,4.39,4.39,0,0,1,1.529-1.7,3.545,3.545,0,0,1,1.973-.523,2.926,2.926,0,0,1,2.5,1.248L67.28-9.51h1.459L67.157-.2a4.627,4.627,0,0,1-1.477,2.914,4.159,4.159,0,0,1-3.015,1.042,4.281,4.281,0,0,1-1.85-.457,3.518,3.518,0,0,1-1.393-1.2l.905-.976A2.721,2.721,0,0,0,62.6,2.426a2.728,2.728,0,0,0,1.92-.633,3.265,3.265,0,0,0,1.042-1.9l.176-.844A3.6,3.6,0,0,1,63.026.176,2.8,2.8,0,0,1,61.484-.3a2.913,2.913,0,0,1-1.015-1.31,5.354,5.354,0,0,1-.4-1.912A9.825,9.825,0,0,1,60.126-4.772Zm1.538.9A3.345,3.345,0,0,0,62.1-1.928a1.644,1.644,0,0,0,1.393.724,2.881,2.881,0,0,0,2.452-1.4l.747-4.363a2,2,0,0,0-1.907-1.352,2.468,2.468,0,0,0-2.123,1.053,5.488,5.488,0,0,0-.98,2.941ZM69.724,1.1H68.282l7.594-13.9h1.433ZM78.557,0H76.975l2.338-13.5H80.9Z" transform="translate(675 6976)" fill="#fff"/>
    <path id="Trazado_737982" data-name="Trazado 737982" d="M5.309,0h-1.6L5.59-10.793l-3.4,1.2.272-1.547,4.746-1.714h.281ZM18.246,0H10.1l.193-1.239,4.72-4.588.861-.853a5.044,5.044,0,0,0,1.644-2.742A2.033,2.033,0,0,0,17.139-11a1.778,1.778,0,0,0-1.389-.646,2.619,2.619,0,0,0-1.925.672,3.088,3.088,0,0,0-.94,1.938l-1.573.009a4.451,4.451,0,0,1,.725-2.087,4.039,4.039,0,0,1,1.608-1.4,4.622,4.622,0,0,1,2.167-.461,3.551,3.551,0,0,1,2.527.962,2.852,2.852,0,0,1,.8,2.4A6.126,6.126,0,0,1,17.2-6.056l-.809.817L12.278-1.327h6.179Zm5.7.176A2.888,2.888,0,0,1,21.516-.971a5.091,5.091,0,0,1-.738-3.2q.018-.65.1-1.283l.316-2.136A7.923,7.923,0,0,1,22.8-11.672a3.846,3.846,0,0,1,3.129-1.3,2.923,2.923,0,0,1,2.439,1.121A4.979,4.979,0,0,1,29.109-8.7q-.026.659-.105,1.292L28.7-5.344a8.4,8.4,0,0,1-1.644,4.228A3.821,3.821,0,0,1,23.941.176ZM27.466-7.7a13.6,13.6,0,0,0,.114-1.652q-.044-2.232-1.731-2.294a2.31,2.31,0,0,0-1.991.91A6.306,6.306,0,0,0,22.8-7.743l-.378,2.549a12.965,12.965,0,0,0-.114,1.661q.044,2.329,1.723,2.391A2.258,2.258,0,0,0,25.958-2a6.108,6.108,0,0,0,1.085-2.9ZM33.838.176A2.888,2.888,0,0,1,31.412-.971a5.091,5.091,0,0,1-.738-3.2q.018-.65.1-1.283l.316-2.136A7.923,7.923,0,0,1,32.7-11.672a3.846,3.846,0,0,1,3.129-1.3,2.923,2.923,0,0,1,2.439,1.121A4.979,4.979,0,0,1,39.006-8.7q-.026.659-.105,1.292l-.308,2.065a8.4,8.4,0,0,1-1.644,4.228A3.821,3.821,0,0,1,33.838.176ZM37.362-7.7a13.6,13.6,0,0,0,.114-1.652q-.044-2.232-1.731-2.294a2.31,2.31,0,0,0-1.991.91A6.306,6.306,0,0,0,32.7-7.743l-.378,2.549A12.965,12.965,0,0,0,32.2-3.533q.044,2.329,1.723,2.391A2.258,2.258,0,0,0,35.855-2,6.108,6.108,0,0,0,36.94-4.9ZM47.408-9.519l-.2,1.063A3.718,3.718,0,0,1,50.1-9.686a2.934,2.934,0,0,1,1.534.413A2.026,2.026,0,0,1,52.5-8.156a3.927,3.927,0,0,1,3.155-1.529,2.515,2.515,0,0,1,2.1.958,3.422,3.422,0,0,1,.5,2.479L57.208,0H55.626l1.037-6.267a3.311,3.311,0,0,0,0-.835Q56.5-8.3,55.1-8.323a2.4,2.4,0,0,0-1.578.541,2.5,2.5,0,0,0-.91,1.463L51.53,0h-1.6l1.055-6.258a2.009,2.009,0,0,0-.294-1.5,1.549,1.549,0,0,0-1.27-.545,2.6,2.6,0,0,0-2.364,1.354L45.853,0H44.262l1.652-9.51ZM60.126-4.772a7.75,7.75,0,0,1,.839-2.7,4.39,4.39,0,0,1,1.529-1.7,3.545,3.545,0,0,1,1.973-.523,2.926,2.926,0,0,1,2.5,1.248L67.28-9.51h1.459L67.157-.2a4.627,4.627,0,0,1-1.477,2.914,4.159,4.159,0,0,1-3.015,1.042,4.281,4.281,0,0,1-1.85-.457,3.518,3.518,0,0,1-1.393-1.2l.905-.976A2.721,2.721,0,0,0,62.6,2.426a2.728,2.728,0,0,0,1.92-.633,3.265,3.265,0,0,0,1.042-1.9l.176-.844A3.6,3.6,0,0,1,63.026.176,2.8,2.8,0,0,1,61.484-.3a2.913,2.913,0,0,1-1.015-1.31,5.354,5.354,0,0,1-.4-1.912A9.825,9.825,0,0,1,60.126-4.772Zm1.538.9A3.345,3.345,0,0,0,62.1-1.928a1.644,1.644,0,0,0,1.393.724,2.881,2.881,0,0,0,2.452-1.4l.747-4.363a2,2,0,0,0-1.907-1.352,2.468,2.468,0,0,0-2.123,1.053,5.488,5.488,0,0,0-.98,2.941ZM69.724,1.1H68.282l7.594-13.9h1.433ZM78.557,0H76.975l2.338-13.5H80.9ZM89.692-4.772H85.518L85.755-6.1H89.93Zm15.2.694a5.1,5.1,0,0,1-1.8,3.146A5.036,5.036,0,0,1,99.668.176a3.987,3.987,0,0,1-2.074-.584,3.693,3.693,0,0,1-1.38-1.608,6.007,6.007,0,0,1-.545-2.325,7.451,7.451,0,0,1,.062-1.406L95.88-6.8a7.96,7.96,0,0,1,2.026-4.548,5.112,5.112,0,0,1,3.924-1.622,3.828,3.828,0,0,1,2.856,1.165A4.632,4.632,0,0,1,105.8-8.675h-1.644q-.114-2.689-2.109-2.9l-.29-.018a3.4,3.4,0,0,0-2.773,1.235A6.685,6.685,0,0,0,97.55-6.864l-.193,1.327-.053.773a4.35,4.35,0,0,0,.576,2.571,2.171,2.171,0,0,0,1.868.989,3.29,3.29,0,0,0,2.21-.642,4.269,4.269,0,0,0,1.332-2.206Zm6.732-5.607a3.428,3.428,0,0,1,2.048.65,3.7,3.7,0,0,1,1.261,1.745,5.4,5.4,0,0,1,.277,2.43l-.018.193a6.4,6.4,0,0,1-.826,2.509,4.848,4.848,0,0,1-1.705,1.745,4.158,4.158,0,0,1-2.294.589,3.434,3.434,0,0,1-2.043-.65A3.611,3.611,0,0,1,107.068-2.2a5.547,5.547,0,0,1-.281-2.4,6.48,6.48,0,0,1,.8-2.654,4.96,4.96,0,0,1,1.718-1.824A4.109,4.109,0,0,1,111.621-9.686Zm-3.234,5.1a5.4,5.4,0,0,0,0,1.151,2.821,2.821,0,0,0,.62,1.652,1.86,1.86,0,0,0,1.419.642,2.534,2.534,0,0,0,1.459-.391,3.284,3.284,0,0,0,1.125-1.261,5.311,5.311,0,0,0,.589-1.872,8.431,8.431,0,0,0,.026-1.362,2.927,2.927,0,0,0-.642-1.679,1.9,1.9,0,0,0-1.424-.65,2.592,2.592,0,0,0-2.092.967,4.776,4.776,0,0,0-1.063,2.6ZM119.54-9.519l-.229,1.2a3.749,3.749,0,0,1,2.918-1.371,2.359,2.359,0,0,1,1.986.932,3.619,3.619,0,0,1,.475,2.522L123.653,0h-1.591l1.046-6.251a3.332,3.332,0,0,0,.009-.8,1.314,1.314,0,0,0-1.45-1.255,2.994,2.994,0,0,0-2.514,1.528L117.976,0h-1.591l1.652-9.51Zm10.582,8.376a2.413,2.413,0,0,0,1.538-.5,2.362,2.362,0,0,0,.9-1.349L134.06-3a3.391,3.391,0,0,1-.716,1.635,4,4,0,0,1-1.472,1.151,4,4,0,0,1-1.819.387,3.394,3.394,0,0,1-2.008-.62,3.469,3.469,0,0,1-1.208-1.679,5.593,5.593,0,0,1-.264-2.421l.044-.439a6.306,6.306,0,0,1,.8-2.452,4.624,4.624,0,0,1,1.652-1.683,4.1,4.1,0,0,1,2.25-.567,3.214,3.214,0,0,1,2.391,1,3.465,3.465,0,0,1,.9,2.452l-1.485-.009a2.283,2.283,0,0,0-.519-1.507,1.808,1.808,0,0,0-1.354-.611,2.536,2.536,0,0,0-2.061.923,4.834,4.834,0,0,0-1.024,2.654l-.026.229a7.623,7.623,0,0,0-.018,1.16,2.65,2.65,0,0,0,.58,1.626A1.863,1.863,0,0,0,130.122-1.143ZM139.447.176a3.429,3.429,0,0,1-2.777-1.31,4.507,4.507,0,0,1-.844-3.261l.044-.378a6.327,6.327,0,0,1,.839-2.584,4.882,4.882,0,0,1,1.683-1.762,3.927,3.927,0,0,1,2.145-.567,3.024,3.024,0,0,1,2.3.976,4.012,4.012,0,0,1,.914,2.549,7.448,7.448,0,0,1-.035,1.143l-.1.729h-6.214a3.212,3.212,0,0,0,.426,2.2,2.019,2.019,0,0,0,1.745.94,3.383,3.383,0,0,0,2.6-1.266l.914.773a4.183,4.183,0,0,1-1.542,1.349A4.371,4.371,0,0,1,139.447.176Zm1.011-8.534a2.324,2.324,0,0,0-1.718.668,4.748,4.748,0,0,0-1.165,2.065l4.623.009.035-.141a2.6,2.6,0,0,0-.356-1.841A1.674,1.674,0,0,0,140.458-8.358Zm7.365-1.16-.229,1.2a3.749,3.749,0,0,1,2.918-1.371,2.359,2.359,0,0,1,1.986.932,3.619,3.619,0,0,1,.475,2.522L151.937,0h-1.591l1.046-6.251a3.332,3.332,0,0,0,.009-.8,1.314,1.314,0,0,0-1.45-1.255,2.994,2.994,0,0,0-2.514,1.528L146.259,0h-1.591l1.652-9.51Zm10.767-2.294-.4,2.3h1.731l-.22,1.257h-1.723l-.993,5.915a2.062,2.062,0,0,0-.009.422.67.67,0,0,0,.747.686,4.556,4.556,0,0,0,.773-.088L158.37.009a4.328,4.328,0,0,1-1.16.158,1.661,1.661,0,0,1-1.424-.7,2.7,2.7,0,0,1-.369-1.833l.967-5.889h-1.679l.22-1.257H156.6l.4-2.3ZM166.1-8.06l-.747-.079a2.722,2.722,0,0,0-2.408,1.38L161.771,0h-1.591l1.652-9.51,1.538-.009-.237,1.107A2.843,2.843,0,0,1,165.516-9.7a2.918,2.918,0,0,1,.756.132ZM171.642,0a2.13,2.13,0,0,1-.062-.5l.026-.5A3.9,3.9,0,0,1,168.829.176a2.841,2.841,0,0,1-2.043-.8,2.407,2.407,0,0,1-.716-1.947,2.927,2.927,0,0,1,1.323-2.36,5.631,5.631,0,0,1,3.248-.848l1.661.009.105-.756a1.738,1.738,0,0,0-.33-1.349,1.591,1.591,0,0,0-1.252-.514,2.453,2.453,0,0,0-1.446.4,1.7,1.7,0,0,0-.769,1.1l-1.6.009a2.55,2.55,0,0,1,.65-1.481,3.784,3.784,0,0,1,1.468-1,4.742,4.742,0,0,1,1.854-.338,3.153,3.153,0,0,1,2.312.9,2.794,2.794,0,0,1,.694,2.3l-.773,4.711-.044.677a3.318,3.318,0,0,0,.105.958L173.259,0Zm-2.5-1.23a2.774,2.774,0,0,0,1.446-.365,3.661,3.661,0,0,0,1.173-1.059l.343-1.96-1.2-.009a4.561,4.561,0,0,0-2.3.475A1.748,1.748,0,0,0,167.7-2.8a1.361,1.361,0,0,0,.312,1.112A1.486,1.486,0,0,0,169.146-1.23Zm10.283.088a2.413,2.413,0,0,0,1.538-.5,2.362,2.362,0,0,0,.9-1.349l1.5-.009a3.391,3.391,0,0,1-.716,1.635,4,4,0,0,1-1.472,1.151,4,4,0,0,1-1.819.387,3.394,3.394,0,0,1-2.008-.62,3.469,3.469,0,0,1-1.208-1.679,5.593,5.593,0,0,1-.264-2.421l.044-.439a6.306,6.306,0,0,1,.8-2.452,4.624,4.624,0,0,1,1.652-1.683,4.1,4.1,0,0,1,2.25-.567,3.214,3.214,0,0,1,2.391,1,3.465,3.465,0,0,1,.9,2.452l-1.485-.009a2.283,2.283,0,0,0-.519-1.507,1.808,1.808,0,0,0-1.354-.611,2.536,2.536,0,0,0-2.061.923,4.834,4.834,0,0,0-1.024,2.654l-.026.229a7.623,7.623,0,0,0-.018,1.16A2.65,2.65,0,0,0,178-1.767,1.863,1.863,0,0,0,179.429-1.143ZM186.363,0h-1.582l1.652-9.51h1.582Zm1.31-12.981a.87.87,0,0,1,.672.242.9.9,0,0,1,.268.681.955.955,0,0,1-.268.677.962.962,0,0,1-.672.281.876.876,0,0,1-.677-.237.86.86,0,0,1-.255-.668,1,1,0,0,1,.264-.686A.93.93,0,0,1,187.673-12.981Zm6.574,3.3a3.428,3.428,0,0,1,2.048.65,3.7,3.7,0,0,1,1.261,1.745,5.4,5.4,0,0,1,.277,2.43l-.018.193a6.4,6.4,0,0,1-.826,2.509,4.848,4.848,0,0,1-1.705,1.745,4.158,4.158,0,0,1-2.294.589,3.434,3.434,0,0,1-2.043-.65A3.611,3.611,0,0,1,189.694-2.2a5.547,5.547,0,0,1-.281-2.4,6.48,6.48,0,0,1,.8-2.654,4.96,4.96,0,0,1,1.718-1.824A4.109,4.109,0,0,1,194.247-9.686Zm-3.234,5.1a5.4,5.4,0,0,0,0,1.151,2.821,2.821,0,0,0,.62,1.652,1.86,1.86,0,0,0,1.419.642,2.534,2.534,0,0,0,1.459-.391,3.284,3.284,0,0,0,1.125-1.261,5.311,5.311,0,0,0,.589-1.872,8.431,8.431,0,0,0,.026-1.362,2.927,2.927,0,0,0-.642-1.679,1.9,1.9,0,0,0-1.424-.65,2.592,2.592,0,0,0-2.092.967,4.776,4.776,0,0,0-1.063,2.6ZM195.6-13.5h2.03l-2.689,2.584-1.4,0Zm6.565,3.981-.229,1.2a3.749,3.749,0,0,1,2.918-1.371,2.359,2.359,0,0,1,1.986.932,3.619,3.619,0,0,1,.475,2.522L206.279,0h-1.591l1.046-6.251a3.332,3.332,0,0,0,.009-.8,1.314,1.314,0,0,0-1.45-1.255,2.994,2.994,0,0,0-2.514,1.528L200.6,0h-1.591l1.652-9.51ZM217.257.176a3.429,3.429,0,0,1-2.777-1.31,4.507,4.507,0,0,1-.844-3.261l.044-.378a6.327,6.327,0,0,1,.839-2.584A4.882,4.882,0,0,1,216.2-9.119a3.927,3.927,0,0,1,2.145-.567,3.024,3.024,0,0,1,2.3.976,4.012,4.012,0,0,1,.914,2.549,7.448,7.448,0,0,1-.035,1.143l-.1.729h-6.214a3.212,3.212,0,0,0,.426,2.2,2.019,2.019,0,0,0,1.745.94,3.383,3.383,0,0,0,2.6-1.266l.914.773a4.183,4.183,0,0,1-1.542,1.349A4.371,4.371,0,0,1,217.257.176Zm1.011-8.534a2.324,2.324,0,0,0-1.718.668,4.748,4.748,0,0,0-1.165,2.065l4.623.009.035-.141a2.6,2.6,0,0,0-.356-1.841A1.674,1.674,0,0,0,218.268-8.358Zm12.085-3.779a11.08,11.08,0,0,0-1.652-.193,1.976,1.976,0,0,0-1.4.488,2.206,2.206,0,0,0-.659,1.323l-.158,1.011h1.978l-.22,1.257h-1.969L224.842,0h-1.591l1.441-8.253h-1.468l.22-1.257H224.9l.158-1.116a3.63,3.63,0,0,1,1.178-2.285,3.491,3.491,0,0,1,2.408-.8,13.359,13.359,0,0,1,2.575.387l.844.176L229.834,0h-1.591Zm8.165,11.2A3.673,3.673,0,0,1,235.679.176,2.37,2.37,0,0,1,233.662-.8a3.731,3.731,0,0,1-.488-2.566l1.02-6.144h1.591l-1.028,6.17a4.1,4.1,0,0,0-.018.756,1.573,1.573,0,0,0,.378.993,1.29,1.29,0,0,0,.932.387,2.854,2.854,0,0,0,2.637-1.38l1.2-6.926h1.591L239.818,0h-1.5ZM246.3.176a3.429,3.429,0,0,1-2.777-1.31,4.507,4.507,0,0,1-.844-3.261l.044-.378a6.327,6.327,0,0,1,.839-2.584,4.882,4.882,0,0,1,1.683-1.762,3.927,3.927,0,0,1,2.145-.567,3.024,3.024,0,0,1,2.3.976,4.012,4.012,0,0,1,.914,2.549,7.448,7.448,0,0,1-.035,1.143l-.1.729h-6.214a3.212,3.212,0,0,0,.426,2.2,2.019,2.019,0,0,0,1.745.94,3.383,3.383,0,0,0,2.6-1.266l.914.773A4.183,4.183,0,0,1,248.41-.294,4.371,4.371,0,0,1,246.3.176Zm1.011-8.534a2.324,2.324,0,0,0-1.718.668,4.748,4.748,0,0,0-1.165,2.065l4.623.009.035-.141a2.6,2.6,0,0,0-.356-1.841A1.674,1.674,0,0,0,247.315-8.358Zm7.365-1.16-.229,1.2a3.749,3.749,0,0,1,2.918-1.371,2.359,2.359,0,0,1,1.986.932,3.619,3.619,0,0,1,.475,2.522L258.794,0H257.2l1.046-6.251a3.332,3.332,0,0,0,.009-.8,1.314,1.314,0,0,0-1.45-1.255,2.994,2.994,0,0,0-2.514,1.528L253.116,0h-1.591l1.652-9.51Zm10.767-2.294-.4,2.3h1.731l-.22,1.257h-1.723l-.993,5.915a2.062,2.062,0,0,0-.009.422.67.67,0,0,0,.747.686,4.556,4.556,0,0,0,.773-.088L265.228.009a4.328,4.328,0,0,1-1.16.158,1.661,1.661,0,0,1-1.424-.7,2.7,2.7,0,0,1-.369-1.833l.967-5.889h-1.679l.22-1.257h1.679l.4-2.3Zm5.7,11.988a3.429,3.429,0,0,1-2.777-1.31,4.507,4.507,0,0,1-.844-3.261l.044-.378a6.327,6.327,0,0,1,.839-2.584A4.882,4.882,0,0,1,270.1-9.119a3.927,3.927,0,0,1,2.145-.567,3.024,3.024,0,0,1,2.3.976,4.012,4.012,0,0,1,.914,2.549,7.448,7.448,0,0,1-.035,1.143l-.1.729h-6.214a3.212,3.212,0,0,0,.426,2.2,2.019,2.019,0,0,0,1.745.94,3.383,3.383,0,0,0,2.6-1.266l.914.773a4.183,4.183,0,0,1-1.542,1.349A4.371,4.371,0,0,1,271.151.176Zm1.011-8.534a2.324,2.324,0,0,0-1.718.668,4.748,4.748,0,0,0-1.165,2.065l4.623.009.035-.141a2.6,2.6,0,0,0-.356-1.841A1.674,1.674,0,0,0,272.162-8.358Z" transform="translate(575 6952)" fill="#fff"/>
    <path id="Trazado_737984" data-name="Trazado 737984" d="M0,0H399" transform="translate(516.5 6958)" fill="none" stroke="#fff" stroke-width="2"/>
  </g>
</svg>
