<svg xmlns="http://www.w3.org/2000/svg" width="51.019" height="50" viewBox="0 0 51.019 50">
  <g id="Grupo_1014692" data-name="Grupo 1014692" transform="translate(-3.552 -405.558)">
    <path id="Trazado_733779" data-name="Trazado 733779" d="M54.435,473.051l-.665.666a3.236,3.236,0,0,1-2.288.948h0a3.235,3.235,0,0,1-1.942-.645l-1.4-1.049a3.628,3.628,0,0,0-2.177-.727h0a3.626,3.626,0,0,0-2.177.727l-1.291.968a3.63,3.63,0,0,1-2.177.726h0a3.63,3.63,0,0,1-2.177-.726l-1.29-.968a3.628,3.628,0,0,0-2.177-.727h0a3.626,3.626,0,0,0-2.177.727l-1.291.968a3.63,3.63,0,0,1-2.177.726h0a3.63,3.63,0,0,1-2.177-.726l-1.29-.968a3.628,3.628,0,0,0-2.177-.727h0a3.626,3.626,0,0,0-2.177.727l-1.291.968a3.63,3.63,0,0,1-2.177.726h0a3.63,3.63,0,0,1-2.177-.726l-1.29-.968a3.628,3.628,0,0,0-2.177-.727h0a3.628,3.628,0,0,0-2.177.727l-1.291.968a3.629,3.629,0,0,1-2.177.726h0a3.628,3.628,0,0,1-2.016-.612v14.326h50Z" transform="translate(-0.434 -32.821)" fill="#3693cf"/>
    <path id="Trazado_733780" data-name="Trazado 733780" d="M25.233,434.471H11.67c-3.119,0-5.647-4.7-5.647-10.487S8.551,413.5,11.67,413.5H25.314" transform="translate(-1.216 -3.905)" fill="#004180"/>
    <path id="Trazado_733781" data-name="Trazado 733781" d="M54.72,407.145H46.652c-4.9,0-8.874,6.14-8.874,13.715s3.973,13.714,8.874,13.714H54.72" transform="translate(-16.845 -0.781)" fill="#0059be"/>
    <path id="Trazado_733782" data-name="Trazado 733782" d="M27.7,413.5H14.856a3.223,3.223,0,0,0-.328.031,15.271,15.271,0,0,0-2.022,8.036c0,5.793,2.528,10.488,5.647,10.488h8.092a19.033,19.033,0,0,1-1.709-8.067A17.455,17.455,0,0,1,27.7,413.5Z" transform="translate(-4.402 -3.905)" fill="#004c9d"/>
    <path id="Trazado_733783" data-name="Trazado 733783" d="M70.313,427.455a19.8,19.8,0,0,0,1.091-6.6c0-7.575-3.973-13.715-8.874-13.715s-8.874,6.14-8.874,13.715,3.973,13.714,8.874,13.714a5.794,5.794,0,0,0,.807-.056" transform="translate(-24.66 -0.781)" fill="#95afd1"/>
    <path id="Trazado_733784" data-name="Trazado 733784" d="M72.864,423.984c0,5.792-2.525,10.487-5.647,10.487-1.581,0-3.009-1.21-4.034-3.154a17.474,17.474,0,0,0,0-14.666c1.024-1.944,2.453-3.155,4.034-3.155C70.338,413.5,72.864,418.191,72.864,423.984Z" transform="translate(-29.346 -3.905)" fill="#004c9d"/>
    <ellipse id="Elipse_9012" data-name="Elipse 9012" cx="1.613" cy="7.333" rx="1.613" ry="7.333" transform="translate(32.226 412.746)" fill="#004180"/>
    <path id="Trazado_733785" data-name="Trazado 733785" d="M80.237,463l-.209-.278a7.762,7.762,0,0,1-1.551-4.656h0a5.233,5.233,0,0,0-.745-2.689h0a11.755,11.755,0,0,1-1.676-6.049h0a8.844,8.844,0,0,0-8.844-8.844h0a8.845,8.845,0,0,0-4.547,1.26l-1.191.715a12.364,12.364,0,0,0,.868,2.131,6.709,6.709,0,0,0,2.222,2.6h0a4.035,4.035,0,0,1,2.618,3.78h0a8.739,8.739,0,0,1-1.246,4.5h0a8.249,8.249,0,0,0-1.175,4.243h0a4.808,4.808,0,0,1-.216,1.423l1.83,3.554H80.09Z" transform="translate(-28.51 -17.195)" fill="#d7e0ef"/>
    <path id="Trazado_733786" data-name="Trazado 733786" d="M76.86,464.593l-.209-.278a7.765,7.765,0,0,1-1.552-4.656,5.226,5.226,0,0,0-.744-2.689h0a11.753,11.753,0,0,1-1.676-6.051,8.844,8.844,0,0,0-8.845-8.842h0c-.112,0-.222.018-.333.022a8.831,8.831,0,0,0-.843.431l-1.191.715a12.336,12.336,0,0,0,.871,2.131,6.709,6.709,0,0,0,2.222,2.6h0a4.035,4.035,0,0,1,2.618,3.78,8.739,8.739,0,0,1-1.246,4.5h0a8.249,8.249,0,0,0-1.175,4.243,4.808,4.808,0,0,1-.216,1.423l1.83,3.554H76.784Z" transform="translate(-28.507 -17.976)" fill="#c1cfe8"/>
    <path id="Trazado_733787" data-name="Trazado 733787" d="M54.435,480.99l-.665.666a3.235,3.235,0,0,1-2.288.948h0a3.235,3.235,0,0,1-1.942-.645l-1.4-1.049a3.63,3.63,0,0,0-2.177-.726h0a3.629,3.629,0,0,0-2.177.726l-1.291.968a3.63,3.63,0,0,1-2.177.726h0a3.63,3.63,0,0,1-2.177-.726l-1.29-.968a3.63,3.63,0,0,0-2.177-.726h0a3.629,3.629,0,0,0-2.177.726l-1.291.968a3.63,3.63,0,0,1-2.177.726h0a3.63,3.63,0,0,1-2.177-.726l-1.29-.968a3.63,3.63,0,0,0-2.177-.726h0a3.629,3.629,0,0,0-2.177.726l-1.291.968a3.63,3.63,0,0,1-2.177.726h0a3.63,3.63,0,0,1-2.177-.726l-1.29-.968a3.63,3.63,0,0,0-2.177-.726h0a3.63,3.63,0,0,0-2.177.726l-1.291.968a3.629,3.629,0,0,1-2.177.726h0a3.628,3.628,0,0,1-2.016-.612v10.292h50Z" transform="translate(-0.434 -36.726)" fill="#43b6e5"/>
    <path id="Trazado_733788" data-name="Trazado 733788" d="M54.435,490.517l-.665.666a3.237,3.237,0,0,1-2.288.948h0a3.231,3.231,0,0,1-1.942-.645l-1.4-1.049a3.63,3.63,0,0,0-2.177-.726h0a3.629,3.629,0,0,0-2.177.726L42.5,491.4a3.627,3.627,0,0,1-2.177.726h0a3.627,3.627,0,0,1-2.177-.726l-1.29-.968a3.63,3.63,0,0,0-2.177-.726h0a3.629,3.629,0,0,0-2.177.726l-1.291.968a3.627,3.627,0,0,1-2.177.726h0a3.627,3.627,0,0,1-2.177-.726l-1.29-.968a3.63,3.63,0,0,0-2.177-.726h0a3.629,3.629,0,0,0-2.177.726l-1.291.968a3.627,3.627,0,0,1-2.177.726h0a3.627,3.627,0,0,1-2.177-.726l-1.29-.968a3.63,3.63,0,0,0-2.177-.726h0a3.63,3.63,0,0,0-2.177.726l-1.291.968a3.626,3.626,0,0,1-2.177.726h0a3.624,3.624,0,0,1-2.016-.611v5.452h50Z" transform="translate(-0.434 -41.413)" fill="#66c3e9"/>
    <path id="Trazado_733789" data-name="Trazado 733789" d="M54.435,498.456l-.665.666a3.237,3.237,0,0,1-2.288.948h0a3.231,3.231,0,0,1-1.942-.645l-1.4-1.049a3.627,3.627,0,0,0-2.177-.726h0a3.626,3.626,0,0,0-2.177.726l-1.291.968a3.627,3.627,0,0,1-2.177.726h0a3.627,3.627,0,0,1-2.177-.726l-1.29-.968a3.627,3.627,0,0,0-2.177-.726h0a3.626,3.626,0,0,0-2.177.726l-1.291.968a3.627,3.627,0,0,1-2.177.726h0a3.627,3.627,0,0,1-2.177-.726l-1.29-.968a3.627,3.627,0,0,0-2.177-.726h0a3.626,3.626,0,0,0-2.177.726l-1.291.968a3.627,3.627,0,0,1-2.177.726h0a3.627,3.627,0,0,1-2.177-.726l-1.29-.968a3.627,3.627,0,0,0-2.177-.726h0a3.627,3.627,0,0,0-2.177.726l-1.291.968a3.626,3.626,0,0,1-2.177.726h0a3.623,3.623,0,0,1-2.016-.611v1.418h50Z" transform="translate(-0.434 -45.318)" fill="#8adef9"/>
    <path id="Trazado_733790" data-name="Trazado 733790" d="M53.905,441.468l.665-.665-1.14-1.14-.665.665a2.48,2.48,0,0,1-1.985.688c0-.048-.006-.095-.006-.143a6.029,6.029,0,0,0-.859-3.1,10.95,10.95,0,0,1-1.56-5.632,9.579,9.579,0,0,0-1.819-5.615,20.809,20.809,0,0,0,1.013-6.451c0-8-4.341-14.515-9.677-14.515H29.807a7.959,7.959,0,0,0-6.07,3.226H10.452c-3.618,0-6.452,4.958-6.452,11.29s2.834,11.29,6.452,11.29H23.737a7.962,7.962,0,0,0,6.07,3.226h8.01a7.912,7.912,0,0,1-1.074,3.272,8.951,8.951,0,0,0-.6,1.21,4.572,4.572,0,0,0-4.563.437l-1.29.968a2.9,2.9,0,0,1-3.387,0l-1.291-.968a4.557,4.557,0,0,0-5.322,0l-1.29.968a2.9,2.9,0,0,1-3.387,0l-1.291-.968a4.557,4.557,0,0,0-5.322,0l-1.29.968a2.884,2.884,0,0,1-3.262.088l-.9,1.341a4.534,4.534,0,0,0,5.126-.14l1.29-.967a2.9,2.9,0,0,1,3.387,0l1.291.967a4.557,4.557,0,0,0,5.322,0l1.29-.967a2.9,2.9,0,0,1,3.387,0l1.291.967a4.435,4.435,0,0,0,5.322,0l1.29-.967a2.9,2.9,0,0,1,3.123-.161,9.073,9.073,0,0,0-.219,1.88c0,.111-.016.22-.025.33a4.545,4.545,0,0,0-3.846.693l-1.29.968a2.9,2.9,0,0,1-3.387,0l-1.291-.968a4.557,4.557,0,0,0-5.322,0l-1.29.968a2.9,2.9,0,0,1-3.387,0l-1.291-.968a4.557,4.557,0,0,0-5.322,0l-1.29.968a2.884,2.884,0,0,1-3.262.088l-.9,1.341a4.532,4.532,0,0,0,5.126-.14l1.29-.967a2.9,2.9,0,0,1,3.387,0l1.291.967a4.557,4.557,0,0,0,5.322,0l1.29-.967a2.9,2.9,0,0,1,3.387,0l1.291.967a4.557,4.557,0,0,0,5.322,0l1.29-.967a2.9,2.9,0,0,1,3.387,0l1.291.967a4.557,4.557,0,0,0,5.322,0l1.29-.967a2.9,2.9,0,0,1,3.387,0l1.4,1.048a4.073,4.073,0,0,0,2.426.807,4.015,4.015,0,0,0,2.858-1.184l.665-.665-1.14-1.14-.665.665a2.307,2.307,0,0,1-.735.483,7,7,0,0,1-1.018-2.191h.036A4.013,4.013,0,0,0,53.905,441.468ZM10.452,429.75c-2.622,0-4.839-4.435-4.839-9.677S7.83,410.4,10.452,410.4H22.614a20.086,20.086,0,0,0,0,19.354Zm19.355,3.225c-4.447,0-8.065-5.788-8.065-12.9s3.618-12.9,8.065-12.9h3.651c-3.121,2.411-5.265,7.284-5.265,12.9s2.144,10.491,5.265,12.9Zm0-12.9c0-7.114,3.618-12.9,8.065-12.9s8.065,5.788,8.065,12.9a19.629,19.629,0,0,1-.652,5.028,9.626,9.626,0,0,0-1.371-1.07,19.231,19.231,0,0,0,.41-3.958c0-6.331-2.834-11.29-6.451-11.29s-6.452,4.958-6.452,11.29c0,5.312,2.016,9.777,4.92,10.972a3.24,3.24,0,0,1,1.419,1.922C33.363,432.866,29.807,427.125,29.807,420.073Zm4.938-7.31c.851-1.464,1.946-2.367,3.126-2.367,2.622,0,4.838,4.431,4.838,9.677a17.923,17.923,0,0,1-.275,3.17,9.581,9.581,0,0,0-6.378-.374,19.736,19.736,0,0,0,.2-2.8A17.181,17.181,0,0,0,34.745,412.763Zm-.1,7.31a17.778,17.778,0,0,1-.346,3.509c-.185.1-.376.177-.556.284l-.266.161a17.572,17.572,0,0,1-.444-3.955,16.9,16.9,0,0,1,.807-5.261A16.751,16.751,0,0,1,34.646,420.073Zm14.943,24.514-1.4-1.048a4.557,4.557,0,0,0-5.322,0l-1.29.968a2.9,2.9,0,0,1-3.387,0l-1.243-.932a5.574,5.574,0,0,0,.114-1.059,7.445,7.445,0,0,1,1.06-3.825,9.539,9.539,0,0,0,1.36-4.909,4.856,4.856,0,0,0-2.978-4.456,7.082,7.082,0,0,1-2.563-3.7l.63-.378a8.034,8.034,0,0,1,12.169,6.889,12.57,12.57,0,0,0,1.79,6.462,4.415,4.415,0,0,1,.63,2.272,8.615,8.615,0,0,0,1,4.013A2.236,2.236,0,0,1,49.589,444.587Z" transform="translate(0)"/>
    <path id="Trazado_733791" data-name="Trazado 733791" d="M52.765,489.859a2.5,2.5,0,0,1-3.176.225l-1.4-1.046a4.555,4.555,0,0,0-5.322,0l-1.29.968a2.9,2.9,0,0,1-3.387,0l-1.291-.968a4.555,4.555,0,0,0-5.322,0l-1.29.968a2.9,2.9,0,0,1-3.387,0l-1.291-.968a4.555,4.555,0,0,0-5.322,0l-1.29.968a2.9,2.9,0,0,1-3.387,0l-1.291-.968a4.555,4.555,0,0,0-5.322,0l-1.29.968a2.886,2.886,0,0,1-3.262.089l-.9,1.341a4.532,4.532,0,0,0,5.126-.139l1.29-.968a2.9,2.9,0,0,1,3.387,0l1.291.968a4.555,4.555,0,0,0,5.322,0l1.29-.968a2.9,2.9,0,0,1,3.387,0l1.291.968a4.555,4.555,0,0,0,5.322,0l1.29-.968a2.9,2.9,0,0,1,3.387,0l1.291.968a4.555,4.555,0,0,0,5.322,0l1.29-.968a2.9,2.9,0,0,1,3.387,0l1.4,1.049a4.065,4.065,0,0,0,2.426.807A4.01,4.01,0,0,0,53.905,491l.665-.666-1.14-1.141Z" transform="translate(0 -40.66)"/>
    <path id="Trazado_733792" data-name="Trazado 733792" d="M52.765,497.8a2.506,2.506,0,0,1-3.176.225l-1.4-1.046a4.555,4.555,0,0,0-5.322,0l-1.29.968a2.9,2.9,0,0,1-3.387,0l-1.291-.968a4.555,4.555,0,0,0-5.322,0l-1.29.968a2.9,2.9,0,0,1-3.387,0l-1.291-.968a4.555,4.555,0,0,0-5.322,0l-1.29.968a2.9,2.9,0,0,1-3.387,0l-1.291-.968a4.555,4.555,0,0,0-5.322,0l-1.29.968a2.886,2.886,0,0,1-3.262.089l-.9,1.341a4.528,4.528,0,0,0,5.126-.139l1.29-.968a2.9,2.9,0,0,1,3.387,0l1.291.968a4.556,4.556,0,0,0,5.322,0l1.29-.968a2.9,2.9,0,0,1,3.387,0l1.291.968a4.556,4.556,0,0,0,5.322,0l1.29-.968a2.9,2.9,0,0,1,3.387,0l1.291.968a4.556,4.556,0,0,0,5.322,0l1.29-.968a2.9,2.9,0,0,1,3.387,0l1.4,1.049a4.065,4.065,0,0,0,2.426.807,4.012,4.012,0,0,0,2.858-1.184l.665-.666-1.14-1.141Z" transform="translate(0 -44.565)"/>
  </g>
</svg>
