<svg xmlns="http://www.w3.org/2000/svg" width="50" height="50" viewBox="0 0 50 50">
  <g id="Grupo_1014690" data-name="Grupo 1014690" transform="translate(-8 -8)">
    <path id="Trazado_733757" data-name="Trazado 733757" d="M40.193,301.789H64.386V282.421H62.773l-.719-1.078a3.012,3.012,0,0,0-5.014,0,2.419,2.419,0,0,1-2.014,1.078h-.635a2.419,2.419,0,0,1-2.016-1.078,3.01,3.01,0,0,0-5.012,0,2.419,2.419,0,0,1-2.014,1.078h-.635a2.419,2.419,0,0,1-2.016-1.078,3.01,3.01,0,0,0-5.012,0,2.419,2.419,0,0,1-2.014,1.078h-.635a2.419,2.419,0,0,1-2.016-1.078,3.01,3.01,0,0,0-5.012,0,2.419,2.419,0,0,1-2.014,1.078h-.635a2.419,2.419,0,0,1-2.016-1.078,3.01,3.01,0,0,0-5.012,0l-.719,1.078H16v19.368Z" transform="translate(-7.193 -244.596)" fill="#008b8a"/>
    <path id="Trazado_733758" data-name="Trazado 733758" d="M16,434.421h1.613l.719-1.078a3.012,3.012,0,0,1,5.014,0,2.419,2.419,0,0,0,2.014,1.078h.635a2.419,2.419,0,0,0,2.016-1.078,3.01,3.01,0,0,1,5.012,0,2.419,2.419,0,0,0,2.014,1.078h.635a2.419,2.419,0,0,0,2.016-1.078,3.01,3.01,0,0,1,5.012,0,2.419,2.419,0,0,0,2.014,1.078h.635a2.419,2.419,0,0,0,2.016-1.078,3.01,3.01,0,0,1,5.012,0,2.419,2.419,0,0,0,2.014,1.078h.635a2.419,2.419,0,0,0,2.016-1.078,3.01,3.01,0,0,1,5.012,0l.719,1.078h1.613v4.035H16Z" transform="translate(-7.193 -381.263)" fill="#00706f"/>
    <path id="Trazado_733759" data-name="Trazado 733759" d="M414.456,330.421h-1.28l1.043-1.043-1.141-1.141-1.043,1.043V328h-1.614v1.28l-1.043-1.043-1.141,1.141,1.043,1.043H408v1.614h1.279l-1.043,1.043,1.141,1.141,1.043-1.043v1.281h1.614v-1.28l1.043,1.043,1.141-1.141-1.043-1.043h1.28Z" transform="translate(-359.684 -287.745)" fill="#785349"/>
    <path id="Trazado_733760" data-name="Trazado 733760" d="M313.614,352a1.614,1.614,0,0,0-.968,2.905l1.937,1.453a2.421,2.421,0,0,0,1.453.484,1.614,1.614,0,0,0,.968-2.905l-1.937-1.453A2.421,2.421,0,0,0,313.614,352Z" transform="translate(-273.358 -309.325)" fill="#be6600"/>
    <path id="Trazado_733761" data-name="Trazado 733761" d="M172.035,336a1.614,1.614,0,0,1,.968,2.905l-1.937,1.453a2.421,2.421,0,0,1-1.453.484,1.614,1.614,0,0,1-.968-2.905l1.937-1.453A2.414,2.414,0,0,1,172.035,336Z" transform="translate(-143.872 -294.938)" fill="#be6600"/>
    <path id="Trazado_733762" data-name="Trazado 733762" d="M54.456,346.421h-1.28l1.043-1.043-1.141-1.141-1.043,1.043V344H50.421v1.28l-1.043-1.043-1.141,1.141,1.043,1.043H48v1.614h1.279l-1.043,1.043,1.141,1.141,1.043-1.043v1.281h1.614v-1.28l1.043,1.043,1.141-1.141-1.043-1.043h1.28Z" transform="translate(-35.965 -302.133)" fill="#785349"/>
    <path id="Trazado_733763" data-name="Trazado 733763" d="M174.042,336a2.42,2.42,0,0,0-1.453.484l-1.937,1.453a.822.822,0,1,0,.968,1.291,2.421,2.421,0,0,0,1.453-.484l1.937-1.453a.822.822,0,1,0-.968-1.291Z" transform="translate(-145.879 -294.937)" fill="#ffa031"/>
    <path id="Trazado_733764" data-name="Trazado 733764" d="M319,353.937l-1.937-1.453a2.421,2.421,0,0,0-1.453-.484.822.822,0,1,0-.969,1.291l1.937,1.453a2.421,2.421,0,0,0,1.453.484.822.822,0,1,0,.968-1.291Z" transform="translate(-275.357 -309.324)" fill="#ffa031"/>
    <path id="Trazado_733765" data-name="Trazado 733765" d="M147.228,128a8.07,8.07,0,0,0,8.07,8.07V139.3A11.3,11.3,0,0,1,144,128Z" transform="translate(-122.293 -107.906)" fill="#3076b6"/>
    <path id="Trazado_733766" data-name="Trazado 733766" d="M267.3,27.3A11.3,11.3,0,0,0,256,16v3.228a8.07,8.07,0,0,1,8.07,8.07Z" transform="translate(-223.005 -7.193)" fill="#3076b6"/>
    <path id="Trazado_733767" data-name="Trazado 733767" d="M312,128h8.07l-4.035,4.842Z" transform="translate(-273.359 -107.904)" fill="#4db1f0"/>
    <path id="Trazado_733768" data-name="Trazado 733768" d="M120,84.842h8.07L124.035,80Z" transform="translate(-100.711 -64.737)" fill="#4db1f0"/>
    <path id="Trazado_733769" data-name="Trazado 733769" d="M236.842,100.035a2.421,2.421,0,1,1-4.842,0C232,98.7,234.421,96,234.421,96S236.842,98.7,236.842,100.035Z" transform="translate(-201.421 -79.13)" fill="#3693cf"/>
    <path id="Trazado_733770" data-name="Trazado 733770" d="M248,104.443a2.421,2.421,0,0,0,2.421,2.421c.067,0,.129-.015.2-.019a2.4,2.4,0,0,0,.612-1.595c0-.95-1.219-2.582-1.926-3.45a5.848,5.848,0,0,0-1.3,2.643Z" transform="translate(-215.808 -84.345)" fill="#4db1f0"/>
    <path id="Trazado_733771" data-name="Trazado 733771" d="M57.194,274.419H56.012l-.479-.719a3.819,3.819,0,0,0-6.356,0,1.613,1.613,0,0,1-1.338.719H47.2a1.613,1.613,0,0,1-1.342-.719,3.819,3.819,0,0,0-6.356,0,1.613,1.613,0,0,1-1.342.719h-.645a1.613,1.613,0,0,1-1.342-.719,3.819,3.819,0,0,0-6.356,0,1.613,1.613,0,0,1-1.334.719h-.637A1.613,1.613,0,0,1,26.5,273.7a3.819,3.819,0,0,0-6.356,0,1.613,1.613,0,0,1-1.342.719h-.637a1.613,1.613,0,0,1-1.342-.719,3.819,3.819,0,0,0-6.356,0l-.483.719H8.806a.807.807,0,0,0-.806.807v19.368a.807.807,0,0,0,.806.807H57.194a.807.807,0,0,0,.806-.807V275.226a.807.807,0,0,0-.806-.807Zm-46.774,1.614a.806.806,0,0,0,.671-.359l.719-1.078a2.206,2.206,0,0,1,3.673,0,3.225,3.225,0,0,0,2.684,1.437H18.8a3.225,3.225,0,0,0,2.684-1.437,2.206,2.206,0,0,1,3.673,0,3.225,3.225,0,0,0,2.684,1.437h.637a3.225,3.225,0,0,0,2.684-1.437,2.206,2.206,0,0,1,3.673,0,3.225,3.225,0,0,0,2.68,1.437h.637a3.225,3.225,0,0,0,2.684-1.437,2.206,2.206,0,0,1,3.673,0,3.225,3.225,0,0,0,2.688,1.437h.637a3.225,3.225,0,0,0,2.684-1.437,2.206,2.206,0,0,1,3.673,0l.719,1.078a.806.806,0,0,0,.671.359h.806v13.719h-.375l-.479-.719a3.819,3.819,0,0,0-6.356,0,1.613,1.613,0,0,1-1.338.719H47.2a1.613,1.613,0,0,1-1.342-.719,3.819,3.819,0,0,0-6.356,0,1.613,1.613,0,0,1-1.342.719h-.645a1.612,1.612,0,0,1-1.342-.719,3.819,3.819,0,0,0-6.356,0,1.613,1.613,0,0,1-1.334.719h-.637a1.613,1.613,0,0,1-1.342-.719,3.819,3.819,0,0,0-6.356,0,1.613,1.613,0,0,1-1.342.719h-.637a1.613,1.613,0,0,1-1.342-.719,3.819,3.819,0,0,0-6.356,0l-.483.719H9.613V276.033Zm-.806,17.754v-2.421h.806a.806.806,0,0,0,.671-.359l.719-1.078a2.206,2.206,0,0,1,3.673,0,3.225,3.225,0,0,0,2.684,1.437H18.8a3.225,3.225,0,0,0,2.684-1.437,2.206,2.206,0,0,1,3.673,0,3.225,3.225,0,0,0,2.684,1.437h.637a3.225,3.225,0,0,0,2.684-1.437,2.206,2.206,0,0,1,3.673,0,3.225,3.225,0,0,0,2.68,1.437h.637a3.225,3.225,0,0,0,2.684-1.437,2.206,2.206,0,0,1,3.673,0,3.225,3.225,0,0,0,2.688,1.437h.637a3.225,3.225,0,0,0,2.684-1.437,2.206,2.206,0,0,1,3.673,0l.719,1.078a.806.806,0,0,0,.671.359h.806v2.421Z" transform="translate(0 -237.402)"/>
    <path id="Trazado_733772" data-name="Trazado 733772" d="M408.236,333.078l1.141,1.141,1.043-1.043v1.281h1.614v-1.28l1.043,1.043,1.141-1.141-1.043-1.043h1.28v-1.614h-1.28l1.043-1.043-1.141-1.141-1.043,1.043V328h-1.614v1.28l-1.043-1.043-1.141,1.141,1.043,1.043H408v1.614h1.279Z" transform="translate(-359.684 -287.745)"/>
    <path id="Trazado_733773" data-name="Trazado 733773" d="M304.968,348.358l1.937,1.453a3.245,3.245,0,0,0,1.937.646,2.421,2.421,0,0,0,1.453-4.358l-1.937-1.453a3.248,3.248,0,0,0-1.937-.646,2.421,2.421,0,0,0-1.453,4.358Zm.883-2.507a.8.8,0,0,1,.57-.236,1.63,1.63,0,0,1,.968.323l1.937,1.453a.807.807,0,0,1-.484,1.453,1.6,1.6,0,0,1-.968-.323l-1.937-1.453a.808.808,0,0,1-.086-1.216Z" transform="translate(-266.165 -302.133)"/>
    <path id="Trazado_733774" data-name="Trazado 733774" d="M162.42,334.456a3.249,3.249,0,0,0,1.937-.646l1.937-1.453A2.421,2.421,0,0,0,164.841,328a3.242,3.242,0,0,0-1.937.646l-1.937,1.453a2.421,2.421,0,0,0,1.453,4.358Zm-.484-3.067,1.937-1.453a1.624,1.624,0,0,1,.968-.323.807.807,0,0,1,.484,1.453l-1.937,1.453a1.6,1.6,0,0,1-.968.323.807.807,0,0,1-.484-1.453Z" transform="translate(-136.678 -287.745)"/>
    <path id="Trazado_733775" data-name="Trazado 733775" d="M253.73,19.763a.807.807,0,0,0,.11.859l4.035,4.842a.807.807,0,0,0,1.241,0l4.035-4.842a.807.807,0,0,0-.625-1.323h-1.655A12.11,12.11,0,0,0,248.807,8a.807.807,0,0,0-.807.807v3.228a.807.807,0,0,0,.807.807,7.271,7.271,0,0,1,7.215,6.456h-1.566A.807.807,0,0,0,253.73,19.763Zm4.761,3.924-2.312-2.775H260.8Zm-8.877-12.422V9.645a10.5,10.5,0,0,1,9.645,9.653h-1.614A8.891,8.891,0,0,0,249.614,11.264Z" transform="translate(-215.814)"/>
    <path id="Trazado_733776" data-name="Trazado 733776" d="M121.6,78.122a.807.807,0,0,0-.11-.859l-4.035-4.842a.836.836,0,0,0-1.181-.06c-.021.019-.041.039-.06.06l-4.035,4.842a.807.807,0,0,0,.621,1.324h1.655a12.11,12.11,0,0,0,12.064,11.3.807.807,0,0,0,.807-.807V85.85a.807.807,0,0,0-.807-.807,7.271,7.271,0,0,1-7.215-6.456h1.566A.807.807,0,0,0,121.6,78.122ZM116.837,74.2l2.312,2.774h-4.624Zm8.877,12.422v1.62a10.5,10.5,0,0,1-9.645-9.653h1.614A8.891,8.891,0,0,0,125.714,86.621Z" transform="translate(-93.515 -57.675)"/>
    <path id="Trazado_733777" data-name="Trazado 733777" d="M227.228,96.176a3.228,3.228,0,0,0,3.228-3.228c0-1.566-2.189-4.085-2.628-4.574a.832.832,0,0,0-1.176-.024l-.024.024c-.439.489-2.628,3.008-2.628,4.574a3.228,3.228,0,0,0,3.228,3.228Zm0-6.013a7.355,7.355,0,0,1,1.614,2.785,1.614,1.614,0,0,1-3.228,0A7.234,7.234,0,0,1,227.228,90.163Z" transform="translate(-194.228 -72.043)"/>
    <path id="Trazado_733778" data-name="Trazado 733778" d="M48.236,349.078l1.141,1.141,1.043-1.043v1.281h1.614v-1.28l1.043,1.043,1.141-1.141-1.043-1.043h1.28v-1.614h-1.28l1.043-1.043-1.141-1.141-1.043,1.043V344H50.421v1.28l-1.043-1.043-1.141,1.141,1.043,1.043H48v1.614h1.279Z" transform="translate(-35.965 -302.133)"/>
  </g>
</svg>
