<svg xmlns="http://www.w3.org/2000/svg" width="61.253" height="78.419" viewBox="0 0 61.253 78.419">
  <g id="Grupo_1012192" data-name="Grupo 1012192" transform="translate(-377.62 -290.271)">
    <path id="Trazado_730533" data-name="Trazado 730533" d="M438.456,331.708a6.758,6.758,0,0,1-1.233-2.566c-.388-.968-2.22-3.6-2.318-4.513-.168-1.583,1.77-3.614,3.157-4.294-1.46-2.573-7.63-6.421-4.36-9.6-1.226-.66-3.169-1.132-4.174-1.99-1.719-1.467-.615-3.189-1.335-5.356-2.82-.372-3.409,1.871-5.486-.564-1.241-1.455-1.858-4.357-3.74-4.922-2.031-.611-2.616,1.918-4.477,1.8-1.47-.093-2.474-2.359-3.317-3.466-3.457,3.391-4.111,2.959-8.51,1.2-.335.959-.915,3.34-1.831,3.907-1.6.992-3.7-1.321-5.062-.93-1.986.57.427,3.57-1.052,5.3-1.2,1.4-4.893.719-5.858,2.121-.81,1.176.91,2.506.853,3.754-.123,2.742-3.805,4.032-5.367,5.729,1.736,1.636,2.579,1.893,2.187,3.985-.374,1.993-3.3,4.6-2.925,6.007.424,1.583,3.37,2.168,3.641,3.945.251,1.648-1.874,3.743-2.791,4.873,1.144,1.208,3.538.426,4.452,1.968.78,1.315-.452,2.948-.609,4.2,1.6.512,3.429.134,5.093.03.1,1.185.413,5.935,1.681,7.561,2.144-.649,4.108-2.461,5.909-3.724,4.146,2.3,3.628,10.6,8.294,3.7a15.774,15.774,0,0,1,4.388,2.264c1.3,1.055,1.241,1.838,2.568,1.139,1.887-.995,1.377-4.937,3.523-5.947,1.961-.924,4.122,1.132,5.751,1.914a7,7,0,0,0,.511-2.91c.08-.67.014-3.837.345-4.315,1.214-1.754,7.347-.606,8.633.063-.072-1.446.082-2.871.005-4.311-.039-.722-.762-3.039-.389-3.752C435.317,332.662,437.66,332.656,438.456,331.708Zm-18.918-22.418c-1.217-.213-2.187-1.247-3.325-1.737a12.278,12.278,0,0,0-2.706-.722,22.275,22.275,0,0,0-5.59,0,19.167,19.167,0,0,0-8.55,3.432c-.046.033-.376.279-.4.291-.116.091-.231.185-.345.279q-.443.366-.863.758c-.505.47-1,.958-1.457,1.471a16.412,16.412,0,0,0-2.38,3.451,18.026,18.026,0,0,0-1.533,3.826,14.431,14.431,0,0,0-.518,4.2,19.681,19.681,0,0,0,.561,4.549,23.963,23.963,0,0,0,.683,2.446c.3.868.71,2.063-.165,2.756-2.055,1.629-3.492-3.247-3.853-4.518a21.055,21.055,0,0,1-.754-6.085,21.3,21.3,0,0,1,9.87-17.7,22.835,22.835,0,0,1,10.957-3.52,23.747,23.747,0,0,1,6.6.478c2.211.532,5.281,1.722,6.071,4.032C422.354,308.456,420.837,309.519,419.538,309.291Z" transform="translate(-1.987 -1.991)" fill="#4db1f0"/>
    <path id="Trazado_730534" data-name="Trazado 730534" d="M406.932,309.205c-6.594,2.1-12.067,6.983-13.2,14.52-1.058,7.062.844,15.515,6.447,20.6,6.628,6.013,19.3,4.219,26.123-1.006a22.6,22.6,0,0,0,7.961-12.51c1.3-5.432.818-9.628-1.752-14.169-1.731-3.058-2.616-4.49-5.993-5.915a35.761,35.761,0,0,0-7.9-2.375A25.569,25.569,0,0,0,406.932,309.205Z" transform="translate(-5.284 -5.924)" fill="#ffa031"/>
    <path id="Trazado_730535" data-name="Trazado 730535" d="M402.326,375.186c-.631,4.283-4.589,9.152-5.187,13.794,1.806-.482,3.764-.884,5.494-1.359,2.146,1.337,1.5,5.088,3.691,6.969,5.013-4.071,6.445-12.047,7.767-17.828.121-.107.126-.1.016.017a6.855,6.855,0,0,1-3.734,2.056c-.379-1.624-2.2-5.256-3.589-6.251C404.838,371.2,403.8,372.488,402.326,375.186Z" transform="translate(-6.512 -27.274)" fill="#4db1f0"/>
    <path id="Trazado_730536" data-name="Trazado 730536" d="M436.609,373.743c2.667,4.435,6.518,9.867,9.392,14.755a.583.583,0,0,0-.179.486c-.894-.682-4.113-1.433-5.373-.8-1.8.912-1.767,3.265-2.372,5.2-3.085-1.586-4.871-6.339-7.163-9-1.958-2.276-2.9-3.336-2.89-6.213,3.051,1.591,3.713,1.811,5.22-.74.887-1.5,1.143-5.65,3.716-3.682C436.964,373.271,437.155,372.86,436.609,373.743Z" transform="translate(-16.816 -27.675)" fill="#4db1f0"/>
    <path id="Trazado_730537" data-name="Trazado 730537" d="M428.145,329.861a2.814,2.814,0,0,0-2-2,2.876,2.876,0,0,0-2.79.737q-3.033,3.213-6.239,6.255-1.6,1.519-3.25,2.992c-.206.184-.414.365-.622.547-1.686-2.062-3.948-4.4-6.574-5.086a2.465,2.465,0,0,0-2.721,1.107,2.243,2.243,0,0,0-.164,1.944l-.339.262a1.489,1.489,0,0,0-.41.638.984.984,0,0,0-.135.5,1.5,1.5,0,0,0,.035.79l.2.474a1.992,1.992,0,0,0,.711.711l.115.078c.012.007.025.009.037.015a2.142,2.142,0,0,0,.714,1.118l2.879,2.281a17.06,17.06,0,0,0,2.795,2.084c2.977,1.475,5.42-1.484,7.433-3.288q4.994-4.476,9.589-9.369A2.873,2.873,0,0,0,428.145,329.861Z" transform="translate(-8.421 -12.507)" fill="#fff"/>
    <path id="Trazado_730538" data-name="Trazado 730538" d="M423.247,306.144a21.958,21.958,0,0,0-13.921-3.156,23.806,23.806,0,0,0-9.991,3.512,15.178,15.178,0,0,0-1.7,1.059,20.4,20.4,0,0,0-4.791,4.938,22.973,22.973,0,0,0-3.585,14.972,23.75,23.75,0,0,0,6.186,14.485,20.619,20.619,0,0,0,12.766,6.008c10.1.954,20.319-5.842,24.052-15.573C435.984,322.7,431.717,311.376,423.247,306.144Zm7.8,22.135c-1.726,9.291-10.238,16.5-19.153,17.352a18.682,18.682,0,0,1-12.2-3.066,19.593,19.593,0,0,1-7.727-11.336,22.213,22.213,0,0,1,1.38-16.023,19.028,19.028,0,0,1,2.248-3.357,3.052,3.052,0,0,0,.426-.237c.436-.319.8-.738,1.231-1.072.926-.724,1.891-1.428,2.879-2.058a22.238,22.238,0,0,1,6.168-2.734,19.963,19.963,0,0,1,12.925.88,19.6,19.6,0,0,1,9.56,8.46A20.024,20.024,0,0,1,431.052,328.279Z" transform="translate(-3.85 -4.197)" fill="#334355"/>
    <path id="Trazado_730539" data-name="Trazado 730539" d="M428.744,329.307a20.493,20.493,0,0,0-1.722-2.584,5.965,5.965,0,0,0-1.977-1.968c-1-.427-1.781.233-2.54.814q-1.245.953-2.461,1.944-2.317,1.9-4.5,3.95-1.149,1.081-2.256,2.2a17.079,17.079,0,0,0-1.829,1.956,36.039,36.039,0,0,0-3.824-3.678,2.868,2.868,0,0,0-2.158-1.071,2.353,2.353,0,0,0-1.613,1.156c-.563.768-1.1,1.553-1.656,2.329a9.724,9.724,0,0,0-1.619,2.464,1.814,1.814,0,0,0,.568,1.792c.676.72,1.445,1.373,2.18,2.032q2.113,1.894,4.364,3.624c1.228.947,2.777,2.63,4.475,2.039a7.714,7.714,0,0,0,1.983-1.286q1.139-.863,2.248-1.761,2.126-1.731,4.116-3.622a76.807,76.807,0,0,0,8.221-9.163A1.136,1.136,0,0,0,428.744,329.307ZM414.8,341.864q-.816.685-1.652,1.345c-.414.327-1.195,1.169-1.751,1.2-.527.033-1.417-.848-1.823-1.147q-.993-.733-1.958-1.5-1.748-1.392-3.413-2.887a15.544,15.544,0,0,1-1.639-1.52,1.488,1.488,0,0,0-.1-.13c.055-.1.165-.231.2-.281.255-.368.517-.732.776-1.1l1.551-2.2c.161-.229.428-.849.714-.854.341-.006.764.567,1.018.8a25.265,25.265,0,0,0,4.273,3.569.654.654,0,0,0,.389.071.938.938,0,0,0,1.31.232,12.183,12.183,0,0,0,1.793-1.716q.882-.9,1.79-1.777,1.871-1.805,3.85-3.5,1.922-1.645,3.94-3.174c.029-.021.139-.089.229-.157a1.446,1.446,0,0,1,.174.154c.283.309.556.626.815.956a16.573,16.573,0,0,1,1.062,1.557A76.5,76.5,0,0,1,414.8,341.864Z" transform="translate(-7.641 -11.459)" fill="#334355"/>
    <path id="Trazado_730540" data-name="Trazado 730540" d="M438.723,329.779l-4.987-7.8a43.261,43.261,0,0,0,4.07-3.293,1.1,1.1,0,0,0,0-1.556c-1.877-1.483-3.6-3.216-5.48-4.7a18.075,18.075,0,0,0,1.519-1.207c.808-.656,1.59-1.341,2.356-2.045a1.138,1.138,0,0,0,0-1.589,14.721,14.721,0,0,0-5.182-3.217,16.148,16.148,0,0,0-2.684-.94c.127-.2.273-.456.285-.475a11.92,11.92,0,0,0,.744-1.495c.335-.8.858-1.875.524-2.743-.418-1.088-1.658-1.026-2.634-1.062a38.37,38.37,0,0,0-6.2.295c-.211-1.707-.424-3.414-.655-5.119-.088-.651-.9-.787-1.377-.56a34.876,34.876,0,0,0-5.625,2.906c-.218-.349-.473-.68-.706-1-.384-.533-.776-1.06-1.165-1.591-.372-.508-.738-1.023-1.117-1.527a1.586,1.586,0,0,0-1.715-.728,3.011,3.011,0,0,0-1.321,1.128q-.578.691-1.088,1.434-.488.713-.9,1.471c-.048.087-.077.187-.12.278-1.815-1.018-3.463-2.583-5.5-3.061-1.167-.275-2.726-.234-2.865,1.262-.111,1.183-.085,2.382-.131,3.572a8.991,8.991,0,0,0-5.8-.241c-1.357.444-1.44,1.529-1.245,2.752.187,1.172.356,2.362.58,3.532a.308.308,0,0,0-.079.188c0,.016,0,.028.005.043-.095-.016-.185-.031-.255-.036a10.56,10.56,0,0,0-1.8-.042,7.07,7.07,0,0,0-3.443,1.287,2.657,2.657,0,0,0-1.327,2.9,3.818,3.818,0,0,0,.628,1.168c.155.214.323.418.478.632a4.641,4.641,0,0,0,.394.63l-.1.055c-.3.164-.6.331-.889.509a17.614,17.614,0,0,0-1.471,1.024,18.731,18.731,0,0,0-3,2.792,1.9,1.9,0,0,0,.261,2.967,11.492,11.492,0,0,0,2.708,1.8l-.155.165c-.54.569-1.066,1.153-1.6,1.73a19.439,19.439,0,0,0-2.709,3.064,2.145,2.145,0,0,0,.526,2.826,18.987,18.987,0,0,0,1.681,1.337c.259.188.519.375.778.562.119.086.408.354.634.5-.077.1-.154.19-.229.287-.183.234-.363.47-.537.71a18.409,18.409,0,0,0-1.16,1.813c-.547.974-1.5,2.4-1.229,3.568a2.507,2.507,0,0,0,2.216,1.683,37.913,37.913,0,0,0,3.99.626,1.135,1.135,0,0,0,.682.073c-.15.428-.263.872-.384,1.295-.273.958-.533,1.918-.8,2.877a.89.89,0,0,0,.852,1.119q1.609-.155,3.219-.291l1.545-.131c.229-.02.554-.083.868-.118-.01.089-.021.179-.029.269q-.051.563-.058,1.128a15.542,15.542,0,0,0,.153,2.294,6.734,6.734,0,0,0,.964,3.233c-.394,1-.718,2.032-1.1,3.027-.572,1.482-1.181,2.95-1.807,4.411-1.208,2.824-2.555,5.592-4.007,8.3a1.04,1.04,0,0,0,1.411,1.411,44.822,44.822,0,0,1,8.932-4.2q.8,1.6,1.595,3.2c.351.706.7,1.416,1.054,2.12a2.667,2.667,0,0,0,.924,1.191c2.232,1.32,3.786-3.017,4.31-4.428q1.535-4.13,2.955-8.3.71-2.085,1.4-4.177a14.2,14.2,0,0,0,.718-2.233q.455.432.934.836a41.544,41.544,0,0,0,4.379,8.676,57.142,57.142,0,0,0,6.826,8.892,1.139,1.139,0,0,0,1.891-.5c.281-1.813.533-3.63.79-5.448a18.382,18.382,0,0,0,10.7.86,1.168,1.168,0,0,0,.694-1.705q-2.647-3.909-5.3-7.817-1.3-1.918-2.606-3.834c-.323-.474-.672-1.139-1.092-1.722.781-.746.61-2.205.556-3.209-.058-1.059-.181-2.113-.329-3.163a22.23,22.23,0,0,0,3.688.179,24.024,24.024,0,0,0,2.694-.271c.784-.121,1.643-.221,2.063-.987.684-1.249-.085-3.112-.536-4.322a12.082,12.082,0,0,1-.655-2.062,6.5,6.5,0,0,0-.231-1.445,11.881,11.881,0,0,0,1.509-.193q2.029-.3,4.059-.608A1.152,1.152,0,0,0,438.723,329.779ZM404.186,353.84q-1.193,3.53-2.439,7.044c-.393,1.11-.772,2.228-1.2,3.325a9.757,9.757,0,0,1-.574,1.239,5.912,5.912,0,0,1-.415.649c-.193-.347-.432-.738-.476-.824l-.846-1.655q-.884-1.73-1.763-3.464a1.047,1.047,0,0,0-1.169-.476,34.08,34.08,0,0,0-7.278,3.039c.865-1.769,1.694-3.554,2.451-5.375.579-1.393,1.107-2.8,1.6-4.231.388-1.128.838-2.29,1.142-3.465a7.019,7.019,0,0,0,3.013-1.431c.618-.406,1.211-.845,1.791-1.3a4.875,4.875,0,0,0,1.012-.963,16.2,16.2,0,0,0,1.257,2.839,14.47,14.47,0,0,0,2.144,3.524c.792.813,1.613.422,2.316-.169C404.562,352.709,404.376,353.275,404.186,353.84Zm22.825.572,4.224,6.231a15.818,15.818,0,0,1-8.744-1.541c-.585-.291-1.583-.1-1.695.689-.217,1.541-.427,3.081-.639,4.622a57.316,57.316,0,0,1-5.242-6.707q-1.458-2.186-2.7-4.505c-.221-.412-.422-.833-.63-1.251a7.864,7.864,0,0,0,2.688,1.056c1.708.235,2.227-1.592,2.655-2.869a20.007,20.007,0,0,0,.912-4.031,10.684,10.684,0,0,0,2.409,1.057,16.687,16.687,0,0,0,2.113.59l.337.073a4.363,4.363,0,0,0,.466.895c.427.676.9,1.329,1.345,1.992Q425.759,352.565,427.011,354.413Zm6.351-24.584c-.231.033-.535.071-.848.131a1.066,1.066,0,0,0-.255-.028,2.245,2.245,0,0,0-.882.211,2.127,2.127,0,0,0-1.038.994,2.431,2.431,0,0,0-.176,1.62,1.6,1.6,0,0,0,.167.417,8.959,8.959,0,0,0,.686,2.987,9.79,9.79,0,0,1,.736,2.575c-.081.015-.163.031-.245.045-.292.049-.583.091-.877.125a20.743,20.743,0,0,1-6.251-.239,1.178,1.178,0,0,0-1.427,1.427,33.464,33.464,0,0,1,.463,3.5c.046.59.073,1.18.092,1.771,0,.038-.007.195-.011.357h-.006a18.65,18.65,0,0,1-3.2-.768,8.207,8.207,0,0,0-2.661-.775,1.187,1.187,0,0,0-1.892.812,23.3,23.3,0,0,1-.7,3.794,15.154,15.154,0,0,1-.618,1.817c-.017.051-.045.1-.067.147a5.752,5.752,0,0,0-.722-.271,15.093,15.093,0,0,1-5.329-3.911,1.1,1.1,0,0,0-1.7.219,29.765,29.765,0,0,1-2.145,2.667c-.228.252-.628.556-.911.862-.112-.149-.231-.295-.311-.414a30.243,30.243,0,0,1-1.718-2.9,10.8,10.8,0,0,0-1.573-2.785.6.6,0,0,0-.958.138.981.981,0,0,0-.574-.218c-.938.005-1.625.907-2.332,1.44a21.556,21.556,0,0,1-2.214,1.457c-.173.1-.345.21-.526.294-.016.011-.037.011-.053.021-.085-.368-.321-1.092-.341-1.192a13.112,13.112,0,0,1-.26-2.7,9.486,9.486,0,0,0,.067-2.484c-.289-1.026-1.255-1.1-2.148-.969q-2.243.329-4.487.656c.127-.539.257-1.078.379-1.619a7.043,7.043,0,0,0,.323-2.748.535.535,0,0,0-.654-.367.969.969,0,0,0-.705-.718,29.127,29.127,0,0,0-3.6-.605,4.189,4.189,0,0,1-1.279-.239c.091-.027.125-.283.175-.4.1-.234.217-.464.331-.694a21.7,21.7,0,0,1,1.751-2.889c.571-.8,1.406-1.645.826-2.686-.48-.861-1.683-1.176-2.457-1.707a13.686,13.686,0,0,1-1.458-1.124c-.261-.236-.362-.254-.265-.644.055-.219.339-.452.481-.612.82-.922,1.651-1.835,2.477-2.753.6-.664,1.8-1.583,1.842-2.554a1.081,1.081,0,0,0-.3-1.389c-.476-.362-1.06-.586-1.57-.9-.293-.183-.581-.376-.857-.583a3.731,3.731,0,0,0-.574-.474l.08-.091c.249-.137.5-.541.7-.746q.633-.636,1.321-1.211a20.879,20.879,0,0,1,2.728-1.892,1.75,1.75,0,0,0,.8-2.532c-.356-.763-1.152-1.341-1.423-2.131-.291-.845,1.392-1.52,2-1.727a5.661,5.661,0,0,1,1.725-.309,7.012,7.012,0,0,0,1.463-.033,1.859,1.859,0,0,0,.713-.325c.027.009.041.023.069.03a1.02,1.02,0,0,0,1.28-.975c-.1-1.02-.3-2.034-.464-3.045q-.118-.729-.235-1.458c-.017-.111-.061-.264-.072-.4.079.047.312-.064.436-.089a8.2,8.2,0,0,1,5.025.778.992.992,0,0,0,1.474-.846c-.065-1.365.083-2.765.137-4.13l.018-.473c.131,0,.273,0,.307,0a4.075,4.075,0,0,1,1.241.438c.861.446,1.635,1.038,2.452,1.557a5.894,5.894,0,0,0,2.344.93.451.451,0,0,0,.538.034.66.66,0,0,0,.429-.313c.029-.03.067-.052.093-.082a5.413,5.413,0,0,0,.434-.616c.261-.413.5-.835.78-1.237q.4-.574.838-1.11.232-.282.476-.554c.04-.045.249-.229.375-.364.105.187.238.368.351.549l.882,1.407c.28.447.554.9.842,1.341a6.6,6.6,0,0,0,1.078,1.475.955.955,0,0,0,1.117.145.966.966,0,0,0,.444-.682,23.225,23.225,0,0,0,4.9-1.823c.143,1.547.289,3.1.448,4.641.051.5.435,1.11,1.032,1.032a40.776,40.776,0,0,1,6.752-.345c.2.007.45.034.688.046-.113.367-.223.816-.284.951-.388.859-1.271,1.737-1.33,2.7-.117,1.923,2.436,2.261,3.784,2.767a14.354,14.354,0,0,1,3.928,2.128c-.442.384-.876.776-1.331,1.144a7.921,7.921,0,0,0-2.1,1.858.611.611,0,0,0-.2.793,24,24,0,0,0,5.261,5.731,44.625,44.625,0,0,1-3.694,2.826,1.155,1.155,0,0,0-.408,1.553l4.591,7.209Z" fill="#334355"/>
  </g>
</svg>
