<svg xmlns="http://www.w3.org/2000/svg" width="57.333" height="56.692" viewBox="0 0 57.333 56.692">
  <g id="Grupo_1013614" data-name="Grupo 1013614" transform="translate(15019.333 12624.918)">
    <g id="Grupo_1012195" data-name="Grupo 1012195" transform="translate(-15401.375 -12762.029)">
      <path id="Trazado_730561" data-name="Trazado 730561" d="M383.951,178.734c1.023-3.681,7.972-3.61,10.348-.769,2.878,3.441,2.526,9.182,2.042,13.44-.356,3.13-.656,9.149-3.943,10.778-6.013,2.981-8.078-3.881-9-8.448C382.163,187.56,381.287,182.414,383.951,178.734Z" transform="translate(-0.051 -11.731)" fill="#ffa031"/>
      <path id="Trazado_730562" data-name="Trazado 730562" d="M435.205,140.6c1.066,1.495.451,4.8.253,6.477a20.1,20.1,0,0,1-2.365,6.622,18.551,18.551,0,0,1-3.086,4.362c-.767.788-1.55,1.371-1.107,2.53,1.118,2.926,4.779.231,5.771-1.352,1.685-2.686,2.512-6.439,2.931-9.487.34-2.47.347-7.346-2.071-8.758C435.615,140.743,435.784,140.7,435.205,140.6Z" transform="translate(-14.134 -1.056)" fill="#cdd7e3"/>
      <path id="Trazado_730563" data-name="Trazado 730563" d="M457.359,168.66c1.346.956-.186,3.027-1.267,3.555-1.367.667-3.629.735-4.351,2.334a7.39,7.39,0,0,0,5.474-.257C459.828,172.957,458.757,171.242,457.359,168.66Z" transform="translate(-21.081 -9.542)" fill="#cdd7e3"/>
      <path id="Trazado_730564" data-name="Trazado 730564" d="M458.732,182.79c-1.124,1.848-2.457,1.514-4.224,2.249-1.957.813-1.966,1.911-.11,2.405,1.339.356,3.041.337,4.016-.884C459.338,185.406,458.725,183.563,458.732,182.79Z" transform="translate(-21.469 -13.816)" fill="#cdd7e3"/>
      <path id="Trazado_730565" data-name="Trazado 730565" d="M456.894,194.9c.274,2.284-1.982,3.234-3.77,3.653-.99.232-4.559,1.136-2.99,2.833,1.075,1.164,4.423.039,5.387-.815C457.118,199.156,456.5,197.489,456.894,194.9Z" transform="translate(-20.476 -17.479)" fill="#cdd7e3"/>
      <path id="Trazado_730566" data-name="Trazado 730566" d="M401.7,196.112c-.347,2.31,4.644,5.084,6.468,5.847a35.235,35.235,0,0,0,10.994,3.027,65.647,65.647,0,0,0,15.481-.425c1.26-.224,4.32-1.492,4.268.38-.082,2.966-4.488,3.885-6.626,4.354a46.385,46.385,0,0,1-21.491-.579c-2.118-.589-4.351-.629-6.419-1.3-1.13-.369-3.118-.315-3.773-1.45s.391-2.879.5-4.118c.109-1.2.6-2.606.6-3.62" transform="translate(-5.548 -17.845)" fill="#cdd7e3"/>
      <path id="Trazado_730567" data-name="Trazado 730567" d="M438.2,173.178a3.178,3.178,0,0,0,1-2.981,10.011,10.011,0,0,0-.834-3.143,6.946,6.946,0,0,0-.9-1.542,3.307,3.307,0,0,0,.946-.718,4.109,4.109,0,0,0,.937-3.216c-.226-2.342-1.27-4.625-3.712-5.227a28.631,28.631,0,0,0-7.879-.547,33.285,33.285,0,0,0-4.025.413c-.4.066-.86.139-1.322.232a21.692,21.692,0,0,0,1.867-5.135,21.044,21.044,0,0,0,.458-6.276c-.183-2.2-.631-4.526-2.15-6.22a4.736,4.736,0,0,0-5.518-1.281c-1.876.942-2.856,3.089-3.8,4.849-2.254,4.221-4.175,8.748-7.227,12.48a18.027,18.027,0,0,1-10.677,6.71,4.745,4.745,0,0,0-.961-1.172c-2.377-2-8.653-2.206-10.607.605a8.042,8.042,0,0,0-1.189,3.426c-.253,1.715-.342,3.474-.43,5.2-.189,3.691-.181,7.4-.017,11.089.138,3.126.12,6.668,2.13,9.261,2,2.575,5.32,2.778,8.29,1.954a4.962,4.962,0,0,0,3.168-2.637,1.146,1.146,0,0,0,.163.309,3.1,3.1,0,0,0,1.86.941l2.614.651,4.706,1.172a36.284,36.284,0,0,0,9.415,1.421,69.418,69.418,0,0,0,9.562-.892q2.354-.366,4.681-.881a12.052,12.052,0,0,0,3.769-1.336c1.8-1.11,3.543-4.428,1.643-6.141a8.9,8.9,0,0,0,1.3-.809,7.645,7.645,0,0,0,2.649-3.354,6.46,6.46,0,0,0,.208-3.894,4.039,4.039,0,0,0-1.591-2.384l.1-.052A8.509,8.509,0,0,0,438.2,173.178Zm-43,7.6c-.1,2.347.031,5.121-.872,7.342a3.361,3.361,0,0,1-2.379,2.1,9,9,0,0,1-4.013.216c-2.485-.6-3.436-3.39-3.732-5.636a71.079,71.079,0,0,1-.423-8.363c-.066-5.2-1.925-14.653,5.847-15.141,5.972-.375,5.376,6.9,5.563,10.937Q395.391,176.5,395.2,180.774Zm41.361-9.311c-.783.506-2.022.88-2.279,1.881a.965.965,0,0,0,.66,1.161,1.2,1.2,0,0,0,.227.027c.171.91.666,1.692.864,2.658a4.875,4.875,0,0,1,.043,1.325c-.006.03-.023.151-.029.182-.022.111-.046.22-.074.33-.034.13-.073.261-.116.389,0-.008-.136.345-.075.208a5.17,5.17,0,0,1-1.8,2.155,8.947,8.947,0,0,1-1.258.705,3.727,3.727,0,0,0-1.677,1.158.865.865,0,0,0,.309,1.178,2.345,2.345,0,0,0,1.214.211.654.654,0,0,0,.013.115c.34,1.241.315,2.337-.812,3.168a10.34,10.34,0,0,1-4.019,1.383,72.9,72.9,0,0,1-10.665,1.507,26.317,26.317,0,0,1-10.458-.984l-5.236-1.274-2.793-.679a3.671,3.671,0,0,0-2.384-.046,13.02,13.02,0,0,0,.579-2.669,78.84,78.84,0,0,0,.425-10.828,60.213,60.213,0,0,0-.854-10.527c-.063-.311-.144-.624-.237-.934a15.956,15.956,0,0,0,8.447-3.814c3.3-2.688,5.588-6.341,7.577-10.053,1.044-1.948,2.019-3.931,3.065-5.878.731-1.362,1.737-4.019,3.559-4.157,2.111-.158,2.989,2.347,3.3,3.987a17.891,17.891,0,0,1,.125,5.792,19.326,19.326,0,0,1-1.957,6.176c-1.006,1.945-2.646,3.507-3.311,5.6a.6.6,0,0,0,.732.732,6.72,6.72,0,0,0,3.636-3.211,11.337,11.337,0,0,0,1.521-.095c1.016-.1,2.037-.19,3.057-.236a45.949,45.949,0,0,1,6.151.117c1.429.125,3.758.026,4.416,1.583a5.505,5.505,0,0,1,.517,2.5c-.1.956-.744,1.022-1.4,1.516a.984.984,0,0,0,0,1.673c.008,0,.015.006.023.012a10.933,10.933,0,0,0,.729,2.088,11.063,11.063,0,0,1,.542,2.376,6.434,6.434,0,0,1,.045,1.076C436.881,171.267,436.774,171.328,436.563,171.464Z" fill="#334355"/>
    </g>
  </g>
</svg>
