<svg xmlns="http://www.w3.org/2000/svg" width="136" height="41.255" viewBox="0 0 136 41.255">
  <g id="Grupo_1015996" data-name="Grupo 1015996" transform="translate(-759.5 -8741)">
    <path id="Trazado_737864" data-name="Trazado 737864" d="M6.741,0H4.614V-10.281L1.477-9.211V-11l4.992-1.837h.272ZM19.529-5.388A6.979,6.979,0,0,1,18.5-1.226a3.647,3.647,0,0,1-3.142,1.4A3.7,3.7,0,0,1,12.23-1.191a6.683,6.683,0,0,1-1.077-4.047V-7.453a6.874,6.874,0,0,1,1.033-4.14,3.681,3.681,0,0,1,3.151-1.38,3.7,3.7,0,0,1,3.133,1.345A6.664,6.664,0,0,1,19.529-7.6ZM17.394-7.778a5.415,5.415,0,0,0-.492-2.641,1.68,1.68,0,0,0-1.564-.839,1.679,1.679,0,0,0-1.538.8A5,5,0,0,0,13.28-7.98v2.9a5.555,5.555,0,0,0,.5,2.672,1.683,1.683,0,0,0,1.573.879,1.653,1.653,0,0,0,1.521-.813,5.226,5.226,0,0,0,.519-2.544ZM30.727-2.637q.149-.87-1.129-1.208a14.359,14.359,0,0,1-1.745-.541A2.4,2.4,0,0,1,26.1-6.741a2.675,2.675,0,0,1,1.165-2.123,4.268,4.268,0,0,1,2.685-.822,3.674,3.674,0,0,1,2.465.853,2.719,2.719,0,0,1,.936,2.188l-2.065-.009a1.333,1.333,0,0,0-.36-1.033,1.47,1.47,0,0,0-1.037-.391,2.044,2.044,0,0,0-1.191.343,1.277,1.277,0,0,0-.576.9q-.123.8,1.125,1.112A12.348,12.348,0,0,1,31.1-5.15,2.407,2.407,0,0,1,32.774-2.76a2.628,2.628,0,0,1-.593,1.578A3.462,3.462,0,0,1,30.709-.154a5.036,5.036,0,0,1-1.96.33,3.867,3.867,0,0,1-2.58-.905,2.826,2.826,0,0,1-1.006-2.276L27.176-3a1.531,1.531,0,0,0,.457,1.16,1.766,1.766,0,0,0,1.2.4,2.391,2.391,0,0,0,1.288-.321A1.231,1.231,0,0,0,30.727-2.637ZM38.443.176a3.984,3.984,0,0,1-2.149-.624A3.55,3.55,0,0,1,34.95-2.083a4.86,4.86,0,0,1-.33-2.312l.026-.36a6.365,6.365,0,0,1,.848-2.606,4.84,4.84,0,0,1,1.718-1.753,4.178,4.178,0,0,1,2.232-.571,3.115,3.115,0,0,1,2.676,1.329,4.879,4.879,0,0,1,.672,3.372l-.123.915H36.686a2.583,2.583,0,0,0,.457,1.822,1.811,1.811,0,0,0,1.477.71A3.2,3.2,0,0,0,41.1-2.707L42.152-1.6A4.009,4.009,0,0,1,40.579-.277,4.686,4.686,0,0,1,38.443.176Zm.888-8.156q-1.652-.053-2.479,2.338l3.946.009.035-.185a2.757,2.757,0,0,0,.009-.791,1.617,1.617,0,0,0-.492-.984A1.558,1.558,0,0,0,39.331-7.98Zm4.737,3.217a7.356,7.356,0,0,1,.769-2.575A4.652,4.652,0,0,1,46.354-9.1a3.577,3.577,0,0,1,2.092-.593A2.806,2.806,0,0,1,50.81-8.543l.325-.976,1.9.009L51.46-.264A4.568,4.568,0,0,1,49.891,2.7a4.547,4.547,0,0,1-3.177,1.05,4.439,4.439,0,0,1-1.9-.457,3.947,3.947,0,0,1-1.441-1.16L44.481.879a2.668,2.668,0,0,0,2.18,1.187,2.554,2.554,0,0,0,1.753-.558,2.908,2.908,0,0,0,.98-1.692l.149-.668a3.365,3.365,0,0,1-2.5,1.028,2.663,2.663,0,0,1-2.14-1.011,4.471,4.471,0,0,1-.883-2.672A8.782,8.782,0,0,1,44.068-4.764Zm2.065.185a6.427,6.427,0,0,0-.035.967,2.509,2.509,0,0,0,.422,1.477,1.415,1.415,0,0,0,1.151.571,2.459,2.459,0,0,0,2.074-1.1l.747-4.2a1.7,1.7,0,0,0-1.626-1.081,2.17,2.17,0,0,0-1.775.817,4.58,4.58,0,0,0-.94,2.364ZM59.458-.94A3.449,3.449,0,0,1,56.751.176a2.649,2.649,0,0,1-1.534-.457,2.377,2.377,0,0,1-.87-1.226,4.489,4.489,0,0,1-.154-1.85L55.222-9.51H57.3L56.268-3.331a3.275,3.275,0,0,0-.009.633,1.069,1.069,0,0,0,1.1,1.134A2.515,2.515,0,0,0,59.59-2.672l1.2-6.838h2.083L61.225,0H59.273Zm7.488-8.578L66.735-8.4a3.629,3.629,0,0,1,2.821-1.283,2.3,2.3,0,0,1,1.978.954,3.806,3.806,0,0,1,.475,2.588L70.98,0H68.9l1.037-6.17a3.157,3.157,0,0,0,.009-.7A1.121,1.121,0,0,0,68.7-7.945a2.532,2.532,0,0,0-2.083,1.169L65.426,0H63.343l1.644-9.51Zm6.68,4.755A7.534,7.534,0,0,1,74.417-7.4a4.464,4.464,0,0,1,1.521-1.745,3.512,3.512,0,0,1,2.013-.549,2.81,2.81,0,0,1,2.268,1.081l.914-4.887h2.092L80.877,0H79.014l.141-.984a3.315,3.315,0,0,1-2.6,1.169A2.616,2.616,0,0,1,74.43-.839a4.472,4.472,0,0,1-.857-2.676A7.106,7.106,0,0,1,73.6-4.579Zm2.021.817a2.928,2.928,0,0,0,.338,1.731,1.351,1.351,0,0,0,1.191.659A2.447,2.447,0,0,0,79.26-2.725l.712-4.087a1.626,1.626,0,0,0-1.6-1.134,2.14,2.14,0,0,0-1.925,1.055A5.622,5.622,0,0,0,75.647-3.946ZM83.61-4.79a6.257,6.257,0,0,1,.822-2.54A4.877,4.877,0,0,1,86.159-9.1,4.268,4.268,0,0,1,88.5-9.686a3.632,3.632,0,0,1,2.109.65A3.612,3.612,0,0,1,91.9-7.3a5.5,5.5,0,0,1,.286,2.443,6.373,6.373,0,0,1-.822,2.672,4.858,4.858,0,0,1-1.74,1.78,4.329,4.329,0,0,1-2.351.584,3.615,3.615,0,0,1-2.1-.646,3.624,3.624,0,0,1-1.3-1.723,5.427,5.427,0,0,1-.3-2.413Zm2.048,1.2A2.511,2.511,0,0,0,86.146-2.1a1.561,1.561,0,0,0,1.235.584,2.191,2.191,0,0,0,1.8-.826,4.346,4.346,0,0,0,.91-2.329l.053-.861A3.043,3.043,0,0,0,89.692-7.3a1.573,1.573,0,0,0-1.3-.677,2.277,2.277,0,0,0-2.109,1.31,4.892,4.892,0,0,0-.589,1.881A7.359,7.359,0,0,0,85.658-3.586Zm13.166.949q.149-.87-1.129-1.208a14.359,14.359,0,0,1-1.745-.541A2.4,2.4,0,0,1,94.2-6.741a2.675,2.675,0,0,1,1.165-2.123,4.268,4.268,0,0,1,2.685-.822,3.674,3.674,0,0,1,2.465.853,2.719,2.719,0,0,1,.936,2.188l-2.065-.009a1.333,1.333,0,0,0-.36-1.033,1.47,1.47,0,0,0-1.037-.391,2.044,2.044,0,0,0-1.191.343,1.277,1.277,0,0,0-.576.9q-.123.8,1.125,1.112a12.348,12.348,0,0,1,1.846.576,2.407,2.407,0,0,1,1.679,2.391,2.628,2.628,0,0,1-.593,1.578A3.462,3.462,0,0,1,98.807-.154a5.036,5.036,0,0,1-1.96.33,3.867,3.867,0,0,1-2.58-.905,2.826,2.826,0,0,1-1.006-2.276L95.273-3a1.531,1.531,0,0,0,.457,1.16,1.766,1.766,0,0,0,1.2.4,2.391,2.391,0,0,0,1.288-.321A1.231,1.231,0,0,0,98.824-2.637Z" transform="translate(776 8778.5)" fill="#fff"/>
    <path id="Trazado_737865" data-name="Trazado 737865" d="M1.529-6.346,2.224-12.8H9.1v1.846H4L3.647-7.893a3.951,3.951,0,0,1,2-.51A3.565,3.565,0,0,1,8.495-7.233,4.632,4.632,0,0,1,9.51-4.087,4.264,4.264,0,0,1,8.385-.98,4.106,4.106,0,0,1,5.3.176a4.3,4.3,0,0,1-2.914-1A3.606,3.606,0,0,1,1.134-3.454H3.2a2.256,2.256,0,0,0,.668,1.428,2.032,2.032,0,0,0,1.424.5,1.836,1.836,0,0,0,1.534-.7,3.035,3.035,0,0,0,.549-1.916A2.682,2.682,0,0,0,6.768-6,2.121,2.121,0,0,0,5.1-6.68a2.778,2.778,0,0,0-.984.154,2.788,2.788,0,0,0-.879.6ZM17.024,0H14.941l2.347-13.5h2.083Zm4.544,0H19.485l1.652-9.51h2.083Zm-.132-11.944a1.175,1.175,0,0,1,.316-.826,1.159,1.159,0,0,1,.853-.36,1.108,1.108,0,0,1,.848.312,1.08,1.08,0,0,1,.338.8,1.111,1.111,0,0,1-.33.826,1.208,1.208,0,0,1-.839.343,1.127,1.127,0,0,1-.844-.3A1.045,1.045,0,0,1,21.437-11.944Zm7.128.123-.4,2.312h1.626l-.272,1.582H27.879l-.9,5.326a1.821,1.821,0,0,0-.009.4q.053.571.7.6a3.971,3.971,0,0,0,.738-.079l-.141,1.67a4.776,4.776,0,0,1-1.31.185,1.945,1.945,0,0,1-1.63-.743,2.688,2.688,0,0,1-.426-1.92L25.8-7.928H24.275l.281-1.582h1.512l.4-2.312Zm7.453,4.263a3.837,3.837,0,0,0-.817-.088,2.439,2.439,0,0,0-2.18,1.134L31.878,0H29.795l1.644-9.51,1.978-.009-.211,1.081A2.721,2.721,0,0,1,35.455-9.7a3.419,3.419,0,0,1,.8.132ZM36.2-4.79a6.257,6.257,0,0,1,.822-2.54A4.877,4.877,0,0,1,38.751-9.1a4.268,4.268,0,0,1,2.338-.589,3.632,3.632,0,0,1,2.109.65,3.612,3.612,0,0,1,1.3,1.731A5.5,5.5,0,0,1,44.78-4.86a6.373,6.373,0,0,1-.822,2.672,4.858,4.858,0,0,1-1.74,1.78,4.329,4.329,0,0,1-2.351.584,3.615,3.615,0,0,1-2.1-.646,3.624,3.624,0,0,1-1.3-1.723,5.427,5.427,0,0,1-.3-2.413Zm2.048,1.2A2.511,2.511,0,0,0,38.738-2.1a1.561,1.561,0,0,0,1.235.584,2.191,2.191,0,0,0,1.8-.826,4.346,4.346,0,0,0,.91-2.329l.053-.861A3.043,3.043,0,0,0,42.284-7.3a1.573,1.573,0,0,0-1.3-.677,2.277,2.277,0,0,0-2.109,1.31,4.892,4.892,0,0,0-.589,1.881A7.359,7.359,0,0,0,38.25-3.586Zm13.166.949q.149-.87-1.129-1.208a14.359,14.359,0,0,1-1.745-.541,2.4,2.4,0,0,1-1.749-2.355,2.675,2.675,0,0,1,1.165-2.123,4.268,4.268,0,0,1,2.685-.822,3.674,3.674,0,0,1,2.465.853,2.719,2.719,0,0,1,.936,2.188l-2.065-.009a1.333,1.333,0,0,0-.36-1.033,1.47,1.47,0,0,0-1.037-.391,2.044,2.044,0,0,0-1.191.343,1.277,1.277,0,0,0-.576.9q-.123.8,1.125,1.112a12.348,12.348,0,0,1,1.846.576A2.407,2.407,0,0,1,53.464-2.76a2.628,2.628,0,0,1-.593,1.578A3.462,3.462,0,0,1,51.4-.154a5.036,5.036,0,0,1-1.96.33,3.867,3.867,0,0,1-2.58-.905,2.826,2.826,0,0,1-1.006-2.276L47.865-3a1.531,1.531,0,0,0,.457,1.16,1.766,1.766,0,0,0,1.2.4,2.391,2.391,0,0,0,1.288-.321A1.231,1.231,0,0,0,51.416-2.637Z" transform="translate(800 8754.5)" fill="#fff"/>
    <path id="Trazado_737863" data-name="Trazado 737863" d="M0,0H136" transform="translate(759.5 8760.5)" fill="none" stroke="#fff" stroke-width="2"/>
  </g>
</svg>
