<svg xmlns="http://www.w3.org/2000/svg" width="1020" height="190" viewBox="0 0 1020 190">
  <g id="Grupo_1015986" data-name="Grupo 1015986" transform="translate(-285 -4098)">
    <g id="Trazado_737814" data-name="Trazado 737814" transform="translate(1125 4208)" fill="#7cc6f4">
      <path d="M 170 79 L 10 79 C 5.037386417388916 79 1 74.96261596679688 1 70 L 1 10 C 1 5.037386417388916 5.037386417388916 1 10 1 L 170 1 C 174.9626159667969 1 179 5.037386417388916 179 10 L 179 70 C 179 74.96261596679688 174.9626159667969 79 170 79 Z" stroke="none"/>
      <path d="M 10 2 C 5.588790893554688 2 2 5.588783264160156 2 10 L 2 70 C 2 74.41121673583984 5.588790893554688 78 10 78 L 170 78 C 174.4112091064453 78 178 74.41121673583984 178 70 L 178 10 C 178 5.588783264160156 174.4112091064453 2 170 2 L 10 2 M 10 0 L 170 0 C 175.5228271484375 0 180 4.477142333984375 180 10 L 180 70 C 180 75.52285766601562 175.5228271484375 80 170 80 L 10 80 C 4.477142333984375 80 0 75.52285766601562 0 70 L 0 10 C 0 4.477142333984375 4.477142333984375 0 10 0 Z" stroke="none" fill="#4db1f0"/>
    </g>
    <g id="Trazado_737815" data-name="Trazado 737815" transform="translate(495 4098)" fill="#fff">
      <path d="M 170 79 L 10 79 C 5.037386417388916 79 1 74.96261596679688 1 70 L 1 10 C 1 5.037386417388916 5.037386417388916 1 10 1 L 170 1 C 174.9626159667969 1 179 5.037386417388916 179 10 L 179 70 C 179 74.96261596679688 174.9626159667969 79 170 79 Z" stroke="none"/>
      <path d="M 10 2 C 5.588790893554688 2 2 5.588783264160156 2 10 L 2 70 C 2 74.41121673583984 5.588790893554688 78 10 78 L 170 78 C 174.4112091064453 78 178 74.41121673583984 178 70 L 178 10 C 178 5.588783264160156 174.4112091064453 2 170 2 L 10 2 M 10 0 L 170 0 C 175.5228271484375 0 180 4.477142333984375 180 10 L 180 70 C 180 75.52285766601562 175.5228271484375 80 170 80 L 10 80 C 4.477142333984375 80 0 75.52285766601562 0 70 L 0 10 C 0 4.477142333984375 4.477142333984375 0 10 0 Z" stroke="none" fill="#4db1f0"/>
    </g>
    <g id="Trazado_737816" data-name="Trazado 737816" transform="translate(915 4098)" fill="#fff">
      <path d="M 170 79 L 10 79 C 5.037386417388916 79 1 74.96261596679688 1 70 L 1 10 C 1 5.037386417388916 5.037386417388916 1 10 1 L 170 1 C 174.9626159667969 1 179 5.037386417388916 179 10 L 179 70 C 179 74.96261596679688 174.9626159667969 79 170 79 Z" stroke="none"/>
      <path d="M 10 2 C 5.588790893554688 2 2 5.588783264160156 2 10 L 2 70 C 2 74.41121673583984 5.588790893554688 78 10 78 L 170 78 C 174.4112091064453 78 178 74.41121673583984 178 70 L 178 10 C 178 5.588783264160156 174.4112091064453 2 170 2 L 10 2 M 10 0 L 170 0 C 175.5228271484375 0 180 4.477142333984375 180 10 L 180 70 C 180 75.52285766601562 175.5228271484375 80 170 80 L 10 80 C 4.477142333984375 80 0 75.52285766601562 0 70 L 0 10 C 0 4.477142333984375 4.477142333984375 0 10 0 Z" stroke="none" fill="#4db1f0"/>
    </g>
    <g id="Trazado_737817" data-name="Trazado 737817" transform="translate(285 4098)" fill="#1b4265">
      <path d="M 170 79 L 10 79 C 5.037386417388916 79 1 74.96261596679688 1 70 L 1 10 C 1 5.037386417388916 5.037386417388916 1 10 1 L 170 1 C 174.9626159667969 1 179 5.037386417388916 179 10 L 179 70 C 179 74.96261596679688 174.9626159667969 79 170 79 Z" stroke="none"/>
      <path d="M 10 2 C 5.588790893554688 2 2 5.588783264160156 2 10 L 2 70 C 2 74.41121673583984 5.588790893554688 78 10 78 L 170 78 C 174.4112091064453 78 178 74.41121673583984 178 70 L 178 10 C 178 5.588783264160156 174.4112091064453 2 170 2 L 10 2 M 10 0 L 170 0 C 175.5228271484375 0 180 4.477142333984375 180 10 L 180 70 C 180 75.52285766601562 175.5228271484375 80 170 80 L 10 80 C 4.477142333984375 80 0 75.52285766601562 0 70 L 0 10 C 0 4.477142333984375 4.477142333984375 0 10 0 Z" stroke="none" fill="#4db1f0"/>
    </g>
    <path id="Trazado_737818" data-name="Trazado 737818" d="M9.893-6.035H4.5v3.4h6.367V0H1.074V-14.219h9.814v2.646H4.5v3H9.893Zm9.58-6.562q-.84-.068-1.416-.068-1.914,0-1.914,1.494v.605H18.2v2.285H16.143V0h-3.3V-8.281H11.309v-2.285h1.533v-.684a3.649,3.649,0,0,1,1.226-2.925,5.24,5.24,0,0,1,3.481-1.03q1.611,0,5.234.205V0H19.473ZM31.084-1.143A3.393,3.393,0,0,1,28.262.2,3.328,3.328,0,0,1,25.63-.815a4.251,4.251,0,0,1-.894-2.905v-6.846h3.291V-3.7a1.183,1.183,0,0,0,1.318,1.357,1.72,1.72,0,0,0,1.611-.811v-7.412h3.311V0H31.182ZM41.182.2a5.432,5.432,0,0,1-3.936-1.45,5.008,5.008,0,0,1-1.5-3.774V-5.3a6.489,6.489,0,0,1,.6-2.861A4.395,4.395,0,0,1,38.1-10.083a5.292,5.292,0,0,1,2.734-.679A4.574,4.574,0,0,1,44.346-9.38a5.43,5.43,0,0,1,1.289,3.853v1.279H39.092a2.372,2.372,0,0,0,.771,1.4,2.3,2.3,0,0,0,1.543.508,2.958,2.958,0,0,0,2.441-1.094l1.5,1.777A4.2,4.2,0,0,1,43.608-.308,5.891,5.891,0,0,1,41.182.2Zm-.371-8.418q-1.445,0-1.719,1.914h3.32v-.254a1.63,1.63,0,0,0-.4-1.226A1.593,1.593,0,0,0,40.811-8.223Zm9.17-2.344.107,1.24a3.583,3.583,0,0,1,3.018-1.436,3.015,3.015,0,0,1,2.466.986,4.7,4.7,0,0,1,.845,2.969V0h-3.3V-6.67a1.783,1.783,0,0,0-.322-1.177,1.491,1.491,0,0,0-1.172-.376,1.569,1.569,0,0,0-1.436.762V0H46.895V-10.566Zm12.09-2.627v2.627h1.738v2.285H62.07v4.834a1.234,1.234,0,0,0,.215.83,1.152,1.152,0,0,0,.85.234,4.828,4.828,0,0,0,.82-.059V-.088A6.074,6.074,0,0,1,62.1.2a3.448,3.448,0,0,1-2.51-.8,3.282,3.282,0,0,1-.811-2.432V-8.281H57.432v-2.285h1.348v-2.627ZM70.215.2a5.432,5.432,0,0,1-3.936-1.45,5.008,5.008,0,0,1-1.5-3.774V-5.3a6.489,6.489,0,0,1,.6-2.861,4.395,4.395,0,0,1,1.753-1.919,5.292,5.292,0,0,1,2.734-.679A4.574,4.574,0,0,1,73.379-9.38a5.43,5.43,0,0,1,1.289,3.853v1.279H68.125a2.372,2.372,0,0,0,.771,1.4,2.3,2.3,0,0,0,1.543.508,2.958,2.958,0,0,0,2.441-1.094l1.5,1.777A4.2,4.2,0,0,1,72.642-.308,5.891,5.891,0,0,1,70.215.2Zm-.371-8.418q-1.445,0-1.719,1.914h3.32v-.254a1.63,1.63,0,0,0-.4-1.226A1.593,1.593,0,0,0,69.844-8.223Z" transform="translate(1178 4255)" fill="#12263f"/>
    <path id="Trazado_737819" data-name="Trazado 737819" d="M-63.618-4.824V0h-3.428V-14.219h5.674a6.608,6.608,0,0,1,2.886.6,4.526,4.526,0,0,1,1.943,1.709,4.667,4.667,0,0,1,.688,2.515,4.114,4.114,0,0,1-1.489,3.325,6.179,6.179,0,0,1-4.087,1.245Zm0-2.646h2.246a2.118,2.118,0,0,0,1.519-.5,1.85,1.85,0,0,0,.522-1.406,2.287,2.287,0,0,0-.537-1.592,1.9,1.9,0,0,0-1.465-.605h-2.285Zm15.83-.117-1.084-.078a1.947,1.947,0,0,0-1.992.977V0h-3.291V-10.566h3.086l.107,1.357a2.548,2.548,0,0,1,2.314-1.553,3.209,3.209,0,0,1,.918.117ZM-41.675.2a5.432,5.432,0,0,1-3.936-1.45,5.008,5.008,0,0,1-1.5-3.774V-5.3a6.489,6.489,0,0,1,.6-2.861,4.395,4.395,0,0,1,1.753-1.919,5.292,5.292,0,0,1,2.734-.679A4.574,4.574,0,0,1-38.511-9.38a5.43,5.43,0,0,1,1.289,3.853v1.279h-6.543a2.372,2.372,0,0,0,.771,1.4,2.3,2.3,0,0,0,1.543.508,2.958,2.958,0,0,0,2.441-1.094l1.5,1.777A4.2,4.2,0,0,1-39.248-.308,5.891,5.891,0,0,1-41.675.2Zm-.371-8.418q-1.445,0-1.719,1.914h3.32v-.254a1.63,1.63,0,0,0-.4-1.226A1.593,1.593,0,0,0-42.046-8.223Zm9.98-4.971v2.627h1.738v2.285h-1.738v4.834a1.234,1.234,0,0,0,.215.83,1.152,1.152,0,0,0,.85.234,4.828,4.828,0,0,0,.82-.059V-.088A6.074,6.074,0,0,1-32.036.2a3.448,3.448,0,0,1-2.51-.8,3.282,3.282,0,0,1-.811-2.432V-8.281H-36.7v-2.285h1.348v-2.627Zm9.424,5.605-1.084-.078a1.947,1.947,0,0,0-1.992.977V0h-3.291V-10.566h3.086l.107,1.357A2.548,2.548,0,0,1-23.5-10.762a3.209,3.209,0,0,1,.918.117ZM-15.8,0a3.716,3.716,0,0,1-.312-.947A3.06,3.06,0,0,1-18.647.2a3.749,3.749,0,0,1-2.539-.9,2.875,2.875,0,0,1-1.045-2.271,2.955,2.955,0,0,1,1.27-2.6,6.468,6.468,0,0,1,3.691-.879h1.016v-.559q0-1.462-1.26-1.462a1.03,1.03,0,0,0-1.172,1.158h-3.291a2.95,2.95,0,0,1,1.3-2.487,5.479,5.479,0,0,1,3.325-.956,4.8,4.8,0,0,1,3.193.986,3.429,3.429,0,0,1,1.2,2.705v4.678A4.79,4.79,0,0,0-12.5-.166V0Zm-2.061-2.148a1.836,1.836,0,0,0,1.021-.264,1.653,1.653,0,0,0,.581-.6V-4.7h-.957q-1.719,0-1.719,1.543a.942.942,0,0,0,.3.728A1.1,1.1,0,0,0-17.856-2.148ZM-7.3-13.193v2.627h1.738v2.285H-7.3v4.834a1.234,1.234,0,0,0,.215.83,1.152,1.152,0,0,0,.85.234,4.828,4.828,0,0,0,.82-.059V-.088A6.074,6.074,0,0,1-7.271.2a3.448,3.448,0,0,1-2.51-.8,3.282,3.282,0,0,1-.811-2.432V-8.281h-1.348v-2.285h1.348v-2.627ZM1.685,0a3.716,3.716,0,0,1-.312-.947A3.06,3.06,0,0,1-1.167.2a3.749,3.749,0,0,1-2.539-.9A2.875,2.875,0,0,1-4.751-2.979a2.955,2.955,0,0,1,1.27-2.6A6.468,6.468,0,0,1,.21-6.455H1.226v-.559q0-1.462-1.26-1.462A1.03,1.03,0,0,0-1.206-7.319H-4.5a2.95,2.95,0,0,1,1.3-2.487,5.479,5.479,0,0,1,3.325-.956,4.8,4.8,0,0,1,3.193.986,3.429,3.429,0,0,1,1.2,2.705v4.678A4.79,4.79,0,0,0,4.976-.166V0ZM-.376-2.148A1.836,1.836,0,0,0,.645-2.412a1.653,1.653,0,0,0,.581-.6V-4.7H.269Q-1.45-4.7-1.45-3.154a.942.942,0,0,0,.3.728A1.1,1.1,0,0,0-.376-2.148Zm9.834-8.418.107,1.24a3.633,3.633,0,0,1,3.018-1.436A2.675,2.675,0,0,1,15.288-9.17a3.517,3.517,0,0,1,3.105-1.592q3.213,0,3.3,3.887V0h-3.3V-6.67a2.014,2.014,0,0,0-.273-1.182,1.164,1.164,0,0,0-1-.371,1.559,1.559,0,0,0-1.455.869l.01.137V0h-3.3V-6.65a2.117,2.117,0,0,0-.264-1.2,1.161,1.161,0,0,0-1.006-.371,1.578,1.578,0,0,0-1.445.869V0H6.372V-10.566ZM27.046,0h-3.3V-10.566h3.3Zm-3.5-13.3a1.482,1.482,0,0,1,.508-1.159,1.909,1.909,0,0,1,1.318-.452,1.909,1.909,0,0,1,1.318.452A1.482,1.482,0,0,1,27.2-13.3a1.482,1.482,0,0,1-.508,1.159,1.909,1.909,0,0,1-1.318.452,1.909,1.909,0,0,1-1.318-.452A1.482,1.482,0,0,1,23.55-13.3ZM34.185.2a5.432,5.432,0,0,1-3.936-1.45,5.008,5.008,0,0,1-1.5-3.774V-5.3a6.489,6.489,0,0,1,.6-2.861A4.395,4.395,0,0,1,31.1-10.083a5.292,5.292,0,0,1,2.734-.679A4.574,4.574,0,0,1,37.349-9.38a5.43,5.43,0,0,1,1.289,3.853v1.279H32.095a2.372,2.372,0,0,0,.771,1.4,2.3,2.3,0,0,0,1.543.508,2.958,2.958,0,0,0,2.441-1.094l1.5,1.777A4.2,4.2,0,0,1,36.611-.308,5.891,5.891,0,0,1,34.185.2Zm-.371-8.418q-1.445,0-1.719,1.914h3.32v-.254a1.63,1.63,0,0,0-.4-1.226A1.593,1.593,0,0,0,33.813-8.223Zm9.17-2.344.107,1.24a3.583,3.583,0,0,1,3.018-1.436,3.015,3.015,0,0,1,2.466.986,4.7,4.7,0,0,1,.845,2.969V0h-3.3V-6.67A1.783,1.783,0,0,0,45.8-7.847a1.491,1.491,0,0,0-1.172-.376,1.569,1.569,0,0,0-1.436.762V0H39.9V-10.566Zm12.09-2.627v2.627h1.738v2.285H55.073v4.834a1.234,1.234,0,0,0,.215.83,1.152,1.152,0,0,0,.85.234,4.828,4.828,0,0,0,.82-.059V-.088A6.074,6.074,0,0,1,55.1.2a3.448,3.448,0,0,1-2.51-.8,3.282,3.282,0,0,1-.811-2.432V-8.281H50.435v-2.285h1.348v-2.627ZM57.4-5.381A6.236,6.236,0,0,1,58.013-8.2a4.4,4.4,0,0,1,1.768-1.9,5.323,5.323,0,0,1,2.705-.664,4.858,4.858,0,0,1,3.74,1.47,5.64,5.64,0,0,1,1.367,4v.117a5.472,5.472,0,0,1-1.372,3.921A4.871,4.871,0,0,1,62.5.2a4.927,4.927,0,0,1-3.623-1.353,5.29,5.29,0,0,1-1.475-3.667Zm3.291.205a3.932,3.932,0,0,0,.459,2.148,1.529,1.529,0,0,0,1.357.684q1.758,0,1.8-2.705v-.332q0-2.842-1.816-2.842-1.65,0-1.787,2.451Z" transform="translate(585 4145)" fill="#12263f"/>
    <path id="Trazado_737820" data-name="Trazado 737820" d="M-42.788-11.572h-4.268V0h-3.428V-11.572h-4.189v-2.646h11.885Zm7.051,3.984-1.084-.078a1.947,1.947,0,0,0-1.992.977V0H-42.1V-10.566h3.086l.107,1.357A2.548,2.548,0,0,1-36.6-10.762a3.209,3.209,0,0,1,.918.117ZM-28.892,0A3.716,3.716,0,0,1-29.2-.947,3.06,3.06,0,0,1-31.743.2a3.749,3.749,0,0,1-2.539-.9,2.875,2.875,0,0,1-1.045-2.271,2.955,2.955,0,0,1,1.27-2.6,6.468,6.468,0,0,1,3.691-.879h1.016v-.559q0-1.462-1.26-1.462a1.03,1.03,0,0,0-1.172,1.158h-3.291a2.95,2.95,0,0,1,1.3-2.487,5.479,5.479,0,0,1,3.325-.956,4.8,4.8,0,0,1,3.193.986,3.429,3.429,0,0,1,1.2,2.705v4.678A4.79,4.79,0,0,0-25.6-.166V0Zm-2.061-2.148a1.836,1.836,0,0,0,1.021-.264,1.653,1.653,0,0,0,.581-.6V-4.7h-.957q-1.719,0-1.719,1.543a.942.942,0,0,0,.3.728A1.1,1.1,0,0,0-30.952-2.148ZM-20.4-13.193v2.627h1.738v2.285H-20.4v4.834a1.234,1.234,0,0,0,.215.83,1.152,1.152,0,0,0,.85.234,4.828,4.828,0,0,0,.82-.059V-.088A6.074,6.074,0,0,1-20.366.2a3.448,3.448,0,0,1-2.51-.8,3.282,3.282,0,0,1-.811-2.432V-8.281h-1.348v-2.285h1.348v-2.627ZM-11.411,0a3.716,3.716,0,0,1-.312-.947A3.06,3.06,0,0,1-14.263.2a3.749,3.749,0,0,1-2.539-.9,2.875,2.875,0,0,1-1.045-2.271,2.955,2.955,0,0,1,1.27-2.6,6.468,6.468,0,0,1,3.691-.879h1.016v-.559q0-1.462-1.26-1.462A1.03,1.03,0,0,0-14.3-7.319h-3.291a2.95,2.95,0,0,1,1.3-2.487,5.479,5.479,0,0,1,3.325-.956,4.8,4.8,0,0,1,3.193.986,3.429,3.429,0,0,1,1.2,2.705v4.678A4.79,4.79,0,0,0-8.12-.166V0Zm-2.061-2.148a1.836,1.836,0,0,0,1.021-.264,1.653,1.653,0,0,0,.581-.6V-4.7h-.957q-1.719,0-1.719,1.543a.942.942,0,0,0,.3.728A1.1,1.1,0,0,0-13.472-2.148Zm9.834-8.418.107,1.24A3.633,3.633,0,0,1-.513-10.762,2.675,2.675,0,0,1,2.192-9.17,3.517,3.517,0,0,1,5.3-10.762q3.213,0,3.3,3.887V0H5.3V-6.67a2.014,2.014,0,0,0-.273-1.182,1.164,1.164,0,0,0-1-.371,1.559,1.559,0,0,0-1.455.869l.01.137V0h-3.3V-6.65a2.117,2.117,0,0,0-.264-1.2,1.161,1.161,0,0,0-1.006-.371,1.578,1.578,0,0,0-1.445.869V0H-6.724V-10.566ZM13.95,0h-3.3V-10.566h3.3Zm-3.5-13.3a1.482,1.482,0,0,1,.508-1.159,1.909,1.909,0,0,1,1.318-.452,1.909,1.909,0,0,1,1.318.452,1.482,1.482,0,0,1,.508,1.159,1.482,1.482,0,0,1-.508,1.159,1.909,1.909,0,0,1-1.318.452,1.909,1.909,0,0,1-1.318-.452A1.482,1.482,0,0,1,10.454-13.3ZM21.089.2a5.432,5.432,0,0,1-3.936-1.45,5.008,5.008,0,0,1-1.5-3.774V-5.3a6.489,6.489,0,0,1,.6-2.861A4.395,4.395,0,0,1,18-10.083a5.292,5.292,0,0,1,2.734-.679A4.574,4.574,0,0,1,24.253-9.38a5.43,5.43,0,0,1,1.289,3.853v1.279H19a2.372,2.372,0,0,0,.771,1.4,2.3,2.3,0,0,0,1.543.508,2.958,2.958,0,0,0,2.441-1.094l1.5,1.777A4.2,4.2,0,0,1,23.516-.308,5.891,5.891,0,0,1,21.089.2Zm-.371-8.418q-1.445,0-1.719,1.914h3.32v-.254a1.63,1.63,0,0,0-.4-1.226A1.593,1.593,0,0,0,20.718-8.223Zm9.17-2.344L30-9.326a3.583,3.583,0,0,1,3.018-1.436,3.015,3.015,0,0,1,2.466.986,4.7,4.7,0,0,1,.845,2.969V0h-3.3V-6.67A1.783,1.783,0,0,0,32.7-7.847a1.491,1.491,0,0,0-1.172-.376,1.569,1.569,0,0,0-1.436.762V0H26.8V-10.566Zm12.09-2.627v2.627h1.738v2.285H41.978v4.834a1.234,1.234,0,0,0,.215.83,1.152,1.152,0,0,0,.85.234,4.828,4.828,0,0,0,.82-.059V-.088A6.074,6.074,0,0,1,42.007.2a3.448,3.448,0,0,1-2.51-.8,3.282,3.282,0,0,1-.811-2.432V-8.281H37.339v-2.285h1.348v-2.627ZM44.3-5.381A6.236,6.236,0,0,1,44.917-8.2a4.4,4.4,0,0,1,1.768-1.9,5.323,5.323,0,0,1,2.705-.664,4.858,4.858,0,0,1,3.74,1.47,5.64,5.64,0,0,1,1.367,4v.117a5.472,5.472,0,0,1-1.372,3.921A4.871,4.871,0,0,1,49.409.2a4.927,4.927,0,0,1-3.623-1.353,5.29,5.29,0,0,1-1.475-3.667Zm3.291.205a3.932,3.932,0,0,0,.459,2.148,1.529,1.529,0,0,0,1.357.684q1.758,0,1.8-2.705v-.332q0-2.842-1.816-2.842-1.65,0-1.787,2.451ZM-43.672,22.031a.76.76,0,0,0-.439-.674,6.684,6.684,0,0,0-1.67-.527,7.615,7.615,0,0,1-2.031-.718,3.4,3.4,0,0,1-1.221-1.079,2.577,2.577,0,0,1-.42-1.455,2.92,2.92,0,0,1,1.2-2.4,4.948,4.948,0,0,1,3.145-.942,5.482,5.482,0,0,1,3.359.947,2.962,2.962,0,0,1,1.27,2.49h-3.3q0-1.27-1.338-1.27a1.326,1.326,0,0,0-.869.288.892.892,0,0,0-.352.718.819.819,0,0,0,.43.713,4.06,4.06,0,0,0,1.372.449,11.857,11.857,0,0,1,1.655.42A3.007,3.007,0,0,1-40.5,21.934a2.767,2.767,0,0,1-1.284,2.354,5.632,5.632,0,0,1-3.325.908,5.747,5.747,0,0,1-2.422-.488,4.05,4.05,0,0,1-1.66-1.328,3.007,3.007,0,0,1-.6-1.768h3.076a1.272,1.272,0,0,0,.488,1.069,2.009,2.009,0,0,0,1.2.337,1.58,1.58,0,0,0,1.011-.273A.875.875,0,0,0-43.672,22.031Zm9.824,3.164a5.432,5.432,0,0,1-3.936-1.45,5.008,5.008,0,0,1-1.5-3.774V19.7a6.489,6.489,0,0,1,.6-2.861,4.395,4.395,0,0,1,1.753-1.919,5.292,5.292,0,0,1,2.734-.679,4.574,4.574,0,0,1,3.516,1.382,5.43,5.43,0,0,1,1.289,3.853v1.279h-6.543a2.372,2.372,0,0,0,.771,1.4,2.3,2.3,0,0,0,1.543.508,2.958,2.958,0,0,0,2.441-1.094l1.5,1.777a4.2,4.2,0,0,1-1.743,1.353A5.891,5.891,0,0,1-33.848,25.2Zm-.371-8.418q-1.445,0-1.719,1.914h3.32v-.254a1.63,1.63,0,0,0-.4-1.226A1.593,1.593,0,0,0-34.219,16.777ZM-23.6,22.656a1.464,1.464,0,0,0,1.074-.376,1.379,1.379,0,0,0,.371-1.05h3.086a3.653,3.653,0,0,1-1.245,2.852A4.631,4.631,0,0,1-23.525,25.2a4.689,4.689,0,0,1-3.633-1.445,5.7,5.7,0,0,1-1.328-4v-.137a6.436,6.436,0,0,1,.591-2.827,4.3,4.3,0,0,1,1.7-1.885,5.081,5.081,0,0,1,2.637-.659,4.573,4.573,0,0,1,3.271,1.143,4.053,4.053,0,0,1,1.211,3.1h-3.086a1.807,1.807,0,0,0-.4-1.26,1.382,1.382,0,0,0-1.074-.439q-1.279,0-1.494,1.631a11.508,11.508,0,0,0-.068,1.426,4.52,4.52,0,0,0,.381,2.207A1.319,1.319,0,0,0-23.6,22.656Zm12.217,1.2A3.393,3.393,0,0,1-14.209,25.2a3.328,3.328,0,0,1-2.632-1.011,4.251,4.251,0,0,1-.894-2.905V14.434h3.291V21.3a1.183,1.183,0,0,0,1.318,1.357,1.72,1.72,0,0,0,1.611-.811V14.434H-8.2V25h-3.086Zm8.008-9.424.107,1.24A3.583,3.583,0,0,1-.254,14.238a3.015,3.015,0,0,1,2.466.986,4.7,4.7,0,0,1,.845,2.969V25h-3.3V18.33a1.783,1.783,0,0,0-.322-1.177,1.491,1.491,0,0,0-1.172-.376,1.569,1.569,0,0,0-1.436.762V25H-6.465V14.434Zm7.842,5.205a6.455,6.455,0,0,1,1.084-3.955,3.568,3.568,0,0,1,3.027-1.445,3.035,3.035,0,0,1,2.383,1.113V10h3.3V25H11.3l-.166-1.133A3.116,3.116,0,0,1,8.555,25.2,3.562,3.562,0,0,1,5.566,23.75,6.659,6.659,0,0,1,4.463,19.639Zm3.291.205q0,2.813,1.641,2.813a1.62,1.62,0,0,0,1.563-.918V17.715a1.576,1.576,0,0,0-1.543-.937q-1.523,0-1.65,2.461ZM22.08,25a3.716,3.716,0,0,1-.312-.947A3.06,3.06,0,0,1,19.229,25.2a3.749,3.749,0,0,1-2.539-.9,2.875,2.875,0,0,1-1.045-2.271,2.955,2.955,0,0,1,1.27-2.6,6.468,6.468,0,0,1,3.691-.879h1.016v-.559q0-1.462-1.26-1.462a1.03,1.03,0,0,0-1.172,1.158H15.9a2.95,2.95,0,0,1,1.3-2.487,5.479,5.479,0,0,1,3.325-.956,4.8,4.8,0,0,1,3.193.986,3.429,3.429,0,0,1,1.2,2.705v4.678a4.79,4.79,0,0,0,.449,2.227V25ZM20.02,22.852a1.836,1.836,0,0,0,1.021-.264,1.653,1.653,0,0,0,.581-.6V20.3h-.957q-1.719,0-1.719,1.543a.942.942,0,0,0,.3.728A1.1,1.1,0,0,0,20.02,22.852Zm13.115-5.439-1.084-.078a1.947,1.947,0,0,0-1.992.977V25H26.768V14.434h3.086l.107,1.357a2.548,2.548,0,0,1,2.314-1.553,3.209,3.209,0,0,1,.918.117ZM37.793,25h-3.3V14.434h3.3ZM34.3,11.7A1.482,1.482,0,0,1,34.8,10.54a2.149,2.149,0,0,1,2.637,0,1.577,1.577,0,0,1,0,2.319,2.149,2.149,0,0,1-2.637,0A1.482,1.482,0,0,1,34.3,11.7Zm5.107,7.92A6.236,6.236,0,0,1,40.02,16.8a4.4,4.4,0,0,1,1.768-1.9,5.323,5.323,0,0,1,2.705-.664,4.858,4.858,0,0,1,3.74,1.47,5.64,5.64,0,0,1,1.367,4v.117a5.472,5.472,0,0,1-1.372,3.921,4.871,4.871,0,0,1-3.716,1.45,4.927,4.927,0,0,1-3.623-1.353,5.29,5.29,0,0,1-1.475-3.667Zm3.291.205a3.932,3.932,0,0,0,.459,2.148,1.529,1.529,0,0,0,1.357.684q1.758,0,1.8-2.705v-.332q0-2.842-1.816-2.842-1.65,0-1.787,2.451Z" transform="translate(1005 4133)" fill="#12263f"/>
    <path id="Trazado_737821" data-name="Trazado 737821" d="M-29.6-2.656h-4.7L-35.117,0h-3.662l5.215-14.219h3.223L-25.088,0H-28.77ZM-33.477-5.3h3.057l-1.533-4.932ZM-16.846-12.6q-.84-.068-1.416-.068-1.914,0-1.914,1.494v.605h2.061v2.285h-2.061V0h-3.3V-8.281H-25.01v-2.285h1.533v-.684a3.649,3.649,0,0,1,1.226-2.925,5.24,5.24,0,0,1,3.481-1.03q1.611,0,5.234.205V0h-3.311ZM-5.234-1.143A3.393,3.393,0,0,1-8.057.2,3.328,3.328,0,0,1-10.688-.815a4.251,4.251,0,0,1-.894-2.905v-6.846h3.291V-3.7A1.183,1.183,0,0,0-6.973-2.344a1.72,1.72,0,0,0,1.611-.811v-7.412h3.311V0H-5.137ZM4.863.2A5.432,5.432,0,0,1,.928-1.255a5.008,5.008,0,0,1-1.5-3.774V-5.3a6.489,6.489,0,0,1,.6-2.861,4.395,4.395,0,0,1,1.753-1.919,5.292,5.292,0,0,1,2.734-.679A4.574,4.574,0,0,1,8.027-9.38,5.43,5.43,0,0,1,9.316-5.527v1.279H2.773a2.372,2.372,0,0,0,.771,1.4,2.3,2.3,0,0,0,1.543.508A2.958,2.958,0,0,0,7.529-3.437l1.5,1.777A4.2,4.2,0,0,1,7.29-.308,5.891,5.891,0,0,1,4.863.2ZM4.492-8.223q-1.445,0-1.719,1.914h3.32v-.254a1.63,1.63,0,0,0-.4-1.226A1.593,1.593,0,0,0,4.492-8.223Zm9.17-2.344.107,1.24a3.583,3.583,0,0,1,3.018-1.436,3.015,3.015,0,0,1,2.466.986A4.7,4.7,0,0,1,20.1-6.807V0H16.8V-6.67a1.783,1.783,0,0,0-.322-1.177A1.491,1.491,0,0,0,15.3-8.223a1.569,1.569,0,0,0-1.436.762V0H10.576V-10.566Zm12.09-2.627v2.627H27.49v2.285H25.752v4.834a1.234,1.234,0,0,0,.215.83,1.152,1.152,0,0,0,.85.234,4.828,4.828,0,0,0,.82-.059V-.088A6.074,6.074,0,0,1,25.781.2a3.448,3.448,0,0,1-2.51-.8,3.282,3.282,0,0,1-.811-2.432V-8.281H21.113v-2.285h1.348v-2.627ZM33.9.2a5.432,5.432,0,0,1-3.936-1.45,5.008,5.008,0,0,1-1.5-3.774V-5.3a6.489,6.489,0,0,1,.6-2.861,4.395,4.395,0,0,1,1.753-1.919,5.292,5.292,0,0,1,2.734-.679A4.574,4.574,0,0,1,37.061-9.38,5.43,5.43,0,0,1,38.35-5.527v1.279H31.807a2.372,2.372,0,0,0,.771,1.4,2.3,2.3,0,0,0,1.543.508,2.958,2.958,0,0,0,2.441-1.094l1.5,1.777A4.2,4.2,0,0,1,36.323-.308,5.891,5.891,0,0,1,33.9.2Zm-.371-8.418q-1.445,0-1.719,1.914h3.32v-.254a1.63,1.63,0,0,0-.4-1.226A1.593,1.593,0,0,0,33.525-8.223Z" transform="translate(375 4145)" fill="#fff"/>
    <g id="Trazado_737822" data-name="Trazado 737822" transform="translate(705 4098)" fill="#fff">
      <path d="M 170 79 L 10 79 C 5.037386417388916 79 1 74.96261596679688 1 70 L 1 10 C 1 5.037386417388916 5.037386417388916 1 10 1 L 170 1 C 174.9626159667969 1 179 5.037386417388916 179 10 L 179 70 C 179 74.96261596679688 174.9626159667969 79 170 79 Z" stroke="none"/>
      <path d="M 10 2 C 5.588790893554688 2 2 5.588783264160156 2 10 L 2 70 C 2 74.41121673583984 5.588790893554688 78 10 78 L 170 78 C 174.4112091064453 78 178 74.41121673583984 178 70 L 178 10 C 178 5.588783264160156 174.4112091064453 2 170 2 L 10 2 M 10 0 L 170 0 C 175.5228271484375 0 180 4.477142333984375 180 10 L 180 70 C 180 75.52285766601562 175.5228271484375 80 170 80 L 10 80 C 4.477142333984375 80 0 75.52285766601562 0 70 L 0 10 C 0 4.477142333984375 4.477142333984375 0 10 0 Z" stroke="none" fill="#4db1f0"/>
    </g>
    <g id="Trazado_737823" data-name="Trazado 737823" transform="translate(1125 4098)" fill="#fff">
      <path d="M 170 79 L 10 79 C 5.037386417388916 79 1 74.96261596679688 1 70 L 1 10 C 1 5.037386417388916 5.037386417388916 1 10 1 L 170 1 C 174.9626159667969 1 179 5.037386417388916 179 10 L 179 70 C 179 74.96261596679688 174.9626159667969 79 170 79 Z" stroke="none"/>
      <path d="M 10 2 C 5.588790893554688 2 2 5.588783264160156 2 10 L 2 70 C 2 74.41121673583984 5.588790893554688 78 10 78 L 170 78 C 174.4112091064453 78 178 74.41121673583984 178 70 L 178 10 C 178 5.588783264160156 174.4112091064453 2 170 2 L 10 2 M 10 0 L 170 0 C 175.5228271484375 0 180 4.477142333984375 180 10 L 180 70 C 180 75.52285766601562 175.5228271484375 80 170 80 L 10 80 C 4.477142333984375 80 0 75.52285766601562 0 70 L 0 10 C 0 4.477142333984375 4.477142333984375 0 10 0 Z" stroke="none" fill="#4db1f0"/>
    </g>
    <path id="Trazado_737824" data-name="Trazado 737824" d="M-42.788-11.572h-4.268V0h-3.428V-11.572h-4.189v-2.646h11.885Zm7.051,3.984-1.084-.078a1.947,1.947,0,0,0-1.992.977V0H-42.1V-10.566h3.086l.107,1.357A2.548,2.548,0,0,1-36.6-10.762a3.209,3.209,0,0,1,.918.117ZM-28.892,0A3.716,3.716,0,0,1-29.2-.947,3.06,3.06,0,0,1-31.743.2a3.749,3.749,0,0,1-2.539-.9,2.875,2.875,0,0,1-1.045-2.271,2.955,2.955,0,0,1,1.27-2.6,6.468,6.468,0,0,1,3.691-.879h1.016v-.559q0-1.462-1.26-1.462a1.03,1.03,0,0,0-1.172,1.158h-3.291a2.95,2.95,0,0,1,1.3-2.487,5.479,5.479,0,0,1,3.325-.956,4.8,4.8,0,0,1,3.193.986,3.429,3.429,0,0,1,1.2,2.705v4.678A4.79,4.79,0,0,0-25.6-.166V0Zm-2.061-2.148a1.836,1.836,0,0,0,1.021-.264,1.653,1.653,0,0,0,.581-.6V-4.7h-.957q-1.719,0-1.719,1.543a.942.942,0,0,0,.3.728A1.1,1.1,0,0,0-30.952-2.148ZM-20.4-13.193v2.627h1.738v2.285H-20.4v4.834a1.234,1.234,0,0,0,.215.83,1.152,1.152,0,0,0,.85.234,4.828,4.828,0,0,0,.82-.059V-.088A6.074,6.074,0,0,1-20.366.2a3.448,3.448,0,0,1-2.51-.8,3.282,3.282,0,0,1-.811-2.432V-8.281h-1.348v-2.285h1.348v-2.627ZM-11.411,0a3.716,3.716,0,0,1-.312-.947A3.06,3.06,0,0,1-14.263.2a3.749,3.749,0,0,1-2.539-.9,2.875,2.875,0,0,1-1.045-2.271,2.955,2.955,0,0,1,1.27-2.6,6.468,6.468,0,0,1,3.691-.879h1.016v-.559q0-1.462-1.26-1.462A1.03,1.03,0,0,0-14.3-7.319h-3.291a2.95,2.95,0,0,1,1.3-2.487,5.479,5.479,0,0,1,3.325-.956,4.8,4.8,0,0,1,3.193.986,3.429,3.429,0,0,1,1.2,2.705v4.678A4.79,4.79,0,0,0-8.12-.166V0Zm-2.061-2.148a1.836,1.836,0,0,0,1.021-.264,1.653,1.653,0,0,0,.581-.6V-4.7h-.957q-1.719,0-1.719,1.543a.942.942,0,0,0,.3.728A1.1,1.1,0,0,0-13.472-2.148Zm9.834-8.418.107,1.24A3.633,3.633,0,0,1-.513-10.762,2.675,2.675,0,0,1,2.192-9.17,3.517,3.517,0,0,1,5.3-10.762q3.213,0,3.3,3.887V0H5.3V-6.67a2.014,2.014,0,0,0-.273-1.182,1.164,1.164,0,0,0-1-.371,1.559,1.559,0,0,0-1.455.869l.01.137V0h-3.3V-6.65a2.117,2.117,0,0,0-.264-1.2,1.161,1.161,0,0,0-1.006-.371,1.578,1.578,0,0,0-1.445.869V0H-6.724V-10.566ZM13.95,0h-3.3V-10.566h3.3Zm-3.5-13.3a1.482,1.482,0,0,1,.508-1.159,1.909,1.909,0,0,1,1.318-.452,1.909,1.909,0,0,1,1.318.452,1.482,1.482,0,0,1,.508,1.159,1.482,1.482,0,0,1-.508,1.159,1.909,1.909,0,0,1-1.318.452,1.909,1.909,0,0,1-1.318-.452A1.482,1.482,0,0,1,10.454-13.3ZM21.089.2a5.432,5.432,0,0,1-3.936-1.45,5.008,5.008,0,0,1-1.5-3.774V-5.3a6.489,6.489,0,0,1,.6-2.861A4.395,4.395,0,0,1,18-10.083a5.292,5.292,0,0,1,2.734-.679A4.574,4.574,0,0,1,24.253-9.38a5.43,5.43,0,0,1,1.289,3.853v1.279H19a2.372,2.372,0,0,0,.771,1.4,2.3,2.3,0,0,0,1.543.508,2.958,2.958,0,0,0,2.441-1.094l1.5,1.777A4.2,4.2,0,0,1,23.516-.308,5.891,5.891,0,0,1,21.089.2Zm-.371-8.418q-1.445,0-1.719,1.914h3.32v-.254a1.63,1.63,0,0,0-.4-1.226A1.593,1.593,0,0,0,20.718-8.223Zm9.17-2.344L30-9.326a3.583,3.583,0,0,1,3.018-1.436,3.015,3.015,0,0,1,2.466.986,4.7,4.7,0,0,1,.845,2.969V0h-3.3V-6.67A1.783,1.783,0,0,0,32.7-7.847a1.491,1.491,0,0,0-1.172-.376,1.569,1.569,0,0,0-1.436.762V0H26.8V-10.566Zm12.09-2.627v2.627h1.738v2.285H41.978v4.834a1.234,1.234,0,0,0,.215.83,1.152,1.152,0,0,0,.85.234,4.828,4.828,0,0,0,.82-.059V-.088A6.074,6.074,0,0,1,42.007.2a3.448,3.448,0,0,1-2.51-.8,3.282,3.282,0,0,1-.811-2.432V-8.281H37.339v-2.285h1.348v-2.627ZM44.3-5.381A6.236,6.236,0,0,1,44.917-8.2a4.4,4.4,0,0,1,1.768-1.9,5.323,5.323,0,0,1,2.705-.664,4.858,4.858,0,0,1,3.74,1.47,5.64,5.64,0,0,1,1.367,4v.117a5.472,5.472,0,0,1-1.372,3.921A4.871,4.871,0,0,1,49.409.2a4.927,4.927,0,0,1-3.623-1.353,5.29,5.29,0,0,1-1.475-3.667Zm3.291.205a3.932,3.932,0,0,0,.459,2.148,1.529,1.529,0,0,0,1.357.684q1.758,0,1.8-2.705v-.332q0-2.842-1.816-2.842-1.65,0-1.787,2.451Zm-75.1,24.971a6.372,6.372,0,0,1-1.108,3.931,3.554,3.554,0,0,1-2.993,1.47A3.046,3.046,0,0,1-34,24.131v4.932h-3.291V14.434h3.076l.1.977a3.046,3.046,0,0,1,2.49-1.172,3.582,3.582,0,0,1,3.037,1.44,6.45,6.45,0,0,1,1.084,3.96ZM-30.8,19.59q0-2.812-1.641-2.812a1.549,1.549,0,0,0-1.562.84v4.16a1.6,1.6,0,0,0,1.582.879q1.572,0,1.621-2.715Zm11.133-2.178-1.084-.078a1.947,1.947,0,0,0-1.992.977V25h-3.291V14.434h3.086l.107,1.357a2.548,2.548,0,0,1,2.314-1.553,3.209,3.209,0,0,1,.918.117ZM-15.01,25h-3.3V14.434h3.3Zm-3.5-13.3A1.482,1.482,0,0,1-18,10.54a1.909,1.909,0,0,1,1.318-.452,1.909,1.909,0,0,1,1.318.452,1.482,1.482,0,0,1,.508,1.159,1.482,1.482,0,0,1-.508,1.159,1.909,1.909,0,0,1-1.318.452A1.909,1.909,0,0,1-18,12.859,1.482,1.482,0,0,1-18.506,11.7Zm8.633,2.734.107,1.24a3.633,3.633,0,0,1,3.018-1.436A2.675,2.675,0,0,1-4.043,15.83,3.517,3.517,0,0,1-.937,14.238q3.213,0,3.3,3.887V25h-3.3V18.33a2.014,2.014,0,0,0-.273-1.182,1.164,1.164,0,0,0-1-.371,1.559,1.559,0,0,0-1.455.869l.01.137V25h-3.3V18.35a2.117,2.117,0,0,0-.264-1.2,1.161,1.161,0,0,0-1.006-.371,1.578,1.578,0,0,0-1.445.869V25h-3.291V14.434ZM10.2,25a3.716,3.716,0,0,1-.312-.947A3.06,3.06,0,0,1,7.344,25.2a3.749,3.749,0,0,1-2.539-.9A2.875,2.875,0,0,1,3.76,22.021a2.955,2.955,0,0,1,1.27-2.6,6.468,6.468,0,0,1,3.691-.879H9.736v-.559q0-1.462-1.26-1.462A1.03,1.03,0,0,0,7.3,17.681H4.014a2.95,2.95,0,0,1,1.3-2.487,5.479,5.479,0,0,1,3.325-.956,4.8,4.8,0,0,1,3.193.986,3.429,3.429,0,0,1,1.2,2.705v4.678a4.79,4.79,0,0,0,.449,2.227V25ZM8.135,22.852a1.836,1.836,0,0,0,1.021-.264,1.653,1.653,0,0,0,.581-.6V20.3H8.779q-1.719,0-1.719,1.543a.942.942,0,0,0,.3.728A1.1,1.1,0,0,0,8.135,22.852ZM21.25,17.412l-1.084-.078a1.947,1.947,0,0,0-1.992.977V25H14.883V14.434h3.086l.107,1.357a2.548,2.548,0,0,1,2.314-1.553,3.209,3.209,0,0,1,.918.117ZM25.908,25h-3.3V14.434h3.3Zm-3.5-13.3a1.482,1.482,0,0,1,.508-1.159,2.149,2.149,0,0,1,2.637,0,1.577,1.577,0,0,1,0,2.319,2.149,2.149,0,0,1-2.637,0A1.482,1.482,0,0,1,22.412,11.7Zm5.107,7.92a6.236,6.236,0,0,1,.615-2.817A4.4,4.4,0,0,1,29.9,14.9a5.323,5.323,0,0,1,2.705-.664,4.858,4.858,0,0,1,3.74,1.47,5.64,5.64,0,0,1,1.367,4v.117a5.472,5.472,0,0,1-1.372,3.921,4.871,4.871,0,0,1-3.716,1.45A4.927,4.927,0,0,1,29,23.843a5.29,5.29,0,0,1-1.475-3.667Zm3.291.205a3.932,3.932,0,0,0,.459,2.148,1.529,1.529,0,0,0,1.357.684q1.758,0,1.8-2.705v-.332q0-2.842-1.816-2.842-1.65,0-1.787,2.451Z" transform="translate(795 4133)" fill="#12263f"/>
    <path id="Trazado_737825" data-name="Trazado 737825" d="M-42.788-11.572h-4.268V0h-3.428V-11.572h-4.189v-2.646h11.885Zm7.051,3.984-1.084-.078a1.947,1.947,0,0,0-1.992.977V0H-42.1V-10.566h3.086l.107,1.357A2.548,2.548,0,0,1-36.6-10.762a3.209,3.209,0,0,1,.918.117ZM-28.892,0A3.716,3.716,0,0,1-29.2-.947,3.06,3.06,0,0,1-31.743.2a3.749,3.749,0,0,1-2.539-.9,2.875,2.875,0,0,1-1.045-2.271,2.955,2.955,0,0,1,1.27-2.6,6.468,6.468,0,0,1,3.691-.879h1.016v-.559q0-1.462-1.26-1.462a1.03,1.03,0,0,0-1.172,1.158h-3.291a2.95,2.95,0,0,1,1.3-2.487,5.479,5.479,0,0,1,3.325-.956,4.8,4.8,0,0,1,3.193.986,3.429,3.429,0,0,1,1.2,2.705v4.678A4.79,4.79,0,0,0-25.6-.166V0Zm-2.061-2.148a1.836,1.836,0,0,0,1.021-.264,1.653,1.653,0,0,0,.581-.6V-4.7h-.957q-1.719,0-1.719,1.543a.942.942,0,0,0,.3.728A1.1,1.1,0,0,0-30.952-2.148ZM-20.4-13.193v2.627h1.738v2.285H-20.4v4.834a1.234,1.234,0,0,0,.215.83,1.152,1.152,0,0,0,.85.234,4.828,4.828,0,0,0,.82-.059V-.088A6.074,6.074,0,0,1-20.366.2a3.448,3.448,0,0,1-2.51-.8,3.282,3.282,0,0,1-.811-2.432V-8.281h-1.348v-2.285h1.348v-2.627ZM-11.411,0a3.716,3.716,0,0,1-.312-.947A3.06,3.06,0,0,1-14.263.2a3.749,3.749,0,0,1-2.539-.9,2.875,2.875,0,0,1-1.045-2.271,2.955,2.955,0,0,1,1.27-2.6,6.468,6.468,0,0,1,3.691-.879h1.016v-.559q0-1.462-1.26-1.462A1.03,1.03,0,0,0-14.3-7.319h-3.291a2.95,2.95,0,0,1,1.3-2.487,5.479,5.479,0,0,1,3.325-.956,4.8,4.8,0,0,1,3.193.986,3.429,3.429,0,0,1,1.2,2.705v4.678A4.79,4.79,0,0,0-8.12-.166V0Zm-2.061-2.148a1.836,1.836,0,0,0,1.021-.264,1.653,1.653,0,0,0,.581-.6V-4.7h-.957q-1.719,0-1.719,1.543a.942.942,0,0,0,.3.728A1.1,1.1,0,0,0-13.472-2.148Zm9.834-8.418.107,1.24A3.633,3.633,0,0,1-.513-10.762,2.675,2.675,0,0,1,2.192-9.17,3.517,3.517,0,0,1,5.3-10.762q3.213,0,3.3,3.887V0H5.3V-6.67a2.014,2.014,0,0,0-.273-1.182,1.164,1.164,0,0,0-1-.371,1.559,1.559,0,0,0-1.455.869l.01.137V0h-3.3V-6.65a2.117,2.117,0,0,0-.264-1.2,1.161,1.161,0,0,0-1.006-.371,1.578,1.578,0,0,0-1.445.869V0H-6.724V-10.566ZM13.95,0h-3.3V-10.566h3.3Zm-3.5-13.3a1.482,1.482,0,0,1,.508-1.159,1.909,1.909,0,0,1,1.318-.452,1.909,1.909,0,0,1,1.318.452,1.482,1.482,0,0,1,.508,1.159,1.482,1.482,0,0,1-.508,1.159,1.909,1.909,0,0,1-1.318.452,1.909,1.909,0,0,1-1.318-.452A1.482,1.482,0,0,1,10.454-13.3ZM21.089.2a5.432,5.432,0,0,1-3.936-1.45,5.008,5.008,0,0,1-1.5-3.774V-5.3a6.489,6.489,0,0,1,.6-2.861A4.395,4.395,0,0,1,18-10.083a5.292,5.292,0,0,1,2.734-.679A4.574,4.574,0,0,1,24.253-9.38a5.43,5.43,0,0,1,1.289,3.853v1.279H19a2.372,2.372,0,0,0,.771,1.4,2.3,2.3,0,0,0,1.543.508,2.958,2.958,0,0,0,2.441-1.094l1.5,1.777A4.2,4.2,0,0,1,23.516-.308,5.891,5.891,0,0,1,21.089.2Zm-.371-8.418q-1.445,0-1.719,1.914h3.32v-.254a1.63,1.63,0,0,0-.4-1.226A1.593,1.593,0,0,0,20.718-8.223Zm9.17-2.344L30-9.326a3.583,3.583,0,0,1,3.018-1.436,3.015,3.015,0,0,1,2.466.986,4.7,4.7,0,0,1,.845,2.969V0h-3.3V-6.67A1.783,1.783,0,0,0,32.7-7.847a1.491,1.491,0,0,0-1.172-.376,1.569,1.569,0,0,0-1.436.762V0H26.8V-10.566Zm12.09-2.627v2.627h1.738v2.285H41.978v4.834a1.234,1.234,0,0,0,.215.83,1.152,1.152,0,0,0,.85.234,4.828,4.828,0,0,0,.82-.059V-.088A6.074,6.074,0,0,1,42.007.2a3.448,3.448,0,0,1-2.51-.8,3.282,3.282,0,0,1-.811-2.432V-8.281H37.339v-2.285h1.348v-2.627ZM44.3-5.381A6.236,6.236,0,0,1,44.917-8.2a4.4,4.4,0,0,1,1.768-1.9,5.323,5.323,0,0,1,2.705-.664,4.858,4.858,0,0,1,3.74,1.47,5.64,5.64,0,0,1,1.367,4v.117a5.472,5.472,0,0,1-1.372,3.921A4.871,4.871,0,0,1,49.409.2a4.927,4.927,0,0,1-3.623-1.353,5.29,5.29,0,0,1-1.475-3.667Zm3.291.205a3.932,3.932,0,0,0,.459,2.148,1.529,1.529,0,0,0,1.357.684q1.758,0,1.8-2.705v-.332q0-2.842-1.816-2.842-1.65,0-1.787,2.451ZM-33.223,11.807v2.627h1.738v2.285h-1.738v4.834a1.234,1.234,0,0,0,.215.83,1.152,1.152,0,0,0,.85.234,4.828,4.828,0,0,0,.82-.059v2.354a6.074,6.074,0,0,1-1.855.283,3.448,3.448,0,0,1-2.51-.8,3.282,3.282,0,0,1-.811-2.432V16.719h-1.348V14.434h1.348V11.807ZM-25.078,25.2a5.432,5.432,0,0,1-3.936-1.45,5.008,5.008,0,0,1-1.5-3.774V19.7a6.489,6.489,0,0,1,.6-2.861,4.395,4.395,0,0,1,1.753-1.919,5.292,5.292,0,0,1,2.734-.679,4.574,4.574,0,0,1,3.516,1.382,5.43,5.43,0,0,1,1.289,3.853v1.279h-6.543a2.372,2.372,0,0,0,.771,1.4,2.3,2.3,0,0,0,1.543.508,2.958,2.958,0,0,0,2.441-1.094l1.5,1.777a4.2,4.2,0,0,1-1.743,1.353A5.891,5.891,0,0,1-25.078,25.2Zm-.371-8.418q-1.445,0-1.719,1.914h3.32v-.254a1.63,1.63,0,0,0-.4-1.226A1.593,1.593,0,0,0-25.449,16.777Zm12.539.635-1.084-.078a1.947,1.947,0,0,0-1.992.977V25h-3.291V14.434h3.086l.107,1.357a2.548,2.548,0,0,1,2.314-1.553,3.209,3.209,0,0,1,.918.117Zm5.469,5.244a1.464,1.464,0,0,0,1.074-.376A1.379,1.379,0,0,0-6,21.23H-2.91a3.653,3.653,0,0,1-1.245,2.852A4.631,4.631,0,0,1-7.363,25.2,4.689,4.689,0,0,1-11,23.75a5.7,5.7,0,0,1-1.328-4v-.137a6.436,6.436,0,0,1,.591-2.827,4.3,4.3,0,0,1,1.7-1.885,5.081,5.081,0,0,1,2.637-.659,4.573,4.573,0,0,1,3.271,1.143,4.053,4.053,0,0,1,1.211,3.1H-6a1.807,1.807,0,0,0-.4-1.26,1.382,1.382,0,0,0-1.074-.439q-1.279,0-1.494,1.631a11.508,11.508,0,0,0-.068,1.426,4.52,4.52,0,0,0,.381,2.207A1.319,1.319,0,0,0-7.441,22.656ZM1.953,25h-3.3V14.434h3.3Zm-3.5-13.3a1.482,1.482,0,0,1,.508-1.159,1.909,1.909,0,0,1,1.318-.452A1.909,1.909,0,0,1,1.6,10.54a1.577,1.577,0,0,1,0,2.319,1.909,1.909,0,0,1-1.318.452,1.909,1.909,0,0,1-1.318-.452A1.482,1.482,0,0,1-1.543,11.7ZM9.932,25a3.716,3.716,0,0,1-.312-.947A3.06,3.06,0,0,1,7.08,25.2a3.749,3.749,0,0,1-2.539-.9A2.875,2.875,0,0,1,3.5,22.021a2.955,2.955,0,0,1,1.27-2.6,6.468,6.468,0,0,1,3.691-.879H9.473v-.559q0-1.462-1.26-1.462a1.03,1.03,0,0,0-1.172,1.158H3.75a2.95,2.95,0,0,1,1.3-2.487,5.479,5.479,0,0,1,3.325-.956,4.8,4.8,0,0,1,3.193.986,3.429,3.429,0,0,1,1.2,2.705v4.678a4.79,4.79,0,0,0,.449,2.227V25ZM7.871,22.852a1.836,1.836,0,0,0,1.021-.264,1.653,1.653,0,0,0,.581-.6V20.3H8.516Q6.8,20.3,6.8,21.846a.942.942,0,0,0,.3.728A1.1,1.1,0,0,0,7.871,22.852Zm13.115-5.439L19.9,17.334a1.947,1.947,0,0,0-1.992.977V25H14.619V14.434h3.086l.107,1.357a2.548,2.548,0,0,1,2.314-1.553,3.209,3.209,0,0,1,.918.117ZM25.645,25h-3.3V14.434h3.3Zm-3.5-13.3a1.482,1.482,0,0,1,.508-1.159,2.149,2.149,0,0,1,2.637,0,1.577,1.577,0,0,1,0,2.319,2.149,2.149,0,0,1-2.637,0A1.482,1.482,0,0,1,22.148,11.7Zm5.107,7.92a6.236,6.236,0,0,1,.615-2.817,4.4,4.4,0,0,1,1.768-1.9,5.323,5.323,0,0,1,2.705-.664,4.858,4.858,0,0,1,3.74,1.47,5.64,5.64,0,0,1,1.367,4v.117a5.472,5.472,0,0,1-1.372,3.921,4.871,4.871,0,0,1-3.716,1.45,4.927,4.927,0,0,1-3.623-1.353,5.29,5.29,0,0,1-1.475-3.667Zm3.291.205a3.932,3.932,0,0,0,.459,2.148,1.529,1.529,0,0,0,1.357.684q1.758,0,1.8-2.705v-.332q0-2.842-1.816-2.842-1.65,0-1.787,2.451Z" transform="translate(1215 4133)" fill="#12263f"/>
    <g id="Grupo_1014695" data-name="Grupo 1014695" transform="translate(0 -174)">
      <line id="Línea_3141" data-name="Línea 3141" x2="23.5" transform="translate(465 4312.5)" fill="none" stroke="#ffa031" stroke-width="10"/>
      <path id="Polígono_11" data-name="Polígono 11" d="M10.5,0,21,13H0Z" transform="translate(495 4302) rotate(90)" fill="#ffa031"/>
    </g>
    <g id="Grupo_1014697" data-name="Grupo 1014697" transform="translate(420 -174)">
      <line id="Línea_3141-2" data-name="Línea 3141" x2="23.5" transform="translate(465 4312.5)" fill="none" stroke="#ffa031" stroke-width="10"/>
      <path id="Polígono_11-2" data-name="Polígono 11" d="M10.5,0,21,13H0Z" transform="translate(495 4302) rotate(90)" fill="#ffa031"/>
    </g>
    <g id="Grupo_1014696" data-name="Grupo 1014696" transform="translate(210 -174)">
      <line id="Línea_3141-3" data-name="Línea 3141" x2="23.5" transform="translate(465 4312.5)" fill="none" stroke="#ffa031" stroke-width="10"/>
      <path id="Polígono_11-3" data-name="Polígono 11" d="M10.5,0,21,13H0Z" transform="translate(495 4302) rotate(90)" fill="#ffa031"/>
    </g>
    <g id="Grupo_1014698" data-name="Grupo 1014698" transform="translate(630 -174)">
      <line id="Línea_3141-4" data-name="Línea 3141" x2="23.5" transform="translate(465 4312.5)" fill="none" stroke="#ffa031" stroke-width="10"/>
      <path id="Polígono_11-4" data-name="Polígono 11" d="M10.5,0,21,13H0Z" transform="translate(495 4302) rotate(90)" fill="#ffa031"/>
    </g>
    <g id="Grupo_1014699" data-name="Grupo 1014699" transform="translate(5528 3713) rotate(90)">
      <line id="Línea_3141-5" data-name="Línea 3141" x2="23.5" transform="translate(465 4312.5)" fill="none" stroke="#ffa031" stroke-width="10"/>
      <path id="Polígono_11-5" data-name="Polígono 11" d="M10.5,0,21,13H0Z" transform="translate(495 4302) rotate(90)" fill="#ffa031"/>
    </g>
  </g>
</svg>
