<svg xmlns="http://www.w3.org/2000/svg" width="610.001" height="475.11" viewBox="0 0 610.001 475.11">
  <g id="Grupo_1015995" data-name="Grupo 1015995" transform="translate(-495 -7781)">
    <g id="Grupo_1013610" data-name="Grupo 1013610" transform="translate(382.098 7697.006)">
      <rect id="Rectángulo_350161" data-name="Rectángulo 350161" width="12.257" height="176.579" rx="5" transform="translate(406.361 378.193)" fill="#d5d5ed"/>
      <rect id="Rectángulo_350162" data-name="Rectángulo 350162" width="12.257" height="176.579" rx="5" transform="translate(485.421 400.038) rotate(-25.734)" fill="#d5d5ed"/>
      <rect id="Rectángulo_350163" data-name="Rectángulo 350163" width="12.257" height="176.579" rx="5" transform="translate(264.204 559.104) rotate(-154.266)" fill="#d5d5ed"/>
      <path id="Trazado_732196" data-name="Trazado 732196" d="M582.465,95.223q91.029-.061,182.059-.119c6.669,0,13.34-.056,20.008.022,7.081.082,9.248,1.636,9.3,6.966.116,12.057.059,24.114.059,36.17q-.008,119.556-.021,239.112c0,8.9-1.1,9.678-13.6,9.689q-92.03.083-184.062.158-99.689,0-199.378-.153-100.027-.042-200.055-.008c-11.463,0-12.862-.94-12.864-8.759q-.01-137.171.009-274.341c0-7.963,1.309-8.874,12.658-8.868q99.365.051,198.73.128Z" transform="translate(-71 18.694)" fill="#0076a1"/>
      <path id="Trazado_737829" data-name="Trazado 737829" d="M482.611,95.232l-140.271,0c.909-7.128.217-14.285.4-21.427.167-6.568,1.822-8.337,8.3-8.34q61.424-.025,122.845,0c6.48,0,8.126,1.778,8.293,8.346C482.364,80.949,481.646,88.108,482.611,95.232Z" transform="translate(-6.115 18.544)" fill="#02528a"/>
    </g>
    <path id="Trazado_737845" data-name="Trazado 737845" d="M10.494,14.825a4.971,4.971,0,0,1-1.8,3.195A5.394,5.394,0,0,1,5.1,19.176a4.247,4.247,0,0,1-2.14-.58,3.752,3.752,0,0,1-1.437-1.613,6.018,6.018,0,0,1-.58-2.4,12.959,12.959,0,0,1,.246-2.729,8.619,8.619,0,0,1,1.147-3.1A5.8,5.8,0,0,1,4.417,6.7a5.311,5.311,0,0,1,2.747-.668,4.087,4.087,0,0,1,3.019,1.2,4.708,4.708,0,0,1,1.182,3.212H9.211a3.153,3.153,0,0,0-.576-1.982A2.052,2.052,0,0,0,7.058,7.82a2.97,2.97,0,0,0-2.4,1.027,6.013,6.013,0,0,0-1.3,3.117l-.176,1.168-.079.9a5.3,5.3,0,0,0,.127,1.7,2.216,2.216,0,0,0,.7,1.212,2.038,2.038,0,0,0,1.274.443,2.931,2.931,0,0,0,3.146-2.54ZM17.279,19a2.821,2.821,0,0,1-.088-.888,3.526,3.526,0,0,1-2.54,1.063,2.913,2.913,0,0,1-2.052-.8,2.453,2.453,0,0,1-.76-1.973,2.912,2.912,0,0,1,1.3-2.364,5.663,5.663,0,0,1,3.3-.861L17.8,13.2l.123-.65a1.962,1.962,0,0,0,0-.642,1.145,1.145,0,0,0-1.257-.976,1.9,1.9,0,0,0-1.173.338,1.464,1.464,0,0,0-.62.954l-2.083.018a2.607,2.607,0,0,1,.624-1.542,3.7,3.7,0,0,1,1.494-1.033,5.059,5.059,0,0,1,1.969-.352,3.326,3.326,0,0,1,2.426.936,2.774,2.774,0,0,1,.721,2.333l-.729,4.456-.07.791a2.81,2.81,0,0,0,.132,1.011L19.345,19Zm-2.145-1.529a2.3,2.3,0,0,0,1.222-.3,3.219,3.219,0,0,0,.958-.831l.325-1.8-.993-.009a3.491,3.491,0,0,0-1.881.444,1.628,1.628,0,0,0-.8,1.217,1.076,1.076,0,0,0,.259.927A1.268,1.268,0,0,0,15.135,17.471Zm11.909.589a3.449,3.449,0,0,1-2.707,1.116,2.649,2.649,0,0,1-1.534-.457,2.377,2.377,0,0,1-.87-1.226,4.489,4.489,0,0,1-.154-1.85L22.808,9.49h2.083l-1.037,6.179a3.275,3.275,0,0,0-.009.633,1.069,1.069,0,0,0,1.1,1.134,2.515,2.515,0,0,0,2.232-1.107l1.2-6.838h2.083L28.811,19H26.859Zm4.368-3.823A7.534,7.534,0,0,1,32.2,11.6a4.464,4.464,0,0,1,1.521-1.745,3.512,3.512,0,0,1,2.013-.549A2.81,2.81,0,0,1,38,10.387L38.918,5.5H41.01L38.663,19H36.8l.141-.984a3.315,3.315,0,0,1-2.6,1.169,2.616,2.616,0,0,1-2.123-1.024,4.472,4.472,0,0,1-.857-2.676,7.106,7.106,0,0,1,.026-1.063Zm2.021.817a2.928,2.928,0,0,0,.338,1.731,1.351,1.351,0,0,0,1.191.659,2.447,2.447,0,0,0,2.083-1.169l.712-4.087a1.626,1.626,0,0,0-1.6-1.134,2.14,2.14,0,0,0-1.925,1.055A5.622,5.622,0,0,0,33.434,15.054ZM46.547,19a2.821,2.821,0,0,1-.088-.888,3.526,3.526,0,0,1-2.54,1.063,2.913,2.913,0,0,1-2.052-.8,2.453,2.453,0,0,1-.76-1.973,2.912,2.912,0,0,1,1.3-2.364,5.663,5.663,0,0,1,3.3-.861l1.354.018.123-.65a1.962,1.962,0,0,0,0-.642,1.145,1.145,0,0,0-1.257-.976,1.9,1.9,0,0,0-1.173.338,1.464,1.464,0,0,0-.62.954l-2.083.018A2.607,2.607,0,0,1,42.68,10.7a3.7,3.7,0,0,1,1.494-1.033,5.059,5.059,0,0,1,1.969-.352,3.326,3.326,0,0,1,2.426.936,2.774,2.774,0,0,1,.721,2.333L48.56,17.04l-.07.791a2.81,2.81,0,0,0,.132,1.011L48.612,19ZM44.4,17.471a2.3,2.3,0,0,0,1.222-.3,3.219,3.219,0,0,0,.958-.831l.325-1.8-.993-.009a3.491,3.491,0,0,0-1.881.444,1.628,1.628,0,0,0-.8,1.217,1.076,1.076,0,0,0,.259.927A1.268,1.268,0,0,0,44.4,17.471ZM52.646,19H50.563L52.91,5.5h2.083Zm10.512-2.733L66.164,9.49h2.224L63.7,19H61.893l-1.74-9.51h2.092Zm5.353-2.057a6.257,6.257,0,0,1,.822-2.54A4.877,4.877,0,0,1,71.06,9.9,4.268,4.268,0,0,1,73.4,9.314,3.532,3.532,0,0,1,76.8,11.7a5.5,5.5,0,0,1,.286,2.443,6.373,6.373,0,0,1-.822,2.672,4.858,4.858,0,0,1-1.74,1.78,4.329,4.329,0,0,1-2.351.584,3.527,3.527,0,0,1-3.393-2.369,5.427,5.427,0,0,1-.3-2.413Zm2.048,1.2a2.511,2.511,0,0,0,.488,1.481,1.561,1.561,0,0,0,1.235.584,2.191,2.191,0,0,0,1.8-.826,4.346,4.346,0,0,0,.91-2.329l.053-.861a3.043,3.043,0,0,0-.448-1.767,1.573,1.573,0,0,0-1.3-.677,2.277,2.277,0,0,0-2.109,1.31,4.892,4.892,0,0,0-.589,1.881A7.359,7.359,0,0,0,70.559,15.414ZM80.253,19H78.17L80.517,5.5H82.6Zm8.209-.94a3.449,3.449,0,0,1-2.707,1.116,2.649,2.649,0,0,1-1.534-.457,2.377,2.377,0,0,1-.87-1.226,4.489,4.489,0,0,1-.154-1.85L84.226,9.49h2.083l-1.037,6.179a3.275,3.275,0,0,0-.009.633,1.069,1.069,0,0,0,1.1,1.134,2.515,2.515,0,0,0,2.232-1.107l1.2-6.838h2.083L90.229,19H88.277Zm7.506-8.578-.185,1.011A3.667,3.667,0,0,1,98.6,9.314a2.73,2.73,0,0,1,1.49.413,1.955,1.955,0,0,1,.8,1.046,3.832,3.832,0,0,1,3.023-1.459,2.469,2.469,0,0,1,2.061.954,3.639,3.639,0,0,1,.505,2.571L105.451,19h-2.083l1.037-6.179a3.239,3.239,0,0,0,.009-.712,1.163,1.163,0,0,0-1.3-1.055,2.192,2.192,0,0,0-2.039,1.415l-.026.193L99.958,19H97.866L98.9,12.848a3.157,3.157,0,0,0,.009-.7,1.174,1.174,0,0,0-1.3-1.09A2.3,2.3,0,0,0,95.66,12.1l-1.2,6.9H92.373l1.644-9.51Zm16,9.694a3.984,3.984,0,0,1-2.149-.624,3.55,3.55,0,0,1-1.345-1.635,4.86,4.86,0,0,1-.33-2.312l.026-.36a6.365,6.365,0,0,1,.848-2.606,4.84,4.84,0,0,1,1.718-1.753,4.178,4.178,0,0,1,2.232-.571,3.115,3.115,0,0,1,2.676,1.329,4.879,4.879,0,0,1,.672,3.372l-.123.915h-5.985a2.583,2.583,0,0,0,.457,1.822,1.811,1.811,0,0,0,1.477.71,3.2,3.2,0,0,0,2.479-1.169l1.055,1.107a4.009,4.009,0,0,1-1.573,1.323A4.686,4.686,0,0,1,111.964,19.176Zm.888-8.156q-1.652-.053-2.479,2.338l3.946.009.035-.185a2.757,2.757,0,0,0,.009-.791,1.617,1.617,0,0,0-.492-.984A1.558,1.558,0,0,0,112.852,11.02Zm1.239-5.52h2.5l-2.777,2.663-1.811,0Zm7.69,1.679-.4,2.312H123l-.272,1.582H121.1l-.9,5.326a1.821,1.821,0,0,0-.009.4q.053.571.7.6a3.971,3.971,0,0,0,.738-.079l-.141,1.67a4.776,4.776,0,0,1-1.31.185,1.945,1.945,0,0,1-1.63-.743,2.688,2.688,0,0,1-.426-1.92l.888-5.432h-1.521l.281-1.582h1.512l.4-2.312Zm7.453,4.263a3.837,3.837,0,0,0-.817-.088,2.439,2.439,0,0,0-2.18,1.134L125.095,19h-2.083l1.644-9.51,1.978-.009-.211,1.081a2.721,2.721,0,0,1,2.25-1.266,3.419,3.419,0,0,1,.8.132ZM131.449,19h-2.083l1.652-9.51H133.1Zm-.132-11.944a1.175,1.175,0,0,1,.316-.826,1.159,1.159,0,0,1,.853-.36,1.108,1.108,0,0,1,.848.312,1.08,1.08,0,0,1,.338.8,1.111,1.111,0,0,1-.33.826,1.208,1.208,0,0,1-.839.343,1.127,1.127,0,0,1-.844-.3A1.045,1.045,0,0,1,131.317,7.056Zm6.609,10.424a2.037,2.037,0,0,0,2.057-1.617l1.969-.009a3.367,3.367,0,0,1-.681,1.714,3.96,3.96,0,0,1-1.5,1.2,4.158,4.158,0,0,1-1.907.4,3.582,3.582,0,0,1-2.083-.633,3.5,3.5,0,0,1-1.257-1.7,5.441,5.441,0,0,1-.264-2.421l.026-.308a6.223,6.223,0,0,1,.8-2.5,4.7,4.7,0,0,1,1.692-1.727,4.237,4.237,0,0,1,2.3-.571,3.327,3.327,0,0,1,2.47,1.024,3.617,3.617,0,0,1,.923,2.571h-1.951a2.125,2.125,0,0,0-.4-1.336,1.464,1.464,0,0,0-1.156-.554,2.11,2.11,0,0,0-1.925,1.037,5.79,5.79,0,0,0-.756,3.023Q136.23,17.444,137.927,17.479Zm5.581-3.27a6.257,6.257,0,0,1,.822-2.54A4.877,4.877,0,0,1,146.057,9.9a4.268,4.268,0,0,1,2.338-.589A3.532,3.532,0,0,1,151.8,11.7a5.5,5.5,0,0,1,.286,2.443,6.373,6.373,0,0,1-.822,2.672,4.858,4.858,0,0,1-1.74,1.78,4.329,4.329,0,0,1-2.351.584,3.527,3.527,0,0,1-3.393-2.369,5.427,5.427,0,0,1-.3-2.413Zm2.048,1.2a2.511,2.511,0,0,0,.488,1.481,1.561,1.561,0,0,0,1.235.584,2.191,2.191,0,0,0,1.8-.826,4.346,4.346,0,0,0,.91-2.329l.053-.861a3.043,3.043,0,0,0-.448-1.767,1.573,1.573,0,0,0-1.3-.677,2.277,2.277,0,0,0-2.109,1.31,4.892,4.892,0,0,0-.589,1.881A7.359,7.359,0,0,0,145.556,15.414Zm12.9-1.617A13.393,13.393,0,0,1,159,9.943a10.578,10.578,0,0,1,1.6-3.261,6.351,6.351,0,0,1,2.232-2.017l.422,1.248a6.524,6.524,0,0,0-2.008,2.87,12.852,12.852,0,0,0-.839,4.417l-.009.756a13.972,13.972,0,0,0,.751,4.75,7,7,0,0,0,2.1,3.177l-.422,1.187a6.362,6.362,0,0,1-2.237-2.026,10.577,10.577,0,0,1-1.6-3.261A13.921,13.921,0,0,1,158.458,13.8Zm13.4,4.447L173.689,20l-1.529,1.213-2.25-2.145a6.953,6.953,0,0,1-1.116.1,3.88,3.88,0,0,1-3.01-1.3,5.421,5.421,0,0,1-1.244-3.445,11.493,11.493,0,0,1,.207-2.544,8.807,8.807,0,0,1,.949-2.7,6.468,6.468,0,0,1,1.7-2.039,5.2,5.2,0,0,1,3.375-1.107,4.345,4.345,0,0,1,2.206.6A3.883,3.883,0,0,1,174.454,8.3a6.239,6.239,0,0,1,.6,2.474A9.319,9.319,0,0,1,175,12.285l-.105.765A7.21,7.21,0,0,1,171.861,18.244Zm.967-5.994.079-.932a5.5,5.5,0,0,0-.171-1.775,2.308,2.308,0,0,0-.751-1.23,2.177,2.177,0,0,0-1.327-.448A3.09,3.09,0,0,0,167.875,9.4a8.7,8.7,0,0,0-1.182,4.469,5.525,5.525,0,0,0,.176,1.793,2.372,2.372,0,0,0,.751,1.244,2.116,2.116,0,0,0,1.305.453,2.953,2.953,0,0,0,2.443-1.063,6.421,6.421,0,0,0,1.345-3.261Zm8.139,1.688a13.224,13.224,0,0,1-.536,3.766,10.671,10.671,0,0,1-1.626,3.3,6.367,6.367,0,0,1-2.276,2.061l-.422-1.187a6.754,6.754,0,0,0,2.087-3.116,13.84,13.84,0,0,0,.769-4.786v-.2a14.044,14.044,0,0,0-.668-4.452,7.852,7.852,0,0,0-1.916-3.221l-.272-.246.422-1.2a6.3,6.3,0,0,1,2.18,1.934,10.491,10.491,0,0,1,1.617,3.107,12.941,12.941,0,0,1,.633,3.546Zm14.467-1.775h-7.576V10.369h7.576Zm0,3.709h-7.576V14.1h7.576Z" transform="translate(550 7862.282)" fill="#fff"/>
    <path id="Trazado_737849" data-name="Trazado 737849" d="M10.494,14.825a4.971,4.971,0,0,1-1.8,3.195A5.394,5.394,0,0,1,5.1,19.176a4.247,4.247,0,0,1-2.14-.58,3.752,3.752,0,0,1-1.437-1.613,6.018,6.018,0,0,1-.58-2.4,12.959,12.959,0,0,1,.246-2.729,8.619,8.619,0,0,1,1.147-3.1A5.8,5.8,0,0,1,4.417,6.7a5.311,5.311,0,0,1,2.747-.668,4.087,4.087,0,0,1,3.019,1.2,4.708,4.708,0,0,1,1.182,3.212H9.211a3.153,3.153,0,0,0-.576-1.982A2.052,2.052,0,0,0,7.058,7.82a2.97,2.97,0,0,0-2.4,1.027,6.013,6.013,0,0,0-1.3,3.117l-.176,1.168-.079.9a5.3,5.3,0,0,0,.127,1.7,2.216,2.216,0,0,0,.7,1.212,2.038,2.038,0,0,0,1.274.443,2.931,2.931,0,0,0,3.146-2.54ZM17.279,19a2.821,2.821,0,0,1-.088-.888,3.526,3.526,0,0,1-2.54,1.063,2.913,2.913,0,0,1-2.052-.8,2.453,2.453,0,0,1-.76-1.973,2.912,2.912,0,0,1,1.3-2.364,5.663,5.663,0,0,1,3.3-.861L17.8,13.2l.123-.65a1.962,1.962,0,0,0,0-.642,1.145,1.145,0,0,0-1.257-.976,1.9,1.9,0,0,0-1.173.338,1.464,1.464,0,0,0-.62.954l-2.083.018a2.607,2.607,0,0,1,.624-1.542,3.7,3.7,0,0,1,1.494-1.033,5.059,5.059,0,0,1,1.969-.352,3.326,3.326,0,0,1,2.426.936,2.774,2.774,0,0,1,.721,2.333l-.729,4.456-.07.791a2.81,2.81,0,0,0,.132,1.011L19.345,19Zm-2.145-1.529a2.3,2.3,0,0,0,1.222-.3,3.219,3.219,0,0,0,.958-.831l.325-1.8-.993-.009a3.491,3.491,0,0,0-1.881.444,1.628,1.628,0,0,0-.8,1.217,1.076,1.076,0,0,0,.259.927A1.268,1.268,0,0,0,15.135,17.471Zm11.909.589a3.449,3.449,0,0,1-2.707,1.116,2.649,2.649,0,0,1-1.534-.457,2.377,2.377,0,0,1-.87-1.226,4.489,4.489,0,0,1-.154-1.85L22.808,9.49h2.083l-1.037,6.179a3.275,3.275,0,0,0-.009.633,1.069,1.069,0,0,0,1.1,1.134,2.515,2.515,0,0,0,2.232-1.107l1.2-6.838h2.083L28.811,19H26.859Zm4.368-3.823A7.534,7.534,0,0,1,32.2,11.6a4.464,4.464,0,0,1,1.521-1.745,3.512,3.512,0,0,1,2.013-.549A2.81,2.81,0,0,1,38,10.387L38.918,5.5H41.01L38.663,19H36.8l.141-.984a3.315,3.315,0,0,1-2.6,1.169,2.616,2.616,0,0,1-2.123-1.024,4.472,4.472,0,0,1-.857-2.676,7.106,7.106,0,0,1,.026-1.063Zm2.021.817a2.928,2.928,0,0,0,.338,1.731,1.351,1.351,0,0,0,1.191.659,2.447,2.447,0,0,0,2.083-1.169l.712-4.087a1.626,1.626,0,0,0-1.6-1.134,2.14,2.14,0,0,0-1.925,1.055A5.622,5.622,0,0,0,33.434,15.054ZM46.547,19a2.821,2.821,0,0,1-.088-.888,3.526,3.526,0,0,1-2.54,1.063,2.913,2.913,0,0,1-2.052-.8,2.453,2.453,0,0,1-.76-1.973,2.912,2.912,0,0,1,1.3-2.364,5.663,5.663,0,0,1,3.3-.861l1.354.018.123-.65a1.962,1.962,0,0,0,0-.642,1.145,1.145,0,0,0-1.257-.976,1.9,1.9,0,0,0-1.173.338,1.464,1.464,0,0,0-.62.954l-2.083.018A2.607,2.607,0,0,1,42.68,10.7a3.7,3.7,0,0,1,1.494-1.033,5.059,5.059,0,0,1,1.969-.352,3.326,3.326,0,0,1,2.426.936,2.774,2.774,0,0,1,.721,2.333L48.56,17.04l-.07.791a2.81,2.81,0,0,0,.132,1.011L48.612,19ZM44.4,17.471a2.3,2.3,0,0,0,1.222-.3,3.219,3.219,0,0,0,.958-.831l.325-1.8-.993-.009a3.491,3.491,0,0,0-1.881.444,1.628,1.628,0,0,0-.8,1.217,1.076,1.076,0,0,0,.259.927A1.268,1.268,0,0,0,44.4,17.471ZM52.646,19H50.563L52.91,5.5h2.083Zm10.512-2.733L66.164,9.49h2.224L63.7,19H61.893l-1.74-9.51h2.092Zm5.353-2.057a6.257,6.257,0,0,1,.822-2.54A4.877,4.877,0,0,1,71.06,9.9,4.268,4.268,0,0,1,73.4,9.314,3.532,3.532,0,0,1,76.8,11.7a5.5,5.5,0,0,1,.286,2.443,6.373,6.373,0,0,1-.822,2.672,4.858,4.858,0,0,1-1.74,1.78,4.329,4.329,0,0,1-2.351.584,3.527,3.527,0,0,1-3.393-2.369,5.427,5.427,0,0,1-.3-2.413Zm2.048,1.2a2.511,2.511,0,0,0,.488,1.481,1.561,1.561,0,0,0,1.235.584,2.191,2.191,0,0,0,1.8-.826,4.346,4.346,0,0,0,.91-2.329l.053-.861a3.043,3.043,0,0,0-.448-1.767,1.573,1.573,0,0,0-1.3-.677,2.277,2.277,0,0,0-2.109,1.31,4.892,4.892,0,0,0-.589,1.881A7.359,7.359,0,0,0,70.559,15.414ZM80.253,19H78.17L80.517,5.5H82.6Zm8.209-.94a3.449,3.449,0,0,1-2.707,1.116,2.649,2.649,0,0,1-1.534-.457,2.377,2.377,0,0,1-.87-1.226,4.489,4.489,0,0,1-.154-1.85L84.226,9.49h2.083l-1.037,6.179a3.275,3.275,0,0,0-.009.633,1.069,1.069,0,0,0,1.1,1.134,2.515,2.515,0,0,0,2.232-1.107l1.2-6.838h2.083L90.229,19H88.277Zm7.506-8.578-.185,1.011A3.667,3.667,0,0,1,98.6,9.314a2.73,2.73,0,0,1,1.49.413,1.955,1.955,0,0,1,.8,1.046,3.832,3.832,0,0,1,3.023-1.459,2.469,2.469,0,0,1,2.061.954,3.639,3.639,0,0,1,.505,2.571L105.451,19h-2.083l1.037-6.179a3.239,3.239,0,0,0,.009-.712,1.163,1.163,0,0,0-1.3-1.055,2.192,2.192,0,0,0-2.039,1.415l-.026.193L99.958,19H97.866L98.9,12.848a3.157,3.157,0,0,0,.009-.7,1.174,1.174,0,0,0-1.3-1.09A2.3,2.3,0,0,0,95.66,12.1l-1.2,6.9H92.373l1.644-9.51Zm16,9.694a3.984,3.984,0,0,1-2.149-.624,3.55,3.55,0,0,1-1.345-1.635,4.86,4.86,0,0,1-.33-2.312l.026-.36a6.365,6.365,0,0,1,.848-2.606,4.84,4.84,0,0,1,1.718-1.753,4.178,4.178,0,0,1,2.232-.571,3.115,3.115,0,0,1,2.676,1.329,4.879,4.879,0,0,1,.672,3.372l-.123.915h-5.985a2.583,2.583,0,0,0,.457,1.822,1.811,1.811,0,0,0,1.477.71,3.2,3.2,0,0,0,2.479-1.169l1.055,1.107a4.009,4.009,0,0,1-1.573,1.323A4.686,4.686,0,0,1,111.964,19.176Zm.888-8.156q-1.652-.053-2.479,2.338l3.946.009.035-.185a2.757,2.757,0,0,0,.009-.791,1.617,1.617,0,0,0-.492-.984A1.558,1.558,0,0,0,112.852,11.02Zm1.239-5.52h2.5l-2.777,2.663-1.811,0Zm7.69,1.679-.4,2.312H123l-.272,1.582H121.1l-.9,5.326a1.821,1.821,0,0,0-.009.4q.053.571.7.6a3.971,3.971,0,0,0,.738-.079l-.141,1.67a4.776,4.776,0,0,1-1.31.185,1.945,1.945,0,0,1-1.63-.743,2.688,2.688,0,0,1-.426-1.92l.888-5.432h-1.521l.281-1.582h1.512l.4-2.312Zm7.453,4.263a3.837,3.837,0,0,0-.817-.088,2.439,2.439,0,0,0-2.18,1.134L125.095,19h-2.083l1.644-9.51,1.978-.009-.211,1.081a2.721,2.721,0,0,1,2.25-1.266,3.419,3.419,0,0,1,.8.132ZM131.449,19h-2.083l1.652-9.51H133.1Zm-.132-11.944a1.175,1.175,0,0,1,.316-.826,1.159,1.159,0,0,1,.853-.36,1.108,1.108,0,0,1,.848.312,1.08,1.08,0,0,1,.338.8,1.111,1.111,0,0,1-.33.826,1.208,1.208,0,0,1-.839.343,1.127,1.127,0,0,1-.844-.3A1.045,1.045,0,0,1,131.317,7.056Zm6.609,10.424a2.037,2.037,0,0,0,2.057-1.617l1.969-.009a3.367,3.367,0,0,1-.681,1.714,3.96,3.96,0,0,1-1.5,1.2,4.158,4.158,0,0,1-1.907.4,3.582,3.582,0,0,1-2.083-.633,3.5,3.5,0,0,1-1.257-1.7,5.441,5.441,0,0,1-.264-2.421l.026-.308a6.223,6.223,0,0,1,.8-2.5,4.7,4.7,0,0,1,1.692-1.727,4.237,4.237,0,0,1,2.3-.571,3.327,3.327,0,0,1,2.47,1.024,3.617,3.617,0,0,1,.923,2.571h-1.951a2.125,2.125,0,0,0-.4-1.336,1.464,1.464,0,0,0-1.156-.554,2.11,2.11,0,0,0-1.925,1.037,5.79,5.79,0,0,0-.756,3.023Q136.23,17.444,137.927,17.479Zm5.581-3.27a6.257,6.257,0,0,1,.822-2.54A4.877,4.877,0,0,1,146.057,9.9a4.268,4.268,0,0,1,2.338-.589A3.532,3.532,0,0,1,151.8,11.7a5.5,5.5,0,0,1,.286,2.443,6.373,6.373,0,0,1-.822,2.672,4.858,4.858,0,0,1-1.74,1.78,4.329,4.329,0,0,1-2.351.584,3.527,3.527,0,0,1-3.393-2.369,5.427,5.427,0,0,1-.3-2.413Zm2.048,1.2a2.511,2.511,0,0,0,.488,1.481,1.561,1.561,0,0,0,1.235.584,2.191,2.191,0,0,0,1.8-.826,4.346,4.346,0,0,0,.91-2.329l.053-.861a3.043,3.043,0,0,0-.448-1.767,1.573,1.573,0,0,0-1.3-.677,2.277,2.277,0,0,0-2.109,1.31,4.892,4.892,0,0,0-.589,1.881A7.359,7.359,0,0,0,145.556,15.414Zm12.9-1.617A13.393,13.393,0,0,1,159,9.943a10.578,10.578,0,0,1,1.6-3.261,6.351,6.351,0,0,1,2.232-2.017l.422,1.248a6.524,6.524,0,0,0-2.008,2.87,12.852,12.852,0,0,0-.839,4.417l-.009.756a13.972,13.972,0,0,0,.751,4.75,7,7,0,0,0,2.1,3.177l-.422,1.187a6.362,6.362,0,0,1-2.237-2.026,10.577,10.577,0,0,1-1.6-3.261A13.921,13.921,0,0,1,158.458,13.8Zm13.4,4.447L173.689,20l-1.529,1.213-2.25-2.145a6.953,6.953,0,0,1-1.116.1,3.88,3.88,0,0,1-3.01-1.3,5.421,5.421,0,0,1-1.244-3.445,11.493,11.493,0,0,1,.207-2.544,8.807,8.807,0,0,1,.949-2.7,6.468,6.468,0,0,1,1.7-2.039,5.2,5.2,0,0,1,3.375-1.107,4.345,4.345,0,0,1,2.206.6A3.883,3.883,0,0,1,174.454,8.3a6.239,6.239,0,0,1,.6,2.474A9.319,9.319,0,0,1,175,12.285l-.105.765A7.21,7.21,0,0,1,171.861,18.244Zm.967-5.994.079-.932a5.5,5.5,0,0,0-.171-1.775,2.308,2.308,0,0,0-.751-1.23,2.177,2.177,0,0,0-1.327-.448A3.09,3.09,0,0,0,167.875,9.4a8.7,8.7,0,0,0-1.182,4.469,5.525,5.525,0,0,0,.176,1.793,2.372,2.372,0,0,0,.751,1.244,2.116,2.116,0,0,0,1.305.453,2.953,2.953,0,0,0,2.443-1.063,6.421,6.421,0,0,0,1.345-3.261Zm8.139,1.688a13.224,13.224,0,0,1-.536,3.766,10.671,10.671,0,0,1-1.626,3.3,6.367,6.367,0,0,1-2.276,2.061l-.422-1.187a6.754,6.754,0,0,0,2.087-3.116,13.84,13.84,0,0,0,.769-4.786v-.2a14.044,14.044,0,0,0-.668-4.452,7.852,7.852,0,0,0-1.916-3.221l-.272-.246.422-1.2a6.3,6.3,0,0,1,2.18,1.934,10.491,10.491,0,0,1,1.617,3.107,12.941,12.941,0,0,1,.633,3.546Zm14.467-1.775h-7.576V10.369h7.576Zm0,3.709h-7.576V14.1h7.576Z" transform="translate(550 7940.782)" fill="#fff"/>
    <path id="Trazado_737850" data-name="Trazado 737850" d="M4.491,12.6,6.732,9.49H9.167L5.528,14.271,7.646,19H5.467L4.14,15.757,1.8,19H-.624l3.753-4.922L1.081,9.49h2.18Z" transform="translate(851 7940.782)" fill="#fff"/>
    <path id="Trazado_737851" data-name="Trazado 737851" d="M4.491,12.6,6.732,9.49H9.167L5.528,14.271,7.646,19H5.467L4.14,15.757,1.8,19H-.624l3.753-4.922L1.081,9.49h2.18Z" transform="translate(960 7940.782)" fill="#fff"/>
    <path id="Trazado_737860" data-name="Trazado 737860" d="M10.494,14.825a4.971,4.971,0,0,1-1.8,3.195A5.394,5.394,0,0,1,5.1,19.176a4.247,4.247,0,0,1-2.14-.58,3.752,3.752,0,0,1-1.437-1.613,6.018,6.018,0,0,1-.58-2.4,12.959,12.959,0,0,1,.246-2.729,8.619,8.619,0,0,1,1.147-3.1A5.8,5.8,0,0,1,4.417,6.7a5.311,5.311,0,0,1,2.747-.668,4.087,4.087,0,0,1,3.019,1.2,4.708,4.708,0,0,1,1.182,3.212H9.211a3.153,3.153,0,0,0-.576-1.982A2.052,2.052,0,0,0,7.058,7.82a2.97,2.97,0,0,0-2.4,1.027,6.013,6.013,0,0,0-1.3,3.117l-.176,1.168-.079.9a5.3,5.3,0,0,0,.127,1.7,2.216,2.216,0,0,0,.7,1.212,2.038,2.038,0,0,0,1.274.443,2.931,2.931,0,0,0,3.146-2.54ZM17.279,19a2.821,2.821,0,0,1-.088-.888,3.526,3.526,0,0,1-2.54,1.063,2.913,2.913,0,0,1-2.052-.8,2.453,2.453,0,0,1-.76-1.973,2.912,2.912,0,0,1,1.3-2.364,5.663,5.663,0,0,1,3.3-.861L17.8,13.2l.123-.65a1.962,1.962,0,0,0,0-.642,1.145,1.145,0,0,0-1.257-.976,1.9,1.9,0,0,0-1.173.338,1.464,1.464,0,0,0-.62.954l-2.083.018a2.607,2.607,0,0,1,.624-1.542,3.7,3.7,0,0,1,1.494-1.033,5.059,5.059,0,0,1,1.969-.352,3.326,3.326,0,0,1,2.426.936,2.774,2.774,0,0,1,.721,2.333l-.729,4.456-.07.791a2.81,2.81,0,0,0,.132,1.011L19.345,19Zm-2.145-1.529a2.3,2.3,0,0,0,1.222-.3,3.219,3.219,0,0,0,.958-.831l.325-1.8-.993-.009a3.491,3.491,0,0,0-1.881.444,1.628,1.628,0,0,0-.8,1.217,1.076,1.076,0,0,0,.259.927A1.268,1.268,0,0,0,15.135,17.471Zm11.909.589a3.449,3.449,0,0,1-2.707,1.116,2.649,2.649,0,0,1-1.534-.457,2.377,2.377,0,0,1-.87-1.226,4.489,4.489,0,0,1-.154-1.85L22.808,9.49h2.083l-1.037,6.179a3.275,3.275,0,0,0-.009.633,1.069,1.069,0,0,0,1.1,1.134,2.515,2.515,0,0,0,2.232-1.107l1.2-6.838h2.083L28.811,19H26.859Zm4.368-3.823A7.534,7.534,0,0,1,32.2,11.6a4.464,4.464,0,0,1,1.521-1.745,3.512,3.512,0,0,1,2.013-.549A2.81,2.81,0,0,1,38,10.387L38.918,5.5H41.01L38.663,19H36.8l.141-.984a3.315,3.315,0,0,1-2.6,1.169,2.616,2.616,0,0,1-2.123-1.024,4.472,4.472,0,0,1-.857-2.676,7.106,7.106,0,0,1,.026-1.063Zm2.021.817a2.928,2.928,0,0,0,.338,1.731,1.351,1.351,0,0,0,1.191.659,2.447,2.447,0,0,0,2.083-1.169l.712-4.087a1.626,1.626,0,0,0-1.6-1.134,2.14,2.14,0,0,0-1.925,1.055A5.622,5.622,0,0,0,33.434,15.054ZM46.547,19a2.821,2.821,0,0,1-.088-.888,3.526,3.526,0,0,1-2.54,1.063,2.913,2.913,0,0,1-2.052-.8,2.453,2.453,0,0,1-.76-1.973,2.912,2.912,0,0,1,1.3-2.364,5.663,5.663,0,0,1,3.3-.861l1.354.018.123-.65a1.962,1.962,0,0,0,0-.642,1.145,1.145,0,0,0-1.257-.976,1.9,1.9,0,0,0-1.173.338,1.464,1.464,0,0,0-.62.954l-2.083.018A2.607,2.607,0,0,1,42.68,10.7a3.7,3.7,0,0,1,1.494-1.033,5.059,5.059,0,0,1,1.969-.352,3.326,3.326,0,0,1,2.426.936,2.774,2.774,0,0,1,.721,2.333L48.56,17.04l-.07.791a2.81,2.81,0,0,0,.132,1.011L48.612,19ZM44.4,17.471a2.3,2.3,0,0,0,1.222-.3,3.219,3.219,0,0,0,.958-.831l.325-1.8-.993-.009a3.491,3.491,0,0,0-1.881.444,1.628,1.628,0,0,0-.8,1.217,1.076,1.076,0,0,0,.259.927A1.268,1.268,0,0,0,44.4,17.471ZM52.646,19H50.563L52.91,5.5h2.083Zm10.512-2.733L66.164,9.49h2.224L63.7,19H61.893l-1.74-9.51h2.092Zm5.353-2.057a6.257,6.257,0,0,1,.822-2.54A4.877,4.877,0,0,1,71.06,9.9,4.268,4.268,0,0,1,73.4,9.314,3.532,3.532,0,0,1,76.8,11.7a5.5,5.5,0,0,1,.286,2.443,6.373,6.373,0,0,1-.822,2.672,4.858,4.858,0,0,1-1.74,1.78,4.329,4.329,0,0,1-2.351.584,3.527,3.527,0,0,1-3.393-2.369,5.427,5.427,0,0,1-.3-2.413Zm2.048,1.2a2.511,2.511,0,0,0,.488,1.481,1.561,1.561,0,0,0,1.235.584,2.191,2.191,0,0,0,1.8-.826,4.346,4.346,0,0,0,.91-2.329l.053-.861a3.043,3.043,0,0,0-.448-1.767,1.573,1.573,0,0,0-1.3-.677,2.277,2.277,0,0,0-2.109,1.31,4.892,4.892,0,0,0-.589,1.881A7.359,7.359,0,0,0,70.559,15.414ZM80.253,19H78.17L80.517,5.5H82.6Zm8.209-.94a3.449,3.449,0,0,1-2.707,1.116,2.649,2.649,0,0,1-1.534-.457,2.377,2.377,0,0,1-.87-1.226,4.489,4.489,0,0,1-.154-1.85L84.226,9.49h2.083l-1.037,6.179a3.275,3.275,0,0,0-.009.633,1.069,1.069,0,0,0,1.1,1.134,2.515,2.515,0,0,0,2.232-1.107l1.2-6.838h2.083L90.229,19H88.277Zm7.506-8.578-.185,1.011A3.667,3.667,0,0,1,98.6,9.314a2.73,2.73,0,0,1,1.49.413,1.955,1.955,0,0,1,.8,1.046,3.832,3.832,0,0,1,3.023-1.459,2.469,2.469,0,0,1,2.061.954,3.639,3.639,0,0,1,.505,2.571L105.451,19h-2.083l1.037-6.179a3.239,3.239,0,0,0,.009-.712,1.163,1.163,0,0,0-1.3-1.055,2.192,2.192,0,0,0-2.039,1.415l-.026.193L99.958,19H97.866L98.9,12.848a3.157,3.157,0,0,0,.009-.7,1.174,1.174,0,0,0-1.3-1.09A2.3,2.3,0,0,0,95.66,12.1l-1.2,6.9H92.373l1.644-9.51Zm16,9.694a3.984,3.984,0,0,1-2.149-.624,3.55,3.55,0,0,1-1.345-1.635,4.86,4.86,0,0,1-.33-2.312l.026-.36a6.365,6.365,0,0,1,.848-2.606,4.84,4.84,0,0,1,1.718-1.753,4.178,4.178,0,0,1,2.232-.571,3.115,3.115,0,0,1,2.676,1.329,4.879,4.879,0,0,1,.672,3.372l-.123.915h-5.985a2.583,2.583,0,0,0,.457,1.822,1.811,1.811,0,0,0,1.477.71,3.2,3.2,0,0,0,2.479-1.169l1.055,1.107a4.009,4.009,0,0,1-1.573,1.323A4.686,4.686,0,0,1,111.964,19.176Zm.888-8.156q-1.652-.053-2.479,2.338l3.946.009.035-.185a2.757,2.757,0,0,0,.009-.791,1.617,1.617,0,0,0-.492-.984A1.558,1.558,0,0,0,112.852,11.02Zm1.239-5.52h2.5l-2.777,2.663-1.811,0Zm7.69,1.679-.4,2.312H123l-.272,1.582H121.1l-.9,5.326a1.821,1.821,0,0,0-.009.4q.053.571.7.6a3.971,3.971,0,0,0,.738-.079l-.141,1.67a4.776,4.776,0,0,1-1.31.185,1.945,1.945,0,0,1-1.63-.743,2.688,2.688,0,0,1-.426-1.92l.888-5.432h-1.521l.281-1.582h1.512l.4-2.312Zm7.453,4.263a3.837,3.837,0,0,0-.817-.088,2.439,2.439,0,0,0-2.18,1.134L125.095,19h-2.083l1.644-9.51,1.978-.009-.211,1.081a2.721,2.721,0,0,1,2.25-1.266,3.419,3.419,0,0,1,.8.132ZM131.449,19h-2.083l1.652-9.51H133.1Zm-.132-11.944a1.175,1.175,0,0,1,.316-.826,1.159,1.159,0,0,1,.853-.36,1.108,1.108,0,0,1,.848.312,1.08,1.08,0,0,1,.338.8,1.111,1.111,0,0,1-.33.826,1.208,1.208,0,0,1-.839.343,1.127,1.127,0,0,1-.844-.3A1.045,1.045,0,0,1,131.317,7.056Zm6.609,10.424a2.037,2.037,0,0,0,2.057-1.617l1.969-.009a3.367,3.367,0,0,1-.681,1.714,3.96,3.96,0,0,1-1.5,1.2,4.158,4.158,0,0,1-1.907.4,3.582,3.582,0,0,1-2.083-.633,3.5,3.5,0,0,1-1.257-1.7,5.441,5.441,0,0,1-.264-2.421l.026-.308a6.223,6.223,0,0,1,.8-2.5,4.7,4.7,0,0,1,1.692-1.727,4.237,4.237,0,0,1,2.3-.571,3.327,3.327,0,0,1,2.47,1.024,3.617,3.617,0,0,1,.923,2.571h-1.951a2.125,2.125,0,0,0-.4-1.336,1.464,1.464,0,0,0-1.156-.554,2.11,2.11,0,0,0-1.925,1.037,5.79,5.79,0,0,0-.756,3.023Q136.23,17.444,137.927,17.479Zm5.581-3.27a6.257,6.257,0,0,1,.822-2.54A4.877,4.877,0,0,1,146.057,9.9a4.268,4.268,0,0,1,2.338-.589A3.532,3.532,0,0,1,151.8,11.7a5.5,5.5,0,0,1,.286,2.443,6.373,6.373,0,0,1-.822,2.672,4.858,4.858,0,0,1-1.74,1.78,4.329,4.329,0,0,1-2.351.584,3.527,3.527,0,0,1-3.393-2.369,5.427,5.427,0,0,1-.3-2.413Zm2.048,1.2a2.511,2.511,0,0,0,.488,1.481,1.561,1.561,0,0,0,1.235.584,2.191,2.191,0,0,0,1.8-.826,4.346,4.346,0,0,0,.91-2.329l.053-.861a3.043,3.043,0,0,0-.448-1.767,1.573,1.573,0,0,0-1.3-.677,2.277,2.277,0,0,0-2.109,1.31,4.892,4.892,0,0,0-.589,1.881A7.359,7.359,0,0,0,145.556,15.414Zm12.9-1.617A13.393,13.393,0,0,1,159,9.943a10.578,10.578,0,0,1,1.6-3.261,6.351,6.351,0,0,1,2.232-2.017l.422,1.248a6.524,6.524,0,0,0-2.008,2.87,12.852,12.852,0,0,0-.839,4.417l-.009.756a13.972,13.972,0,0,0,.751,4.75,7,7,0,0,0,2.1,3.177l-.422,1.187a6.362,6.362,0,0,1-2.237-2.026,10.577,10.577,0,0,1-1.6-3.261A13.921,13.921,0,0,1,158.458,13.8Zm13.4,4.447L173.689,20l-1.529,1.213-2.25-2.145a6.953,6.953,0,0,1-1.116.1,3.88,3.88,0,0,1-3.01-1.3,5.421,5.421,0,0,1-1.244-3.445,11.493,11.493,0,0,1,.207-2.544,8.807,8.807,0,0,1,.949-2.7,6.468,6.468,0,0,1,1.7-2.039,5.2,5.2,0,0,1,3.375-1.107,4.345,4.345,0,0,1,2.206.6A3.883,3.883,0,0,1,174.454,8.3a6.239,6.239,0,0,1,.6,2.474A9.319,9.319,0,0,1,175,12.285l-.105.765A7.21,7.21,0,0,1,171.861,18.244Zm.967-5.994.079-.932a5.5,5.5,0,0,0-.171-1.775,2.308,2.308,0,0,0-.751-1.23,2.177,2.177,0,0,0-1.327-.448A3.09,3.09,0,0,0,167.875,9.4a8.7,8.7,0,0,0-1.182,4.469,5.525,5.525,0,0,0,.176,1.793,2.372,2.372,0,0,0,.751,1.244,2.116,2.116,0,0,0,1.305.453,2.953,2.953,0,0,0,2.443-1.063,6.421,6.421,0,0,0,1.345-3.261Zm8.139,1.688a13.224,13.224,0,0,1-.536,3.766,10.671,10.671,0,0,1-1.626,3.3,6.367,6.367,0,0,1-2.276,2.061l-.422-1.187a6.754,6.754,0,0,0,2.087-3.116,13.84,13.84,0,0,0,.769-4.786v-.2a14.044,14.044,0,0,0-.668-4.452,7.852,7.852,0,0,0-1.916-3.221l-.272-.246.422-1.2a6.3,6.3,0,0,1,2.18,1.934,10.491,10.491,0,0,1,1.617,3.107,12.941,12.941,0,0,1,.633,3.546Zm14.467-1.775h-7.576V10.369h7.576Zm0,3.709h-7.576V14.1h7.576Z" transform="translate(550 8019.282)" fill="#fff"/>
    <path id="Trazado_737843" data-name="Trazado 737843" d="M4.808-11.821,4.4-9.51H6.029L5.757-7.928H4.122L3.226-2.6a1.821,1.821,0,0,0-.009.4q.053.571.7.6a3.971,3.971,0,0,0,.738-.079L4.518-.018a4.776,4.776,0,0,1-1.31.185,1.945,1.945,0,0,1-1.63-.743A2.688,2.688,0,0,1,1.151-2.5l.888-5.432H.519L.8-9.51H2.312l.4-2.312Z" transform="translate(799 7890.782)" fill="#fff"/>
    <path id="Trazado_737852" data-name="Trazado 737852" d="M9.563,0H.958V-1.468L5.221-6.117A10.615,10.615,0,0,0,6.535-7.835,2.784,2.784,0,0,0,6.926-9.22,2.1,2.1,0,0,0,6.412-10.7a1.783,1.783,0,0,0-1.384-.562,2.056,2.056,0,0,0-1.608.633,2.489,2.489,0,0,0-.571,1.731H.712A4.186,4.186,0,0,1,1.244-11a3.662,3.662,0,0,1,1.521-1.455,4.84,4.84,0,0,1,2.281-.519,4.329,4.329,0,0,1,2.94.936A3.249,3.249,0,0,1,9.062-9.448,4.392,4.392,0,0,1,8.521-7.44,11.42,11.42,0,0,1,6.75-5.054L3.621-1.705H9.563ZM18.4-9.519,18.22-8.508a3.667,3.667,0,0,1,2.813-1.178,2.73,2.73,0,0,1,1.49.413,1.955,1.955,0,0,1,.8,1.046A3.832,3.832,0,0,1,26.35-9.686a2.469,2.469,0,0,1,2.061.954,3.639,3.639,0,0,1,.505,2.571L27.888,0H25.8l1.037-6.179a3.239,3.239,0,0,0,.009-.712,1.163,1.163,0,0,0-1.3-1.055A2.192,2.192,0,0,0,23.511-6.53l-.026.193L22.395,0H20.3L21.34-6.152a3.157,3.157,0,0,0,.009-.7,1.174,1.174,0,0,0-1.3-1.09A2.3,2.3,0,0,0,18.1-6.9L16.893,0H14.81l1.644-9.51ZM32.309,0H30.226l1.652-9.51h2.083Zm-.132-11.944a1.175,1.175,0,0,1,.316-.826,1.159,1.159,0,0,1,.853-.36,1.108,1.108,0,0,1,.848.312,1.08,1.08,0,0,1,.338.8,1.111,1.111,0,0,1-.33.826,1.208,1.208,0,0,1-.839.343,1.127,1.127,0,0,1-.844-.3A1.045,1.045,0,0,1,32.177-11.944Zm6.038,2.426L38-8.4a3.629,3.629,0,0,1,2.821-1.283,2.3,2.3,0,0,1,1.978.954,3.806,3.806,0,0,1,.475,2.588L42.249,0H40.166L41.2-6.17a3.157,3.157,0,0,0,.009-.7,1.121,1.121,0,0,0-1.248-1.072,2.532,2.532,0,0,0-2.083,1.169L36.694,0H34.611l1.644-9.51ZM50.317-.94A3.449,3.449,0,0,1,47.61.176a2.649,2.649,0,0,1-1.534-.457,2.377,2.377,0,0,1-.87-1.226,4.489,4.489,0,0,1-.154-1.85L46.081-9.51h2.083L47.127-3.331a3.275,3.275,0,0,0-.009.633,1.069,1.069,0,0,0,1.1,1.134,2.515,2.515,0,0,0,2.232-1.107l1.2-6.838h2.083L52.084,0H50.133ZM58.9-11.821l-.4,2.312h1.626l-.272,1.582H58.21l-.9,5.326a1.821,1.821,0,0,0-.009.4q.053.571.7.6a3.971,3.971,0,0,0,.738-.079l-.141,1.67A4.776,4.776,0,0,1,57.3.167a1.945,1.945,0,0,1-1.63-.743,2.688,2.688,0,0,1-.426-1.92l.888-5.432H54.606l.281-1.582H56.4l.4-2.312ZM60.363-4.79a6.257,6.257,0,0,1,.822-2.54A4.877,4.877,0,0,1,62.912-9.1a4.268,4.268,0,0,1,2.338-.589,3.632,3.632,0,0,1,2.109.65,3.612,3.612,0,0,1,1.3,1.731,5.5,5.5,0,0,1,.286,2.443,6.373,6.373,0,0,1-.822,2.672,4.858,4.858,0,0,1-1.74,1.78,4.329,4.329,0,0,1-2.351.584,3.615,3.615,0,0,1-2.1-.646,3.624,3.624,0,0,1-1.3-1.723,5.427,5.427,0,0,1-.3-2.413Zm2.048,1.2A2.511,2.511,0,0,0,62.9-2.1a1.561,1.561,0,0,0,1.235.584,2.191,2.191,0,0,0,1.8-.826,4.346,4.346,0,0,0,.91-2.329l.053-.861A3.043,3.043,0,0,0,66.445-7.3a1.573,1.573,0,0,0-1.3-.677,2.277,2.277,0,0,0-2.109,1.31,4.892,4.892,0,0,0-.589,1.881A7.359,7.359,0,0,0,62.411-3.586Zm13.166.949q.149-.87-1.129-1.208A14.359,14.359,0,0,1,72.7-4.386a2.4,2.4,0,0,1-1.749-2.355,2.675,2.675,0,0,1,1.165-2.123A4.268,4.268,0,0,1,74.8-9.686a3.674,3.674,0,0,1,2.465.853,2.719,2.719,0,0,1,.936,2.188L76.14-6.653a1.333,1.333,0,0,0-.36-1.033,1.47,1.47,0,0,0-1.037-.391,2.044,2.044,0,0,0-1.191.343,1.277,1.277,0,0,0-.576.9q-.123.8,1.125,1.112a12.348,12.348,0,0,1,1.846.576A2.407,2.407,0,0,1,77.625-2.76a2.628,2.628,0,0,1-.593,1.578A3.462,3.462,0,0,1,75.56-.154a5.036,5.036,0,0,1-1.96.33,3.867,3.867,0,0,1-2.58-.905,2.826,2.826,0,0,1-1.006-2.276L72.026-3a1.531,1.531,0,0,0,.457,1.16,1.766,1.766,0,0,0,1.2.4,2.391,2.391,0,0,0,1.288-.321A1.231,1.231,0,0,0,75.577-2.637Z" transform="translate(762 7969.782)" fill="#fff"/>
    <path id="Trazado_737853" data-name="Trazado 737853" d="M6.741,0H4.614V-10.281L1.477-9.211V-11l4.992-1.837h.272ZM18.4-9.519,18.22-8.508a3.667,3.667,0,0,1,2.813-1.178,2.73,2.73,0,0,1,1.49.413,1.955,1.955,0,0,1,.8,1.046A3.832,3.832,0,0,1,26.35-9.686a2.469,2.469,0,0,1,2.061.954,3.639,3.639,0,0,1,.505,2.571L27.888,0H25.8l1.037-6.179a3.239,3.239,0,0,0,.009-.712,1.163,1.163,0,0,0-1.3-1.055A2.192,2.192,0,0,0,23.511-6.53l-.026.193L22.395,0H20.3L21.34-6.152a3.157,3.157,0,0,0,.009-.7,1.174,1.174,0,0,0-1.3-1.09A2.3,2.3,0,0,0,18.1-6.9L16.893,0H14.81l1.644-9.51ZM32.086-10.3l.661.005a1.54,1.54,0,0,0,1-.323,1.225,1.225,0,0,0,.456-.861,1.023,1.023,0,0,0-.185-.8.907.907,0,0,0-.718-.3,1.228,1.228,0,0,0-.836.282,1.191,1.191,0,0,0-.426.769l-1.215.005a2.028,2.028,0,0,1,.395-1.071,2.272,2.272,0,0,1,.91-.725,2.853,2.853,0,0,1,1.212-.249,2.233,2.233,0,0,1,1.576.582,1.812,1.812,0,0,1,.51,1.5,1.662,1.662,0,0,1-.379.941,2.757,2.757,0,0,1-.995.736A1.551,1.551,0,0,1,35-8.379v.246a2.218,2.218,0,0,1-.823,1.63,2.727,2.727,0,0,1-1.853.6,2.442,2.442,0,0,1-1.133-.269,1.851,1.851,0,0,1-.772-.743A2.053,2.053,0,0,1,30.168-8L31.378-8a1.083,1.083,0,0,0,.244.792,1.017,1.017,0,0,0,.772.315,1.3,1.3,0,0,0,.951-.328,1.373,1.373,0,0,0,.454-.913A1.015,1.015,0,0,0,33.565-9a1.192,1.192,0,0,0-.848-.313l-.784-.005Z" transform="translate(893 7969.782)" fill="#fff"/>
    <path id="Trazado_737854" data-name="Trazado 737854" d="M7.6-12.858v1.767H7.339a4.239,4.239,0,0,0-2.865.984A4.119,4.119,0,0,0,3.2-7.392,3.468,3.468,0,0,1,5.827-8.473,3.276,3.276,0,0,1,8.5-7.277a4.708,4.708,0,0,1,.98,3.085,4.4,4.4,0,0,1-1.147,3.16A3.959,3.959,0,0,1,5.326.176,3.867,3.867,0,0,1,2.219-1.239,5.566,5.566,0,0,1,1.028-4.948v-.729a7.832,7.832,0,0,1,1.639-5.273,5.877,5.877,0,0,1,4.715-1.907ZM5.309-6.75a2.249,2.249,0,0,0-1.288.4A2.312,2.312,0,0,0,3.164-5.3v.65a3.831,3.831,0,0,0,.6,2.263,1.823,1.823,0,0,0,1.547.839,1.8,1.8,0,0,0,1.5-.712,2.965,2.965,0,0,0,.554-1.872A3.007,3.007,0,0,0,6.8-6.021,1.793,1.793,0,0,0,5.309-6.75ZM19.529-5.388A6.979,6.979,0,0,1,18.5-1.226a3.647,3.647,0,0,1-3.142,1.4A3.7,3.7,0,0,1,12.23-1.191a6.683,6.683,0,0,1-1.077-4.047V-7.453a6.874,6.874,0,0,1,1.033-4.14,3.681,3.681,0,0,1,3.151-1.38,3.7,3.7,0,0,1,3.133,1.345A6.664,6.664,0,0,1,19.529-7.6ZM17.394-7.778a5.415,5.415,0,0,0-.492-2.641,1.68,1.68,0,0,0-1.564-.839,1.679,1.679,0,0,0-1.538.8A5,5,0,0,0,13.28-7.98v2.9a5.555,5.555,0,0,0,.5,2.672,1.683,1.683,0,0,0,1.573.879,1.653,1.653,0,0,0,1.521-.813,5.226,5.226,0,0,0,.519-2.544ZM30.727-2.637q.149-.87-1.129-1.208a14.359,14.359,0,0,1-1.745-.541A2.4,2.4,0,0,1,26.1-6.741a2.675,2.675,0,0,1,1.165-2.123,4.268,4.268,0,0,1,2.685-.822,3.674,3.674,0,0,1,2.465.853,2.719,2.719,0,0,1,.936,2.188l-2.065-.009a1.333,1.333,0,0,0-.36-1.033,1.47,1.47,0,0,0-1.037-.391,2.044,2.044,0,0,0-1.191.343,1.277,1.277,0,0,0-.576.9q-.123.8,1.125,1.112A12.348,12.348,0,0,1,31.1-5.15,2.407,2.407,0,0,1,32.774-2.76a2.628,2.628,0,0,1-.593,1.578A3.462,3.462,0,0,1,30.709-.154a5.036,5.036,0,0,1-1.96.33,3.867,3.867,0,0,1-2.58-.905,2.826,2.826,0,0,1-1.006-2.276L27.176-3a1.531,1.531,0,0,0,.457,1.16,1.766,1.766,0,0,0,1.2.4,2.391,2.391,0,0,0,1.288-.321A1.231,1.231,0,0,0,30.727-2.637Z" transform="translate(1003 7969.782)" fill="#fff"/>
    <path id="Trazado_737861" data-name="Trazado 737861" d="M5.827-2.637q.149-.87-1.129-1.208a14.359,14.359,0,0,1-1.745-.541A2.4,2.4,0,0,1,1.2-6.741,2.675,2.675,0,0,1,2.369-8.864a4.268,4.268,0,0,1,2.685-.822,3.674,3.674,0,0,1,2.465.853,2.719,2.719,0,0,1,.936,2.188L6.39-6.653a1.333,1.333,0,0,0-.36-1.033,1.47,1.47,0,0,0-1.037-.391A2.044,2.044,0,0,0,3.8-7.734a1.277,1.277,0,0,0-.576.9q-.123.8,1.125,1.112A12.348,12.348,0,0,1,6.2-5.15,2.407,2.407,0,0,1,7.875-2.76a2.628,2.628,0,0,1-.593,1.578A3.462,3.462,0,0,1,5.81-.154a5.036,5.036,0,0,1-1.96.33A3.867,3.867,0,0,1,1.27-.729,2.826,2.826,0,0,1,.264-3.006L2.276-3a1.531,1.531,0,0,0,.457,1.16,1.766,1.766,0,0,0,1.2.4,2.391,2.391,0,0,0,1.288-.321A1.231,1.231,0,0,0,5.827-2.637Z" transform="translate(848 8047.782)" fill="#fff"/>
    <path id="Trazado_737844" data-name="Trazado 737844" d="M5.212-2.8,9.923-12.8h2.461L5.915,0h-2.1L1.362-12.8h2.3Z" transform="translate(796 7866.782)" fill="#fff"/>
    <path id="Trazado_737846" data-name="Trazado 737846" d="M9.3-5.388A6.979,6.979,0,0,1,8.266-1.226,3.647,3.647,0,0,1,5.124.176,3.7,3.7,0,0,1,2-1.191,6.683,6.683,0,0,1,.923-5.238V-7.453a6.874,6.874,0,0,1,1.033-4.14,3.681,3.681,0,0,1,3.151-1.38A3.7,3.7,0,0,1,8.24-11.628,6.664,6.664,0,0,1,9.3-7.6ZM7.163-7.778a5.415,5.415,0,0,0-.492-2.641,1.68,1.68,0,0,0-1.564-.839,1.679,1.679,0,0,0-1.538.8A5,5,0,0,0,3.05-7.98v2.9a5.555,5.555,0,0,0,.5,2.672,1.683,1.683,0,0,0,1.573.879,1.653,1.653,0,0,0,1.521-.813,5.226,5.226,0,0,0,.519-2.544ZM11.628,2.883,10.477,2.2A6.21,6.21,0,0,0,11.175.8a4.157,4.157,0,0,0,.2-1.208V-2.065H13.3L13.289-.527a4.287,4.287,0,0,1-.47,1.868A4.64,4.64,0,0,1,11.628,2.883Zm10.74-7.444h1.591v1.714H22.368V0H20.232V-2.848H14.7l-.062-1.3,5.52-8.648h2.206Zm-5.484,0h3.349V-9.905l-.158.281Zm9.062-1.784L26.64-12.8h6.873v1.846h-5.1l-.352,3.059a3.951,3.951,0,0,1,2-.51,3.565,3.565,0,0,1,2.843,1.169,4.632,4.632,0,0,1,1.015,3.146A4.264,4.264,0,0,1,32.8-.98,4.106,4.106,0,0,1,29.716.176a4.3,4.3,0,0,1-2.914-1A3.606,3.606,0,0,1,25.55-3.454h2.065a2.256,2.256,0,0,0,.668,1.428,2.032,2.032,0,0,0,1.424.5,1.836,1.836,0,0,0,1.534-.7,3.035,3.035,0,0,0,.549-1.916A2.682,2.682,0,0,0,31.184-6a2.121,2.121,0,0,0-1.67-.681,2.778,2.778,0,0,0-.984.154,2.788,2.788,0,0,0-.879.6Zm18,.958a6.979,6.979,0,0,1-1.033,4.162,3.647,3.647,0,0,1-3.142,1.4,3.7,3.7,0,0,1-3.125-1.367,6.683,6.683,0,0,1-1.077-4.047V-7.453a6.874,6.874,0,0,1,1.033-4.14,3.681,3.681,0,0,1,3.151-1.38,3.7,3.7,0,0,1,3.133,1.345A6.664,6.664,0,0,1,43.945-7.6ZM41.81-7.778a5.415,5.415,0,0,0-.492-2.641,1.68,1.68,0,0,0-1.564-.839,1.679,1.679,0,0,0-1.538.8A5,5,0,0,0,37.7-7.98v2.9a5.555,5.555,0,0,0,.5,2.672,1.683,1.683,0,0,0,1.573.879,1.653,1.653,0,0,0,1.521-.813,5.226,5.226,0,0,0,.519-2.544Zm11.241-1.74-.185,1.011a3.667,3.667,0,0,1,2.813-1.178,2.73,2.73,0,0,1,1.49.413,1.955,1.955,0,0,1,.8,1.046A3.832,3.832,0,0,1,61-9.686a2.469,2.469,0,0,1,2.061.954,3.639,3.639,0,0,1,.505,2.571L62.534,0H60.451l1.037-6.179a3.239,3.239,0,0,0,.009-.712,1.163,1.163,0,0,0-1.3-1.055A2.192,2.192,0,0,0,58.157-6.53l-.026.193L57.041,0H54.949l1.037-6.152a3.157,3.157,0,0,0,.009-.7,1.174,1.174,0,0,0-1.3-1.09A2.3,2.3,0,0,0,52.743-6.9L51.539,0H49.456L51.1-9.51ZM66.6-10.3h.759a1.358,1.358,0,0,0,.91-.3,1.061,1.061,0,0,0,.336-.846,1.156,1.156,0,0,0-.279-.828,1.124,1.124,0,0,0-.854-.295,1.19,1.19,0,0,0-.825.29.968.968,0,0,0-.323.756H65.076a1.886,1.886,0,0,1,.305-1.046,2.049,2.049,0,0,1,.851-.736,2.772,2.772,0,0,1,1.223-.264,2.567,2.567,0,0,1,1.756.561,1.97,1.97,0,0,1,.638,1.561,1.586,1.586,0,0,1-.32.946,2.009,2.009,0,0,1-.828.669,1.831,1.831,0,0,1,.936.661,1.811,1.811,0,0,1,.32,1.077,2,2,0,0,1-.69,1.6,2.677,2.677,0,0,1-1.812.595,2.657,2.657,0,0,1-1.764-.574A1.891,1.891,0,0,1,65-8H66.25a1.042,1.042,0,0,0,.331.8,1.254,1.254,0,0,0,.889.308,1.293,1.293,0,0,0,.913-.308,1.154,1.154,0,0,0,.333-.892A1.166,1.166,0,0,0,68.368-9a1.49,1.49,0,0,0-1.036-.318H66.6Z" transform="translate(767 7944.782)" fill="#fff"/>
    <path id="Trazado_737847" data-name="Trazado 737847" d="M6.741,0H4.614V-10.281L1.477-9.211V-11l4.992-1.837h.272ZM19.529-5.388A6.979,6.979,0,0,1,18.5-1.226a3.647,3.647,0,0,1-3.142,1.4A3.7,3.7,0,0,1,12.23-1.191a6.683,6.683,0,0,1-1.077-4.047V-7.453a6.874,6.874,0,0,1,1.033-4.14,3.681,3.681,0,0,1,3.151-1.38,3.7,3.7,0,0,1,3.133,1.345A6.664,6.664,0,0,1,19.529-7.6ZM17.394-7.778a5.415,5.415,0,0,0-.492-2.641,1.68,1.68,0,0,0-1.564-.839,1.679,1.679,0,0,0-1.538.8A5,5,0,0,0,13.28-7.98v2.9a5.555,5.555,0,0,0,.5,2.672,1.683,1.683,0,0,0,1.573.879,1.653,1.653,0,0,0,1.521-.813,5.226,5.226,0,0,0,.519-2.544ZM29.76-5.388a6.979,6.979,0,0,1-1.033,4.162,3.647,3.647,0,0,1-3.142,1.4A3.7,3.7,0,0,1,22.46-1.191a6.683,6.683,0,0,1-1.077-4.047V-7.453a6.874,6.874,0,0,1,1.033-4.14,3.681,3.681,0,0,1,3.151-1.38A3.7,3.7,0,0,1,28.7-11.628,6.664,6.664,0,0,1,29.76-7.6ZM27.624-7.778a5.415,5.415,0,0,0-.492-2.641,1.68,1.68,0,0,0-1.564-.839,1.679,1.679,0,0,0-1.538.8,5,5,0,0,0-.519,2.483v2.9a5.555,5.555,0,0,0,.5,2.672,1.683,1.683,0,0,0,1.573.879,1.653,1.653,0,0,0,1.521-.813,5.226,5.226,0,0,0,.519-2.544ZM39.99-5.388a6.979,6.979,0,0,1-1.033,4.162,3.647,3.647,0,0,1-3.142,1.4,3.7,3.7,0,0,1-3.125-1.367,6.683,6.683,0,0,1-1.077-4.047V-7.453a6.874,6.874,0,0,1,1.033-4.14,3.681,3.681,0,0,1,3.151-1.38,3.7,3.7,0,0,1,3.133,1.345A6.664,6.664,0,0,1,39.99-7.6ZM37.854-7.778a5.415,5.415,0,0,0-.492-2.641,1.68,1.68,0,0,0-1.564-.839,1.679,1.679,0,0,0-1.538.8,5,5,0,0,0-.519,2.483v2.9a5.555,5.555,0,0,0,.5,2.672,1.683,1.683,0,0,0,1.573.879,1.653,1.653,0,0,0,1.521-.813,5.226,5.226,0,0,0,.519-2.544ZM47.76,0H45.677l2.347-13.5h2.083ZM52.3,0H50.221l1.652-9.51h2.083Zm-.132-11.944a1.175,1.175,0,0,1,.316-.826,1.159,1.159,0,0,1,.853-.36,1.108,1.108,0,0,1,.848.312,1.08,1.08,0,0,1,.338.8,1.111,1.111,0,0,1-.33.826,1.208,1.208,0,0,1-.839.343,1.127,1.127,0,0,1-.844-.3A1.045,1.045,0,0,1,52.172-11.944Zm7.128.123L58.9-9.51h1.626l-.272,1.582H58.614l-.9,5.326a1.821,1.821,0,0,0-.009.4q.053.571.7.6a3.971,3.971,0,0,0,.738-.079L59.01-.018A4.776,4.776,0,0,1,57.7.167a1.945,1.945,0,0,1-1.63-.743,2.688,2.688,0,0,1-.426-1.92l.888-5.432H55.011l.281-1.582H56.8l.4-2.312Zm7.453,4.263a3.837,3.837,0,0,0-.817-.088,2.439,2.439,0,0,0-2.18,1.134L62.613,0H60.53l1.644-9.51,1.978-.009L63.94-8.437A2.721,2.721,0,0,1,66.19-9.7a3.419,3.419,0,0,1,.8.132Zm.185,2.769a6.257,6.257,0,0,1,.822-2.54A4.877,4.877,0,0,1,69.486-9.1a4.268,4.268,0,0,1,2.338-.589,3.632,3.632,0,0,1,2.109.65A3.612,3.612,0,0,1,75.23-7.3a5.5,5.5,0,0,1,.286,2.443,6.373,6.373,0,0,1-.822,2.672,4.858,4.858,0,0,1-1.74,1.78A4.329,4.329,0,0,1,70.6.176a3.615,3.615,0,0,1-2.1-.646,3.624,3.624,0,0,1-1.3-1.723,5.427,5.427,0,0,1-.3-2.413Zm2.048,1.2A2.511,2.511,0,0,0,69.473-2.1a1.561,1.561,0,0,0,1.235.584,2.191,2.191,0,0,0,1.8-.826,4.346,4.346,0,0,0,.91-2.329l.053-.861A3.043,3.043,0,0,0,73.02-7.3a1.573,1.573,0,0,0-1.3-.677,2.277,2.277,0,0,0-2.109,1.31,4.892,4.892,0,0,0-.589,1.881A7.359,7.359,0,0,0,68.985-3.586Zm13.166.949q.149-.87-1.129-1.208a14.359,14.359,0,0,1-1.745-.541,2.4,2.4,0,0,1-1.749-2.355,2.675,2.675,0,0,1,1.165-2.123,4.268,4.268,0,0,1,2.685-.822,3.674,3.674,0,0,1,2.465.853,2.719,2.719,0,0,1,.936,2.188l-2.065-.009a1.333,1.333,0,0,0-.36-1.033,1.47,1.47,0,0,0-1.037-.391,2.044,2.044,0,0,0-1.191.343,1.277,1.277,0,0,0-.576.9q-.123.8,1.125,1.112a12.348,12.348,0,0,1,1.846.576A2.407,2.407,0,0,1,84.2-2.76a2.628,2.628,0,0,1-.593,1.578A3.462,3.462,0,0,1,82.134-.154a5.036,5.036,0,0,1-1.96.33,3.867,3.867,0,0,1-2.58-.905,2.826,2.826,0,0,1-1.006-2.276L78.6-3a1.531,1.531,0,0,0,.457,1.16,1.766,1.766,0,0,0,1.2.4,2.391,2.391,0,0,0,1.288-.321A1.231,1.231,0,0,0,82.151-2.637Z" transform="translate(869 7944.782)" fill="#fff"/>
    <path id="Trazado_737848" data-name="Trazado 737848" d="M6.741,0H4.614V-10.281L1.477-9.211V-11l4.992-1.837h.272ZM18.4-9.519,18.22-8.508a3.667,3.667,0,0,1,2.813-1.178,2.73,2.73,0,0,1,1.49.413,1.955,1.955,0,0,1,.8,1.046A3.832,3.832,0,0,1,26.35-9.686a2.469,2.469,0,0,1,2.061.954,3.639,3.639,0,0,1,.505,2.571L27.888,0H25.8l1.037-6.179a3.239,3.239,0,0,0,.009-.712,1.163,1.163,0,0,0-1.3-1.055A2.192,2.192,0,0,0,23.511-6.53l-.026.193L22.395,0H20.3L21.34-6.152a3.157,3.157,0,0,0,.009-.7,1.174,1.174,0,0,0-1.3-1.09A2.3,2.3,0,0,0,18.1-6.9L16.893,0H14.81l1.644-9.51ZM32.309,0H30.226l1.652-9.51h2.083Zm-.132-11.944a1.175,1.175,0,0,1,.316-.826,1.159,1.159,0,0,1,.853-.36,1.108,1.108,0,0,1,.848.312,1.08,1.08,0,0,1,.338.8,1.111,1.111,0,0,1-.33.826,1.208,1.208,0,0,1-.839.343,1.127,1.127,0,0,1-.844-.3A1.045,1.045,0,0,1,32.177-11.944Zm6.038,2.426L38-8.4a3.629,3.629,0,0,1,2.821-1.283,2.3,2.3,0,0,1,1.978.954,3.806,3.806,0,0,1,.475,2.588L42.249,0H40.166L41.2-6.17a3.157,3.157,0,0,0,.009-.7,1.121,1.121,0,0,0-1.248-1.072,2.532,2.532,0,0,0-2.083,1.169L36.694,0H34.611l1.644-9.51ZM50.317-.94A3.449,3.449,0,0,1,47.61.176a2.649,2.649,0,0,1-1.534-.457,2.377,2.377,0,0,1-.87-1.226,4.489,4.489,0,0,1-.154-1.85L46.081-9.51h2.083L47.127-3.331a3.275,3.275,0,0,0-.009.633,1.069,1.069,0,0,0,1.1,1.134,2.515,2.515,0,0,0,2.232-1.107l1.2-6.838h2.083L52.084,0H50.133ZM58.9-11.821l-.4,2.312h1.626l-.272,1.582H58.21l-.9,5.326a1.821,1.821,0,0,0-.009.4q.053.571.7.6a3.971,3.971,0,0,0,.738-.079l-.141,1.67A4.776,4.776,0,0,1,57.3.167a1.945,1.945,0,0,1-1.63-.743,2.688,2.688,0,0,1-.426-1.92l.888-5.432H54.606l.281-1.582H56.4l.4-2.312ZM60.363-4.79a6.257,6.257,0,0,1,.822-2.54A4.877,4.877,0,0,1,62.912-9.1a4.268,4.268,0,0,1,2.338-.589,3.632,3.632,0,0,1,2.109.65,3.612,3.612,0,0,1,1.3,1.731,5.5,5.5,0,0,1,.286,2.443,6.373,6.373,0,0,1-.822,2.672,4.858,4.858,0,0,1-1.74,1.78,4.329,4.329,0,0,1-2.351.584,3.615,3.615,0,0,1-2.1-.646,3.624,3.624,0,0,1-1.3-1.723,5.427,5.427,0,0,1-.3-2.413Zm2.048,1.2A2.511,2.511,0,0,0,62.9-2.1a1.561,1.561,0,0,0,1.235.584,2.191,2.191,0,0,0,1.8-.826,4.346,4.346,0,0,0,.91-2.329l.053-.861A3.043,3.043,0,0,0,66.445-7.3a1.573,1.573,0,0,0-1.3-.677,2.277,2.277,0,0,0-2.109,1.31,4.892,4.892,0,0,0-.589,1.881A7.359,7.359,0,0,0,62.411-3.586Z" transform="translate(984 7944.782)" fill="#fff"/>
    <path id="Trazado_737858" data-name="Trazado 737858" d="M2.355,0H.272L2.619-13.5H4.7ZM6.9,0H4.816L6.469-9.51H8.552ZM6.768-11.944a1.175,1.175,0,0,1,.316-.826,1.159,1.159,0,0,1,.853-.36,1.108,1.108,0,0,1,.848.312,1.08,1.08,0,0,1,.338.8,1.111,1.111,0,0,1-.33.826,1.208,1.208,0,0,1-.839.343,1.127,1.127,0,0,1-.844-.3A1.045,1.045,0,0,1,6.768-11.944Zm7.128.123-.4,2.312h1.626l-.272,1.582H13.21l-.9,5.326a1.821,1.821,0,0,0-.009.4q.053.571.7.6a3.971,3.971,0,0,0,.738-.079l-.141,1.67A4.776,4.776,0,0,1,12.3.167a1.945,1.945,0,0,1-1.63-.743,2.688,2.688,0,0,1-.426-1.92l.888-5.432H9.606L9.888-9.51H11.4l.4-2.312Zm7.453,4.263a3.837,3.837,0,0,0-.817-.088,2.439,2.439,0,0,0-2.18,1.134L17.209,0H15.126L16.77-9.51l1.978-.009-.211,1.081A2.721,2.721,0,0,1,20.786-9.7a3.419,3.419,0,0,1,.8.132Zm.185,2.769a6.257,6.257,0,0,1,.822-2.54A4.877,4.877,0,0,1,24.082-9.1a4.268,4.268,0,0,1,2.338-.589,3.632,3.632,0,0,1,2.109.65,3.612,3.612,0,0,1,1.3,1.731,5.5,5.5,0,0,1,.286,2.443,6.373,6.373,0,0,1-.822,2.672,4.858,4.858,0,0,1-1.74,1.78A4.329,4.329,0,0,1,25.2.176,3.615,3.615,0,0,1,23.1-.47a3.624,3.624,0,0,1-1.3-1.723,5.427,5.427,0,0,1-.3-2.413Zm2.048,1.2A2.511,2.511,0,0,0,24.069-2.1a1.561,1.561,0,0,0,1.235.584,2.191,2.191,0,0,0,1.8-.826,4.346,4.346,0,0,0,.91-2.329l.053-.861A3.043,3.043,0,0,0,27.615-7.3a1.573,1.573,0,0,0-1.3-.677,2.277,2.277,0,0,0-2.109,1.31,4.892,4.892,0,0,0-.589,1.881A7.359,7.359,0,0,0,23.581-3.586Zm13.166.949q.149-.87-1.129-1.208a14.359,14.359,0,0,1-1.745-.541,2.4,2.4,0,0,1-1.749-2.355,2.675,2.675,0,0,1,1.165-2.123,4.268,4.268,0,0,1,2.685-.822,3.674,3.674,0,0,1,2.465.853,2.719,2.719,0,0,1,.936,2.188L37.31-6.653a1.333,1.333,0,0,0-.36-1.033,1.47,1.47,0,0,0-1.037-.391,2.044,2.044,0,0,0-1.191.343,1.277,1.277,0,0,0-.576.9q-.123.8,1.125,1.112a12.348,12.348,0,0,1,1.846.576A2.407,2.407,0,0,1,38.795-2.76,2.628,2.628,0,0,1,38.2-1.182,3.462,3.462,0,0,1,36.729-.154a5.036,5.036,0,0,1-1.96.33,3.867,3.867,0,0,1-2.58-.905,2.826,2.826,0,0,1-1.006-2.276L33.2-3a1.531,1.531,0,0,0,.457,1.16,1.766,1.766,0,0,0,1.2.4,2.391,2.391,0,0,0,1.288-.321A1.231,1.231,0,0,0,36.747-2.637Z" transform="translate(833 8023.282)" fill="#fff"/>
    <path id="Trazado_737842" data-name="Trazado 737842" d="M0,0H85" transform="translate(759.5 7872.782)" fill="none" stroke="#fff" stroke-width="2"/>
    <path id="Trazado_737855" data-name="Trazado 737855" d="M0,0H85" transform="translate(759.5 7951.282)" fill="none" stroke="#fff" stroke-width="2"/>
    <path id="Trazado_737856" data-name="Trazado 737856" d="M0,0H85" transform="translate(868.5 7951.282)" fill="none" stroke="#fff" stroke-width="2"/>
    <path id="Trazado_737857" data-name="Trazado 737857" d="M0,0H85" transform="translate(977.5 7951.282)" fill="none" stroke="#fff" stroke-width="2"/>
    <path id="Trazado_737862" data-name="Trazado 737862" d="M0,0H85" transform="translate(810.5 8029.782)" fill="none" stroke="#fff" stroke-width="2"/>
    <path id="Trazado_737859" data-name="Trazado 737859" d="M3.428-7.374h1.3a2.328,2.328,0,0,0,1.56-.51,1.819,1.819,0,0,0,.576-1.45,1.982,1.982,0,0,0-.479-1.419,1.928,1.928,0,0,0-1.463-.505,2.039,2.039,0,0,0-1.415.5,1.659,1.659,0,0,0-.554,1.3H.817a3.233,3.233,0,0,1,.523-1.793A3.513,3.513,0,0,1,2.8-12.52a4.753,4.753,0,0,1,2.1-.453,4.4,4.4,0,0,1,3.01.962A3.377,3.377,0,0,1,9-9.334a2.719,2.719,0,0,1-.549,1.622A3.445,3.445,0,0,1,7.031-6.565a3.14,3.14,0,0,1,1.6,1.134,3.1,3.1,0,0,1,.549,1.846A3.437,3.437,0,0,1,8-.844,4.59,4.59,0,0,1,4.9.176,4.555,4.555,0,0,1,1.872-.809,3.242,3.242,0,0,1,.694-3.428H2.83A1.787,1.787,0,0,0,3.4-2.057a2.15,2.15,0,0,0,1.525.527,2.217,2.217,0,0,0,1.564-.527,1.978,1.978,0,0,0,.571-1.529,2,2,0,0,0-.6-1.556,2.555,2.555,0,0,0-1.775-.545H3.428Zm8.2,10.257L10.477,2.2A6.21,6.21,0,0,0,11.175.8a4.157,4.157,0,0,0,.2-1.208V-2.065H13.3L13.289-.527a4.287,4.287,0,0,1-.47,1.868A4.64,4.64,0,0,1,11.628,2.883ZM23.66-11.61,18.545,0H16.3L21.41-11.083H14.792V-12.8H23.66Zm2.285,5.265L26.64-12.8h6.873v1.846h-5.1l-.352,3.059a3.951,3.951,0,0,1,2-.51,3.565,3.565,0,0,1,2.843,1.169,4.632,4.632,0,0,1,1.015,3.146A4.264,4.264,0,0,1,32.8-.98,4.106,4.106,0,0,1,29.716.176a4.3,4.3,0,0,1-2.914-1A3.606,3.606,0,0,1,25.55-3.454h2.065a2.256,2.256,0,0,0,.668,1.428,2.032,2.032,0,0,0,1.424.5,1.836,1.836,0,0,0,1.534-.7,3.035,3.035,0,0,0,.549-1.916A2.682,2.682,0,0,0,31.184-6a2.121,2.121,0,0,0-1.67-.681,2.778,2.778,0,0,0-.984.154,2.788,2.788,0,0,0-.879.6Z" transform="translate(765 8034.782)" fill="#fff"/>
  </g>
</svg>
