<svg xmlns="http://www.w3.org/2000/svg" width="420" height="300" viewBox="0 0 420 300">
  <g id="Grupo_1016004" data-name="Grupo 1016004" transform="translate(-370 -8651)">
    <rect id="Rectángulo_350440" data-name="Rectángulo 350440" width="420" height="300" transform="translate(370 8651)" fill="#f3f9ff"/>
    <g id="Grupo_1014709" data-name="Grupo 1014709" transform="translate(179.829 8522.463)">
      <path id="Trazado_734144" data-name="Trazado 734144" d="M445.832,260.878l6.228-2.119m-1.169,2.119,22.166-6.925c.522-2.067-.02-3.492-1.747-4.275l-25.3,7.587Zm117.477-38.77-.455-6.769-1.138,1.195-.512-4.664m-14.819,6.883,15.6-4.765c.975.878,1.221,2.277,1.134,3.914l-11.773,3.545m-13.676,10.506-.056-3.96c4.152-3.36-2.708-5.588-4.865-2.265l.071,5.915m-15.661-8.636V203.863M498.25,227.686V211.379M522.4,268.354l6.7-2.145m22.089-16.77c-3.151,2.565-6.726,7.636-11.984,16.117a22.246,22.246,0,0,1-8.1,7.057,11.891,11.891,0,0,0-2.642,2.212c-.1.667-3.766-2.113-5.313-6.315-1.227.017-4.562-.423-5.93-2.134-2.03-1.861-4.6-3.569-6.444-4.985-1.43-1.137-4.422-.388-5.351-.37m22.262,23.1,24-6.839.1-27.239c-3.151,2.564-6.726,7.635-11.985,16.117a22.252,22.252,0,0,1-8.1,7.057c-1.7.879-2.471,2.072-3.708,2.907Zm-33.9-8.083,11.122-3.346L505,261.5c8.006.169,7.671,4.018,11.552,6.389,1.763,1.078,4.18.94,6.014,2.282,1.379,1.01,2.027,4.748,5.274,6.022l-.058,8.09-22.627-12.148m-7.48-61.07,40.738,22.072m1.244-.466L499.7,210.6m23.323,32.33-29.543-15.543m30.165,13.833-27.21-14.61-2.955.777-.311,16.476m18.97,9.948-19.125-9.793-14.15,4.353m14.968,20.371a65.041,65.041,0,0,1,14.38-9.333c4.882-2.9,5.972-7.157,8.47-9.384,9.285-5.167,7.51-10.023,12.1-13.273M456.942,222.41l65.149-19.741L564.85,226.14l-.311,31.554-12.905,4.041.155-12.124L528.74,236.4l.273.463v29.347l6.266,3.432m-41.141-2.422a70.979,70.979,0,0,1,14.012-8.873c3.683-2.715,5.294-6.663,8.1-9.2,8.638-4.705,6.154-9.069,11.824-13.089l35.668-10-40.693-22.167-.481-.263-64.379,19.652a12.656,12.656,0,0,1,3.792,6.757c2.772,6.629,5.859,7.743,9.979,12.613,3.148,3.062,3.768,7.113,7.616,10.235,4.754,4.038,8.184,5.866,10.259,8.722C492.026,264.625,491.956,267.382,494.138,267.219Zm-.406,1.218v7.744l-36.856-18.959-.007-34.448a20.377,20.377,0,0,1,4.705,8.483c2.773,6.629,5.86,7.743,9.98,12.613,3.148,3.062,3.768,7.113,7.616,10.235,4.754,4.039,8.184,5.866,10.259,8.722C491.62,265.843,491.55,268.6,493.732,268.437Z" fill="none" stroke="#272525" stroke-miterlimit="2.613" stroke-width="0.7"/>
      <path id="Trazado_734145" data-name="Trazado 734145" d="M454.5,257.929l-2.894-.395.841,2.473,2.053-2.078" fill="#272525" fill-rule="evenodd"/>
      <path id="Trazado_734146" data-name="Trazado 734146" d="M562.145,218.156l7.907-3.04m-47.061,37.536a.777.777,0,1,1-.7.773A.74.74,0,0,1,522.991,252.652Zm-4.143-2.3,4.6,2.385a.62.62,0,0,1,.264.834l-.178.343a.62.62,0,0,1-.833.264l-4.6-2.385a.621.621,0,0,1-.264-.834l.178-.342A.621.621,0,0,1,518.848,250.35Zm-19.3-38.309v-1.082m1.005,1.236v-1.082M502.1,213.2v-1.082m.773,1.468V212.5m2.4,2.55v-1.082m2.4,2.242v-1.082m2.242,2.318v-1.082M512,218.532V217.45m2.4,2.4v-1.082m2.165,2.164v-1.082m2.241,2.472v-1.081m2.551,2.472v-1.082m2.01,2.319v-1.082m2.474,2.318V225.1M528,227.341v-1.082m2.319,2.4v-1.082m2.4,2.087v-1.082m2.164,2.473v-1.082m1.855,2.009V230.9m1.778,2.241v-1.082m-15.615,10.9v-2.086m-1.546,1.236v-2.086m-1.777.927v-2.086m-2.088,1.081v-2.086m-1.855,1.468v-2.086m-1.933,1.005v-2.087m-1.932,1.005v-2.087m-1.933,1.005v-2.087m-1.236,1.546v-2.087m-1.933,1.005v-2.087m-1.933,1.005v-2.087m-1.932,1.005V230.2m-2.242.85v-2.087m-2.164.927V227.8m-2.242,1.005v-2.087M478.96,252.388l.06-3.733c.383-1.31-2.769-1.761-3.012-.482m-31.321,8.249,3.975,3.432.181-.9,3.915,3.914" fill="none" stroke="#272525" stroke-miterlimit="2.613" stroke-width="0.7"/>
      <path id="Trazado_734147" data-name="Trazado 734147" d="M572.458,214.191l-2.907-.281.937,2.438,1.97-2.157" fill="#272525" fill-rule="evenodd"/>
      <path id="Trazado_734148" data-name="Trazado 734148" d="M582.922,376.039l-32.689-.86m0,5.733,32.115.573M544.12,308.1h38.295m-119.639,5.446h30.108m15.771.287h35.556m-81.722,26.085h81.435m-87.743-32.1-.574,78.829,94.626.286,1.147-78.542-7.169-.286-.573,72.809H462.2l.574-73.1Z" fill="none" stroke="#272525" stroke-miterlimit="2.613" stroke-width="0.7"/>
      <line id="Línea_3207" data-name="Línea 3207" x2="81.435" transform="translate(462.489 357.406)" fill="none" stroke="#272525" stroke-miterlimit="2.613" stroke-width="0.7" stroke-dasharray="3.499 2.099"/>
      <ellipse id="Elipse_9021" data-name="Elipse 9021" cx="7.312" cy="6.593" rx="7.312" ry="6.593" transform="translate(495.465 325.875)" fill="none" stroke="#272525" stroke-miterlimit="2.613" stroke-width="0.7" stroke-dasharray="1.4 2.099"/>
      <path id="Trazado_734149" data-name="Trazado 734149" d="M495.385,333.328V351.1h14.99V334.188" fill="none" stroke="#272525" stroke-miterlimit="2.613" stroke-width="0.7" stroke-dasharray="3.499 2.099"/>
      <path id="Trazado_734150" data-name="Trazado 734150" d="M567.346,307.233c1.4.516,1.761.96,1.494,5.228m15.37-5.015-1.815,1.6.107-1.067-3.575,3.574m4.569,62.441-.68,4.181,1.412-1.568-.785,8.049" fill="none" stroke="#272525" stroke-miterlimit="2.613" stroke-width="0.7"/>
      <path id="Trazado_734151" data-name="Trazado 734151" d="M568.68,315.034l1.466-2.526-2.607-.163,1.141,2.689" fill="#272525" fill-rule="evenodd"/>
      <path id="Trazado_734152" data-name="Trazado 734152" d="M253.138,227.108l.068-.008a8.073,8.073,0,0,1,.885-.049,7.832,7.832,0,0,1,.95.057h0a6.82,6.82,0,0,1,6.268,6.493c0,3.608-3.243,6.551-7.22,6.551a7.9,7.9,0,0,1-1-.064l-.024,0m1.98-12.977h.079m-23.632,0h21.648m-22.983,12.98h22.932m75.789-21.38,5.515-4.9M342,215.23l5.515-4.9M342,220.447l5.515-4.9M342,225.664l5.515-4.9M342,230.88l5.515-4.9M342,236.1l5.515-4.9M342,240.681l5.515-4.9M342,246.056l5.515-4.9m-18.324-27.191,5.515-4.9m-5.831,14.385,5.515-4.9m-6.306,9.485,5.515-4.9m-5.515,10.434,5.515-4.9m-5.515,10.117,5.515-4.9m-5.515,9.169,5.515-4.9m-5.515,10.117,5.515-4.9m8.4,8.378,5.515-4.9m-19.431,6.639,5.515-4.9m8.4,8.062,5.515-4.9M342,262.181l5.515-4.9M342,267.714l5.515-4.9m-5.159,10.118,5.159-4.585m-19.431-9.959,5.515-4.9m-5.515,10.434,5.515-4.9m-5.515,10.434,5.515-4.9m-4.27,9.327,4.27-3.794m8.7,3.636h6.009V193.1H342.3Zm-13.916,0h6.009V193.1h-6.009Zm-82.317-80.576H423.314V273.8H246.065Zm-7.317-6.386h191.29v93.429H238.748Zm313.263,144h4.413m-2.29,1.857-.046-1.93m-1.471,5.954,3.72-3.892m-4.326-.259,4.845,4.151m5.663-4.019c.082.759-.649.932-.649,2.076s.292,2.075.649,2.075.649-.932.649-2.075S562.877,332.617,562.519,332.617Zm-25.351,0c-.081.759.649.932.649,2.076s-.291,2.075-.649,2.075-.649-.932-.649-2.075S536.811,332.617,537.168,332.617Zm-.039,4.106,25.265.086m-25.265-4.151,25.265.086" fill="none" stroke="#272525" stroke-miterlimit="2.613" stroke-width="0.7"/>
      <ellipse id="Elipse_9022" data-name="Elipse 9022" cx="7.305" cy="6.453" rx="7.305" ry="6.453" transform="translate(246.606 227.069)" fill="none" stroke="#272525" stroke-miterlimit="2.613" stroke-width="0.7" stroke-dasharray="1.4 0.7"/>
      <path id="Trazado_734153" data-name="Trazado 734153" d="M417.242,227.838l-.068-.008a8.063,8.063,0,0,0-.885-.049,7.815,7.815,0,0,0-.949.057h0a6.82,6.82,0,0,0-6.268,6.493c0,3.608,3.243,6.551,7.22,6.551a7.927,7.927,0,0,0,1.005-.064l.023,0m-1.98-12.977h-.079m24.735,0H417.242M441.485,240.9l-24.191-.079" fill="none" stroke="#272525" stroke-miterlimit="2.613" stroke-width="0.7"/>
      <path id="Trazado_734154" data-name="Trazado 734154" d="M416.044,227.8a6.466,6.466,0,1,0,6.879,6.453A6.69,6.69,0,0,0,416.044,227.8Z" fill="none" stroke="#272525" stroke-miterlimit="2.613" stroke-width="0.7" stroke-dasharray="1.4 0.7"/>
      <path id="Trazado_734155" data-name="Trazado 734155" d="M217.171,233.9h19.864m53.733-49.548h3.354v12.208h-3.354Zm143.5,90.559h3.44m-1.338-77.177-.382,77.177m-12.978,11.933v-2.8m-1.3,2.279,2.28-2.019m1.009.849-179.524-.261M440.8,226.864l-.552,5.04,1.339-1.89c.867,5.013-.157,10.027-.236,15.041" fill="none" stroke="#272525" stroke-miterlimit="2.613" stroke-width="0.7"/>
      <path id="Trazado_734156" data-name="Trazado 734156" d="M236.944,232.111l3.257,1.79-3.257,1.791v-3.581" fill="#272525" fill-rule="evenodd"/>
      <path id="Trazado_734157" data-name="Trazado 734157" d="M409.563,199.6l.651-1.454m-2.525,1.568.8-1.606m-3.022,1.645,1.262-1.721m-3.137,1.453,1.071-1.339m-2.334,1.262.758-1.262m-2.326,1.3.8-1.377m-2.462.813,1.338-1.146m-1.911-2.216,1.529-.841m-127.468-.014,1.607-1.3m-1.607,2.716,1.607-1.3m-1.607,2.524L274.2,196m-1.033,3.709,1.33-3.251m-2.631,3.251.783-1.912m-1.893,1.912.689-1.682m-2.181,1.682.689-1.682m-2.066,1.682.689-1.682m-2.334,1.529.765-1.377m-2.295,1.416.65-1.454m-2.525,1.568.8-1.606m-3.022,1.645,1.262-1.721m-3.137,1.453,1.071-1.339m-2.333,1.262.757-1.262m-2.326,1.3.8-1.377m-2.8,1.1,1.337-1.146m-1.57-2.952,1.528-.841M435.8,193.15l1.72,2.1m-2.867-1.146h2.676M245.248,286.324V283.98m-1.107,2.344,1.953-2.279M400.515,193.1h16.837v4.951H400.515Zm-1.98,0h20.923v6.559H398.535Zm-142.916,0h16.837v4.951H255.619Zm-1.98,0h20.922v6.559H253.639Zm-3.343-6.188V172.8m4.209-.371v14.232m36.274,5.445,3.343-3.217m-3.219-.124,3.219,3.341m26.493-15.346,2.476-1.485m-75.442-1.229,4.137-1.6-.5,1.28,6.127-2.193m-2.908,4.357,69.081.124m-1.976,10.72h4.837V173.959H321.61ZM318.4,172.813l5.866-.091-2.43.879c1.55.23,6.21.327,7.76.343m12.739,22.712,4.33-3.847M342,201.319l5.515-4.9M342,205.9l5.515-4.9M342,210.013l5.515-4.9m-19.431-8.063,4.428-3.934m-4.428,8.2,5.515-4.9m-5.515,9.327,5.515-4.9m-5.515,9.169,5.515-4.9M230.853,230.447l-.971,10.8m2.67-16.5L230,232.388" fill="none" stroke="#272525" stroke-miterlimit="2.613" stroke-width="0.7"/>
      <path id="Trazado_734158" data-name="Trazado 734158" d="M330.292,360.93H344m-.99.707,1.555-1.555m6.5-3.533-1.979-1.271m.989-20.35v20.915m-8.9-43.807h5.937v43.949h-5.937Zm.486,3.368,3.473-3.086m-3.756,6.76,5.7-5.065m-5.841,9.3,5.7-5.064m-5.7,8.739,5.7-5.065m-5.416,8.456,5.7-5.064m-5.416,9.445,5.7-5.065m-5.841,9.587,5.7-5.065m-5.84,9.587,5.7-5.065m-5.7,9.869,5.7-5.064m-5.841,9.3,5.7-5.064m-3.72,8.032,3.472-3.086m-19.164,26.544,5.7-5.065m-5.7.825,5.7-5.064m-5.7-.164,5.7-5.065m-5.558.26,5.7-5.064m-6.1-16.318,5.515-4.9m-5.374,8.953,5.515-4.9m-5.939,9.3,5.515-4.9m-5.232,9.445,5.515-4.9m-5.4,9.186,5.7-5.064M237.4,306.066h7.4l-.336,72.928,83.038.336V337.321l6.051.031v41.642l88.081.336.672-72.592,7.06.336-.672,78.642H237.4Zm16.511-109.055,1.337-1.146m162.194-1.2,1.606-1.3m-1.606,2.716,1.606-1.3m-1.606,2.524,1.606-1.3m-1.032,3.709,1.33-3.251m-2.631,3.251.782-1.912m-1.892,1.912.689-1.682m-2.181,1.682.689-1.682m-2.066,1.682.688-1.682m-2.333,1.529.765-1.377" fill="none" stroke="#272525" stroke-miterlimit="2.613" stroke-width="0.7"/>
      <path id="Trazado_734159" data-name="Trazado 734159" d="M344,358.3v5.26m-13.712-5.26v5.26" fill="none" stroke="#272525" stroke-miterlimit="2.613" stroke-width="1.008"/>
      <path id="Trazado_734160" data-name="Trazado 734160" d="M319.266,358.952l2.544,2.261-.141-1.554,3.023,2.266m5.034-.429,1.555-1.555" fill="none" stroke="#272525" stroke-miterlimit="2.613" stroke-width="0.7"/>
      <path id="Trazado_734161" data-name="Trazado 734161" d="M326.755,363.471l-1.307-2.612-1.567,2.09,2.874.522" fill="#272525" fill-rule="evenodd"/>
      <path id="Trazado_734162" data-name="Trazado 734162" d="M353.051,317.405l-2.545,2.261,2.828-.565-3.024,2.267" fill="none" stroke="#272525" stroke-miterlimit="2.613" stroke-width="0.7"/>
      <path id="Trazado_734163" data-name="Trazado 734163" d="M348.248,322.914l2.874-.522-1.568-2.09-1.306,2.612" fill="#272525" fill-rule="evenodd"/>
      <path id="Trazado_734164" data-name="Trazado 734164" d="M395.822,343.976l5.868.178-1.5,1.071,3.251-.424M245.36,349.489h14.394m-29.7-25.241,23.6.222c3.444.79,5.56,2.31,6.009,4.9l.075,19.767.625,1.838H244.854l.478-1.46.113-12.464-16.624-.224" fill="none" stroke="#272525" stroke-miterlimit="2.613" stroke-width="0.7"/>
      <path id="Trazado_734165" data-name="Trazado 734165" d="M406,344.468l-2.76-.957.338,2.589L406,344.468" fill="#272525" fill-rule="evenodd"/>
      <path id="Trazado_734166" data-name="Trazado 734166" d="M424.949,331.511h12.407m4.019-8.414-.077,6.575,1.235-1.011-.284,11.7m-22.559,9.463H406.778m34.834-25.241-28.734.222c-3.445.79-5.56,2.31-6.01,4.9l-.075,19.767-.625,1.838H420.2l-.479-1.46-.1-10.79a3,3,0,0,1,2.778-1.91l15.313.012m-14.7-33.176v-2.8m-1.3,2.279,2.28-2.018m1.009.848-179.524-.26m60.313,27.333a2.451,2.451,0,1,1-2.872,2.415A2.679,2.679,0,0,1,305.784,329.366Zm-45.894,5.091h81.28v.98H259.89Zm75.05.08,5.707.573m-12.5-.619,9.366.94m-17.207-.964,9.366.941m-16.161-.941,9.366.941m-15.638-.894,9.366.941m-17.468-.894,9.366.94m-17.729-.964,9.366.941m-17.729-.964,9.366.941m-18.252-.941,9.366.941m-17.207-.964,9.366.94m-14.854-.614,5.707.573m141.276-.086L347,334.968" fill="none" stroke="#272525" stroke-miterlimit="2.613" stroke-width="0.7"/>
      <path id="Trazado_734167" data-name="Trazado 734167" d="M437.265,329.72l3.256,1.791-3.256,1.791V329.72" fill="#272525" fill-rule="evenodd"/>
      <line id="Línea_3208" data-name="Línea 3208" y2="73.268" transform="translate(435.655 307.074)" fill="none" stroke="#272525" stroke-miterlimit="2.613" stroke-width="0.7"/>
      <path id="Trazado_734168" data-name="Trazado 734168" d="M438.167,380.342h-4.559m4.559-73.268h-5.024" fill="none" stroke="#272525" stroke-miterlimit="2.613" stroke-width="1.008"/>
      <path id="Trazado_734169" data-name="Trazado 734169" d="M227.317,331.027h12.408m-9.219-8.464-1.46,5.39,1.235-1.01-2.359,12.688m207.268-3.156,1.37,1.37" fill="none" stroke="#272525" stroke-miterlimit="2.613" stroke-width="0.7"/>
      <path id="Trazado_734170" data-name="Trazado 734170" d="M239.633,329.236l3.257,1.791-3.257,1.791v-3.582" fill="#272525" fill-rule="evenodd"/>
      <path id="Trazado_734171" data-name="Trazado 734171" d="M245.248,303.463v-2.344m-1.107,2.344,1.953-2.279" fill="none" stroke="#272525" stroke-miterlimit="2.613" stroke-width="0.7"/>
      <path id="Trazado_734172" data-name="Trazado 734172" d="M334.355,178.953v1.421h.323a1.18,1.18,0,0,0,.263-.02.409.409,0,0,0,.175-.089.461.461,0,0,0,.113-.207,1.417,1.417,0,0,0,.044-.394,1.291,1.291,0,0,0-.044-.382.486.486,0,0,0-.123-.208.417.417,0,0,0-.2-.1,2.043,2.043,0,0,0-.356-.02h-.194m-.434-.364h.793a1.512,1.512,0,0,1,.408.042.707.707,0,0,1,.324.2.942.942,0,0,1,.2.348,1.581,1.581,0,0,1,.07.508,1.413,1.413,0,0,1-.066.457.933.933,0,0,1-.23.378.749.749,0,0,1-.3.172,1.327,1.327,0,0,1-.384.045h-.816Z" fill="#272525" fill-rule="evenodd"/>
      <path id="Trazado_734173" data-name="Trazado 734173" d="M336.089,180.736v-2.147h1.592v.364h-1.158v.476H337.6v.361h-1.078v.584h1.2v.362h-1.633" fill="#272525" fill-rule="evenodd"/>
      <path id="Trazado_734174" data-name="Trazado 734174" d="M337.98,180.038,338.4,180a.514.514,0,0,0,.155.312.467.467,0,0,0,.314.1.475.475,0,0,0,.315-.089.263.263,0,0,0,.107-.206.194.194,0,0,0-.045-.13.353.353,0,0,0-.156-.093c-.051-.018-.167-.049-.347-.094a1.173,1.173,0,0,1-.489-.212.564.564,0,0,1-.105-.739.59.59,0,0,1,.268-.218,1.088,1.088,0,0,1,.422-.074.907.907,0,0,1,.609.177.631.631,0,0,1,.215.473l-.434.019a.37.37,0,0,0-.119-.238.441.441,0,0,0-.275-.072.494.494,0,0,0-.3.077.156.156,0,0,0-.069.133.166.166,0,0,0,.065.131,1.115,1.115,0,0,0,.4.143,2.119,2.119,0,0,1,.468.155.611.611,0,0,1,.238.218.638.638,0,0,1,.085.342.624.624,0,0,1-.1.345.609.609,0,0,1-.29.24,1.218,1.218,0,0,1-.467.078.926.926,0,0,1-.625-.188.813.813,0,0,1-.261-.548" fill="#272525" fill-rule="evenodd"/>
      <path id="Trazado_734175" data-name="Trazado 734175" d="M340.1,180.736v-2.147h.422l.879,1.434v-1.434h.4v2.147h-.435l-.866-1.4v1.4h-.4" fill="#272525" fill-rule="evenodd"/>
      <path id="Trazado_734176" data-name="Trazado 734176" d="M343.395,179.887l-.295-.8-.29.8h.585m.8.849h-.472l-.187-.488h-.859l-.177.488h-.46l.837-2.147h.458Z" fill="#272525" fill-rule="evenodd"/>
      <path id="Trazado_734177" data-name="Trazado 734177" d="M344.685,180.736v-1.783h-.637v-.364h1.706v.364h-.635v1.783h-.434" fill="#272525" fill-rule="evenodd"/>
      <path id="Trazado_734178" data-name="Trazado 734178" d="M346.949,179.887l-.3-.8-.29.8h.586m.8.849h-.472l-.188-.488h-.858l-.177.488h-.46l.836-2.147h.459Z" fill="#272525" fill-rule="evenodd"/>
      <path id="Trazado_734179" data-name="Trazado 734179" d="M348.41,178.953v1.421h.323a1.18,1.18,0,0,0,.263-.02.409.409,0,0,0,.175-.089.46.46,0,0,0,.113-.207,1.417,1.417,0,0,0,.044-.394,1.291,1.291,0,0,0-.044-.382.486.486,0,0,0-.123-.208.417.417,0,0,0-.2-.1,2.043,2.043,0,0,0-.356-.02h-.194m-.434-.364h.793a1.512,1.512,0,0,1,.408.042.706.706,0,0,1,.324.2.942.942,0,0,1,.2.348,1.581,1.581,0,0,1,.07.508,1.413,1.413,0,0,1-.066.457.933.933,0,0,1-.23.378.749.749,0,0,1-.3.172,1.327,1.327,0,0,1-.384.045h-.816Z" fill="#272525" fill-rule="evenodd"/>
      <path id="Trazado_734180" data-name="Trazado 734180" d="M350.5,179.662a.807.807,0,0,0,.168.553.551.551,0,0,0,.428.187.544.544,0,0,0,.426-.187.82.82,0,0,0,.166-.559.808.808,0,0,0-.162-.551.6.6,0,0,0-.862,0,.814.814,0,0,0-.164.555m-.447.014a1.375,1.375,0,0,1,.1-.551,1.042,1.042,0,0,1,.2-.294.836.836,0,0,1,.278-.193,1.173,1.173,0,0,1,.463-.085,1.009,1.009,0,0,1,.759.294,1.314,1.314,0,0,1,0,1.632,1,1,0,0,1-.755.294,1.013,1.013,0,0,1-.762-.292A1.107,1.107,0,0,1,350.056,179.676Z" fill="#272525" fill-rule="evenodd"/>
      <path id="Trazado_734181" data-name="Trazado 734181" d="M352.913,179.5h.32a1.645,1.645,0,0,0,.39-.026.233.233,0,0,0,.122-.091.28.28,0,0,0,.044-.161.262.262,0,0,0-.058-.175.27.27,0,0,0-.164-.084c-.035-.005-.14-.007-.316-.007h-.338v.544m-.434,1.239v-2.147h.913a1.543,1.543,0,0,1,.5.059.49.49,0,0,1,.25.205.622.622,0,0,1,.093.338.574.574,0,0,1-.142.4.683.683,0,0,1-.425.2,1,1,0,0,1,.233.18,2.5,2.5,0,0,1,.246.348l.263.419h-.519l-.313-.467a3.022,3.022,0,0,0-.229-.315.326.326,0,0,0-.13-.09.724.724,0,0,0-.219-.024h-.087v.9Z" fill="#272525" fill-rule="evenodd"/>
      <path id="Trazado_734182" data-name="Trazado 734182" d="M355.91,178.953v1.421h.323a1.186,1.186,0,0,0,.263-.02.4.4,0,0,0,.174-.089.452.452,0,0,0,.114-.207,1.417,1.417,0,0,0,.044-.394,1.291,1.291,0,0,0-.044-.382.486.486,0,0,0-.123-.208.417.417,0,0,0-.2-.1,2.043,2.043,0,0,0-.356-.02h-.194m-.434-.364h.793a1.512,1.512,0,0,1,.408.042.7.7,0,0,1,.323.2.93.93,0,0,1,.206.348,1.608,1.608,0,0,1,.07.508,1.413,1.413,0,0,1-.066.457.933.933,0,0,1-.23.378.756.756,0,0,1-.3.172,1.327,1.327,0,0,1-.384.045h-.816Z" fill="#272525" fill-rule="evenodd"/>
      <path id="Trazado_734183" data-name="Trazado 734183" d="M357.644,180.736v-2.147h1.592v.364h-1.158v.476h1.078v.361h-1.078v.584h1.2v.362h-1.633" fill="#272525" fill-rule="evenodd"/>
      <path id="Trazado_734184" data-name="Trazado 734184" d="M361.477,179.947v-.362h.935v.855a1.183,1.183,0,0,1-.395.233,1.459,1.459,0,0,1-.524.1,1.178,1.178,0,0,1-.587-.141.9.9,0,0,1-.376-.4,1.291,1.291,0,0,1-.127-.571,1.236,1.236,0,0,1,.141-.6.946.946,0,0,1,.412-.4,1.112,1.112,0,0,1,.514-.107,1.028,1.028,0,0,1,.624.167.763.763,0,0,1,.29.464l-.431.081a.45.45,0,0,0-.171-.25.513.513,0,0,0-.312-.091.587.587,0,0,0-.452.179.761.761,0,0,0-.168.535.84.84,0,0,0,.17.573.565.565,0,0,0,.445.191.766.766,0,0,0,.274-.053.956.956,0,0,0,.235-.13v-.272h-.5" fill="#272525" fill-rule="evenodd"/>
      <path id="Trazado_734185" data-name="Trazado 734185" d="M363.247,179.5h.32a1.645,1.645,0,0,0,.39-.026.233.233,0,0,0,.122-.091.28.28,0,0,0,.044-.161.262.262,0,0,0-.058-.175.27.27,0,0,0-.164-.084c-.035-.005-.14-.007-.316-.007h-.338v.544m-.434,1.239v-2.147h.913a1.543,1.543,0,0,1,.5.059.49.49,0,0,1,.25.205.622.622,0,0,1,.093.338.574.574,0,0,1-.142.4.683.683,0,0,1-.425.2,1,1,0,0,1,.233.18,2.5,2.5,0,0,1,.246.348l.263.419h-.519l-.313-.467a3.028,3.028,0,0,0-.229-.315.326.326,0,0,0-.13-.09.724.724,0,0,0-.219-.024h-.087v.9Z" fill="#272525" fill-rule="evenodd"/>
      <path id="Trazado_734186" data-name="Trazado 734186" d="M366.116,179.887l-.3-.8-.29.8h.586m.8.849h-.472l-.188-.488H365.4l-.177.488h-.46l.836-2.147h.459Z" fill="#272525" fill-rule="evenodd"/>
      <path id="Trazado_734187" data-name="Trazado 734187" d="M315.865,181.887c5.356-.045,11.99,1.249,13.93-.094l-1.722-1.981,4.3-.136" fill="none" stroke="#272525" stroke-linecap="round" stroke-linejoin="round" stroke-width="1"/>
      <path id="Trazado_734188" data-name="Trazado 734188" d="M313.287,181.909l2.6-1.328.022,2.611-2.624-1.283" fill="#272525" fill-rule="evenodd"/>
      <path id="Trazado_734189" data-name="Trazado 734189" d="M439.657,220.481a.205.205,0,0,0-.133.048.326.326,0,0,0-.091.171,3.506,3.506,0,0,0,0,1.056.358.358,0,0,0,.1.188.21.21,0,0,0,.266,0,.318.318,0,0,0,.091-.17,3.5,3.5,0,0,0,0-1.055.366.366,0,0,0-.1-.189.2.2,0,0,0-.133-.048m0-.341a.584.584,0,0,1,.488.223,1.92,1.92,0,0,1,0,1.75.583.583,0,0,1-.486.219.614.614,0,0,1-.505-.241,1.96,1.96,0,0,1,.019-1.731A.584.584,0,0,1,439.657,220.14Z" fill="#272525" fill-rule="evenodd"/>
      <rect id="Rectángulo_350474" data-name="Rectángulo 350474" width="0.412" height="0.411" transform="translate(440.718 221.884)" fill="#272525"/>
      <path id="Trazado_734190" data-name="Trazado 734190" d="M441.864,221.643a.375.375,0,0,0,.087.265.281.281,0,0,0,.217.1.273.273,0,0,0,.211-.092.382.382,0,0,0,.083-.264.337.337,0,0,0-.085-.242.28.28,0,0,0-.215-.092.259.259,0,0,0-.225.1.381.381,0,0,0-.073.226m.037-.92a.256.256,0,0,0,.07.192.285.285,0,0,0,.373,0,.26.26,0,0,0,.07-.192.238.238,0,0,0-.253-.255.241.241,0,0,0-.26.256Zm-.085.415a.465.465,0,0,1-.3-.444.519.519,0,0,1,.168-.4.8.8,0,0,1,.951,0,.514.514,0,0,1,.17.4.469.469,0,0,1-.078.266.5.5,0,0,1-.218.178.574.574,0,0,1,.272.209.56.56,0,0,1,.093.317.649.649,0,0,1-.19.484.691.691,0,0,1-.505.186.764.764,0,0,1-.488-.154.6.6,0,0,1-.229-.5.621.621,0,0,1,.086-.32A.557.557,0,0,1,441.816,221.138Z" fill="#272525" fill-rule="evenodd"/>
      <path id="Trazado_734191" data-name="Trazado 734191" d="M443.827,220.481a.205.205,0,0,0-.133.048.333.333,0,0,0-.091.171,3.507,3.507,0,0,0,0,1.056.358.358,0,0,0,.1.188.207.207,0,0,0,.132.047.2.2,0,0,0,.134-.048.318.318,0,0,0,.091-.17,3.5,3.5,0,0,0,0-1.055.366.366,0,0,0-.1-.189.2.2,0,0,0-.133-.048m0-.341a.584.584,0,0,1,.488.223,1.924,1.924,0,0,1,0,1.75.586.586,0,0,1-.487.219.614.614,0,0,1-.505-.241,1.96,1.96,0,0,1,.019-1.731A.585.585,0,0,1,443.827,220.14Z" fill="#272525" fill-rule="evenodd"/>
      <path id="Trazado_734192" data-name="Trazado 734192" d="M297.791,190.29h.32a1.706,1.706,0,0,0,.39-.026.239.239,0,0,0,.122-.091.282.282,0,0,0,.044-.161.258.258,0,0,0-.058-.175.266.266,0,0,0-.164-.085c-.035,0-.14-.007-.316-.007h-.338v.545m-.434,1.239v-2.147h.913a1.549,1.549,0,0,1,.5.058.5.5,0,0,1,.25.205.625.625,0,0,1,.093.339.572.572,0,0,1-.142.4.677.677,0,0,1-.425.2,1.006,1.006,0,0,1,.233.181,2.379,2.379,0,0,1,.246.348l.263.419h-.519l-.313-.468a3.02,3.02,0,0,0-.229-.315.336.336,0,0,0-.13-.09.758.758,0,0,0-.219-.024h-.087v.9Z" fill="#272525" fill-rule="evenodd"/>
      <path id="Trazado_734193" data-name="Trazado 734193" d="M299.522,191.529v-2.147h1.592v.363h-1.158v.476h1.078v.361h-1.078v.585h1.2v.362h-1.633" fill="#272525" fill-rule="evenodd"/>
      <path id="Trazado_734194" data-name="Trazado 734194" d="M302.522,190.74v-.362h.935v.855a1.183,1.183,0,0,1-.395.232,1.437,1.437,0,0,1-.524.1,1.178,1.178,0,0,1-.587-.141.9.9,0,0,1-.377-.4,1.308,1.308,0,0,1-.126-.572,1.235,1.235,0,0,1,.141-.6.948.948,0,0,1,.412-.4,1.112,1.112,0,0,1,.514-.106,1.022,1.022,0,0,1,.624.167.757.757,0,0,1,.29.464l-.431.08a.453.453,0,0,0-.171-.25.512.512,0,0,0-.312-.091.588.588,0,0,0-.452.18.758.758,0,0,0-.168.535.843.843,0,0,0,.17.573.568.568,0,0,0,.445.191.746.746,0,0,0,.274-.054.955.955,0,0,0,.235-.129v-.272h-.5" fill="#272525" fill-rule="evenodd"/>
      <rect id="Rectángulo_350475" data-name="Rectángulo 350475" width="0.433" height="2.147" transform="translate(303.843 189.382)" fill="#272525"/>
      <path id="Trazado_734195" data-name="Trazado 734195" d="M304.58,190.83l.422-.041a.508.508,0,0,0,.154.312.469.469,0,0,0,.314.1.484.484,0,0,0,.316-.089.264.264,0,0,0,.107-.207.192.192,0,0,0-.046-.13.352.352,0,0,0-.155-.092c-.051-.019-.167-.049-.347-.1a1.161,1.161,0,0,1-.489-.212.566.566,0,0,1-.106-.739.6.6,0,0,1,.269-.217,1.084,1.084,0,0,1,.422-.074.912.912,0,0,1,.609.176.628.628,0,0,1,.214.474l-.433.019a.364.364,0,0,0-.12-.238.431.431,0,0,0-.274-.073.493.493,0,0,0-.3.078.155.155,0,0,0-.069.133.161.161,0,0,0,.065.13,1.129,1.129,0,0,0,.4.144,2.126,2.126,0,0,1,.468.154.6.6,0,0,1,.237.219.672.672,0,0,1-.017.687.613.613,0,0,1-.29.239,1.2,1.2,0,0,1-.467.079.931.931,0,0,1-.625-.188.818.818,0,0,1-.261-.549" fill="#272525" fill-rule="evenodd"/>
      <path id="Trazado_734196" data-name="Trazado 734196" d="M307.174,191.529v-1.784h-.637v-.363h1.706v.363h-.635v1.784h-.434" fill="#272525" fill-rule="evenodd"/>
      <path id="Trazado_734197" data-name="Trazado 734197" d="M308.958,190.29h.321a1.706,1.706,0,0,0,.39-.026.236.236,0,0,0,.121-.091.283.283,0,0,0,.044-.161.253.253,0,0,0-.058-.175.263.263,0,0,0-.163-.085c-.035,0-.141-.007-.317-.007h-.338v.545m-.434,1.239v-2.147h.913a1.545,1.545,0,0,1,.5.058.5.5,0,0,1,.25.205.618.618,0,0,1,.094.339.576.576,0,0,1-.142.4.683.683,0,0,1-.425.2,1,1,0,0,1,.232.181,2.448,2.448,0,0,1,.247.348l.262.419h-.518l-.314-.468a2.915,2.915,0,0,0-.228-.315.339.339,0,0,0-.131-.09.75.75,0,0,0-.218-.024h-.088v.9Z" fill="#272525" fill-rule="evenodd"/>
      <path id="Trazado_734198" data-name="Trazado 734198" d="M311.048,190.454a.808.808,0,0,0,.169.553.55.55,0,0,0,.428.188.543.543,0,0,0,.425-.187,1.026,1.026,0,0,0,.005-1.111.6.6,0,0,0-.863,0,.811.811,0,0,0-.164.554m-.446.015a1.355,1.355,0,0,1,.1-.551,1.012,1.012,0,0,1,.2-.295.863.863,0,0,1,.277-.193,1.174,1.174,0,0,1,.463-.084,1.006,1.006,0,0,1,.76.294,1.314,1.314,0,0,1,0,1.632,1.131,1.131,0,0,1-1.518,0A1.11,1.11,0,0,1,310.6,190.469Z" fill="#272525" fill-rule="evenodd"/>
      <path id="Trazado_734199" data-name="Trazado 734199" d="M313.751,190.959l.4-.048a.374.374,0,0,0,.1.232.28.28,0,0,0,.2.081.273.273,0,0,0,.214-.1.369.369,0,0,0,.088-.26.348.348,0,0,0-.084-.246.263.263,0,0,0-.2-.091.732.732,0,0,0-.189.03l.045-.334a.365.365,0,0,0,.255-.073.259.259,0,0,0,.088-.2.232.232,0,0,0-.064-.173.235.235,0,0,0-.172-.065.247.247,0,0,0-.18.074.342.342,0,0,0-.091.213l-.379-.064a.839.839,0,0,1,.119-.311.534.534,0,0,1,.223-.183.736.736,0,0,1,.32-.067.637.637,0,0,1,.486.193.49.49,0,0,1-.158.809.5.5,0,0,1,.295.177.517.517,0,0,1,.111.332.648.648,0,0,1-.207.482.772.772,0,0,1-1,.032.662.662,0,0,1-.223-.439" fill="#272525" fill-rule="evenodd"/>
      <path id="Trazado_734200" data-name="Trazado 734200" d="M315.494,189.382h.412v.3a1,1,0,0,1-.031.281.431.431,0,0,1-.116.185.6.6,0,0,1-.218.13l-.081-.172a.34.34,0,0,0,.178-.114.352.352,0,0,0,.055-.2h-.2v-.411m.692,0h.411v.3a.99.99,0,0,1-.032.281.431.431,0,0,1-.116.185.611.611,0,0,1-.216.13l-.081-.172a.342.342,0,0,0,.176-.114.329.329,0,0,0,.055-.2h-.2Z" fill="#272525" fill-rule="evenodd"/>
      <path id="Trazado_734201" data-name="Trazado 734201" d="M255.128,206.5v.608h.237a1.146,1.146,0,0,0,.343-.033.3.3,0,0,0,.135-.1.29.29,0,0,0,.049-.167.278.278,0,0,0-.069-.194.3.3,0,0,0-.174-.095,2.084,2.084,0,0,0-.312-.014h-.209m-.434,1.783v-2.147h.7a2.461,2.461,0,0,1,.515.033.563.563,0,0,1,.31.21.665.665,0,0,1,.124.417.7.7,0,0,1-.072.333.593.593,0,0,1-.182.212.625.625,0,0,1-.225.1,2.422,2.422,0,0,1-.45.031h-.282v.81Z" fill="#272525" fill-rule="evenodd"/>
      <path id="Trazado_734202" data-name="Trazado 734202" d="M257.55,207.536a2.3,2.3,0,0,1-.25.063.785.785,0,0,0-.224.072.171.171,0,0,0-.081.145.2.2,0,0,0,.065.149.224.224,0,0,0,.164.063.354.354,0,0,0,.212-.073.251.251,0,0,0,.1-.136.8.8,0,0,0,.016-.2v-.082M257,207.2l-.374-.067a.584.584,0,0,1,.217-.334.8.8,0,0,1,.457-.109.989.989,0,0,1,.41.066.418.418,0,0,1,.19.165.864.864,0,0,1,.055.369l0,.48a1.665,1.665,0,0,0,.02.3.878.878,0,0,0,.074.209h-.407c-.011-.028-.024-.068-.04-.122a.489.489,0,0,0-.014-.048.739.739,0,0,1-.226.154.646.646,0,0,1-.256.051.53.53,0,0,1-.379-.13.435.435,0,0,1-.138-.33.445.445,0,0,1,.063-.235.415.415,0,0,1,.176-.158,1.447,1.447,0,0,1,.328-.1,2.244,2.244,0,0,0,.4-.1v-.041a.213.213,0,0,0-.058-.169.356.356,0,0,0-.221-.05.294.294,0,0,0-.172.043A.3.3,0,0,0,257,207.2Z" fill="#272525" fill-rule="evenodd"/>
      <path id="Trazado_734203" data-name="Trazado 734203" d="M258.216,207.839l.413-.063a.3.3,0,0,0,.107.183.361.361,0,0,0,.225.062.4.4,0,0,0,.24-.059.128.128,0,0,0,.055-.109.106.106,0,0,0-.03-.078.31.31,0,0,0-.137-.054,2.2,2.2,0,0,1-.632-.2.4.4,0,0,1-.184-.35.432.432,0,0,1,.159-.34.752.752,0,0,1,.495-.138.876.876,0,0,1,.475.1.531.531,0,0,1,.214.308l-.388.072a.24.24,0,0,0-.1-.139.337.337,0,0,0-.2-.048.45.45,0,0,0-.233.045.1.1,0,0,0-.047.084.092.092,0,0,0,.041.074,1.511,1.511,0,0,0,.385.116,1.124,1.124,0,0,1,.459.183.38.38,0,0,1,.129.306.473.473,0,0,1-.179.368.793.793,0,0,1-.529.153.867.867,0,0,1-.5-.129.586.586,0,0,1-.242-.35" fill="#272525" fill-rule="evenodd"/>
      <path id="Trazado_734204" data-name="Trazado 734204" d="M260.356,207.505a.512.512,0,0,0,.11.355.359.359,0,0,0,.541,0,.522.522,0,0,0,.109-.358.511.511,0,0,0-.109-.351.359.359,0,0,0-.541,0,.511.511,0,0,0-.11.354m-.422-.022a.848.848,0,0,1,.1-.4.694.694,0,0,1,.286-.292.846.846,0,0,1,.414-.1.779.779,0,0,1,.579.23.793.793,0,0,1,.225.579.8.8,0,0,1-.227.585.77.77,0,0,1-.574.232.9.9,0,0,1-.408-.1.657.657,0,0,1-.295-.283A.947.947,0,0,1,259.934,207.483Z" fill="#272525" fill-rule="evenodd"/>
      <path id="Trazado_734205" data-name="Trazado 734205" d="M261.717,207.839l.413-.063a.306.306,0,0,0,.106.183.366.366,0,0,0,.226.062.4.4,0,0,0,.24-.059.13.13,0,0,0,.054-.109.109.109,0,0,0-.029-.078.315.315,0,0,0-.138-.054,2.193,2.193,0,0,1-.631-.2.4.4,0,0,1-.184-.35.432.432,0,0,1,.159-.34.748.748,0,0,1,.495-.138.878.878,0,0,1,.475.1.53.53,0,0,1,.213.308l-.387.072a.245.245,0,0,0-.1-.139.343.343,0,0,0-.2-.048.455.455,0,0,0-.233.045.1.1,0,0,0-.046.084.092.092,0,0,0,.041.074,1.513,1.513,0,0,0,.384.116,1.117,1.117,0,0,1,.459.183.377.377,0,0,1,.129.306.47.47,0,0,1-.179.368.792.792,0,0,1-.528.153.873.873,0,0,1-.5-.129.589.589,0,0,1-.241-.35" fill="#272525" fill-rule="evenodd"/>
      <path id="Trazado_734206" data-name="Trazado 734206" d="M265.428,207.265l-.574.663a.358.358,0,0,0,.221.071.365.365,0,0,0,.283-.127.512.512,0,0,0,.114-.355.7.7,0,0,0-.044-.252m-.126-.179a.348.348,0,0,0-.223-.078.363.363,0,0,0-.28.127.513.513,0,0,0-.115.357.785.785,0,0,0,.041.261Zm.231-.266.153-.175.164.134-.158.182a.793.793,0,0,1,.138.246.887.887,0,0,1,.051.3.791.791,0,0,1-.23.58.782.782,0,0,1-.577.231.835.835,0,0,1-.45-.123l-.169.195-.161-.139.17-.2a.822.822,0,0,1-.138-.255.927.927,0,0,1-.051-.3.774.774,0,0,1,.8-.8A.818.818,0,0,1,265.533,206.82Z" fill="#272525" fill-rule="evenodd"/>
      <path id="Trazado_734207" data-name="Trazado 734207" d="M266.947,207.731l.41-.042a.352.352,0,0,0,.1.22.282.282,0,0,0,.2.081.277.277,0,0,0,.218-.1.477.477,0,0,0,.09-.316.429.429,0,0,0-.089-.3.3.3,0,0,0-.23-.1.419.419,0,0,0-.318.157l-.334-.048.211-1.117H268.3v.385h-.776l-.065.364a.632.632,0,0,1,.281-.068.617.617,0,0,1,.464.2.72.72,0,0,1,.191.518.774.774,0,0,1-.154.473.681.681,0,0,1-.581.284.72.72,0,0,1-.485-.16.656.656,0,0,1-.224-.429" fill="#272525" fill-rule="evenodd"/>
      <path id="Trazado_734208" data-name="Trazado 734208" d="M268.477,208.32l.532-2.22h.309l-.537,2.22h-.3" fill="#272525" fill-rule="evenodd"/>
      <path id="Trazado_734209" data-name="Trazado 734209" d="M269.843,207.63a.378.378,0,0,0,.087.265.279.279,0,0,0,.217.1.272.272,0,0,0,.211-.091.38.38,0,0,0,.084-.265.345.345,0,0,0-.085-.242.283.283,0,0,0-.216-.092.257.257,0,0,0-.224.1.38.38,0,0,0-.074.226m.038-.919a.257.257,0,0,0,.069.191.287.287,0,0,0,.373,0,.26.26,0,0,0,.07-.193.239.239,0,0,0-.253-.255.259.259,0,0,0-.189.07A.252.252,0,0,0,269.881,206.711Zm-.085.414a.462.462,0,0,1-.3-.444.521.521,0,0,1,.168-.4.8.8,0,0,1,.952,0,.518.518,0,0,1,.169.4.467.467,0,0,1-.078.266.483.483,0,0,1-.218.178.57.57,0,0,1,.272.209.556.556,0,0,1,.093.318.645.645,0,0,1-.19.483.687.687,0,0,1-.5.186.765.765,0,0,1-.488-.153.6.6,0,0,1-.23-.5.624.624,0,0,1,.086-.32A.555.555,0,0,1,269.8,207.125Z" fill="#272525" fill-rule="evenodd"/>
      <path id="Trazado_734210" data-name="Trazado 734210" d="M273.389,207.188l-.406.073a.288.288,0,0,0-.093-.183.28.28,0,0,0-.188-.062.308.308,0,0,0-.245.106.547.547,0,0,0-.092.356.63.63,0,0,0,.093.391.305.305,0,0,0,.25.114.276.276,0,0,0,.192-.067.4.4,0,0,0,.105-.229l.4.069a.717.717,0,0,1-.242.42.748.748,0,0,1-.479.142.712.712,0,0,1-.544-.215.83.83,0,0,1-.2-.6.84.84,0,0,1,.2-.6.725.725,0,0,1,.551-.215.748.748,0,0,1,.452.123.676.676,0,0,1,.241.373" fill="#272525" fill-rule="evenodd"/>
      <rect id="Rectángulo_350476" data-name="Rectángulo 350476" width="0.412" height="0.411" transform="translate(273.701 207.872)" fill="#272525"/>
      <path id="Trazado_734211" data-name="Trazado 734211" d="M275.729,207.208a.806.806,0,0,0,.169.553.579.579,0,0,0,.853,0,1.024,1.024,0,0,0,.005-1.11.55.55,0,0,0-.43-.182.556.556,0,0,0-.433.184.813.813,0,0,0-.164.554m-.446.015a1.358,1.358,0,0,1,.1-.551,1.008,1.008,0,0,1,.2-.294.833.833,0,0,1,.277-.193,1.173,1.173,0,0,1,.463-.085,1.009,1.009,0,0,1,.76.294,1.314,1.314,0,0,1,0,1.632,1.13,1.13,0,0,1-1.518,0A1.113,1.113,0,0,1,275.283,207.223Z" fill="#272525" fill-rule="evenodd"/>
      <rect id="Rectángulo_350477" data-name="Rectángulo 350477" width="0.412" height="0.411" transform="translate(277.701 207.872)" fill="#272525"/>
      <path id="Trazado_734212" data-name="Trazado 734212" d="M279.382,208.283v-2.129h.434v1.767h1.078v.362h-1.512" fill="#272525" fill-rule="evenodd"/>
      <path id="Trazado_734213" data-name="Trazado 734213" d="M281.1,207.713l.4-.048a.377.377,0,0,0,.1.233.288.288,0,0,0,.416-.016.376.376,0,0,0,.087-.261.349.349,0,0,0-.083-.246.266.266,0,0,0-.2-.091.709.709,0,0,0-.189.031l.046-.335a.358.358,0,0,0,.255-.073.259.259,0,0,0,.088-.2.235.235,0,0,0-.065-.173.231.231,0,0,0-.171-.064.244.244,0,0,0-.18.073.339.339,0,0,0-.091.214l-.38-.065a.853.853,0,0,1,.12-.311.546.546,0,0,1,.222-.183.757.757,0,0,1,.32-.067.639.639,0,0,1,.487.194.489.489,0,0,1-.158.808.5.5,0,0,1,.3.177.52.52,0,0,1,.11.333.648.648,0,0,1-.206.482.772.772,0,0,1-1,.031.656.656,0,0,1-.222-.439" fill="#272525" fill-rule="evenodd"/>
      <path id="Trazado_734214" data-name="Trazado 734214" d="M285.085,207.766a.639.639,0,0,0,.125-.237,1.107,1.107,0,0,0,.041-.319.815.815,0,0,0-.163-.556.593.593,0,0,0-.859,0,.807.807,0,0,0-.166.556.827.827,0,0,0,.166.563.532.532,0,0,0,.416.187.506.506,0,0,0,.178-.032,1.291,1.291,0,0,0-.268-.134l.121-.248a1.466,1.466,0,0,1,.409.22m.348.245a1.4,1.4,0,0,0,.347.181l-.159.306a.99.99,0,0,1-.192-.08c-.014-.007-.11-.07-.288-.191a1.154,1.154,0,0,1-.468.093,1.022,1.022,0,0,1-.775-.292,1.331,1.331,0,0,1,0-1.636,1.01,1.01,0,0,1,.764-.292,1,1,0,0,1,.756.292,1.132,1.132,0,0,1,.28.818,1.434,1.434,0,0,1-.077.489A1.047,1.047,0,0,1,285.433,208.011Z" fill="#272525" fill-rule="evenodd"/>
      <path id="Trazado_734215" data-name="Trazado 734215" d="M351.116,313.9v.609h.237a1.147,1.147,0,0,0,.343-.033.289.289,0,0,0,.136-.106.293.293,0,0,0,.049-.167.277.277,0,0,0-.069-.193.3.3,0,0,0-.174-.1,2.062,2.062,0,0,0-.312-.015h-.21m-.433,1.784v-2.147h.695a2.569,2.569,0,0,1,.516.032.561.561,0,0,1,.309.21.668.668,0,0,1,.125.418.706.706,0,0,1-.072.332.6.6,0,0,1-.183.212.641.641,0,0,1-.224.1,2.526,2.526,0,0,1-.45.031h-.283v.81Z" fill="#272525" fill-rule="evenodd"/>
      <path id="Trazado_734216" data-name="Trazado 734216" d="M353.6,314.835l-.3-.8-.29.8h.586m.8.85h-.472l-.187-.488h-.859l-.176.488h-.46l.836-2.147h.458Z" fill="#272525" fill-rule="evenodd"/>
      <path id="Trazado_734217" data-name="Trazado 734217" d="M354.632,315.685v-2.147h.422l.878,1.433v-1.433h.4v2.147H355.9l-.865-1.4v1.4h-.4" fill="#272525" fill-rule="evenodd"/>
      <path id="Trazado_734218" data-name="Trazado 734218" d="M357.277,315.685V313.9h-.637v-.363h1.706v.363h-.635v1.784h-.434" fill="#272525" fill-rule="evenodd"/>
      <path id="Trazado_734219" data-name="Trazado 734219" d="M359.542,314.835l-.3-.8-.29.8h.586m.8.85h-.472l-.187-.488h-.859l-.177.488h-.46l.837-2.147h.458Z" fill="#272525" fill-rule="evenodd"/>
      <path id="Trazado_734220" data-name="Trazado 734220" d="M360.582,315.685v-2.13h.433v1.768h1.078v.362h-1.511" fill="#272525" fill-rule="evenodd"/>
      <path id="Trazado_734221" data-name="Trazado 734221" d="M362.414,315.685v-2.13h.434v1.768h1.077v.362h-1.511" fill="#272525" fill-rule="evenodd"/>
      <path id="Trazado_734222" data-name="Trazado 734222" d="M365.373,314.835l-.3-.8-.29.8h.586m.8.85H365.7l-.187-.488h-.859l-.177.488h-.46l.837-2.147h.458Z" fill="#272525" fill-rule="evenodd"/>
      <path id="Trazado_734223" data-name="Trazado 734223" d="M302.845,357.645v.609h.237a1.1,1.1,0,0,0,.343-.034.283.283,0,0,0,.135-.105.288.288,0,0,0,.049-.167.279.279,0,0,0-.069-.194.3.3,0,0,0-.174-.1,2.084,2.084,0,0,0-.312-.014h-.209m-.434,1.783v-2.147h.7a2.462,2.462,0,0,1,.515.033.563.563,0,0,1,.31.21.672.672,0,0,1,.124.418.694.694,0,0,1-.072.332.593.593,0,0,1-.182.212.624.624,0,0,1-.225.1,2.4,2.4,0,0,1-.45.032h-.282v.809Z" fill="#272525" fill-rule="evenodd"/>
      <path id="Trazado_734224" data-name="Trazado 734224" d="M305.327,358.579l-.3-.8-.289.8h.585m.8.849h-.472l-.187-.488h-.859l-.177.488h-.46l.837-2.147h.458Z" fill="#272525" fill-rule="evenodd"/>
      <path id="Trazado_734225" data-name="Trazado 734225" d="M306.36,359.428v-2.147h.422l.879,1.434v-1.434h.4v2.147h-.435l-.866-1.4v1.4h-.4" fill="#272525" fill-rule="evenodd"/>
      <path id="Trazado_734226" data-name="Trazado 734226" d="M309.006,359.428v-1.783h-.637v-.364h1.706v.364h-.635v1.783h-.434" fill="#272525" fill-rule="evenodd"/>
      <path id="Trazado_734227" data-name="Trazado 734227" d="M311.27,358.579l-.3-.8-.29.8h.586m.8.849H311.6l-.188-.488h-.858l-.177.488h-.46l.836-2.147h.459Z" fill="#272525" fill-rule="evenodd"/>
      <path id="Trazado_734228" data-name="Trazado 734228" d="M312.31,359.428V357.3h.434v1.767h1.078v.362H312.31" fill="#272525" fill-rule="evenodd"/>
      <path id="Trazado_734229" data-name="Trazado 734229" d="M314.142,359.428V357.3h.434v1.767h1.078v.362h-1.512" fill="#272525" fill-rule="evenodd"/>
      <path id="Trazado_734230" data-name="Trazado 734230" d="M317.1,358.579l-.3-.8-.29.8h.586m.8.849h-.472l-.188-.488h-.858l-.177.488h-.46l.836-2.147h.459Z" fill="#272525" fill-rule="evenodd"/>
      <path id="Trazado_734231" data-name="Trazado 734231" d="M336.051,358.345a.2.2,0,0,0-.133.048.319.319,0,0,0-.091.171,3.465,3.465,0,0,0-.005,1.056.373.373,0,0,0,.1.188.208.208,0,0,0,.133.047.2.2,0,0,0,.133-.048.312.312,0,0,0,.091-.17,3.458,3.458,0,0,0,.005-1.055.382.382,0,0,0-.1-.189.2.2,0,0,0-.133-.048m0-.341a.586.586,0,0,1,.488.223,1.926,1.926,0,0,1,0,1.749.584.584,0,0,1-.486.22.613.613,0,0,1-.505-.241,1.96,1.96,0,0,1,.019-1.731A.584.584,0,0,1,336.051,358Z" fill="#272525" fill-rule="evenodd"/>
      <rect id="Rectángulo_350478" data-name="Rectángulo 350478" width="0.412" height="0.411" transform="translate(337.112 359.748)" fill="#272525"/>
      <path id="Trazado_734232" data-name="Trazado 734232" d="M339.247,359.777v.383H337.8a1,1,0,0,1,.141-.411,2.733,2.733,0,0,1,.463-.515,2.757,2.757,0,0,0,.341-.352.445.445,0,0,0,.085-.251.285.285,0,0,0-.074-.212.313.313,0,0,0-.409,0,.4.4,0,0,0-.088.258l-.41-.041a.671.671,0,0,1,.23-.488.77.77,0,0,1,.483-.148.7.7,0,0,1,.5.171.565.565,0,0,1,.181.427.739.739,0,0,1-.052.276,1.114,1.114,0,0,1-.164.274,2.7,2.7,0,0,1-.27.274c-.13.119-.212.2-.247.237a.72.72,0,0,0-.084.114h.817" fill="#272525" fill-rule="evenodd"/>
      <path id="Trazado_734233" data-name="Trazado 734233" d="M340.221,358.345a.205.205,0,0,0-.133.048.326.326,0,0,0-.091.171,3.5,3.5,0,0,0,0,1.056.358.358,0,0,0,.1.188.21.21,0,0,0,.266,0,.318.318,0,0,0,.091-.17,3.5,3.5,0,0,0,0-1.055.366.366,0,0,0-.1-.189.2.2,0,0,0-.133-.048m0-.341a.584.584,0,0,1,.488.223,1.918,1.918,0,0,1,0,1.749.581.581,0,0,1-.486.22.614.614,0,0,1-.505-.241,1.96,1.96,0,0,1,.019-1.731A.584.584,0,0,1,340.221,358Z" fill="#272525" fill-rule="evenodd"/>
      <path id="Trazado_734234" data-name="Trazado 734234" d="M352.506,346.769a.211.211,0,0,0-.133.048.319.319,0,0,0-.091.171,3.465,3.465,0,0,0-.005,1.056.365.365,0,0,0,.1.188.206.206,0,0,0,.132.048.2.2,0,0,0,.133-.049.306.306,0,0,0,.091-.17,3.457,3.457,0,0,0,0-1.055.382.382,0,0,0-.1-.189.209.209,0,0,0-.133-.048m0-.341a.587.587,0,0,1,.488.223,1.928,1.928,0,0,1,0,1.75.584.584,0,0,1-.486.219.616.616,0,0,1-.505-.24,1.962,1.962,0,0,1,.019-1.732A.586.586,0,0,1,352.506,346.428Z" fill="#272525" fill-rule="evenodd"/>
      <rect id="Rectángulo_350479" data-name="Rectángulo 350479" width="0.412" height="0.411" transform="translate(353.567 348.172)" fill="#272525"/>
      <path id="Trazado_734235" data-name="Trazado 734235" d="M355.7,348.2v.382h-1.443a1,1,0,0,1,.141-.411,2.734,2.734,0,0,1,.463-.515,2.851,2.851,0,0,0,.341-.351.451.451,0,0,0,.085-.252.287.287,0,0,0-.074-.212.313.313,0,0,0-.409,0,.4.4,0,0,0-.088.258l-.41-.041a.671.671,0,0,1,.23-.488.776.776,0,0,1,.483-.148.7.7,0,0,1,.5.172.561.561,0,0,1,.181.426.736.736,0,0,1-.052.276,1.1,1.1,0,0,1-.164.274,2.592,2.592,0,0,1-.27.274c-.13.119-.212.2-.247.238a.639.639,0,0,0-.084.114h.817" fill="#272525" fill-rule="evenodd"/>
      <path id="Trazado_734236" data-name="Trazado 734236" d="M355.987,348.032l.41-.042a.349.349,0,0,0,.1.22.281.281,0,0,0,.2.081.277.277,0,0,0,.218-.1.477.477,0,0,0,.09-.316.434.434,0,0,0-.089-.3.3.3,0,0,0-.231-.1.422.422,0,0,0-.318.157l-.334-.048.211-1.117h1.089v.385h-.777l-.064.364a.628.628,0,0,1,.745.13.72.72,0,0,1,.191.518.769.769,0,0,1-.154.472.68.68,0,0,1-.581.284.723.723,0,0,1-.485-.159.656.656,0,0,1-.224-.429" fill="#272525" fill-rule="evenodd"/>
      <path id="Trazado_734237" data-name="Trazado 734237" d="M386.489,344.139l.42.133a.948.948,0,0,1-.322.522.911.911,0,0,1-.57.171.926.926,0,0,1-.7-.292,1.116,1.116,0,0,1-.275-.8,1.175,1.175,0,0,1,.276-.832.949.949,0,0,1,.728-.3.894.894,0,0,1,.64.233.835.835,0,0,1,.22.4l-.429.1a.442.442,0,0,0-.452-.36.49.49,0,0,0-.388.171.84.84,0,0,0-.148.555.894.894,0,0,0,.146.579.476.476,0,0,0,.381.174.435.435,0,0,0,.3-.11.645.645,0,0,0,.179-.346" fill="#272525" fill-rule="evenodd"/>
      <path id="Trazado_734238" data-name="Trazado 734238" d="M387.64,343.854a.808.808,0,0,0,.169.553.549.549,0,0,0,.428.188.543.543,0,0,0,.425-.187,1.025,1.025,0,0,0,.005-1.111.6.6,0,0,0-.863,0,.81.81,0,0,0-.164.554m-.447.014a1.358,1.358,0,0,1,.1-.551,1.022,1.022,0,0,1,.2-.294.848.848,0,0,1,.277-.193,1.174,1.174,0,0,1,.463-.085,1.009,1.009,0,0,1,.759.294,1.314,1.314,0,0,1,0,1.632,1,1,0,0,1-.755.294,1.016,1.016,0,0,1-.762-.292A1.111,1.111,0,0,1,387.193,343.868Z" fill="#272525" fill-rule="evenodd"/>
      <path id="Trazado_734239" data-name="Trazado 734239" d="M390.047,343.145v1.422h.323a1.164,1.164,0,0,0,.263-.021.4.4,0,0,0,.175-.089.471.471,0,0,0,.114-.207,1.461,1.461,0,0,0,.043-.394,1.331,1.331,0,0,0-.043-.382.5.5,0,0,0-.124-.208.417.417,0,0,0-.2-.1,1.938,1.938,0,0,0-.357-.021h-.194m-.433-.363h.792a1.515,1.515,0,0,1,.408.041.724.724,0,0,1,.324.2.928.928,0,0,1,.2.348,1.58,1.58,0,0,1,.07.508,1.413,1.413,0,0,1-.066.457.926.926,0,0,1-.23.378.742.742,0,0,1-.3.172,1.322,1.322,0,0,1-.384.045h-.815Z" fill="#272525" fill-rule="evenodd"/>
      <path id="Trazado_734240" data-name="Trazado 734240" d="M392.14,343.854a.812.812,0,0,0,.168.553.552.552,0,0,0,.428.188.544.544,0,0,0,.426-.187,1.025,1.025,0,0,0,.005-1.111.6.6,0,0,0-.863,0,.81.81,0,0,0-.164.554m-.447.014a1.376,1.376,0,0,1,.1-.551,1.025,1.025,0,0,1,.2-.294.837.837,0,0,1,.277-.193,1.174,1.174,0,0,1,.463-.085,1.009,1.009,0,0,1,.759.294,1.314,1.314,0,0,1,0,1.632,1,1,0,0,1-.755.294,1.012,1.012,0,0,1-.762-.292A1.107,1.107,0,0,1,391.693,343.868Z" fill="#272525" fill-rule="evenodd"/>
      <path id="Trazado_734241" data-name="Trazado 734241" d="M310.539,329.315v.382H309.1a1.007,1.007,0,0,1,.141-.411,2.728,2.728,0,0,1,.463-.515,2.779,2.779,0,0,0,.341-.351.45.45,0,0,0,.085-.252.283.283,0,0,0-.074-.211.272.272,0,0,0-.2-.074.275.275,0,0,0-.2.077.4.4,0,0,0-.088.258l-.41-.041a.669.669,0,0,1,.23-.487.766.766,0,0,1,.483-.148.7.7,0,0,1,.5.171.561.561,0,0,1,.181.426.732.732,0,0,1-.052.276,1.123,1.123,0,0,1-.165.275,2.553,2.553,0,0,1-.269.274c-.13.118-.212.2-.247.237a.8.8,0,0,0-.085.114h.818" fill="#272525" fill-rule="evenodd"/>
      <path id="Trazado_734242" data-name="Trazado 734242" d="M310.877,327.55h.412v.3a1,1,0,0,1-.031.281.419.419,0,0,1-.116.186.584.584,0,0,1-.218.129l-.08-.171a.292.292,0,0,0,.232-.309h-.2v-.412m.692,0h.411v.3a1,1,0,0,1-.031.281.431.431,0,0,1-.117.186.591.591,0,0,1-.216.129l-.081-.171a.342.342,0,0,0,.177-.114.336.336,0,0,0,.055-.2h-.2Z" fill="#272525" fill-rule="evenodd"/>
      <path id="Trazado_734243" data-name="Trazado 734243" d="M294.32,299.844v-2.129h.434v1.767h1.077v.362H294.32" fill="#272525" fill-rule="evenodd"/>
      <path id="Trazado_734244" data-name="Trazado 734244" d="M437.466,317.368l-.767-2.147h.47l.543,1.589.527-1.589h.459l-.768,2.147h-.464" fill="#272525" fill-rule="evenodd"/>
      <path id="Trazado_734245" data-name="Trazado 734245" d="M439.835,316.519l-.3-.8-.29.8h.586m.8.849h-.472l-.188-.488h-.858l-.177.488h-.46l.836-2.147h.459Z" fill="#272525" fill-rule="evenodd"/>
      <path id="Trazado_734246" data-name="Trazado 734246" d="M441.3,316.129h.32a1.705,1.705,0,0,0,.39-.026.239.239,0,0,0,.122-.091.283.283,0,0,0,.044-.161.26.26,0,0,0-.058-.175.265.265,0,0,0-.164-.084c-.035-.005-.14-.007-.316-.007H441.3v.544m-.434,1.239v-2.147h.913a1.579,1.579,0,0,1,.5.058.5.5,0,0,1,.25.206.622.622,0,0,1,.093.338.572.572,0,0,1-.142.4.677.677,0,0,1-.425.2,1,1,0,0,1,.233.181,2.378,2.378,0,0,1,.246.348l.263.419h-.519l-.313-.467a3.2,3.2,0,0,0-.229-.316.326.326,0,0,0-.13-.089.724.724,0,0,0-.219-.024H441.3v.9Z" fill="#272525" fill-rule="evenodd"/>
      <rect id="Rectángulo_350480" data-name="Rectángulo 350480" width="0.433" height="2.147" transform="translate(443.017 315.221)" fill="#272525"/>
      <path id="Trazado_734247" data-name="Trazado 734247" d="M445,316.519l-.3-.8-.29.8H445m.8.849h-.472l-.187-.488h-.859l-.177.488h-.46l.837-2.147h.458Z" fill="#272525" fill-rule="evenodd"/>
      <path id="Trazado_734248" data-name="Trazado 734248" d="M446.465,316.432v.574h.4a1.945,1.945,0,0,0,.3-.013.253.253,0,0,0,.218-.268.283.283,0,0,0-.047-.164.259.259,0,0,0-.135-.1,1.451,1.451,0,0,0-.385-.031h-.35m0-.853v.5h.284c.169,0,.274,0,.315-.007a.284.284,0,0,0,.175-.077.225.225,0,0,0,.064-.168.234.234,0,0,0-.055-.162.252.252,0,0,0-.163-.075c-.043-.005-.167-.007-.371-.007Zm-.434-.358h.859a2.347,2.347,0,0,1,.38.022.538.538,0,0,1,.389.268.483.483,0,0,1,.066.251.508.508,0,0,1-.3.465.563.563,0,0,1,.3.2.52.52,0,0,1,.1.324.628.628,0,0,1-.068.284.563.563,0,0,1-.186.222.638.638,0,0,1-.291.1c-.072.007-.246.012-.523.014h-.731Z" fill="#272525" fill-rule="evenodd"/>
      <path id="Trazado_734249" data-name="Trazado 734249" d="M448.208,317.368v-2.129h.434v1.767h1.078v.362h-1.512" fill="#272525" fill-rule="evenodd"/>
      <path id="Trazado_734250" data-name="Trazado 734250" d="M450.029,317.368v-2.147h1.592v.364h-1.158v.476h1.078v.361h-1.078v.584h1.2v.362h-1.633" fill="#272525" fill-rule="evenodd"/>
      <path id="Trazado_734251" data-name="Trazado 734251" d="M545.624,304.189v1.421h.324a1.169,1.169,0,0,0,.262-.02.4.4,0,0,0,.175-.089.46.46,0,0,0,.114-.208,1.409,1.409,0,0,0,.044-.393,1.291,1.291,0,0,0-.044-.382.507.507,0,0,0-.123-.208.417.417,0,0,0-.2-.1,1.951,1.951,0,0,0-.356-.02h-.195m-.433-.364h.792a1.565,1.565,0,0,1,.409.041.709.709,0,0,1,.323.2.948.948,0,0,1,.206.347,1.619,1.619,0,0,1,.07.508,1.409,1.409,0,0,1-.066.457.942.942,0,0,1-.23.379.741.741,0,0,1-.3.171,1.28,1.28,0,0,1-.384.046h-.815Z" fill="#272525" fill-rule="evenodd"/>
      <path id="Trazado_734252" data-name="Trazado 734252" d="M547.359,305.972v-2.147h1.592v.364h-1.159v.476h1.078v.361h-1.078v.584h1.2v.362h-1.633" fill="#272525" fill-rule="evenodd"/>
      <path id="Trazado_734253" data-name="Trazado 734253" d="M549.25,305.274l.422-.042a.514.514,0,0,0,.154.313.469.469,0,0,0,.314.1.478.478,0,0,0,.316-.089.262.262,0,0,0,.106-.207.192.192,0,0,0-.045-.129.342.342,0,0,0-.156-.093c-.05-.018-.166-.049-.347-.094a1.2,1.2,0,0,1-.489-.212.561.561,0,0,1-.2-.432.55.55,0,0,1,.093-.307.589.589,0,0,1,.268-.218,1.093,1.093,0,0,1,.423-.074.909.909,0,0,1,.609.177.626.626,0,0,1,.214.473l-.433.019a.37.37,0,0,0-.12-.238.437.437,0,0,0-.274-.072.494.494,0,0,0-.3.077.156.156,0,0,0-.069.133.165.165,0,0,0,.064.131,1.152,1.152,0,0,0,.4.143,2.125,2.125,0,0,1,.468.154.6.6,0,0,1,.237.219.638.638,0,0,1,.086.342.625.625,0,0,1-.1.345.607.607,0,0,1-.29.239,1.2,1.2,0,0,1-.467.079.929.929,0,0,1-.626-.188.817.817,0,0,1-.26-.548" fill="#272525" fill-rule="evenodd"/>
      <path id="Trazado_734254" data-name="Trazado 734254" d="M551.365,305.972v-2.147h.422l.878,1.434v-1.434h.4v2.147h-.436l-.865-1.4v1.4h-.4" fill="#272525" fill-rule="evenodd"/>
      <path id="Trazado_734255" data-name="Trazado 734255" d="M554.665,305.123l-.3-.8-.29.8h.586m.8.849h-.471l-.188-.488h-.858l-.177.488h-.46l.836-2.147h.459Z" fill="#272525" fill-rule="evenodd"/>
      <path id="Trazado_734256" data-name="Trazado 734256" d="M555.954,305.972v-1.783h-.637v-.364h1.706v.364h-.635v1.783h-.434" fill="#272525" fill-rule="evenodd"/>
      <path id="Trazado_734257" data-name="Trazado 734257" d="M558.219,305.123l-.3-.8-.29.8h.586m.8.849h-.472l-.187-.488H557.5l-.177.488h-.46l.837-2.147h.458Z" fill="#272525" fill-rule="evenodd"/>
      <path id="Trazado_734258" data-name="Trazado 734258" d="M559.679,304.189v1.421H560a1.169,1.169,0,0,0,.262-.02.4.4,0,0,0,.175-.089.46.46,0,0,0,.114-.208,1.409,1.409,0,0,0,.044-.393,1.291,1.291,0,0,0-.044-.382.507.507,0,0,0-.123-.208.417.417,0,0,0-.2-.1,1.95,1.95,0,0,0-.356-.02h-.2m-.433-.364h.792a1.565,1.565,0,0,1,.409.041.709.709,0,0,1,.323.2.948.948,0,0,1,.206.347,1.619,1.619,0,0,1,.07.508,1.409,1.409,0,0,1-.066.457.941.941,0,0,1-.23.379.741.741,0,0,1-.3.171,1.28,1.28,0,0,1-.384.046h-.815Z" fill="#272525" fill-rule="evenodd"/>
      <path id="Trazado_734259" data-name="Trazado 734259" d="M561.772,304.9a.806.806,0,0,0,.169.553.579.579,0,0,0,.853,0,1.024,1.024,0,0,0,.005-1.11.55.55,0,0,0-.43-.182.556.556,0,0,0-.433.184.813.813,0,0,0-.164.554m-.446.015a1.358,1.358,0,0,1,.1-.551,1.008,1.008,0,0,1,.2-.294.833.833,0,0,1,.277-.193,1.173,1.173,0,0,1,.463-.085,1.009,1.009,0,0,1,.76.294,1.314,1.314,0,0,1,0,1.632,1,1,0,0,1-.756.294,1.016,1.016,0,0,1-.762-.292A1.113,1.113,0,0,1,561.326,304.912Z" fill="#272525" fill-rule="evenodd"/>
      <path id="Trazado_734260" data-name="Trazado 734260" d="M564.182,304.733h.321a1.705,1.705,0,0,0,.39-.026.236.236,0,0,0,.121-.091.282.282,0,0,0,.044-.161.255.255,0,0,0-.058-.175.267.267,0,0,0-.163-.084c-.035-.005-.141-.007-.317-.007h-.338v.544m-.434,1.239v-2.147h.913a1.574,1.574,0,0,1,.5.058.493.493,0,0,1,.25.206.614.614,0,0,1,.094.338.576.576,0,0,1-.142.4.682.682,0,0,1-.425.2,1,1,0,0,1,.232.181,2.442,2.442,0,0,1,.247.348l.262.419h-.518l-.314-.467a3.093,3.093,0,0,0-.228-.316.336.336,0,0,0-.131-.089.716.716,0,0,0-.218-.024h-.088v.9Z" fill="#272525" fill-rule="evenodd"/>
      <path id="Trazado_734261" data-name="Trazado 734261" d="M567.179,304.189v1.421h.324a1.169,1.169,0,0,0,.262-.02.4.4,0,0,0,.175-.089.46.46,0,0,0,.114-.208,1.409,1.409,0,0,0,.044-.393,1.291,1.291,0,0,0-.044-.382.507.507,0,0,0-.123-.208.422.422,0,0,0-.2-.1,1.95,1.95,0,0,0-.356-.02h-.2m-.433-.364h.792a1.565,1.565,0,0,1,.409.041.709.709,0,0,1,.323.2.932.932,0,0,1,.2.347,1.589,1.589,0,0,1,.07.508,1.383,1.383,0,0,1-.066.457.929.929,0,0,1-.229.379.741.741,0,0,1-.3.171,1.28,1.28,0,0,1-.384.046h-.815Z" fill="#272525" fill-rule="evenodd"/>
      <path id="Trazado_734262" data-name="Trazado 734262" d="M568.914,305.972v-2.147h1.592v.364h-1.159v.476h1.078v.361h-1.078v.584h1.2v.362h-1.632" fill="#272525" fill-rule="evenodd"/>
      <path id="Trazado_734263" data-name="Trazado 734263" d="M572.747,305.183v-.362h.935v.855a1.179,1.179,0,0,1-.4.233,1.453,1.453,0,0,1-.523.1,1.18,1.18,0,0,1-.588-.142.9.9,0,0,1-.376-.4,1.3,1.3,0,0,1-.126-.571,1.235,1.235,0,0,1,.141-.6.938.938,0,0,1,.411-.4,1.1,1.1,0,0,1,.514-.107,1.032,1.032,0,0,1,.625.167.759.759,0,0,1,.289.464l-.43.08a.456.456,0,0,0-.171-.249.518.518,0,0,0-.313-.092.589.589,0,0,0-.452.18.761.761,0,0,0-.167.535.837.837,0,0,0,.17.573.564.564,0,0,0,.445.191.756.756,0,0,0,.273-.053.937.937,0,0,0,.235-.13v-.272h-.5" fill="#272525" fill-rule="evenodd"/>
      <path id="Trazado_734264" data-name="Trazado 734264" d="M574.516,304.733h.321a1.705,1.705,0,0,0,.39-.026.237.237,0,0,0,.121-.091.283.283,0,0,0,.044-.161.255.255,0,0,0-.058-.175.267.267,0,0,0-.163-.084c-.035-.005-.141-.007-.317-.007h-.338v.544m-.434,1.239v-2.147h.913a1.574,1.574,0,0,1,.5.058.493.493,0,0,1,.25.206.614.614,0,0,1,.094.338.576.576,0,0,1-.142.4.683.683,0,0,1-.425.2,1,1,0,0,1,.232.181,2.448,2.448,0,0,1,.247.348l.262.419h-.518l-.314-.467a3.09,3.09,0,0,0-.228-.316.337.337,0,0,0-.131-.089.717.717,0,0,0-.218-.024h-.088v.9Z" fill="#272525" fill-rule="evenodd"/>
      <path id="Trazado_734265" data-name="Trazado 734265" d="M577.386,305.123l-.3-.8-.29.8h.586m.8.849h-.472l-.187-.488h-.859l-.177.488h-.46l.837-2.147h.458Z" fill="#272525" fill-rule="evenodd"/>
      <path id="Trazado_734266" data-name="Trazado 734266" d="M578.3,305.274l.422-.042a.514.514,0,0,0,.155.313.467.467,0,0,0,.314.1.476.476,0,0,0,.315-.089.264.264,0,0,0,.107-.207.192.192,0,0,0-.045-.129.353.353,0,0,0-.156-.093c-.051-.018-.167-.049-.347-.094a1.186,1.186,0,0,1-.489-.212.561.561,0,0,1-.2-.432.551.551,0,0,1,.093-.307.584.584,0,0,1,.268-.218,1.087,1.087,0,0,1,.422-.074.907.907,0,0,1,.609.177.627.627,0,0,1,.215.473l-.434.019a.365.365,0,0,0-.119-.238.44.44,0,0,0-.275-.072.493.493,0,0,0-.3.077.159.159,0,0,0-.069.133.166.166,0,0,0,.065.131,1.134,1.134,0,0,0,.4.143,2.127,2.127,0,0,1,.468.154.614.614,0,0,1,.238.219.638.638,0,0,1,.085.342.632.632,0,0,1-.1.345.611.611,0,0,1-.29.239,1.2,1.2,0,0,1-.468.079.926.926,0,0,1-.625-.188.818.818,0,0,1-.261-.548" fill="#272525" fill-rule="evenodd"/>
      <path id="Trazado_734267" data-name="Trazado 734267" d="M581.553,305.123l-.3-.8-.29.8h.586m.8.849h-.472l-.188-.488h-.858l-.177.488h-.46l.836-2.147h.459Z" fill="#272525" fill-rule="evenodd"/>
      <path id="Trazado_734268" data-name="Trazado 734268" d="M582.472,305.274l.422-.042a.514.514,0,0,0,.154.313.469.469,0,0,0,.314.1.478.478,0,0,0,.316-.089.262.262,0,0,0,.106-.207.192.192,0,0,0-.045-.129.342.342,0,0,0-.156-.093c-.05-.018-.166-.049-.347-.094a1.2,1.2,0,0,1-.489-.212.561.561,0,0,1-.2-.432.55.55,0,0,1,.093-.307.589.589,0,0,1,.268-.218,1.093,1.093,0,0,1,.423-.074.909.909,0,0,1,.609.177.626.626,0,0,1,.214.473l-.433.019a.371.371,0,0,0-.12-.238.438.438,0,0,0-.274-.072.493.493,0,0,0-.3.077.156.156,0,0,0-.069.133.165.165,0,0,0,.064.131,1.152,1.152,0,0,0,.4.143,2.127,2.127,0,0,1,.468.154.6.6,0,0,1,.237.219.638.638,0,0,1,.086.342.624.624,0,0,1-.1.345.607.607,0,0,1-.29.239,1.2,1.2,0,0,1-.467.079.929.929,0,0,1-.626-.188.817.817,0,0,1-.26-.548" fill="#272525" fill-rule="evenodd"/>
      <path id="Trazado_734269" data-name="Trazado 734269" d="M530.9,335.275l.4-.048a.377.377,0,0,0,.1.233.288.288,0,0,0,.416-.016.376.376,0,0,0,.087-.261.349.349,0,0,0-.083-.246.266.266,0,0,0-.2-.091.707.707,0,0,0-.189.031l.046-.335a.363.363,0,0,0,.255-.073.259.259,0,0,0,.088-.2.234.234,0,0,0-.065-.173.231.231,0,0,0-.171-.064.244.244,0,0,0-.18.073.339.339,0,0,0-.091.213l-.38-.064a.854.854,0,0,1,.12-.311.546.546,0,0,1,.222-.183.757.757,0,0,1,.32-.067.639.639,0,0,1,.487.194.489.489,0,0,1-.158.808.5.5,0,0,1,.295.177.519.519,0,0,1,.11.333.648.648,0,0,1-.206.482.775.775,0,0,1-1,.031.656.656,0,0,1-.222-.439" fill="#272525" fill-rule="evenodd"/>
      <path id="Trazado_734270" data-name="Trazado 734270" d="M532.641,333.7h.411v.3a1,1,0,0,1-.031.281.423.423,0,0,1-.116.185.59.59,0,0,1-.217.13l-.081-.172a.33.33,0,0,0,.177-.113.344.344,0,0,0,.056-.2h-.2V333.7m.691,0h.411v.3a1,1,0,0,1-.031.281.434.434,0,0,1-.117.185.593.593,0,0,1-.216.13l-.081-.172a.334.334,0,0,0,.177-.113.329.329,0,0,0,.055-.2h-.2Z" fill="#272525" fill-rule="evenodd"/>
      <path id="Trazado_734271" data-name="Trazado 734271" d="M437.523,352.858a.207.207,0,0,0-.133.048.333.333,0,0,0-.091.17,2.386,2.386,0,0,0-.042.538,2.362,2.362,0,0,0,.038.519.366.366,0,0,0,.1.188.207.207,0,0,0,.132.047.2.2,0,0,0,.134-.048.326.326,0,0,0,.091-.17,3.5,3.5,0,0,0,0-1.055.362.362,0,0,0-.1-.189.2.2,0,0,0-.133-.048m0-.341a.588.588,0,0,1,.489.223,1.926,1.926,0,0,1,0,1.749.584.584,0,0,1-.487.22.611.611,0,0,1-.5-.241,1.951,1.951,0,0,1,.019-1.731A.583.583,0,0,1,437.523,352.517Z" fill="#272525" fill-rule="evenodd"/>
      <rect id="Rectángulo_350481" data-name="Rectángulo 350481" width="0.412" height="0.411" transform="translate(438.584 354.261)" fill="#272525"/>
      <path id="Trazado_734272" data-name="Trazado 734272" d="M439.336,354.12l.41-.042a.346.346,0,0,0,.1.22.282.282,0,0,0,.2.081.274.274,0,0,0,.218-.1.475.475,0,0,0,.09-.316.433.433,0,0,0-.089-.3.3.3,0,0,0-.231-.1.419.419,0,0,0-.318.157l-.334-.049.211-1.117h1.089v.385h-.777l-.064.365a.628.628,0,0,1,.745.13.717.717,0,0,1,.191.517.772.772,0,0,1-.154.473.682.682,0,0,1-.581.284.718.718,0,0,1-.485-.16.653.653,0,0,1-.224-.429" fill="#272525" fill-rule="evenodd"/>
      <path id="Trazado_734273" data-name="Trazado 734273" d="M441.694,352.858a.2.2,0,0,0-.133.048.319.319,0,0,0-.091.17,3.472,3.472,0,0,0-.005,1.057.373.373,0,0,0,.1.188.208.208,0,0,0,.133.047.2.2,0,0,0,.133-.048.32.32,0,0,0,.091-.17,3.458,3.458,0,0,0,.005-1.055.377.377,0,0,0-.1-.189.2.2,0,0,0-.133-.048m0-.341a.586.586,0,0,1,.488.223,1.926,1.926,0,0,1,0,1.749.584.584,0,0,1-.486.22.613.613,0,0,1-.505-.241,1.96,1.96,0,0,1,.019-1.731A.584.584,0,0,1,441.694,352.517Z" fill="#272525" fill-rule="evenodd"/>
      <rect id="Rectángulo_350482" data-name="Rectángulo 350482" width="0.809" height="0.411" transform="translate(443.541 353.688)" fill="#272525"/>
      <path id="Trazado_734274" data-name="Trazado 734274" d="M446.385,354.672h-.411v-1.551a1.416,1.416,0,0,1-.532.312v-.373a1.206,1.206,0,0,0,.351-.2.762.762,0,0,0,.258-.344h.334v2.155" fill="#272525" fill-rule="evenodd"/>
      <rect id="Rectángulo_350483" data-name="Rectángulo 350483" width="0.412" height="0.411" transform="translate(447.089 354.261)" fill="#272525"/>
      <path id="Trazado_734275" data-name="Trazado 734275" d="M448.53,352.858a.2.2,0,0,0-.133.048.319.319,0,0,0-.091.17,3.472,3.472,0,0,0-.005,1.057.373.373,0,0,0,.1.188.208.208,0,0,0,.133.047.2.2,0,0,0,.133-.048.32.32,0,0,0,.091-.17,3.458,3.458,0,0,0,.005-1.055.377.377,0,0,0-.1-.189.2.2,0,0,0-.133-.048m0-.341a.586.586,0,0,1,.488.223,1.926,1.926,0,0,1,0,1.749.584.584,0,0,1-.486.22.613.613,0,0,1-.505-.241,1.96,1.96,0,0,1,.019-1.731A.584.584,0,0,1,448.53,352.517Z" fill="#272525" fill-rule="evenodd"/>
      <path id="Trazado_734276" data-name="Trazado 734276" d="M450.2,352.858a.205.205,0,0,0-.133.048.326.326,0,0,0-.091.17,2.389,2.389,0,0,0-.042.538,2.365,2.365,0,0,0,.038.519.358.358,0,0,0,.1.188.21.21,0,0,0,.266,0,.327.327,0,0,0,.091-.17,3.5,3.5,0,0,0,0-1.055.362.362,0,0,0-.1-.189.2.2,0,0,0-.133-.048m0-.341a.584.584,0,0,1,.488.223,1.918,1.918,0,0,1,0,1.749.581.581,0,0,1-.486.22.614.614,0,0,1-.505-.241,1.96,1.96,0,0,1,.019-1.731A.584.584,0,0,1,450.2,352.517Z" fill="#272525" fill-rule="evenodd"/>
    </g>
  </g>
</svg>
