<svg xmlns="http://www.w3.org/2000/svg" width="478.619" height="326.183" viewBox="0 0 478.619 326.183">
  <g id="Grupo_1013614" data-name="Grupo 1013614" transform="translate(-574 -1087.729)">
    <path id="Trazado_732198" data-name="Trazado 732198" d="M14.173,0H245.41a14.173,14.173,0,0,1,14.173,14.173v43A14.173,14.173,0,0,1,245.41,71.348H14.173A14.173,14.173,0,0,1,0,57.174v-43A14.173,14.173,0,0,1,14.173,0Z" transform="translate(766.429 1209.371)" fill="#ffa031" stroke="#fff" stroke-width="2"/>
    <path id="Trazado_732203" data-name="Trazado 732203" d="M8.5,0A8.5,8.5,0,1,1,0,8.5,8.5,8.5,0,0,1,8.5,0Z" transform="translate(753.576 1098.746)" fill="#3076b6"/>
    <path id="Trazado_732204" data-name="Trazado 732204" d="M8.5,0A8.5,8.5,0,1,1,0,8.5,8.5,8.5,0,0,1,8.5,0Z" transform="translate(753.576 1119.492)" fill="#3076b6"/>
    <path id="Trazado_732206" data-name="Trazado 732206" d="M8.5,0A8.5,8.5,0,1,1,0,8.5,8.5,8.5,0,0,1,8.5,0Z" transform="translate(728.6 1267.604)" fill="#3076b6"/>
    <path id="Trazado_732209" data-name="Trazado 732209" d="M8.5,0A8.5,8.5,0,1,1,0,8.5,8.5,8.5,0,0,1,8.5,0Z" transform="translate(705.35 1298.189)" fill="#3076b6"/>
    <path id="Trazado_732207" data-name="Trazado 732207" d="M8.5,0A8.5,8.5,0,1,1,0,8.5,8.5,8.5,0,0,1,8.5,0Z" transform="translate(718.251 1284.611)" fill="#3076b6"/>
    <path id="Trazado_732201" data-name="Trazado 732201" d="M8.5,0A8.5,8.5,0,1,1,0,8.5,8.5,8.5,0,0,1,8.5,0Z" transform="translate(785.581 1098.746)" fill="#3076b6"/>
    <path id="Trazado_732202" data-name="Trazado 732202" d="M8.5,0A8.5,8.5,0,1,1,0,8.5,8.5,8.5,0,0,1,8.5,0Z" transform="translate(768.57 1088.664)" fill="#3076b6"/>
    <path id="Trazado_732208" data-name="Trazado 732208" d="M8.5,0A8.5,8.5,0,1,1,0,8.5,8.5,8.5,0,0,1,8.5,0Z" transform="translate(719.557 1097.812)" fill="#3076b6"/>
    <path id="Trazado_732205" data-name="Trazado 732205" d="M8.5,0A8.5,8.5,0,1,1,0,8.5,8.5,8.5,0,0,1,8.5,0Z" transform="translate(736.567 1087.729)" fill="#3076b6"/>
    <path id="Trazado_732199" data-name="Trazado 732199" d="M9.683-4.644,15.1-21.328h4.072L11.5,0H7.91L.264-21.328H4.321Zm10.21-3.428a9.346,9.346,0,0,1,.923-4.2,6.74,6.74,0,0,1,2.593-2.871,7.305,7.305,0,0,1,3.838-1,6.923,6.923,0,0,1,5.208,2.065A8.124,8.124,0,0,1,34.614-8.6l.015.835a9.429,9.429,0,0,1-.9,4.189A6.659,6.659,0,0,1,31.15-.718,7.359,7.359,0,0,1,27.275.293a6.875,6.875,0,0,1-5.369-2.234A8.556,8.556,0,0,1,19.893-7.9Zm3.56.308a6.386,6.386,0,0,0,1.011,3.831,3.286,3.286,0,0,0,2.813,1.384,3.25,3.25,0,0,0,2.805-1.406,7.054,7.054,0,0,0,1-4.116,6.3,6.3,0,0,0-1.033-3.809,3.3,3.3,0,0,0-2.805-1.406A3.267,3.267,0,0,0,24.478-11.9,6.921,6.921,0,0,0,23.452-7.764ZM41.426,0h-3.56V-22.5h3.56ZM54.9-1.553A5.521,5.521,0,0,1,50.449.293a4.92,4.92,0,0,1-3.9-1.509A6.418,6.418,0,0,1,45.22-5.581V-15.85h3.56V-5.625q0,3.018,2.5,3.018a3.518,3.518,0,0,0,3.5-1.86V-15.85h3.56V0H54.99Zm10.415-14.3.1,1.655a5.7,5.7,0,0,1,4.57-1.948,4.381,4.381,0,0,1,4.351,2.432A5.622,5.622,0,0,1,79.2-16.143a4.942,4.942,0,0,1,3.9,1.45,6.385,6.385,0,0,1,1.311,4.277V0h-3.56V-10.312a3.152,3.152,0,0,0-.659-2.212,2.886,2.886,0,0,0-2.183-.7,2.964,2.964,0,0,0-1.985.652,3.438,3.438,0,0,0-1.077,1.707L74.971,0h-3.56V-10.43a2.539,2.539,0,0,0-2.856-2.8,3.133,3.133,0,0,0-3.032,1.743V0h-3.56V-15.85ZM95.054.293a7.364,7.364,0,0,1-5.486-2.131,7.732,7.732,0,0,1-2.1-5.676v-.439a9.511,9.511,0,0,1,.916-4.241A6.968,6.968,0,0,1,90.952-15.1a6.8,6.8,0,0,1,3.691-1.04,6.221,6.221,0,0,1,5,2.065,8.734,8.734,0,0,1,1.765,5.845V-6.8H91.055a4.76,4.76,0,0,0,1.311,3.105,3.936,3.936,0,0,0,2.893,1.143,4.82,4.82,0,0,0,3.984-1.978L101.162-2.7a6.408,6.408,0,0,1-2.542,2.2A7.957,7.957,0,0,1,95.054.293Zm-.425-13.579a3,3,0,0,0-2.366,1.025A5.315,5.315,0,0,0,91.113-9.4H97.9v-.264a4.327,4.327,0,0,0-.952-2.7A2.975,2.975,0,0,0,94.629-13.286Zm12.847-2.563.1,1.831a5.7,5.7,0,0,1,4.614-2.124q4.951,0,5.039,5.669V0h-3.56V-10.269a3.264,3.264,0,0,0-.652-2.234,2.742,2.742,0,0,0-2.131-.725,3.43,3.43,0,0,0-3.208,1.948V0h-3.56V-15.85Z" transform="translate(832.48 1254.352)"/>
    <path id="Trazado_732161" data-name="Trazado 732161" d="M14.173,0H245.41a14.173,14.173,0,0,1,14.173,14.173v43A14.173,14.173,0,0,1,245.41,71.348H14.173A14.173,14.173,0,0,1,0,57.174v-43A14.173,14.173,0,0,1,14.173,0Z" transform="translate(670.531 1341.565)" fill="#ffa031" stroke="#fff" stroke-width="2"/>
    <path id="Trazado_732211" data-name="Trazado 732211" d="M6.973-21.328,13.125-4.98l6.138-16.348h4.79V0H20.361V-7.031l.366-9.4L14.429,0H11.777L5.493-16.421l.366,9.39V0H2.168V-21.328ZM37.559,0a5.493,5.493,0,0,1-.41-1.479A5.541,5.541,0,0,1,32.988.293a5.592,5.592,0,0,1-3.9-1.362,4.359,4.359,0,0,1-1.509-3.369,4.5,4.5,0,0,1,1.882-3.889,9.122,9.122,0,0,1,5.383-1.355h2.183v-1.04a2.776,2.776,0,0,0-.688-1.97,2.729,2.729,0,0,0-2.095-.74,3.135,3.135,0,0,0-1.992.608,1.882,1.882,0,0,0-.776,1.545H27.92a3.951,3.951,0,0,1,.864-2.439,5.758,5.758,0,0,1,2.351-1.78,8.258,8.258,0,0,1,3.318-.645,6.651,6.651,0,0,1,4.438,1.4,4.989,4.989,0,0,1,1.7,3.933v7.148a8.1,8.1,0,0,0,.6,3.413V0ZM33.647-2.563a4.049,4.049,0,0,0,1.985-.513,3.425,3.425,0,0,0,1.4-1.377V-7.441H35.112a5.247,5.247,0,0,0-2.974.688,2.23,2.23,0,0,0-1,1.948,2.08,2.08,0,0,0,.681,1.633A2.638,2.638,0,0,0,33.647-2.563ZM53.2-4.307a1.614,1.614,0,0,0-.784-1.45,8.335,8.335,0,0,0-2.6-.879A13.366,13.366,0,0,1,46.787-7.6a4.047,4.047,0,0,1-2.666-3.735,4.219,4.219,0,0,1,1.729-3.428,6.833,6.833,0,0,1,4.395-1.377,7.11,7.11,0,0,1,4.592,1.406,4.462,4.462,0,0,1,1.75,3.647h-3.56a2.194,2.194,0,0,0-.762-1.707,2.919,2.919,0,0,0-2.021-.681,3.154,3.154,0,0,0-1.912.542,1.709,1.709,0,0,0-.74,1.45,1.443,1.443,0,0,0,.688,1.274,9.467,9.467,0,0,0,2.783.916,13.175,13.175,0,0,1,3.289,1.1,4.657,4.657,0,0,1,1.772,1.531A3.9,3.9,0,0,1,56.7-4.5a4.13,4.13,0,0,1-1.772,3.464A7.558,7.558,0,0,1,50.288.293a8.2,8.2,0,0,1-3.472-.7,5.714,5.714,0,0,1-2.373-1.934A4.577,4.577,0,0,1,43.594-5h3.457A2.508,2.508,0,0,0,48-3.054a3.7,3.7,0,0,0,2.329.681,3.6,3.6,0,0,0,2.139-.535A1.655,1.655,0,0,0,53.2-4.307ZM69.272,0a5.493,5.493,0,0,1-.41-1.479A5.541,5.541,0,0,1,64.7.293a5.592,5.592,0,0,1-3.9-1.362A4.359,4.359,0,0,1,59.3-4.438a4.5,4.5,0,0,1,1.882-3.889,9.122,9.122,0,0,1,5.383-1.355h2.183v-1.04a2.776,2.776,0,0,0-.688-1.97,2.729,2.729,0,0,0-2.095-.74,3.135,3.135,0,0,0-1.992.608,1.882,1.882,0,0,0-.776,1.545h-3.56a3.951,3.951,0,0,1,.864-2.439,5.758,5.758,0,0,1,2.351-1.78,8.258,8.258,0,0,1,3.318-.645,6.651,6.651,0,0,1,4.438,1.4,4.989,4.989,0,0,1,1.7,3.933v7.148a8.1,8.1,0,0,0,.6,3.413V0ZM65.361-2.563a4.049,4.049,0,0,0,1.985-.513,3.425,3.425,0,0,0,1.4-1.377V-7.441H66.826a5.247,5.247,0,0,0-2.974.688,2.23,2.23,0,0,0-1,1.948,2.08,2.08,0,0,0,.681,1.633A2.638,2.638,0,0,0,65.361-2.563Z" transform="translate(763.219 1386.007)"/>
    <path id="Trazado_732210" data-name="Trazado 732210" d="M70.866,0A70.866,70.866,0,1,1,0,70.866,70.866,70.866,0,0,1,70.866,0Z" transform="translate(574 1262.238)" fill="#fff"/>
    <g id="Grupo_1013554" data-name="Grupo 1013554" transform="translate(406.137 941.226)">
      <path id="Trazado_732135" data-name="Trazado 732135" d="M248.1,378.61v-27.3a.833.833,0,0,1,.833-.833H260.2a.833.833,0,0,1,.833.833v40.57" transform="translate(11.335)" fill="none" stroke="#000" stroke-linecap="round" stroke-linejoin="round" stroke-width="2"/>
      <line id="Línea_2917" data-name="Línea 2917" y1="7.437" transform="translate(259.43 384.441)" fill="none" stroke="#000" stroke-linecap="round" stroke-linejoin="round" stroke-width="2"/>
      <line id="Línea_2918" data-name="Línea 2918" x2="2.588" transform="translate(269.781 386.703)" fill="none" stroke="#000" stroke-linecap="round" stroke-linejoin="round" stroke-width="2"/>
      <line id="Línea_2919" data-name="Línea 2919" x2="5.175" transform="translate(267.193 381.528)" fill="none" stroke="#000" stroke-linecap="round" stroke-linejoin="round" stroke-width="2"/>
      <line id="Línea_2920" data-name="Línea 2920" x2="2.588" transform="translate(269.781 376.353)" fill="none" stroke="#000" stroke-linecap="round" stroke-linejoin="round" stroke-width="2"/>
      <line id="Línea_2921" data-name="Línea 2921" x2="5.175" transform="translate(267.193 371.177)" fill="none" stroke="#000" stroke-linecap="round" stroke-linejoin="round" stroke-width="2"/>
      <line id="Línea_2922" data-name="Línea 2922" x2="2.588" transform="translate(269.781 366.002)" fill="none" stroke="#000" stroke-linecap="round" stroke-linejoin="round" stroke-width="2"/>
      <line id="Línea_2923" data-name="Línea 2923" x2="5.175" transform="translate(267.193 360.827)" fill="none" stroke="#000" stroke-linecap="round" stroke-linejoin="round" stroke-width="2"/>
      <line id="Línea_2924" data-name="Línea 2924" x2="2.588" transform="translate(269.781 355.651)" fill="none" stroke="#000" stroke-linecap="round" stroke-linejoin="round" stroke-width="2"/>
      <path id="Trazado_732136" data-name="Trazado 732136" d="M233.288,389.534v-1.368a3.844,3.844,0,0,1,3.845-3.845h31.125a3.844,3.844,0,0,1,3.845,3.845V416.7a3.844,3.844,0,0,1-3.845,3.845H237.133a3.844,3.844,0,0,1-3.845-3.845V395.366" transform="translate(8.029 7.557)" fill="none" stroke="#000" stroke-linecap="round" stroke-linejoin="round" stroke-width="2"/>
      <path id="Trazado_732137" data-name="Trazado 732137" d="M208.375,372.575h-2.587V367.4h2.587a2.588,2.588,0,0,1,2.588,2.587h0A2.588,2.588,0,0,1,208.375,372.575Z" transform="translate(1.889 3.778)" fill="none" stroke="#000" stroke-linecap="round" stroke-linejoin="round" stroke-width="2"/>
      <path id="Trazado_732138" data-name="Trazado 732138" d="M208.375,376.8h-2.587V371.63h2.587a2.588,2.588,0,0,1,2.588,2.587h0A2.588,2.588,0,0,1,208.375,376.8Z" transform="translate(1.889 4.723)" fill="none" stroke="#000" stroke-linecap="round" stroke-linejoin="round" stroke-width="2"/>
      <line id="Línea_2925" data-name="Línea 2925" y2="10.351" transform="translate(228.378 371.177)" fill="none" stroke="#000" stroke-linecap="round" stroke-linejoin="round" stroke-width="2"/>
      <path id="Trazado_732139" data-name="Trazado 732139" d="M214.249,377.75V367.4l2.588,2.588,2.588-2.588V377.75" transform="translate(3.778 3.778)" fill="none" stroke="#000" stroke-linecap="round" stroke-linejoin="round" stroke-width="2"/>
      <line id="Línea_2926" data-name="Línea 2926" x2="2.588" transform="translate(233.554 381.528)" fill="none" stroke="#000" stroke-linecap="round" stroke-linejoin="round" stroke-width="2"/>
      <path id="Trazado_732140" data-name="Trazado 732140" d="M205.8,358.938h-2.64a5.831,5.831,0,0,0-5.831,5.831v60.791a5.832,5.832,0,0,0,5.831,5.831h45.266a5.832,5.832,0,0,0,5.793-5.176" transform="translate(0 1.889)" fill="none" stroke="#000" stroke-linecap="round" stroke-linejoin="round" stroke-width="2"/>
      <path id="Trazado_732141" data-name="Trazado 732141" d="M251.645,389.989v-25.22a5.832,5.832,0,0,0-5.831-5.831H209.019" transform="translate(2.61 1.889)" fill="none" stroke="#000" stroke-linecap="round" stroke-linejoin="round" stroke-width="2"/>
      <path id="Trazado_732142" data-name="Trazado 732142" d="M246.469,383.869H203.223a1.666,1.666,0,0,1-1.666-1.666V364.834a1.666,1.666,0,0,1,1.666-1.666h43.246a1.666,1.666,0,0,1,1.666,1.666V382.2A1.666,1.666,0,0,1,246.469,383.869Z" transform="translate(0.944 2.834)" fill="none" stroke="#000" stroke-linecap="round" stroke-linejoin="round" stroke-width="2"/>
      <path id="Trazado_732143" data-name="Trazado 732143" d="M208.487,392.085h-6.1a.833.833,0,0,1-.833-.833v-6.1a.833.833,0,0,1,.833-.833h6.1a.833.833,0,0,1,.833.833v6.1A.833.833,0,0,1,208.487,392.085Z" transform="translate(0.944 7.557)" fill="none" stroke="#000" stroke-linecap="round" stroke-linejoin="round" stroke-width="2"/>
      <path id="Trazado_732144" data-name="Trazado 732144" d="M219.064,392.085h-6.1a.833.833,0,0,1-.833-.833v-6.1a.833.833,0,0,1,.833-.833h6.1a.833.833,0,0,1,.833.833v6.1A.833.833,0,0,1,219.064,392.085Z" transform="translate(3.306 7.557)" fill="none" stroke="#000" stroke-linecap="round" stroke-linejoin="round" stroke-width="2"/>
      <path id="Trazado_732145" data-name="Trazado 732145" d="M229.641,392.085h-6.1a.833.833,0,0,1-.833-.833v-6.1a.833.833,0,0,1,.833-.833h6.1a.833.833,0,0,1,.833.833v6.1A.833.833,0,0,1,229.641,392.085Z" transform="translate(5.667 7.557)" fill="none" stroke="#000" stroke-linecap="round" stroke-linejoin="round" stroke-width="2"/>
      <path id="Trazado_732146" data-name="Trazado 732146" d="M208.487,402.662h-6.1a.833.833,0,0,1-.833-.833v-6.1a.833.833,0,0,1,.833-.833h6.1a.833.833,0,0,1,.833.833v6.1A.833.833,0,0,1,208.487,402.662Z" transform="translate(0.944 9.918)" fill="none" stroke="#000" stroke-linecap="round" stroke-linejoin="round" stroke-width="2"/>
      <path id="Trazado_732147" data-name="Trazado 732147" d="M219.064,402.662h-6.1a.833.833,0,0,1-.833-.833v-6.1a.833.833,0,0,1,.833-.833h6.1a.833.833,0,0,1,.833.833v6.1A.833.833,0,0,1,219.064,402.662Z" transform="translate(3.306 9.918)" fill="none" stroke="#000" stroke-linecap="round" stroke-linejoin="round" stroke-width="2"/>
      <path id="Trazado_732148" data-name="Trazado 732148" d="M229.641,402.662h-6.1a.833.833,0,0,1-.833-.833v-6.1a.833.833,0,0,1,.833-.833h6.1a.833.833,0,0,1,.833.833v6.1A.833.833,0,0,1,229.641,402.662Z" transform="translate(5.667 9.918)" fill="none" stroke="#000" stroke-linecap="round" stroke-linejoin="round" stroke-width="2"/>
      <path id="Trazado_732149" data-name="Trazado 732149" d="M208.487,413.239h-6.1a.833.833,0,0,1-.833-.833v-6.1a.832.832,0,0,1,.833-.833h6.1a.832.832,0,0,1,.833.833v6.1A.833.833,0,0,1,208.487,413.239Z" transform="translate(0.944 12.28)" fill="none" stroke="#000" stroke-linecap="round" stroke-linejoin="round" stroke-width="2"/>
      <path id="Trazado_732150" data-name="Trazado 732150" d="M219.064,413.239h-6.1a.833.833,0,0,1-.833-.833v-6.1a.832.832,0,0,1,.833-.833h6.1a.832.832,0,0,1,.833.833v6.1A.833.833,0,0,1,219.064,413.239Z" transform="translate(3.306 12.28)" fill="none" stroke="#000" stroke-linecap="round" stroke-linejoin="round" stroke-width="2"/>
      <path id="Trazado_732151" data-name="Trazado 732151" d="M229.641,413.239h-6.1a.833.833,0,0,1-.833-.833v-6.1a.832.832,0,0,1,.833-.833h6.1a.832.832,0,0,1,.833.833v6.1A.833.833,0,0,1,229.641,413.239Z" transform="translate(5.667 12.28)" fill="none" stroke="#000" stroke-linecap="round" stroke-linejoin="round" stroke-width="2"/>
      <path id="Trazado_732152" data-name="Trazado 732152" d="M251.04,388.553A10.351,10.351,0,0,0,240.7,398.4a.478.478,0,0,0,.477.5h6.456a.474.474,0,0,0,.475-.4,2.958,2.958,0,0,1,5.861,0,.476.476,0,0,0,.476.4H260.9a.478.478,0,0,0,.476-.5A10.35,10.35,0,0,0,251.04,388.553Z" transform="translate(9.684 8.501)" fill="none" stroke="#000" stroke-linecap="round" stroke-linejoin="round" stroke-width="2"/>
      <line id="Línea_2927" data-name="Línea 2927" x2="7.763" transform="translate(246.492 412.58)" fill="none" stroke="#000" stroke-linecap="round" stroke-linejoin="round" stroke-width="2"/>
      <line id="Línea_2928" data-name="Línea 2928" x2="7.763" transform="translate(246.492 417.755)" fill="none" stroke="#000" stroke-linecap="round" stroke-linejoin="round" stroke-width="2"/>
      <line id="Línea_2929" data-name="Línea 2929" x2="7.763" transform="translate(246.492 422.93)" fill="none" stroke="#000" stroke-linecap="round" stroke-linejoin="round" stroke-width="2"/>
      <line id="Línea_2930" data-name="Línea 2930" x2="7.763" transform="translate(267.193 412.58)" fill="none" stroke="#000" stroke-linecap="round" stroke-linejoin="round" stroke-width="2"/>
      <line id="Línea_2931" data-name="Línea 2931" x2="7.763" transform="translate(267.193 417.755)" fill="none" stroke="#000" stroke-linecap="round" stroke-linejoin="round" stroke-width="2"/>
      <line id="Línea_2932" data-name="Línea 2932" x2="7.763" transform="translate(267.193 422.93)" fill="none" stroke="#000" stroke-linecap="round" stroke-linejoin="round" stroke-width="2"/>
      <line id="Línea_2933" data-name="Línea 2933" y1="1.921" x2="1.109" transform="translate(262.203 402.923)" fill="none" stroke="#000" stroke-linecap="round" stroke-linejoin="round" stroke-width="2"/>
      <line id="Línea_2934" data-name="Línea 2934" y2="10.351" transform="translate(260.724 412.58)" fill="none" stroke="#000" stroke-linecap="round" stroke-linejoin="round" stroke-width="2"/>
    </g>
    <path id="Trazado_732200" data-name="Trazado 732200" d="M70.866,0A70.866,70.866,0,1,1,0,70.866,70.866,70.866,0,0,1,70.866,0Z" transform="translate(684.298 1135.875)" fill="#fff"/>
    <g id="Grupo_1013556" data-name="Grupo 1013556" transform="translate(413.693 948.782)">
      <g id="Grupo_1013555" data-name="Grupo 1013555">
        <path id="Trazado_732153" data-name="Trazado 732153" d="M343.4,209.351l35.346,20.407v40.814L343.4,290.978,308.05,270.571V229.757Z" fill="none" stroke="#000" stroke-linecap="round" stroke-linejoin="round" stroke-width="3"/>
        <path id="Trazado_732154" data-name="Trazado 732154" d="M378.012,230.178l-34.617,19.986-9.39-5.421m-15.784-9.113-9.389-5.421" fill="none" stroke="#000" stroke-linecap="round" stroke-linejoin="round" stroke-width="3"/>
        <path id="Trazado_732155" data-name="Trazado 732155" d="M389.26,235.017l5.259-5.26,5.26,5.26" fill="none" stroke="#000" stroke-linecap="round" stroke-linejoin="round" stroke-width="3"/>
        <path id="Trazado_732156" data-name="Trazado 732156" d="M389.26,265.311l5.259,5.259,5.26-5.259" fill="none" stroke="#000" stroke-linecap="round" stroke-linejoin="round" stroke-width="3"/>
        <line id="Línea_2935" data-name="Línea 2935" y2="38.71" transform="translate(394.519 230.809)" fill="none" stroke="#000" stroke-linecap="round" stroke-linejoin="round" stroke-width="3"/>
        <path id="Trazado_732157" data-name="Trazado 732157" d="M379.445,282.31l7.184,1.925L384.7,291.42" fill="none" stroke="#000" stroke-linecap="round" stroke-linejoin="round" stroke-width="3"/>
        <path id="Trazado_732158" data-name="Trazado 732158" d="M353.21,297.458l-1.925,7.184,7.184,1.925" fill="none" stroke="#000" stroke-linecap="round" stroke-linejoin="round" stroke-width="3"/>
        <line id="Línea_2936" data-name="Línea 2936" x1="33.524" y2="19.355" transform="translate(352.195 284.761)" fill="none" stroke="#000" stroke-linecap="round" stroke-linejoin="round" stroke-width="3"/>
        <path id="Trazado_732159" data-name="Trazado 732159" d="M333.581,297.458l1.925,7.184-7.184,1.925" fill="none" stroke="#000" stroke-linecap="round" stroke-linejoin="round" stroke-width="3"/>
        <path id="Trazado_732160" data-name="Trazado 732160" d="M307.345,282.31l-7.185,1.925,1.925,7.184" fill="none" stroke="#000" stroke-linecap="round" stroke-linejoin="round" stroke-width="3"/>
        <line id="Línea_2937" data-name="Línea 2937" x1="33.524" y1="19.355" transform="translate(301.071 284.761)" fill="none" stroke="#000" stroke-linecap="round" stroke-linejoin="round" stroke-width="3"/>
        <line id="Línea_2938" data-name="Línea 2938" y2="39.801" transform="translate(343.395 250.164)" fill="none" stroke="#000" stroke-linecap="round" stroke-linejoin="round" stroke-width="3"/>
        <line id="Línea_2939" data-name="Línea 2939" x2="0.002" transform="translate(326.112 240.187)" fill="none" stroke="#000" stroke-linecap="round" stroke-linejoin="round" stroke-width="3"/>
      </g>
    </g>
    <path id="Trazado_732197" data-name="Trazado 732197" d="M31.693,0A31.693,31.693,0,1,1,0,31.693,31.693,31.693,0,0,1,31.693,0Z" transform="translate(989.232 1213.764)" fill="#fff"/>
    <g id="Grupo_53722" data-name="Grupo 53722" transform="translate(997.441 1221.973)">
      <circle id="Elipse_4039" data-name="Elipse 4039" cx="23.484" cy="23.484" r="23.484" fill="#008b8a" opacity="0.3"/>
    </g>
  </g>
</svg>
