<svg xmlns="http://www.w3.org/2000/svg" xmlns:xlink="http://www.w3.org/1999/xlink" width="610" height="238" viewBox="0 0 610 238">
  <defs>
    <clipPath id="clip-path">
      <path id="path2577" d="M0-682.665H61.041v61.041H0Z" transform="translate(0 682.665)"/>
    </clipPath>
  </defs>
  <g id="Grupo_1015998" data-name="Grupo 1015998" transform="translate(-495 -16494)">
    <path id="Trazado_737904" data-name="Trazado 737904" d="M0,0H120V103H0Z" transform="translate(985 16629)" fill="#ffa031"/>
    <path id="Trazado_737911" data-name="Trazado 737911" d="M0,0H130V103H0Z" transform="translate(495 16494)" fill="#ffa031"/>
    <path id="Trazado_732718" data-name="Trazado 732718" d="M0,0H589.764V218.329H0Z" transform="translate(505 16504)" fill="#dee4f0"/>
    <g id="g2573" transform="translate(538.959 16525)">
      <g id="g2575" clip-path="url(#clip-path)">
        <g id="g2581" transform="translate(17.444 0.904)">
          <path id="path2583" d="M-345.346,0H-378.23a1.027,1.027,0,0,0-1.027,1.027V50.644l39,3.349h2.676a1.031,1.031,0,0,0,1.027-1.027V9.229l-6.012-3.39Z" transform="translate(379.258)" fill="#f9f7f8" fill-rule="evenodd"/>
        </g>
        <g id="g2585" transform="translate(42.1 51.538)">
          <path id="path2587" d="M-73.026,0h-4.562L-80.2,4.019l2.609,4.589h4.562l1.994-4.3Z" transform="translate(80.197)" fill="#a1d4ff" fill-rule="evenodd"/>
        </g>
        <g id="g2589" transform="translate(11.473 5.058)">
          <path id="path2591" d="M-60.81-473.345v-46.481h-4.944a1.031,1.031,0,0,0-1.027,1.027v45.906l.162-.054a6.624,6.624,0,0,1,1.051-.368,6.864,6.864,0,0,1,1.068-.03Z" transform="translate(66.781 519.825)" fill="#a1d4ff" fill-rule="evenodd"/>
        </g>
        <g id="g2593" transform="translate(10.73 51.537)">
          <path id="path2595" d="M-346.03-.011h-30.955a6.863,6.863,0,0,0-1.068.03l-1.956,4.273,1.956,4.273a2.092,2.092,0,0,0,.362.03h31.661Z" transform="translate(380.008 0.013)" fill="#ffe07d" fill-rule="evenodd"/>
        </g>
        <g id="g2597" transform="translate(51.356 0.894)">
          <path id="path2599" d="M-89.511-93.988l-8.79-9.229v8.2a1.031,1.031,0,0,0,1.027,1.027Z" transform="translate(98.301 103.217)" fill="#a1d4ff" fill-rule="evenodd"/>
        </g>
        <path id="path2601" d="M164.685-579.55H161.7V-626.1h2.986Z" transform="translate(-147.241 631.16)" fill="#80b4fb"/>
        <g id="g2603" transform="translate(5.484 51.569)">
          <path id="path2605" d="M-73.308-43.534l0-4.275a6.619,6.619,0,0,0-1.051.368l-.162.054-4.7,1.585-1.288,2.265,1.288,2.267,4.863,1.639a6.637,6.637,0,0,0,1.051.368Z" transform="translate(80.506 47.809)" fill="#ffe5c1" fill-rule="evenodd"/>
        </g>
        <g id="g2607" transform="translate(0.896 53.576)">
          <path id="path2609" d="M-59.846,0l-5.36,1.811c-.341.129-.517.291-.517.453v.007c0,.159.176.321.517.449l5.36,1.811Z" transform="translate(65.723)" fill="#375e7d" fill-rule="evenodd"/>
        </g>
        <g id="g2611" transform="translate(49.271 51.538)">
          <path id="path2613" d="M-73.026-69.828v-5.106a1.755,1.755,0,0,0-1.751-1.751H-80.2v8.607h5.42a1.755,1.755,0,0,0,1.751-1.751" transform="translate(80.197 76.685)" fill="#eb5468" fill-rule="evenodd"/>
        </g>
        <g id="g2615" transform="translate(43.441 0.904)">
          <path id="path2617" d="M-170.109-93.988h-7.762a1.031,1.031,0,0,1-1.027-1.027v-8.2h-7.914c13.44,18.36,9.861,44.585,7.556,50.644h3.694a1.755,1.755,0,0,1,1.751,1.751v1.6h2.676a1.031,1.031,0,0,0,1.027-1.027Z" transform="translate(186.813 103.217)" fill="#dddaec" fill-rule="evenodd"/>
        </g>
        <g id="g2619" transform="translate(35.435 13.306)">
          <path id="path2621" d="M-54.133-60.747h-5.316s2.815-5.1,3.278-5.671.916-.216.956.291-.02,7.878-.02,7.878" transform="translate(59.449 66.712)" fill="none" stroke="#000" stroke-linecap="round" stroke-linejoin="round" stroke-miterlimit="10" stroke-width="2"/>
        </g>
        <g id="g2623" transform="translate(23.181 10.059)">
          <path id="path2625" d="M0-36.686H3.275L6.522-29.9l5.169-10.392h10" transform="translate(0 40.288)" fill="none" stroke="#000" stroke-linecap="round" stroke-linejoin="round" stroke-miterlimit="10" stroke-width="2"/>
        </g>
        <g id="g2627" transform="translate(42.504 27.132)">
          <path id="path2629" d="M0,0,2.291,6.461" fill="none" stroke="#000" stroke-linecap="round" stroke-linejoin="round" stroke-miterlimit="10" stroke-width="2"/>
        </g>
        <g id="g2631" transform="translate(43.917 27.132)">
          <path id="path2633" d="M-32.176,0l-3.16,9.141" transform="translate(35.336)" fill="none" stroke="#000" stroke-linecap="round" stroke-linejoin="round" stroke-miterlimit="10" stroke-width="2"/>
        </g>
        <g id="g2635" transform="translate(28.176 27.132)">
          <path id="path2637" d="M-46.907,0l-4.606,6.107" transform="translate(51.513)" fill="none" stroke="#000" stroke-linecap="round" stroke-linejoin="round" stroke-miterlimit="10" stroke-width="2"/>
        </g>
        <g id="g2639" transform="translate(28.409 27.132)">
          <path id="path2641" d="M0,0,4.714,6.215" fill="none" stroke="#000" stroke-linecap="round" stroke-linejoin="round" stroke-miterlimit="10" stroke-width="2"/>
        </g>
        <g id="g2643" transform="translate(37.655 27.686)">
          <path id="path2645" d="M0,0V4.839" fill="none" stroke="#000" stroke-linecap="round" stroke-linejoin="round" stroke-miterlimit="10" stroke-width="2"/>
        </g>
        <g id="g2647" transform="translate(35.208 30.076)">
          <path id="path2649" d="M-49.281,0H-54.12" transform="translate(54.12)" fill="none" stroke="#000" stroke-linecap="round" stroke-linejoin="round" stroke-miterlimit="10" stroke-width="2"/>
        </g>
        <g id="g2651" transform="translate(23.183 24.993)">
          <path id="path2653" d="M-22.145-106.893a7.42,7.42,0,0,1,0-10.5" transform="translate(24.32 117.389)" fill="none" stroke="#000" stroke-linecap="round" stroke-linejoin="round" stroke-miterlimit="10" stroke-width="2"/>
        </g>
        <g id="g2655" transform="translate(49.493 24.993)">
          <path id="path2657" d="M0-106.893a7.42,7.42,0,0,0,0-10.5" transform="translate(0 117.389)" fill="none" stroke="#000" stroke-linecap="round" stroke-linejoin="round" stroke-miterlimit="10" stroke-width="2"/>
        </g>
        <g id="g2659" transform="translate(24.692 40.484)">
          <path id="path2661" d="M-63.185,0h-6.2" transform="translate(69.389)" fill="none" stroke="#000" stroke-linecap="round" stroke-linejoin="round" stroke-miterlimit="10" stroke-width="2"/>
        </g>
        <g id="g2663" transform="translate(24.692 44.33)">
          <path id="path2665" d="M-63.185,0h-6.2" transform="translate(69.389)" fill="none" stroke="#000" stroke-linecap="round" stroke-linejoin="round" stroke-miterlimit="10" stroke-width="2"/>
        </g>
        <g id="g2667" transform="translate(51.356 0.894)">
          <path id="path2669" d="M-89.511-93.988h-7.762A1.031,1.031,0,0,1-98.3-95.015v-8.2" transform="translate(98.301 103.217)" fill="none" stroke="#000" stroke-linecap="round" stroke-linejoin="round" stroke-miterlimit="10" stroke-width="2"/>
        </g>
        <g id="g2671" transform="translate(51.356 0.894)">
          <path id="path2673" d="M-89.511-93.988h-7.762A1.031,1.031,0,0,1-98.3-95.015v-8.2" transform="translate(98.301 103.217)" fill="none" stroke="#000" stroke-linecap="round" stroke-linejoin="round" stroke-miterlimit="10" stroke-width="2"/>
        </g>
        <g id="g2675" transform="translate(17.444 0.894)">
          <path id="path2677" d="M0-515.744v-49.617a1.027,1.027,0,0,1,1.027-1.027H33.912l8.79,9.229v43.736a1.031,1.031,0,0,1-1.027,1.027H39" transform="translate(0 566.388)" fill="none" stroke="#000" stroke-linecap="round" stroke-linejoin="round" stroke-miterlimit="10" stroke-width="2"/>
        </g>
        <g id="g2679" transform="translate(11.473 5.058)">
          <path id="path2681" d="M0-240.527v-22.592a1.031,1.031,0,0,1,1.027-1.027H5.971M0-217.213V-236.4" transform="translate(0 264.146)" fill="none" stroke="#000" stroke-linecap="round" stroke-linejoin="round" stroke-miterlimit="10" stroke-width="2"/>
        </g>
        <g id="g2683" transform="translate(12.686 56.881)">
          <path id="path2685" d="M-326.109-.31H-357.77a2.092,2.092,0,0,1-.362-.03V2.894a2.092,2.092,0,0,0,.362.03h31.661Z" transform="translate(358.131 0.34)" fill="#ffd064" fill-rule="evenodd"/>
        </g>
        <path id="path2687" d="M504.57-46.183h-4.562v3.234h4.562Z" transform="translate(-455.299 103.094)" fill="#80b4fb" fill-rule="evenodd"/>
        <g id="g2689" transform="translate(49.271 55.161)">
          <path id="path2691" d="M-73.026-32.935v-3.234a1.755,1.755,0,0,1-1.751,1.751H-80.2v3.234h5.42a1.755,1.755,0,0,0,1.751-1.751" transform="translate(80.197 36.169)" fill="#e5384f" fill-rule="evenodd"/>
        </g>
        <g id="g2693" transform="translate(6.772 54.874)">
          <path id="path2695" d="M-60.225-53.378v-3.234a6.623,6.623,0,0,1-1.051-.368l-4.863-1.639v3.234l4.863,1.639a6.611,6.611,0,0,0,1.051.368" transform="translate(66.139 58.62)" fill="#fed1a3" fill-rule="evenodd"/>
        </g>
        <g id="g2697" transform="translate(0.896 54.225)">
          <path id="path2699" d="M-59.846-39.544v-3.234l-1.919-.649-3.44,1.163c-.341.128-.517.291-.517.453v.007c0,.159.176.321.517.449Z" transform="translate(65.723 43.427)" fill="#2b4d66" fill-rule="evenodd"/>
        </g>
        <g id="g2701" transform="translate(0.896 51.537)">
          <path id="path2703" d="M-385.163-.012h15.974a1.755,1.755,0,0,1,1.75,1.751V6.845a1.755,1.755,0,0,1-1.75,1.751h-40.937a3.528,3.528,0,0,1-2.119-.4l-10.222-3.45c-.689-.26-.689-.649,0-.909l10.222-3.45a3.528,3.528,0,0,1,2.119-.4h21.03" transform="translate(422.985 0.013)" fill="none" stroke="#000" stroke-linecap="round" stroke-linejoin="round" stroke-miterlimit="10" stroke-width="2"/>
        </g>
        <g id="g2705" transform="translate(49.271 51.538)">
          <path id="path2707" d="M0,0V8.607" fill="none" stroke="#000" stroke-linecap="round" stroke-linejoin="round" stroke-miterlimit="10" stroke-width="2"/>
        </g>
        <g id="g2709" transform="translate(12.686 51.569)">
          <path id="path2711" d="M0,0V8.547" fill="none" stroke="#000" stroke-linecap="round" stroke-linejoin="round" stroke-miterlimit="10" stroke-width="2"/>
        </g>
        <g id="g2713" transform="translate(6.772 53.576)">
          <path id="path2715" d="M0-46.151v-4.532" transform="translate(0 50.683)" fill="none" stroke="#000" stroke-linecap="round" stroke-linejoin="round" stroke-miterlimit="10" stroke-width="2"/>
        </g>
        <g id="g2717" transform="translate(44.709 51.538)">
          <path id="path2719" d="M0,0V8.607" fill="none" stroke="#000" stroke-linecap="round" stroke-linejoin="round" stroke-miterlimit="10" stroke-width="2"/>
        </g>
      </g>
    </g>
    <path id="Trazado_737905" data-name="Trazado 737905" d="M7.336,16.328l1.625,1.563L7.6,18.969l-2-1.906a6.181,6.181,0,0,1-.992.086,3.449,3.449,0,0,1-2.676-1.156A4.819,4.819,0,0,1,.828,12.93a10.216,10.216,0,0,1,.184-2.262,7.828,7.828,0,0,1,.844-2.4A5.75,5.75,0,0,1,3.367,6.453a4.623,4.623,0,0,1,3-.984A3.863,3.863,0,0,1,8.328,6,3.452,3.452,0,0,1,9.641,7.488a5.546,5.546,0,0,1,.531,2.2,8.283,8.283,0,0,1-.047,1.344l-.094.68A6.409,6.409,0,0,1,7.336,16.328ZM8.2,11l.07-.828a4.889,4.889,0,0,0-.152-1.578A2.051,2.051,0,0,0,7.445,7.5a1.935,1.935,0,0,0-1.18-.4A2.747,2.747,0,0,0,3.793,8.465a7.731,7.731,0,0,0-1.051,3.973A4.911,4.911,0,0,0,2.9,14.031a2.108,2.108,0,0,0,.668,1.105,1.881,1.881,0,0,0,1.16.4A2.625,2.625,0,0,0,6.9,14.594a5.708,5.708,0,0,0,1.2-2.9Zm14.414-.078H15.875V9.328h6.734Zm0,3.3H15.875v-1.57h6.734ZM33.633,17H31.742V7.862l-2.789.951V7.219l4.438-1.633h.242Zm4.344,2.563-1.023-.609a5.521,5.521,0,0,0,.621-1.238,3.7,3.7,0,0,0,.176-1.074V15.164h1.711l-.008,1.367a3.81,3.81,0,0,1-.418,1.66A4.124,4.124,0,0,1,37.977,19.563ZM48.266,8.625a2.644,2.644,0,0,1-.43,1.488,2.98,2.98,0,0,1-1.172,1.027,3.246,3.246,0,0,1,1.371,1.133,2.858,2.858,0,0,1,.48,1.625A2.984,2.984,0,0,1,47.5,16.277a4.606,4.606,0,0,1-5.418,0,2.982,2.982,0,0,1-1.02-2.375,2.891,2.891,0,0,1,.484-1.641,3.112,3.112,0,0,1,1.359-1.117,2.964,2.964,0,0,1-1.16-1.027,2.662,2.662,0,0,1-.426-1.488,2.959,2.959,0,0,1,.938-2.3,4.2,4.2,0,0,1,5.07,0A2.959,2.959,0,0,1,48.266,8.625ZM46.617,13.8a1.875,1.875,0,0,0-.5-1.363,1.771,1.771,0,0,0-1.332-.52,1.752,1.752,0,0,0-1.324.516,1.889,1.889,0,0,0-.5,1.367,1.83,1.83,0,0,0,.488,1.336,2.081,2.081,0,0,0,2.688.016A1.836,1.836,0,0,0,46.617,13.8ZM46.375,8.7a1.765,1.765,0,0,0-.43-1.223,1.651,1.651,0,0,0-2.3-.023A1.766,1.766,0,0,0,43.219,8.7a1.759,1.759,0,0,0,.426,1.242,1.671,1.671,0,0,0,2.3,0A1.759,1.759,0,0,0,46.375,8.7ZM50.7,11.359l.617-5.734H57.43V7.266H52.9l-.312,2.719a3.512,3.512,0,0,1,1.781-.453,3.169,3.169,0,0,1,2.527,1.039,4.118,4.118,0,0,1,.9,2.8,3.79,3.79,0,0,1-1,2.762,3.65,3.65,0,0,1-2.742,1.027,3.822,3.822,0,0,1-2.59-.887,3.206,3.206,0,0,1-1.113-2.34h1.836a2,2,0,0,0,.594,1.27,1.806,1.806,0,0,0,1.266.441,1.632,1.632,0,0,0,1.363-.625,2.7,2.7,0,0,0,.488-1.7,2.384,2.384,0,0,0-.539-1.645,1.885,1.885,0,0,0-1.484-.605,2.074,2.074,0,0,0-1.656.672Zm13.969.883a3.1,3.1,0,0,1-4.617-.043,4.126,4.126,0,0,1-.891-2.762A4.528,4.528,0,0,1,59.617,7.4a3.379,3.379,0,0,1,1.289-1.422,3.657,3.657,0,0,1,1.938-.508A3.286,3.286,0,0,1,65.57,6.75a5.4,5.4,0,0,1,1.008,3.43v.531a7.009,7.009,0,0,1-1.391,4.7,5.235,5.235,0,0,1-4.148,1.641h-.227v-1.57h.273a3.887,3.887,0,0,0,2.578-.809A3.371,3.371,0,0,0,64.672,12.242Zm-1.828-.477a1.916,1.916,0,0,0,1.07-.328,2.162,2.162,0,0,0,.773-.906V9.789a3.564,3.564,0,0,0-.516-2.023A1.553,1.553,0,0,0,62.836,7a1.535,1.535,0,0,0-1.309.676,2.841,2.841,0,0,0-.488,1.707,2.806,2.806,0,0,0,.492,1.727A1.559,1.559,0,0,0,62.844,11.766Zm12.625-.453,1.992-2.766h2.164L76.391,12.8,78.273,17H76.336l-1.18-2.883L73.078,17H70.922l3.336-4.375-1.82-4.078h1.938Zm10.344,4.109h5.016L90.547,17H83.609L85.586,5.625h1.93Zm13.906-4.109,1.992-2.766h2.164l-3.234,4.25,1.883,4.2h-1.937l-1.18-2.883L97.328,17H95.172l3.336-4.375-1.82-4.078h1.938ZM116.633,17h-1.922l.875-5.047h-4.922L109.789,17h-1.93l1.977-11.375h1.93l-.828,4.734h4.922l.82-4.734h1.93Zm5.519-5h-1.1V6.67l-1.627.555v-.93l2.588-.952h.141Zm2.534,1.495-.6-.355a3.22,3.22,0,0,0,.362-.722,2.155,2.155,0,0,0,.1-.627v-.861h1l0,.8a2.223,2.223,0,0,1-.244.968A2.406,2.406,0,0,1,124.685,13.495ZM126.8,8.71l.36-3.345h3.564v.957h-2.643L127.9,7.908a2.049,2.049,0,0,1,1.039-.264,1.848,1.848,0,0,1,1.474.606,2.4,2.4,0,0,1,.526,1.631,2.211,2.211,0,0,1-.583,1.611,2.129,2.129,0,0,1-1.6.6,2.23,2.23,0,0,1-1.511-.517,1.87,1.87,0,0,1-.649-1.365h1.071a1.169,1.169,0,0,0,.346.741,1.054,1.054,0,0,0,.738.257.952.952,0,0,0,.8-.365,1.573,1.573,0,0,0,.285-.993,1.39,1.39,0,0,0-.314-.959,1.1,1.1,0,0,0-.866-.353,1.21,1.21,0,0,0-.966.392Z" transform="translate(705 16540)" fill="#12263f"/>
    <path id="Trazado_737906" data-name="Trazado 737906" d="M7.336,16.328l1.625,1.563L7.6,18.969l-2-1.906a6.181,6.181,0,0,1-.992.086,3.449,3.449,0,0,1-2.676-1.156A4.819,4.819,0,0,1,.828,12.93a10.216,10.216,0,0,1,.184-2.262,7.828,7.828,0,0,1,.844-2.4A5.75,5.75,0,0,1,3.367,6.453a4.623,4.623,0,0,1,3-.984A3.863,3.863,0,0,1,8.328,6,3.452,3.452,0,0,1,9.641,7.488a5.546,5.546,0,0,1,.531,2.2,8.283,8.283,0,0,1-.047,1.344l-.094.68A6.409,6.409,0,0,1,7.336,16.328ZM8.2,11l.07-.828a4.889,4.889,0,0,0-.152-1.578A2.051,2.051,0,0,0,7.445,7.5a1.935,1.935,0,0,0-1.18-.4A2.747,2.747,0,0,0,3.793,8.465a7.731,7.731,0,0,0-1.051,3.973A4.911,4.911,0,0,0,2.9,14.031a2.108,2.108,0,0,0,.668,1.105,1.881,1.881,0,0,0,1.16.4A2.625,2.625,0,0,0,6.9,14.594a5.708,5.708,0,0,0,1.2-2.9Zm14.414-.078H15.875V9.328h6.734Zm0,3.3H15.875v-1.57h6.734ZM33.633,17H31.742V7.862l-2.789.951V7.219l4.438-1.633h.242Zm4.344,2.563-1.023-.609a5.521,5.521,0,0,0,.621-1.238,3.7,3.7,0,0,0,.176-1.074V15.164h1.711l-.008,1.367a3.81,3.81,0,0,1-.418,1.66A4.124,4.124,0,0,1,37.977,19.563ZM48.266,8.625a2.644,2.644,0,0,1-.43,1.488,2.98,2.98,0,0,1-1.172,1.027,3.246,3.246,0,0,1,1.371,1.133,2.858,2.858,0,0,1,.48,1.625A2.984,2.984,0,0,1,47.5,16.277a4.606,4.606,0,0,1-5.418,0,2.982,2.982,0,0,1-1.02-2.375,2.891,2.891,0,0,1,.484-1.641,3.112,3.112,0,0,1,1.359-1.117,2.964,2.964,0,0,1-1.16-1.027,2.662,2.662,0,0,1-.426-1.488,2.959,2.959,0,0,1,.938-2.3,4.2,4.2,0,0,1,5.07,0A2.959,2.959,0,0,1,48.266,8.625ZM46.617,13.8a1.875,1.875,0,0,0-.5-1.363,1.771,1.771,0,0,0-1.332-.52,1.752,1.752,0,0,0-1.324.516,1.889,1.889,0,0,0-.5,1.367,1.83,1.83,0,0,0,.488,1.336,2.081,2.081,0,0,0,2.688.016A1.836,1.836,0,0,0,46.617,13.8ZM46.375,8.7a1.765,1.765,0,0,0-.43-1.223,1.651,1.651,0,0,0-2.3-.023A1.766,1.766,0,0,0,43.219,8.7a1.759,1.759,0,0,0,.426,1.242,1.671,1.671,0,0,0,2.3,0A1.759,1.759,0,0,0,46.375,8.7ZM50.7,11.359l.617-5.734H57.43V7.266H52.9l-.312,2.719a3.512,3.512,0,0,1,1.781-.453,3.169,3.169,0,0,1,2.527,1.039,4.118,4.118,0,0,1,.9,2.8,3.79,3.79,0,0,1-1,2.762,3.65,3.65,0,0,1-2.742,1.027,3.822,3.822,0,0,1-2.59-.887,3.206,3.206,0,0,1-1.113-2.34h1.836a2,2,0,0,0,.594,1.27,1.806,1.806,0,0,0,1.266.441,1.632,1.632,0,0,0,1.363-.625,2.7,2.7,0,0,0,.488-1.7,2.384,2.384,0,0,0-.539-1.645,1.885,1.885,0,0,0-1.484-.605,2.074,2.074,0,0,0-1.656.672Zm13.969.883a3.1,3.1,0,0,1-4.617-.043,4.126,4.126,0,0,1-.891-2.762A4.528,4.528,0,0,1,59.617,7.4a3.379,3.379,0,0,1,1.289-1.422,3.657,3.657,0,0,1,1.938-.508A3.286,3.286,0,0,1,65.57,6.75a5.4,5.4,0,0,1,1.008,3.43v.531a7.009,7.009,0,0,1-1.391,4.7,5.235,5.235,0,0,1-4.148,1.641h-.227v-1.57h.273a3.887,3.887,0,0,0,2.578-.809A3.371,3.371,0,0,0,64.672,12.242Zm-1.828-.477a1.916,1.916,0,0,0,1.07-.328,2.162,2.162,0,0,0,.773-.906V9.789a3.564,3.564,0,0,0-.516-2.023A1.553,1.553,0,0,0,62.836,7a1.535,1.535,0,0,0-1.309.676,2.841,2.841,0,0,0-.488,1.707,2.806,2.806,0,0,0,.492,1.727A1.559,1.559,0,0,0,62.844,11.766Zm12.625-.453,1.992-2.766h2.164L76.391,12.8,78.273,17H76.336l-1.18-2.883L73.078,17H70.922l3.336-4.375-1.82-4.078h1.938Zm10.883-.867h1.156a2.069,2.069,0,0,0,1.387-.453A1.617,1.617,0,0,0,89.406,8.7a1.762,1.762,0,0,0-.426-1.262,1.714,1.714,0,0,0-1.3-.449,1.813,1.813,0,0,0-1.258.441,1.475,1.475,0,0,0-.492,1.152h-1.9A2.873,2.873,0,0,1,84.5,6.992a3.123,3.123,0,0,1,1.3-1.121,4.225,4.225,0,0,1,1.863-.4,3.912,3.912,0,0,1,2.676.855A3,3,0,0,1,91.3,8.7a2.417,2.417,0,0,1-.488,1.441,3.062,3.062,0,0,1-1.262,1.02,2.791,2.791,0,0,1,1.426,1.008,2.759,2.759,0,0,1,.488,1.641,3.055,3.055,0,0,1-1.051,2.438,4.613,4.613,0,0,1-5.449.031,2.882,2.882,0,0,1-1.047-2.328h1.9a1.588,1.588,0,0,0,.5,1.219,1.911,1.911,0,0,0,1.355.469,1.971,1.971,0,0,0,1.391-.469,1.758,1.758,0,0,0,.508-1.359,1.776,1.776,0,0,0-.531-1.383,2.271,2.271,0,0,0-1.578-.484H86.352Zm13.984.867,1.992-2.766h2.164l-3.234,4.25,1.883,4.2H101.2l-1.18-2.883L97.945,17H95.789l3.336-4.375L97.3,8.547h1.938Zm8.836,1.063a11.9,11.9,0,0,1,.484-3.426,9.4,9.4,0,0,1,1.422-2.9,5.646,5.646,0,0,1,1.984-1.793l.375,1.109a5.8,5.8,0,0,0-1.785,2.551,11.424,11.424,0,0,0-.746,3.926l-.008.672a12.42,12.42,0,0,0,.668,4.223,6.224,6.224,0,0,0,1.871,2.824l-.375,1.055a5.655,5.655,0,0,1-1.988-1.8,9.4,9.4,0,0,1-1.422-2.9A12.374,12.374,0,0,1,109.172,12.375Zm12.844-.164a6.2,6.2,0,0,1-.918,3.7,3.242,3.242,0,0,1-2.793,1.246,3.285,3.285,0,0,1-2.777-1.215,5.94,5.94,0,0,1-.957-3.6V10.375a6.11,6.11,0,0,1,.918-3.68,3.827,3.827,0,0,1,5.586-.031,5.924,5.924,0,0,1,.941,3.578Zm-1.9-2.125a4.813,4.813,0,0,0-.437-2.348,1.672,1.672,0,0,0-2.758-.039,4.448,4.448,0,0,0-.461,2.207v2.578a4.937,4.937,0,0,0,.445,2.375,1.5,1.5,0,0,0,1.4.781,1.469,1.469,0,0,0,1.352-.723,4.645,4.645,0,0,0,.461-2.262Zm3.969,9.477-1.023-.609a5.52,5.52,0,0,0,.621-1.238,3.7,3.7,0,0,0,.176-1.074V15.164h1.711l-.008,1.367a3.81,3.81,0,0,1-.418,1.66A4.124,4.124,0,0,1,124.086,19.563ZM132.352,17h-1.891V7.862l-2.789.951V7.219l4.438-1.633h.242Zm4.461-5.641.617-5.734h6.109V7.266h-4.531L138.7,9.984a3.512,3.512,0,0,1,1.781-.453A3.169,3.169,0,0,1,143,10.57a4.118,4.118,0,0,1,.9,2.8,3.79,3.79,0,0,1-1,2.762,3.65,3.65,0,0,1-2.742,1.027,3.822,3.822,0,0,1-2.59-.887,3.206,3.206,0,0,1-1.113-2.34H138.3a2,2,0,0,0,.594,1.27,1.806,1.806,0,0,0,1.266.441,1.632,1.632,0,0,0,1.363-.625,2.7,2.7,0,0,0,.488-1.7,2.384,2.384,0,0,0-.539-1.645,1.885,1.885,0,0,0-1.484-.605,2.074,2.074,0,0,0-1.656.672ZM149.18,12.5a11.755,11.755,0,0,1-.477,3.348,9.485,9.485,0,0,1-1.445,2.938,5.66,5.66,0,0,1-2.023,1.832l-.375-1.055a6,6,0,0,0,1.855-2.77,12.3,12.3,0,0,0,.684-4.254v-.18A12.484,12.484,0,0,0,146.8,8.4a6.98,6.98,0,0,0-1.7-2.863l-.242-.219.375-1.062a5.6,5.6,0,0,1,1.938,1.719,9.326,9.326,0,0,1,1.438,2.762,11.5,11.5,0,0,1,.563,3.152Zm4.5-.5h-1.1V6.67l-1.627.555v-.93l2.588-.952h.141Zm2.534,1.495-.6-.355a3.22,3.22,0,0,0,.362-.722,2.155,2.155,0,0,0,.1-.627v-.861h1l0,.8a2.223,2.223,0,0,1-.244.968A2.406,2.406,0,0,1,156.216,13.495Zm2.119-4.785.36-3.345h3.564v.957h-2.643l-.182,1.586a2.049,2.049,0,0,1,1.039-.264,1.848,1.848,0,0,1,1.474.606,2.4,2.4,0,0,1,.526,1.631,2.211,2.211,0,0,1-.583,1.611,2.129,2.129,0,0,1-1.6.6,2.23,2.23,0,0,1-1.511-.517,1.87,1.87,0,0,1-.649-1.365H159.2a1.17,1.17,0,0,0,.346.741,1.053,1.053,0,0,0,.738.257.952.952,0,0,0,.8-.365,1.573,1.573,0,0,0,.285-.993,1.39,1.39,0,0,0-.314-.959,1.1,1.1,0,0,0-.866-.353,1.209,1.209,0,0,0-.966.392Z" transform="translate(705 16601)" fill="#12263f"/>
    <path id="Trazado_737907" data-name="Trazado 737907" d="M7.336,16.328l1.625,1.563L7.6,18.969l-2-1.906a6.181,6.181,0,0,1-.992.086,3.449,3.449,0,0,1-2.676-1.156A4.819,4.819,0,0,1,.828,12.93a10.216,10.216,0,0,1,.184-2.262,7.828,7.828,0,0,1,.844-2.4A5.75,5.75,0,0,1,3.367,6.453a4.623,4.623,0,0,1,3-.984A3.863,3.863,0,0,1,8.328,6,3.452,3.452,0,0,1,9.641,7.488a5.546,5.546,0,0,1,.531,2.2,8.283,8.283,0,0,1-.047,1.344l-.094.68A6.409,6.409,0,0,1,7.336,16.328ZM8.2,11l.07-.828a4.889,4.889,0,0,0-.152-1.578A2.051,2.051,0,0,0,7.445,7.5a1.935,1.935,0,0,0-1.18-.4A2.747,2.747,0,0,0,3.793,8.465a7.731,7.731,0,0,0-1.051,3.973A4.911,4.911,0,0,0,2.9,14.031a2.108,2.108,0,0,0,.668,1.105,1.881,1.881,0,0,0,1.16.4A2.625,2.625,0,0,0,6.9,14.594a5.708,5.708,0,0,0,1.2-2.9Zm14.414-.078H15.875V9.328h6.734Zm0,3.3H15.875v-1.57h6.734Zm13.3-2.008a6.2,6.2,0,0,1-.918,3.7A3.242,3.242,0,0,1,32.2,17.156a3.285,3.285,0,0,1-2.777-1.215,5.94,5.94,0,0,1-.957-3.6V10.375a6.11,6.11,0,0,1,.918-3.68,3.272,3.272,0,0,1,2.8-1.227,3.291,3.291,0,0,1,2.785,1.2,5.923,5.923,0,0,1,.941,3.578Zm-1.9-2.125a4.813,4.813,0,0,0-.437-2.348A1.672,1.672,0,0,0,30.813,7.7a4.448,4.448,0,0,0-.461,2.207v2.578a4.937,4.937,0,0,0,.445,2.375,1.5,1.5,0,0,0,1.4.781,1.469,1.469,0,0,0,1.352-.723,4.645,4.645,0,0,0,.461-2.262Zm3.969,9.477-1.023-.609a5.521,5.521,0,0,0,.621-1.238,3.7,3.7,0,0,0,.176-1.074V15.164h1.711l-.008,1.367a3.81,3.81,0,0,1-.418,1.66A4.124,4.124,0,0,1,37.977,19.563Zm5.32-9.117h1.156a2.069,2.069,0,0,0,1.387-.453A1.617,1.617,0,0,0,46.352,8.7a1.762,1.762,0,0,0-.426-1.262,1.714,1.714,0,0,0-1.3-.449,1.813,1.813,0,0,0-1.258.441,1.475,1.475,0,0,0-.492,1.152h-1.9a2.874,2.874,0,0,1,.465-1.594,3.123,3.123,0,0,1,1.3-1.121,4.225,4.225,0,0,1,1.863-.4,3.912,3.912,0,0,1,2.676.855A3,3,0,0,1,48.25,8.7a2.417,2.417,0,0,1-.488,1.441,3.062,3.062,0,0,1-1.262,1.02,2.791,2.791,0,0,1,1.426,1.008,2.759,2.759,0,0,1,.488,1.641,3.055,3.055,0,0,1-1.051,2.438,4.613,4.613,0,0,1-5.449.031,2.882,2.882,0,0,1-1.047-2.328h1.9a1.588,1.588,0,0,0,.5,1.219,1.911,1.911,0,0,0,1.355.469,1.971,1.971,0,0,0,1.391-.469,1.758,1.758,0,0,0,.508-1.359,1.776,1.776,0,0,0-.531-1.383,2.271,2.271,0,0,0-1.578-.484H43.3ZM57.844,17H50.2V15.7l3.789-4.133a9.435,9.435,0,0,0,1.168-1.527A2.475,2.475,0,0,0,55.5,8.8a1.87,1.87,0,0,0-.457-1.312,1.585,1.585,0,0,0-1.23-.5,1.827,1.827,0,0,0-1.43.563,2.212,2.212,0,0,0-.508,1.539h-1.9a3.721,3.721,0,0,1,.473-1.871A3.255,3.255,0,0,1,51.8,5.93a4.3,4.3,0,0,1,2.027-.461,3.848,3.848,0,0,1,2.613.832A2.888,2.888,0,0,1,57.4,8.6a3.9,3.9,0,0,1-.48,1.785,10.151,10.151,0,0,1-1.574,2.121l-2.781,2.977h5.281Zm7.867-4.055h1.414v1.523H65.711V17h-1.9V14.469H58.9l-.055-1.156L63.75,5.625h1.961Zm-4.875,0h2.977V8.2l-.141.25ZM75.8,12.211a6.2,6.2,0,0,1-.918,3.7,3.242,3.242,0,0,1-2.793,1.246,3.285,3.285,0,0,1-2.777-1.215,5.94,5.94,0,0,1-.957-3.6V10.375A6.11,6.11,0,0,1,69.27,6.7a3.827,3.827,0,0,1,5.586-.031,5.924,5.924,0,0,1,.941,3.578Zm-1.9-2.125a4.813,4.813,0,0,0-.437-2.348A1.672,1.672,0,0,0,70.7,7.7a4.448,4.448,0,0,0-.461,2.207v2.578a4.937,4.937,0,0,0,.445,2.375,1.5,1.5,0,0,0,1.4.781,1.469,1.469,0,0,0,1.352-.723,4.645,4.645,0,0,0,.461-2.262Z" transform="translate(705 16652)" fill="#12263f"/>
    <path id="Trazado_737908" data-name="Trazado 737908" d="M4.375,8.539l-.164.9a3.259,3.259,0,0,1,2.5-1.047,2.427,2.427,0,0,1,1.324.367,1.738,1.738,0,0,1,.715.93,3.406,3.406,0,0,1,2.688-1.3,2.195,2.195,0,0,1,1.832.848,3.235,3.235,0,0,1,.449,2.285L12.8,17H10.953l.922-5.492a2.879,2.879,0,0,0,.008-.633,1.034,1.034,0,0,0-1.156-.937A1.949,1.949,0,0,0,8.914,11.2l-.023.172L7.922,17H6.063l.922-5.469a2.806,2.806,0,0,0,.008-.625,1.043,1.043,0,0,0-1.156-.969,2.042,2.042,0,0,0-1.734.93L3.031,17H1.18L2.641,8.547Zm12.043-.362h.674a1.207,1.207,0,0,0,.809-.264.943.943,0,0,0,.3-.752,1.028,1.028,0,0,0-.248-.736,1,1,0,0,0-.759-.262,1.057,1.057,0,0,0-.734.257.86.86,0,0,0-.287.672H15.065a1.676,1.676,0,0,1,.271-.93,1.822,1.822,0,0,1,.756-.654,2.464,2.464,0,0,1,1.087-.235,2.282,2.282,0,0,1,1.561.5,1.751,1.751,0,0,1,.567,1.388A1.41,1.41,0,0,1,19.022,8a1.786,1.786,0,0,1-.736.595,1.628,1.628,0,0,1,.832.588,1.61,1.61,0,0,1,.285.957,1.782,1.782,0,0,1-.613,1.422,2.38,2.38,0,0,1-1.611.529,2.362,2.362,0,0,1-1.568-.51A1.681,1.681,0,0,1,15,10.223h1.107a.926.926,0,0,0,.294.711,1.115,1.115,0,0,0,.791.273A1.15,1.15,0,0,0,18,10.934a1.026,1.026,0,0,0,.3-.793,1.036,1.036,0,0,0-.31-.807,1.325,1.325,0,0,0-.921-.283h-.652Z" transform="translate(801 16643.5)" fill="#12263f"/>
    <path id="Trazado_737909" data-name="Trazado 737909" d="M18.137,14.656q.133-.773-1-1.074a12.763,12.763,0,0,1-1.551-.48,2.138,2.138,0,0,1-1.555-2.094,2.378,2.378,0,0,1,1.035-1.887,3.794,3.794,0,0,1,2.387-.73,3.266,3.266,0,0,1,2.191.758,2.417,2.417,0,0,1,.832,1.945l-1.836-.008a1.185,1.185,0,0,0-.32-.918,1.307,1.307,0,0,0-.922-.348,1.817,1.817,0,0,0-1.059.3,1.135,1.135,0,0,0-.512.8q-.109.711,1,.988a10.976,10.976,0,0,1,1.641.512,2.14,2.14,0,0,1,1.492,2.125,2.336,2.336,0,0,1-.527,1.4,3.077,3.077,0,0,1-1.309.914,4.477,4.477,0,0,1-1.742.293,3.437,3.437,0,0,1-2.293-.8,2.512,2.512,0,0,1-.895-2.023l1.789.008a1.361,1.361,0,0,0,.406,1.031,1.57,1.57,0,0,0,1.07.359,2.126,2.126,0,0,0,1.145-.285A1.094,1.094,0,0,0,18.137,14.656Z" transform="translate(794 16662.5)" fill="#12263f"/>
    <path id="Trazado_737910" data-name="Trazado 737910" d="M0,0H42.242" transform="translate(790.5 16662.5)" fill="none" stroke="#12263f" stroke-width="1"/>
  </g>
</svg>
