<svg id="Page-1" xmlns="http://www.w3.org/2000/svg" width="116.03" height="116.029" viewBox="0 0 116.03 116.029">
  <g id="_002---Open-Book" data-name="002---Open-Book" transform="translate(0 0)">
    <path id="Rectangle-path" d="M26,29H41.471V67.677H26Z" transform="translate(24.28 27.08)" fill="#c81e1e"/>
    <path id="Shape" d="M41.471,20.934V30.6H26V20.934A1.934,1.934,0,0,1,27.934,19h11.6A1.934,1.934,0,0,1,41.471,20.934Z" transform="translate(24.28 17.742)" fill="#c81e1e"/>
    <path id="Shape-2" data-name="Shape" d="M41.471,53v9.669A1.934,1.934,0,0,1,39.537,64.6h-11.6A1.934,1.934,0,0,1,26,62.669V53Z" transform="translate(24.28 49.493)" fill="#c81e1e"/>
    <path id="Shape-3" data-name="Shape" d="M49.346,30.5v73.138a1.934,1.934,0,0,1-2.707,1.76L2.16,85.829A1.916,1.916,0,0,1,1,84.069V10.931a1.92,1.92,0,0,1,2.707-1.76L5.6,10,48.186,28.742a1.9,1.9,0,0,1,1.16,1.76Z" transform="translate(0.934 8.406)" fill="#f44335"/>
    <path id="Shape-4" data-name="Shape" d="M48.162,28.742,5.579,10l-1.9-.832a1.909,1.909,0,0,0-2.659,1.373l41.336,18.2a1.9,1.9,0,0,1,1.16,1.76V103.64a1.847,1.847,0,0,1-.048.387l3.142,1.383a1.934,1.934,0,0,0,2.707-1.76V30.5a1.9,1.9,0,0,0-1.16-1.76Z" transform="translate(0.957 8.406)" fill="#c81e1e"/>
    <path id="Shape-5" data-name="Shape" d="M82.346,10.931V84.069a1.916,1.916,0,0,1-1.16,1.76L36.707,105.4A1.934,1.934,0,0,1,34,103.639V30.5a1.9,1.9,0,0,1,1.16-1.76L77.743,10l1.9-.832a1.92,1.92,0,0,1,2.707,1.76Z" transform="translate(31.75 8.406)" fill="#c81e1e"/>
    <path id="Shape-6" data-name="Shape" d="M81.479,13.588,38.9,32.327a1.9,1.9,0,0,0-1.16,1.76v-.232A1.934,1.934,0,0,0,35.8,31.921H30v-5.8s.019-.135.058-.387C30.986,22.155,44.33,12.621,62.875,7.38c3-.851,6.13-1.586,9.36-2.166a3.906,3.906,0,0,1,3.674,1.412Z" transform="translate(28.015 4.821)" fill="#ffe0b2"/>
    <path id="Shape-7" data-name="Shape" d="M73.97,6.626A3.906,3.906,0,0,0,70.3,5.214c-1.021.184-2.015.408-3.017.621a3.868,3.868,0,0,1,.89.791l5.569,6.962L32.077,31.921h1.785A1.934,1.934,0,0,1,35.8,33.855v.232a1.9,1.9,0,0,1,1.16-1.76L79.539,13.588Z" transform="translate(29.955 4.821)" fill="#dfc49c"/>
    <path id="Shape-8" data-name="Shape" d="M54.859,26.119v5.8h-5.8a1.934,1.934,0,0,0-1.934,1.934v.232a1.9,1.9,0,0,0-1.16-1.76L3.38,13.588,8.949,6.626a3.906,3.906,0,0,1,3.674-1.412c3.23.58,6.362,1.315,9.36,2.166C40.529,12.621,53.873,22.155,54.8,25.733c.039.251.058.387.058.387Z" transform="translate(3.156 4.821)" fill="#ffe0b2"/>
    <path id="Shape-9" data-name="Shape" d="M45.817,29.621C44.889,26.043,31.546,16.509,13,11.269V1C41.582,6.357,45.411,26.565,45.817,29.621Z" transform="translate(12.14 0.933)" fill="#dfc49c"/>
    <path id="Shape-10" data-name="Shape" d="M62.847,1V11.269C44.3,16.509,30.958,26.043,30.03,29.621,30.436,26.565,34.265,6.357,62.847,1Z" transform="translate(28.043 0.933)" fill="#dfc49c"/>
    <path id="Shape-11" data-name="Shape" d="M70.875,37.338,38,52.809V33.471L70.875,18Z" transform="translate(35.486 16.808)" fill="#f57c00"/>
    <path id="Shape-12" data-name="Shape" d="M5,37.338,37.875,52.809V33.471L5,18Z" transform="translate(4.669 16.808)" fill="#ff9801"/>
    <path id="Rectangle-path-2" data-name="Rectangle-path" d="M26,25H41.471v7.735H26Z" transform="translate(24.28 23.345)" fill="#ffdc00"/>
    <path id="Rectangle-path-3" data-name="Rectangle-path" d="M31,25h5.8v7.735H31Z" transform="translate(28.949 23.345)" fill="#fec108"/>
    <path id="Rectangle-path-4" data-name="Rectangle-path" d="M26,49H41.471v7.735H26Z" transform="translate(24.28 45.757)" fill="#ffdc00"/>
    <path id="Rectangle-path-5" data-name="Rectangle-path" d="M31,49h5.8v7.735H31Z" transform="translate(28.949 45.757)" fill="#fec108"/>
    <g id="Grupo_1013891" data-name="Grupo 1013891">
      <path id="Shape-13" data-name="Shape" d="M114.276,16.1a3.868,3.868,0,0,0-3.674-.3l-.534.236-4.641-5.8a5.78,5.78,0,0,0-5.529-2.1c-2.4.429-4.759.955-7.076,1.547V1.933a1.934,1.934,0,0,0-.7-1.489A1.953,1.953,0,0,0,90.533.032c-21.189,3.972-29.39,16-32.517,23.7C54.878,16.018,46.675,4,25.5.032A1.957,1.957,0,0,0,23.9.444a1.934,1.934,0,0,0-.7,1.489V9.692c-2.321-.6-4.68-1.124-7.076-1.547a5.8,5.8,0,0,0-5.529,2.1L5.96,16.05l-.534-.234A3.868,3.868,0,0,0,0,19.338v73.13a3.868,3.868,0,0,0,2.309,3.539l44.478,19.57a3.7,3.7,0,0,0,3.361-.159,3.827,3.827,0,0,0,2.065.611h11.6a3.827,3.827,0,0,0,2.063-.609,3.839,3.839,0,0,0,1.8.487,3.879,3.879,0,0,0,1.561-.329l44.478-19.57a3.868,3.868,0,0,0,2.309-3.541V19.338a3.856,3.856,0,0,0-1.754-3.237Zm-13.7-4.154a1.945,1.945,0,0,1,1.827.71l4,4.991L66.124,35.371c-.056.023-.1.068-.153.095a3.85,3.85,0,0,0-2.154-.658H59.949v-3.8c.814-2.725,16.89-14.817,40.632-19.064ZM63.817,38.676v7.735h-11.6V38.676Zm-11.6,11.6h11.6v3.868h-11.6Zm0,7.735h11.6V92.824h-11.6Zm0,38.677h11.6v3.868h-11.6ZM88.957,4.308v6.459A90.407,90.407,0,0,0,62.4,23.349C65.557,16.843,72.747,7.994,88.957,4.308Zm-61.883,0C43.272,7.982,50.46,16.83,53.625,23.345A90.393,90.393,0,0,0,27.074,10.767ZM13.622,12.657a1.947,1.947,0,0,1,1.827-.71c23.7,4.239,39.756,16.295,40.611,18.938l.029.193v3.73H52.214a3.85,3.85,0,0,0-2.154.658c-.056-.027-.1-.072-.155-.1L9.625,17.648ZM3.868,92.468V19.338l44.478,19.57v73.13Zm48.346,19.694v-7.735h11.6v7.735Zm15.471-.124V38.91l44.478-19.572v73.13Z" transform="translate(0 0)"/>
      <path id="Shape-14" data-name="Shape" d="M72.846,17.3a1.934,1.934,0,0,0-1.86-.118L38.11,32.654A1.934,1.934,0,0,0,37,34.4V53.743a1.934,1.934,0,0,0,2.758,1.75L72.633,40.022a1.934,1.934,0,0,0,1.11-1.75V18.934a1.934,1.934,0,0,0-.9-1.632Zm-2.97,19.743L40.868,50.7V35.633L69.875,21.982Z" transform="translate(34.552 15.874)"/>
      <path id="Shape-15" data-name="Shape" d="M39.633,32.66,6.758,17.189A1.934,1.934,0,0,0,4,18.929V38.268a1.934,1.934,0,0,0,1.11,1.75L37.985,55.489a1.935,1.935,0,0,0,2.758-1.75V34.4a1.934,1.934,0,0,0-1.11-1.74ZM36.875,50.691,7.868,37.04V21.977L36.875,35.628Z" transform="translate(3.735 15.879)"/>
      <path id="Shape-16" data-name="Shape" d="M39.633,47.66,6.758,32.189a1.934,1.934,0,1,0-1.648,3.5L37.986,51.16a1.934,1.934,0,0,0,1.648-3.5Z" transform="translate(3.735 29.886)"/>
      <path id="Shape-17" data-name="Shape" d="M33.848,49.938,8.8,38.142a1.934,1.934,0,1,0-1.634,3.5l25.051,11.8a1.934,1.934,0,1,0,1.648-3.5Z" transform="translate(5.602 35.428)"/>
      <path id="Shape-18" data-name="Shape" d="M70.986,32.189,38.11,47.66a1.934,1.934,0,0,0,1.648,3.5L72.633,35.689a1.934,1.934,0,0,0-1.648-3.5Z" transform="translate(34.552 29.886)"/>
      <path id="Shape-19" data-name="Shape" d="M65.166,38.15,40.119,49.941a1.934,1.934,0,0,0,1.648,3.5l25.051-11.8a1.934,1.934,0,1,0-1.646-3.5Z" transform="translate(36.461 35.425)"/>
    </g>
  </g>
</svg>
