<svg xmlns="http://www.w3.org/2000/svg" xmlns:xlink="http://www.w3.org/1999/xlink" width="812" height="501.48" viewBox="0 0 812 501.48">
  <defs>
    <clipPath id="clip-path">
      <rect id="Rectángulo_350627" data-name="Rectángulo 350627" width="49.625" height="30.1" fill="none"/>
    </clipPath>
  </defs>
  <g id="Grupo_1016005" data-name="Grupo 1016005" transform="translate(-596 -2221)">
    <rect id="dylan-shaw-UxyWwU6n_ts-unsplash" width="812" height="501.48" transform="translate(596 2221)" fill="#d2e1f1"/>
    <g id="Rectángulo_350565" data-name="Rectángulo 350565" transform="translate(616.408 2249.082)" fill="none" stroke="#fff" stroke-width="3">
      <rect width="763.711" height="445.51" stroke="none"/>
      <rect x="1.5" y="1.5" width="760.711" height="442.51" fill="none"/>
    </g>
    <g id="Grupo_1015849" data-name="Grupo 1015849" transform="translate(799 2254.199)">
      <path id="Trazado_737415" data-name="Trazado 737415" d="M204.258,216.6V204.179c-1.695-.014-3.279-.035-4.722-.065-15.331-.318-30.714-.149-45.937-1.99-29.154-3.525-56.87-14.3-84.226-24.978C45.1,167.669,24.277,158.191,0,148.713c0,3.254.357,51.529,0,71.478C69.6,219,135.4,217.8,204.258,216.6Z" transform="translate(0 -23.293)" fill="#56a822"/>
      <circle id="Elipse_9038" data-name="Elipse 9038" cx="33.639" cy="33.639" r="33.639" transform="translate(169.742 23.801)" fill="#f9d335"/>
      <path id="Trazado_737416" data-name="Trazado 737416" d="M248.921,216.6V204.179c1.694-.014,3.278-.035,4.722-.065,15.331-.318,30.714-.149,45.937-1.99,29.154-3.525,56.87-14.3,84.226-24.978,24.277-9.478,45.1-18.955,69.373-28.433,0,3.254-.357,51.529,0,71.478C383.579,219,317.782,217.8,248.921,216.6Z" transform="translate(-46.418 -23.293)" fill="#a0924b"/>
      <g id="Grupo_1015797" data-name="Grupo 1015797" transform="translate(13.106 79.282)">
        <g id="Grupo_1015776" data-name="Grupo 1015776" transform="translate(0 18.221)">
          <rect id="Rectángulo_350620" data-name="Rectángulo 350620" width="2.322" height="13.267" transform="translate(10.952 29.85)" fill="#e28e12"/>
          <g id="Grupo_1015775" data-name="Grupo 1015775">
            <g id="Grupo_1015772" data-name="Grupo 1015772" transform="translate(0 8.101)">
              <path id="Trazado_737417" data-name="Trazado 737417" d="M16.11,140.3l12.113-15.945L40.336,140.3Z" transform="translate(-16.11 -124.355)" fill="#4d9b1b"/>
              <path id="Trazado_737418" data-name="Trazado 737418" d="M31,124.355V140.3H43.113Z" transform="translate(-18.887 -124.355)" fill="#377c0a"/>
            </g>
            <g id="Grupo_1015773" data-name="Grupo 1015773" transform="translate(0 16.213)">
              <path id="Trazado_737419" data-name="Trazado 737419" d="M16.11,150.272l12.113-15.945,12.113,15.945Z" transform="translate(-16.11 -134.327)" fill="#4d9b1b"/>
              <path id="Trazado_737420" data-name="Trazado 737420" d="M31,134.327v15.945H43.113Z" transform="translate(-18.887 -134.327)" fill="#377c0a"/>
            </g>
            <g id="Grupo_1015774" data-name="Grupo 1015774">
              <path id="Trazado_737421" data-name="Trazado 737421" d="M16.11,130.342,28.223,114.4l12.113,15.945Z" transform="translate(-16.11 -114.397)" fill="#4d9b1b"/>
              <path id="Trazado_737422" data-name="Trazado 737422" d="M31,114.4v15.945H43.113Z" transform="translate(-18.887 -114.397)" fill="#377c0a"/>
            </g>
          </g>
        </g>
        <g id="Grupo_1015781" data-name="Grupo 1015781" transform="translate(26.901)">
          <rect id="Rectángulo_350621" data-name="Rectángulo 350621" width="4.39" height="33.222" transform="translate(20.71 56.445)" fill="#e28e12"/>
          <g id="Grupo_1015780" data-name="Grupo 1015780">
            <g id="Grupo_1015777" data-name="Grupo 1015777" transform="translate(0 15.318)">
              <path id="Trazado_737423" data-name="Trazado 737423" d="M49.177,140.98l22.905-30.151,22.9,30.151Z" transform="translate(-49.177 -110.829)" fill="#4d9b1b"/>
              <path id="Trazado_737424" data-name="Trazado 737424" d="M77.333,110.829V140.98h22.9Z" transform="translate(-54.428 -110.829)" fill="#377c0a"/>
            </g>
            <g id="Grupo_1015778" data-name="Grupo 1015778" transform="translate(0 30.658)">
              <path id="Trazado_737425" data-name="Trazado 737425" d="M49.177,159.836l22.905-30.151,22.9,30.151Z" transform="translate(-49.177 -129.686)" fill="#4d9b1b"/>
              <path id="Trazado_737426" data-name="Trazado 737426" d="M77.333,129.686v30.151h22.9Z" transform="translate(-54.428 -129.686)" fill="#377c0a"/>
            </g>
            <g id="Grupo_1015779" data-name="Grupo 1015779">
              <path id="Trazado_737427" data-name="Trazado 737427" d="M49.177,122.15,72.082,92l22.9,30.151Z" transform="translate(-49.177 -91.999)" fill="#4d9b1b"/>
              <path id="Trazado_737428" data-name="Trazado 737428" d="M77.333,92V122.15h22.9Z" transform="translate(-54.428 -91.999)" fill="#377c0a"/>
            </g>
          </g>
        </g>
        <g id="Grupo_1015786" data-name="Grupo 1015786" transform="translate(74.898 52.063)">
          <rect id="Rectángulo_350622" data-name="Rectángulo 350622" width="2.226" height="12.717" transform="translate(10.499 28.614)" fill="#e28e12"/>
          <g id="Grupo_1015785" data-name="Grupo 1015785">
            <g id="Grupo_1015782" data-name="Grupo 1015782" transform="translate(0 7.765)">
              <path id="Trazado_737429" data-name="Trazado 737429" d="M108.177,180.827l11.611-15.285L131.4,180.827Z" transform="translate(-108.177 -165.542)" fill="#4d9b1b"/>
              <path id="Trazado_737430" data-name="Trazado 737430" d="M122.45,165.542v15.285h11.612Z" transform="translate(-110.839 -165.542)" fill="#377c0a"/>
            </g>
            <g id="Grupo_1015783" data-name="Grupo 1015783" transform="translate(0 15.542)">
              <path id="Trazado_737431" data-name="Trazado 737431" d="M108.177,190.386,119.789,175.1,131.4,190.386Z" transform="translate(-108.177 -175.102)" fill="#4d9b1b"/>
              <path id="Trazado_737432" data-name="Trazado 737432" d="M122.45,175.1v15.285h11.612Z" transform="translate(-110.839 -175.102)" fill="#377c0a"/>
            </g>
            <g id="Grupo_1015784" data-name="Grupo 1015784">
              <path id="Trazado_737433" data-name="Trazado 737433" d="M108.177,171.281,119.789,156,131.4,171.281Z" transform="translate(-108.177 -155.997)" fill="#4d9b1b"/>
              <path id="Trazado_737434" data-name="Trazado 737434" d="M122.45,156v15.285h11.612Z" transform="translate(-110.839 -155.997)" fill="#377c0a"/>
            </g>
          </g>
        </g>
        <g id="Grupo_1015791" data-name="Grupo 1015791" transform="translate(111.954 60.371)">
          <rect id="Rectángulo_350623" data-name="Rectángulo 350623" width="2.225" height="12.717" transform="translate(10.499 28.614)" fill="#e28e12"/>
          <g id="Grupo_1015790" data-name="Grupo 1015790">
            <g id="Grupo_1015787" data-name="Grupo 1015787" transform="translate(0 7.766)">
              <path id="Trazado_737435" data-name="Trazado 737435" d="M153.727,191.039l11.611-15.285,11.611,15.285Z" transform="translate(-153.727 -175.754)" fill="#4d9b1b"/>
              <path id="Trazado_737436" data-name="Trazado 737436" d="M168,175.754v15.285h11.611Z" transform="translate(-156.389 -175.754)" fill="#377c0a"/>
            </g>
            <g id="Grupo_1015788" data-name="Grupo 1015788" transform="translate(0 15.542)">
              <path id="Trazado_737437" data-name="Trazado 737437" d="M153.727,200.6l11.611-15.285L176.95,200.6Z" transform="translate(-153.727 -185.313)" fill="#4d9b1b"/>
              <path id="Trazado_737438" data-name="Trazado 737438" d="M168,185.313V200.6h11.611Z" transform="translate(-156.389 -185.313)" fill="#377c0a"/>
            </g>
            <g id="Grupo_1015789" data-name="Grupo 1015789">
              <path id="Trazado_737439" data-name="Trazado 737439" d="M153.727,181.493l11.611-15.285,11.611,15.285Z" transform="translate(-153.727 -166.209)" fill="#4d9b1b"/>
              <path id="Trazado_737440" data-name="Trazado 737440" d="M168,166.209v15.285h11.611Z" transform="translate(-156.389 -166.209)" fill="#377c0a"/>
            </g>
          </g>
        </g>
        <g id="Grupo_1015796" data-name="Grupo 1015796" transform="translate(151.003 74.842)">
          <rect id="Rectángulo_350624" data-name="Rectángulo 350624" width="1.446" height="8.265" transform="translate(6.823 18.596)" fill="#e28e12"/>
          <g id="Grupo_1015795" data-name="Grupo 1015795">
            <g id="Grupo_1015792" data-name="Grupo 1015792" transform="translate(0 5.047)">
              <path id="Trazado_737441" data-name="Trazado 737441" d="M201.727,200.133l7.546-9.933,7.546,9.933Z" transform="translate(-201.727 -190.2)" fill="#4d9b1b"/>
              <path id="Trazado_737442" data-name="Trazado 737442" d="M211,190.2v9.933h7.546Z" transform="translate(-203.457 -190.2)" fill="#377c0a"/>
            </g>
            <g id="Grupo_1015793" data-name="Grupo 1015793" transform="translate(0 10.1)">
              <path id="Trazado_737443" data-name="Trazado 737443" d="M201.727,206.346l7.546-9.933,7.546,9.933Z" transform="translate(-201.727 -196.413)" fill="#4d9b1b"/>
              <path id="Trazado_737444" data-name="Trazado 737444" d="M211,196.413v9.933h7.546Z" transform="translate(-203.457 -196.413)" fill="#377c0a"/>
            </g>
            <g id="Grupo_1015794" data-name="Grupo 1015794">
              <path id="Trazado_737445" data-name="Trazado 737445" d="M201.727,193.93,209.273,184l7.546,9.933Z" transform="translate(-201.727 -183.997)" fill="#4d9b1b"/>
              <path id="Trazado_737446" data-name="Trazado 737446" d="M211,184v9.933h7.546Z" transform="translate(-203.457 -183.997)" fill="#377c0a"/>
            </g>
          </g>
        </g>
      </g>
      <rect id="Rectángulo_350625" data-name="Rectángulo 350625" width="406.761" height="225.275" transform="translate(0 185.924)" fill="#bac49b"/>
      <rect id="Rectángulo_350626" data-name="Rectángulo 350626" width="203.38" height="225.275" transform="translate(0 185.924)" fill="#90e2fc"/>
      <ellipse id="Elipse_9039" data-name="Elipse 9039" cx="28.88" cy="6.915" rx="28.88" ry="6.915" transform="translate(128.763 222.862)" fill="#78caea"/>
      <path id="Trazado_737447" data-name="Trazado 737447" d="M330.4,261.641c0,2.969-10.05,5.375-22.448,5.375s-22.447-2.406-22.447-5.375,10.049-5.374,22.447-5.374S330.4,258.673,330.4,261.641Z" transform="translate(-53.24 -43.35)" fill="#afa36d"/>
      <ellipse id="Elipse_9040" data-name="Elipse 9040" cx="24.712" cy="5.917" rx="24.712" ry="5.917" transform="translate(219.696 270.671)" fill="#afa36d"/>
      <ellipse id="Elipse_9041" data-name="Elipse 9041" cx="24.712" cy="5.917" rx="24.712" ry="5.917" transform="translate(270.134 293.449)" fill="#afa36d"/>
      <ellipse id="Elipse_9042" data-name="Elipse 9042" cx="28.88" cy="6.915" rx="28.88" ry="6.915" transform="translate(129.577 286.317)" fill="#78caea"/>
      <ellipse id="Elipse_9043" data-name="Elipse 9043" cx="28.88" cy="6.915" rx="28.88" ry="6.915" transform="translate(88.087 349.771)" fill="#78caea"/>
      <path id="Trazado_737448" data-name="Trazado 737448" d="M163.859,241.326c0,1.956-6.621,3.541-14.79,3.541s-14.79-1.586-14.79-3.541,6.621-3.541,14.79-3.541S163.859,239.371,163.859,241.326Z" transform="translate(-25.04 -39.903)" fill="#78caea"/>
      <path id="Trazado_737449" data-name="Trazado 737449" d="M283.639,57.439A33.639,33.639,0,0,0,250,23.8V91.078A33.639,33.639,0,0,0,283.639,57.439Z" transform="translate(-46.62 0)" fill="#d8bf59"/>
      <g id="Grupo_1015798" data-name="Grupo 1015798" transform="translate(209.063 28.12)">
        <path id="Trazado_737450" data-name="Trazado 737450" d="M333.7,45.939a13.006,13.006,0,0,0-24.6-2.021,18.831,18.831,0,0,0-37.121,2.021Z" transform="translate(-259.782 -29.11)" fill="#caeae9"/>
        <path id="Trazado_737451" data-name="Trazado 737451" d="M463.7,67.939a13.006,13.006,0,0,0-24.6-2.021,18.831,18.831,0,0,0-37.121,2.021Z" transform="translate(-284.024 -33.213)" fill="#caeae9"/>
        <path id="Trazado_737452" data-name="Trazado 737452" d="M336.089,176.627a13.006,13.006,0,0,0-24.6-2.021,18.831,18.831,0,0,0-37.121,2.021Z" transform="translate(-260.227 -53.48)" fill="#caeae9"/>
        <path id="Trazado_737453" data-name="Trazado 737453" d="M330.481,82.33a13.016,13.016,0,0,0-11.969,7.9,18.834,18.834,0,0,0-18.4-14.807l-.068,0-.068,0a18.834,18.834,0,0,0-18.4,14.807,13.006,13.006,0,0,0-24.6,2.021H343.11A13.008,13.008,0,0,0,330.481,82.33Z" transform="translate(-256.985 -37.747)" fill="#caeae9"/>
        <path id="Trazado_737454" data-name="Trazado 737454" d="M430.629,130.219a13.016,13.016,0,0,0-11.969,7.9,18.835,18.835,0,0,0-18.4-14.808c-.023,0-.045,0-.068,0s-.045,0-.068,0a18.836,18.836,0,0,0-18.4,14.808,13.006,13.006,0,0,0-24.6,2.021h86.124A13.009,13.009,0,0,0,430.629,130.219Z" transform="translate(-275.661 -46.677)" fill="#caeae9"/>
      </g>
      <g id="Grupo_1015799" data-name="Grupo 1015799" transform="translate(34.156 34.884)">
        <path id="Trazado_737455" data-name="Trazado 737455" d="M204.7,129.939a13.006,13.006,0,0,0-24.6-2.021,18.831,18.831,0,0,0-37.121,2.021Z" transform="translate(-60.819 -51.539)" fill="#fff"/>
        <path id="Trazado_737456" data-name="Trazado 737456" d="M115.481,44.33a13.016,13.016,0,0,0-11.969,7.9,18.834,18.834,0,0,0-18.4-14.807l-.068,0-.068,0a18.834,18.834,0,0,0-18.4,14.807,13.006,13.006,0,0,0-24.6,2.021H128.11A13.008,13.008,0,0,0,115.481,44.33Z" transform="translate(-41.985 -37.425)" fill="#fff"/>
      </g>
      <g id="Grupo_1015800" data-name="Grupo 1015800" transform="translate(105.025 320.898)">
        <path id="Trazado_737457" data-name="Trazado 737457" d="M136.616,427.936c-.448-.637-.9-1.284-1.326-1.944-.089-.184-.177-.368-.255-.56-.846-2.1-.881-4.6-1.68-6.734-1.31-3.5-4.016-7.789-4.256-9.512q.2,2.837.39,5.673l-.235.166.29.623.293,4.267a17.147,17.147,0,0,0,.8,4.837,11.4,11.4,0,0,0,2.669,3.863h3.783C136.928,428.389,136.774,428.159,136.616,427.936Z" transform="translate(-129.099 -392.764)" fill="#377c0a"/>
        <path id="Trazado_737458" data-name="Trazado 737458" d="M149.528,429.783h6.789c.059-.12.13-.229.185-.353,1.036-2.327,1.163-4.967,1.539-7.5a19.226,19.226,0,0,1,.69-3.127l.421-.321-.179-.347a6.719,6.719,0,0,1,1.856-2.682,15.071,15.071,0,0,0-5.53,2.951C152.293,421.162,151.074,425.63,149.528,429.783Z" transform="translate(-132.909 -393.933)" fill="#377c0a"/>
        <path id="Trazado_737459" data-name="Trazado 737459" d="M136.206,389c-.1,3.123-.209,6.247-.24,9.365a23.145,23.145,0,0,0,.984,8.327c.914,2.406,2.58,4.265,3.676,6.554a14.177,14.177,0,0,1,.78,2.045c0,1.561-.08,3.215-.254,4.971-.15,1.516-.352,3.056-.562,4.588h2.04c.2-1.459.39-2.931.535-4.4a51.873,51.873,0,0,0,.262-5.255,31.618,31.618,0,0,0,1.063-5.359,20.882,20.882,0,0,0-3.431-12.68C139.305,394.331,137.441,392.207,136.206,389Z" transform="translate(-130.379 -389)" fill="#377c0a"/>
        <path id="Trazado_737460" data-name="Trazado 737460" d="M159.781,432.91h.315c.02-.23.033-.46.059-.69C160.029,432.448,159.907,432.681,159.781,432.91Z" transform="translate(-134.821 -397.06)" fill="#377c0a"/>
      </g>
      <g id="Grupo_1015801" data-name="Grupo 1015801" transform="translate(147.85 260.256)">
        <path id="Trazado_737461" data-name="Trazado 737461" d="M188.5,349.446c-.4-.573-.807-1.153-1.192-1.747-.08-.165-.159-.33-.229-.5-.76-1.888-.792-4.137-1.509-6.051-1.177-3.141-3.609-7-3.825-8.548q.176,2.549.35,5.1l-.212.15.26.56.264,3.834a15.436,15.436,0,0,0,.715,4.347,10.258,10.258,0,0,0,2.4,3.471h3.4C188.776,349.853,188.637,349.647,188.5,349.446Z" transform="translate(-181.741 -317.84)" fill="#4d9b1b"/>
        <path id="Trazado_737462" data-name="Trazado 737462" d="M200.1,351.106h6.1c.053-.108.117-.206.166-.317.931-2.092,1.045-4.463,1.384-6.741a17.211,17.211,0,0,1,.619-2.811l.378-.289-.161-.312a6.041,6.041,0,0,1,1.668-2.41,13.558,13.558,0,0,0-4.968,2.653C202.583,343.359,201.488,347.374,200.1,351.106Z" transform="translate(-185.164 -318.889)" fill="#4d9b1b"/>
        <path id="Trazado_737463" data-name="Trazado 737463" d="M188.127,314.457c-.094,2.807-.189,5.613-.216,8.416a20.791,20.791,0,0,0,.884,7.483c.821,2.162,2.319,3.833,3.3,5.89a12.8,12.8,0,0,1,.7,1.838c0,1.4-.072,2.889-.228,4.467-.135,1.362-.317,2.746-.506,4.123H193.9c.179-1.311.351-2.634.482-3.954a46.748,46.748,0,0,0,.235-4.723,28.284,28.284,0,0,0,.955-4.814,18.76,18.76,0,0,0-3.083-11.395C190.912,319.247,189.237,317.339,188.127,314.457Z" transform="translate(-182.891 -314.457)" fill="#4d9b1b"/>
        <path id="Trazado_737464" data-name="Trazado 737464" d="M209.313,353.916h.282c.018-.207.029-.413.054-.62C209.536,353.5,209.426,353.71,209.313,353.916Z" transform="translate(-186.883 -321.7)" fill="#4d9b1b"/>
      </g>
      <g id="Grupo_1015802" data-name="Grupo 1015802" transform="translate(221.012 248.24)">
        <path id="Trazado_737465" data-name="Trazado 737465" d="M307.985,328.982l-12.208-24.247-21.562,10.856,6.742,13.391Z" transform="translate(-272.148 -300.628)" fill="#59a1ad"/>
        <ellipse id="Elipse_9044" data-name="Elipse 9044" cx="12.07" cy="4.509" rx="12.07" ry="4.509" transform="translate(0 10.856) rotate(-26.724)" fill="#9be0ce"/>
        <path id="Trazado_737466" data-name="Trazado 737466" d="M295.832,305.59c.439.872-.811,2.388-2.793,3.385s-3.944,1.1-4.382.228.811-2.387,2.793-3.385S295.394,304.719,295.832,305.59Z" transform="translate(-274.824 -300.677)" fill="#59a1ad"/>
      </g>
      <g id="Grupo_1015803" data-name="Grupo 1015803" transform="translate(0 158.052)">
        <path id="Trazado_737467" data-name="Trazado 737467" d="M0,188.826s68.471,18.249,101.6,30.758c-5.981,12.58-23.154,19.429-23.736,33.347C77.155,269.8,154.72,326.7,0,391.534V188.826Z" transform="translate(0 -188.826)" fill="#6fc441"/>
        <path id="Trazado_737468" data-name="Trazado 737468" d="M101.6,225.862c-2.877-1.086-6.024-2.216-9.365-3.373-2.375,3.13-4.533,6.511-6.812,9.288-7.04,8.578-20.211,12.363-23.645,23.817C58.86,265.317,65.509,274.96,70.123,284c8.042,15.758,9.994,35.971-.055,50.531a46.692,46.692,0,0,1-11.964,11.6c-11.268,7.825-24.652,11.848-37.515,16.619A121.317,121.317,0,0,0,0,372.24v25.571c154.72-64.83,77.155-121.736,77.861-138.6C78.444,245.291,95.616,238.442,101.6,225.862Z" transform="translate(0 -195.103)" fill="#4d9b1b" opacity="0.4"/>
      </g>
      <g id="Grupo_1015804" data-name="Grupo 1015804" transform="translate(242.193 193.893)">
        <path id="Trazado_737469" data-name="Trazado 737469" d="M318.774,258.938l3.479-7.209a7.7,7.7,0,0,0,.111-6.45l-.924-2.1,2.794-5.789-8.4-4.055-2.794,5.789-2.478.453a7.7,7.7,0,0,0-5.548,4.226l-7.3,15.131Z" transform="translate(-297.709 -232.968)" fill="#9be0ce"/>
        <path id="Trazado_737470" data-name="Trazado 737470" d="M328.376,237.309c-.342.708-2.5.374-4.82-.745s-3.924-2.6-3.583-3.31,2.5-.374,4.82.745S328.718,236.6,328.376,237.309Z" transform="translate(-301.852 -232.882)" fill="#62ccae"/>
        <path id="Trazado_737471" data-name="Trazado 737471" d="M313.426,243.449a4.967,4.967,0,0,0-4.03,1.465,14.708,14.708,0,0,0-2.56,3.606c2.515-1.39,4.954-1.625,7.81-1.941A6.257,6.257,0,0,0,313.426,243.449Z" transform="translate(-299.411 -234.844)" fill="#c3f4e6"/>
      </g>
      <g id="Grupo_1015813" data-name="Grupo 1015813" transform="translate(126.096 199.684)">
        <g id="Grupo_1015812" data-name="Grupo 1015812" clip-path="url(#clip-path)">
          <g id="Grupo_1015811" data-name="Grupo 1015811" transform="translate(7.55 10.791)">
            <path id="Trazado_737472" data-name="Trazado 737472" d="M203.637,267.217a2.31,2.31,0,0,1,.784.877,2,2,0,0,1-.641,2.057c-1.232,1.258-3.06,1.679-4.782,2.044-1.308.277-2.766.53-3.907-.166-2.507-1.529-4.645-5.974-1.318-7.651C196.521,262.991,201.518,265.587,203.637,267.217Z" transform="translate(-169.462 -255.263)" fill="#bbf2ff"/>
            <path id="Trazado_737473" data-name="Trazado 737473" d="M207.555,290.959a43,43,0,0,1,8.276,1.882,17.194,17.194,0,0,1,4.994,2.43,7.8,7.8,0,0,1,3.025,4.514,7.475,7.475,0,0,1-4.393-.218,28.123,28.123,0,0,1-6.753-2.944,14.085,14.085,0,0,1,3.566,6.286,8.837,8.837,0,0,1,.514,2.4,3.283,3.283,0,0,1-.718,2.237,16.368,16.368,0,0,1-6.206-7.087c-.706-1.557-3.434-6.864-3.909-7.719C206.466,292.126,207.04,291.569,207.555,290.959Z" transform="translate(-172.052 -260.293)" fill="#bbf2ff"/>
            <path id="Trazado_737474" data-name="Trazado 737474" d="M182.943,288.437a.566.566,0,0,1-.425.228.71.71,0,0,1-.466-.274,7.572,7.572,0,0,1-1.185-1.942q-.949-1.981-1.9-3.96a6.854,6.854,0,0,1-.417-1c-.054-.181-.041-.448.146-.472a.347.347,0,0,1,.205.063c1.345.77,3.231,2.1,3.8,3.62a11.436,11.436,0,0,1,.267,1.584C183.116,286.966,183.463,287.819,182.943,288.437Z" transform="translate(-166.937 -258.439)" fill="#bbf2ff"/>
            <path id="Trazado_737475" data-name="Trazado 737475" d="M164.281,253.265c18.19-.111,34.492,13.541,38.038,31.154l-3.134,3.475c-17.884-1.712-33.142-16.523-34.9-34.628Z" transform="translate(-164.281 -253.264)" fill="#0d7abc"/>
            <path id="Trazado_737476" data-name="Trazado 737476" d="M183.936,258.77,171.78,272.25a37.709,37.709,0,0,1-7.5-18.985h0A37.707,37.707,0,0,1,183.936,258.77Z" transform="translate(-164.281 -253.264)" fill="#bbf2ff"/>
            <path id="Trazado_737477" data-name="Trazado 737477" d="M187.078,270.745a19.55,19.55,0,0,1,12.5,6.311,1.042,1.042,0,0,1,.371.851.8.8,0,0,1-.333.448,3.047,3.047,0,0,1-2.436.181,42.861,42.861,0,0,1-10.066-3.556A17.8,17.8,0,0,0,187.078,270.745Z" transform="translate(-168.532 -256.524)" fill="#bbf2ff"/>
            <path id="Trazado_737478" data-name="Trazado 737478" d="M194.068,275.882l-3.186-1.237a7.817,7.817,0,0,0-1.577-.486,33.448,33.448,0,0,1,4.487,3.043c-1.551-.214-2.749-1.411-4.1-2.206a4.3,4.3,0,0,1-.784-.523c-1.4-1.31,1.37-.551,1.91-.377A8.746,8.746,0,0,1,194.068,275.882Z" transform="translate(-168.801 -257.078)" fill="#0d7abc"/>
            <g id="Grupo_1015805" data-name="Grupo 1015805" transform="translate(39.101 33.467)">
              <path id="Trazado_737479" data-name="Trazado 737479" d="M212.417,294.781a.217.217,0,0,0,.1.051,31.309,31.309,0,0,1,7.963,2.686.217.217,0,0,0,.193-.389,31.74,31.74,0,0,0-8.073-2.724.218.218,0,0,0-.186.375Z" transform="translate(-212.345 -294.402)" fill="#0d7abc"/>
            </g>
            <g id="Grupo_1015806" data-name="Grupo 1015806" transform="translate(36.956 35.658)">
              <path id="Trazado_737480" data-name="Trazado 737480" d="M212.863,303.59a.217.217,0,0,0,.338-.262c-1.05-2-2.087-4.055-3.079-6.11a.219.219,0,0,0-.29-.1.216.216,0,0,0-.1.29c1,2.059,2.034,4.118,3.087,6.122A.233.233,0,0,0,212.863,303.59Z" transform="translate(-209.708 -297.096)" fill="#0d7abc"/>
            </g>
            <g id="Grupo_1015807" data-name="Grupo 1015807" transform="translate(40.291 34.55)">
              <path id="Trazado_737481" data-name="Trazado 737481" d="M213.88,296.111a.212.212,0,0,0,.059.038c1.267.547,2.537,1.131,3.773,1.736a.217.217,0,0,0,.29-.1.215.215,0,0,0-.1-.29c-1.243-.609-2.519-1.2-3.792-1.746a.217.217,0,0,0-.232.36Z" transform="translate(-213.808 -295.733)" fill="#0d7abc"/>
            </g>
            <g id="Grupo_1015808" data-name="Grupo 1015808" transform="translate(38.691 34.974)">
              <path id="Trazado_737482" data-name="Trazado 737482" d="M215.013,303.719a.217.217,0,0,0,.34-.256c-1.122-2.3-2.163-4.68-3.093-7.069a.217.217,0,0,0-.4.157c.934,2.4,1.98,4.789,3.108,7.1A.234.234,0,0,0,215.013,303.719Z" transform="translate(-211.84 -296.255)" fill="#0d7abc"/>
            </g>
            <g id="Grupo_1015809" data-name="Grupo 1015809" transform="translate(28.339 10.906)">
              <path id="Trazado_737483" data-name="Trazado 737483" d="M199.187,267.048a.211.211,0,0,0,.081.046l3.018.923a.217.217,0,1,0,.127-.415l-3.018-.923a.217.217,0,0,0-.208.369Z" transform="translate(-199.115 -266.67)" fill="#0d7abc"/>
            </g>
            <g id="Grupo_1015810" data-name="Grupo 1015810" transform="translate(29.234 12.17)">
              <path id="Trazado_737484" data-name="Trazado 737484" d="M200.288,268.6a.21.21,0,0,0,.068.042,17.6,17.6,0,0,0,2.458.727.217.217,0,1,0,.092-.424,17.017,17.017,0,0,1-2.4-.71.217.217,0,0,0-.221.364Z" transform="translate(-200.216 -268.224)" fill="#0d7abc"/>
            </g>
            <path id="Trazado_737485" data-name="Trazado 737485" d="M176.069,259.469a1.543,1.543,0,1,0,2.179-.113A1.543,1.543,0,0,0,176.069,259.469Z" transform="translate(-166.405 -254.326)" fill="#175d91"/>
          </g>
        </g>
      </g>
      <g id="Grupo_1015814" data-name="Grupo 1015814" transform="translate(44.823 239.224)">
        <path id="Trazado_737486" data-name="Trazado 737486" d="M57.067,288.6a13.918,13.918,0,0,0,4.816,19.085A13.918,13.918,0,0,0,57.067,288.6Z" transform="translate(-55.097 -288.604)" fill="#479614"/>
        <path id="Trazado_737487" data-name="Trazado 737487" d="M57.49,288.646l4.8,19.018.04.025A13.918,13.918,0,0,0,57.514,288.6Z" transform="translate(-55.544 -288.604)" fill="#377c0a"/>
      </g>
      <g id="Grupo_1015815" data-name="Grupo 1015815" transform="translate(49.382 241.676)">
        <path id="Trazado_737488" data-name="Trazado 737488" d="M71.926,291.618A13.918,13.918,0,0,0,60.968,307.97,13.919,13.919,0,0,0,71.926,291.618Z" transform="translate(-60.701 -291.618)" fill="#479614"/>
        <path id="Trazado_737489" data-name="Trazado 737489" d="M71.939,291.628l-10.92,16.295c0,.015,0,.031.008.047a13.919,13.919,0,0,0,10.958-16.352Z" transform="translate(-60.761 -291.618)" fill="#377c0a"/>
      </g>
      <g id="Grupo_1015816" data-name="Grupo 1015816" transform="translate(41.137 246.983)">
        <path id="Trazado_737490" data-name="Trazado 737490" d="M50.623,298.141a10.658,10.658,0,0,0,9.508,11.693A10.656,10.656,0,0,0,50.623,298.141Z" transform="translate(-50.566 -298.141)" fill="#479614"/>
        <path id="Trazado_737491" data-name="Trazado 737491" d="M50.633,298.177l9.475,11.652.036,0a10.656,10.656,0,0,0-9.508-11.693Z" transform="translate(-50.579 -298.141)" fill="#377c0a"/>
      </g>
      <g id="Grupo_1015820" data-name="Grupo 1015820" transform="translate(33.785 194.335)">
        <g id="Grupo_1015817" data-name="Grupo 1015817" transform="translate(7.14 10.179)">
          <path id="Trazado_737492" data-name="Trazado 737492" d="M69.033,247.466a13.917,13.917,0,0,0-18.727,6.061A13.919,13.919,0,0,0,69.033,247.466Z" transform="translate(-50.306 -245.938)" fill="#479614"/>
          <path id="Trazado_737493" data-name="Trazado 737493" d="M68.991,247.791l-18.662,6.04c-.007.014-.015.027-.023.041a13.919,13.919,0,0,0,18.727-6.061Z" transform="translate(-50.306 -246.284)" fill="#377c0a"/>
        </g>
        <g id="Grupo_1015818" data-name="Grupo 1015818" transform="translate(7.575)">
          <path id="Trazado_737494" data-name="Trazado 737494" d="M51.526,250.966a13.919,13.919,0,0,0,8.935-17.54A13.918,13.918,0,0,0,51.526,250.966Z" transform="translate(-50.84 -233.426)" fill="#56a822"/>
          <path id="Trazado_737495" data-name="Trazado 737495" d="M51.571,250.95l8.9-17.479c0-.015-.008-.03-.013-.046a13.918,13.918,0,0,0-8.935,17.54Z" transform="translate(-50.84 -233.426)" fill="#4d9b1b"/>
        </g>
        <g id="Grupo_1015819" data-name="Grupo 1015819" transform="translate(0 7.332)">
          <path id="Trazado_737496" data-name="Trazado 737496" d="M49.687,253.731a9.793,9.793,0,0,0-8.019-11.292A9.793,9.793,0,0,0,49.687,253.731Z" transform="translate(-41.529 -242.439)" fill="#56a822"/>
          <path id="Trazado_737497" data-name="Trazado 737497" d="M49.692,253.7,41.7,242.446l-.033-.007a9.793,9.793,0,0,0,8.019,11.292Z" transform="translate(-41.529 -242.439)" fill="#4d9b1b"/>
        </g>
      </g>
      <g id="Grupo_1015824" data-name="Grupo 1015824" transform="translate(17.126 280.215)">
        <g id="Grupo_1015821" data-name="Grupo 1015821" transform="translate(8.872 8.834)">
          <path id="Trazado_737498" data-name="Trazado 737498" d="M46.754,350.5a11.623,11.623,0,0,0-14.8,7.162A11.623,11.623,0,0,0,46.754,350.5Z" transform="translate(-31.958 -349.85)" fill="#479614"/>
          <path id="Trazado_737499" data-name="Trazado 737499" d="M46.716,350.631l-14.744,7.137c0,.013-.01.024-.014.037a11.623,11.623,0,0,0,14.8-7.162Z" transform="translate(-31.958 -349.996)" fill="#377c0a"/>
        </g>
        <g id="Grupo_1015822" data-name="Grupo 1015822" transform="translate(6.24)">
          <path id="Trazado_737500" data-name="Trazado 737500" d="M32.657,355.4a11.623,11.623,0,0,0-1.029-16.405A11.623,11.623,0,0,0,32.657,355.4Z" transform="translate(-28.722 -338.991)" fill="#56a822"/>
          <path id="Trazado_737501" data-name="Trazado 737501" d="M32.683,355.366l-1.026-16.349-.029-.027A11.623,11.623,0,0,0,32.657,355.4Z" transform="translate(-28.722 -338.991)" fill="#4d9b1b"/>
        </g>
        <g id="Grupo_1015823" data-name="Grupo 1015823" transform="translate(0 11.975)">
          <path id="Trazado_737502" data-name="Trazado 737502" d="M31.614,358.964a8.177,8.177,0,0,0-10.562-4.709A8.177,8.177,0,0,0,31.614,358.964Z" transform="translate(-21.052 -353.71)" fill="#56a822"/>
          <path id="Trazado_737503" data-name="Trazado 737503" d="M31.6,359.061l-10.525-4.694-.026.01a8.177,8.177,0,0,0,10.562,4.709Z" transform="translate(-21.052 -353.833)" fill="#4d9b1b"/>
        </g>
      </g>
      <g id="Grupo_1015830" data-name="Grupo 1015830" transform="translate(234.382 127.353)">
        <g id="Grupo_1015825" data-name="Grupo 1015825" transform="translate(145.998)">
          <rect id="Rectángulo_350628" data-name="Rectángulo 350628" width="2.322" height="13.267" transform="translate(2.322 13.267) rotate(180)" fill="#8e7543"/>
        </g>
        <g id="Grupo_1015826" data-name="Grupo 1015826" transform="translate(107.272 8.373)">
          <rect id="Rectángulo_350629" data-name="Rectángulo 350629" width="4.39" height="33.222" transform="translate(4.39 33.222) rotate(180)" fill="#8e7543"/>
        </g>
        <g id="Grupo_1015827" data-name="Grupo 1015827" transform="translate(71.65 32.606)">
          <rect id="Rectángulo_350630" data-name="Rectángulo 350630" width="2.226" height="12.717" transform="translate(2.226 12.717) rotate(180)" fill="#8e7543"/>
        </g>
        <g id="Grupo_1015828" data-name="Grupo 1015828" transform="translate(34.594 40.914)">
          <rect id="Rectángulo_350631" data-name="Rectángulo 350631" width="2.225" height="12.717" transform="translate(2.225 12.717) rotate(180)" fill="#8e7543"/>
        </g>
        <g id="Grupo_1015829" data-name="Grupo 1015829" transform="translate(0 45.367)">
          <rect id="Rectángulo_350632" data-name="Rectángulo 350632" width="1.446" height="8.265" transform="translate(1.446 8.265) rotate(180)" fill="#8e7543"/>
        </g>
      </g>
      <path id="Trazado_737504" data-name="Trazado 737504" d="M476.711,188.826s-68.471,18.249-101.6,30.758c5.98,12.58,23.153,19.429,23.736,33.347.705,16.867-76.859,73.773,77.861,138.6V188.826Z" transform="translate(-69.951 -30.774)" fill="#afa36d"/>
      <g id="Grupo_1015832" data-name="Grupo 1015832" transform="translate(272.757 335.542)">
        <ellipse id="Elipse_9045" data-name="Elipse 9045" cx="28.88" cy="6.915" rx="28.88" ry="6.915" transform="translate(0 28.059)" fill="#afa36d"/>
        <g id="Grupo_1015831" data-name="Grupo 1015831" transform="translate(14.735)">
          <path id="Trazado_737505" data-name="Trazado 737505" d="M381.715,442.034l4.677-9.692a10.35,10.35,0,0,0,.149-8.673l-1.243-2.818,3.757-7.785-11.3-5.452L374,415.4l-3.332.608a10.351,10.351,0,0,0-7.46,5.683l-9.817,20.344Z" transform="translate(-353.391 -407.115)" fill="#9be0ce"/>
          <path id="Trazado_737506" data-name="Trazado 737506" d="M394.625,412.952c-.46.953-3.361.5-6.481-1s-5.277-3.5-4.817-4.45,3.361-.5,6.481,1S395.085,412,394.625,412.952Z" transform="translate(-358.962 -407)" fill="#62ccae"/>
          <path id="Trazado_737507" data-name="Trazado 737507" d="M374.524,421.208a6.68,6.68,0,0,0-5.419,1.969,19.775,19.775,0,0,0-3.442,4.849c3.382-1.869,6.659-2.185,10.5-2.61A8.406,8.406,0,0,0,374.524,421.208Z" transform="translate(-355.679 -409.638)" fill="#c3f4e6"/>
        </g>
      </g>
      <path id="Trazado_737508" data-name="Trazado 737508" d="M423.811,267.2l-41.984,57.16c1.533,9.81,6.453,20.451,16.951,31.694l52.34-72.65,7.322-16.677L442.982,259Z" transform="translate(-71.202 -43.86)" fill="#a0924b"/>
      <g id="Grupo_1015833" data-name="Grupo 1015833" transform="translate(115.737 181.233)">
        <path id="Trazado_737509" data-name="Trazado 737509" d="M146.562,239.565c-.256-.364-.514-.733-.758-1.11-.05-.1-.1-.21-.146-.32-.483-1.2-.5-2.631-.959-3.848-.748-2-2.295-4.45-2.432-5.434l.222,3.241-.134.1.165.356q.084,1.219.168,2.438a9.817,9.817,0,0,0,.455,2.764,6.51,6.51,0,0,0,1.525,2.207h2.161C146.739,239.825,146.651,239.693,146.562,239.565Z" transform="translate(-142.267 -219.471)" fill="#6fc441"/>
        <path id="Trazado_737510" data-name="Trazado 737510" d="M153.938,240.621h3.879c.034-.068.075-.131.106-.2a16.287,16.287,0,0,0,.879-4.286,11.019,11.019,0,0,1,.395-1.787l.24-.184-.1-.2a3.845,3.845,0,0,1,1.061-1.533,8.6,8.6,0,0,0-3.159,1.687C155.519,235.7,154.821,238.249,153.938,240.621Z" transform="translate(-144.443 -220.138)" fill="#6fc441"/>
        <path id="Trazado_737511" data-name="Trazado 737511" d="M146.327,217.32c-.06,1.784-.12,3.569-.137,5.351a13.229,13.229,0,0,0,.563,4.757c.521,1.375,1.474,2.437,2.1,3.745a8.121,8.121,0,0,1,.446,1.169c0,.892-.046,1.836-.145,2.84-.085.866-.2,1.746-.321,2.621H150c.114-.834.223-1.674.306-2.514a29.383,29.383,0,0,0,.15-3,18,18,0,0,0,.608-3.061,11.928,11.928,0,0,0-1.961-7.245A26.847,26.847,0,0,1,146.327,217.32Z" transform="translate(-142.998 -217.32)" fill="#6fc441"/>
        <path id="Trazado_737512" data-name="Trazado 737512" d="M159.8,242.408h.179c.012-.131.019-.263.034-.395C159.939,242.144,159.869,242.277,159.8,242.408Z" transform="translate(-145.536 -221.925)" fill="#6fc441"/>
      </g>
      <g id="Grupo_1015838" data-name="Grupo 1015838" transform="translate(279.851 198.947)">
        <ellipse id="Elipse_9046" data-name="Elipse 9046" cx="8.261" cy="23.649" rx="8.261" ry="23.649" transform="translate(36.609 0.737)" fill="#6fbca6"/>
        <path id="Trazado_737513" data-name="Trazado 737513" d="M389,268.462c0,13.062,3.7,23.65,8.261,23.65s8.261-10.588,8.261-23.65c0-.9-.02-1.781-.053-2.652H389.053Q389,267.117,389,268.462Z" transform="translate(-352.391 -244.076)" fill="#4fa88c"/>
        <path id="Trazado_737514" data-name="Trazado 737514" d="M408.194,273.044H397.2a47.4,47.4,0,0,0-26.552,22.346L344,344.6h28.473l7.31-27.689a82.3,82.3,0,0,1,23.142-38.9Z" transform="translate(-343.999 -245.425)" fill="#50996f"/>
        <path id="Trazado_737515" data-name="Trazado 737515" d="M438.642,240H400v.088c4.24,1,7.573,11.165,7.573,23.561,0,10.786-2.524,19.878-5.971,22.722h37.04a23.186,23.186,0,0,0,23.185-23.185h0A23.186,23.186,0,0,0,438.642,240Z" transform="translate(-354.442 -239.263)" fill="#9be0ce"/>
        <g id="Grupo_1015834" data-name="Grupo 1015834" transform="translate(53.675)">
          <path id="Trazado_737516" data-name="Trazado 737516" d="M412.275,286.946l-.518-.627c3.494-2.881,5.935-12.269,5.935-22.83,0-12.255-3.251-22.622-7.4-23.6l-.313-.074V239.4h.429l.072-.306c4.576,1.081,8.027,11.569,8.027,24.4C418.505,274.447,416,283.874,412.275,286.946Z" transform="translate(-409.977 -239.094)" fill="#6fbca6"/>
        </g>
        <g id="Grupo_1015835" data-name="Grupo 1015835" transform="translate(64.231)">
          <path id="Trazado_737517" data-name="Trazado 737517" d="M425.251,286.946l-.517-.627c3.493-2.881,5.933-12.269,5.933-22.83,0-12.255-3.251-22.622-7.4-23.6l-.313-.074V239.4h.428l.072-.306c4.576,1.081,8.027,11.569,8.027,24.4C431.48,274.447,428.977,283.874,425.251,286.946Z" transform="translate(-422.953 -239.094)" fill="#6fbca6"/>
        </g>
        <g id="Grupo_1015836" data-name="Grupo 1015836" transform="translate(74.788)">
          <path id="Trazado_737518" data-name="Trazado 737518" d="M438.227,286.946l-.518-.627c3.494-2.881,5.934-12.268,5.934-22.83,0-12.255-3.251-22.622-7.4-23.6l-.312-.074V239.4h.428l.072-.306c4.576,1.081,8.026,11.569,8.026,24.4C444.457,274.448,441.953,283.874,438.227,286.946Z" transform="translate(-435.93 -239.094)" fill="#6fbca6"/>
        </g>
        <g id="Grupo_1015837" data-name="Grupo 1015837" transform="translate(85.343)">
          <path id="Trazado_737519" data-name="Trazado 737519" d="M451.2,286.946l-.517-.627c3.494-2.881,5.935-12.269,5.935-22.83,0-12.255-3.251-22.622-7.4-23.6l-.313-.074V239.4h.429l.072-.306c4.576,1.081,8.028,11.569,8.028,24.4C457.433,274.447,454.929,283.874,451.2,286.946Z" transform="translate(-448.905 -239.094)" fill="#6fbca6"/>
        </g>
        <path id="Trazado_737520" data-name="Trazado 737520" d="M375.145,306.69c.486-.6,1.806-.018,1.638.737-.133.6-.67,1.835-.175,2.024,1.306.1,1.651-1.779,1.975-3.048s1.367-2.812,2.563-2.279a1.672,1.672,0,0,1,.764,1.891,5.9,5.9,0,0,1-1.023,1.941,3.029,3.029,0,0,0-.661,1.727c.022.626.556,1.271,1.176,1.18a1.414,1.414,0,0,0,.871-.628c.565-.766.828-1.714,1.348-2.511a2.243,2.243,0,0,1,2.383-1.159,4.638,4.638,0,0,1-.284,3.172c-1.4,4.154-2.85,8.391-5.17,12.077a.872.872,0,0,1-1.572-.706l.014-.054a.866.866,0,0,0-1.556-.712,4.735,4.735,0,0,0-.6,1.506c-.116.563-.19,1.158-.3,1.735a1.156,1.156,0,0,1-2.286-.3,4.072,4.072,0,0,1,.072-.624,12.806,12.806,0,0,1,1.492-3.422,4.057,4.057,0,0,0,.616-2.08,1.556,1.556,0,0,0-1.315-1.515c-1.275-.055-1.743,1.792-1.721,2.942a2.634,2.634,0,0,1-.626,1.883c-1.053,1.12-2.336.178-2.589-.9a4.625,4.625,0,0,1,.289-2.418,63.56,63.56,0,0,1,3.152-7.823A12.053,12.053,0,0,1,375.145,306.69Z" transform="translate(-348.869 -251.2)" fill="#6cb78b"/>
      </g>
      <g id="Grupo_1015848" data-name="Grupo 1015848" transform="translate(35.792 202.098)">
        <g id="Grupo_1015839" data-name="Grupo 1015839" transform="translate(59.25 36.795)">
          <path id="Trazado_737521" data-name="Trazado 737521" d="M128.642,314.869h-.021a.812.812,0,0,1-.792-.834,31.694,31.694,0,0,0-10.722-24.413.814.814,0,1,1,1.071-1.225,33.338,33.338,0,0,1,11.278,25.68A.814.814,0,0,1,128.642,314.869Z" transform="translate(-116.828 -288.197)" fill="#fff"/>
        </g>
        <g id="Grupo_1015840" data-name="Grupo 1015840" transform="translate(70.785 39.067)">
          <path id="Trazado_737522" data-name="Trazado 737522" d="M139.309,303.979a.814.814,0,0,1-.8-.651,17.626,17.626,0,0,0-7.156-10.857.813.813,0,1,1,.927-1.336A19.263,19.263,0,0,1,140.107,303a.817.817,0,0,1-.8.976Z" transform="translate(-131.007 -290.99)" fill="#fff"/>
        </g>
        <g id="Grupo_1015841" data-name="Grupo 1015841" transform="translate(0 116.093)">
          <path id="Trazado_737523" data-name="Trazado 737523" d="M44.81,425.532a.813.813,0,0,1-.317-1.563c10.291-4.344,20.933-8.835,30.566-14.809,10.76-6.675,18.9-14.447,24.179-23.1a.814.814,0,0,1,1.389.849c-5.417,8.871-13.731,16.822-24.71,23.632-9.741,6.041-20.442,10.559-30.79,14.926A.805.805,0,0,1,44.81,425.532Z" transform="translate(-43.996 -385.672)" fill="#fff"/>
        </g>
        <g id="Grupo_1015842" data-name="Grupo 1015842" transform="translate(10.656 151.313)">
          <path id="Trazado_737524" data-name="Trazado 737524" d="M57.908,439.808a.814.814,0,0,1-.25-1.588,95.91,95.91,0,0,0,20.074-9.138.813.813,0,0,1,.84,1.394,97.541,97.541,0,0,1-20.415,9.294A.832.832,0,0,1,57.908,439.808Z" transform="translate(-57.095 -428.965)" fill="#fff"/>
        </g>
        <g id="Grupo_1015843" data-name="Grupo 1015843" transform="translate(49.477 4.303)">
          <path id="Trazado_737525" data-name="Trazado 737525" d="M105.628,257.691a.813.813,0,0,1-.638-1.318,25.213,25.213,0,0,1,11.162-8.066.814.814,0,0,1,.557,1.529,23.918,23.918,0,0,0-10.443,7.547A.81.81,0,0,1,105.628,257.691Z" transform="translate(-104.814 -248.257)" fill="#fff"/>
        </g>
        <g id="Grupo_1015844" data-name="Grupo 1015844" transform="translate(133.415 6.565)">
          <path id="Trazado_737526" data-name="Trazado 737526" d="M230.871,261.433a.811.811,0,0,1-.434-.125,63.418,63.418,0,0,0-21.786-8.657.814.814,0,1,1,.312-1.6,65.064,65.064,0,0,1,22.343,8.879.813.813,0,0,1-.435,1.5Z" transform="translate(-207.992 -251.038)" fill="#fff"/>
        </g>
        <g id="Grupo_1015845" data-name="Grupo 1015845" transform="translate(146.443)">
          <path id="Trazado_737527" data-name="Trazado 737527" d="M234.588,247.024a.832.832,0,0,1-.2-.024l-9.765-2.428a.814.814,0,1,1,.392-1.58l9.766,2.428a.814.814,0,0,1-.2,1.6Z" transform="translate(-224.007 -242.968)" fill="#fff"/>
        </g>
        <g id="Grupo_1015846" data-name="Grupo 1015846" transform="translate(103.369 108.119)">
          <path id="Trazado_737528" data-name="Trazado 737528" d="M195.359,382.586a57.4,57.4,0,0,1-23.825-5.163.814.814,0,0,1,.678-1.479,55.743,55.743,0,0,0,32.049,4.286.813.813,0,0,1,.266,1.605A56.111,56.111,0,0,1,195.359,382.586Z" transform="translate(-171.059 -375.871)" fill="#fff"/>
        </g>
        <g id="Grupo_1015847" data-name="Grupo 1015847" transform="translate(116.338 122.052)">
          <path id="Trazado_737529" data-name="Trazado 737529" d="M198.7,397.132a25.7,25.7,0,0,1-11.242-2.589.813.813,0,0,1,.712-1.463,24.1,24.1,0,0,0,12.588,2.337.813.813,0,1,1,.138,1.621C200.165,397.1,199.432,397.132,198.7,397.132Z" transform="translate(-187.001 -392.997)" fill="#fff"/>
        </g>
      </g>
    </g>
  </g>
</svg>
