<svg xmlns="http://www.w3.org/2000/svg" width="52" height="52.414" viewBox="0 0 52 52.414">
  <g id="Grupo_1014684" data-name="Grupo 1014684" transform="translate(-9 -8.586)">
    <path id="Trazado_733718" data-name="Trazado 733718" d="M60,208.727a5.1,5.1,0,0,0-5.556,0h0a5.1,5.1,0,0,1-5.556,0h0a5.1,5.1,0,0,0-5.556,0h0a5.1,5.1,0,0,1-5.556,0h0a5.1,5.1,0,0,0-5.556,0h0a5.1,5.1,0,0,1-5.556,0h0a5.1,5.1,0,0,0-5.556,0h0a5.1,5.1,0,0,1-5.556,0h0a5.1,5.1,0,0,0-5.555,0v29.065H60Z" transform="translate(0 -177.792)" fill="#33d6f5" stroke="#707070" stroke-width="2"/>
    <g id="Grupo_1014680" data-name="Grupo 1014680" transform="translate(29.802 24.427)">
      <path id="Trazado_733719" data-name="Trazado 733719" d="M228.586,164.8,219.5,151.962l-14.649,14.649,12.836,9.089a3.05,3.05,0,0,0,3.919-.332l6.651-6.651A3.049,3.049,0,0,0,228.586,164.8Z" transform="translate(-204.849 -151.962)" fill="#ffda8f" stroke="#707070" stroke-width="2"/>
    </g>
    <path id="Trazado_733720" data-name="Trazado 733720" d="M170.143,407.156l-5.111-.723a1.587,1.587,0,0,1-1.349-1.793l.275-1.944a1.587,1.587,0,0,1,1.793-1.349l5.111.723a1.587,1.587,0,0,1,1.349,1.793l-.275,1.944A1.587,1.587,0,0,1,170.143,407.156Z" transform="translate(-138.051 -351.562)" fill="#ff9eb1" stroke="#707070" stroke-width="2"/>
    <path id="Trazado_733721" data-name="Trazado 733721" d="M64.236,282.388l2.708-4.394a1.587,1.587,0,0,1,2.184-.518L70.8,278.5a1.587,1.587,0,0,1,.518,2.184l-2.708,4.394a1.587,1.587,0,0,1-2.184.518l-1.671-1.03A1.587,1.587,0,0,1,64.236,282.388Z" transform="translate(-48.512 -240.08)" fill="#6d92ac" stroke="#707070" stroke-width="2"/>
    <path id="Trazado_733722" data-name="Trazado 733722" d="M313.8,259.138l-1.546-.953a1.8,1.8,0,0,1-.587-2.474l.808-1.311a1.8,1.8,0,0,1,2.474-.587l1.546.953a1.8,1.8,0,0,1,.587,2.474l-.808,1.312A1.8,1.8,0,0,1,313.8,259.138Z" transform="translate(-270.771 -218.794)" fill="#6d92ac" stroke="#707070" stroke-width="2"/>
    <path id="Trazado_733723" data-name="Trazado 733723" d="M160.551,237.792h34.7V208.727a5.1,5.1,0,0,0-5.556,0h0a5.1,5.1,0,0,1-5.2.214" transform="translate(-135.251 -177.792)" fill="none" stroke="#000" stroke-linecap="round" stroke-linejoin="round" stroke-width="2"/>
    <path id="Trazado_733724" data-name="Trazado 733724" d="M37.778,208.727h0a5.1,5.1,0,0,0-5.556,0h0a5.1,5.1,0,0,1-5.556,0h0a5.1,5.1,0,0,0-5.556,0h0a5.1,5.1,0,0,1-5.556,0h0a5.1,5.1,0,0,0-5.555,0v29.065h6.154" transform="translate(0 -177.792)" fill="none" stroke="#000" stroke-linecap="round" stroke-linejoin="round" stroke-width="2"/>
    <path id="Trazado_733725" data-name="Trazado 733725" d="M228.586,164.8,219.5,151.962l-14.649,14.649,12.836,9.089a3.05,3.05,0,0,0,3.919-.332l6.651-6.651A3.049,3.049,0,0,0,228.586,164.8Z" transform="translate(-175.047 -127.535)" fill="none" stroke="#000" stroke-linecap="round" stroke-linejoin="round" stroke-width="2"/>
    <line id="Línea_3158" data-name="Línea 3158" x1="14.427" y2="14.427" transform="translate(44.45 10)" fill="none" stroke="#000" stroke-linecap="round" stroke-linejoin="round" stroke-width="2"/>
    <path id="Trazado_733726" data-name="Trazado 733726" d="M170.143,407.156l-5.111-.723a1.587,1.587,0,0,1-1.349-1.793l.275-1.944a1.587,1.587,0,0,1,1.793-1.349l5.111.723a1.587,1.587,0,0,1,1.349,1.793l-.275,1.944A1.587,1.587,0,0,1,170.143,407.156Z" transform="translate(-138.051 -351.562)" fill="none" stroke="#000" stroke-linecap="round" stroke-linejoin="round" stroke-width="2"/>
    <path id="Trazado_733727" data-name="Trazado 733727" d="M64.236,282.388l2.708-4.394a1.587,1.587,0,0,1,2.184-.518L70.8,278.5a1.587,1.587,0,0,1,.518,2.184l-2.708,4.394a1.587,1.587,0,0,1-2.184.518l-1.671-1.03A1.587,1.587,0,0,1,64.236,282.388Z" transform="translate(-48.512 -240.08)" fill="none" stroke="#000" stroke-linecap="round" stroke-linejoin="round" stroke-width="2"/>
    <path id="Trazado_733728" data-name="Trazado 733728" d="M313.8,259.138l-1.546-.953a1.8,1.8,0,0,1-.587-2.474l.808-1.311a1.8,1.8,0,0,1,2.474-.587l1.546.953a1.8,1.8,0,0,1,.587,2.474l-.808,1.312A1.8,1.8,0,0,1,313.8,259.138Z" transform="translate(-270.771 -218.794)" fill="none" stroke="#000" stroke-linecap="round" stroke-linejoin="round" stroke-width="2"/>
    <line id="Línea_3159" data-name="Línea 3159" x1="0.687" y2="0.744" transform="translate(51.074 51.793)" fill="none" stroke="#000" stroke-linecap="round" stroke-linejoin="round" stroke-width="2"/>
    <line id="Línea_3160" data-name="Línea 3160" x2="0.458" y2="0.63" transform="translate(26.84 44.259)" fill="none" stroke="#000" stroke-linecap="round" stroke-linejoin="round" stroke-width="2"/>
    <line id="Línea_3161" data-name="Línea 3161" transform="translate(20.727 60)" fill="none" stroke="#000" stroke-linecap="round" stroke-linejoin="round" stroke-width="2"/>
  </g>
</svg>
