<svg xmlns="http://www.w3.org/2000/svg" width="610" height="348" viewBox="0 0 610 348">
  <g id="Grupo_1014707" data-name="Grupo 1014707" transform="translate(-495 -28108)">
    <g id="Trazado_733840" data-name="Trazado 733840" transform="translate(495 28108)" fill="#fff">
      <path d="M 180 118.5 L 10 118.5 C 5.313075065612793 118.5 1.5 114.6869277954102 1.5 110 L 1.5 10 C 1.5 5.313075065612793 5.313075065612793 1.5 10 1.5 L 180 1.5 C 184.6869201660156 1.5 188.5 5.313075065612793 188.5 10 L 188.5 110 C 188.5 114.6869277954102 184.6869201660156 118.5 180 118.5 Z" stroke="none"/>
      <path d="M 10 3 C 6.140182495117188 3 3 6.140182495117188 3 10 L 3 110 C 3 113.8598175048828 6.140182495117188 117 10 117 L 180 117 C 183.8598175048828 117 187 113.8598175048828 187 110 L 187 10 C 187 6.140182495117188 183.8598175048828 3 180 3 L 10 3 M 10 0 L 180 0 C 185.5228424072266 0 190 4.477157592773438 190 10 L 190 110 C 190 115.5228424072266 185.5228424072266 120 180 120 L 10 120 C 4.477157592773438 120 0 115.5228424072266 0 110 L 0 10 C 0 4.477157592773438 4.477157592773438 0 10 0 Z" stroke="none" fill="#4db1f0"/>
    </g>
    <g id="Trazado_733841" data-name="Trazado 733841" transform="translate(915 28108)" fill="#fff">
      <path d="M 180 118.5 L 10 118.5 C 5.313075065612793 118.5 1.5 114.6869277954102 1.5 110 L 1.5 10 C 1.5 5.313075065612793 5.313075065612793 1.5 10 1.5 L 180 1.5 C 184.6869201660156 1.5 188.5 5.313075065612793 188.5 10 L 188.5 110 C 188.5 114.6869277954102 184.6869201660156 118.5 180 118.5 Z" stroke="none"/>
      <path d="M 10 3 C 6.140182495117188 3 3 6.140182495117188 3 10 L 3 110 C 3 113.8598175048828 6.140182495117188 117 10 117 L 180 117 C 183.8598175048828 117 187 113.8598175048828 187 110 L 187 10 C 187 6.140182495117188 183.8598175048828 3 180 3 L 10 3 M 10 0 L 180 0 C 185.5228424072266 0 190 4.477157592773438 190 10 L 190 110 C 190 115.5228424072266 185.5228424072266 120 180 120 L 10 120 C 4.477157592773438 120 0 115.5228424072266 0 110 L 0 10 C 0 4.477157592773438 4.477157592773438 0 10 0 Z" stroke="none" fill="#4db1f0"/>
    </g>
    <g id="Trazado_733842" data-name="Trazado 733842" transform="translate(705 28336)" fill="#fff">
      <path d="M 180 118.5 L 10 118.5 C 5.313075065612793 118.5 1.5 114.6869277954102 1.5 110 L 1.5 10 C 1.5 5.313075065612793 5.313075065612793 1.5 10 1.5 L 180 1.5 C 184.6869201660156 1.5 188.5 5.313075065612793 188.5 10 L 188.5 110 C 188.5 114.6869277954102 184.6869201660156 118.5 180 118.5 Z" stroke="none"/>
      <path d="M 10 3 C 6.140182495117188 3 3 6.140182495117188 3 10 L 3 110 C 3 113.8598175048828 6.140182495117188 117 10 117 L 180 117 C 183.8598175048828 117 187 113.8598175048828 187 110 L 187 10 C 187 6.140182495117188 183.8598175048828 3 180 3 L 10 3 M 10 0 L 180 0 C 185.5228424072266 0 190 4.477157592773438 190 10 L 190 110 C 190 115.5228424072266 185.5228424072266 120 180 120 L 10 120 C 4.477157592773438 120 0 115.5228424072266 0 110 L 0 10 C 0 4.477157592773438 4.477157592773438 0 10 0 Z" stroke="none" fill="#4db1f0"/>
    </g>
    <path id="Trazado_733843" data-name="Trazado 733843" d="M-30.2-11.572h-4.268V0H-37.9V-11.572h-4.189v-2.646H-30.2ZM-24.595,0a3.716,3.716,0,0,1-.312-.947A3.06,3.06,0,0,1-27.446.2a3.749,3.749,0,0,1-2.539-.9A2.875,2.875,0,0,1-31.03-2.979a2.955,2.955,0,0,1,1.27-2.6,6.468,6.468,0,0,1,3.691-.879h1.016v-.559q0-1.462-1.26-1.462a1.03,1.03,0,0,0-1.172,1.158h-3.291a2.95,2.95,0,0,1,1.3-2.487,5.479,5.479,0,0,1,3.325-.956,4.8,4.8,0,0,1,3.193.986,3.429,3.429,0,0,1,1.2,2.705v4.678A4.79,4.79,0,0,0-21.3-.166V0Zm-2.061-2.148a1.836,1.836,0,0,0,1.021-.264,1.653,1.653,0,0,0,.581-.6V-4.7h-.957q-1.719,0-1.719,1.543a.942.942,0,0,0,.3.728A1.1,1.1,0,0,0-26.655-2.148Zm9.746-8.418.107,1.24a3.583,3.583,0,0,1,3.018-1.436,3.015,3.015,0,0,1,2.466.986,4.7,4.7,0,0,1,.845,2.969V0h-3.3V-6.67A1.783,1.783,0,0,0-14.1-7.847a1.491,1.491,0,0,0-1.172-.376,1.569,1.569,0,0,0-1.436.762V0H-20V-10.566Zm7.842,5.176A6.343,6.343,0,0,1-7.974-9.336a3.592,3.592,0,0,1,3.018-1.426,3.068,3.068,0,0,1,2.6,1.328l.234-1.133H.728V4.063h-3.3V-.879A3.063,3.063,0,0,1-4.976.2a3.561,3.561,0,0,1-2.983-1.45A6.7,6.7,0,0,1-9.067-5.391Zm3.291.205q0,2.842,1.641,2.842A1.589,1.589,0,0,0-2.573-3.2v-4.18a1.555,1.555,0,0,0-1.543-.84q-1.533,0-1.65,2.451ZM8.882-1.143A3.393,3.393,0,0,1,6.06.2,3.328,3.328,0,0,1,3.428-.815a4.251,4.251,0,0,1-.894-2.905v-6.846H5.825V-3.7A1.183,1.183,0,0,0,7.144-2.344a1.72,1.72,0,0,0,1.611-.811v-7.412h3.311V0H8.979ZM18.979.2a5.432,5.432,0,0,1-3.936-1.45,5.008,5.008,0,0,1-1.5-3.774V-5.3a6.489,6.489,0,0,1,.6-2.861,4.395,4.395,0,0,1,1.753-1.919,5.292,5.292,0,0,1,2.734-.679A4.574,4.574,0,0,1,22.144-9.38a5.43,5.43,0,0,1,1.289,3.853v1.279H16.89a2.372,2.372,0,0,0,.771,1.4,2.3,2.3,0,0,0,1.543.508,2.958,2.958,0,0,0,2.441-1.094l1.5,1.777A4.2,4.2,0,0,1,21.406-.308,5.891,5.891,0,0,1,18.979.2Zm-.371-8.418q-1.445,0-1.719,1.914h3.32v-.254a1.63,1.63,0,0,0-.4-1.226A1.593,1.593,0,0,0,18.608-8.223ZM37.964-2.656h-4.7L32.446,0H28.784L34-14.219h3.223L42.476,0H38.794ZM34.087-5.3h3.057L35.61-10.234ZM-56.1,45.186a5.193,5.193,0,0,1-.8,2.622A4.833,4.833,0,0,1-58.96,49.57a7,7,0,0,1-3.022.625A5.584,5.584,0,0,1-66.4,48.369a7.54,7.54,0,0,1-1.611-5.156v-.7a8.607,8.607,0,0,1,.728-3.657,5.513,5.513,0,0,1,2.095-2.422,5.844,5.844,0,0,1,3.164-.854,6.129,6.129,0,0,1,4.16,1.362,5.383,5.383,0,0,1,1.787,3.755h-3.418a2.547,2.547,0,0,0-.654-1.865,2.691,2.691,0,0,0-1.875-.566,2.048,2.048,0,0,0-1.875.957,6.151,6.151,0,0,0-.625,3.057v1.006a6.806,6.806,0,0,0,.571,3.252,2.091,2.091,0,0,0,1.968.977,2.632,2.632,0,0,0,1.807-.557,2.363,2.363,0,0,0,.664-1.768Zm1.055-.566a6.236,6.236,0,0,1,.615-2.817,4.4,4.4,0,0,1,1.768-1.9,5.323,5.323,0,0,1,2.705-.664,4.858,4.858,0,0,1,3.74,1.47,5.64,5.64,0,0,1,1.367,4v.117a5.472,5.472,0,0,1-1.372,3.921,4.871,4.871,0,0,1-3.716,1.45,4.927,4.927,0,0,1-3.623-1.353,5.29,5.29,0,0,1-1.475-3.667Zm3.291.205a3.932,3.932,0,0,0,.459,2.148,1.529,1.529,0,0,0,1.357.684q1.758,0,1.8-2.705v-.332q0-2.842-1.816-2.842-1.65,0-1.787,2.451Zm11.377-5.391.107,1.24a3.583,3.583,0,0,1,3.018-1.436,3.015,3.015,0,0,1,2.466.986,4.7,4.7,0,0,1,.845,2.969V50h-3.3V43.33a1.783,1.783,0,0,0-.322-1.177,1.491,1.491,0,0,0-1.172-.376,1.569,1.569,0,0,0-1.436.762V50h-3.291V39.434Zm12.725,8.223a1.464,1.464,0,0,0,1.074-.376,1.379,1.379,0,0,0,.371-1.05h3.086a3.653,3.653,0,0,1-1.245,2.852A4.631,4.631,0,0,1-27.578,50.2a4.689,4.689,0,0,1-3.633-1.445,5.7,5.7,0,0,1-1.328-4v-.137a6.436,6.436,0,0,1,.591-2.827,4.3,4.3,0,0,1,1.7-1.885,5.081,5.081,0,0,1,2.637-.659,4.573,4.573,0,0,1,3.271,1.143,4.053,4.053,0,0,1,1.211,3.1h-3.086a1.807,1.807,0,0,0-.4-1.26,1.382,1.382,0,0,0-1.074-.439q-1.279,0-1.494,1.631a11.508,11.508,0,0,0-.068,1.426,4.52,4.52,0,0,0,.381,2.207A1.319,1.319,0,0,0-27.656,47.656ZM-16.621,50.2a5.432,5.432,0,0,1-3.936-1.45,5.008,5.008,0,0,1-1.5-3.774V44.7a6.489,6.489,0,0,1,.6-2.861,4.395,4.395,0,0,1,1.753-1.919,5.292,5.292,0,0,1,2.734-.679,4.574,4.574,0,0,1,3.516,1.382,5.43,5.43,0,0,1,1.289,3.853v1.279h-6.543a2.372,2.372,0,0,0,.771,1.4,2.3,2.3,0,0,0,1.543.508,2.958,2.958,0,0,0,2.441-1.094l1.5,1.777a4.2,4.2,0,0,1-1.743,1.353A5.891,5.891,0,0,1-16.621,50.2Zm-.371-8.418q-1.445,0-1.719,1.914h3.32v-.254a1.63,1.63,0,0,0-.4-1.226A1.593,1.593,0,0,0-16.992,41.777Zm9.17-2.344.107,1.24A3.583,3.583,0,0,1-4.7,39.238a3.015,3.015,0,0,1,2.466.986,4.7,4.7,0,0,1,.845,2.969V50h-3.3V43.33a1.783,1.783,0,0,0-.322-1.177,1.491,1.491,0,0,0-1.172-.376,1.569,1.569,0,0,0-1.436.762V50h-3.291V39.434Zm12.09-2.627v2.627H6.006v2.285H4.268v4.834a1.234,1.234,0,0,0,.215.83,1.152,1.152,0,0,0,.85.234,4.828,4.828,0,0,0,.82-.059v2.354A6.074,6.074,0,0,1,4.3,50.2a3.448,3.448,0,0,1-2.51-.8,3.282,3.282,0,0,1-.811-2.432V41.719H-.371V39.434H.977V36.807Zm9.424,5.605-1.084-.078a1.947,1.947,0,0,0-1.992.977V50H7.324V39.434H10.41l.107,1.357a2.548,2.548,0,0,1,2.314-1.553,3.209,3.209,0,0,1,.918.117ZM20.537,50a3.716,3.716,0,0,1-.312-.947A3.06,3.06,0,0,1,17.686,50.2a3.749,3.749,0,0,1-2.539-.9A2.875,2.875,0,0,1,14.1,47.021a2.955,2.955,0,0,1,1.27-2.6,6.468,6.468,0,0,1,3.691-.879h1.016v-.559q0-1.462-1.26-1.462a1.03,1.03,0,0,0-1.172,1.158H14.355a2.95,2.95,0,0,1,1.3-2.487,5.479,5.479,0,0,1,3.325-.956,4.8,4.8,0,0,1,3.193.986,3.429,3.429,0,0,1,1.2,2.705v4.678a4.79,4.79,0,0,0,.449,2.227V50Zm-2.061-2.148a1.836,1.836,0,0,0,1.021-.264,1.653,1.653,0,0,0,.581-.6V45.3h-.957q-1.719,0-1.719,1.543a.942.942,0,0,0,.3.728A1.1,1.1,0,0,0,18.477,47.852Zm11.191-.2a1.464,1.464,0,0,0,1.074-.376,1.379,1.379,0,0,0,.371-1.05H34.2a3.653,3.653,0,0,1-1.245,2.852A4.631,4.631,0,0,1,29.746,50.2a4.689,4.689,0,0,1-3.633-1.445,5.7,5.7,0,0,1-1.328-4v-.137a6.436,6.436,0,0,1,.591-2.827,4.3,4.3,0,0,1,1.7-1.885,5.081,5.081,0,0,1,2.637-.659,4.573,4.573,0,0,1,3.271,1.143,4.053,4.053,0,0,1,1.211,3.1H31.113a1.807,1.807,0,0,0-.4-1.26,1.382,1.382,0,0,0-1.074-.439q-1.279,0-1.494,1.631a11.508,11.508,0,0,0-.068,1.426,4.52,4.52,0,0,0,.381,2.207A1.319,1.319,0,0,0,29.668,47.656ZM39.063,50h-3.3V39.434h3.3Zm-3.5-13.3a1.482,1.482,0,0,1,.508-1.159,2.149,2.149,0,0,1,2.637,0,1.577,1.577,0,0,1,0,2.319,2.149,2.149,0,0,1-2.637,0A1.482,1.482,0,0,1,35.566,36.7Zm5.107,7.92a6.236,6.236,0,0,1,.615-2.817,4.4,4.4,0,0,1,1.768-1.9,5.323,5.323,0,0,1,2.705-.664,4.858,4.858,0,0,1,3.74,1.47,5.64,5.64,0,0,1,1.367,4v.117A5.472,5.472,0,0,1,49.5,48.745a4.871,4.871,0,0,1-3.716,1.45,4.927,4.927,0,0,1-3.623-1.353,5.29,5.29,0,0,1-1.475-3.667Zm3.291.205a3.932,3.932,0,0,0,.459,2.148,1.529,1.529,0,0,0,1.357.684q1.758,0,1.8-2.705v-.332q0-2.842-1.816-2.842-1.65,0-1.787,2.451ZM46.211,35h3.477l-2.715,3.066-2.686,0Zm9.131,4.434.107,1.24a3.583,3.583,0,0,1,3.018-1.436,3.015,3.015,0,0,1,2.466.986,4.7,4.7,0,0,1,.845,2.969V50h-3.3V43.33a1.783,1.783,0,0,0-.322-1.177,1.491,1.491,0,0,0-1.172-.376,1.569,1.569,0,0,0-1.436.762V50H52.256V39.434Zm10.3,7.373a1.874,1.874,0,0,1,1.3.464,1.619,1.619,0,0,1,0,2.373,2.049,2.049,0,0,1-2.6,0,1.618,1.618,0,0,1,0-2.363A1.858,1.858,0,0,1,65.645,46.807Zm0-7.793a1.874,1.874,0,0,1,1.3.464,1.619,1.619,0,0,1,0,2.373,2.049,2.049,0,0,1-2.6,0,1.618,1.618,0,0,1,0-2.363A1.858,1.858,0,0,1,65.645,39.014ZM-35,75h-3.3V64.492l-3.242.947v-2.5l6.24-2.158h.3Zm14.16-5.811a6.789,6.789,0,0,1-1.294,4.443A4.471,4.471,0,0,1-25.776,75.2a4.5,4.5,0,0,1-3.672-1.572,6.779,6.779,0,0,1-1.3-4.434v-2.6a6.789,6.789,0,0,1,1.294-4.443A4.483,4.483,0,0,1-25.8,60.586a4.484,4.484,0,0,1,3.662,1.572,6.8,6.8,0,0,1,1.3,4.443Zm-3.291-3.018a5.071,5.071,0,0,0-.4-2.29,1.338,1.338,0,0,0-1.27-.757,1.307,1.307,0,0,0-1.235.7,4.777,4.777,0,0,0-.415,2.129V69.59a5.109,5.109,0,0,0,.4,2.329,1.343,1.343,0,0,0,1.27.737,1.325,1.325,0,0,0,1.24-.718,4.878,4.878,0,0,0,.41-2.251Zm14.873,3.018a6.789,6.789,0,0,1-1.294,4.443A4.471,4.471,0,0,1-14.194,75.2a4.5,4.5,0,0,1-3.672-1.572,6.779,6.779,0,0,1-1.3-4.434v-2.6a6.789,6.789,0,0,1,1.294-4.443,4.483,4.483,0,0,1,3.657-1.562,4.484,4.484,0,0,1,3.662,1.572,6.8,6.8,0,0,1,1.3,4.443Zm-3.291-3.018a5.071,5.071,0,0,0-.4-2.29,1.338,1.338,0,0,0-1.27-.757,1.307,1.307,0,0,0-1.235.7,4.777,4.777,0,0,0-.415,2.129V69.59a5.109,5.109,0,0,0,.4,2.329,1.343,1.343,0,0,0,1.27.737,1.325,1.325,0,0,0,1.24-.718,4.878,4.878,0,0,0,.41-2.251ZM.6,64.434l.107,1.24a3.633,3.633,0,0,1,3.018-1.436A2.675,2.675,0,0,1,6.431,65.83a3.517,3.517,0,0,1,3.105-1.592q3.213,0,3.3,3.887V75h-3.3V68.33a2.014,2.014,0,0,0-.273-1.182,1.164,1.164,0,0,0-1-.371,1.559,1.559,0,0,0-1.455.869l.01.137V75h-3.3V68.35a2.117,2.117,0,0,0-.264-1.2,1.161,1.161,0,0,0-1.006-.371,1.578,1.578,0,0,0-1.445.869V75H-2.485V64.434Zm13.73,5.205a7.134,7.134,0,0,1,.527-2.832,4.245,4.245,0,0,1,1.514-1.9,3.99,3.99,0,0,1,2.295-.669,3.173,3.173,0,0,1,2.578,1.113l.117-.918h2.988V74.6a4.455,4.455,0,0,1-.649,2.427,4.167,4.167,0,0,1-1.88,1.582,6.91,6.91,0,0,1-2.852.552,5.961,5.961,0,0,1-2.251-.439,4.063,4.063,0,0,1-1.665-1.143l1.377-1.934a3.018,3.018,0,0,0,2.422,1.084,1.96,1.96,0,0,0,2.188-2.246V74.15A3.09,3.09,0,0,1,18.647,75.2a3.819,3.819,0,0,1-3.125-1.479,6.13,6.13,0,0,1-1.191-3.96Zm3.3.205A3.759,3.759,0,0,0,18.12,71.9a1.541,1.541,0,0,0,1.367.757,1.748,1.748,0,0,0,1.553-.713V67.5a1.7,1.7,0,0,0-1.533-.723,1.551,1.551,0,0,0-1.377.786A4.287,4.287,0,0,0,17.632,69.844Zm9.717,6.377H25.015l4.854-15.439h2.344Zm9.473-3.857h5.967V75H33.394V60.781h3.428Z" transform="translate(585 28137)" fill="#12263f"/>
    <path id="Trazado_733844" data-name="Trazado 733844" d="M0,54.5V0" transform="translate(589.5 28226.57)" fill="none" stroke="#4db1f0" stroke-width="3"/>
    <path id="Trazado_733845" data-name="Trazado 733845" d="M0,54.5V0" transform="translate(1010.5 28226.57)" fill="none" stroke="#4db1f0" stroke-width="3"/>
    <path id="Trazado_733846" data-name="Trazado 733846" d="M0,54.5V0" transform="translate(800.5 28281.5)" fill="none" stroke="#4db1f0" stroke-width="3"/>
    <path id="Trazado_733847" data-name="Trazado 733847" d="M0,0H421" transform="translate(589.5 28281.5)" fill="none" stroke="#4db1f0" stroke-linecap="square" stroke-width="3"/>
    <path id="Trazado_733848" data-name="Trazado 733848" d="M42.661,7.428H38.394V19H34.966V7.428H30.776V4.781H42.661ZM48.267,19a3.716,3.716,0,0,1-.312-.947A3.06,3.06,0,0,1,45.415,19.2a3.749,3.749,0,0,1-2.539-.9,2.875,2.875,0,0,1-1.045-2.271,2.955,2.955,0,0,1,1.27-2.6,6.468,6.468,0,0,1,3.691-.879h1.016v-.559q0-1.462-1.26-1.462a1.03,1.03,0,0,0-1.172,1.158H42.085a2.95,2.95,0,0,1,1.3-2.487,5.479,5.479,0,0,1,3.325-.956,4.8,4.8,0,0,1,3.193.986,3.429,3.429,0,0,1,1.2,2.705v4.678a4.79,4.79,0,0,0,.449,2.227V19Zm-2.061-2.148a1.836,1.836,0,0,0,1.021-.264,1.653,1.653,0,0,0,.581-.6V14.3h-.957q-1.719,0-1.719,1.543a.942.942,0,0,0,.3.728A1.1,1.1,0,0,0,46.206,16.852Zm9.746-8.418.107,1.24a3.583,3.583,0,0,1,3.018-1.436,3.015,3.015,0,0,1,2.466.986,4.7,4.7,0,0,1,.845,2.969V19h-3.3V12.33a1.783,1.783,0,0,0-.322-1.177,1.491,1.491,0,0,0-1.172-.376,1.569,1.569,0,0,0-1.436.762V19H52.866V8.434Zm7.842,5.176a6.343,6.343,0,0,1,1.094-3.945,3.592,3.592,0,0,1,3.018-1.426,3.068,3.068,0,0,1,2.6,1.328l.234-1.133h2.852V23.063h-3.3V18.121a3.063,3.063,0,0,1-2.4,1.074,3.561,3.561,0,0,1-2.983-1.45A6.7,6.7,0,0,1,63.794,13.609Zm3.291.205q0,2.842,1.641,2.842a1.589,1.589,0,0,0,1.563-.859v-4.18a1.555,1.555,0,0,0-1.543-.84q-1.533,0-1.65,2.451Zm14.658,4.043A3.393,3.393,0,0,1,78.921,19.2a3.328,3.328,0,0,1-2.632-1.011,4.251,4.251,0,0,1-.894-2.905V8.434h3.291V15.3A1.183,1.183,0,0,0,80,16.656a1.72,1.72,0,0,0,1.611-.811V8.434h3.311V19H81.841Zm10.1,1.338a5.432,5.432,0,0,1-3.936-1.45,5.008,5.008,0,0,1-1.5-3.774V13.7a6.489,6.489,0,0,1,.6-2.861,4.395,4.395,0,0,1,1.753-1.919,5.292,5.292,0,0,1,2.734-.679A4.574,4.574,0,0,1,95,9.62a5.43,5.43,0,0,1,1.289,3.853v1.279H89.751a2.372,2.372,0,0,0,.771,1.4,2.3,2.3,0,0,0,1.543.508,2.958,2.958,0,0,0,2.441-1.094l1.5,1.777a4.2,4.2,0,0,1-1.743,1.353A5.891,5.891,0,0,1,91.841,19.2Zm-.371-8.418q-1.445,0-1.719,1.914h3.32v-.254a1.63,1.63,0,0,0-.4-1.226A1.593,1.593,0,0,0,91.47,10.777ZM102.749,19V4.781h5.107a7.232,7.232,0,0,1,4.175,1.006,3.347,3.347,0,0,1,1.431,2.92,3.383,3.383,0,0,1-.508,1.885,2.959,2.959,0,0,1-1.494,1.152,3,3,0,0,1,1.709,1.094,3.18,3.18,0,0,1,.6,1.953,3.765,3.765,0,0,1-1.323,3.14A6.3,6.3,0,0,1,108.521,19Zm3.428-6.045v3.408h2.246a2.136,2.136,0,0,0,1.426-.425,1.487,1.487,0,0,0,.5-1.2,1.576,1.576,0,0,0-1.768-1.787Zm0-2.246h1.787a2.539,2.539,0,0,0,1.6-.411,1.46,1.46,0,0,0,.479-1.185,1.533,1.533,0,0,0-.518-1.3,2.77,2.77,0,0,0-1.67-.4h-1.68ZM16.4,64.186a5.193,5.193,0,0,1-.8,2.622A4.833,4.833,0,0,1,13.54,68.57a7,7,0,0,1-3.022.625A5.584,5.584,0,0,1,6.1,67.369a7.54,7.54,0,0,1-1.611-5.156v-.7a8.607,8.607,0,0,1,.728-3.657,5.513,5.513,0,0,1,2.095-2.422,5.844,5.844,0,0,1,3.164-.854,6.129,6.129,0,0,1,4.16,1.362,5.383,5.383,0,0,1,1.787,3.755H13.008a2.547,2.547,0,0,0-.654-1.865,2.691,2.691,0,0,0-1.875-.566,2.048,2.048,0,0,0-1.875.957,6.151,6.151,0,0,0-.625,3.057v1.006a6.806,6.806,0,0,0,.571,3.252,2.091,2.091,0,0,0,1.968.977,2.632,2.632,0,0,0,1.807-.557,2.363,2.363,0,0,0,.664-1.768Zm1.055-.566a6.236,6.236,0,0,1,.615-2.817,4.4,4.4,0,0,1,1.768-1.9,5.323,5.323,0,0,1,2.705-.664,4.858,4.858,0,0,1,3.74,1.47,5.64,5.64,0,0,1,1.367,4v.117a5.472,5.472,0,0,1-1.372,3.921,4.871,4.871,0,0,1-3.716,1.45,4.927,4.927,0,0,1-3.623-1.353,5.29,5.29,0,0,1-1.475-3.667Zm3.291.205a3.932,3.932,0,0,0,.459,2.148,1.529,1.529,0,0,0,1.357.684q1.758,0,1.8-2.705v-.332q0-2.842-1.816-2.842-1.65,0-1.787,2.451Zm11.377-5.391.107,1.24a3.583,3.583,0,0,1,3.018-1.436,3.015,3.015,0,0,1,2.466.986,4.7,4.7,0,0,1,.845,2.969V69h-3.3V62.33a1.783,1.783,0,0,0-.322-1.177,1.491,1.491,0,0,0-1.172-.376,1.569,1.569,0,0,0-1.436.762V69H29.033V58.434Zm12.725,8.223a1.464,1.464,0,0,0,1.074-.376,1.379,1.379,0,0,0,.371-1.05h3.086a3.653,3.653,0,0,1-1.245,2.852A4.631,4.631,0,0,1,44.922,69.2a4.689,4.689,0,0,1-3.633-1.445,5.7,5.7,0,0,1-1.328-4v-.137a6.436,6.436,0,0,1,.591-2.827,4.3,4.3,0,0,1,1.7-1.885,5.081,5.081,0,0,1,2.637-.659,4.573,4.573,0,0,1,3.271,1.143,4.053,4.053,0,0,1,1.211,3.1H46.289a1.807,1.807,0,0,0-.4-1.26,1.382,1.382,0,0,0-1.074-.439q-1.279,0-1.494,1.631a11.507,11.507,0,0,0-.068,1.426,4.52,4.52,0,0,0,.381,2.207A1.319,1.319,0,0,0,44.844,66.656ZM55.879,69.2a5.432,5.432,0,0,1-3.936-1.45,5.008,5.008,0,0,1-1.5-3.774V63.7a6.489,6.489,0,0,1,.6-2.861,4.395,4.395,0,0,1,1.753-1.919,5.292,5.292,0,0,1,2.734-.679,4.574,4.574,0,0,1,3.516,1.382,5.43,5.43,0,0,1,1.289,3.853v1.279H53.789a2.372,2.372,0,0,0,.771,1.4,2.3,2.3,0,0,0,1.543.508,2.958,2.958,0,0,0,2.441-1.094l1.5,1.777a4.2,4.2,0,0,1-1.743,1.353A5.891,5.891,0,0,1,55.879,69.2Zm-.371-8.418q-1.445,0-1.719,1.914h3.32v-.254a1.63,1.63,0,0,0-.4-1.226A1.593,1.593,0,0,0,55.508,60.777Zm9.17-2.344.107,1.24A3.583,3.583,0,0,1,67.8,58.238a3.015,3.015,0,0,1,2.466.986,4.7,4.7,0,0,1,.845,2.969V69h-3.3V62.33a1.783,1.783,0,0,0-.322-1.177,1.491,1.491,0,0,0-1.172-.376,1.569,1.569,0,0,0-1.436.762V69H61.592V58.434Zm12.09-2.627v2.627h1.738v2.285H76.768v4.834a1.234,1.234,0,0,0,.215.83,1.152,1.152,0,0,0,.85.234,4.828,4.828,0,0,0,.82-.059v2.354A6.074,6.074,0,0,1,76.8,69.2a3.448,3.448,0,0,1-2.51-.8,3.282,3.282,0,0,1-.811-2.432V60.719H72.129V58.434h1.348V55.807Zm9.424,5.605-1.084-.078a1.947,1.947,0,0,0-1.992.977V69H79.824V58.434H82.91l.107,1.357a2.548,2.548,0,0,1,2.314-1.553,3.209,3.209,0,0,1,.918.117ZM93.037,69a3.716,3.716,0,0,1-.312-.947A3.06,3.06,0,0,1,90.186,69.2a3.749,3.749,0,0,1-2.539-.9A2.875,2.875,0,0,1,86.6,66.021a2.955,2.955,0,0,1,1.27-2.6,6.468,6.468,0,0,1,3.691-.879h1.016v-.559q0-1.462-1.26-1.462a1.03,1.03,0,0,0-1.172,1.158H86.855a2.95,2.95,0,0,1,1.3-2.487,5.479,5.479,0,0,1,3.325-.956,4.8,4.8,0,0,1,3.193.986,3.429,3.429,0,0,1,1.2,2.705v4.678a4.79,4.79,0,0,0,.449,2.227V69Zm-2.061-2.148A1.836,1.836,0,0,0,92,66.588a1.653,1.653,0,0,0,.581-.6V64.3h-.957q-1.719,0-1.719,1.543a.942.942,0,0,0,.3.728A1.1,1.1,0,0,0,90.977,66.852Zm11.191-.2a1.464,1.464,0,0,0,1.074-.376,1.379,1.379,0,0,0,.371-1.05H106.7a3.653,3.653,0,0,1-1.245,2.852,4.631,4.631,0,0,1-3.208,1.113,4.689,4.689,0,0,1-3.633-1.445,5.7,5.7,0,0,1-1.328-4v-.137a6.436,6.436,0,0,1,.591-2.827,4.3,4.3,0,0,1,1.7-1.885,5.081,5.081,0,0,1,2.637-.659,4.573,4.573,0,0,1,3.271,1.143,4.053,4.053,0,0,1,1.211,3.1h-3.086a1.806,1.806,0,0,0-.4-1.26,1.382,1.382,0,0,0-1.074-.439q-1.279,0-1.494,1.631a11.508,11.508,0,0,0-.068,1.426,4.52,4.52,0,0,0,.381,2.207A1.319,1.319,0,0,0,102.168,66.656ZM111.563,69h-3.3V58.434h3.3Zm-3.5-13.3a1.482,1.482,0,0,1,.508-1.159,2.149,2.149,0,0,1,2.637,0,1.577,1.577,0,0,1,0,2.319,2.149,2.149,0,0,1-2.637,0A1.482,1.482,0,0,1,108.066,55.7Zm5.107,7.92a6.236,6.236,0,0,1,.615-2.817,4.4,4.4,0,0,1,1.768-1.9,5.323,5.323,0,0,1,2.705-.664,4.858,4.858,0,0,1,3.74,1.47,5.64,5.64,0,0,1,1.367,4v.117A5.472,5.472,0,0,1,122,67.745a4.871,4.871,0,0,1-3.716,1.45,4.927,4.927,0,0,1-3.623-1.353,5.29,5.29,0,0,1-1.475-3.667Zm3.291.205a3.932,3.932,0,0,0,.459,2.148,1.529,1.529,0,0,0,1.357.684q1.758,0,1.8-2.705v-.332q0-2.842-1.816-2.842-1.65,0-1.787,2.451ZM118.711,54h3.477l-2.715,3.066-2.686,0Zm9.131,4.434.107,1.24a3.583,3.583,0,0,1,3.018-1.436,3.015,3.015,0,0,1,2.466.986,4.7,4.7,0,0,1,.845,2.969V69h-3.3V62.33a1.783,1.783,0,0,0-.322-1.177,1.491,1.491,0,0,0-1.172-.376,1.569,1.569,0,0,0-1.436.762V69h-3.291V58.434Zm10.3,7.373a1.874,1.874,0,0,1,1.3.464,1.619,1.619,0,0,1,0,2.373,2.049,2.049,0,0,1-2.6,0,1.618,1.618,0,0,1,0-2.363A1.858,1.858,0,0,1,138.145,65.807Zm0-7.793a1.874,1.874,0,0,1,1.3.464,1.619,1.619,0,0,1,0,2.373,2.049,2.049,0,0,1-2.6,0,1.618,1.618,0,0,1,0-2.363A1.858,1.858,0,0,1,138.145,58.014ZM30.405,87.055l.869-7.273h8.311V82.32H33.95l-.322,2.844a3.882,3.882,0,0,1,.923-.363,4.643,4.643,0,0,1,4.375,1.1,5.718,5.718,0,0,1,.527,6,4.2,4.2,0,0,1-1.714,1.7,5.411,5.411,0,0,1-2.607.6,5.822,5.822,0,0,1-2.51-.551,4.5,4.5,0,0,1-1.836-1.512,3.675,3.675,0,0,1-.654-2.171h3.3a1.867,1.867,0,0,0,.5,1.238,1.581,1.581,0,0,0,1.182.458q1.66,0,1.66-2.456,0-2.271-2.031-2.271a2.027,2.027,0,0,0-1.719.741Zm21.26,1.135a6.789,6.789,0,0,1-1.294,4.443A4.471,4.471,0,0,1,46.724,94.2a4.5,4.5,0,0,1-3.672-1.572,6.779,6.779,0,0,1-1.3-4.434v-2.6a6.789,6.789,0,0,1,1.294-4.443A4.483,4.483,0,0,1,46.7,79.586a4.484,4.484,0,0,1,3.662,1.572,6.8,6.8,0,0,1,1.3,4.443Zm-3.291-3.018a5.071,5.071,0,0,0-.4-2.29,1.338,1.338,0,0,0-1.27-.757,1.307,1.307,0,0,0-1.235.7,4.777,4.777,0,0,0-.415,2.129V88.59a5.11,5.11,0,0,0,.4,2.329,1.343,1.343,0,0,0,1.27.737,1.325,1.325,0,0,0,1.24-.718,4.878,4.878,0,0,0,.41-2.251Zm14.873,3.018a6.789,6.789,0,0,1-1.294,4.443,5.056,5.056,0,0,1-7.319-.01,6.779,6.779,0,0,1-1.3-4.434v-2.6a6.789,6.789,0,0,1,1.294-4.443,5.056,5.056,0,0,1,7.319.01,6.8,6.8,0,0,1,1.3,4.443Zm-3.291-3.018a5.071,5.071,0,0,0-.4-2.29,1.338,1.338,0,0,0-1.27-.757,1.307,1.307,0,0,0-1.235.7,4.777,4.777,0,0,0-.415,2.129V88.59a5.11,5.11,0,0,0,.4,2.329,1.343,1.343,0,0,0,1.27.737,1.325,1.325,0,0,0,1.24-.718,4.878,4.878,0,0,0,.41-2.251ZM73.1,83.434l.107,1.24a3.633,3.633,0,0,1,3.018-1.436,2.675,2.675,0,0,1,2.705,1.592,3.517,3.517,0,0,1,3.105-1.592q3.213,0,3.3,3.887V94h-3.3V87.33a2.014,2.014,0,0,0-.273-1.182,1.164,1.164,0,0,0-1-.371,1.559,1.559,0,0,0-1.455.869l.01.137V94h-3.3V87.35a2.117,2.117,0,0,0-.264-1.2,1.161,1.161,0,0,0-1.006-.371,1.578,1.578,0,0,0-1.445.869V94H70.015V83.434Zm13.73,5.205a7.134,7.134,0,0,1,.527-2.832,4.245,4.245,0,0,1,1.514-1.9,3.99,3.99,0,0,1,2.295-.669,3.173,3.173,0,0,1,2.578,1.113l.117-.918h2.988V93.6a4.455,4.455,0,0,1-.649,2.427,4.167,4.167,0,0,1-1.88,1.582,6.91,6.91,0,0,1-2.852.552,5.961,5.961,0,0,1-2.251-.439,4.063,4.063,0,0,1-1.665-1.143l1.377-1.934a3.018,3.018,0,0,0,2.422,1.084,1.96,1.96,0,0,0,2.188-2.246V93.15A3.09,3.09,0,0,1,91.147,94.2a3.819,3.819,0,0,1-3.125-1.479,6.13,6.13,0,0,1-1.191-3.96Zm3.3.205A3.759,3.759,0,0,0,90.62,90.9a1.541,1.541,0,0,0,1.367.757,1.748,1.748,0,0,0,1.553-.713V86.5a1.7,1.7,0,0,0-1.533-.723,1.551,1.551,0,0,0-1.377.786A4.287,4.287,0,0,0,90.132,88.844Zm9.717,6.377H97.515l4.854-15.439h2.344Zm9.473-3.857h5.967V94h-9.395V79.781h3.428Z" transform="translate(938 28119)" fill="#12263f"/>
    <path id="Trazado_733849" data-name="Trazado 733849" d="M42.549,7.428H38.281V19H34.854V7.428H30.664V4.781H42.549ZM48.154,19a3.716,3.716,0,0,1-.312-.947A3.06,3.06,0,0,1,45.3,19.2a3.749,3.749,0,0,1-2.539-.9,2.875,2.875,0,0,1-1.045-2.271,2.955,2.955,0,0,1,1.27-2.6,6.468,6.468,0,0,1,3.691-.879H47.7v-.559q0-1.462-1.26-1.462a1.03,1.03,0,0,0-1.172,1.158H41.973a2.95,2.95,0,0,1,1.3-2.487A5.479,5.479,0,0,1,46.6,8.238a4.8,4.8,0,0,1,3.193.986A3.429,3.429,0,0,1,51,11.93v4.678a4.79,4.79,0,0,0,.449,2.227V19Zm-2.061-2.148a1.836,1.836,0,0,0,1.021-.264,1.653,1.653,0,0,0,.581-.6V14.3h-.957q-1.719,0-1.719,1.543a.942.942,0,0,0,.3.728A1.1,1.1,0,0,0,46.094,16.852ZM55.84,8.434l.107,1.24a3.583,3.583,0,0,1,3.018-1.436,3.015,3.015,0,0,1,2.466.986,4.7,4.7,0,0,1,.845,2.969V19h-3.3V12.33a1.783,1.783,0,0,0-.322-1.177,1.491,1.491,0,0,0-1.172-.376,1.569,1.569,0,0,0-1.436.762V19H52.754V8.434Zm7.842,5.176a6.343,6.343,0,0,1,1.094-3.945,3.592,3.592,0,0,1,3.018-1.426,3.068,3.068,0,0,1,2.6,1.328l.234-1.133h2.852V23.063h-3.3V18.121a3.063,3.063,0,0,1-2.4,1.074,3.561,3.561,0,0,1-2.983-1.45A6.7,6.7,0,0,1,63.682,13.609Zm3.291.205q0,2.842,1.641,2.842a1.589,1.589,0,0,0,1.563-.859v-4.18a1.555,1.555,0,0,0-1.543-.84q-1.533,0-1.65,2.451Zm14.658,4.043A3.393,3.393,0,0,1,78.809,19.2a3.328,3.328,0,0,1-2.632-1.011,4.251,4.251,0,0,1-.894-2.905V8.434h3.291V15.3a1.183,1.183,0,0,0,1.318,1.357,1.72,1.72,0,0,0,1.611-.811V8.434h3.311V19H81.729Zm10.1,1.338a5.432,5.432,0,0,1-3.936-1.45,5.008,5.008,0,0,1-1.5-3.774V13.7a6.489,6.489,0,0,1,.6-2.861,4.395,4.395,0,0,1,1.753-1.919,5.292,5.292,0,0,1,2.734-.679A4.574,4.574,0,0,1,94.893,9.62a5.43,5.43,0,0,1,1.289,3.853v1.279H89.639a2.372,2.372,0,0,0,.771,1.4,2.3,2.3,0,0,0,1.543.508,2.958,2.958,0,0,0,2.441-1.094l1.5,1.777a4.2,4.2,0,0,1-1.743,1.353A5.891,5.891,0,0,1,91.729,19.2Zm-.371-8.418q-1.445,0-1.719,1.914h3.32v-.254a1.63,1.63,0,0,0-.4-1.226A1.593,1.593,0,0,0,91.357,10.777Zm22.783,3.408a5.193,5.193,0,0,1-.8,2.622,4.833,4.833,0,0,1-2.056,1.763,7,7,0,0,1-3.022.625,5.584,5.584,0,0,1-4.414-1.826,7.54,7.54,0,0,1-1.611-5.156v-.7a8.607,8.607,0,0,1,.728-3.657,5.513,5.513,0,0,1,2.095-2.422,5.844,5.844,0,0,1,3.164-.854,6.129,6.129,0,0,1,4.16,1.362,5.383,5.383,0,0,1,1.787,3.755h-3.418a2.547,2.547,0,0,0-.654-1.865,2.691,2.691,0,0,0-1.875-.566,2.048,2.048,0,0,0-1.875.957,6.151,6.151,0,0,0-.625,3.057v1.006a6.806,6.806,0,0,0,.571,3.252,2.091,2.091,0,0,0,1.968.977,2.632,2.632,0,0,0,1.807-.557,2.363,2.363,0,0,0,.664-1.768Zm-97.744,50a5.193,5.193,0,0,1-.8,2.622A4.833,4.833,0,0,1,13.54,68.57a7,7,0,0,1-3.022.625A5.584,5.584,0,0,1,6.1,67.369a7.54,7.54,0,0,1-1.611-5.156v-.7a8.607,8.607,0,0,1,.728-3.657,5.513,5.513,0,0,1,2.095-2.422,5.844,5.844,0,0,1,3.164-.854,6.129,6.129,0,0,1,4.16,1.362,5.383,5.383,0,0,1,1.787,3.755H13.008a2.547,2.547,0,0,0-.654-1.865,2.691,2.691,0,0,0-1.875-.566,2.048,2.048,0,0,0-1.875.957,6.151,6.151,0,0,0-.625,3.057v1.006a6.806,6.806,0,0,0,.571,3.252,2.091,2.091,0,0,0,1.968.977,2.632,2.632,0,0,0,1.807-.557,2.363,2.363,0,0,0,.664-1.768Zm1.055-.566a6.236,6.236,0,0,1,.615-2.817,4.4,4.4,0,0,1,1.768-1.9,5.323,5.323,0,0,1,2.705-.664,4.858,4.858,0,0,1,3.74,1.47,5.64,5.64,0,0,1,1.367,4v.117a5.472,5.472,0,0,1-1.372,3.921,4.871,4.871,0,0,1-3.716,1.45,4.927,4.927,0,0,1-3.623-1.353,5.29,5.29,0,0,1-1.475-3.667Zm3.291.205a3.932,3.932,0,0,0,.459,2.148,1.529,1.529,0,0,0,1.357.684q1.758,0,1.8-2.705v-.332q0-2.842-1.816-2.842-1.65,0-1.787,2.451Zm11.377-5.391.107,1.24a3.583,3.583,0,0,1,3.018-1.436,3.015,3.015,0,0,1,2.466.986,4.7,4.7,0,0,1,.845,2.969V69h-3.3V62.33a1.783,1.783,0,0,0-.322-1.177,1.491,1.491,0,0,0-1.172-.376,1.569,1.569,0,0,0-1.436.762V69H29.033V58.434Zm12.725,8.223a1.464,1.464,0,0,0,1.074-.376,1.379,1.379,0,0,0,.371-1.05h3.086a3.653,3.653,0,0,1-1.245,2.852A4.631,4.631,0,0,1,44.922,69.2a4.689,4.689,0,0,1-3.633-1.445,5.7,5.7,0,0,1-1.328-4v-.137a6.436,6.436,0,0,1,.591-2.827,4.3,4.3,0,0,1,1.7-1.885,5.081,5.081,0,0,1,2.637-.659,4.573,4.573,0,0,1,3.271,1.143,4.053,4.053,0,0,1,1.211,3.1H46.289a1.807,1.807,0,0,0-.4-1.26,1.382,1.382,0,0,0-1.074-.439q-1.279,0-1.494,1.631a11.507,11.507,0,0,0-.068,1.426,4.52,4.52,0,0,0,.381,2.207A1.319,1.319,0,0,0,44.844,66.656ZM55.879,69.2a5.432,5.432,0,0,1-3.936-1.45,5.008,5.008,0,0,1-1.5-3.774V63.7a6.489,6.489,0,0,1,.6-2.861,4.395,4.395,0,0,1,1.753-1.919,5.292,5.292,0,0,1,2.734-.679,4.574,4.574,0,0,1,3.516,1.382,5.43,5.43,0,0,1,1.289,3.853v1.279H53.789a2.372,2.372,0,0,0,.771,1.4,2.3,2.3,0,0,0,1.543.508,2.958,2.958,0,0,0,2.441-1.094l1.5,1.777a4.2,4.2,0,0,1-1.743,1.353A5.891,5.891,0,0,1,55.879,69.2Zm-.371-8.418q-1.445,0-1.719,1.914h3.32v-.254a1.63,1.63,0,0,0-.4-1.226A1.593,1.593,0,0,0,55.508,60.777Zm9.17-2.344.107,1.24A3.583,3.583,0,0,1,67.8,58.238a3.015,3.015,0,0,1,2.466.986,4.7,4.7,0,0,1,.845,2.969V69h-3.3V62.33a1.783,1.783,0,0,0-.322-1.177,1.491,1.491,0,0,0-1.172-.376,1.569,1.569,0,0,0-1.436.762V69H61.592V58.434Zm12.09-2.627v2.627h1.738v2.285H76.768v4.834a1.234,1.234,0,0,0,.215.83,1.152,1.152,0,0,0,.85.234,4.828,4.828,0,0,0,.82-.059v2.354A6.074,6.074,0,0,1,76.8,69.2a3.448,3.448,0,0,1-2.51-.8,3.282,3.282,0,0,1-.811-2.432V60.719H72.129V58.434h1.348V55.807Zm9.424,5.605-1.084-.078a1.947,1.947,0,0,0-1.992.977V69H79.824V58.434H82.91l.107,1.357a2.548,2.548,0,0,1,2.314-1.553,3.209,3.209,0,0,1,.918.117ZM93.037,69a3.716,3.716,0,0,1-.312-.947A3.06,3.06,0,0,1,90.186,69.2a3.749,3.749,0,0,1-2.539-.9A2.875,2.875,0,0,1,86.6,66.021a2.955,2.955,0,0,1,1.27-2.6,6.468,6.468,0,0,1,3.691-.879h1.016v-.559q0-1.462-1.26-1.462a1.03,1.03,0,0,0-1.172,1.158H86.855a2.95,2.95,0,0,1,1.3-2.487,5.479,5.479,0,0,1,3.325-.956,4.8,4.8,0,0,1,3.193.986,3.429,3.429,0,0,1,1.2,2.705v4.678a4.79,4.79,0,0,0,.449,2.227V69Zm-2.061-2.148A1.836,1.836,0,0,0,92,66.588a1.653,1.653,0,0,0,.581-.6V64.3h-.957q-1.719,0-1.719,1.543a.942.942,0,0,0,.3.728A1.1,1.1,0,0,0,90.977,66.852Zm11.191-.2a1.464,1.464,0,0,0,1.074-.376,1.379,1.379,0,0,0,.371-1.05H106.7a3.653,3.653,0,0,1-1.245,2.852,4.631,4.631,0,0,1-3.208,1.113,4.689,4.689,0,0,1-3.633-1.445,5.7,5.7,0,0,1-1.328-4v-.137a6.436,6.436,0,0,1,.591-2.827,4.3,4.3,0,0,1,1.7-1.885,5.081,5.081,0,0,1,2.637-.659,4.573,4.573,0,0,1,3.271,1.143,4.053,4.053,0,0,1,1.211,3.1h-3.086a1.806,1.806,0,0,0-.4-1.26,1.382,1.382,0,0,0-1.074-.439q-1.279,0-1.494,1.631a11.508,11.508,0,0,0-.068,1.426,4.52,4.52,0,0,0,.381,2.207A1.319,1.319,0,0,0,102.168,66.656ZM111.563,69h-3.3V58.434h3.3Zm-3.5-13.3a1.482,1.482,0,0,1,.508-1.159,2.149,2.149,0,0,1,2.637,0,1.577,1.577,0,0,1,0,2.319,2.149,2.149,0,0,1-2.637,0A1.482,1.482,0,0,1,108.066,55.7Zm5.107,7.92a6.236,6.236,0,0,1,.615-2.817,4.4,4.4,0,0,1,1.768-1.9,5.323,5.323,0,0,1,2.705-.664,4.858,4.858,0,0,1,3.74,1.47,5.64,5.64,0,0,1,1.367,4v.117A5.472,5.472,0,0,1,122,67.745a4.871,4.871,0,0,1-3.716,1.45,4.927,4.927,0,0,1-3.623-1.353,5.29,5.29,0,0,1-1.475-3.667Zm3.291.205a3.932,3.932,0,0,0,.459,2.148,1.529,1.529,0,0,0,1.357.684q1.758,0,1.8-2.705v-.332q0-2.842-1.816-2.842-1.65,0-1.787,2.451ZM118.711,54h3.477l-2.715,3.066-2.686,0Zm9.131,4.434.107,1.24a3.583,3.583,0,0,1,3.018-1.436,3.015,3.015,0,0,1,2.466.986,4.7,4.7,0,0,1,.845,2.969V69h-3.3V62.33a1.783,1.783,0,0,0-.322-1.177,1.491,1.491,0,0,0-1.172-.376,1.569,1.569,0,0,0-1.436.762V69h-3.291V58.434Zm10.3,7.373a1.874,1.874,0,0,1,1.3.464,1.619,1.619,0,0,1,0,2.373,2.049,2.049,0,0,1-2.6,0,1.618,1.618,0,0,1,0-2.363A1.858,1.858,0,0,1,138.145,65.807Zm0-7.793a1.874,1.874,0,0,1,1.3.464,1.619,1.619,0,0,1,0,2.373,2.049,2.049,0,0,1-2.6,0,1.618,1.618,0,0,1,0-2.363A1.858,1.858,0,0,1,138.145,58.014ZM72.5,84.508l2.324-4.727h3.916l-3.975,7.051L78.843,94H74.888L72.5,89.186,70.1,94H66.157l4.072-7.168-3.965-7.051h3.906Z" transform="translate(728 28347)" fill="#12263f"/>
  </g>
</svg>
