<svg xmlns="http://www.w3.org/2000/svg" width="220.578" height="216.941" viewBox="0 0 220.578 216.941">
  <g id="Grupo_1013617" data-name="Grupo 1013617" transform="translate(-467.422 -2605.224)">
    <g id="Grupo_1013563" data-name="Grupo 1013563" transform="translate(215.587 2424.714)">
      <rect id="Rectángulo_350140" data-name="Rectángulo 350140" width="136.072" height="136.072" transform="translate(279.413 259.874)" fill="none" stroke="#636363" stroke-linecap="round" stroke-miterlimit="10" stroke-width="3"/>
      <g id="Rectángulo_350141" data-name="Rectángulo 350141" transform="translate(333.341 207.34)" fill="none" stroke="#636363" stroke-miterlimit="10" stroke-width="3">
        <rect width="136.072" height="136.072" stroke="none"/>
        <rect x="-1.5" y="-1.5" width="139.072" height="139.072" fill="none"/>
      </g>
      <path id="Trazado_732164" data-name="Trazado 732164" d="M-.922,54.125,52,0" transform="translate(279.913 205.286)" fill="none" stroke="#636363" stroke-width="3"/>
      <line id="Línea_2941" data-name="Línea 2941" y1="52.534" x2="53.927" transform="translate(415.486 207.34)" fill="none" stroke="#636363" stroke-miterlimit="10" stroke-width="3"/>
      <path id="Trazado_732165" data-name="Trazado 732165" d="M.489,52.936,55.911,1.889" transform="translate(415.486 343.413)" fill="none" stroke="#636363" stroke-width="3"/>
      <line id="Línea_2943" data-name="Línea 2943" y1="52.534" x2="53.927" transform="translate(279.413 343.413)" fill="none" stroke="#636363" stroke-miterlimit="10" stroke-width="3"/>
    </g>
    <path id="Trazado_732224" data-name="Trazado 732224" d="M3.1,8.211H4.344A1.291,1.291,0,0,0,5.82,6.766a1.25,1.25,0,0,0-.352-.918,1.333,1.333,0,0,0-.992-.355,1.427,1.427,0,0,0-.91.3.93.93,0,0,0-.387.758H.547a2.7,2.7,0,0,1,.5-1.6,3.3,3.3,0,0,1,1.387-1.1,4.741,4.741,0,0,1,1.949-.395,4.658,4.658,0,0,1,2.984.867A2.883,2.883,0,0,1,8.453,6.711,2.4,2.4,0,0,1,8,8.1,3.2,3.2,0,0,1,6.7,9.156a3.058,3.058,0,0,1,1.422,1A2.623,2.623,0,0,1,8.633,11.8a2.935,2.935,0,0,1-1.172,2.438,4.864,4.864,0,0,1-3.078.914,5.045,5.045,0,0,1-2.074-.426,3.25,3.25,0,0,1-1.449-1.18,3.067,3.067,0,0,1-.492-1.715H3.016a1.185,1.185,0,0,0,.422.906,1.489,1.489,0,0,0,1.039.383,1.56,1.56,0,0,0,1.109-.387A1.293,1.293,0,0,0,6,11.75a1.511,1.511,0,0,0-.43-1.219,1.8,1.8,0,0,0-1.187-.359H3.1Zm7.828,9.852L9.6,17.438l.266-.531a4.333,4.333,0,0,0,.57-1.937V13.016h2.109l-.008,1.7a4.238,4.238,0,0,1-.461,1.828A4.645,4.645,0,0,1,10.93,18.063ZM22.211,15H14.273V13.281L17.93,9.438a4.364,4.364,0,0,0,1.352-2.445,1.7,1.7,0,0,0-.32-1.117,1.144,1.144,0,0,0-.93-.383A1.158,1.158,0,0,0,17.055,6a2.1,2.1,0,0,0-.375,1.277H14.039a3.736,3.736,0,0,1,.523-1.934,3.671,3.671,0,0,1,1.453-1.387,4.317,4.317,0,0,1,2.078-.5,4.246,4.246,0,0,1,2.84.852,3.04,3.04,0,0,1,1,2.445,3.551,3.551,0,0,1-.25,1.309A5.739,5.739,0,0,1,20.9,9.4a19.581,19.581,0,0,1-1.7,1.871l-1.469,1.7h4.477Zm9-8.336a2.626,2.626,0,0,1-.41,1.461,2.987,2.987,0,0,1-1.129,1.016,3.287,3.287,0,0,1,1.289,1.09,2.812,2.812,0,0,1,.477,1.637,2.977,2.977,0,0,1-1.051,2.406,4.364,4.364,0,0,1-2.895.883,4.443,4.443,0,0,1-2.922-.887,2.956,2.956,0,0,1-1.07-2.4,2.848,2.848,0,0,1,.469-1.617A3.187,3.187,0,0,1,25.3,9.141a3,3,0,0,1-1.141-1.016,2.608,2.608,0,0,1-.414-1.461A2.919,2.919,0,0,1,24.75,4.32a4.051,4.051,0,0,1,2.719-.859A4.076,4.076,0,0,1,30.2,4.32,2.919,2.919,0,0,1,31.211,6.664ZM28.8,11.656a1.5,1.5,0,0,0-.363-1.082,1.265,1.265,0,0,0-.957-.379,1.278,1.278,0,0,0-.961.379,1.492,1.492,0,0,0-.367,1.082,1.5,1.5,0,0,0,.371,1.074,1.274,1.274,0,0,0,.973.395,1.224,1.224,0,0,0,.945-.391A1.532,1.532,0,0,0,28.8,11.656ZM27.469,5.492a.973.973,0,0,0-.809.348,1.509,1.509,0,0,0-.277.965,1.6,1.6,0,0,0,.281.984.97.97,0,0,0,.828.375.931.931,0,0,0,.809-.375,1.65,1.65,0,0,0,.27-.984,1.512,1.512,0,0,0-.277-.961A.986.986,0,0,0,27.469,5.492ZM40.7,10.352a5.431,5.431,0,0,1-1.035,3.555,3.577,3.577,0,0,1-2.918,1.25A3.6,3.6,0,0,1,33.813,13.9a5.423,5.423,0,0,1-1.039-3.547V8.273a5.431,5.431,0,0,1,1.035-3.555,3.586,3.586,0,0,1,2.926-1.25,3.587,3.587,0,0,1,2.93,1.258A5.436,5.436,0,0,1,40.7,8.281ZM38.07,7.938a4.057,4.057,0,0,0-.32-1.832A1.071,1.071,0,0,0,36.734,5.5a1.045,1.045,0,0,0-.988.563,3.822,3.822,0,0,0-.332,1.7v2.906a4.088,4.088,0,0,0,.32,1.863,1.075,1.075,0,0,0,1.016.59,1.06,1.06,0,0,0,.992-.574,3.9,3.9,0,0,0,.328-1.8ZM49.742,6.664a2.626,2.626,0,0,1-.41,1.461A2.987,2.987,0,0,1,48.2,9.141a3.287,3.287,0,0,1,1.289,1.09,2.812,2.812,0,0,1,.477,1.637,2.977,2.977,0,0,1-1.051,2.406,4.364,4.364,0,0,1-2.895.883A4.443,4.443,0,0,1,43.1,14.27a2.956,2.956,0,0,1-1.07-2.4A2.848,2.848,0,0,1,42.5,10.25a3.187,3.187,0,0,1,1.328-1.109,3,3,0,0,1-1.141-1.016,2.608,2.608,0,0,1-.414-1.461A2.919,2.919,0,0,1,43.281,4.32a4.755,4.755,0,0,1,5.453,0A2.919,2.919,0,0,1,49.742,6.664Zm-2.414,4.992a1.5,1.5,0,0,0-.363-1.082,1.265,1.265,0,0,0-.957-.379,1.278,1.278,0,0,0-.961.379,1.492,1.492,0,0,0-.367,1.082,1.5,1.5,0,0,0,.371,1.074,1.274,1.274,0,0,0,.973.395,1.224,1.224,0,0,0,.945-.391A1.532,1.532,0,0,0,47.328,11.656ZM46,5.492a.973.973,0,0,0-.809.348,1.509,1.509,0,0,0-.277.965,1.6,1.6,0,0,0,.281.984.97.97,0,0,0,.828.375.931.931,0,0,0,.809-.375A1.65,1.65,0,0,0,47.1,6.8a1.512,1.512,0,0,0-.277-.961A.986.986,0,0,0,46,5.492Zm12.289,5.063h1.156v2.031H58.289V15H55.656V12.586h-4.4L51.1,10.977l4.555-7.328V3.625h2.633Zm-4.68,0h2.047v-3.5l-.164.266Zm18.867.281a5.1,5.1,0,0,1-.887,3.145A2.843,2.843,0,0,1,69.2,15.156a2.437,2.437,0,0,1-1.914-.852V18.25H64.648V6.547h2.461l.078.781a2.437,2.437,0,0,1,1.992-.937,2.866,2.866,0,0,1,2.43,1.152,5.16,5.16,0,0,1,.867,3.168Zm-2.633-.164q0-2.25-1.312-2.25a1.239,1.239,0,0,0-1.25.672v3.328a1.279,1.279,0,0,0,1.266.7q1.258,0,1.3-2.172ZM76.414,15H73.773V6.547h2.641Zm-2.8-10.641a1.186,1.186,0,0,1,.406-.927,1.719,1.719,0,0,1,2.109,0,1.186,1.186,0,0,1,.406.927,1.186,1.186,0,0,1-.406.927,1.719,1.719,0,0,1-2.109,0A1.186,1.186,0,0,1,73.617,4.359Zm8.508,10.8A4.345,4.345,0,0,1,78.977,14a4.006,4.006,0,0,1-1.2-3.02v-.219a5.191,5.191,0,0,1,.48-2.289,3.516,3.516,0,0,1,1.4-1.535,4.233,4.233,0,0,1,2.188-.543A3.659,3.659,0,0,1,84.656,7.5a4.344,4.344,0,0,1,1.031,3.082V11.6H80.453a1.9,1.9,0,0,0,.617,1.117,1.836,1.836,0,0,0,1.234.406,2.366,2.366,0,0,0,1.953-.875l1.2,1.422a3.363,3.363,0,0,1-1.395,1.082A4.713,4.713,0,0,1,82.125,15.156Zm-.3-6.734q-1.156,0-1.375,1.531h2.656v-.2a1.3,1.3,0,0,0-.32-.98A1.275,1.275,0,0,0,81.828,8.422Zm9.344,4.2a.608.608,0,0,0-.352-.539,5.348,5.348,0,0,0-1.336-.422,6.092,6.092,0,0,1-1.625-.574,2.722,2.722,0,0,1-.977-.863,2.061,2.061,0,0,1-.336-1.164,2.336,2.336,0,0,1,.961-1.918,3.958,3.958,0,0,1,2.516-.754,4.386,4.386,0,0,1,2.688.758,2.37,2.37,0,0,1,1.016,1.992H91.086q0-1.016-1.07-1.016a1.061,1.061,0,0,0-.7.23.714.714,0,0,0-.281.574.655.655,0,0,0,.344.57,3.248,3.248,0,0,0,1.1.359A9.486,9.486,0,0,1,91.8,10.2a2.406,2.406,0,0,1,1.906,2.352,2.214,2.214,0,0,1-1.027,1.883,4.505,4.505,0,0,1-2.66.727,4.6,4.6,0,0,1-1.937-.391A3.24,3.24,0,0,1,86.758,13.7a2.406,2.406,0,0,1-.477-1.414h2.461a1.017,1.017,0,0,0,.391.855,1.607,1.607,0,0,0,.961.27A1.264,1.264,0,0,0,90.9,13.2.7.7,0,0,0,91.172,12.625Z" transform="translate(522 2800)" fill="#12263f"/>
    <path id="Trazado_732225" data-name="Trazado 732225" d="M3.1,8.211H4.344A1.291,1.291,0,0,0,5.82,6.766a1.25,1.25,0,0,0-.352-.918,1.333,1.333,0,0,0-.992-.355,1.427,1.427,0,0,0-.91.3.93.93,0,0,0-.387.758H.547a2.7,2.7,0,0,1,.5-1.6,3.3,3.3,0,0,1,1.387-1.1,4.741,4.741,0,0,1,1.949-.395,4.658,4.658,0,0,1,2.984.867A2.883,2.883,0,0,1,8.453,6.711,2.4,2.4,0,0,1,8,8.1,3.2,3.2,0,0,1,6.7,9.156a3.058,3.058,0,0,1,1.422,1A2.623,2.623,0,0,1,8.633,11.8a2.935,2.935,0,0,1-1.172,2.438,4.864,4.864,0,0,1-3.078.914,5.045,5.045,0,0,1-2.074-.426,3.25,3.25,0,0,1-1.449-1.18,3.067,3.067,0,0,1-.492-1.715H3.016a1.185,1.185,0,0,0,.422.906,1.489,1.489,0,0,0,1.039.383,1.56,1.56,0,0,0,1.109-.387A1.293,1.293,0,0,0,6,11.75a1.511,1.511,0,0,0-.43-1.219,1.8,1.8,0,0,0-1.187-.359H3.1Zm7.828,9.852L9.6,17.438l.266-.531a4.333,4.333,0,0,0,.57-1.937V13.016h2.109l-.008,1.7a4.238,4.238,0,0,1-.461,1.828A4.645,4.645,0,0,1,10.93,18.063ZM22.211,15H14.273V13.281L17.93,9.438a4.364,4.364,0,0,0,1.352-2.445,1.7,1.7,0,0,0-.32-1.117,1.144,1.144,0,0,0-.93-.383A1.158,1.158,0,0,0,17.055,6a2.1,2.1,0,0,0-.375,1.277H14.039a3.736,3.736,0,0,1,.523-1.934,3.671,3.671,0,0,1,1.453-1.387,4.317,4.317,0,0,1,2.078-.5,4.246,4.246,0,0,1,2.84.852,3.04,3.04,0,0,1,1,2.445,3.551,3.551,0,0,1-.25,1.309A5.739,5.739,0,0,1,20.9,9.4a19.581,19.581,0,0,1-1.7,1.871l-1.469,1.7h4.477Zm9-8.336a2.626,2.626,0,0,1-.41,1.461,2.987,2.987,0,0,1-1.129,1.016,3.287,3.287,0,0,1,1.289,1.09,2.812,2.812,0,0,1,.477,1.637,2.977,2.977,0,0,1-1.051,2.406,4.364,4.364,0,0,1-2.895.883,4.443,4.443,0,0,1-2.922-.887,2.956,2.956,0,0,1-1.07-2.4,2.848,2.848,0,0,1,.469-1.617A3.187,3.187,0,0,1,25.3,9.141a3,3,0,0,1-1.141-1.016,2.608,2.608,0,0,1-.414-1.461A2.919,2.919,0,0,1,24.75,4.32a4.051,4.051,0,0,1,2.719-.859A4.076,4.076,0,0,1,30.2,4.32,2.919,2.919,0,0,1,31.211,6.664ZM28.8,11.656a1.5,1.5,0,0,0-.363-1.082,1.265,1.265,0,0,0-.957-.379,1.278,1.278,0,0,0-.961.379,1.492,1.492,0,0,0-.367,1.082,1.5,1.5,0,0,0,.371,1.074,1.274,1.274,0,0,0,.973.395,1.224,1.224,0,0,0,.945-.391A1.532,1.532,0,0,0,28.8,11.656ZM27.469,5.492a.973.973,0,0,0-.809.348,1.509,1.509,0,0,0-.277.965,1.6,1.6,0,0,0,.281.984.97.97,0,0,0,.828.375.931.931,0,0,0,.809-.375,1.65,1.65,0,0,0,.27-.984,1.512,1.512,0,0,0-.277-.961A.986.986,0,0,0,27.469,5.492ZM40.7,10.352a5.431,5.431,0,0,1-1.035,3.555,3.577,3.577,0,0,1-2.918,1.25A3.6,3.6,0,0,1,33.813,13.9a5.423,5.423,0,0,1-1.039-3.547V8.273a5.431,5.431,0,0,1,1.035-3.555,3.586,3.586,0,0,1,2.926-1.25,3.587,3.587,0,0,1,2.93,1.258A5.436,5.436,0,0,1,40.7,8.281ZM38.07,7.938a4.057,4.057,0,0,0-.32-1.832A1.071,1.071,0,0,0,36.734,5.5a1.045,1.045,0,0,0-.988.563,3.822,3.822,0,0,0-.332,1.7v2.906a4.088,4.088,0,0,0,.32,1.863,1.075,1.075,0,0,0,1.016.59,1.06,1.06,0,0,0,.992-.574,3.9,3.9,0,0,0,.328-1.8ZM49.742,6.664a2.626,2.626,0,0,1-.41,1.461A2.987,2.987,0,0,1,48.2,9.141a3.287,3.287,0,0,1,1.289,1.09,2.812,2.812,0,0,1,.477,1.637,2.977,2.977,0,0,1-1.051,2.406,4.364,4.364,0,0,1-2.895.883A4.443,4.443,0,0,1,43.1,14.27a2.956,2.956,0,0,1-1.07-2.4A2.848,2.848,0,0,1,42.5,10.25a3.187,3.187,0,0,1,1.328-1.109,3,3,0,0,1-1.141-1.016,2.608,2.608,0,0,1-.414-1.461A2.919,2.919,0,0,1,43.281,4.32a4.755,4.755,0,0,1,5.453,0A2.919,2.919,0,0,1,49.742,6.664Zm-2.414,4.992a1.5,1.5,0,0,0-.363-1.082,1.265,1.265,0,0,0-.957-.379,1.278,1.278,0,0,0-.961.379,1.492,1.492,0,0,0-.367,1.082,1.5,1.5,0,0,0,.371,1.074,1.274,1.274,0,0,0,.973.395,1.224,1.224,0,0,0,.945-.391A1.532,1.532,0,0,0,47.328,11.656ZM46,5.492a.973.973,0,0,0-.809.348,1.509,1.509,0,0,0-.277.965,1.6,1.6,0,0,0,.281.984.97.97,0,0,0,.828.375.931.931,0,0,0,.809-.375A1.65,1.65,0,0,0,47.1,6.8a1.512,1.512,0,0,0-.277-.961A.986.986,0,0,0,46,5.492Zm12.289,5.063h1.156v2.031H58.289V15H55.656V12.586h-4.4L51.1,10.977l4.555-7.328V3.625h2.633Zm-4.68,0h2.047v-3.5l-.164.266Zm18.867.281a5.1,5.1,0,0,1-.887,3.145A2.843,2.843,0,0,1,69.2,15.156a2.437,2.437,0,0,1-1.914-.852V18.25H64.648V6.547h2.461l.078.781a2.437,2.437,0,0,1,1.992-.937,2.866,2.866,0,0,1,2.43,1.152,5.16,5.16,0,0,1,.867,3.168Zm-2.633-.164q0-2.25-1.312-2.25a1.239,1.239,0,0,0-1.25.672v3.328a1.279,1.279,0,0,0,1.266.7q1.258,0,1.3-2.172ZM76.414,15H73.773V6.547h2.641Zm-2.8-10.641a1.186,1.186,0,0,1,.406-.927,1.719,1.719,0,0,1,2.109,0,1.186,1.186,0,0,1,.406.927,1.186,1.186,0,0,1-.406.927,1.719,1.719,0,0,1-2.109,0A1.186,1.186,0,0,1,73.617,4.359Zm8.508,10.8A4.345,4.345,0,0,1,78.977,14a4.006,4.006,0,0,1-1.2-3.02v-.219a5.191,5.191,0,0,1,.48-2.289,3.516,3.516,0,0,1,1.4-1.535,4.233,4.233,0,0,1,2.188-.543A3.659,3.659,0,0,1,84.656,7.5a4.344,4.344,0,0,1,1.031,3.082V11.6H80.453a1.9,1.9,0,0,0,.617,1.117,1.836,1.836,0,0,0,1.234.406,2.366,2.366,0,0,0,1.953-.875l1.2,1.422a3.363,3.363,0,0,1-1.395,1.082A4.713,4.713,0,0,1,82.125,15.156Zm-.3-6.734q-1.156,0-1.375,1.531h2.656v-.2a1.3,1.3,0,0,0-.32-.98A1.275,1.275,0,0,0,81.828,8.422Zm9.344,4.2a.608.608,0,0,0-.352-.539,5.348,5.348,0,0,0-1.336-.422,6.092,6.092,0,0,1-1.625-.574,2.722,2.722,0,0,1-.977-.863,2.061,2.061,0,0,1-.336-1.164,2.336,2.336,0,0,1,.961-1.918,3.958,3.958,0,0,1,2.516-.754,4.386,4.386,0,0,1,2.688.758,2.37,2.37,0,0,1,1.016,1.992H91.086q0-1.016-1.07-1.016a1.061,1.061,0,0,0-.7.23.714.714,0,0,0-.281.574.655.655,0,0,0,.344.57,3.248,3.248,0,0,0,1.1.359A9.486,9.486,0,0,1,91.8,10.2a2.406,2.406,0,0,1,1.906,2.352,2.214,2.214,0,0,1-1.027,1.883,4.505,4.505,0,0,1-2.66.727,4.6,4.6,0,0,1-1.937-.391A3.24,3.24,0,0,1,86.758,13.7a2.406,2.406,0,0,1-.477-1.414h2.461a1.017,1.017,0,0,0,.391.855,1.607,1.607,0,0,0,.961.27A1.264,1.264,0,0,0,90.9,13.2.7.7,0,0,0,91.172,12.625Z" transform="translate(495 2796) rotate(-90)" fill="#12263f"/>
    <path id="Trazado_732223" data-name="Trazado 732223" d="M3.1,8.211H4.344A1.291,1.291,0,0,0,5.82,6.766a1.25,1.25,0,0,0-.352-.918,1.333,1.333,0,0,0-.992-.355,1.427,1.427,0,0,0-.91.3.93.93,0,0,0-.387.758H.547a2.7,2.7,0,0,1,.5-1.6,3.3,3.3,0,0,1,1.387-1.1,4.741,4.741,0,0,1,1.949-.395,4.658,4.658,0,0,1,2.984.867A2.883,2.883,0,0,1,8.453,6.711,2.4,2.4,0,0,1,8,8.1,3.2,3.2,0,0,1,6.7,9.156a3.058,3.058,0,0,1,1.422,1A2.623,2.623,0,0,1,8.633,11.8a2.935,2.935,0,0,1-1.172,2.438,4.864,4.864,0,0,1-3.078.914,5.045,5.045,0,0,1-2.074-.426,3.25,3.25,0,0,1-1.449-1.18,3.067,3.067,0,0,1-.492-1.715H3.016a1.185,1.185,0,0,0,.422.906,1.489,1.489,0,0,0,1.039.383,1.56,1.56,0,0,0,1.109-.387A1.293,1.293,0,0,0,6,11.75a1.511,1.511,0,0,0-.43-1.219,1.8,1.8,0,0,0-1.187-.359H3.1Zm7.828,9.852L9.6,17.438l.266-.531a4.333,4.333,0,0,0,.57-1.937V13.016h2.109l-.008,1.7a4.238,4.238,0,0,1-.461,1.828A4.645,4.645,0,0,1,10.93,18.063ZM22.211,15H14.273V13.281L17.93,9.438a4.364,4.364,0,0,0,1.352-2.445,1.7,1.7,0,0,0-.32-1.117,1.144,1.144,0,0,0-.93-.383A1.158,1.158,0,0,0,17.055,6a2.1,2.1,0,0,0-.375,1.277H14.039a3.736,3.736,0,0,1,.523-1.934,3.671,3.671,0,0,1,1.453-1.387,4.317,4.317,0,0,1,2.078-.5,4.246,4.246,0,0,1,2.84.852,3.04,3.04,0,0,1,1,2.445,3.551,3.551,0,0,1-.25,1.309A5.739,5.739,0,0,1,20.9,9.4a19.581,19.581,0,0,1-1.7,1.871l-1.469,1.7h4.477Zm9-8.336a2.626,2.626,0,0,1-.41,1.461,2.987,2.987,0,0,1-1.129,1.016,3.287,3.287,0,0,1,1.289,1.09,2.812,2.812,0,0,1,.477,1.637,2.977,2.977,0,0,1-1.051,2.406,4.364,4.364,0,0,1-2.895.883,4.443,4.443,0,0,1-2.922-.887,2.956,2.956,0,0,1-1.07-2.4,2.848,2.848,0,0,1,.469-1.617A3.187,3.187,0,0,1,25.3,9.141a3,3,0,0,1-1.141-1.016,2.608,2.608,0,0,1-.414-1.461A2.919,2.919,0,0,1,24.75,4.32a4.051,4.051,0,0,1,2.719-.859A4.076,4.076,0,0,1,30.2,4.32,2.919,2.919,0,0,1,31.211,6.664ZM28.8,11.656a1.5,1.5,0,0,0-.363-1.082,1.265,1.265,0,0,0-.957-.379,1.278,1.278,0,0,0-.961.379,1.492,1.492,0,0,0-.367,1.082,1.5,1.5,0,0,0,.371,1.074,1.274,1.274,0,0,0,.973.395,1.224,1.224,0,0,0,.945-.391A1.532,1.532,0,0,0,28.8,11.656ZM27.469,5.492a.973.973,0,0,0-.809.348,1.509,1.509,0,0,0-.277.965,1.6,1.6,0,0,0,.281.984.97.97,0,0,0,.828.375.931.931,0,0,0,.809-.375,1.65,1.65,0,0,0,.27-.984,1.512,1.512,0,0,0-.277-.961A.986.986,0,0,0,27.469,5.492ZM40.7,10.352a5.431,5.431,0,0,1-1.035,3.555,3.577,3.577,0,0,1-2.918,1.25A3.6,3.6,0,0,1,33.813,13.9a5.423,5.423,0,0,1-1.039-3.547V8.273a5.431,5.431,0,0,1,1.035-3.555,3.586,3.586,0,0,1,2.926-1.25,3.587,3.587,0,0,1,2.93,1.258A5.436,5.436,0,0,1,40.7,8.281ZM38.07,7.938a4.057,4.057,0,0,0-.32-1.832A1.071,1.071,0,0,0,36.734,5.5a1.045,1.045,0,0,0-.988.563,3.822,3.822,0,0,0-.332,1.7v2.906a4.088,4.088,0,0,0,.32,1.863,1.075,1.075,0,0,0,1.016.59,1.06,1.06,0,0,0,.992-.574,3.9,3.9,0,0,0,.328-1.8ZM49.742,6.664a2.626,2.626,0,0,1-.41,1.461A2.987,2.987,0,0,1,48.2,9.141a3.287,3.287,0,0,1,1.289,1.09,2.812,2.812,0,0,1,.477,1.637,2.977,2.977,0,0,1-1.051,2.406,4.364,4.364,0,0,1-2.895.883A4.443,4.443,0,0,1,43.1,14.27a2.956,2.956,0,0,1-1.07-2.4A2.848,2.848,0,0,1,42.5,10.25a3.187,3.187,0,0,1,1.328-1.109,3,3,0,0,1-1.141-1.016,2.608,2.608,0,0,1-.414-1.461A2.919,2.919,0,0,1,43.281,4.32a4.755,4.755,0,0,1,5.453,0A2.919,2.919,0,0,1,49.742,6.664Zm-2.414,4.992a1.5,1.5,0,0,0-.363-1.082,1.265,1.265,0,0,0-.957-.379,1.278,1.278,0,0,0-.961.379,1.492,1.492,0,0,0-.367,1.082,1.5,1.5,0,0,0,.371,1.074,1.274,1.274,0,0,0,.973.395,1.224,1.224,0,0,0,.945-.391A1.532,1.532,0,0,0,47.328,11.656ZM46,5.492a.973.973,0,0,0-.809.348,1.509,1.509,0,0,0-.277.965,1.6,1.6,0,0,0,.281.984.97.97,0,0,0,.828.375.931.931,0,0,0,.809-.375A1.65,1.65,0,0,0,47.1,6.8a1.512,1.512,0,0,0-.277-.961A.986.986,0,0,0,46,5.492Zm12.289,5.063h1.156v2.031H58.289V15H55.656V12.586h-4.4L51.1,10.977l4.555-7.328V3.625h2.633Zm-4.68,0h2.047v-3.5l-.164.266Zm18.867.281a5.1,5.1,0,0,1-.887,3.145A2.843,2.843,0,0,1,69.2,15.156a2.437,2.437,0,0,1-1.914-.852V18.25H64.648V6.547h2.461l.078.781a2.437,2.437,0,0,1,1.992-.937,2.866,2.866,0,0,1,2.43,1.152,5.16,5.16,0,0,1,.867,3.168Zm-2.633-.164q0-2.25-1.312-2.25a1.239,1.239,0,0,0-1.25.672v3.328a1.279,1.279,0,0,0,1.266.7q1.258,0,1.3-2.172ZM76.414,15H73.773V6.547h2.641Zm-2.8-10.641a1.186,1.186,0,0,1,.406-.927,1.719,1.719,0,0,1,2.109,0,1.186,1.186,0,0,1,.406.927,1.186,1.186,0,0,1-.406.927,1.719,1.719,0,0,1-2.109,0A1.186,1.186,0,0,1,73.617,4.359Zm8.508,10.8A4.345,4.345,0,0,1,78.977,14a4.006,4.006,0,0,1-1.2-3.02v-.219a5.191,5.191,0,0,1,.48-2.289,3.516,3.516,0,0,1,1.4-1.535,4.233,4.233,0,0,1,2.188-.543A3.659,3.659,0,0,1,84.656,7.5a4.344,4.344,0,0,1,1.031,3.082V11.6H80.453a1.9,1.9,0,0,0,.617,1.117,1.836,1.836,0,0,0,1.234.406,2.366,2.366,0,0,0,1.953-.875l1.2,1.422a3.363,3.363,0,0,1-1.395,1.082A4.713,4.713,0,0,1,82.125,15.156Zm-.3-6.734q-1.156,0-1.375,1.531h2.656v-.2a1.3,1.3,0,0,0-.32-.98A1.275,1.275,0,0,0,81.828,8.422Zm9.344,4.2a.608.608,0,0,0-.352-.539,5.348,5.348,0,0,0-1.336-.422,6.092,6.092,0,0,1-1.625-.574,2.722,2.722,0,0,1-.977-.863,2.061,2.061,0,0,1-.336-1.164,2.336,2.336,0,0,1,.961-1.918,3.958,3.958,0,0,1,2.516-.754,4.386,4.386,0,0,1,2.688.758,2.37,2.37,0,0,1,1.016,1.992H91.086q0-1.016-1.07-1.016a1.061,1.061,0,0,0-.7.23.714.714,0,0,0-.281.574.655.655,0,0,0,.344.57,3.248,3.248,0,0,0,1.1.359A9.486,9.486,0,0,1,91.8,10.2a2.406,2.406,0,0,1,1.906,2.352,2.214,2.214,0,0,1-1.027,1.883,4.505,4.505,0,0,1-2.66.727,4.6,4.6,0,0,1-1.937-.391A3.24,3.24,0,0,1,86.758,13.7a2.406,2.406,0,0,1-.477-1.414h2.461a1.017,1.017,0,0,0,.391.855,1.607,1.607,0,0,0,.961.27A1.264,1.264,0,0,0,90.9,13.2.7.7,0,0,0,91.172,12.625Z" transform="translate(464.926 2671.678) rotate(-47)" fill="#12263f"/>
  </g>
</svg>
