<svg xmlns="http://www.w3.org/2000/svg" width="812" height="501.48" viewBox="0 0 812 501.48">
  <g id="Grupo_1016006" data-name="Grupo 1016006" transform="translate(-596 -2750.682)">
    <rect id="dylan-shaw-UxyWwU6n_ts-unsplash" width="812" height="501.48" transform="translate(596 2750.682)" fill="#d2e1f1"/>
    <g id="Rectángulo_350619" data-name="Rectángulo 350619" transform="translate(616.408 2779.164)" fill="none" stroke="#fff" stroke-width="3">
      <rect width="763.711" height="445.51" stroke="none"/>
      <rect x="1.5" y="1.5" width="760.711" height="442.51" fill="none"/>
    </g>
    <g id="Grupo_1015771" data-name="Grupo 1015771" transform="translate(24.432 201.926)">
      <g id="Grupo_1015401" data-name="Grupo 1015401" transform="translate(623.734 2523.03)">
        <g id="_1" data-name="1" transform="translate(15.834 95.725)">
          <path id="Trazado_736707" data-name="Trazado 736707" d="M590.169,388.8a24.133,24.133,0,1,1-24.133-24.133A24.133,24.133,0,0,1,590.169,388.8Z" transform="translate(-94.712 -136.05)" fill="#6eafdb"/>
          <path id="Trazado_736708" data-name="Trazado 736708" d="M590.169,388.8a24.133,24.133,0,1,1-24.133-24.133A24.133,24.133,0,0,1,590.169,388.8Z" transform="translate(-94.712 -136.05)" fill="#6eafdb"/>
          <path id="Trazado_736709" data-name="Trazado 736709" d="M437.5,95.725a68.558,68.558,0,1,0,68.558,68.558A68.561,68.561,0,0,0,437.5,95.725Zm44.127,112.684A62.408,62.408,0,1,1,499.9,164.283,62.2,62.2,0,0,1,481.623,208.409Z" transform="translate(-68.778 -95.725)" fill="#034b8d"/>
          <path id="Trazado_736710" data-name="Trazado 736710" d="M734.108,284.292a55.026,55.026,0,1,0,55.024,55.025A55.025,55.025,0,0,0,734.108,284.292Zm34.556,89.584a48.875,48.875,0,1,1,14.313-34.558A48.7,48.7,0,0,1,768.664,373.876Z" transform="translate(-115.28 -123.998)" fill="#034b8d"/>
          <path id="Trazado_736711" data-name="Trazado 736711" d="M250.842,419.4a21.054,21.054,0,1,1-21.053-21.054A21.054,21.054,0,0,1,250.842,419.4Z" transform="translate(-44.757 -141.099)" fill="#b1d4ec"/>
          <path id="Trazado_736712" data-name="Trazado 736712" d="M584.857,257.741a63.962,63.962,0,1,1-63.96-63.965A63.961,63.961,0,0,1,584.857,257.741Z" transform="translate(-81.971 -110.427)" fill="#b8d8ed"/>
          <path id="Trazado_736713" data-name="Trazado 736713" d="M287.309,183.858a54.188,54.188,0,1,1-54.187-54.189A54.188,54.188,0,0,1,287.309,183.858Z" transform="translate(-40.289 -100.814)" fill="#bcdaee"/>
          <path id="Trazado_736714" data-name="Trazado 736714" d="M55.635,201.586a39.8,39.8,0,1,0,39.8,39.8A39.8,39.8,0,0,0,55.635,201.586Zm23.79,63.591a33.645,33.645,0,1,1,9.854-23.791A33.526,33.526,0,0,1,79.425,265.177Z" transform="translate(-15.834 -111.598)" fill="#6eafdb"/>
          <path id="Trazado_736715" data-name="Trazado 736715" d="M279.748,359.909a58.571,58.571,0,1,0,58.569,58.572A58.573,58.573,0,0,0,279.748,359.909Zm37.063,95.634a52.414,52.414,0,1,1,15.351-37.062A52.236,52.236,0,0,1,316.81,455.543Z" transform="translate(-46.622 -135.336)" fill="#1e72a0"/>
          <path id="Trazado_736716" data-name="Trazado 736716" d="M732.9,163.5A32.794,32.794,0,1,1,700.1,130.7,32.793,32.793,0,0,1,732.9,163.5Z" transform="translate(-113.515 -100.97)" fill="#6eafdb"/>
          <circle id="Elipse_9029" data-name="Elipse 9029" cx="100.839" cy="100.839" r="100.839" transform="matrix(0.019, -1, 1, 0.019, 164.309, 263.975)" fill="#2571a9"/>
          <path id="Trazado_736717" data-name="Trazado 736717" d="M283.655,359.909a58.313,58.313,0,0,0-36.42,12.717q2.235,2.175,4.606,4.207a52.425,52.425,0,0,1,80.894,23.23c2.068-.311,4.108-.7,6.132-1.137A58.588,58.588,0,0,0,283.655,359.909Z" transform="translate(-50.53 -135.336)" fill="#054c77"/>
          <path id="Trazado_736718" data-name="Trazado 736718" d="M217.523,240.335a54.21,54.21,0,0,0,73.071-66.1A100.989,100.989,0,0,0,217.523,240.335Z" transform="translate(-46.075 -107.497)" fill="#085e95"/>
          <circle id="Elipse_9030" data-name="Elipse 9030" cx="75.521" cy="75.521" r="75.521" transform="translate(288.062 221.661) rotate(-22.337)" fill="#2f8bc3"/>
          <path id="Trazado_736719" data-name="Trazado 736719" d="M473.518,316.125a63.831,63.831,0,0,0,49.866,23.92c.939,0,1.87-.031,2.8-.071A75.281,75.281,0,0,0,473.518,316.125Z" transform="translate(-84.458 -128.771)" fill="#126db0"/>
          <path id="Trazado_736720" data-name="Trazado 736720" d="M541.9,389.722a24.112,24.112,0,0,0,14.02,21.887,76.177,76.177,0,0,0,.928-11.827,75.266,75.266,0,0,0-5.771-28.977A24.07,24.07,0,0,0,541.9,389.722Z" transform="translate(-94.712 -136.97)" fill="#126db0"/>
          <path id="Trazado_736721" data-name="Trazado 736721" d="M382.222,384.892a101.049,101.049,0,0,0,53.124-64.984A75.572,75.572,0,0,0,382.222,384.892Z" transform="translate(-70.77 -129.339)" fill="#086091"/>
          <circle id="Elipse_9031" data-name="Elipse 9031" cx="75.084" cy="75.084" r="75.084" transform="translate(1.662 269.36) rotate(-76.748)" fill="#034b8d"/>
          <path id="Trazado_736722" data-name="Trazado 736722" d="M92.854,261.623a33.639,33.639,0,0,1-35.26,21.971q-2.386,2.647-4.52,5.514a39.829,39.829,0,0,0,46.709-29.1Q96.258,260.656,92.854,261.623Z" transform="translate(-21.418 -120.358)" fill="#032c66"/>
          <path id="Trazado_736723" data-name="Trazado 736723" d="M517.766,193.874a64.214,64.214,0,0,0-6.465.657,62.42,62.42,0,0,1-51.927,46.277,64.107,64.107,0,0,0-1.4,6.381A68.587,68.587,0,0,0,517.766,193.874Z" transform="translate(-82.127 -110.441)" fill="#023563"/>
          <path id="Trazado_736724" data-name="Trazado 736724" d="M432.63,244.962c-.62-2.146-1.288-4.27-2.046-6.354a62.375,62.375,0,0,1-55.372-58.378c-2.041-.869-4.128-1.652-6.237-2.386A68.538,68.538,0,0,0,432.63,244.962Z" transform="translate(-68.783 -108.038)" fill="#02305e"/>
          <path id="Trazado_736725" data-name="Trazado 736725" d="M699.694,247.647a82.941,82.941,0,1,1-82.942-82.941A82.942,82.942,0,0,1,699.694,247.647Z" transform="translate(-93.498 -106.068)" fill="#1d6ca6"/>
          <path id="Trazado_736726" data-name="Trazado 736726" d="M700.114,202.421a32.983,32.983,0,0,0,5.224-.419,83.188,83.188,0,0,0-37.958-30.409A32.792,32.792,0,0,0,700.114,202.421Z" transform="translate(-113.526 -107.101)" fill="#085e9e"/>
          <path id="Trazado_736727" data-name="Trazado 736727" d="M554.193,198.254a82.867,82.867,0,0,0,7.927,116.8,63.969,63.969,0,0,0-7.927-116.8Z" transform="translate(-93.498 -111.098)" fill="#085e9d"/>
          <path id="Trazado_736728" data-name="Trazado 736728" d="M202.022,209.946a29.248,29.248,0,1,1-29.248-29.25A29.248,29.248,0,0,1,202.022,209.946Z" transform="translate(-34.98 -108.465)" fill="#034b8d"/>
          <path id="Trazado_736729" data-name="Trazado 736729" d="M180,180.778a54.214,54.214,0,0,0,17.2,51.3,29.237,29.237,0,0,0-17.2-51.3Z" transform="translate(-40.289 -108.478)" fill="#013266"/>
          <path id="Trazado_736730" data-name="Trazado 736730" d="M679.125,338.288q3.308-1.859,6.425-4a48.861,48.861,0,0,1,31.035-40.205c.851-2.365,1.6-4.777,2.241-7.237A55.032,55.032,0,0,0,679.125,338.288Z" transform="translate(-115.287 -124.381)" fill="#03335b"/>
          <path id="Trazado_736731" data-name="Trazado 736731" d="M667.542,425.723a29.99,29.99,0,1,1-29.989-29.991A29.99,29.99,0,0,1,667.542,425.723Z" transform="translate(-104.557 -140.707)" fill="#034b8d"/>
          <path id="Trazado_736732" data-name="Trazado 736732" d="M805.166,259.929a14.843,14.843,0,1,1-14.842-14.843A14.841,14.841,0,0,1,805.166,259.929Z" transform="translate(-129.734 -118.12)" fill="#10699a"/>
          <path id="Trazado_736733" data-name="Trazado 736733" d="M227.329,424.244a52.151,52.151,0,0,1,6.764-25.747,20.235,20.235,0,0,0-7.163.4,58.73,58.73,0,0,0-3.988,39.655,20.892,20.892,0,0,0,6.923,1.812A52.371,52.371,0,0,1,227.329,424.244Z" transform="translate(-46.622 -141.099)" fill="#114d79"/>
          <path id="Trazado_736734" data-name="Trazado 736734" d="M131.151,176.71A14.406,14.406,0,1,1,116.746,162.3,14.407,14.407,0,0,1,131.151,176.71Z" transform="translate(-28.804 -105.708)" fill="#1f6da7"/>
        </g>
        <g id="_2" data-name="2" transform="translate(36.456 127.25)">
          <path id="Trazado_736735" data-name="Trazado 736735" d="M456.418,391.994c-1.687,2.83-10.814,18.639,8.612,23.058C464.288,414,452.948,411.291,456.418,391.994Zm-30.075-35.041.49,3.431,9.017,63.125.368,2.581h23.427l-.071,13.778L449.705,430l-6.141,6.139,20.311,20.311,6.141-6.141,14.168-14.17-6.14-6.14-9.789,9.786.074-13.7h23.2l.371-2.581,9.017-63.125.49-3.431Zm37.536,61.119c-8.487,0-14.977-6.885-15.376-15.354-.489-10.631,15.376-24.442,15.376-24.442s15.643,13.185,15.377,24.442A15.49,15.49,0,0,1,463.879,418.072Zm29.03-44.142c-20.3,5.217-30.34-13.082-58.016.377l-1.619-11.343h61.2Z" transform="translate(-98.007 -166.418)" fill="#fff"/>
          <path id="Trazado_736736" data-name="Trazado 736736" d="M115.355,359.355a15.012,15.012,0,0,0,14.9-14.884c.259-10.911-14.9-23.692-14.9-23.692s-15.379,13.389-14.906,23.692C100.835,352.682,107.127,359.355,115.355,359.355Zm-7.234-25.278c-3.364,18.7,7.629,21.333,8.348,22.349C97.641,352.145,106.487,336.819,108.121,334.077Zm39.583-26.92a46.151,46.151,0,0,0-78.571,36.8l11.738-1.052A34.444,34.444,0,1,1,92.8,365.935l8.439-8.452L73.36,354.865l2.665,27.873,8.416-8.43a46.148,46.148,0,0,0,63.263-67.15Z" transform="translate(-44.419 -156.929)" fill="#fff"/>
          <path id="Trazado_736737" data-name="Trazado 736737" d="M679.85,220.091s-2.331-2.157-16.01,6.8a9.778,9.778,0,0,0-6.355-2.383H633.335a9.891,9.891,0,0,0-9.879,9.875v24.154a9.892,9.892,0,0,0,9.879,9.878h24.149a9.892,9.892,0,0,0,9.881-9.878V234.385a9.627,9.627,0,0,0-.562-3.121C678.859,220.139,679.85,220.091,679.85,220.091Zm-18.991,38.447a3.377,3.377,0,0,1-3.374,3.373H633.335a3.38,3.38,0,0,1-3.378-3.373V234.385a3.383,3.383,0,0,1,3.378-3.373h24.149a3.3,3.3,0,0,1,.523.107,65.148,65.148,0,0,0-13.975,15.5L632.275,233.94s8.435,17.458,14.911,25.294a77.577,77.577,0,0,1,13.672-21.827Zm-42.411,0V234.385a14.9,14.9,0,0,1,9.565-13.882,164.373,164.373,0,0,0-13.941-13.678s-38.833,33.809-37.639,59.826c.975,20.733,16.864,37.586,37.639,37.586,18.473,0,33.443-13.29,36.885-30.81H633.335A14.907,14.907,0,0,1,618.447,258.537ZM595.8,240.4c-8.495,47.235,19.267,53.868,21.081,56.434C569.337,286.027,591.678,247.327,595.8,240.4Z" transform="translate(-120.507 -143.909)" fill="#fff"/>
          <path id="Trazado_736738" data-name="Trazado 736738" d="M678.914,179.02h5.992V161.3h-5.992Zm2.94-16.06a1.331,1.331,0,1,1-1.331,1.331A1.332,1.332,0,0,1,681.854,162.96Zm0,5.866a1.332,1.332,0,1,1-1.331,1.332A1.332,1.332,0,0,1,681.854,168.826Zm0,5.867a1.331,1.331,0,1,1-1.331,1.331A1.331,1.331,0,0,1,681.854,174.694Zm10.957-22.472h7.056v2.48H703.8v-2.48h7.056a1.7,1.7,0,1,0,0-3.409H692.812a1.7,1.7,0,1,0,0,3.409Zm15.8,6.509h.62a1.395,1.395,0,1,0,0-2.79H694.444a1.395,1.395,0,0,0,0,2.79h.621v5.075H686.7v12.707h7.843a7.974,7.974,0,0,0,7.189,4.533c.037,0,.073,0,.108,0s.072,0,.109,0a7.972,7.972,0,0,0,7.189-4.533h7.842V163.805h-8.367Zm10.158,2.565V179.02h5.992V161.3Zm3.051,16.06a1.331,1.331,0,1,1,1.332-1.331A1.33,1.33,0,0,1,721.817,177.356Zm0-5.866a1.332,1.332,0,1,1,1.332-1.331A1.331,1.331,0,0,1,721.817,171.49Zm0-5.867a1.331,1.331,0,1,1,1.332-1.331A1.331,1.331,0,0,1,721.817,165.623Zm-19.873-19.29c-.036,0-.072.007-.109.01s-.071-.01-.108-.01a1.7,1.7,0,0,0-1.689,1.55h3.595A1.7,1.7,0,0,0,701.944,146.333Z" transform="translate(-135.877 -134.838)" fill="#fff"/>
          <path id="Trazado_736739" data-name="Trazado 736739" d="M739.116,316.244a22.462,22.462,0,0,0-22.41,21.421h14.548a7.937,7.937,0,0,1,7.862-6.914H766.1V316.244ZM734.56,339.69H712.8v6.071H734.56Zm-10.093,21.07c6.13,9.981,17.125,8.826,21.787.282,4.311,5.111,17.239,6.308,18.916-3.059-5.029,6.244-14.6,5.393-18.916.285-4.662,8.331-15.657,9.55-21.787-.285-5.027,6.244-14.6,5.393-18.913.285C707.47,366.214,719.44,367,724.467,360.759Zm-2.106-7.933a1.856,1.856,0,1,0-1.855,1.855A1.855,1.855,0,0,0,722.36,352.826Zm6.957,2.869a.885.885,0,1,0-.885.884A.886.886,0,0,0,729.317,355.7Zm-4.761-.4.627,1.008c.145.235.3.458.448.679v-9.888h-1.517v8.75Zm6.069,6.308V347.091h-1.519v7.25a1.508,1.508,0,0,1,0,2.707v3.595c.322.235.647.459.978.656C730.262,361.406,730.443,361.5,730.626,361.6Zm-7.49-14.509h-1.516v3.094a2.876,2.876,0,0,1,1.516,1.5Zm4.992,7.117v-7.117h-1.516V358.27a15.164,15.164,0,0,0,1.4,1.472h.118v-2.561a1.517,1.517,0,0,1,0-2.974Zm-4.992-.246a2.882,2.882,0,0,1-1.516,1.507v2.8a10.779,10.779,0,0,0,1.516-1.3Zm-2.5-4v-2.876h-1.516v3.225a2.831,2.831,0,0,1,1.383-.358C720.551,349.958,720.595,349.964,720.639,349.967Zm-2.5-2.876h-1.519v13.1a12.15,12.15,0,0,0,1.519-.3V354.45a2.863,2.863,0,0,1,0-3.247Zm.979,8.244v4.249c.22-.081.442-.168.656-.265.293-.128.578-.277.86-.434v-3.2c-.044,0-.088.008-.133.008A2.833,2.833,0,0,1,719.122,355.335Zm27.411,9.68c-4.927,8.331-16.545,9.55-23.019-.286-5.312,6.248-15.432,5.395-19.986.286,2.025,7.946,14.674,8.735,19.986,2.492,6.474,9.981,18.092,8.827,23.019.282,4.555,5.112,18.215,6.309,19.984-3.059C761.207,370.977,751.088,370.123,746.534,365.015Z" transform="translate(-139.567 -160.315)" fill="#034b8d" fill-rule="evenodd"/>
          <path id="Trazado_736740" data-name="Trazado 736740" d="M253.745,277.951h29.727V252.1H253.745Zm71.782-3.354h2.482a8.706,8.706,0,0,1,8.716,8.7v1.923h19.214V264.75a10.885,10.885,0,0,0-10.9-10.874H325.527Zm44.629,19.8-2.99,34.379H324.412L321.422,294.4l-6.469.564,3.5,40.307h54.664l3.5-40.307Zm-48.432-12.764V246.756a2.365,2.365,0,0,0-2.366-2.364h-10.57v-8.3h5.544a8.546,8.546,0,1,0,0-10.424H294.477a8.546,8.546,0,1,0,0,10.424h5.546v8.3H289.454a2.364,2.364,0,0,0-2.366,2.364v34.875A2.367,2.367,0,0,0,289.454,284h29.9A2.368,2.368,0,0,0,321.724,281.631Zm20.871,16.549a2.047,2.047,0,1,0-2.047-2.048A2.048,2.048,0,0,0,342.594,298.18Zm11.161-10.605h-1.673V297.8a1.664,1.664,0,0,1,0,2.985V304.3c-.047.045-.094.088-.139.134H351v-3.5a1.675,1.675,0,0,1,0-3.282V287.574h-1.675v16.862H348.25V287.574h-1.675v16.862H345.5v-7.05a3.168,3.168,0,0,1-1.674,1.658v5.392h-1.079v-5.151c-.049,0-.1.009-.149.009a3.156,3.156,0,0,1-1.526-.394v5.536h-.76c-.1-.105-.213-.206-.319-.307v-6.207a3.151,3.151,0,0,1,0-3.58v-6.768h-1.676v15.174c-2.291-1.573-4.639-1.688-4.908,4.107-.005.094-.009.176-.013.269h-7.055l1.641,18.4H363.6l1.4-18.4h-6.143c0-.093-.008-.174-.013-.269-.275-5.947-2.742-5.667-5.09-3.98Zm-8.26,7.3v-7.3h-1.674v5.644A3.171,3.171,0,0,1,345.5,294.878Zm-2.752-1.9v-5.4h-1.675v5.789a3.136,3.136,0,0,1,1.526-.393C342.644,292.971,342.694,292.975,342.743,292.976Zm7.618,6.319a.976.976,0,1,0,.976-.977A.976.976,0,0,0,350.361,299.3Z" transform="translate(-72.128 -146.234)" fill="#fff" fill-rule="evenodd"/>
          <path id="Trazado_736741" data-name="Trazado 736741" d="M302.648,413.071v-13.6l1.517-1.767a1.231,1.231,0,0,0-.934-2.033H287.7a1.231,1.231,0,0,0-.934,2.033l1.517,1.767v13.6a21.574,21.574,0,1,0,14.364,0Zm-22.573,27.707a.479.479,0,1,1,.48-.478A.478.478,0,0,1,280.076,440.778Zm6.228,9.74a1.756,1.756,0,1,1,1.757-1.755A1.756,1.756,0,0,1,286.3,450.518Zm3.674-6.705a.639.639,0,1,1,.638-.638A.638.638,0,0,1,289.977,443.813Zm4.071,8.623a3.114,3.114,0,1,1,3.114-3.115A3.115,3.115,0,0,1,294.048,452.436ZM297,446.367a1.117,1.117,0,1,1,1.117-1.117A1.117,1.117,0,0,1,297,446.367Zm4.711,5.428a1.677,1.677,0,1,1,1.676-1.675A1.676,1.676,0,0,1,301.713,451.8Zm-.878-12.135a.479.479,0,1,1,.479.479A.48.48,0,0,1,300.835,439.66Zm2.4,3.514a.958.958,0,1,1,.957-.959A.959.959,0,0,1,303.231,443.174Zm3.433,5.429a1.039,1.039,0,1,1,1.037-1.039A1.037,1.037,0,0,1,306.663,448.6Zm-30.314-15.755a19.137,19.137,0,0,1,14.421-17.992v-2.5l-.024.006V399.012a1.234,1.234,0,0,0-.3-.8l-.068-.079h10.17l-.068.079a1.234,1.234,0,0,0-.3.8v13.349l-.018-.005v2.5a19.143,19.143,0,0,1,14.415,17.992Zm34.945,6.332a.4.4,0,1,1,.4-.4A.4.4,0,0,1,311.294,439.181Zm-41.97-43.514H253.56a1.248,1.248,0,0,0-.946,2.062l1.539,1.8,0,18.366h7.722v1.836h-7.722v4.589h7.723v1.838h-7.723v4.59h7.723v1.837h-7.723l0,15.027a7.294,7.294,0,0,0,14.589,0l-.005-48.083,1.54-1.8a1.249,1.249,0,0,0-.948-2.062Zm-2.792,2.581a1.26,1.26,0,0,0-.3.815l.009,16.539h-9.6v-2.3h5.229v-1.837h-5.227l0-4.589h5.224v-1.837H256.65l0-5.973a1.247,1.247,0,0,0-.3-.815l-.071-.081H266.6Z" transform="translate(-71.913 -172.223)" fill="#1e72a0"/>
          <path id="Trazado_736742" data-name="Trazado 736742" d="M254.476,421.868v4.589h2.547a21.139,21.139,0,0,0,.66-4.589Zm2.948-4.125h-.456v-2.106a20.93,20.93,0,0,0-2.492-5.689v10.083h3.195A21.094,21.094,0,0,0,257.424,417.743Zm-2.949,14.59a20.991,20.991,0,0,0,1.976-4.038h-1.976Z" transform="translate(-72.237 -174.364)" fill="#114d79"/>
          <path id="Trazado_736743" data-name="Trazado 736743" d="M309.256,395.667h-15.53a1.231,1.231,0,0,0-.934,2.033l1.517,1.767v2.557q1.225.381,2.463.732v-3.745a1.233,1.233,0,0,0-.3-.8l-.068-.079h10.17l-.068.079a1.234,1.234,0,0,0-.3.8v5.93q1.227.222,2.463.415v-5.889l1.517-1.767a1.231,1.231,0,0,0-.934-2.033Z" transform="translate(-77.938 -172.223)" fill="#054c77"/>
          <path id="Trazado_736744" data-name="Trazado 736744" d="M192.446,224.755l-4.521-4.516A11.932,11.932,0,0,0,171.4,203.39l0,0q-.354.256-.689.539a.073.073,0,0,0-.014.012c-.219.184-.432.378-.638.579l-.02.02c-.2.2-.4.4-.587.617l-.022.026q-.142.159-.276.324l-.008.008c-.086.107-.172.215-.254.325l-.022.028c-.083.111-.165.222-.245.337a.41.41,0,0,0-.025.035q-.114.161-.221.328a.112.112,0,0,1-.017.024c-.073.116-.145.231-.216.349l-.032.054c-.066.114-.133.23-.2.345l-.007.013c-.065.119-.129.24-.19.36-.01.024-.023.046-.034.071-.12.241-.23.487-.334.735-.01.028-.023.055-.034.082-.049.123-.1.247-.143.372,0,.013-.009.026-.014.038-.041.116-.081.23-.118.348-.011.029-.02.058-.031.086-.039.127-.077.252-.113.379l-.019.071c-.031.11-.059.224-.086.337-.008.029-.015.056-.021.086-.031.128-.059.255-.084.386-.006.029-.013.06-.018.089-.022.112-.043.227-.061.341l-.013.078c-.02.131-.038.262-.054.394,0,.035-.008.069-.011.1-.014.12-.025.24-.037.361,0,.019,0,.037-.005.058-.009.134-.018.269-.025.4,0,.037,0,.074,0,.108-.005.134-.009.268-.009.4v.014c0,.1,0,.2,0,.3l0,.065c0,.076,0,.15.008.228,0,.031,0,.062.005.094.005.065.008.133.013.2,0,.034.007.07.008.1.005.062.011.123.017.184,0,.037.007.073.011.111.007.06.014.12.02.179.005.037.009.072.015.11.007.059.015.119.025.179,0,.036.01.071.017.108.008.06.019.12.028.179.008.036.013.069.018.1.013.063.025.125.037.187.006.031.012.062.018.1.015.07.03.139.047.209.005.023.009.045.015.068.043.185.089.369.143.551q.01.04.023.079c.019.065.036.128.056.191l.032.1c.016.057.036.113.054.169.011.036.024.071.036.106.019.053.038.105.057.159.013.036.025.072.04.109s.037.1.058.153.028.072.043.11.041.1.061.15.031.072.047.109.043.1.065.149c.016.034.031.071.048.107l.07.15c.017.033.032.068.048.1.027.054.054.107.08.161.014.028.03.057.044.087.042.082.084.162.128.241.01.02.02.039.033.06.031.06.065.121.1.18.02.035.039.067.059.1s.054.092.082.137.043.072.066.107.051.084.078.126.048.074.071.111.053.079.078.118.05.076.076.112.052.077.08.114.053.075.08.112.052.073.08.109.054.076.083.112.054.071.081.105.058.076.088.112.053.067.081.1l.091.111c.026.031.054.062.079.094s.065.077.1.115l.043.051c.082.092.164.183.246.271l.066.071c.037.04.075.078.114.116l.076.079c.039.038.077.075.115.113s.053.051.08.077.078.073.116.111l.082.075c.039.037.078.074.12.109l.08.072.125.108.08.067c.043.037.087.073.129.107.026.023.052.043.077.062.045.037.091.074.138.11l.067.053.149.113c.014.009.027.02.042.03.254.187.516.366.786.532l.05.032.168.1.066.039c.054.032.11.063.165.094l.072.04c.054.031.109.06.166.09l.071.038c.056.03.113.058.17.086l.07.037.177.085c.021.009.041.019.062.029l.186.086.046.02a11.909,11.909,0,0,0,1.176.446l.031.011.21.064.055.016.2.057.064.018c.067.017.133.035.2.05l.067.017c.068.017.135.031.2.048l.065.014.207.044.055.01c.073.014.147.029.221.042l.034.005a12.109,12.109,0,0,0,2.016.171,11.886,11.886,0,0,0,7.472-2.637l4.482,4.48a1.48,1.48,0,0,0,2.1-2.087ZM178.4,222.038h-.006a8.95,8.95,0,0,1-6.338-2.624l-.007-.008c-.059-.058-.116-.118-.173-.178-.08-.084-.156-.168-.232-.254l-.06-.069a8.943,8.943,0,0,1-2.168-5.845c0-.111,0-.223.006-.334,0-.022,0-.046,0-.069.005-.108.012-.214.02-.32,0-.02,0-.039.006-.058.008-.1.018-.2.031-.3,0-.014,0-.028,0-.043.014-.105.029-.21.046-.315,0-.023.008-.045.012-.07.018-.1.037-.207.057-.312a.2.2,0,0,1,.009-.032c.02-.1.042-.194.065-.29a.5.5,0,0,0,.014-.059c.026-.1.053-.2.082-.3.006-.02.013-.04.018-.06.03-.1.059-.2.093-.293l.005-.015c.034-.1.069-.2.107-.3a.479.479,0,0,1,.024-.061c.037-.1.075-.192.115-.288l.02-.042c.04-.089.08-.178.12-.264l.019-.04c.045-.094.092-.186.14-.278l.028-.054c.049-.093.1-.185.152-.276l.005-.009c.052-.088.105-.178.162-.265l.028-.045c.054-.088.111-.175.171-.261a.33.33,0,0,0,.027-.04c.059-.084.118-.168.18-.252l.008-.011q.1-.128.194-.25c.013-.015.023-.03.034-.043.067-.082.135-.163.2-.243l.016-.018c.068-.077.138-.154.207-.228l.025-.025c.072-.077.147-.152.221-.227l.034-.032c.155-.151.313-.3.479-.436l.031-.027c.082-.068.166-.136.25-.2a.273.273,0,0,0,.023-.02c.087-.065.173-.13.26-.193l.008-.006c.088-.062.179-.125.269-.184l.036-.023c.184-.121.372-.235.566-.343l.025-.014c.094-.053.19-.1.29-.152l.031-.015c.2-.1.4-.19.6-.275a.28.28,0,0,0,.036-.016c.1-.041.206-.081.309-.117a.078.078,0,0,0,.019-.008c.1-.037.208-.072.315-.106a8.977,8.977,0,1,1,2.722,17.534Zm-7.912,2.744a14.219,14.219,0,0,1-3.816-3.818,14.105,14.105,0,0,1,0-15.808,14.266,14.266,0,0,1,3.816-3.817,14.2,14.2,0,0,1,2.4-1.3c.014-.006.026-.01.04-.017-2.51-3.795-4.731-6.526-4.731-6.526s-12.109,15.146-11.73,23.266c.3,6.473,5.251,11.733,11.73,11.733a11.5,11.5,0,0,0,6.273-1.842,13.892,13.892,0,0,1-1.583-.562A14.194,14.194,0,0,1,170.486,224.782Zm2.74-10.465a1.112,1.112,0,0,0-1.531.336,1.025,1.025,0,0,0-.1.78,1.2,1.2,0,0,0,.558.722,1.113,1.113,0,0,0,1.533-.335,1.02,1.02,0,0,0,.1-.779A1.193,1.193,0,0,0,173.226,214.317Zm-.145,1.149a.419.419,0,0,1-.58.088.508.508,0,0,1-.236-.3.329.329,0,0,1,.029-.252.423.423,0,0,1,.581-.088.51.51,0,0,1,.235.3A.319.319,0,0,1,173.081,215.466Zm10.711-4.628-1.445.535a3.736,3.736,0,0,0-1.379-1.482l.318-1.462a.648.648,0,0,0-1.266-.275l-.275,1.275a3.423,3.423,0,0,0-2.069.267l-.53-.893a.647.647,0,0,0-1.113.661l.583.977a3.848,3.848,0,0,0-1.028,1.92l-1.134,0a.647.647,0,1,0,0,1.295l1.085,0a3.881,3.881,0,0,0,.7,1.789l-1.2,1.362a.647.647,0,0,0,.969.858l1.158-1.309a3.524,3.524,0,0,0,1.606.6l.122,1.307a.647.647,0,0,0,1.289-.122l-.122-1.287a3.607,3.607,0,0,0,1.632-.956l1.237,1.21a.647.647,0,0,0,.905-.925l-1.4-1.369a3.892,3.892,0,0,0,.358-1.636,3.83,3.83,0,0,0-.043-.564l1.506-.559a.647.647,0,1,0-.451-1.212Zm-10.361-.642a.576.576,0,1,0-.575-.576A.577.577,0,0,0,173.431,210.2Zm9.7-.994a.576.576,0,1,0-.575-.576A.577.577,0,0,0,183.133,209.2Z" transform="translate(-57.541 -141.909)" fill="#fff"/>
          <path id="Trazado_736745" data-name="Trazado 736745" d="M53.562,245.881a4.581,4.581,0,0,0,4.545-4.54c.078-3.328-4.545-7.225-4.545-7.225s-4.691,4.082-4.546,7.225A4.624,4.624,0,0,0,53.562,245.881Zm-2.208-7.711c-1.024,5.706,2.329,6.506,2.547,6.816C48.159,243.68,50.856,239.006,51.355,238.17Zm18.469,9.3H48.265v.893H69.824Zm-21.559,2.708v.893h7.491v-.893Zm0,3.6H65.031v-.892H48.265ZM66.7,222.763H63.288c-.037-2.02-2.074-3.654-4.572-3.654s-4.535,1.634-4.573,3.654H50.726v6.806H66.7Zm-7.989,2.2c-1.527,0-2.77-.963-2.77-2.147s1.244-2.148,2.77-2.148,2.77.963,2.77,2.148S60.242,224.967,58.715,224.967Zm10.87,30.652H48.324v.891H69.585Zm.239-18.982H60.542v.893h9.282Zm5.287-12.389H68.794v4.638h4v33.079H44.73V228.886h4v-4.638H42.411a2.32,2.32,0,0,0-2.318,2.32v37.716a2.319,2.319,0,0,0,2.318,2.319h32.7a2.32,2.32,0,0,0,2.319-2.319V226.567A2.32,2.32,0,0,0,75.111,224.248Zm-14.569,21.4h6.093v-.891H60.542Zm0-2.707h5.029v-.892H60.542Zm8.746-3.6H60.542v.89h8.746Z" transform="translate(-40.093 -145.75)" fill="#6eafdb"/>
          <path id="Trazado_736746" data-name="Trazado 736746" d="M72.682,273.948H80a2.32,2.32,0,0,0,2.319-2.319V268.1A74.982,74.982,0,0,0,72.682,273.948Z" transform="translate(-44.979 -153.095)" fill="#032c66"/>
          <path id="Trazado_736747" data-name="Trazado 736747" d="M639.048,406.032a21.18,21.18,0,1,0,21.18,21.18A21.05,21.05,0,0,0,639.048,406.032Zm17.071,19.186H643.533a4.932,4.932,0,0,0-.878-1.331V410.4a17.189,17.189,0,0,1,13.464,14.815Zm-15.613,15.424h-2.918v-2h2.918Zm0-3.377h-2.918V431.9a4.927,4.927,0,0,0,2.918,0Zm-2.918-23.481h2.918v2h-2.918Zm0,3.377h2.918v5.362a4.927,4.927,0,0,0-2.918,0Zm1.46-7.137c.489,0,.975.023,1.458.065V412.4h-2.918v-2.312C638.072,410.046,638.558,410.023,639.048,410.023Zm0,34.379c-.491,0-.978-.026-1.46-.065v-2.314h2.918v2.314C640.025,444.376,639.539,444.4,639.048,444.4Zm-17.19-17.19A17.191,17.191,0,0,1,635.44,410.4v13.484a4.895,4.895,0,0,0,0,6.651v13.481A17.215,17.215,0,0,1,621.858,427.212Zm20.8,16.807V430.538a4.941,4.941,0,0,0,.878-1.33h12.584A17.226,17.226,0,0,1,642.655,444.019Z" transform="translate(-126.723 -173.777)" fill="#fff"/>
          <path id="Trazado_736748" data-name="Trazado 736748" d="M457.561,198.182l11.867-32.7H413.294l11.867,32.7Zm1.146-9.744a.667.667,0,1,1-.667.667A.666.666,0,0,1,458.707,188.437Zm-3.871,4a2.4,2.4,0,1,1-2.4,2.4A2.4,2.4,0,0,1,454.835,192.441Zm-2.536-7.208a.668.668,0,1,1-.668.667A.667.667,0,0,1,452.3,185.233Zm-2.27,5.072a1.335,1.335,0,1,1-1.335,1.335A1.334,1.334,0,0,1,450.03,190.306Zm-4.168,2.492a1.513,1.513,0,1,1-1.512,1.513A1.512,1.512,0,0,1,445.862,192.8Zm-2.758,2.314a2,2,0,1,1-2-2A2,2,0,0,1,443.1,195.111Zm-1.6-10.145a.534.534,0,1,1-.534.534A.533.533,0,0,1,441.5,184.967Zm-2,4.271a1.2,1.2,0,1,1-1.2,1.2A1.2,1.2,0,0,1,439.5,189.237Zm-2-8.541a.534.534,0,1,1-.534.534A.532.532,0,0,1,437.5,180.7Zm-4,10.412a1.6,1.6,0,1,1-1.6,1.6A1.6,1.6,0,0,1,433.493,191.107Zm-2.936,4a2.136,2.136,0,1,1-2.136-2.136A2.136,2.136,0,0,1,430.557,195.111ZM426.685,183.9a.667.667,0,1,1-.666.667A.666.666,0,0,1,426.685,183.9Zm-.133,4.272a.8.8,0,1,1-.8.8A.8.8,0,0,1,426.552,188.17Zm53.441-43.05-20.362,56.265H423.091l-20.363-56.265-6.813,3.074,22.35,60.665h46.193l22.35-60.665Zm-19.154-.565H448.931V132.811h-15.14v11.744H421.884l20.82,17.578Z" transform="translate(-93.444 -132.811)" fill="#034b8d"/>
          <path id="Trazado_736749" data-name="Trazado 736749" d="M417.707,210.059l3.825,10.383h4.438A101.336,101.336,0,0,0,417.707,210.059Z" transform="translate(-96.712 -144.393)" fill="#02305e"/>
          <path id="Trazado_736750" data-name="Trazado 736750" d="M478.05,215.891a64.661,64.661,0,0,0-4.812,5.425h2.814Z" transform="translate(-105.038 -145.268)" fill="#023563"/>
        </g>
      </g>
    </g>
  </g>
</svg>
