<svg xmlns="http://www.w3.org/2000/svg" width="37.667" height="50" viewBox="0 0 37.667 50">
  <g id="Grupo_1014682" data-name="Grupo 1014682" transform="translate(-63.144)">
    <path id="Trazado_733729" data-name="Trazado 733729" d="M88.809,29.959a2.1,2.1,0,1,1,2.1-2.1A2.1,2.1,0,0,1,88.809,29.959Zm20.045,10.229C108.854,28.648,95.958,15.437,91,10,86.04,15.437,73.144,28.648,73.144,40.188a17.855,17.855,0,1,0,35.71,0Zm-26.861.031a1.953,1.953,0,1,1,1.953,1.953A1.953,1.953,0,0,1,81.993,40.218Zm16.4-6.8a1.953,1.953,0,1,1,1.953,1.953A1.953,1.953,0,0,1,98.4,33.422ZM94.756,45.4A2.441,2.441,0,1,1,97.2,47.844,2.441,2.441,0,0,1,94.756,45.4Z" transform="translate(-9.022 -9.022)" fill="#ccf5fc" fill-rule="evenodd"/>
    <path id="Trazado_733730" data-name="Trazado 733730" d="M165.729,299.459a1.957,1.957,0,1,0,1.957,1.957A1.957,1.957,0,0,0,165.729,299.459Z" transform="translate(-90.803 -270.22)" fill="#c68a86" fill-rule="evenodd"/>
    <circle id="Elipse_9010" data-name="Elipse 9010" cx="2.446" cy="2.446" r="2.446" transform="translate(85.721 33.934)" fill="#c68a86"/>
    <path id="Trazado_733731" data-name="Trazado 733731" d="M331.773,231.816a1.957,1.957,0,1,0,1.957-1.957,1.957,1.957,0,0,0-1.957,1.957Z" transform="translate(-242.401 -207.415)" fill="#c68a86" fill-rule="evenodd"/>
    <circle id="Elipse_9011" data-name="Elipse 9011" cx="2.106" cy="2.106" r="2.106" transform="translate(77.68 16.716)" fill="#c68a86"/>
    <path id="Trazado_733732" data-name="Trazado 733732" d="M90.69,172.357A16.915,16.915,0,0,1,65.1,157.838c0-4.5,2.114-9.871,6.284-15.963a.978.978,0,0,0-1.615-1.105c-4.4,6.423-6.626,12.166-6.626,17.068a18.872,18.872,0,0,0,28.551,16.2.978.978,0,0,0-1.006-1.679Z" transform="translate(0 -126.707)"/>
    <path id="Trazado_733733" data-name="Trazado 733733" d="M192.841,1.452c-.376-.408-.724-.786-1.041-1.133a.978.978,0,0,0-1.446,0c-.316.346-.664.724-1.038,1.131C187.9,2.985,186.141,4.9,184.268,7.1a.978.978,0,0,0,1.492,1.266c1.847-2.178,3.592-4.073,4.994-5.595l.322-.35.324.352c5.384,5.844,16.588,18.006,16.588,28.447A16.888,16.888,0,0,1,205.6,39.9a.978.978,0,1,0,1.679,1.005,18.845,18.845,0,0,0,2.671-9.681c0-11.206-11.553-23.747-17.106-29.773Z" transform="translate(-109.135)"/>
    <path id="Trazado_733734" data-name="Trazado 733734" d="M273.047,320.6h-1.268a3.408,3.408,0,0,0-.269-.65l.9-.9a.978.978,0,1,0-1.384-1.384l-.9.9a3.4,3.4,0,0,0-.65-.269v-1.268a.978.978,0,1,0-1.957,0V318.3a3.4,3.4,0,0,0-.65.269l-.9-.9a.978.978,0,0,0-1.384,1.384l.9.9a3.406,3.406,0,0,0-.269.65h-1.268a.978.978,0,0,0,0,1.957h1.268a3.4,3.4,0,0,0,.269.65l-.9.9a.978.978,0,1,0,1.384,1.384l.9-.9a3.4,3.4,0,0,0,.65.269v1.268a.978.978,0,1,0,1.957,0v-1.268a3.4,3.4,0,0,0,.65-.269l.9.9a.978.978,0,1,0,1.384-1.384l-.9-.9a3.4,3.4,0,0,0,.269-.65h1.268a.978.978,0,0,0,0-1.957Zm-3.082.978a1.468,1.468,0,1,1-1.468-1.468A1.469,1.469,0,0,1,269.965,321.581Z" transform="translate(-180.326 -285.205)"/>
    <path id="Trazado_733735" data-name="Trazado 733735" d="M184.5,146.727a.978.978,0,0,0,0,1.957h.993a3.073,3.073,0,0,0,.165.4l-.7.7a.978.978,0,1,0,1.384,1.384l.7-.7a3.067,3.067,0,0,0,.4.165v.993a.978.978,0,1,0,1.957,0v-.993a3.054,3.054,0,0,0,.4-.165l.7.7a.978.978,0,0,0,1.384-1.384l-.7-.7a3.065,3.065,0,0,0,.165-.4h.993a.978.978,0,1,0,0-1.957h-.993a3.065,3.065,0,0,0-.165-.4l.7-.7a.978.978,0,1,0-1.384-1.384l-.7.7a3.071,3.071,0,0,0-.4-.165v-.993a.978.978,0,1,0-1.957,0v.993a3.065,3.065,0,0,0-.4.165l-.7-.7a.978.978,0,0,0-1.384,1.384l.7.7a3.065,3.065,0,0,0-.165.4Zm2.79.978a1.128,1.128,0,1,1,1.128,1.128A1.13,1.13,0,0,1,187.29,147.705Z" transform="translate(-108.629 -128.868)"/>
    <path id="Trazado_733736" data-name="Trazado 733736" d="M159.642,292.394a2.935,2.935,0,1,0-2.935,2.935A2.939,2.939,0,0,0,159.642,292.394Zm-2.935.978a.978.978,0,1,1,.978-.978A.98.98,0,0,1,156.707,293.373Z" transform="translate(-81.781 -261.199)"/>
    <path id="Trazado_733737" data-name="Trazado 733737" d="M321.772,222.794a2.935,2.935,0,1,0,2.935-2.935,2.939,2.939,0,0,0-2.935,2.935Zm2.935-.978a.978.978,0,1,1-.978.978.98.98,0,0,1,.978-.978Z" transform="translate(-233.38 -198.394)"/>
    <path id="Trazado_733738" data-name="Trazado 733738" d="M178.572,404.635a.978.978,0,1,0,1.957,0h0a.978.978,0,0,0-1.957,0Z" transform="translate(-104.157 -364.24)"/>
    <path id="Trazado_733739" data-name="Trazado 733739" d="M137.772,236.636a.978.978,0,1,0,1.957,0h0a.978.978,0,0,0-1.957,0Z" transform="translate(-67.341 -212.645)"/>
    <path id="Trazado_733740" data-name="Trazado 733740" d="M245.772,267.835a.978.978,0,0,0,1.957,0h0a.978.978,0,1,0-1.957,0Z" transform="translate(-164.795 -240.798)"/>
    <path id="Trazado_733741" data-name="Trazado 733741" d="M252.53,85.443h0a.978.978,0,1,0-.978.979A.978.978,0,0,0,252.53,85.442Z" transform="translate(-169.127 -76.216)"/>
    <path id="Trazado_733742" data-name="Trazado 733742" d="M312.75,163.664a.979.979,0,1,0,.978.979h0A.978.978,0,0,0,312.75,163.664Z" transform="translate(-224.35 -147.682)"/>
    <path id="Trazado_733743" data-name="Trazado 733743" d="M156.644,105.965a.978.978,0,1,0,0-1.957h0a.978.978,0,0,0,0,1.957Z" transform="translate(-83.487 -93.852)"/>
    <path id="Trazado_733744" data-name="Trazado 733744" d="M376.282,438.442h0a.978.978,0,1,0,.979.978A.978.978,0,0,0,376.281,438.442Z" transform="translate(-281.688 -395.639)"/>
  </g>
</svg>
