<svg xmlns="http://www.w3.org/2000/svg" width="820" height="123" viewBox="0 0 820 123">
  <g id="Grupo_1016012" data-name="Grupo 1016012" transform="translate(-390 -34033)">
    <path id="Trazado_738048" data-name="Trazado 738048" d="M0,0H120V103H0Z" transform="translate(1090 34053)" fill="#3076b6"/>
    <path id="Trazado_738050" data-name="Trazado 738050" d="M0,0H130V103H0Z" transform="translate(390 34033)" fill="#3076b6"/>
    <path id="Trazado_733091" data-name="Trazado 733091" d="M0,0H799.764V103H0Z" transform="translate(400 34043)" fill="#dee4f0"/>
    <path id="Trazado_738049" data-name="Trazado 738049" d="M4.734,5.625l1.664,8.7,4.68-8.7h2.531L11.641,17H9.719l.664-3.852,1.008-4.742L6.7,17H5.313L3.57,8.148l-.711,5.2L2.227,17H.3L2.281,5.625ZM18.813,17a2.507,2.507,0,0,1-.078-.789,3.134,3.134,0,0,1-2.258.945,2.589,2.589,0,0,1-1.824-.707,2.18,2.18,0,0,1-.676-1.754,2.588,2.588,0,0,1,1.156-2.1,5.034,5.034,0,0,1,2.938-.766l1.2.016.109-.578a1.744,1.744,0,0,0,0-.57,1.017,1.017,0,0,0-1.117-.867,1.685,1.685,0,0,0-1.043.3,1.3,1.3,0,0,0-.551.848l-1.852.016a2.318,2.318,0,0,1,.555-1.371A3.289,3.289,0,0,1,16.7,8.7a4.5,4.5,0,0,1,1.75-.312,2.956,2.956,0,0,1,2.156.832A2.466,2.466,0,0,1,21.25,11.3L20.6,15.258l-.062.7a2.5,2.5,0,0,0,.117.9L20.648,17Zm-1.906-1.359a2.041,2.041,0,0,0,1.086-.27,2.861,2.861,0,0,0,.852-.738l.289-1.6-.883-.008a3.1,3.1,0,0,0-1.672.395,1.447,1.447,0,0,0-.711,1.082.957.957,0,0,0,.23.824A1.127,1.127,0,0,0,16.906,15.641Zm10.414-.984q.133-.773-1-1.074a12.763,12.763,0,0,1-1.551-.48,2.138,2.138,0,0,1-1.555-2.094,2.378,2.378,0,0,1,1.035-1.887,3.794,3.794,0,0,1,2.387-.73,3.266,3.266,0,0,1,2.191.758,2.417,2.417,0,0,1,.832,1.945l-1.836-.008a1.185,1.185,0,0,0-.32-.918,1.307,1.307,0,0,0-.922-.348,1.817,1.817,0,0,0-1.059.3,1.135,1.135,0,0,0-.512.8q-.109.711,1,.988a10.976,10.976,0,0,1,1.641.512,2.14,2.14,0,0,1,1.492,2.125,2.336,2.336,0,0,1-.527,1.4,3.077,3.077,0,0,1-1.309.914,4.477,4.477,0,0,1-1.742.293,3.437,3.437,0,0,1-2.293-.8,2.512,2.512,0,0,1-.895-2.023l1.789.008a1.361,1.361,0,0,0,.406,1.031,1.57,1.57,0,0,0,1.07.359,2.126,2.126,0,0,0,1.145-.285A1.094,1.094,0,0,0,27.32,14.656ZM35.375,17a2.507,2.507,0,0,1-.078-.789,3.134,3.134,0,0,1-2.258.945,2.589,2.589,0,0,1-1.824-.707,2.18,2.18,0,0,1-.676-1.754,2.588,2.588,0,0,1,1.156-2.1,5.034,5.034,0,0,1,2.938-.766l1.2.016.109-.578a1.744,1.744,0,0,0,0-.57,1.017,1.017,0,0,0-1.117-.867,1.685,1.685,0,0,0-1.043.3,1.3,1.3,0,0,0-.551.848l-1.852.016a2.318,2.318,0,0,1,.555-1.371A3.289,3.289,0,0,1,33.266,8.7a4.5,4.5,0,0,1,1.75-.312,2.956,2.956,0,0,1,2.156.832,2.466,2.466,0,0,1,.641,2.074l-.648,3.961-.062.7a2.5,2.5,0,0,0,.117.9L37.211,17Zm-1.906-1.359a2.041,2.041,0,0,0,1.086-.27,2.861,2.861,0,0,0,.852-.738l.289-1.6-.883-.008a3.1,3.1,0,0,0-1.672.395A1.447,1.447,0,0,0,32.43,14.5a.957.957,0,0,0,.23.824A1.127,1.127,0,0,0,33.469,15.641Zm9.711-2.875a6.7,6.7,0,0,1,.7-2.344,3.968,3.968,0,0,1,1.352-1.551,3.121,3.121,0,0,1,1.789-.488,2.5,2.5,0,0,1,2.016.961L49.852,5h1.859L49.625,17H47.969l.125-.875a2.946,2.946,0,0,1-2.312,1.039,2.325,2.325,0,0,1-1.887-.91,3.975,3.975,0,0,1-.762-2.379,6.316,6.316,0,0,1,.023-.945Zm1.8.727a2.6,2.6,0,0,0,.3,1.539,1.2,1.2,0,0,0,1.059.586,2.175,2.175,0,0,0,1.852-1.039l.633-3.633A1.445,1.445,0,0,0,47.4,9.938a1.9,1.9,0,0,0-1.711.938A5,5,0,0,0,44.977,13.492Zm10.461,3.664a3.541,3.541,0,0,1-1.91-.555,3.156,3.156,0,0,1-1.2-1.453,4.32,4.32,0,0,1-.293-2.055l.023-.32a5.657,5.657,0,0,1,.754-2.316A4.3,4.3,0,0,1,54.344,8.9a3.713,3.713,0,0,1,1.984-.508,2.769,2.769,0,0,1,2.379,1.182,4.337,4.337,0,0,1,.6,3l-.109.814h-5.32A2.3,2.3,0,0,0,54.281,15a1.61,1.61,0,0,0,1.313.631,2.847,2.847,0,0,0,2.2-1.039l.938.984a3.563,3.563,0,0,1-1.4,1.176A4.166,4.166,0,0,1,55.438,17.156Zm.789-7.25q-1.469-.047-2.2,2.078l3.508.008.031-.164a2.451,2.451,0,0,0,.008-.7,1.438,1.438,0,0,0-.437-.875A1.385,1.385,0,0,0,56.227,9.906Zm11.422,5.742a1.81,1.81,0,0,0,1.828-1.437l1.75-.008a2.993,2.993,0,0,1-.605,1.523,3.52,3.52,0,0,1-1.332,1.07,3.7,3.7,0,0,1-1.7.359,3.184,3.184,0,0,1-1.852-.562,3.11,3.11,0,0,1-1.117-1.512,4.836,4.836,0,0,1-.234-2.152l.023-.273a5.531,5.531,0,0,1,.715-2.223,4.173,4.173,0,0,1,1.5-1.535,3.766,3.766,0,0,1,2.047-.508,2.957,2.957,0,0,1,2.2.91,3.215,3.215,0,0,1,.82,2.285H69.961a1.889,1.889,0,0,0-.355-1.187,1.3,1.3,0,0,0-1.027-.492,1.876,1.876,0,0,0-1.711.922,5.146,5.146,0,0,0-.672,2.688Q66.141,15.617,67.648,15.648Zm4.961-2.906a5.562,5.562,0,0,1,.73-2.258,4.335,4.335,0,0,1,1.535-1.57,3.794,3.794,0,0,1,2.078-.523,3.139,3.139,0,0,1,3.027,2.117,4.887,4.887,0,0,1,.254,2.172,5.665,5.665,0,0,1-.73,2.375,4.319,4.319,0,0,1-1.547,1.582,3.848,3.848,0,0,1-2.09.52,3.136,3.136,0,0,1-3.016-2.105,4.824,4.824,0,0,1-.266-2.145Zm1.82,1.07a2.232,2.232,0,0,0,.434,1.316,1.387,1.387,0,0,0,1.1.52,1.948,1.948,0,0,0,1.6-.734,3.863,3.863,0,0,0,.809-2.07l.047-.766a2.7,2.7,0,0,0-.4-1.57,1.4,1.4,0,0,0-1.156-.6,2.024,2.024,0,0,0-1.875,1.164,4.349,4.349,0,0,0-.523,1.672A6.541,6.541,0,0,0,74.43,13.813Zm9.828-5.273-.187.992a3.226,3.226,0,0,1,2.508-1.141,2.044,2.044,0,0,1,1.758.848,3.383,3.383,0,0,1,.422,2.3L87.844,17H85.992l.922-5.484a2.806,2.806,0,0,0,.008-.625,1,1,0,0,0-1.109-.953,2.25,2.25,0,0,0-1.852,1.039L82.906,17H81.055l1.461-8.453Zm9.68-2.047-.359,2.055h1.445l-.242,1.406H93.328l-.8,4.734a1.619,1.619,0,0,0-.008.352q.047.508.625.531a3.529,3.529,0,0,0,.656-.07l-.125,1.484a4.245,4.245,0,0,1-1.164.164,1.729,1.729,0,0,1-1.449-.66,2.389,2.389,0,0,1-.379-1.707l.789-4.828H90.125l.25-1.406h1.344l.359-2.055ZM100.055,17a2.507,2.507,0,0,1-.078-.789,3.134,3.134,0,0,1-2.258.945,2.589,2.589,0,0,1-1.824-.707,2.18,2.18,0,0,1-.676-1.754,2.588,2.588,0,0,1,1.156-2.1,5.034,5.034,0,0,1,2.938-.766l1.2.016.109-.578a1.744,1.744,0,0,0,0-.57,1.017,1.017,0,0,0-1.117-.867,1.685,1.685,0,0,0-1.043.3,1.3,1.3,0,0,0-.551.848l-1.852.016a2.318,2.318,0,0,1,.555-1.371A3.289,3.289,0,0,1,97.945,8.7a4.5,4.5,0,0,1,1.75-.312,2.956,2.956,0,0,1,2.156.832,2.466,2.466,0,0,1,.641,2.074l-.648,3.961-.062.7a2.5,2.5,0,0,0,.117.9l-.008.141Zm-1.906-1.359a2.041,2.041,0,0,0,1.086-.27,2.861,2.861,0,0,0,.852-.738l.289-1.6-.883-.008a3.1,3.1,0,0,0-1.672.395,1.447,1.447,0,0,0-.711,1.082.957.957,0,0,0,.23.824A1.127,1.127,0,0,0,98.148,15.641Zm8.555-7.1-.164.9a3.259,3.259,0,0,1,2.5-1.047,2.427,2.427,0,0,1,1.324.367,1.738,1.738,0,0,1,.715.93,3.406,3.406,0,0,1,2.688-1.3,2.195,2.195,0,0,1,1.832.848,3.235,3.235,0,0,1,.449,2.285L115.133,17h-1.852l.922-5.492a2.879,2.879,0,0,0,.008-.633,1.034,1.034,0,0,0-1.156-.937,1.949,1.949,0,0,0-1.812,1.258l-.023.172L110.25,17h-1.859l.922-5.469a2.806,2.806,0,0,0,.008-.625,1.043,1.043,0,0,0-1.156-.969,2.042,2.042,0,0,0-1.734.93L105.359,17h-1.852l1.461-8.453ZM119.063,17h-1.852l1.469-8.453h1.852Zm-.117-10.617a1.044,1.044,0,0,1,.281-.734,1.03,1.03,0,0,1,.758-.32.985.985,0,0,1,.754.277.96.96,0,0,1,.3.715.988.988,0,0,1-.293.734,1.074,1.074,0,0,1-.746.3,1,1,0,0,1-.75-.27A.929.929,0,0,1,118.945,6.383Zm5.367,2.156-.187.992a3.226,3.226,0,0,1,2.508-1.141,2.044,2.044,0,0,1,1.758.848,3.383,3.383,0,0,1,.422,2.3L127.9,17h-1.852l.922-5.484a2.806,2.806,0,0,0,.008-.625,1,1,0,0,0-1.109-.953,2.25,2.25,0,0,0-1.852,1.039L122.961,17h-1.852l1.461-8.453ZM134.867,17a2.507,2.507,0,0,1-.078-.789,3.134,3.134,0,0,1-2.258.945,2.589,2.589,0,0,1-1.824-.707,2.18,2.18,0,0,1-.676-1.754,2.588,2.588,0,0,1,1.156-2.1,5.034,5.034,0,0,1,2.938-.766l1.2.016.109-.578a1.744,1.744,0,0,0,0-.57,1.017,1.017,0,0,0-1.117-.867,1.685,1.685,0,0,0-1.043.3,1.3,1.3,0,0,0-.551.848l-1.852.016a2.318,2.318,0,0,1,.555-1.371,3.289,3.289,0,0,1,1.328-.918,4.5,4.5,0,0,1,1.75-.312,2.956,2.956,0,0,1,2.156.832A2.466,2.466,0,0,1,137.3,11.3l-.648,3.961-.062.7a2.5,2.5,0,0,0,.117.9L136.7,17Zm-1.906-1.359a2.041,2.041,0,0,0,1.086-.27,2.862,2.862,0,0,0,.852-.738l.289-1.6-.883-.008a3.1,3.1,0,0,0-1.672.395,1.447,1.447,0,0,0-.711,1.082.957.957,0,0,0,.23.824A1.127,1.127,0,0,0,132.961,15.641Zm8.539-7.1-.187.992a3.226,3.226,0,0,1,2.508-1.141,2.044,2.044,0,0,1,1.758.848,3.383,3.383,0,0,1,.422,2.3L145.086,17h-1.852l.922-5.484a2.806,2.806,0,0,0,.008-.625,1,1,0,0,0-1.109-.953,2.25,2.25,0,0,0-1.852,1.039L140.148,17H138.3l1.461-8.453Zm9.68-2.047-.359,2.055h1.445l-.242,1.406H150.57l-.8,4.734a1.618,1.618,0,0,0-.008.352q.047.508.625.531a3.53,3.53,0,0,0,.656-.07l-.125,1.484a4.245,4.245,0,0,1-1.164.164,1.729,1.729,0,0,1-1.449-.66,2.389,2.389,0,0,1-.379-1.707l.789-4.828h-1.352l.25-1.406h1.344l.359-2.055ZM156.1,17.156a3.541,3.541,0,0,1-1.91-.555,3.156,3.156,0,0,1-1.2-1.453,4.32,4.32,0,0,1-.293-2.055l.023-.32a5.657,5.657,0,0,1,.754-2.316A4.3,4.3,0,0,1,155.008,8.9a3.713,3.713,0,0,1,1.984-.508,2.769,2.769,0,0,1,2.379,1.182,4.337,4.337,0,0,1,.6,3l-.109.814h-5.32A2.3,2.3,0,0,0,154.945,15a1.61,1.61,0,0,0,1.313.631,2.847,2.847,0,0,0,2.2-1.039l.938.984a3.563,3.563,0,0,1-1.4,1.176A4.166,4.166,0,0,1,156.1,17.156Zm.789-7.25q-1.469-.047-2.2,2.078l3.508.008.031-.164a2.451,2.451,0,0,0,.008-.7,1.438,1.438,0,0,0-.437-.875A1.385,1.385,0,0,0,156.891,9.906Zm15.477,1.016h-6.734V9.328h6.734Zm0,3.3h-6.734v-1.57h6.734Zm14.359-.93a4.418,4.418,0,0,1-1.6,2.84,4.794,4.794,0,0,1-3.2,1.027,3.775,3.775,0,0,1-1.9-.516,3.336,3.336,0,0,1-1.277-1.434,5.35,5.35,0,0,1-.516-2.129,11.519,11.519,0,0,1,.219-2.426,7.662,7.662,0,0,1,1.02-2.754,5.158,5.158,0,0,1,1.852-1.836,4.721,4.721,0,0,1,2.441-.594,3.633,3.633,0,0,1,2.684,1.066A4.185,4.185,0,0,1,187.5,9.391h-1.914a2.8,2.8,0,0,0-.512-1.762,1.824,1.824,0,0,0-1.4-.566,2.64,2.64,0,0,0-2.133.913,5.344,5.344,0,0,0-1.156,2.771l-.156,1.038-.07.8a4.711,4.711,0,0,0,.113,1.51,1.97,1.97,0,0,0,.621,1.077,1.812,1.812,0,0,0,1.133.394,2.605,2.605,0,0,0,2.8-2.258ZM192.758,17a2.507,2.507,0,0,1-.078-.789,3.134,3.134,0,0,1-2.258.945,2.589,2.589,0,0,1-1.824-.707,2.18,2.18,0,0,1-.676-1.754,2.588,2.588,0,0,1,1.156-2.1,5.034,5.034,0,0,1,2.938-.766l1.2.016.109-.578a1.744,1.744,0,0,0,0-.57,1.017,1.017,0,0,0-1.117-.867,1.685,1.685,0,0,0-1.043.3,1.3,1.3,0,0,0-.551.848l-1.852.016a2.318,2.318,0,0,1,.555-1.371,3.289,3.289,0,0,1,1.328-.918,4.5,4.5,0,0,1,1.75-.312,2.956,2.956,0,0,1,2.156.832A2.466,2.466,0,0,1,195.2,11.3l-.648,3.961-.062.7a2.5,2.5,0,0,0,.117.9l-.008.141Zm-1.906-1.359a2.041,2.041,0,0,0,1.086-.27,2.862,2.862,0,0,0,.852-.738l.289-1.6-.883-.008a3.1,3.1,0,0,0-1.672.395,1.447,1.447,0,0,0-.711,1.082.957.957,0,0,0,.23.824A1.127,1.127,0,0,0,190.852,15.641Zm10.891-5.359a3.41,3.41,0,0,0-.727-.078,2.168,2.168,0,0,0-1.937,1.008L198.063,17h-1.852l1.461-8.453,1.758-.008-.187.961a2.419,2.419,0,0,1,2-1.125,3.039,3.039,0,0,1,.711.117Zm.422,2.484a6.538,6.538,0,0,1,.684-2.289A4.135,4.135,0,0,1,204.2,8.91a3.18,3.18,0,0,1,1.859-.527,2.494,2.494,0,0,1,2.1,1.023l.289-.867,1.688.008-1.4,8.219a3.99,3.99,0,0,1-4.219,3.57,3.945,3.945,0,0,1-1.687-.406,3.508,3.508,0,0,1-1.281-1.031l.984-1.117a2.372,2.372,0,0,0,1.938,1.055,2.271,2.271,0,0,0,1.559-.5,2.585,2.585,0,0,0,.871-1.5l.133-.594a2.991,2.991,0,0,1-2.219.914,2.367,2.367,0,0,1-1.9-.9,3.974,3.974,0,0,1-.785-2.375A7.806,7.806,0,0,1,202.164,12.766ZM204,12.93a5.713,5.713,0,0,0-.031.859,2.23,2.23,0,0,0,.375,1.313,1.258,1.258,0,0,0,1.023.508,2.186,2.186,0,0,0,1.844-.977l.664-3.734a1.508,1.508,0,0,0-1.445-.961,1.928,1.928,0,0,0-1.578.727,4.071,4.071,0,0,0-.836,2.1ZM215.641,17a2.507,2.507,0,0,1-.078-.789,3.134,3.134,0,0,1-2.258.945,2.589,2.589,0,0,1-1.824-.707A2.18,2.18,0,0,1,210.8,14.7a2.588,2.588,0,0,1,1.156-2.1,5.034,5.034,0,0,1,2.938-.766l1.2.016.109-.578a1.744,1.744,0,0,0,0-.57,1.017,1.017,0,0,0-1.117-.867,1.685,1.685,0,0,0-1.043.3,1.3,1.3,0,0,0-.551.848l-1.852.016a2.318,2.318,0,0,1,.555-1.371,3.289,3.289,0,0,1,1.328-.918,4.5,4.5,0,0,1,1.75-.312,2.956,2.956,0,0,1,2.156.832,2.466,2.466,0,0,1,.641,2.074l-.648,3.961-.062.7a2.5,2.5,0,0,0,.117.9l-.008.141Zm-1.906-1.359a2.041,2.041,0,0,0,1.086-.27,2.862,2.862,0,0,0,.852-.738l.289-1.6-.883-.008a3.1,3.1,0,0,0-1.672.395A1.447,1.447,0,0,0,212.7,14.5a.957.957,0,0,0,.23.824A1.127,1.127,0,0,0,213.734,15.641Zm12.992.008a1.81,1.81,0,0,0,1.828-1.437l1.75-.008a2.993,2.993,0,0,1-.605,1.523,3.52,3.52,0,0,1-1.332,1.07,3.7,3.7,0,0,1-1.7.359,3.184,3.184,0,0,1-1.852-.562,3.11,3.11,0,0,1-1.117-1.512,4.836,4.836,0,0,1-.234-2.152l.023-.273a5.532,5.532,0,0,1,.715-2.223,4.173,4.173,0,0,1,1.5-1.535,3.766,3.766,0,0,1,2.047-.508,2.957,2.957,0,0,1,2.2.91,3.215,3.215,0,0,1,.82,2.285h-1.734a1.889,1.889,0,0,0-.355-1.187,1.3,1.3,0,0,0-1.027-.492,1.876,1.876,0,0,0-1.711.922,5.146,5.146,0,0,0-.672,2.688Q225.219,15.617,226.727,15.648Zm4.961-2.906a5.562,5.562,0,0,1,.73-2.258,4.335,4.335,0,0,1,1.535-1.57,3.794,3.794,0,0,1,2.078-.523,3.139,3.139,0,0,1,3.027,2.117,4.886,4.886,0,0,1,.254,2.172,5.665,5.665,0,0,1-.73,2.375,4.318,4.318,0,0,1-1.547,1.582,3.848,3.848,0,0,1-2.09.52,3.136,3.136,0,0,1-3.016-2.105,4.824,4.824,0,0,1-.266-2.145Zm1.82,1.07a2.232,2.232,0,0,0,.434,1.316,1.387,1.387,0,0,0,1.1.52,1.948,1.948,0,0,0,1.6-.734,3.863,3.863,0,0,0,.809-2.07l.047-.766a2.7,2.7,0,0,0-.4-1.57,1.4,1.4,0,0,0-1.156-.6,2.024,2.024,0,0,0-1.875,1.164,4.349,4.349,0,0,0-.523,1.672A6.541,6.541,0,0,0,233.508,13.813Zm9.828-5.273-.187.992a3.226,3.226,0,0,1,2.508-1.141,2.044,2.044,0,0,1,1.758.848,3.383,3.383,0,0,1,.422,2.3L246.922,17H245.07l.922-5.484a2.806,2.806,0,0,0,.008-.625,1,1,0,0,0-1.109-.953,2.25,2.25,0,0,0-1.852,1.039L241.984,17h-1.852l1.461-8.453Zm9.68-2.047-.359,2.055H254.1l-.242,1.406h-1.453l-.8,4.734a1.618,1.618,0,0,0-.008.352q.047.508.625.531a3.53,3.53,0,0,0,.656-.07l-.125,1.484a4.245,4.245,0,0,1-1.164.164,1.729,1.729,0,0,1-1.449-.66,2.389,2.389,0,0,1-.379-1.707l.789-4.828H249.2l.25-1.406H250.8l.359-2.055ZM259.133,17a2.508,2.508,0,0,1-.078-.789,3.134,3.134,0,0,1-2.258.945,2.589,2.589,0,0,1-1.824-.707A2.18,2.18,0,0,1,254.3,14.7a2.588,2.588,0,0,1,1.156-2.1,5.034,5.034,0,0,1,2.938-.766l1.2.016.109-.578a1.744,1.744,0,0,0,0-.57,1.017,1.017,0,0,0-1.117-.867,1.685,1.685,0,0,0-1.043.3,1.3,1.3,0,0,0-.551.848l-1.852.016a2.318,2.318,0,0,1,.555-1.371,3.289,3.289,0,0,1,1.328-.918,4.5,4.5,0,0,1,1.75-.312,2.956,2.956,0,0,1,2.156.832,2.466,2.466,0,0,1,.641,2.074l-.648,3.961-.062.7a2.5,2.5,0,0,0,.117.9l-.008.141Zm-1.906-1.359a2.041,2.041,0,0,0,1.086-.27,2.861,2.861,0,0,0,.852-.738l.289-1.6-.883-.008a3.1,3.1,0,0,0-1.672.395,1.447,1.447,0,0,0-.711,1.082.957.957,0,0,0,.23.824A1.127,1.127,0,0,0,257.227,15.641Zm8.555-7.1-.164.9a3.259,3.259,0,0,1,2.5-1.047,2.427,2.427,0,0,1,1.324.367,1.738,1.738,0,0,1,.715.93,3.406,3.406,0,0,1,2.688-1.3,2.195,2.195,0,0,1,1.832.848,3.235,3.235,0,0,1,.449,2.285L274.211,17h-1.852l.922-5.492a2.879,2.879,0,0,0,.008-.633,1.034,1.034,0,0,0-1.156-.937A1.949,1.949,0,0,0,270.32,11.2l-.023.172L269.328,17h-1.859l.922-5.469a2.806,2.806,0,0,0,.008-.625,1.043,1.043,0,0,0-1.156-.969,2.042,2.042,0,0,0-1.734.93L264.438,17h-1.852l1.461-8.453ZM278.141,17h-1.852l1.469-8.453h1.852Zm-.117-10.617a1.044,1.044,0,0,1,.281-.734,1.03,1.03,0,0,1,.758-.32.985.985,0,0,1,.754.277.96.96,0,0,1,.3.715.988.988,0,0,1-.293.734,1.074,1.074,0,0,1-.746.3,1,1,0,0,1-.75-.27A.929.929,0,0,1,278.023,6.383Zm5.367,2.156-.187.992a3.226,3.226,0,0,1,2.508-1.141,2.044,2.044,0,0,1,1.758.848,3.383,3.383,0,0,1,.422,2.3L286.977,17h-1.852l.922-5.484a2.806,2.806,0,0,0,.008-.625,1,1,0,0,0-1.109-.953,2.25,2.25,0,0,0-1.852,1.039L282.039,17h-1.852l1.461-8.453ZM293.945,17a2.508,2.508,0,0,1-.078-.789,3.134,3.134,0,0,1-2.258.945,2.589,2.589,0,0,1-1.824-.707,2.18,2.18,0,0,1-.676-1.754,2.588,2.588,0,0,1,1.156-2.1,5.034,5.034,0,0,1,2.938-.766l1.2.016.109-.578a1.744,1.744,0,0,0,0-.57,1.017,1.017,0,0,0-1.117-.867,1.685,1.685,0,0,0-1.043.3,1.3,1.3,0,0,0-.551.848l-1.852.016a2.318,2.318,0,0,1,.555-1.371,3.289,3.289,0,0,1,1.328-.918,4.5,4.5,0,0,1,1.75-.312,2.956,2.956,0,0,1,2.156.832,2.466,2.466,0,0,1,.641,2.074l-.648,3.961-.062.7a2.5,2.5,0,0,0,.117.9l-.008.141Zm-1.906-1.359a2.041,2.041,0,0,0,1.086-.27,2.861,2.861,0,0,0,.852-.738l.289-1.6-.883-.008a3.1,3.1,0,0,0-1.672.395A1.447,1.447,0,0,0,291,14.5a.957.957,0,0,0,.23.824A1.127,1.127,0,0,0,292.039,15.641Zm8.539-7.1-.187.992A3.226,3.226,0,0,1,302.9,8.391a2.044,2.044,0,0,1,1.758.848,3.383,3.383,0,0,1,.422,2.3L304.164,17h-1.852l.922-5.484a2.806,2.806,0,0,0,.008-.625,1,1,0,0,0-1.109-.953,2.25,2.25,0,0,0-1.852,1.039L299.227,17h-1.852l1.461-8.453Zm9.68-2.047L309.9,8.547h1.445L311.1,9.953h-1.453l-.8,4.734a1.619,1.619,0,0,0-.008.352q.047.508.625.531a3.529,3.529,0,0,0,.656-.07L310,16.984a4.245,4.245,0,0,1-1.164.164,1.729,1.729,0,0,1-1.449-.66,2.389,2.389,0,0,1-.379-1.707l.789-4.828h-1.352l.25-1.406h1.344l.359-2.055Zm4.922,10.664a3.541,3.541,0,0,1-1.91-.555,3.156,3.156,0,0,1-1.2-1.453,4.32,4.32,0,0,1-.293-2.055l.023-.32a5.658,5.658,0,0,1,.754-2.316A4.3,4.3,0,0,1,314.086,8.9a3.713,3.713,0,0,1,1.984-.508,2.769,2.769,0,0,1,2.379,1.182,4.337,4.337,0,0,1,.6,3l-.109.814h-5.32A2.3,2.3,0,0,0,314.023,15a1.61,1.61,0,0,0,1.313.631,2.847,2.847,0,0,0,2.2-1.039l.938.984a3.563,3.563,0,0,1-1.4,1.176A4.166,4.166,0,0,1,315.18,17.156Zm.789-7.25q-1.469-.047-2.2,2.078l3.508.008.031-.164a2.45,2.45,0,0,0,.008-.7,1.437,1.437,0,0,0-.437-.875A1.385,1.385,0,0,0,315.969,9.906Zm11.6,1.406,1.992-2.766h2.164l-3.234,4.25,1.883,4.2h-1.937l-1.18-2.883L325.18,17h-2.156l3.336-4.375-1.82-4.078h1.938Zm12.109-4.82-.359,2.055h1.445l-.242,1.406H339.07l-.8,4.734a1.619,1.619,0,0,0-.008.352q.047.508.625.531a3.529,3.529,0,0,0,.656-.07l-.125,1.484a4.245,4.245,0,0,1-1.164.164,1.729,1.729,0,0,1-1.449-.66,2.389,2.389,0,0,1-.379-1.707l.789-4.828h-1.352l.25-1.406h1.344l.359-2.055ZM342.742,17h-1.852l1.469-8.453h1.852Zm-.117-10.617a1.044,1.044,0,0,1,.281-.734,1.03,1.03,0,0,1,.758-.32.985.985,0,0,1,.754.277.96.96,0,0,1,.3.715.988.988,0,0,1-.293.734,1.074,1.074,0,0,1-.746.3,1,1,0,0,1-.75-.27A.929.929,0,0,1,342.625,6.383Zm6.016,10.773a3.541,3.541,0,0,1-1.91-.555,3.156,3.156,0,0,1-1.2-1.453,4.32,4.32,0,0,1-.293-2.055l.023-.32a5.658,5.658,0,0,1,.754-2.316A4.3,4.3,0,0,1,347.547,8.9a3.713,3.713,0,0,1,1.984-.508,2.769,2.769,0,0,1,2.379,1.182,4.337,4.337,0,0,1,.6,3l-.109.814h-5.32A2.3,2.3,0,0,0,347.484,15a1.61,1.61,0,0,0,1.313.631,2.847,2.847,0,0,0,2.2-1.039l.938.984a3.563,3.563,0,0,1-1.4,1.176A4.166,4.166,0,0,1,348.641,17.156Zm.789-7.25q-1.469-.047-2.2,2.078l3.508.008.031-.164a2.45,2.45,0,0,0,.008-.7,1.437,1.437,0,0,0-.437-.875A1.385,1.385,0,0,0,349.43,9.906Zm6.984-1.367-.164.9a3.259,3.259,0,0,1,2.5-1.047,2.427,2.427,0,0,1,1.324.367,1.738,1.738,0,0,1,.715.93,3.406,3.406,0,0,1,2.688-1.3,2.195,2.195,0,0,1,1.832.848,3.235,3.235,0,0,1,.449,2.285L364.844,17h-1.852l.922-5.492a2.879,2.879,0,0,0,.008-.633,1.034,1.034,0,0,0-1.156-.937,1.949,1.949,0,0,0-1.812,1.258l-.023.172L359.961,17H358.1l.922-5.469a2.806,2.806,0,0,0,.008-.625,1.043,1.043,0,0,0-1.156-.969,2.042,2.042,0,0,0-1.734.93L355.07,17h-1.852l1.461-8.453Zm18.3,4.266a6.959,6.959,0,0,1-.676,2.3,3.92,3.92,0,0,1-1.32,1.559,3.052,3.052,0,0,1-1.793.5,2.652,2.652,0,0,1-2.078-.937l-.758,4.023h-1.859l2.031-11.7,1.7-.008-.141.875a2.927,2.927,0,0,1,2.3-1.023,2.477,2.477,0,0,1,1.4.41,2.531,2.531,0,0,1,.91,1.168,4.734,4.734,0,0,1,.34,1.7A10.386,10.386,0,0,1,374.719,12.8Zm-1.828-.164.039-.57a2.769,2.769,0,0,0-.332-1.562,1.217,1.217,0,0,0-1.066-.57,2.155,2.155,0,0,0-1.812.961l-.656,3.773a1.432,1.432,0,0,0,1.43.977,1.888,1.888,0,0,0,1.551-.719A4.5,4.5,0,0,0,372.891,12.641Zm3.172.1a5.562,5.562,0,0,1,.73-2.258,4.335,4.335,0,0,1,1.535-1.57,3.794,3.794,0,0,1,2.078-.523,3.139,3.139,0,0,1,3.027,2.117,4.887,4.887,0,0,1,.254,2.172,5.665,5.665,0,0,1-.73,2.375,4.319,4.319,0,0,1-1.547,1.582,3.848,3.848,0,0,1-2.09.52,3.136,3.136,0,0,1-3.016-2.105,4.824,4.824,0,0,1-.266-2.145Zm1.82,1.07a2.232,2.232,0,0,0,.434,1.316,1.387,1.387,0,0,0,1.1.52,1.948,1.948,0,0,0,1.6-.734,3.863,3.863,0,0,0,.809-2.07l.047-.766a2.7,2.7,0,0,0-.4-1.57,1.4,1.4,0,0,0-1.156-.6,2.024,2.024,0,0,0-1.875,1.164,4.349,4.349,0,0,0-.523,1.672A6.541,6.541,0,0,0,377.883,13.813ZM4.734,29.625l1.664,8.7,4.68-8.7h2.531L11.641,41H9.719l.664-3.852,1.008-4.742L6.7,41H5.313L3.57,32.148l-.711,5.2L2.227,41H.3L2.281,29.625ZM18.813,41a2.507,2.507,0,0,1-.078-.789,3.134,3.134,0,0,1-2.258.945,2.589,2.589,0,0,1-1.824-.707,2.18,2.18,0,0,1-.676-1.754,2.588,2.588,0,0,1,1.156-2.1,5.034,5.034,0,0,1,2.938-.766l1.2.016.109-.578a1.744,1.744,0,0,0,0-.57,1.017,1.017,0,0,0-1.117-.867,1.685,1.685,0,0,0-1.043.3,1.3,1.3,0,0,0-.551.848l-1.852.016a2.318,2.318,0,0,1,.555-1.371A3.289,3.289,0,0,1,16.7,32.7a4.5,4.5,0,0,1,1.75-.312,2.956,2.956,0,0,1,2.156.832A2.466,2.466,0,0,1,21.25,35.3L20.6,39.258l-.062.7a2.5,2.5,0,0,0,.117.9L20.648,41Zm-1.906-1.359a2.041,2.041,0,0,0,1.086-.27,2.861,2.861,0,0,0,.852-.738l.289-1.6-.883-.008a3.1,3.1,0,0,0-1.672.395,1.447,1.447,0,0,0-.711,1.082.957.957,0,0,0,.23.824A1.127,1.127,0,0,0,16.906,39.641Zm10.414-.984q.133-.773-1-1.074a12.763,12.763,0,0,1-1.551-.48,2.138,2.138,0,0,1-1.555-2.094,2.378,2.378,0,0,1,1.035-1.887,3.794,3.794,0,0,1,2.387-.73,3.266,3.266,0,0,1,2.191.758,2.417,2.417,0,0,1,.832,1.945l-1.836-.008a1.185,1.185,0,0,0-.32-.918,1.307,1.307,0,0,0-.922-.348,1.817,1.817,0,0,0-1.059.3,1.135,1.135,0,0,0-.512.8q-.109.711,1,.988a10.976,10.976,0,0,1,1.641.512,2.14,2.14,0,0,1,1.492,2.125,2.336,2.336,0,0,1-.527,1.4,3.077,3.077,0,0,1-1.309.914,4.477,4.477,0,0,1-1.742.293,3.437,3.437,0,0,1-2.293-.8,2.512,2.512,0,0,1-.895-2.023l1.789.008a1.361,1.361,0,0,0,.406,1.031,1.57,1.57,0,0,0,1.07.359,2.126,2.126,0,0,0,1.145-.285A1.094,1.094,0,0,0,27.32,38.656ZM35.375,41a2.507,2.507,0,0,1-.078-.789,3.134,3.134,0,0,1-2.258.945,2.589,2.589,0,0,1-1.824-.707,2.18,2.18,0,0,1-.676-1.754,2.588,2.588,0,0,1,1.156-2.1,5.034,5.034,0,0,1,2.938-.766l1.2.016.109-.578a1.744,1.744,0,0,0,0-.57,1.017,1.017,0,0,0-1.117-.867,1.685,1.685,0,0,0-1.043.3,1.3,1.3,0,0,0-.551.848l-1.852.016a2.318,2.318,0,0,1,.555-1.371,3.289,3.289,0,0,1,1.328-.918,4.5,4.5,0,0,1,1.75-.312,2.956,2.956,0,0,1,2.156.832,2.466,2.466,0,0,1,.641,2.074l-.648,3.961-.062.7a2.5,2.5,0,0,0,.117.9L37.211,41Zm-1.906-1.359a2.041,2.041,0,0,0,1.086-.27,2.861,2.861,0,0,0,.852-.738l.289-1.6-.883-.008a3.1,3.1,0,0,0-1.672.395A1.447,1.447,0,0,0,32.43,38.5a.957.957,0,0,0,.23.824A1.127,1.127,0,0,0,33.469,39.641Zm9.711-2.875a6.7,6.7,0,0,1,.7-2.344,3.968,3.968,0,0,1,1.352-1.551,3.121,3.121,0,0,1,1.789-.488,2.5,2.5,0,0,1,2.016.961L49.852,29h1.859L49.625,41H47.969l.125-.875a2.946,2.946,0,0,1-2.312,1.039,2.325,2.325,0,0,1-1.887-.91,3.975,3.975,0,0,1-.762-2.379,6.316,6.316,0,0,1,.023-.945Zm1.8.727a2.6,2.6,0,0,0,.3,1.539,1.2,1.2,0,0,0,1.059.586,2.175,2.175,0,0,0,1.852-1.039l.633-3.633A1.445,1.445,0,0,0,47.4,33.938a1.9,1.9,0,0,0-1.711.938A5,5,0,0,0,44.977,37.492Zm10.461,3.664a3.541,3.541,0,0,1-1.91-.555,3.156,3.156,0,0,1-1.2-1.453,4.32,4.32,0,0,1-.293-2.055l.023-.32a5.657,5.657,0,0,1,.754-2.316A4.3,4.3,0,0,1,54.344,32.9a3.713,3.713,0,0,1,1.984-.508,2.769,2.769,0,0,1,2.379,1.182,4.337,4.337,0,0,1,.6,3l-.109.814h-5.32A2.3,2.3,0,0,0,54.281,39a1.61,1.61,0,0,0,1.313.631,2.847,2.847,0,0,0,2.2-1.039l.938.984a3.563,3.563,0,0,1-1.4,1.176A4.166,4.166,0,0,1,55.438,41.156Zm.789-7.25q-1.469-.047-2.2,2.078l3.508.008.031-.164a2.451,2.451,0,0,0,.008-.7,1.438,1.438,0,0,0-.437-.875A1.385,1.385,0,0,0,56.227,33.906Zm11.422,5.742a1.81,1.81,0,0,0,1.828-1.437l1.75-.008a2.993,2.993,0,0,1-.605,1.523,3.52,3.52,0,0,1-1.332,1.07,3.7,3.7,0,0,1-1.7.359,3.184,3.184,0,0,1-1.852-.562,3.11,3.11,0,0,1-1.117-1.512,4.836,4.836,0,0,1-.234-2.152l.023-.273a5.531,5.531,0,0,1,.715-2.223,4.173,4.173,0,0,1,1.5-1.535,3.766,3.766,0,0,1,2.047-.508,2.957,2.957,0,0,1,2.2.91,3.215,3.215,0,0,1,.82,2.285H69.961a1.889,1.889,0,0,0-.355-1.187,1.3,1.3,0,0,0-1.027-.492,1.876,1.876,0,0,0-1.711.922,5.146,5.146,0,0,0-.672,2.688Q66.141,39.617,67.648,39.648Zm4.961-2.906a5.562,5.562,0,0,1,.73-2.258,4.335,4.335,0,0,1,1.535-1.57,3.794,3.794,0,0,1,2.078-.523,3.139,3.139,0,0,1,3.027,2.117,4.887,4.887,0,0,1,.254,2.172,5.665,5.665,0,0,1-.73,2.375,4.319,4.319,0,0,1-1.547,1.582,3.848,3.848,0,0,1-2.09.52,3.136,3.136,0,0,1-3.016-2.105,4.824,4.824,0,0,1-.266-2.145Zm1.82,1.07a2.232,2.232,0,0,0,.434,1.316,1.387,1.387,0,0,0,1.1.52,1.948,1.948,0,0,0,1.6-.734,3.863,3.863,0,0,0,.809-2.07l.047-.766a2.7,2.7,0,0,0-.4-1.57,1.4,1.4,0,0,0-1.156-.6,2.024,2.024,0,0,0-1.875,1.164,4.349,4.349,0,0,0-.523,1.672A6.541,6.541,0,0,0,74.43,37.813Zm9.828-5.273-.187.992a3.226,3.226,0,0,1,2.508-1.141,2.044,2.044,0,0,1,1.758.848,3.383,3.383,0,0,1,.422,2.3L87.844,41H85.992l.922-5.484a2.806,2.806,0,0,0,.008-.625,1,1,0,0,0-1.109-.953,2.25,2.25,0,0,0-1.852,1.039L82.906,41H81.055l1.461-8.453Zm9.68-2.047-.359,2.055h1.445l-.242,1.406H93.328l-.8,4.734a1.619,1.619,0,0,0-.008.352q.047.508.625.531a3.529,3.529,0,0,0,.656-.07l-.125,1.484a4.245,4.245,0,0,1-1.164.164,1.729,1.729,0,0,1-1.449-.66,2.389,2.389,0,0,1-.379-1.707l.789-4.828H90.125l.25-1.406h1.344l.359-2.055ZM100.055,41a2.507,2.507,0,0,1-.078-.789,3.134,3.134,0,0,1-2.258.945,2.589,2.589,0,0,1-1.824-.707,2.18,2.18,0,0,1-.676-1.754,2.588,2.588,0,0,1,1.156-2.1,5.034,5.034,0,0,1,2.938-.766l1.2.016.109-.578a1.744,1.744,0,0,0,0-.57,1.017,1.017,0,0,0-1.117-.867,1.685,1.685,0,0,0-1.043.3,1.3,1.3,0,0,0-.551.848l-1.852.016a2.318,2.318,0,0,1,.555-1.371,3.289,3.289,0,0,1,1.328-.918,4.5,4.5,0,0,1,1.75-.312,2.956,2.956,0,0,1,2.156.832,2.466,2.466,0,0,1,.641,2.074l-.648,3.961-.062.7a2.5,2.5,0,0,0,.117.9l-.008.141Zm-1.906-1.359a2.041,2.041,0,0,0,1.086-.27,2.861,2.861,0,0,0,.852-.738l.289-1.6-.883-.008a3.1,3.1,0,0,0-1.672.395,1.447,1.447,0,0,0-.711,1.082.957.957,0,0,0,.23.824A1.127,1.127,0,0,0,98.148,39.641Zm8.555-7.1-.164.9a3.259,3.259,0,0,1,2.5-1.047,2.427,2.427,0,0,1,1.324.367,1.738,1.738,0,0,1,.715.93,3.406,3.406,0,0,1,2.688-1.3,2.195,2.195,0,0,1,1.832.848,3.235,3.235,0,0,1,.449,2.285L115.133,41h-1.852l.922-5.492a2.879,2.879,0,0,0,.008-.633,1.034,1.034,0,0,0-1.156-.937,1.949,1.949,0,0,0-1.812,1.258l-.023.172L110.25,41h-1.859l.922-5.469a2.806,2.806,0,0,0,.008-.625,1.043,1.043,0,0,0-1.156-.969,2.042,2.042,0,0,0-1.734.93L105.359,41h-1.852l1.461-8.453ZM119.063,41h-1.852l1.469-8.453h1.852Zm-.117-10.617a1.044,1.044,0,0,1,.281-.734,1.03,1.03,0,0,1,.758-.32.985.985,0,0,1,.754.277.96.96,0,0,1,.3.715.988.988,0,0,1-.293.734,1.074,1.074,0,0,1-.746.3,1,1,0,0,1-.75-.27A.929.929,0,0,1,118.945,30.383Zm5.367,2.156-.187.992a3.226,3.226,0,0,1,2.508-1.141,2.044,2.044,0,0,1,1.758.848,3.383,3.383,0,0,1,.422,2.3L127.9,41h-1.852l.922-5.484a2.806,2.806,0,0,0,.008-.625,1,1,0,0,0-1.109-.953,2.25,2.25,0,0,0-1.852,1.039L122.961,41h-1.852l1.461-8.453ZM134.867,41a2.507,2.507,0,0,1-.078-.789,3.134,3.134,0,0,1-2.258.945,2.589,2.589,0,0,1-1.824-.707,2.18,2.18,0,0,1-.676-1.754,2.588,2.588,0,0,1,1.156-2.1,5.034,5.034,0,0,1,2.938-.766l1.2.016.109-.578a1.744,1.744,0,0,0,0-.57,1.017,1.017,0,0,0-1.117-.867,1.685,1.685,0,0,0-1.043.3,1.3,1.3,0,0,0-.551.848l-1.852.016a2.318,2.318,0,0,1,.555-1.371,3.289,3.289,0,0,1,1.328-.918,4.5,4.5,0,0,1,1.75-.312,2.956,2.956,0,0,1,2.156.832A2.466,2.466,0,0,1,137.3,35.3l-.648,3.961-.062.7a2.5,2.5,0,0,0,.117.9L136.7,41Zm-1.906-1.359a2.041,2.041,0,0,0,1.086-.27,2.862,2.862,0,0,0,.852-.738l.289-1.6-.883-.008a3.1,3.1,0,0,0-1.672.395,1.447,1.447,0,0,0-.711,1.082.957.957,0,0,0,.23.824A1.127,1.127,0,0,0,132.961,39.641Zm8.539-7.1-.187.992a3.226,3.226,0,0,1,2.508-1.141,2.044,2.044,0,0,1,1.758.848,3.383,3.383,0,0,1,.422,2.3L145.086,41h-1.852l.922-5.484a2.806,2.806,0,0,0,.008-.625,1,1,0,0,0-1.109-.953,2.25,2.25,0,0,0-1.852,1.039L140.148,41H138.3l1.461-8.453Zm9.68-2.047-.359,2.055h1.445l-.242,1.406H150.57l-.8,4.734a1.618,1.618,0,0,0-.008.352q.047.508.625.531a3.53,3.53,0,0,0,.656-.07l-.125,1.484a4.245,4.245,0,0,1-1.164.164,1.729,1.729,0,0,1-1.449-.66,2.389,2.389,0,0,1-.379-1.707l.789-4.828h-1.352l.25-1.406h1.344l.359-2.055ZM156.1,41.156a3.541,3.541,0,0,1-1.91-.555,3.156,3.156,0,0,1-1.2-1.453,4.32,4.32,0,0,1-.293-2.055l.023-.32a5.657,5.657,0,0,1,.754-2.316,4.3,4.3,0,0,1,1.527-1.559,3.713,3.713,0,0,1,1.984-.508,2.769,2.769,0,0,1,2.379,1.182,4.337,4.337,0,0,1,.6,3l-.109.814h-5.32A2.3,2.3,0,0,0,154.945,39a1.61,1.61,0,0,0,1.313.631,2.847,2.847,0,0,0,2.2-1.039l.938.984a3.563,3.563,0,0,1-1.4,1.176A4.166,4.166,0,0,1,156.1,41.156Zm.789-7.25q-1.469-.047-2.2,2.078l3.508.008.031-.164a2.451,2.451,0,0,0,.008-.7,1.438,1.438,0,0,0-.437-.875A1.385,1.385,0,0,0,156.891,33.906Zm15.477,1.016h-6.734V33.328h6.734Zm0,3.3h-6.734v-1.57h6.734Zm6.391-2.859.617-5.734h6.109v1.641h-4.531l-.312,2.719a3.512,3.512,0,0,1,1.781-.453,3.169,3.169,0,0,1,2.527,1.039,4.118,4.118,0,0,1,.9,2.8,3.79,3.79,0,0,1-1,2.762,3.65,3.65,0,0,1-2.742,1.027,3.822,3.822,0,0,1-2.59-.887,3.206,3.206,0,0,1-1.113-2.34h1.836a2,2,0,0,0,.594,1.27,1.806,1.806,0,0,0,1.266.441,1.632,1.632,0,0,0,1.363-.625,2.7,2.7,0,0,0,.488-1.7,2.384,2.384,0,0,0-.539-1.645,1.885,1.885,0,0,0-1.484-.605,2.074,2.074,0,0,0-1.656.672ZM192.484,41h-1.891V31.862l-2.789.951V31.219l4.438-1.633h.242Zm11.367-4.789a6.2,6.2,0,0,1-.918,3.7,3.242,3.242,0,0,1-2.793,1.246,3.285,3.285,0,0,1-2.777-1.215,5.94,5.94,0,0,1-.957-3.6V34.375a6.11,6.11,0,0,1,.918-3.68,3.827,3.827,0,0,1,5.586-.031,5.923,5.923,0,0,1,.941,3.578Zm-1.9-2.125a4.813,4.813,0,0,0-.437-2.348,1.672,1.672,0,0,0-2.758-.039,4.448,4.448,0,0,0-.461,2.207v2.578a4.937,4.937,0,0,0,.445,2.375,1.5,1.5,0,0,0,1.4.781,1.469,1.469,0,0,0,1.352-.723,4.645,4.645,0,0,0,.461-2.262Zm10.992,2.125a6.2,6.2,0,0,1-.918,3.7,3.242,3.242,0,0,1-2.793,1.246,3.285,3.285,0,0,1-2.777-1.215,5.94,5.94,0,0,1-.957-3.6V34.375a6.11,6.11,0,0,1,.918-3.68A3.827,3.827,0,0,1,212,30.664a5.923,5.923,0,0,1,.941,3.578Zm-1.9-2.125a4.813,4.813,0,0,0-.437-2.348,1.672,1.672,0,0,0-2.758-.039,4.448,4.448,0,0,0-.461,2.207v2.578a4.937,4.937,0,0,0,.445,2.375,1.5,1.5,0,0,0,1.4.781,1.469,1.469,0,0,0,1.352-.723,4.645,4.645,0,0,0,.461-2.262Zm10.031-1.547-.164.9a3.259,3.259,0,0,1,2.5-1.047,2.427,2.427,0,0,1,1.324.367,1.738,1.738,0,0,1,.715.93,3.406,3.406,0,0,1,2.688-1.3,2.195,2.195,0,0,1,1.832.848,3.235,3.235,0,0,1,.449,2.285L229.508,41h-1.852l.922-5.492a2.879,2.879,0,0,0,.008-.633,1.034,1.034,0,0,0-1.156-.937,1.949,1.949,0,0,0-1.812,1.258l-.023.172L224.625,41h-1.859l.922-5.469a2.806,2.806,0,0,0,.008-.625,1.043,1.043,0,0,0-1.156-.969,2.042,2.042,0,0,0-1.734.93L219.734,41h-1.852l1.461-8.453Zm10.813,4.227a6.538,6.538,0,0,1,.684-2.289,4.135,4.135,0,0,1,1.348-1.566,3.18,3.18,0,0,1,1.859-.527,2.494,2.494,0,0,1,2.1,1.023l.289-.867,1.688.008-1.4,8.219a3.99,3.99,0,0,1-4.219,3.57,3.945,3.945,0,0,1-1.687-.406,3.508,3.508,0,0,1-1.281-1.031l.984-1.117a2.372,2.372,0,0,0,1.938,1.055,2.271,2.271,0,0,0,1.559-.5,2.585,2.585,0,0,0,.871-1.5l.133-.594a2.991,2.991,0,0,1-2.219.914,2.367,2.367,0,0,1-1.9-.9,3.974,3.974,0,0,1-.785-2.375A7.806,7.806,0,0,1,231.891,36.766Zm1.836.164a5.713,5.713,0,0,0-.031.859,2.23,2.23,0,0,0,.375,1.313,1.258,1.258,0,0,0,1.023.508,2.186,2.186,0,0,0,1.844-.977L237.6,34.9a1.508,1.508,0,0,0-1.445-.961,1.928,1.928,0,0,0-1.578.727,4.071,4.071,0,0,0-.836,2.1Zm7.016,5.047h-1.531L245.7,29.625h1.539Zm10.875-3.32q.133-.773-1-1.074a12.763,12.763,0,0,1-1.551-.48,2.138,2.138,0,0,1-1.555-2.094,2.378,2.378,0,0,1,1.035-1.887,3.794,3.794,0,0,1,2.387-.73,3.266,3.266,0,0,1,2.191.758,2.417,2.417,0,0,1,.832,1.945l-1.836-.008a1.185,1.185,0,0,0-.32-.918,1.307,1.307,0,0,0-.922-.348,1.817,1.817,0,0,0-1.059.3,1.136,1.136,0,0,0-.512.8q-.109.711,1,.988a10.976,10.976,0,0,1,1.641.512,2.14,2.14,0,0,1,1.492,2.125,2.336,2.336,0,0,1-.527,1.4,3.077,3.077,0,0,1-1.309.914,4.477,4.477,0,0,1-1.742.293,3.437,3.437,0,0,1-2.293-.8,2.512,2.512,0,0,1-.895-2.023l1.789.008a1.361,1.361,0,0,0,.406,1.031,1.57,1.57,0,0,0,1.07.359,2.126,2.126,0,0,0,1.145-.285A1.094,1.094,0,0,0,251.617,38.656Zm10.844-3.344,1.992-2.766h2.164l-3.234,4.25,1.883,4.2h-1.937l-1.18-2.883L260.07,41h-2.156l3.336-4.375-1.82-4.078h1.938Zm10.883-.867H274.5a2.069,2.069,0,0,0,1.387-.453A1.617,1.617,0,0,0,276.4,32.7a1.762,1.762,0,0,0-.426-1.262,1.714,1.714,0,0,0-1.3-.449,1.813,1.813,0,0,0-1.258.441,1.475,1.475,0,0,0-.492,1.152h-1.9a2.873,2.873,0,0,1,.465-1.594,3.123,3.123,0,0,1,1.3-1.121,4.225,4.225,0,0,1,1.863-.4,3.912,3.912,0,0,1,2.676.855A3,3,0,0,1,278.3,32.7a2.417,2.417,0,0,1-.488,1.441,3.062,3.062,0,0,1-1.262,1.02,2.791,2.791,0,0,1,1.426,1.008,2.759,2.759,0,0,1,.488,1.641,3.055,3.055,0,0,1-1.051,2.438,4.613,4.613,0,0,1-5.449.031,2.882,2.882,0,0,1-1.047-2.328h1.9a1.588,1.588,0,0,0,.5,1.219,1.911,1.911,0,0,0,1.355.469,1.971,1.971,0,0,0,1.391-.469,1.758,1.758,0,0,0,.508-1.359,1.776,1.776,0,0,0-.531-1.383,2.271,2.271,0,0,0-1.578-.484h-1.117Zm14.313,1.766a6.2,6.2,0,0,1-.918,3.7,3.242,3.242,0,0,1-2.793,1.246,3.285,3.285,0,0,1-2.777-1.215,5.94,5.94,0,0,1-.957-3.6V34.375a6.11,6.11,0,0,1,.918-3.68,3.827,3.827,0,0,1,5.586-.031,5.924,5.924,0,0,1,.941,3.578Zm-1.9-2.125a4.813,4.813,0,0,0-.437-2.348,1.672,1.672,0,0,0-2.758-.039,4.448,4.448,0,0,0-.461,2.207v2.578a4.937,4.937,0,0,0,.445,2.375,1.5,1.5,0,0,0,1.4.781,1.469,1.469,0,0,0,1.352-.723,4.645,4.645,0,0,0,.461-2.262Zm10.992,2.125a6.2,6.2,0,0,1-.918,3.7,3.242,3.242,0,0,1-2.793,1.246,3.285,3.285,0,0,1-2.777-1.215,5.94,5.94,0,0,1-.957-3.6V34.375a6.11,6.11,0,0,1,.918-3.68,3.827,3.827,0,0,1,5.586-.031,5.924,5.924,0,0,1,.941,3.578Zm-1.9-2.125a4.813,4.813,0,0,0-.437-2.348,1.672,1.672,0,0,0-2.758-.039,4.448,4.448,0,0,0-.461,2.207v2.578a4.937,4.937,0,0,0,.445,2.375,1.5,1.5,0,0,0,1.4.781,1.469,1.469,0,0,0,1.352-.723,4.645,4.645,0,0,0,.461-2.262Zm11.891,4.57q.133-.773-1-1.074a12.762,12.762,0,0,1-1.551-.48,2.138,2.138,0,0,1-1.555-2.094,2.378,2.378,0,0,1,1.035-1.887,3.794,3.794,0,0,1,2.387-.73,3.266,3.266,0,0,1,2.191.758,2.417,2.417,0,0,1,.832,1.945l-1.836-.008a1.185,1.185,0,0,0-.32-.918A1.307,1.307,0,0,0,306,33.82a1.817,1.817,0,0,0-1.059.3,1.135,1.135,0,0,0-.512.8q-.109.711,1,.988a10.975,10.975,0,0,1,1.641.512,2.14,2.14,0,0,1,1.492,2.125,2.336,2.336,0,0,1-.527,1.4,3.077,3.077,0,0,1-1.309.914,4.477,4.477,0,0,1-1.742.293,3.437,3.437,0,0,1-2.293-.8,2.512,2.512,0,0,1-.895-2.023l1.789.008a1.361,1.361,0,0,0,.406,1.031,1.57,1.57,0,0,0,1.07.359,2.126,2.126,0,0,0,1.145-.285A1.094,1.094,0,0,0,306.742,38.656ZM4.734,53.625l1.664,8.7,4.68-8.7h2.531L11.641,65H9.719l.664-3.852,1.008-4.742L6.7,65H5.313L3.57,56.148l-.711,5.2L2.227,65H.3L2.281,53.625ZM18.813,65a2.507,2.507,0,0,1-.078-.789,3.134,3.134,0,0,1-2.258.945,2.589,2.589,0,0,1-1.824-.707,2.18,2.18,0,0,1-.676-1.754,2.588,2.588,0,0,1,1.156-2.1,5.034,5.034,0,0,1,2.938-.766l1.2.016.109-.578a1.744,1.744,0,0,0,0-.57,1.017,1.017,0,0,0-1.117-.867,1.685,1.685,0,0,0-1.043.3,1.3,1.3,0,0,0-.551.848l-1.852.016a2.318,2.318,0,0,1,.555-1.371A3.289,3.289,0,0,1,16.7,56.7a4.5,4.5,0,0,1,1.75-.312,2.956,2.956,0,0,1,2.156.832A2.466,2.466,0,0,1,21.25,59.3L20.6,63.258l-.062.7a2.5,2.5,0,0,0,.117.9L20.648,65Zm-1.906-1.359a2.041,2.041,0,0,0,1.086-.27,2.861,2.861,0,0,0,.852-.738l.289-1.6-.883-.008a3.1,3.1,0,0,0-1.672.395,1.447,1.447,0,0,0-.711,1.082.957.957,0,0,0,.23.824A1.127,1.127,0,0,0,16.906,63.641Zm10.414-.984q.133-.773-1-1.074a12.763,12.763,0,0,1-1.551-.48,2.138,2.138,0,0,1-1.555-2.094,2.378,2.378,0,0,1,1.035-1.887,3.794,3.794,0,0,1,2.387-.73,3.266,3.266,0,0,1,2.191.758,2.417,2.417,0,0,1,.832,1.945l-1.836-.008a1.185,1.185,0,0,0-.32-.918,1.307,1.307,0,0,0-.922-.348,1.817,1.817,0,0,0-1.059.3,1.135,1.135,0,0,0-.512.8q-.109.711,1,.988a10.976,10.976,0,0,1,1.641.512,2.14,2.14,0,0,1,1.492,2.125,2.336,2.336,0,0,1-.527,1.4,3.077,3.077,0,0,1-1.309.914,4.477,4.477,0,0,1-1.742.293,3.437,3.437,0,0,1-2.293-.8,2.512,2.512,0,0,1-.895-2.023l1.789.008a1.361,1.361,0,0,0,.406,1.031,1.57,1.57,0,0,0,1.07.359,2.126,2.126,0,0,0,1.145-.285A1.094,1.094,0,0,0,27.32,62.656ZM35.375,65a2.507,2.507,0,0,1-.078-.789,3.134,3.134,0,0,1-2.258.945,2.589,2.589,0,0,1-1.824-.707,2.18,2.18,0,0,1-.676-1.754,2.588,2.588,0,0,1,1.156-2.1,5.034,5.034,0,0,1,2.938-.766l1.2.016.109-.578a1.744,1.744,0,0,0,0-.57,1.017,1.017,0,0,0-1.117-.867,1.685,1.685,0,0,0-1.043.3,1.3,1.3,0,0,0-.551.848l-1.852.016a2.318,2.318,0,0,1,.555-1.371,3.289,3.289,0,0,1,1.328-.918,4.5,4.5,0,0,1,1.75-.312,2.956,2.956,0,0,1,2.156.832,2.466,2.466,0,0,1,.641,2.074l-.648,3.961-.062.7a2.5,2.5,0,0,0,.117.9L37.211,65Zm-1.906-1.359a2.041,2.041,0,0,0,1.086-.27,2.861,2.861,0,0,0,.852-.738l.289-1.6-.883-.008a3.1,3.1,0,0,0-1.672.395A1.447,1.447,0,0,0,32.43,62.5a.957.957,0,0,0,.23.824A1.127,1.127,0,0,0,33.469,63.641Zm9.711-2.875a6.7,6.7,0,0,1,.7-2.344,3.968,3.968,0,0,1,1.352-1.551,3.121,3.121,0,0,1,1.789-.488,2.5,2.5,0,0,1,2.016.961L49.852,53h1.859L49.625,65H47.969l.125-.875a2.946,2.946,0,0,1-2.312,1.039,2.325,2.325,0,0,1-1.887-.91,3.975,3.975,0,0,1-.762-2.379,6.316,6.316,0,0,1,.023-.945Zm1.8.727a2.6,2.6,0,0,0,.3,1.539,1.2,1.2,0,0,0,1.059.586,2.175,2.175,0,0,0,1.852-1.039l.633-3.633A1.445,1.445,0,0,0,47.4,57.938a1.9,1.9,0,0,0-1.711.938A5,5,0,0,0,44.977,61.492Zm10.461,3.664a3.541,3.541,0,0,1-1.91-.555,3.156,3.156,0,0,1-1.2-1.453,4.32,4.32,0,0,1-.293-2.055l.023-.32a5.657,5.657,0,0,1,.754-2.316A4.3,4.3,0,0,1,54.344,56.9a3.713,3.713,0,0,1,1.984-.508,2.769,2.769,0,0,1,2.379,1.182,4.337,4.337,0,0,1,.6,3l-.109.814h-5.32A2.3,2.3,0,0,0,54.281,63a1.61,1.61,0,0,0,1.313.631,2.847,2.847,0,0,0,2.2-1.039l.938.984a3.563,3.563,0,0,1-1.4,1.176A4.166,4.166,0,0,1,55.438,65.156Zm.789-7.25q-1.469-.047-2.2,2.078l3.508.008.031-.164a2.451,2.451,0,0,0,.008-.7,1.438,1.438,0,0,0-.437-.875A1.385,1.385,0,0,0,56.227,57.906Zm11.422,5.742a1.81,1.81,0,0,0,1.828-1.437l1.75-.008a2.993,2.993,0,0,1-.605,1.523,3.52,3.52,0,0,1-1.332,1.07,3.7,3.7,0,0,1-1.7.359,3.184,3.184,0,0,1-1.852-.562,3.11,3.11,0,0,1-1.117-1.512,4.836,4.836,0,0,1-.234-2.152l.023-.273a5.531,5.531,0,0,1,.715-2.223,4.173,4.173,0,0,1,1.5-1.535,3.766,3.766,0,0,1,2.047-.508,2.957,2.957,0,0,1,2.2.91,3.215,3.215,0,0,1,.82,2.285H69.961a1.889,1.889,0,0,0-.355-1.187,1.3,1.3,0,0,0-1.027-.492,1.876,1.876,0,0,0-1.711.922,5.146,5.146,0,0,0-.672,2.688Q66.141,63.617,67.648,63.648Zm4.961-2.906a5.562,5.562,0,0,1,.73-2.258,4.335,4.335,0,0,1,1.535-1.57,3.794,3.794,0,0,1,2.078-.523,3.139,3.139,0,0,1,3.027,2.117,4.887,4.887,0,0,1,.254,2.172,5.665,5.665,0,0,1-.73,2.375,4.319,4.319,0,0,1-1.547,1.582,3.848,3.848,0,0,1-2.09.52,3.136,3.136,0,0,1-3.016-2.105,4.824,4.824,0,0,1-.266-2.145Zm1.82,1.07a2.232,2.232,0,0,0,.434,1.316,1.387,1.387,0,0,0,1.1.52,1.948,1.948,0,0,0,1.6-.734,3.863,3.863,0,0,0,.809-2.07l.047-.766a2.7,2.7,0,0,0-.4-1.57,1.4,1.4,0,0,0-1.156-.6,2.024,2.024,0,0,0-1.875,1.164,4.349,4.349,0,0,0-.523,1.672A6.541,6.541,0,0,0,74.43,61.813Zm9.828-5.273-.187.992a3.226,3.226,0,0,1,2.508-1.141,2.044,2.044,0,0,1,1.758.848,3.383,3.383,0,0,1,.422,2.3L87.844,65H85.992l.922-5.484a2.806,2.806,0,0,0,.008-.625,1,1,0,0,0-1.109-.953,2.25,2.25,0,0,0-1.852,1.039L82.906,65H81.055l1.461-8.453Zm9.68-2.047-.359,2.055h1.445l-.242,1.406H93.328l-.8,4.734a1.619,1.619,0,0,0-.008.352q.047.508.625.531a3.529,3.529,0,0,0,.656-.07l-.125,1.484a4.245,4.245,0,0,1-1.164.164,1.729,1.729,0,0,1-1.449-.66,2.389,2.389,0,0,1-.379-1.707l.789-4.828H90.125l.25-1.406h1.344l.359-2.055ZM100.055,65a2.507,2.507,0,0,1-.078-.789,3.134,3.134,0,0,1-2.258.945,2.589,2.589,0,0,1-1.824-.707,2.18,2.18,0,0,1-.676-1.754,2.588,2.588,0,0,1,1.156-2.1,5.034,5.034,0,0,1,2.938-.766l1.2.016.109-.578a1.744,1.744,0,0,0,0-.57,1.017,1.017,0,0,0-1.117-.867,1.685,1.685,0,0,0-1.043.3,1.3,1.3,0,0,0-.551.848l-1.852.016a2.318,2.318,0,0,1,.555-1.371,3.289,3.289,0,0,1,1.328-.918,4.5,4.5,0,0,1,1.75-.312,2.956,2.956,0,0,1,2.156.832,2.466,2.466,0,0,1,.641,2.074l-.648,3.961-.062.7a2.5,2.5,0,0,0,.117.9l-.008.141Zm-1.906-1.359a2.041,2.041,0,0,0,1.086-.27,2.861,2.861,0,0,0,.852-.738l.289-1.6-.883-.008a3.1,3.1,0,0,0-1.672.395,1.447,1.447,0,0,0-.711,1.082.957.957,0,0,0,.23.824A1.127,1.127,0,0,0,98.148,63.641Zm8.555-7.1-.164.9a3.259,3.259,0,0,1,2.5-1.047,2.427,2.427,0,0,1,1.324.367,1.738,1.738,0,0,1,.715.93,3.406,3.406,0,0,1,2.688-1.3,2.195,2.195,0,0,1,1.832.848,3.235,3.235,0,0,1,.449,2.285L115.133,65h-1.852l.922-5.492a2.879,2.879,0,0,0,.008-.633,1.034,1.034,0,0,0-1.156-.937,1.949,1.949,0,0,0-1.812,1.258l-.023.172L110.25,65h-1.859l.922-5.469a2.806,2.806,0,0,0,.008-.625,1.043,1.043,0,0,0-1.156-.969,2.042,2.042,0,0,0-1.734.93L105.359,65h-1.852l1.461-8.453ZM119.063,65h-1.852l1.469-8.453h1.852Zm-.117-10.617a1.044,1.044,0,0,1,.281-.734,1.03,1.03,0,0,1,.758-.32.985.985,0,0,1,.754.277.96.96,0,0,1,.3.715.988.988,0,0,1-.293.734,1.074,1.074,0,0,1-.746.3,1,1,0,0,1-.75-.27A.929.929,0,0,1,118.945,54.383Zm5.367,2.156-.187.992a3.226,3.226,0,0,1,2.508-1.141,2.044,2.044,0,0,1,1.758.848,3.383,3.383,0,0,1,.422,2.3L127.9,65h-1.852l.922-5.484a2.806,2.806,0,0,0,.008-.625,1,1,0,0,0-1.109-.953,2.25,2.25,0,0,0-1.852,1.039L122.961,65h-1.852l1.461-8.453ZM134.867,65a2.507,2.507,0,0,1-.078-.789,3.134,3.134,0,0,1-2.258.945,2.589,2.589,0,0,1-1.824-.707,2.18,2.18,0,0,1-.676-1.754,2.588,2.588,0,0,1,1.156-2.1,5.034,5.034,0,0,1,2.938-.766l1.2.016.109-.578a1.744,1.744,0,0,0,0-.57,1.017,1.017,0,0,0-1.117-.867,1.685,1.685,0,0,0-1.043.3,1.3,1.3,0,0,0-.551.848l-1.852.016a2.318,2.318,0,0,1,.555-1.371,3.289,3.289,0,0,1,1.328-.918,4.5,4.5,0,0,1,1.75-.312,2.956,2.956,0,0,1,2.156.832A2.466,2.466,0,0,1,137.3,59.3l-.648,3.961-.062.7a2.5,2.5,0,0,0,.117.9L136.7,65Zm-1.906-1.359a2.041,2.041,0,0,0,1.086-.27,2.862,2.862,0,0,0,.852-.738l.289-1.6-.883-.008a3.1,3.1,0,0,0-1.672.395,1.447,1.447,0,0,0-.711,1.082.957.957,0,0,0,.23.824A1.127,1.127,0,0,0,132.961,63.641Zm8.539-7.1-.187.992a3.226,3.226,0,0,1,2.508-1.141,2.044,2.044,0,0,1,1.758.848,3.383,3.383,0,0,1,.422,2.3L145.086,65h-1.852l.922-5.484a2.806,2.806,0,0,0,.008-.625,1,1,0,0,0-1.109-.953,2.25,2.25,0,0,0-1.852,1.039L140.148,65H138.3l1.461-8.453Zm9.68-2.047-.359,2.055h1.445l-.242,1.406H150.57l-.8,4.734a1.618,1.618,0,0,0-.008.352q.047.508.625.531a3.53,3.53,0,0,0,.656-.07l-.125,1.484a4.245,4.245,0,0,1-1.164.164,1.729,1.729,0,0,1-1.449-.66,2.389,2.389,0,0,1-.379-1.707l.789-4.828h-1.352l.25-1.406h1.344l.359-2.055ZM156.1,65.156a3.541,3.541,0,0,1-1.91-.555,3.156,3.156,0,0,1-1.2-1.453,4.32,4.32,0,0,1-.293-2.055l.023-.32a5.657,5.657,0,0,1,.754-2.316,4.3,4.3,0,0,1,1.527-1.559,3.713,3.713,0,0,1,1.984-.508,2.769,2.769,0,0,1,2.379,1.182,4.337,4.337,0,0,1,.6,3l-.109.814h-5.32A2.3,2.3,0,0,0,154.945,63a1.61,1.61,0,0,0,1.313.631,2.847,2.847,0,0,0,2.2-1.039l.938.984a3.563,3.563,0,0,1-1.4,1.176A4.166,4.166,0,0,1,156.1,65.156Zm.789-7.25q-1.469-.047-2.2,2.078l3.508.008.031-.164a2.451,2.451,0,0,0,.008-.7,1.438,1.438,0,0,0-.437-.875A1.385,1.385,0,0,0,156.891,57.906Zm15.516,1.016h-6.734V57.328h6.734Zm0,3.3h-6.734v-1.57h6.734ZM183.43,65h-1.891V55.862l-2.789.951V55.219l4.438-1.633h.242Zm5.188-11.023-.2,3.055h-1.242V53h1.445Zm1.977,5.383.617-5.734h6.109v1.641h-4.531l-.312,2.719a3.512,3.512,0,0,1,1.781-.453,3.169,3.169,0,0,1,2.527,1.039,4.118,4.118,0,0,1,.9,2.8,3.79,3.79,0,0,1-1,2.762,3.65,3.65,0,0,1-2.742,1.027,3.822,3.822,0,0,1-2.59-.887,3.206,3.206,0,0,1-1.113-2.34h1.836a2,2,0,0,0,.594,1.27,1.806,1.806,0,0,0,1.266.441,1.632,1.632,0,0,0,1.363-.625,2.7,2.7,0,0,0,.488-1.7,2.384,2.384,0,0,0-.539-1.645,1.885,1.885,0,0,0-1.484-.605,2.074,2.074,0,0,0-1.656.672Zm10.781-.914h1.156a2.069,2.069,0,0,0,1.387-.453,1.617,1.617,0,0,0,.512-1.289A1.762,1.762,0,0,0,204,55.441a1.714,1.714,0,0,0-1.3-.449,1.813,1.813,0,0,0-1.258.441,1.475,1.475,0,0,0-.492,1.152h-1.9a2.874,2.874,0,0,1,.465-1.594,3.123,3.123,0,0,1,1.3-1.121,4.225,4.225,0,0,1,1.863-.4,3.912,3.912,0,0,1,2.676.855,3,3,0,0,1,.973,2.379,2.417,2.417,0,0,1-.488,1.441,3.062,3.062,0,0,1-1.262,1.02A2.791,2.791,0,0,1,206,60.172a2.759,2.759,0,0,1,.488,1.641,3.055,3.055,0,0,1-1.051,2.438,4.613,4.613,0,0,1-5.449.031,2.882,2.882,0,0,1-1.047-2.328h1.9a1.588,1.588,0,0,0,.5,1.219,1.911,1.911,0,0,0,1.355.469,1.971,1.971,0,0,0,1.391-.469,1.758,1.758,0,0,0,.508-1.359,1.776,1.776,0,0,0-.531-1.383,2.271,2.271,0,0,0-1.578-.484h-1.117Zm14.313,1.766a6.2,6.2,0,0,1-.918,3.7,3.242,3.242,0,0,1-2.793,1.246,3.285,3.285,0,0,1-2.777-1.215,5.94,5.94,0,0,1-.957-3.6V58.375a6.11,6.11,0,0,1,.918-3.68,3.827,3.827,0,0,1,5.586-.031,5.923,5.923,0,0,1,.941,3.578Zm-1.9-2.125a4.813,4.813,0,0,0-.437-2.348,1.672,1.672,0,0,0-2.758-.039,4.448,4.448,0,0,0-.461,2.207v2.578a4.937,4.937,0,0,0,.445,2.375,1.5,1.5,0,0,0,1.4.781,1.469,1.469,0,0,0,1.352-.723,4.645,4.645,0,0,0,.461-2.262ZM218.672,63a1.084,1.084,0,0,1,.82.3,1.045,1.045,0,0,1,.289.754,1.008,1.008,0,0,1-.289.738,1.28,1.28,0,0,1-1.625,0,.991.991,0,0,1-.3-.742,1.045,1.045,0,0,1,.289-.754A1.074,1.074,0,0,1,218.672,63Zm10.578-2.789a6.2,6.2,0,0,1-.918,3.7,3.242,3.242,0,0,1-2.793,1.246,3.285,3.285,0,0,1-2.777-1.215,5.94,5.94,0,0,1-.957-3.6V58.375a6.11,6.11,0,0,1,.918-3.68,3.827,3.827,0,0,1,5.586-.031,5.923,5.923,0,0,1,.941,3.578Zm-1.9-2.125a4.813,4.813,0,0,0-.437-2.348,1.672,1.672,0,0,0-2.758-.039,4.448,4.448,0,0,0-.461,2.207v2.578a4.937,4.937,0,0,0,.445,2.375,1.5,1.5,0,0,0,1.4.781,1.469,1.469,0,0,0,1.352-.723,4.645,4.645,0,0,0,.461-2.262Zm10.992,2.125a6.2,6.2,0,0,1-.918,3.7,3.242,3.242,0,0,1-2.793,1.246,3.285,3.285,0,0,1-2.777-1.215,5.94,5.94,0,0,1-.957-3.6V58.375a6.11,6.11,0,0,1,.918-3.68,3.827,3.827,0,0,1,5.586-.031,5.923,5.923,0,0,1,.941,3.578Zm-1.9-2.125a4.813,4.813,0,0,0-.437-2.348,1.672,1.672,0,0,0-2.758-.039,4.448,4.448,0,0,0-.461,2.207v2.578a4.937,4.937,0,0,0,.445,2.375,1.5,1.5,0,0,0,1.4.781,1.469,1.469,0,0,0,1.352-.723,4.645,4.645,0,0,0,.461-2.262Zm10.992,2.125a6.2,6.2,0,0,1-.918,3.7,3.242,3.242,0,0,1-2.793,1.246,3.285,3.285,0,0,1-2.777-1.215,5.94,5.94,0,0,1-.957-3.6V58.375a6.11,6.11,0,0,1,.918-3.68,3.827,3.827,0,0,1,5.586-.031,5.923,5.923,0,0,1,.941,3.578Zm-1.9-2.125a4.813,4.813,0,0,0-.437-2.348,1.672,1.672,0,0,0-2.758-.039,4.448,4.448,0,0,0-.461,2.207v2.578a4.937,4.937,0,0,0,.445,2.375,1.5,1.5,0,0,0,1.4.781,1.469,1.469,0,0,0,1.352-.723,4.645,4.645,0,0,0,.461-2.262Zm9.992-1.547-.164.9a3.259,3.259,0,0,1,2.5-1.047,2.427,2.427,0,0,1,1.324.367,1.738,1.738,0,0,1,.715.93,3.406,3.406,0,0,1,2.688-1.3,2.195,2.195,0,0,1,1.832.848,3.235,3.235,0,0,1,.449,2.285L263.961,65h-1.852l.922-5.492a2.879,2.879,0,0,0,.008-.633,1.034,1.034,0,0,0-1.156-.937A1.949,1.949,0,0,0,260.07,59.2l-.023.172L259.078,65h-1.859l.922-5.469a2.806,2.806,0,0,0,.008-.625,1.043,1.043,0,0,0-1.156-.969,2.042,2.042,0,0,0-1.734.93L254.188,65h-1.852l1.461-8.453Zm10.813,4.227a6.538,6.538,0,0,1,.684-2.289,4.135,4.135,0,0,1,1.348-1.566,3.18,3.18,0,0,1,1.859-.527,2.494,2.494,0,0,1,2.1,1.023l.289-.867,1.688.008-1.4,8.219a3.99,3.99,0,0,1-4.219,3.57,3.945,3.945,0,0,1-1.687-.406,3.508,3.508,0,0,1-1.281-1.031l.984-1.117a2.372,2.372,0,0,0,1.938,1.055,2.271,2.271,0,0,0,1.559-.5,2.585,2.585,0,0,0,.871-1.5l.133-.594a2.991,2.991,0,0,1-2.219.914,2.367,2.367,0,0,1-1.9-.9,3.974,3.974,0,0,1-.785-2.375A7.808,7.808,0,0,1,266.344,60.766Zm1.836.164a5.715,5.715,0,0,0-.031.859,2.23,2.23,0,0,0,.375,1.313,1.258,1.258,0,0,0,1.023.508,2.185,2.185,0,0,0,1.844-.977l.664-3.734a1.508,1.508,0,0,0-1.445-.961,1.928,1.928,0,0,0-1.578.727,4.071,4.071,0,0,0-.836,2.1Z" transform="translate(520 34061)" fill="#12263f"/>
    <g id="mathematics" transform="translate(434 34065.801)">
      <path id="Trazado_732657" data-name="Trazado 732657" d="M142.833,7.164H110.552a6.053,6.053,0,0,0-6.053,6.053v11.1h21.184a6.053,6.053,0,0,1,6.052,6.053v1.009h3.027L140.95,42.2a1.008,1.008,0,0,0,1.882-.5V31.375a6.053,6.053,0,0,0,6.053-6.053v-12.1a6.052,6.052,0,0,0-6.052-6.053Zm0,0" transform="translate(-89.368 -5.956)" fill="#c2d197"/>
      <path id="Trazado_732658" data-name="Trazado 732658" d="M315.518,140.54a1.009,1.009,0,1,1-1.009-1.008A1.009,1.009,0,0,1,315.518,140.54Zm0,0" transform="translate(-268.106 -119.156)" fill="#9cb16a"/>
      <path id="Trazado_732659" data-name="Trazado 732659" d="M343.385,140.54a1.009,1.009,0,1,1-1.008-1.008A1.009,1.009,0,0,1,343.385,140.54Zm0,0" transform="translate(-291.938 -119.156)" fill="#9cb16a"/>
      <path id="Trazado_732660" data-name="Trazado 732660" d="M371.252,140.54a1.009,1.009,0,1,1-1.009-1.008A1.009,1.009,0,0,1,371.252,140.54Zm0,0" transform="translate(-315.769 -119.156)" fill="#9cb16a"/>
      <path id="Trazado_732661" data-name="Trazado 732661" d="M138.05,62.911a1.009,1.009,0,0,0-1.426,0l-1.3,1.3-1.3-1.3a1.009,1.009,0,1,0-1.451,1.4l.024.025,1.3,1.3-1.3,1.3a1.009,1.009,0,0,0,1.4,1.451l.025-.025,1.3-1.3,1.3,1.3a1.009,1.009,0,0,0,1.426-1.427l-1.3-1.3,1.3-1.3a1,1,0,0,0,.017-1.421A.016.016,0,0,0,138.05,62.911Zm0,0" transform="translate(-113.126 -53.367)" fill="#9cb16a"/>
      <path id="Trazado_732662" data-name="Trazado 732662" d="M198.763,46.88a1.008,1.008,0,0,0-1.009-1.009h-9.079a1.009,1.009,0,0,0-1,.865l-.552,3.864-.568-1.147a1.009,1.009,0,1,0-1.805.9l2.018,4.035a1.009,1.009,0,0,0,.9.558.965.965,0,0,0,.161-.014,1.008,1.008,0,0,0,.837-.854l.885-6.195h8.2A1.008,1.008,0,0,0,198.763,46.88Zm0,0" transform="translate(-157.908 -39.058)" fill="#9cb16a"/>
      <path id="Trazado_732663" data-name="Trazado 732663" d="M230.751,70.212l-1.281,1.254-1.226-1.311a1.009,1.009,0,1,0-1.472,1.38l1.255,1.344-1.311,1.284a1.01,1.01,0,0,0,1.412,1.443l4.035-3.95a1.009,1.009,0,0,0-1.412-1.443Zm0,0" transform="translate(-193.628 -59.553)" fill="#9cb16a"/>
      <path id="Trazado_732664" data-name="Trazado 732664" d="M280.228,68.787h-1.009V67.779a1.009,1.009,0,1,0-2.018,0v1.009h-1.009a1.009,1.009,0,0,0,0,2.018H277.2v1.009a1.009,1.009,0,0,0,2.018,0V70.8h1.009a1.009,1.009,0,1,0,0-2.018Zm0,0" transform="translate(-235.338 -56.931)" fill="#9cb16a"/>
      <path id="Trazado_732665" data-name="Trazado 732665" d="M332.478,70.8h-1.6l2.313-2.313a1.009,1.009,0,0,0-.713-1.722h-4.035a1.009,1.009,0,1,0,0,2.018h1.6L327.73,71.1a1.009,1.009,0,0,0,.713,1.722h4.035a1.009,1.009,0,1,0,0-2.018Zm0,0" transform="translate(-280.022 -56.931)" fill="#9cb16a"/>
      <path id="Trazado_732666" data-name="Trazado 732666" d="M126.693,114.543H104.5v1.6h21.184a6.053,6.053,0,0,1,6.053,6.053v1.009h1.008V120.6a6.052,6.052,0,0,0-6.053-6.052Zm0,0" transform="translate(-89.369 -97.786)" fill="#9cb16a"/>
      <path id="Trazado_732667" data-name="Trazado 732667" d="M138.05,52.147a1.009,1.009,0,0,0-1.426,0l-1.3,1.3-1.3-1.3a1.009,1.009,0,0,0-1.427,1.426l1.3,1.3-1.3,1.3a1.009,1.009,0,0,0,1.4,1.451l.025-.025,1.3-1.3,1.3,1.3a1.009,1.009,0,1,0,1.451-1.4l-.025-.025-1.3-1.3,1.3-1.3A1.008,1.008,0,0,0,138.05,52.147Zm0,0" transform="translate(-113.126 -44.173)" fill="#075057"/>
      <path id="Trazado_732668" data-name="Trazado 732668" d="M198.763,36.04a1.008,1.008,0,0,0-1.009-1.009h-9.079a1.009,1.009,0,0,0-1,.865l-.552,3.864-.568-1.146a1.009,1.009,0,1,0-1.805.9l2.018,4.035a1.009,1.009,0,0,0,.9.558,1.028,1.028,0,0,0,.161-.013,1.009,1.009,0,0,0,.838-.853l.885-6.2h8.2a1.008,1.008,0,0,0,1.008-1.009Zm0,0" transform="translate(-157.909 -29.788)" fill="#075057"/>
      <path id="Trazado_732669" data-name="Trazado 732669" d="M230.751,59.263l-1.281,1.255-1.226-1.312a1.009,1.009,0,0,0-1.507,1.341l.036.038,1.255,1.344-1.311,1.284a1.009,1.009,0,1,0,1.412,1.442l4.035-3.95a1.009,1.009,0,0,0-1.412-1.442Zm0,0" transform="translate(-193.628 -50.173)" fill="#075057"/>
      <path id="Trazado_732670" data-name="Trazado 732670" d="M280.228,57.947h-1.009V56.938a1.009,1.009,0,0,0-2.018,0v1.009h-1.009a1.009,1.009,0,0,0,0,2.018H277.2v1.009a1.009,1.009,0,0,0,2.018,0V59.965h1.009a1.009,1.009,0,1,0,0-2.018Zm0,0" transform="translate(-235.338 -47.66)" fill="#075057"/>
      <path id="Trazado_732671" data-name="Trazado 732671" d="M332.478,59.965h-1.6l2.313-2.313a1.009,1.009,0,0,0-.713-1.722h-4.035a1.009,1.009,0,1,0,0,2.018h1.6l-2.313,2.313a1.009,1.009,0,0,0,.713,1.722h4.035a1.009,1.009,0,1,0,0-2.018Zm0,0" transform="translate(-280.022 -47.66)" fill="#075057"/>
      <path id="Trazado_732672" data-name="Trazado 732672" d="M13.017,125.6H42.272a6.053,6.053,0,0,1,6.053,6.053v12.1a6.053,6.053,0,0,1-6.053,6.053H27.141l-12.4,12.4a1.009,1.009,0,0,1-1.723-.713V149.809a6.053,6.053,0,0,1-6.053-6.053v-12.1a6.053,6.053,0,0,1,6.053-6.053Zm0,0" transform="translate(-5.957 -107.241)" fill="#ffa031"/>
      <g id="Grupo_1013892" data-name="Grupo 1013892" transform="translate(4.035 21.383)">
        <path id="Trazado_732673" data-name="Trazado 732673" d="M33.92,204.248a1.009,1.009,0,0,0,0-2.018H28.876a1.008,1.008,0,0,0-1.009,1.009v8.07a1.009,1.009,0,0,0,1.009,1.009H33.92a1.009,1.009,0,0,0,0-2.018H29.885v-2.018h3.026a1.009,1.009,0,1,0,0-2.018H29.885v-2.018Zm0,0" transform="translate(-27.867 -194.16)" fill="#c66b00"/>
        <path id="Trazado_732674" data-name="Trazado 732674" d="M132.463,216.162a3.009,3.009,0,0,0-2.018.787,3.013,3.013,0,0,0-5.044,2.239v4.035a1.009,1.009,0,1,0,2.018,0v-4.035a1.009,1.009,0,0,1,2.018,0v4.035a1.009,1.009,0,1,0,2.018,0v-4.035a1.009,1.009,0,0,1,2.018,0v4.035a1.009,1.009,0,1,0,2.018,0v-4.035a3.027,3.027,0,0,0-3.027-3.026Zm0,0" transform="translate(-111.279 -206.074)" fill="#c66b00"/>
        <path id="Trazado_732675" data-name="Trazado 732675" d="M199.1,218.182h1.009a1.009,1.009,0,0,0,0-2.018H199.1a4.035,4.035,0,1,0,0,8.07h1.009a1.009,1.009,0,0,0,0-2.018H199.1a2.017,2.017,0,1,1,0-4.035Zm0,0" transform="translate(-170.856 -206.076)" fill="#c66b00"/>
        <path id="Trazado_732676" data-name="Trazado 732676" d="M227.978,153.558h-3.026a1.009,1.009,0,0,1,1.009-1.009,3.026,3.026,0,1,0-3.026-3.026,1.009,1.009,0,0,0,2.018,0,1.009,1.009,0,1,1,1.009,1.009,3.027,3.027,0,0,0-3.027,3.027v1.008a1.009,1.009,0,0,0,1.009,1.009h4.035a1.009,1.009,0,1,0,0-2.018Zm0,0" transform="translate(-194.688 -146.497)" fill="#c66b00"/>
        <path id="Trazado_732677" data-name="Trazado 732677" d="M86.628,223.129H84.61a1.009,1.009,0,0,0,0,2.018h2.018a1.009,1.009,0,1,0,0-2.018Zm0,0" transform="translate(-75.531 -212.033)" fill="#c66b00"/>
        <path id="Trazado_732678" data-name="Trazado 732678" d="M86.628,244.031H84.61a1.009,1.009,0,0,0,0,2.018h2.018a1.009,1.009,0,1,0,0-2.018Zm0,0" transform="translate(-75.531 -229.908)" fill="#c66b00"/>
        <path id="Trazado_732679" data-name="Trazado 732679" d="M57.752,161.438a1.009,1.009,0,1,1-1.009-1.009A1.009,1.009,0,0,1,57.752,161.438Zm0,0" transform="translate(-51.699 -158.412)" fill="#c66b00"/>
        <path id="Trazado_732680" data-name="Trazado 732680" d="M85.619,161.438a1.009,1.009,0,1,1-1.009-1.009A1.009,1.009,0,0,1,85.619,161.438Zm0,0" transform="translate(-75.531 -158.412)" fill="#c66b00"/>
        <path id="Trazado_732681" data-name="Trazado 732681" d="M113.483,161.438a1.009,1.009,0,1,1-1.009-1.009A1.009,1.009,0,0,1,113.483,161.438Zm0,0" transform="translate(-99.36 -158.412)" fill="#c66b00"/>
        <path id="Trazado_732682" data-name="Trazado 732682" d="M141.35,161.438a1.009,1.009,0,1,1-1.009-1.009A1.008,1.008,0,0,1,141.35,161.438Zm0,0" transform="translate(-123.192 -158.412)" fill="#c66b00"/>
        <path id="Trazado_732683" data-name="Trazado 732683" d="M169.217,161.438a1.009,1.009,0,1,1-1.008-1.009A1.008,1.008,0,0,1,169.217,161.438Zm0,0" transform="translate(-147.024 -158.412)" fill="#c66b00"/>
      </g>
      <path id="Trazado_732684" data-name="Trazado 732684" d="M33.92,197.279a1.009,1.009,0,0,0,0-2.018H28.876a1.009,1.009,0,0,0-1.009,1.009v8.07a1.008,1.008,0,0,0,1.009,1.009H33.92a1.009,1.009,0,0,0,0-2.018H29.885v-2.018h3.026a1.009,1.009,0,1,0,0-2.018H29.885v-2.018Zm0,0" transform="translate(-23.832 -166.817)" fill="#9e0c09"/>
      <path id="Trazado_732685" data-name="Trazado 732685" d="M132.463,209.195a3.009,3.009,0,0,0-2.018.787,3.013,3.013,0,0,0-5.044,2.24v4.035a1.009,1.009,0,1,0,2.018,0v-4.035a1.009,1.009,0,1,1,2.018,0v4.035a1.009,1.009,0,1,0,2.018,0v-4.035a1.009,1.009,0,1,1,2.018,0v4.035a1.009,1.009,0,1,0,2.018,0v-4.035a3.027,3.027,0,0,0-3.027-3.027Zm0,0" transform="translate(-107.244 -178.732)" fill="#9e0c09"/>
      <path id="Trazado_732686" data-name="Trazado 732686" d="M199.1,211.213h1.009a1.009,1.009,0,0,0,0-2.018H199.1a4.035,4.035,0,1,0,0,8.07h1.009a1.009,1.009,0,0,0,0-2.018H199.1a2.018,2.018,0,0,1,0-4.035Zm0,0" transform="translate(-166.821 -178.733)" fill="#9e0c09"/>
      <path id="Trazado_732687" data-name="Trazado 732687" d="M227.978,146.589h-3.026a1.009,1.009,0,0,1,1.009-1.009,3.026,3.026,0,1,0-3.026-3.026,1.009,1.009,0,1,0,2.018,0,1.009,1.009,0,1,1,1.009,1.009,3.026,3.026,0,0,0-3.027,3.026V147.6a1.009,1.009,0,0,0,1.009,1.009h4.035a1.009,1.009,0,1,0,0-2.018Zm0,0" transform="translate(-190.653 -119.153)" fill="#9e0c09"/>
      <path id="Trazado_732688" data-name="Trazado 732688" d="M86.628,216.164H84.61a1.009,1.009,0,0,0,0,2.018h2.018a1.009,1.009,0,1,0,0-2.018Zm0,0" transform="translate(-71.496 -184.693)" fill="#9e0c09"/>
      <path id="Trazado_732689" data-name="Trazado 732689" d="M86.628,237.063H84.61a1.009,1.009,0,0,0,0,2.018h2.018a1.009,1.009,0,1,0,0-2.018Zm0,0" transform="translate(-71.496 -202.565)" fill="#9e0c09"/>
      <path id="Trazado_732690" data-name="Trazado 732690" d="M315.518,133.571a1.009,1.009,0,1,1-1.009-1.009A1.008,1.008,0,0,1,315.518,133.571Zm0,0" transform="translate(-268.106 -113.196)" fill="#075057"/>
      <path id="Trazado_732691" data-name="Trazado 732691" d="M343.385,133.571a1.009,1.009,0,1,1-1.008-1.009A1.008,1.008,0,0,1,343.385,133.571Zm0,0" transform="translate(-291.938 -113.196)" fill="#075057"/>
      <path id="Trazado_732692" data-name="Trazado 732692" d="M371.252,133.571a1.009,1.009,0,1,1-1.009-1.009A1.009,1.009,0,0,1,371.252,133.571Zm0,0" transform="translate(-315.769 -113.196)" fill="#075057"/>
      <path id="Trazado_732693" data-name="Trazado 732693" d="M57.752,154.474a1.009,1.009,0,1,1-1.009-1.009A1.009,1.009,0,0,1,57.752,154.474Zm0,0" transform="translate(-47.664 -131.073)" fill="#9e0c09"/>
      <path id="Trazado_732694" data-name="Trazado 732694" d="M85.619,154.474a1.009,1.009,0,1,1-1.009-1.009A1.009,1.009,0,0,1,85.619,154.474Zm0,0" transform="translate(-71.496 -131.073)" fill="#9e0c09"/>
      <path id="Trazado_732695" data-name="Trazado 732695" d="M113.483,154.474a1.009,1.009,0,1,1-1.009-1.009A1.009,1.009,0,0,1,113.483,154.474Zm0,0" transform="translate(-95.325 -131.073)" fill="#9e0c09"/>
      <path id="Trazado_732696" data-name="Trazado 732696" d="M141.35,154.474a1.009,1.009,0,1,1-1.009-1.009A1.009,1.009,0,0,1,141.35,154.474Zm0,0" transform="translate(-119.157 -131.073)" fill="#9e0c09"/>
      <path id="Trazado_732697" data-name="Trazado 732697" d="M169.217,154.474a1.009,1.009,0,1,1-1.008-1.009A1.009,1.009,0,0,1,169.217,154.474Zm0,0" transform="translate(-142.989 -131.073)" fill="#9e0c09"/>
      <path id="Trazado_732698" data-name="Trazado 732698" d="M138.05,52.147a1.009,1.009,0,0,0-1.426,0l-1.3,1.3-1.3-1.3a1.009,1.009,0,0,0-1.427,1.426l1.3,1.3-1.3,1.3a1.009,1.009,0,0,0,1.4,1.451l.025-.025,1.3-1.3,1.3,1.3a1.009,1.009,0,1,0,1.451-1.4l-.025-.025-1.3-1.3,1.3-1.3A1.008,1.008,0,0,0,138.05,52.147Zm0,0" transform="translate(-113.126 -44.173)"/>
      <path id="Trazado_732699" data-name="Trazado 732699" d="M198.749,36.04a1.008,1.008,0,0,0-1.009-1.009h-9.079a1.009,1.009,0,0,0-1,.865l-.552,3.864-.568-1.146a1.009,1.009,0,1,0-1.812.888l.007.014,2.017,4.035a1.01,1.01,0,0,0,.9.558,1.022,1.022,0,0,0,.161-.013,1.009,1.009,0,0,0,.838-.853l.885-6.2h8.2a1.008,1.008,0,0,0,1.009-1.009Zm0,0" transform="translate(-157.894 -29.788)"/>
      <path id="Trazado_732700" data-name="Trazado 732700" d="M226.7,64.639a1.01,1.01,0,0,0,1.427.015l4.035-3.95a1.009,1.009,0,0,0-1.412-1.443l-1.281,1.255L228.247,59.2a1.009,1.009,0,1,0-1.507,1.341l.036.038,1.253,1.343-1.311,1.285a1.009,1.009,0,0,0-.015,1.427h0Zm0,0" transform="translate(-193.63 -50.172)"/>
      <path id="Trazado_732701" data-name="Trazado 732701" d="M278.21,61.982a1.009,1.009,0,0,0,1.008-1.009V59.965h1.009a1.009,1.009,0,0,0,0-2.018h-1.009V56.938a1.009,1.009,0,0,0-2.018,0v1.009h-1.009a1.009,1.009,0,0,0,0,2.018H277.2v1.009A1.009,1.009,0,0,0,278.21,61.982Zm0,0" transform="translate(-235.337 -47.66)"/>
      <path id="Trazado_732702" data-name="Trazado 732702" d="M333.486,60.974a1.009,1.009,0,0,0-1.009-1.009h-1.6l2.313-2.313a1.009,1.009,0,0,0-.713-1.722h-4.035a1.009,1.009,0,0,0,0,2.018h1.6l-2.313,2.313a1.009,1.009,0,0,0,.713,1.722h4.035A1.009,1.009,0,0,0,333.486,60.974Zm0,0" transform="translate(-280.021 -47.66)"/>
      <path id="Trazado_732703" data-name="Trazado 732703" d="M59.518,18.357a1.009,1.009,0,0,0-1.009,1.009,5.05,5.05,0,0,1-5.044,5.044,1.009,1.009,0,0,0-1.009,1.009V35.742L46.27,24.915a1.009,1.009,0,0,0-.876-.5H43.377a7.069,7.069,0,0,0-7.061-7.061H16.14V7.261a5.05,5.05,0,0,1,5.044-5.044H53.465a5.05,5.05,0,0,1,5.044,5.044,1.009,1.009,0,0,0,2.018,0A7.069,7.069,0,0,0,53.465.2H21.184a7.07,7.07,0,0,0-7.062,7.061V17.349H7.061A7.069,7.069,0,0,0,0,24.41a1.009,1.009,0,0,0,2.018,0,5.05,5.05,0,0,1,5.044-5.044H36.316a5.05,5.05,0,0,1,5.044,5.044v12.1a5.05,5.05,0,0,1-5.044,5.044H21.184a1.009,1.009,0,0,0-.713.3l-12.4,12.4V42.568a1.009,1.009,0,0,0-1.009-1.009,5.049,5.049,0,0,1-5.044-5.044,1.009,1.009,0,0,0-2.018,0,7.073,7.073,0,0,0,6.053,6.99V56.691a1.01,1.01,0,0,0,.622.932,1,1,0,0,0,.387.076,1.009,1.009,0,0,0,.713-.3L21.6,43.577H36.316a7.069,7.069,0,0,0,7.061-7.061V26.428H44.81l7.78,13.619a1.007,1.007,0,0,0,.876.5,1.056,1.056,0,0,0,.259-.033,1.008,1.008,0,0,0,.749-.976V26.356a7.073,7.073,0,0,0,6.053-6.989,1.008,1.008,0,0,0-1.009-1.009Zm0,0" transform="translate(0)"/>
      <path id="Trazado_732704" data-name="Trazado 732704" d="M27.867,196.27v8.07a1.009,1.009,0,0,0,1.009,1.009H33.92a1.009,1.009,0,0,0,0-2.018H29.885v-2.017h3.026a1.009,1.009,0,0,0,0-2.018H29.885v-2.018H33.92a1.009,1.009,0,0,0,0-2.018H28.876A1.009,1.009,0,0,0,27.867,196.27Zm0,0" transform="translate(-23.832 -166.817)"/>
      <path id="Trazado_732705" data-name="Trazado 732705" d="M125.4,212.222v4.035a1.009,1.009,0,0,0,2.018,0v-4.035a1.009,1.009,0,1,1,2.018,0v4.035a1.009,1.009,0,0,0,2.018,0v-4.035a1.009,1.009,0,1,1,2.018,0v4.035a1.009,1.009,0,0,0,2.018,0v-4.035a3.013,3.013,0,0,0-5.044-2.239,3.013,3.013,0,0,0-5.044,2.239Zm0,0" transform="translate(-107.244 -178.733)"/>
      <path id="Trazado_732706" data-name="Trazado 732706" d="M199.1,217.266h1.009a1.009,1.009,0,0,0,0-2.018H199.1a2.018,2.018,0,0,1,0-4.035h1.009a1.009,1.009,0,0,0,0-2.018H199.1a4.035,4.035,0,1,0,0,8.07Zm0,0" transform="translate(-166.821 -178.733)"/>
      <path id="Trazado_732707" data-name="Trazado 732707" d="M225.96,143.566a3.026,3.026,0,0,0-3.026,3.026V147.6a1.008,1.008,0,0,0,1.009,1.008h4.035a1.009,1.009,0,1,0,0-2.018h-3.026a1.008,1.008,0,0,1,1.008-1.008,3.026,3.026,0,1,0-3.026-3.027,1.009,1.009,0,1,0,2.018,0,1.009,1.009,0,1,1,1.009,1.009Zm0,0" transform="translate(-190.653 -119.156)"/>
      <path id="Trazado_732708" data-name="Trazado 732708" d="M84.61,218.182h2.018a1.009,1.009,0,1,0,0-2.018H84.61a1.009,1.009,0,0,0,0,2.018Zm0,0" transform="translate(-71.496 -184.693)"/>
      <path id="Trazado_732709" data-name="Trazado 732709" d="M84.61,239.08h2.018a1.009,1.009,0,1,0,0-2.018H84.61a1.009,1.009,0,0,0,0,2.018Zm0,0" transform="translate(-71.496 -202.565)"/>
      <path id="Trazado_732710" data-name="Trazado 732710" d="M315.518,126.607a1.009,1.009,0,1,1-1.009-1.009A1.009,1.009,0,0,1,315.518,126.607Zm0,0" transform="translate(-268.106 -107.241)"/>
      <path id="Trazado_732711" data-name="Trazado 732711" d="M343.385,126.607a1.009,1.009,0,1,1-1.008-1.009A1.009,1.009,0,0,1,343.385,126.607Zm0,0" transform="translate(-291.938 -107.241)"/>
      <path id="Trazado_732712" data-name="Trazado 732712" d="M371.252,126.607a1.009,1.009,0,1,1-1.009-1.009A1.009,1.009,0,0,1,371.252,126.607Zm0,0" transform="translate(-315.769 -107.241)"/>
      <path id="Trazado_732713" data-name="Trazado 732713" d="M57.752,154.474a1.009,1.009,0,1,1-1.009-1.009A1.009,1.009,0,0,1,57.752,154.474Zm0,0" transform="translate(-47.664 -131.073)"/>
      <path id="Trazado_732714" data-name="Trazado 732714" d="M85.619,154.474a1.009,1.009,0,1,1-1.009-1.009A1.009,1.009,0,0,1,85.619,154.474Zm0,0" transform="translate(-71.496 -131.073)"/>
      <path id="Trazado_732715" data-name="Trazado 732715" d="M113.483,154.474a1.009,1.009,0,1,1-1.009-1.009A1.009,1.009,0,0,1,113.483,154.474Zm0,0" transform="translate(-95.325 -131.073)"/>
      <path id="Trazado_732716" data-name="Trazado 732716" d="M141.35,154.474a1.009,1.009,0,1,1-1.009-1.009A1.009,1.009,0,0,1,141.35,154.474Zm0,0" transform="translate(-119.157 -131.073)"/>
      <path id="Trazado_732717" data-name="Trazado 732717" d="M169.215,154.586a1.009,1.009,0,1,0-1.118.886,1.009,1.009,0,0,0,1.118-.886Zm0,0" transform="translate(-142.993 -131.07)"/>
    </g>
  </g>
</svg>
