<svg xmlns="http://www.w3.org/2000/svg" width="170" height="61.223" viewBox="0 0 170 61.223">
  <g id="Grupo_1015992" data-name="Grupo 1015992" transform="translate(-745.5 -4195.433)">
    <path id="Trazado_737832" data-name="Trazado 737832" d="M3.428-7.374h1.3a2.328,2.328,0,0,0,1.56-.51,1.819,1.819,0,0,0,.576-1.45,1.982,1.982,0,0,0-.479-1.419,1.928,1.928,0,0,0-1.463-.505,2.039,2.039,0,0,0-1.415.5,1.659,1.659,0,0,0-.554,1.3H.817a3.233,3.233,0,0,1,.523-1.793A3.513,3.513,0,0,1,2.8-12.52a4.753,4.753,0,0,1,2.1-.453,4.4,4.4,0,0,1,3.01.962A3.377,3.377,0,0,1,9-9.334a2.719,2.719,0,0,1-.549,1.622A3.445,3.445,0,0,1,7.031-6.565a3.14,3.14,0,0,1,1.6,1.134,3.1,3.1,0,0,1,.549,1.846A3.437,3.437,0,0,1,8-.844,4.59,4.59,0,0,1,4.9.176,4.555,4.555,0,0,1,1.872-.809,3.242,3.242,0,0,1,.694-3.428H2.83A1.787,1.787,0,0,0,3.4-2.057a2.15,2.15,0,0,0,1.525.527,2.217,2.217,0,0,0,1.564-.527,1.978,1.978,0,0,0,.571-1.529,2,2,0,0,0-.6-1.556,2.555,2.555,0,0,0-1.775-.545H3.428ZM11.76-6.346l.694-6.451h6.873v1.846h-5.1l-.352,3.059a3.951,3.951,0,0,1,2-.51,3.565,3.565,0,0,1,2.843,1.169A4.632,4.632,0,0,1,19.74-4.087,4.264,4.264,0,0,1,18.615-.98,4.106,4.106,0,0,1,15.53.176a4.3,4.3,0,0,1-2.914-1,3.606,3.606,0,0,1-1.252-2.632H13.43A2.256,2.256,0,0,0,14.1-2.026a2.032,2.032,0,0,0,1.424.5,1.836,1.836,0,0,0,1.534-.7A3.035,3.035,0,0,0,17.6-4.148,2.682,2.682,0,0,0,17-6a2.121,2.121,0,0,0-1.67-.681,2.778,2.778,0,0,0-.984.154,2.788,2.788,0,0,0-.879.6Zm11.127,4.1a1.22,1.22,0,0,1,.923.338,1.175,1.175,0,0,1,.325.848,1.134,1.134,0,0,1-.325.831,1.238,1.238,0,0,1-.923.33,1.242,1.242,0,0,1-.905-.325,1.115,1.115,0,0,1-.334-.835,1.175,1.175,0,0,1,.325-.848A1.208,1.208,0,0,1,22.887-2.25Zm6.029-5.124h1.3a2.328,2.328,0,0,0,1.56-.51,1.819,1.819,0,0,0,.576-1.45,1.982,1.982,0,0,0-.479-1.419,1.928,1.928,0,0,0-1.463-.505,2.039,2.039,0,0,0-1.415.5,1.659,1.659,0,0,0-.554,1.3H26.306a3.233,3.233,0,0,1,.523-1.793,3.513,3.513,0,0,1,1.459-1.261,4.753,4.753,0,0,1,2.1-.453,4.4,4.4,0,0,1,3.01.962,3.377,3.377,0,0,1,1.094,2.676,2.719,2.719,0,0,1-.549,1.622A3.445,3.445,0,0,1,32.52-6.565a3.14,3.14,0,0,1,1.6,1.134,3.1,3.1,0,0,1,.549,1.846A3.437,3.437,0,0,1,33.491-.844,4.59,4.59,0,0,1,30.384.176,4.555,4.555,0,0,1,27.36-.809a3.242,3.242,0,0,1-1.178-2.619h2.136a1.787,1.787,0,0,0,.567,1.371,2.15,2.15,0,0,0,1.525.527,2.217,2.217,0,0,0,1.564-.527,1.978,1.978,0,0,0,.571-1.529,2,2,0,0,0-.6-1.556,2.555,2.555,0,0,0-1.775-.545H28.916ZM42.46,0H40.333V-10.281L37.2-9.211V-11l4.992-1.837h.272ZM59.432-4.72a7.829,7.829,0,0,1-.76,2.584A4.409,4.409,0,0,1,57.186-.382a3.434,3.434,0,0,1-2.017.567A2.983,2.983,0,0,1,52.831-.87l-.853,4.526H49.887L52.172-9.51l1.907-.009-.158.984a3.293,3.293,0,0,1,2.593-1.151,2.787,2.787,0,0,1,1.573.461A2.848,2.848,0,0,1,59.111-7.91a5.326,5.326,0,0,1,.382,1.916A11.684,11.684,0,0,1,59.432-4.72ZM57.375-4.9l.044-.642A3.115,3.115,0,0,0,57.045-7.3a1.369,1.369,0,0,0-1.2-.642,2.424,2.424,0,0,0-2.039,1.081l-.738,4.245a1.611,1.611,0,0,0,1.608,1.1,2.124,2.124,0,0,0,1.745-.809A5.064,5.064,0,0,0,57.375-4.9ZM62.657,0H60.574l1.652-9.51H64.31Zm-.132-11.944a1.175,1.175,0,0,1,.316-.826,1.159,1.159,0,0,1,.853-.36,1.108,1.108,0,0,1,.848.312,1.08,1.08,0,0,1,.338.8,1.111,1.111,0,0,1-.33.826,1.208,1.208,0,0,1-.839.343,1.127,1.127,0,0,1-.844-.3A1.045,1.045,0,0,1,62.525-11.944ZM69.293.176a3.984,3.984,0,0,1-2.149-.624A3.55,3.55,0,0,1,65.8-2.083a4.86,4.86,0,0,1-.33-2.312l.026-.36a6.365,6.365,0,0,1,.848-2.606,4.84,4.84,0,0,1,1.718-1.753,4.178,4.178,0,0,1,2.232-.571,3.115,3.115,0,0,1,2.676,1.329,4.879,4.879,0,0,1,.672,3.372l-.123.915H67.535a2.583,2.583,0,0,0,.457,1.822,1.811,1.811,0,0,0,1.477.71,3.2,3.2,0,0,0,2.479-1.169L73-1.6A4.009,4.009,0,0,1,71.429-.277,4.686,4.686,0,0,1,69.293.176Zm.888-8.156Q68.528-8.033,67.7-5.643l3.946.009.035-.185a2.757,2.757,0,0,0,.009-.791,1.617,1.617,0,0,0-.492-.984A1.558,1.558,0,0,0,70.181-7.98ZM80.13-2.637q.149-.87-1.129-1.208a14.359,14.359,0,0,1-1.745-.541,2.4,2.4,0,0,1-1.749-2.355,2.675,2.675,0,0,1,1.165-2.123,4.268,4.268,0,0,1,2.685-.822,3.674,3.674,0,0,1,2.465.853,2.719,2.719,0,0,1,.936,2.188l-2.065-.009a1.333,1.333,0,0,0-.36-1.033,1.47,1.47,0,0,0-1.037-.391,2.044,2.044,0,0,0-1.191.343,1.277,1.277,0,0,0-.576.9q-.123.8,1.125,1.112A12.348,12.348,0,0,1,80.5-5.15,2.407,2.407,0,0,1,82.178-2.76a2.628,2.628,0,0,1-.593,1.578A3.462,3.462,0,0,1,80.112-.154a5.036,5.036,0,0,1-1.96.33,3.867,3.867,0,0,1-2.58-.905,2.826,2.826,0,0,1-1.006-2.276L76.579-3a1.531,1.531,0,0,0,.457,1.16,1.766,1.766,0,0,0,1.2.4,2.391,2.391,0,0,0,1.288-.321A1.231,1.231,0,0,0,80.13-2.637ZM85.4-10.3h.759a1.358,1.358,0,0,0,.91-.3,1.061,1.061,0,0,0,.336-.846,1.156,1.156,0,0,0-.279-.828,1.124,1.124,0,0,0-.854-.295,1.19,1.19,0,0,0-.825.29.968.968,0,0,0-.323.756H83.876a1.886,1.886,0,0,1,.305-1.046,2.049,2.049,0,0,1,.851-.736,2.772,2.772,0,0,1,1.223-.264,2.567,2.567,0,0,1,1.756.561,1.97,1.97,0,0,1,.638,1.561,1.586,1.586,0,0,1-.32.946,2.009,2.009,0,0,1-.828.669,1.831,1.831,0,0,1,.936.661,1.811,1.811,0,0,1,.32,1.077,2,2,0,0,1-.69,1.6,2.677,2.677,0,0,1-1.812.595,2.657,2.657,0,0,1-1.764-.574A1.891,1.891,0,0,1,83.8-8H85.05a1.042,1.042,0,0,0,.331.8,1.254,1.254,0,0,0,.889.308,1.293,1.293,0,0,0,.913-.308,1.154,1.154,0,0,0,.333-.892A1.166,1.166,0,0,0,87.168-9a1.49,1.49,0,0,0-1.036-.318H85.4Z" transform="translate(786 4253)" fill="#fff"/>
    <path id="Trazado_737831" data-name="Trazado 737831" d="M6.741,0H4.614V-10.281L1.477-9.211V-11l4.992-1.837h.272Zm5.836-12.4-.229,3.437h-1.4V-13.5h1.626ZM22.57-5.388a6.979,6.979,0,0,1-1.033,4.162A3.647,3.647,0,0,1,18.4.176a3.7,3.7,0,0,1-3.125-1.367,6.683,6.683,0,0,1-1.077-4.047V-7.453a6.874,6.874,0,0,1,1.033-4.14,3.681,3.681,0,0,1,3.151-1.38,3.7,3.7,0,0,1,3.133,1.345A6.664,6.664,0,0,1,22.57-7.6ZM20.435-7.778a5.415,5.415,0,0,0-.492-2.641,1.68,1.68,0,0,0-1.564-.839,1.679,1.679,0,0,0-1.538.8,5,5,0,0,0-.519,2.483v2.9a5.555,5.555,0,0,0,.5,2.672,1.683,1.683,0,0,0,1.573.879,1.653,1.653,0,0,0,1.521-.813,5.226,5.226,0,0,0,.519-2.544ZM32.8-5.388a6.979,6.979,0,0,1-1.033,4.162,3.647,3.647,0,0,1-3.142,1.4A3.7,3.7,0,0,1,25.5-1.191a6.683,6.683,0,0,1-1.077-4.047V-7.453a6.874,6.874,0,0,1,1.033-4.14,3.681,3.681,0,0,1,3.151-1.38,3.7,3.7,0,0,1,3.133,1.345A6.664,6.664,0,0,1,32.8-7.6ZM30.665-7.778a5.415,5.415,0,0,0-.492-2.641,1.68,1.68,0,0,0-1.564-.839,1.679,1.679,0,0,0-1.538.8,5,5,0,0,0-.519,2.483v2.9a5.555,5.555,0,0,0,.5,2.672,1.683,1.683,0,0,0,1.573.879,1.653,1.653,0,0,0,1.521-.813,5.226,5.226,0,0,0,.519-2.544ZM43.031-5.388A6.979,6.979,0,0,1,42-1.226a3.647,3.647,0,0,1-3.142,1.4,3.7,3.7,0,0,1-3.125-1.367,6.683,6.683,0,0,1-1.077-4.047V-7.453a6.874,6.874,0,0,1,1.033-4.14,3.681,3.681,0,0,1,3.151-1.38,3.7,3.7,0,0,1,3.133,1.345A6.664,6.664,0,0,1,43.031-7.6ZM40.9-7.778a5.415,5.415,0,0,0-.492-2.641,1.68,1.68,0,0,0-1.564-.839,1.679,1.679,0,0,0-1.538.8,5,5,0,0,0-.519,2.483v2.9a5.555,5.555,0,0,0,.5,2.672,1.683,1.683,0,0,0,1.573.879,1.653,1.653,0,0,0,1.521-.813A5.226,5.226,0,0,0,40.9-4.887ZM46.389-2.25a1.22,1.22,0,0,1,.923.338,1.175,1.175,0,0,1,.325.848,1.134,1.134,0,0,1-.325.831,1.238,1.238,0,0,1-.923.33,1.242,1.242,0,0,1-.905-.325,1.115,1.115,0,0,1-.334-.835,1.175,1.175,0,0,1,.325-.848A1.208,1.208,0,0,1,46.389-2.25Zm11.9-3.138a6.979,6.979,0,0,1-1.033,4.162,3.647,3.647,0,0,1-3.142,1.4A3.7,3.7,0,0,1,50.99-1.191a6.683,6.683,0,0,1-1.077-4.047V-7.453a6.874,6.874,0,0,1,1.033-4.14,3.681,3.681,0,0,1,3.151-1.38,3.7,3.7,0,0,1,3.133,1.345A6.664,6.664,0,0,1,58.289-7.6ZM56.153-7.778a5.415,5.415,0,0,0-.492-2.641,1.68,1.68,0,0,0-1.564-.839,1.679,1.679,0,0,0-1.538.8A5,5,0,0,0,52.04-7.98v2.9a5.555,5.555,0,0,0,.5,2.672,1.683,1.683,0,0,0,1.573.879,1.653,1.653,0,0,0,1.521-.813,5.226,5.226,0,0,0,.519-2.544ZM68.52-5.388a6.979,6.979,0,0,1-1.033,4.162,3.647,3.647,0,0,1-3.142,1.4A3.7,3.7,0,0,1,61.22-1.191a6.683,6.683,0,0,1-1.077-4.047V-7.453a6.874,6.874,0,0,1,1.033-4.14,3.681,3.681,0,0,1,3.151-1.38,3.7,3.7,0,0,1,3.133,1.345A6.664,6.664,0,0,1,68.52-7.6ZM66.384-7.778a5.415,5.415,0,0,0-.492-2.641,1.68,1.68,0,0,0-1.564-.839,1.679,1.679,0,0,0-1.538.8,5,5,0,0,0-.519,2.483v2.9a5.555,5.555,0,0,0,.5,2.672,1.683,1.683,0,0,0,1.573.879,1.653,1.653,0,0,0,1.521-.813,5.226,5.226,0,0,0,.519-2.544ZM78.75-5.388a6.979,6.979,0,0,1-1.033,4.162,3.647,3.647,0,0,1-3.142,1.4,3.7,3.7,0,0,1-3.125-1.367,6.683,6.683,0,0,1-1.077-4.047V-7.453a6.874,6.874,0,0,1,1.033-4.14,3.681,3.681,0,0,1,3.151-1.38,3.7,3.7,0,0,1,3.133,1.345A6.664,6.664,0,0,1,78.75-7.6ZM76.614-7.778a5.415,5.415,0,0,0-.492-2.641,1.68,1.68,0,0,0-1.564-.839,1.679,1.679,0,0,0-1.538.8A5,5,0,0,0,72.5-7.98v2.9A5.555,5.555,0,0,0,73-2.408a1.683,1.683,0,0,0,1.573.879A1.653,1.653,0,0,0,76.1-2.342a5.226,5.226,0,0,0,.519-2.544ZM88.409-1.521a2,2,0,0,0,1.323-.435,2,2,0,0,0,.734-1.182l1.969-.009a3.367,3.367,0,0,1-.681,1.714,3.96,3.96,0,0,1-1.5,1.2,4.158,4.158,0,0,1-1.907.4,3.582,3.582,0,0,1-2.083-.633,3.5,3.5,0,0,1-1.257-1.7,5.441,5.441,0,0,1-.264-2.421l.026-.308a6.223,6.223,0,0,1,.8-2.5,4.7,4.7,0,0,1,1.692-1.727,4.237,4.237,0,0,1,2.3-.571,3.327,3.327,0,0,1,2.47,1.024,3.617,3.617,0,0,1,.923,2.571H91.011a2.125,2.125,0,0,0-.4-1.336,1.464,1.464,0,0,0-1.156-.554A2.11,2.11,0,0,0,87.53-6.943a5.79,5.79,0,0,0-.756,3.023Q86.713-1.556,88.409-1.521Zm8.675-8L96.9-8.508a3.667,3.667,0,0,1,2.813-1.178,2.73,2.73,0,0,1,1.49.413,1.955,1.955,0,0,1,.8,1.046,3.832,3.832,0,0,1,3.023-1.459,2.469,2.469,0,0,1,2.061.954,3.639,3.639,0,0,1,.505,2.571L106.567,0h-2.083l1.037-6.179a3.239,3.239,0,0,0,.009-.712,1.163,1.163,0,0,0-1.3-1.055A2.192,2.192,0,0,0,102.19-6.53l-.026.193L101.074,0H98.982l1.037-6.152a3.157,3.157,0,0,0,.009-.7,1.174,1.174,0,0,0-1.3-1.09A2.3,2.3,0,0,0,96.776-6.9L95.572,0H93.489l1.644-9.51Zm13.548-.783h.759a1.358,1.358,0,0,0,.91-.3,1.061,1.061,0,0,0,.336-.846,1.156,1.156,0,0,0-.279-.828,1.124,1.124,0,0,0-.854-.295,1.19,1.19,0,0,0-.825.29.968.968,0,0,0-.323.756H109.11a1.886,1.886,0,0,1,.305-1.046,2.049,2.049,0,0,1,.851-.736,2.772,2.772,0,0,1,1.223-.264,2.567,2.567,0,0,1,1.756.561,1.97,1.97,0,0,1,.638,1.561,1.586,1.586,0,0,1-.32.946,2.009,2.009,0,0,1-.828.669,1.831,1.831,0,0,1,.936.661,1.811,1.811,0,0,1,.32,1.077,2,2,0,0,1-.69,1.6,2.677,2.677,0,0,1-1.812.595,2.657,2.657,0,0,1-1.764-.574A1.891,1.891,0,0,1,109.038-8h1.246a1.042,1.042,0,0,0,.331.8,1.254,1.254,0,0,0,.889.308,1.293,1.293,0,0,0,.913-.308,1.154,1.154,0,0,0,.333-.892A1.166,1.166,0,0,0,112.4-9a1.49,1.49,0,0,0-1.036-.318h-.733Z" transform="translate(773 4209)" fill="#fff"/>
    <path id="Trazado_737830" data-name="Trazado 737830" d="M0,0H170" transform="translate(745.5 4223.5)" fill="none" stroke="#fff" stroke-width="2"/>
  </g>
</svg>
